0
SECTION
2
HEADER
9
$ACADVER
1
AC1009
9
$LUNITS
70
2
9
$DWGCODEPAGE
3
ANSI_1252
9
$EXTMIN
10
0
20
-2500
30
0
9
$EXTMAX
10
15000
20
24000
30
0
9
$LIMMIN
10
0
20
-2500
9
$LIMMAX
10
15000
20
24000
9
$VIEWCTR
10
7500
20
10750
30
0
9
$VIEWSIZE
40
30475
9
$SCREENSIZE
10
1024
20
768
0
ENDSEC
0
SECTION
2
TABLES
0
TABLE
2
LTYPE
70
3
0
LTYPE
2
CONTINUOUS
70
0
3
Solid line
72
65
73
0
40
0
0
LTYPE
2
CENTER
70
0
3
Center ____ _ ____ _ ____
72
65
73
4
40
50.800000000000004
49
31.75
74
0
49
-6.35
74
0
49
6.35
74
0
49
-6.35
74
0
0
LTYPE
2
DASHED
70
0
3
Dashed __ __ __ __
72
65
73
2
40
19.049999999999997
49
12.7
74
0
49
-6.35
74
0
0
ENDTAB
0
TABLE
2
LAYER
70
43
0
LAYER
2
A-GRID
70
0
62
1
6
CENTER
0
LAYER
2
A-AXIS
70
0
62
1
6
CENTER
0
LAYER
2
A-AXIS-TEXT
70
0
62
1
6
CONTINUOUS
0
LAYER
2
A-WALL-EXT
70
0
62
7
6
CONTINUOUS
0
LAYER
2
A-WALL-INT
70
0
62
7
6
CONTINUOUS
0
LAYER
2
A-WALL-CORE
70
0
62
7
6
CONTINUOUS
0
LAYER
2
A-WALL-SERVICE
70
0
62
7
6
CONTINUOUS
0
LAYER
2
A-WALL-PART
70
0
62
7
6
CONTINUOUS
0
LAYER
2
A-COLUMN
70
0
62
7
6
CONTINUOUS
0
LAYER
2
A-DOOR
70
0
62
3
6
CONTINUOUS
0
LAYER
2
A-WINDOW
70
0
62
4
6
CONTINUOUS
0
LAYER
2
A-STAIR
70
0
62
6
6
CONTINUOUS
0
LAYER
2
A-STAIR-TREAD
70
0
62
8
6
CONTINUOUS
0
LAYER
2
A-STAIR-DIR
70
0
62
6
6
CONTINUOUS
0
LAYER
2
A-PARKING
70
0
62
8
6
CONTINUOUS
0
LAYER
2
A-SANITARY
70
0
62
3
6
CONTINUOUS
0
LAYER
2
A-FURN
70
0
62
8
6
CONTINUOUS
0
LAYER
2
A-ROOM
70
0
62
7
6
CONTINUOUS
0
LAYER
2
A-HATCH
70
0
62
8
6
CONTINUOUS
0
LAYER
2
A-DIMS
70
0
62
2
6
CONTINUOUS
0
LAYER
2
A-TEXT
70
0
62
7
6
CONTINUOUS
0
LAYER
2
A-NORTH
70
0
62
7
6
CONTINUOUS
0
LAYER
2
A-TITLE
70
0
62
7
6
CONTINUOUS
0
LAYER
2
A-BLDG-OUT
70
0
62
9
6
DASHED
0
LAYER
2
A-SITE
70
0
62
3
6
DASHED
0
LAYER
2
A-SETBACK
70
0
62
2
6
DASHED
0
LAYER
2
0
70
0
62
7
6
CONTINUOUS
0
LAYER
2
A-FLOOR-0-A-WALL-EXT
70
0
62
7
6
CONTINUOUS
0
LAYER
2
A-FLOOR-0-A-WALL-INT
70
0
62
7
6
CONTINUOUS
0
LAYER
2
A-FLOOR-0-A-WALL-CORE
70
0
62
7
6
CONTINUOUS
0
LAYER
2
A-FLOOR-0-A-WALL-SERVICE
70
0
62
7
6
CONTINUOUS
0
LAYER
2
A-FLOOR-0-A-WALL-PART
70
0
62
7
6
CONTINUOUS
0
LAYER
2
A-FLOOR-0-A-DOOR
70
0
62
3
6
CONTINUOUS
0
LAYER
2
A-FLOOR-0-A-WINDOW
70
0
62
4
6
CONTINUOUS
0
LAYER
2
A-FLOOR-0-A-STAIR
70
0
62
6
6
CONTINUOUS
0
LAYER
2
A-FLOOR-0-A-STAIR-TREAD
70
0
62
8
6
CONTINUOUS
0
LAYER
2
A-FLOOR-0-A-STAIR-DIR
70
0
62
6
6
CONTINUOUS
0
LAYER
2
A-FLOOR-0-A-ROOM
70
0
62
7
6
CONTINUOUS
0
LAYER
2
A-FLOOR-0-A-DIMS
70
0
62
2
6
CONTINUOUS
0
LAYER
2
A-FLOOR-0-A-PARKING
70
0
62
8
6
CONTINUOUS
0
LAYER
2
A-FLOOR-0-A-BLDG-OUT
70
0
62
9
6
DASHED
0
LAYER
2
A-FLOOR-0-A-SITE
70
0
62
3
6
DASHED
0
LAYER
2
A-FLOOR-0-A-SETBACK
70
0
62
2
6
DASHED
0
ENDTAB
0
TABLE
2
STYLE
70
1
0
STYLE
2
STANDARD
70
0
40
0
41
1
50
0
71
0
42
0.2
3
txt
4

0
ENDTAB
0
ENDSEC
0
SECTION
2
BLOCKS
0
BLOCK
2
*Model_Space
70
0
10
0
20
0
30
0
0
ENDBLK
0
BLOCK
2
*Paper_Space
70
0
10
0
20
0
30
0
0
ENDBLK
0
ENDSEC
0
SECTION
2
ENTITIES
0
POLYLINE
8
A-BLDG-OUT
66
1
70
1
0
VERTEX
8
A-BLDG-OUT
10
2000
20
1500
0
VERTEX
8
A-BLDG-OUT
10
13000
20
1500
0
VERTEX
8
A-BLDG-OUT
10
13000
20
21000
0
VERTEX
8
A-BLDG-OUT
10
2000
20
21000
0
SEQEND
8
A-BLDG-OUT
0
POLYLINE
8
A-SETBACK
66
1
70
1
0
VERTEX
8
A-SETBACK
10
2000
20
1500
0
VERTEX
8
A-SETBACK
10
13000
20
1500
0
VERTEX
8
A-SETBACK
10
13000
20
21000
0
VERTEX
8
A-SETBACK
10
2000
20
21000
0
SEQEND
8
A-SETBACK
0
POLYLINE
8
A-FLOOR-0-A-BLDG-OUT
66
1
70
1
0
VERTEX
8
A-FLOOR-0-A-BLDG-OUT
10
2000
20
1500
0
VERTEX
8
A-FLOOR-0-A-BLDG-OUT
10
13000
20
1500
0
VERTEX
8
A-FLOOR-0-A-BLDG-OUT
10
13000
20
21000
0
VERTEX
8
A-FLOOR-0-A-BLDG-OUT
10
2000
20
21000
0
SEQEND
8
A-FLOOR-0-A-BLDG-OUT
0
POLYLINE
8
A-FLOOR-0-A-SETBACK
66
1
70
1
0
VERTEX
8
A-FLOOR-0-A-SETBACK
10
2000
20
1500
0
VERTEX
8
A-FLOOR-0-A-SETBACK
10
13000
20
1500
0
VERTEX
8
A-FLOOR-0-A-SETBACK
10
13000
20
21000
0
VERTEX
8
A-FLOOR-0-A-SETBACK
10
2000
20
21000
0
SEQEND
8
A-FLOOR-0-A-SETBACK
0
POLYLINE
8
A-SITE
66
1
70
1
0
VERTEX
8
A-SITE
10
0
20
0
0
VERTEX
8
A-SITE
10
15000
20
0
0
VERTEX
8
A-SITE
10
15000
20
24000
0
VERTEX
8
A-SITE
10
0
20
24000
0
SEQEND
8
A-SITE
0
POLYLINE
8
A-FLOOR-0-A-SITE
66
1
70
1
0
VERTEX
8
A-FLOOR-0-A-SITE
10
0
20
0
0
VERTEX
8
A-FLOOR-0-A-SITE
10
15000
20
0
0
VERTEX
8
A-FLOOR-0-A-SITE
10
15000
20
24000
0
VERTEX
8
A-FLOOR-0-A-SITE
10
0
20
24000
0
SEQEND
8
A-FLOOR-0-A-SITE
0
TEXT
8
A-SITE
10
0
20
-800
40
300
1
SITE rectangle 15.0x24.0m
50
0
72
0
11
0
21
-800
0
TEXT
8
A-SETBACK
10
0
20
-1200
40
200
1
Setbacks N=3 S=1.5 E=2 W=2
50
0
72
0
11
0
21
-1200
0
TEXT
8
A-FLOOR-0-A-ROOM
10
2000
20
21500
40
350
1
FLOOR 0 - Level 0 - 0.00m elev
50
0
72
0
11
2000
21
21500
0
TEXT
8
A-ROOM
10
2000
20
21500
40
350
1
FLOOR 0 - Level 0
50
0
72
0
11
2000
21
21500
0
LINE
8
A-FLOOR-0-A-WALL-SERVICE
10
2000
20
11090
11
2835
21
11090
0
LINE
8
A-FLOOR-0-A-WALL-SERVICE
10
2000
20
10970
11
2835
21
10970
0
LINE
8
A-FLOOR-0-A-WALL-SERVICE
10
2000
20
11090
11
2000
21
10970
0
LINE
8
A-FLOOR-0-A-WALL-SERVICE
10
3635
20
11090
11
4470
21
11090
0
LINE
8
A-FLOOR-0-A-WALL-SERVICE
10
3635
20
10970
11
4470
21
10970
0
LINE
8
A-FLOOR-0-A-WALL-SERVICE
10
4470
20
11090
11
4470
21
10970
0
LINE
8
A-FLOOR-0-A-WALL-SERVICE
10
2835
20
11090
11
2835
21
10970
0
LINE
8
A-FLOOR-0-A-WALL-SERVICE
10
3635
20
11090
11
3635
21
10970
0
LINE
8
A-WALL-SERVICE
10
2000
20
11090
11
2835
21
11090
0
LINE
8
A-WALL-SERVICE
10
2000
20
10970
11
2835
21
10970
0
LINE
8
A-WALL-SERVICE
10
2000
20
11090
11
2000
21
10970
0
LINE
8
A-WALL-SERVICE
10
3635
20
11090
11
4470
21
11090
0
LINE
8
A-WALL-SERVICE
10
3635
20
10970
11
4470
21
10970
0
LINE
8
A-WALL-SERVICE
10
4470
20
11090
11
4470
21
10970
0
LINE
8
A-WALL-SERVICE
10
2835
20
11090
11
2835
21
10970
0
LINE
8
A-WALL-SERVICE
10
3635
20
11090
11
3635
21
10970
0
LINE
8
A-FLOOR-0-A-WALL-INT
10
4470
20
11105
11
6165
21
11105
0
LINE
8
A-FLOOR-0-A-WALL-INT
10
4470
20
10955
11
6165
21
10955
0
LINE
8
A-FLOOR-0-A-WALL-INT
10
4470
20
11105
11
4470
21
10955
0
LINE
8
A-FLOOR-0-A-WALL-INT
10
7065
20
11105
11
8760
21
11105
0
LINE
8
A-FLOOR-0-A-WALL-INT
10
7065
20
10955
11
8760
21
10955
0
LINE
8
A-FLOOR-0-A-WALL-INT
10
8760
20
11105
11
8760
21
10955
0
LINE
8
A-FLOOR-0-A-WALL-INT
10
6165
20
11105
11
6165
21
10955
0
LINE
8
A-FLOOR-0-A-WALL-INT
10
7065
20
11105
11
7065
21
10955
0
LINE
8
A-WALL-INT
10
4470
20
11105
11
6165
21
11105
0
LINE
8
A-WALL-INT
10
4470
20
10955
11
6165
21
10955
0
LINE
8
A-WALL-INT
10
4470
20
11105
11
4470
21
10955
0
LINE
8
A-WALL-INT
10
7065
20
11105
11
8760
21
11105
0
LINE
8
A-WALL-INT
10
7065
20
10955
11
8760
21
10955
0
LINE
8
A-WALL-INT
10
8760
20
11105
11
8760
21
10955
0
LINE
8
A-WALL-INT
10
6165
20
11105
11
6165
21
10955
0
LINE
8
A-WALL-INT
10
7065
20
11105
11
7065
21
10955
0
LINE
8
A-FLOOR-0-A-WALL-INT
10
8760
20
11105
11
10430
21
11105
0
LINE
8
A-FLOOR-0-A-WALL-INT
10
8760
20
10955
11
10430
21
10955
0
LINE
8
A-FLOOR-0-A-WALL-INT
10
8760
20
11105
11
8760
21
10955
0
LINE
8
A-FLOOR-0-A-WALL-INT
10
11330
20
11105
11
13000
21
11105
0
LINE
8
A-FLOOR-0-A-WALL-INT
10
11330
20
10955
11
13000
21
10955
0
LINE
8
A-FLOOR-0-A-WALL-INT
10
13000
20
11105
11
13000
21
10955
0
LINE
8
A-FLOOR-0-A-WALL-INT
10
10430
20
11105
11
10430
21
10955
0
LINE
8
A-FLOOR-0-A-WALL-INT
10
11330
20
11105
11
11330
21
10955
0
LINE
8
A-WALL-INT
10
8760
20
11105
11
10430
21
11105
0
LINE
8
A-WALL-INT
10
8760
20
10955
11
10430
21
10955
0
LINE
8
A-WALL-INT
10
8760
20
11105
11
8760
21
10955
0
LINE
8
A-WALL-INT
10
11330
20
11105
11
13000
21
11105
0
LINE
8
A-WALL-INT
10
11330
20
10955
11
13000
21
10955
0
LINE
8
A-WALL-INT
10
13000
20
11105
11
13000
21
10955
0
LINE
8
A-WALL-INT
10
10430
20
11105
11
10430
21
10955
0
LINE
8
A-WALL-INT
10
11330
20
11105
11
11330
21
10955
0
LINE
8
A-FLOOR-0-A-WALL-SERVICE
10
4410
20
11030
11
4410
21
15615
0
LINE
8
A-FLOOR-0-A-WALL-SERVICE
10
4530
20
11030
11
4530
21
15615
0
LINE
8
A-FLOOR-0-A-WALL-SERVICE
10
4410
20
11030
11
4530
21
11030
0
LINE
8
A-FLOOR-0-A-WALL-SERVICE
10
4410
20
16415
11
4410
21
21000
0
LINE
8
A-FLOOR-0-A-WALL-SERVICE
10
4530
20
16415
11
4530
21
21000
0
LINE
8
A-FLOOR-0-A-WALL-SERVICE
10
4410
20
21000
11
4530
21
21000
0
LINE
8
A-FLOOR-0-A-WALL-SERVICE
10
4410
20
15615
11
4530
21
15615
0
LINE
8
A-FLOOR-0-A-WALL-SERVICE
10
4410
20
16415
11
4530
21
16415
0
LINE
8
A-WALL-SERVICE
10
4410
20
11030
11
4410
21
15615
0
LINE
8
A-WALL-SERVICE
10
4530
20
11030
11
4530
21
15615
0
LINE
8
A-WALL-SERVICE
10
4410
20
11030
11
4530
21
11030
0
LINE
8
A-WALL-SERVICE
10
4410
20
16415
11
4410
21
21000
0
LINE
8
A-WALL-SERVICE
10
4530
20
16415
11
4530
21
21000
0
LINE
8
A-WALL-SERVICE
10
4410
20
21000
11
4530
21
21000
0
LINE
8
A-WALL-SERVICE
10
4410
20
15615
11
4530
21
15615
0
LINE
8
A-WALL-SERVICE
10
4410
20
16415
11
4530
21
16415
0
LINE
8
A-FLOOR-0-A-WALL-EXT
10
2000
20
21175
11
4470
21
21175
0
LINE
8
A-FLOOR-0-A-WALL-EXT
10
2000
20
20825
11
4470
21
20825
0
LINE
8
A-FLOOR-0-A-WALL-EXT
10
2000
20
21175
11
2000
21
20825
0
LINE
8
A-FLOOR-0-A-WALL-EXT
10
4470
20
21175
11
4470
21
20825
0
LINE
8
A-WALL-EXT
10
2000
20
21175
11
4470
21
21175
0
LINE
8
A-WALL-EXT
10
2000
20
20825
11
4470
21
20825
0
LINE
8
A-WALL-EXT
10
2000
20
21175
11
2000
21
20825
0
LINE
8
A-WALL-EXT
10
4470
20
21175
11
4470
21
20825
0
LINE
8
A-FLOOR-0-A-WALL-EXT
10
4470
20
21175
11
5415
21
21175
0
LINE
8
A-FLOOR-0-A-WALL-EXT
10
4470
20
20825
11
5415
21
20825
0
LINE
8
A-FLOOR-0-A-WALL-EXT
10
4470
20
21175
11
4470
21
20825
0
LINE
8
A-FLOOR-0-A-WALL-EXT
10
7815
20
21175
11
8760
21
21175
0
LINE
8
A-FLOOR-0-A-WALL-EXT
10
7815
20
20825
11
8760
21
20825
0
LINE
8
A-FLOOR-0-A-WALL-EXT
10
8760
20
21175
11
8760
21
20825
0
LINE
8
A-FLOOR-0-A-WALL-EXT
10
5415
20
21175
11
5415
21
20825
0
LINE
8
A-FLOOR-0-A-WALL-EXT
10
7815
20
21175
11
7815
21
20825
0
LINE
8
A-WALL-EXT
10
4470
20
21175
11
5415
21
21175
0
LINE
8
A-WALL-EXT
10
4470
20
20825
11
5415
21
20825
0
LINE
8
A-WALL-EXT
10
4470
20
21175
11
4470
21
20825
0
LINE
8
A-WALL-EXT
10
7815
20
21175
11
8760
21
21175
0
LINE
8
A-WALL-EXT
10
7815
20
20825
11
8760
21
20825
0
LINE
8
A-WALL-EXT
10
8760
20
21175
11
8760
21
20825
0
LINE
8
A-WALL-EXT
10
5415
20
21175
11
5415
21
20825
0
LINE
8
A-WALL-EXT
10
7815
20
21175
11
7815
21
20825
0
LINE
8
A-FLOOR-0-A-WALL-EXT
10
8760
20
21175
11
13000
21
21175
0
LINE
8
A-FLOOR-0-A-WALL-EXT
10
8760
20
20825
11
13000
21
20825
0
LINE
8
A-FLOOR-0-A-WALL-EXT
10
8760
20
21175
11
8760
21
20825
0
LINE
8
A-FLOOR-0-A-WALL-EXT
10
13000
20
21175
11
13000
21
20825
0
LINE
8
A-WALL-EXT
10
8760
20
21175
11
13000
21
21175
0
LINE
8
A-WALL-EXT
10
8760
20
20825
11
13000
21
20825
0
LINE
8
A-WALL-EXT
10
8760
20
21175
11
8760
21
20825
0
LINE
8
A-WALL-EXT
10
13000
20
21175
11
13000
21
20825
0
LINE
8
A-FLOOR-0-A-WALL-EXT
10
1825
20
1500
11
1825
21
3000
0
LINE
8
A-FLOOR-0-A-WALL-EXT
10
2175
20
1500
11
2175
21
3000
0
LINE
8
A-FLOOR-0-A-WALL-EXT
10
1825
20
1500
11
2175
21
1500
0
LINE
8
A-FLOOR-0-A-WALL-EXT
10
1825
20
3000
11
2175
21
3000
0
LINE
8
A-WALL-EXT
10
1825
20
1500
11
1825
21
3000
0
LINE
8
A-WALL-EXT
10
2175
20
1500
11
2175
21
3000
0
LINE
8
A-WALL-EXT
10
1825
20
1500
11
2175
21
1500
0
LINE
8
A-WALL-EXT
10
1825
20
3000
11
2175
21
3000
0
LINE
8
A-FLOOR-0-A-WALL-EXT
10
1825
20
3000
11
1825
21
4765
0
LINE
8
A-FLOOR-0-A-WALL-EXT
10
2175
20
3000
11
2175
21
4765
0
LINE
8
A-FLOOR-0-A-WALL-EXT
10
1825
20
3000
11
2175
21
3000
0
LINE
8
A-FLOOR-0-A-WALL-EXT
10
1825
20
7765
11
1825
21
9530
0
LINE
8
A-FLOOR-0-A-WALL-EXT
10
2175
20
7765
11
2175
21
9530
0
LINE
8
A-FLOOR-0-A-WALL-EXT
10
1825
20
9530
11
2175
21
9530
0
LINE
8
A-FLOOR-0-A-WALL-EXT
10
1825
20
4765
11
2175
21
4765
0
LINE
8
A-FLOOR-0-A-WALL-EXT
10
1825
20
7765
11
2175
21
7765
0
LINE
8
A-WALL-EXT
10
1825
20
3000
11
1825
21
4765
0
LINE
8
A-WALL-EXT
10
2175
20
3000
11
2175
21
4765
0
LINE
8
A-WALL-EXT
10
1825
20
3000
11
2175
21
3000
0
LINE
8
A-WALL-EXT
10
1825
20
7765
11
1825
21
9530
0
LINE
8
A-WALL-EXT
10
2175
20
7765
11
2175
21
9530
0
LINE
8
A-WALL-EXT
10
1825
20
9530
11
2175
21
9530
0
LINE
8
A-WALL-EXT
10
1825
20
4765
11
2175
21
4765
0
LINE
8
A-WALL-EXT
10
1825
20
7765
11
2175
21
7765
0
LINE
8
A-FLOOR-0-A-WALL-EXT
10
1825
20
9530
11
1825
21
11030
0
LINE
8
A-FLOOR-0-A-WALL-EXT
10
2175
20
9530
11
2175
21
11030
0
LINE
8
A-FLOOR-0-A-WALL-EXT
10
1825
20
9530
11
2175
21
9530
0
LINE
8
A-FLOOR-0-A-WALL-EXT
10
1825
20
11030
11
2175
21
11030
0
LINE
8
A-WALL-EXT
10
1825
20
9530
11
1825
21
11030
0
LINE
8
A-WALL-EXT
10
2175
20
9530
11
2175
21
11030
0
LINE
8
A-WALL-EXT
10
1825
20
9530
11
2175
21
9530
0
LINE
8
A-WALL-EXT
10
1825
20
11030
11
2175
21
11030
0
LINE
8
A-FLOOR-0-A-WALL-EXT
10
1825
20
11030
11
1825
21
15515
0
LINE
8
A-FLOOR-0-A-WALL-EXT
10
2175
20
11030
11
2175
21
15515
0
LINE
8
A-FLOOR-0-A-WALL-EXT
10
1825
20
11030
11
2175
21
11030
0
LINE
8
A-FLOOR-0-A-WALL-EXT
10
1825
20
16515
11
1825
21
21000
0
LINE
8
A-FLOOR-0-A-WALL-EXT
10
2175
20
16515
11
2175
21
21000
0
LINE
8
A-FLOOR-0-A-WALL-EXT
10
1825
20
21000
11
2175
21
21000
0
LINE
8
A-FLOOR-0-A-WALL-EXT
10
1825
20
15515
11
2175
21
15515
0
LINE
8
A-FLOOR-0-A-WALL-EXT
10
1825
20
16515
11
2175
21
16515
0
LINE
8
A-WALL-EXT
10
1825
20
11030
11
1825
21
15515
0
LINE
8
A-WALL-EXT
10
2175
20
11030
11
2175
21
15515
0
LINE
8
A-WALL-EXT
10
1825
20
11030
11
2175
21
11030
0
LINE
8
A-WALL-EXT
10
1825
20
16515
11
1825
21
21000
0
LINE
8
A-WALL-EXT
10
2175
20
16515
11
2175
21
21000
0
LINE
8
A-WALL-EXT
10
1825
20
21000
11
2175
21
21000
0
LINE
8
A-WALL-EXT
10
1825
20
15515
11
2175
21
15515
0
LINE
8
A-WALL-EXT
10
1825
20
16515
11
2175
21
16515
0
LINE
8
A-FLOOR-0-A-WALL-INT
10
8685
20
11030
11
8685
21
15565
0
LINE
8
A-FLOOR-0-A-WALL-INT
10
8835
20
11030
11
8835
21
15565
0
LINE
8
A-FLOOR-0-A-WALL-INT
10
8685
20
11030
11
8835
21
11030
0
LINE
8
A-FLOOR-0-A-WALL-INT
10
8685
20
16465
11
8685
21
21000
0
LINE
8
A-FLOOR-0-A-WALL-INT
10
8835
20
16465
11
8835
21
21000
0
LINE
8
A-FLOOR-0-A-WALL-INT
10
8685
20
21000
11
8835
21
21000
0
LINE
8
A-FLOOR-0-A-WALL-INT
10
8685
20
15565
11
8835
21
15565
0
LINE
8
A-FLOOR-0-A-WALL-INT
10
8685
20
16465
11
8835
21
16465
0
LINE
8
A-WALL-INT
10
8685
20
11030
11
8685
21
15565
0
LINE
8
A-WALL-INT
10
8835
20
11030
11
8835
21
15565
0
LINE
8
A-WALL-INT
10
8685
20
11030
11
8835
21
11030
0
LINE
8
A-WALL-INT
10
8685
20
16465
11
8685
21
21000
0
LINE
8
A-WALL-INT
10
8835
20
16465
11
8835
21
21000
0
LINE
8
A-WALL-INT
10
8685
20
21000
11
8835
21
21000
0
LINE
8
A-WALL-INT
10
8685
20
15565
11
8835
21
15565
0
LINE
8
A-WALL-INT
10
8685
20
16465
11
8835
21
16465
0
LINE
8
A-FLOOR-0-A-WALL-EXT
10
12825
20
1500
11
12825
21
4615
0
LINE
8
A-FLOOR-0-A-WALL-EXT
10
13175
20
1500
11
13175
21
4615
0
LINE
8
A-FLOOR-0-A-WALL-EXT
10
12825
20
1500
11
13175
21
1500
0
LINE
8
A-FLOOR-0-A-WALL-EXT
10
12825
20
6415
11
12825
21
9530
0
LINE
8
A-FLOOR-0-A-WALL-EXT
10
13175
20
6415
11
13175
21
9530
0
LINE
8
A-FLOOR-0-A-WALL-EXT
10
12825
20
9530
11
13175
21
9530
0
LINE
8
A-FLOOR-0-A-WALL-EXT
10
12825
20
4615
11
13175
21
4615
0
LINE
8
A-FLOOR-0-A-WALL-EXT
10
12825
20
6415
11
13175
21
6415
0
LINE
8
A-WALL-EXT
10
12825
20
1500
11
12825
21
4615
0
LINE
8
A-WALL-EXT
10
13175
20
1500
11
13175
21
4615
0
LINE
8
A-WALL-EXT
10
12825
20
1500
11
13175
21
1500
0
LINE
8
A-WALL-EXT
10
12825
20
6415
11
12825
21
9530
0
LINE
8
A-WALL-EXT
10
13175
20
6415
11
13175
21
9530
0
LINE
8
A-WALL-EXT
10
12825
20
9530
11
13175
21
9530
0
LINE
8
A-WALL-EXT
10
12825
20
4615
11
13175
21
4615
0
LINE
8
A-WALL-EXT
10
12825
20
6415
11
13175
21
6415
0
LINE
8
A-FLOOR-0-A-WALL-EXT
10
12825
20
9530
11
12825
21
11030
0
LINE
8
A-FLOOR-0-A-WALL-EXT
10
13175
20
9530
11
13175
21
11030
0
LINE
8
A-FLOOR-0-A-WALL-EXT
10
12825
20
9530
11
13175
21
9530
0
LINE
8
A-FLOOR-0-A-WALL-EXT
10
12825
20
11030
11
13175
21
11030
0
LINE
8
A-WALL-EXT
10
12825
20
9530
11
12825
21
11030
0
LINE
8
A-WALL-EXT
10
13175
20
9530
11
13175
21
11030
0
LINE
8
A-WALL-EXT
10
12825
20
9530
11
13175
21
9530
0
LINE
8
A-WALL-EXT
10
12825
20
11030
11
13175
21
11030
0
LINE
8
A-FLOOR-0-A-WALL-EXT
10
12825
20
11030
11
12825
21
15015
0
LINE
8
A-FLOOR-0-A-WALL-EXT
10
13175
20
11030
11
13175
21
15015
0
LINE
8
A-FLOOR-0-A-WALL-EXT
10
12825
20
11030
11
13175
21
11030
0
LINE
8
A-FLOOR-0-A-WALL-EXT
10
12825
20
17015
11
12825
21
21000
0
LINE
8
A-FLOOR-0-A-WALL-EXT
10
13175
20
17015
11
13175
21
21000
0
LINE
8
A-FLOOR-0-A-WALL-EXT
10
12825
20
21000
11
13175
21
21000
0
LINE
8
A-FLOOR-0-A-WALL-EXT
10
12825
20
15015
11
13175
21
15015
0
LINE
8
A-FLOOR-0-A-WALL-EXT
10
12825
20
17015
11
13175
21
17015
0
LINE
8
A-WALL-EXT
10
12825
20
11030
11
12825
21
15015
0
LINE
8
A-WALL-EXT
10
13175
20
11030
11
13175
21
15015
0
LINE
8
A-WALL-EXT
10
12825
20
11030
11
13175
21
11030
0
LINE
8
A-WALL-EXT
10
12825
20
17015
11
12825
21
21000
0
LINE
8
A-WALL-EXT
10
13175
20
17015
11
13175
21
21000
0
LINE
8
A-WALL-EXT
10
12825
20
21000
11
13175
21
21000
0
LINE
8
A-WALL-EXT
10
12825
20
15015
11
13175
21
15015
0
LINE
8
A-WALL-EXT
10
12825
20
17015
11
13175
21
17015
0
LINE
8
A-FLOOR-0-A-WALL-EXT
10
2000
20
1675
11
2300
21
1675
0
LINE
8
A-FLOOR-0-A-WALL-EXT
10
2000
20
1325
11
2300
21
1325
0
LINE
8
A-FLOOR-0-A-WALL-EXT
10
2000
20
1675
11
2000
21
1325
0
LINE
8
A-FLOOR-0-A-WALL-EXT
10
3300
20
1675
11
3600
21
1675
0
LINE
8
A-FLOOR-0-A-WALL-EXT
10
3300
20
1325
11
3600
21
1325
0
LINE
8
A-FLOOR-0-A-WALL-EXT
10
3600
20
1675
11
3600
21
1325
0
LINE
8
A-FLOOR-0-A-WALL-EXT
10
2300
20
1675
11
2300
21
1325
0
LINE
8
A-FLOOR-0-A-WALL-EXT
10
3300
20
1675
11
3300
21
1325
0
LINE
8
A-WALL-EXT
10
2000
20
1675
11
2300
21
1675
0
LINE
8
A-WALL-EXT
10
2000
20
1325
11
2300
21
1325
0
LINE
8
A-WALL-EXT
10
2000
20
1675
11
2000
21
1325
0
LINE
8
A-WALL-EXT
10
3300
20
1675
11
3600
21
1675
0
LINE
8
A-WALL-EXT
10
3300
20
1325
11
3600
21
1325
0
LINE
8
A-WALL-EXT
10
3600
20
1675
11
3600
21
1325
0
LINE
8
A-WALL-EXT
10
2300
20
1675
11
2300
21
1325
0
LINE
8
A-WALL-EXT
10
3300
20
1675
11
3300
21
1325
0
LINE
8
A-FLOOR-0-A-WALL-EXT
10
7530
20
1675
11
8220.75
21
1675
0
LINE
8
A-FLOOR-0-A-WALL-EXT
10
7530
20
1325
11
8220.75
21
1325
0
LINE
8
A-FLOOR-0-A-WALL-EXT
10
7530
20
1675
11
7530
21
1325
0
LINE
8
A-FLOOR-0-A-WALL-EXT
10
9909.25
20
1675
11
10600
21
1675
0
LINE
8
A-FLOOR-0-A-WALL-EXT
10
9909.25
20
1325
11
10600
21
1325
0
LINE
8
A-FLOOR-0-A-WALL-EXT
10
10600
20
1675
11
10600
21
1325
0
LINE
8
A-FLOOR-0-A-WALL-EXT
10
8220.75
20
1675
11
8220.75
21
1325
0
LINE
8
A-FLOOR-0-A-WALL-EXT
10
9909.25
20
1675
11
9909.25
21
1325
0
LINE
8
A-WALL-EXT
10
7530
20
1675
11
8220.75
21
1675
0
LINE
8
A-WALL-EXT
10
7530
20
1325
11
8220.75
21
1325
0
LINE
8
A-WALL-EXT
10
7530
20
1675
11
7530
21
1325
0
LINE
8
A-WALL-EXT
10
9909.25
20
1675
11
10600
21
1675
0
LINE
8
A-WALL-EXT
10
9909.25
20
1325
11
10600
21
1325
0
LINE
8
A-WALL-EXT
10
10600
20
1675
11
10600
21
1325
0
LINE
8
A-WALL-EXT
10
8220.75
20
1675
11
8220.75
21
1325
0
LINE
8
A-WALL-EXT
10
9909.25
20
1675
11
9909.25
21
1325
0
LINE
8
A-FLOOR-0-A-WALL-EXT
10
10600
20
1675
11
13000
21
1675
0
LINE
8
A-FLOOR-0-A-WALL-EXT
10
10600
20
1325
11
13000
21
1325
0
LINE
8
A-FLOOR-0-A-WALL-EXT
10
10600
20
1675
11
10600
21
1325
0
LINE
8
A-FLOOR-0-A-WALL-EXT
10
13000
20
1675
11
13000
21
1325
0
LINE
8
A-WALL-EXT
10
10600
20
1675
11
13000
21
1675
0
LINE
8
A-WALL-EXT
10
10600
20
1325
11
13000
21
1325
0
LINE
8
A-WALL-EXT
10
10600
20
1675
11
10600
21
1325
0
LINE
8
A-WALL-EXT
10
13000
20
1675
11
13000
21
1325
0
LINE
8
A-FLOOR-0-A-WALL-INT
10
2000
20
9605
11
4315
21
9605
0
LINE
8
A-FLOOR-0-A-WALL-INT
10
2000
20
9455
11
4315
21
9455
0
LINE
8
A-FLOOR-0-A-WALL-INT
10
2000
20
9605
11
2000
21
9455
0
LINE
8
A-FLOOR-0-A-WALL-INT
10
5215
20
9605
11
7530
21
9605
0
LINE
8
A-FLOOR-0-A-WALL-INT
10
5215
20
9455
11
7530
21
9455
0
LINE
8
A-FLOOR-0-A-WALL-INT
10
7530
20
9605
11
7530
21
9455
0
LINE
8
A-FLOOR-0-A-WALL-INT
10
4315
20
9605
11
4315
21
9455
0
LINE
8
A-FLOOR-0-A-WALL-INT
10
5215
20
9605
11
5215
21
9455
0
LINE
8
A-WALL-INT
10
2000
20
9605
11
4315
21
9605
0
LINE
8
A-WALL-INT
10
2000
20
9455
11
4315
21
9455
0
LINE
8
A-WALL-INT
10
2000
20
9605
11
2000
21
9455
0
LINE
8
A-WALL-INT
10
5215
20
9605
11
7530
21
9605
0
LINE
8
A-WALL-INT
10
5215
20
9455
11
7530
21
9455
0
LINE
8
A-WALL-INT
10
7530
20
9605
11
7530
21
9455
0
LINE
8
A-WALL-INT
10
4315
20
9605
11
4315
21
9455
0
LINE
8
A-WALL-INT
10
5215
20
9605
11
5215
21
9455
0
LINE
8
A-FLOOR-0-A-WALL-INT
10
7530
20
9605
11
8615
21
9605
0
LINE
8
A-FLOOR-0-A-WALL-INT
10
7530
20
9455
11
8615
21
9455
0
LINE
8
A-FLOOR-0-A-WALL-INT
10
7530
20
9605
11
7530
21
9455
0
LINE
8
A-FLOOR-0-A-WALL-INT
10
9515
20
9605
11
10600
21
9605
0
LINE
8
A-FLOOR-0-A-WALL-INT
10
9515
20
9455
11
10600
21
9455
0
LINE
8
A-FLOOR-0-A-WALL-INT
10
10600
20
9605
11
10600
21
9455
0
LINE
8
A-FLOOR-0-A-WALL-INT
10
8615
20
9605
11
8615
21
9455
0
LINE
8
A-FLOOR-0-A-WALL-INT
10
9515
20
9605
11
9515
21
9455
0
LINE
8
A-WALL-INT
10
7530
20
9605
11
8615
21
9605
0
LINE
8
A-WALL-INT
10
7530
20
9455
11
8615
21
9455
0
LINE
8
A-WALL-INT
10
7530
20
9605
11
7530
21
9455
0
LINE
8
A-WALL-INT
10
9515
20
9605
11
10600
21
9605
0
LINE
8
A-WALL-INT
10
9515
20
9455
11
10600
21
9455
0
LINE
8
A-WALL-INT
10
10600
20
9605
11
10600
21
9455
0
LINE
8
A-WALL-INT
10
8615
20
9605
11
8615
21
9455
0
LINE
8
A-WALL-INT
10
9515
20
9605
11
9515
21
9455
0
LINE
8
A-FLOOR-0-A-WALL-INT
10
10600
20
9605
11
11350
21
9605
0
LINE
8
A-FLOOR-0-A-WALL-INT
10
10600
20
9455
11
11350
21
9455
0
LINE
8
A-FLOOR-0-A-WALL-INT
10
10600
20
9605
11
10600
21
9455
0
LINE
8
A-FLOOR-0-A-WALL-INT
10
12250
20
9605
11
13000
21
9605
0
LINE
8
A-FLOOR-0-A-WALL-INT
10
12250
20
9455
11
13000
21
9455
0
LINE
8
A-FLOOR-0-A-WALL-INT
10
13000
20
9605
11
13000
21
9455
0
LINE
8
A-FLOOR-0-A-WALL-INT
10
11350
20
9605
11
11350
21
9455
0
LINE
8
A-FLOOR-0-A-WALL-INT
10
12250
20
9605
11
12250
21
9455
0
LINE
8
A-WALL-INT
10
10600
20
9605
11
11350
21
9605
0
LINE
8
A-WALL-INT
10
10600
20
9455
11
11350
21
9455
0
LINE
8
A-WALL-INT
10
10600
20
9605
11
10600
21
9455
0
LINE
8
A-WALL-INT
10
12250
20
9605
11
13000
21
9605
0
LINE
8
A-WALL-INT
10
12250
20
9455
11
13000
21
9455
0
LINE
8
A-WALL-INT
10
13000
20
9605
11
13000
21
9455
0
LINE
8
A-WALL-INT
10
11350
20
9605
11
11350
21
9455
0
LINE
8
A-WALL-INT
10
12250
20
9605
11
12250
21
9455
0
LINE
8
A-FLOOR-0-A-WALL-INT
10
10525
20
1500
11
10525
21
5065
0
LINE
8
A-FLOOR-0-A-WALL-INT
10
10675
20
1500
11
10675
21
5065
0
LINE
8
A-FLOOR-0-A-WALL-INT
10
10525
20
1500
11
10675
21
1500
0
LINE
8
A-FLOOR-0-A-WALL-INT
10
10525
20
5965
11
10525
21
9530
0
LINE
8
A-FLOOR-0-A-WALL-INT
10
10675
20
5965
11
10675
21
9530
0
LINE
8
A-FLOOR-0-A-WALL-INT
10
10525
20
9530
11
10675
21
9530
0
LINE
8
A-FLOOR-0-A-WALL-INT
10
10525
20
5065
11
10675
21
5065
0
LINE
8
A-FLOOR-0-A-WALL-INT
10
10525
20
5965
11
10675
21
5965
0
LINE
8
A-WALL-INT
10
10525
20
1500
11
10525
21
5065
0
LINE
8
A-WALL-INT
10
10675
20
1500
11
10675
21
5065
0
LINE
8
A-WALL-INT
10
10525
20
1500
11
10675
21
1500
0
LINE
8
A-WALL-INT
10
10525
20
5965
11
10525
21
9530
0
LINE
8
A-WALL-INT
10
10675
20
5965
11
10675
21
9530
0
LINE
8
A-WALL-INT
10
10525
20
9530
11
10675
21
9530
0
LINE
8
A-WALL-INT
10
10525
20
5065
11
10675
21
5065
0
LINE
8
A-WALL-INT
10
10525
20
5965
11
10675
21
5965
0
LINE
8
A-FLOOR-0-A-WALL-INT
10
2000
20
3075
11
2350
21
3075
0
LINE
8
A-FLOOR-0-A-WALL-INT
10
2000
20
2925
11
2350
21
2925
0
LINE
8
A-FLOOR-0-A-WALL-INT
10
2000
20
3075
11
2000
21
2925
0
LINE
8
A-FLOOR-0-A-WALL-INT
10
3250
20
3075
11
3600
21
3075
0
LINE
8
A-FLOOR-0-A-WALL-INT
10
3250
20
2925
11
3600
21
2925
0
LINE
8
A-FLOOR-0-A-WALL-INT
10
3600
20
3075
11
3600
21
2925
0
LINE
8
A-FLOOR-0-A-WALL-INT
10
2350
20
3075
11
2350
21
2925
0
LINE
8
A-FLOOR-0-A-WALL-INT
10
3250
20
3075
11
3250
21
2925
0
LINE
8
A-WALL-INT
10
2000
20
3075
11
2350
21
3075
0
LINE
8
A-WALL-INT
10
2000
20
2925
11
2350
21
2925
0
LINE
8
A-WALL-INT
10
2000
20
3075
11
2000
21
2925
0
LINE
8
A-WALL-INT
10
3250
20
3075
11
3600
21
3075
0
LINE
8
A-WALL-INT
10
3250
20
2925
11
3600
21
2925
0
LINE
8
A-WALL-INT
10
3600
20
3075
11
3600
21
2925
0
LINE
8
A-WALL-INT
10
2350
20
3075
11
2350
21
2925
0
LINE
8
A-WALL-INT
10
3250
20
3075
11
3250
21
2925
0
LINE
8
A-FLOOR-0-A-WALL-EXT
10
3600
20
3175
11
7530
21
3175
0
LINE
8
A-FLOOR-0-A-WALL-EXT
10
3600
20
2825
11
7530
21
2825
0
LINE
8
A-FLOOR-0-A-WALL-EXT
10
3600
20
3175
11
3600
21
2825
0
LINE
8
A-FLOOR-0-A-WALL-EXT
10
7530
20
3175
11
7530
21
2825
0
LINE
8
A-WALL-EXT
10
3600
20
3175
11
7530
21
3175
0
LINE
8
A-WALL-EXT
10
3600
20
2825
11
7530
21
2825
0
LINE
8
A-WALL-EXT
10
3600
20
3175
11
3600
21
2825
0
LINE
8
A-WALL-EXT
10
7530
20
3175
11
7530
21
2825
0
LINE
8
A-FLOOR-0-A-WALL-EXT
10
7355
20
1500
11
7355
21
3000
0
LINE
8
A-FLOOR-0-A-WALL-EXT
10
7705
20
1500
11
7705
21
3000
0
LINE
8
A-FLOOR-0-A-WALL-EXT
10
7355
20
1500
11
7705
21
1500
0
LINE
8
A-FLOOR-0-A-WALL-EXT
10
7355
20
3000
11
7705
21
3000
0
LINE
8
A-WALL-EXT
10
7355
20
1500
11
7355
21
3000
0
LINE
8
A-WALL-EXT
10
7705
20
1500
11
7705
21
3000
0
LINE
8
A-WALL-EXT
10
7355
20
1500
11
7705
21
1500
0
LINE
8
A-WALL-EXT
10
7355
20
3000
11
7705
21
3000
0
LINE
8
A-FLOOR-0-A-WALL-INT
10
7455
20
3000
11
7455
21
9530
0
LINE
8
A-FLOOR-0-A-WALL-INT
10
7605
20
3000
11
7605
21
9530
0
LINE
8
A-FLOOR-0-A-WALL-INT
10
7455
20
3000
11
7605
21
3000
0
LINE
8
A-FLOOR-0-A-WALL-INT
10
7455
20
9530
11
7605
21
9530
0
LINE
8
A-WALL-INT
10
7455
20
3000
11
7455
21
9530
0
LINE
8
A-WALL-INT
10
7605
20
3000
11
7605
21
9530
0
LINE
8
A-WALL-INT
10
7455
20
3000
11
7605
21
3000
0
LINE
8
A-WALL-INT
10
7455
20
9530
11
7605
21
9530
0
LINE
8
A-FLOOR-0-A-WALL-EXT
10
3425
20
1500
11
3425
21
3000
0
LINE
8
A-FLOOR-0-A-WALL-EXT
10
3775
20
1500
11
3775
21
3000
0
LINE
8
A-FLOOR-0-A-WALL-EXT
10
3425
20
1500
11
3775
21
1500
0
LINE
8
A-FLOOR-0-A-WALL-EXT
10
3425
20
3000
11
3775
21
3000
0
LINE
8
A-WALL-EXT
10
3425
20
1500
11
3425
21
3000
0
LINE
8
A-WALL-EXT
10
3775
20
1500
11
3775
21
3000
0
LINE
8
A-WALL-EXT
10
3425
20
1500
11
3775
21
1500
0
LINE
8
A-WALL-EXT
10
3425
20
3000
11
3775
21
3000
0
LINE
8
A-FLOOR-0-A-DOOR
10
2300
20
1500
11
3300
21
1500
0
ARC
8
A-FLOOR-0-A-DOOR
10
2300
20
1500
40
1000
50
0
51
90
0
LINE
8
A-FLOOR-0-A-DOOR
10
2300
20
2500
11
2260
21
2500
0
LINE
8
A-DOOR
10
2300
20
1500
11
3300
21
1500
0
ARC
8
A-DOOR
10
2300
20
1500
40
1000
50
0
51
90
0
LINE
8
A-DOOR
10
2300
20
2500
11
2260
21
2500
0
LINE
8
A-FLOOR-0-A-DOOR
10
2835
20
11030
11
3635
21
11030
0
ARC
8
A-FLOOR-0-A-DOOR
10
2835
20
11030
40
800
50
0
51
90
0
LINE
8
A-FLOOR-0-A-DOOR
10
2835
20
11830
11
2795
21
11830
0
LINE
8
A-DOOR
10
2835
20
11030
11
3635
21
11030
0
ARC
8
A-DOOR
10
2835
20
11030
40
800
50
0
51
90
0
LINE
8
A-DOOR
10
2835
20
11830
11
2795
21
11830
0
LINE
8
A-FLOOR-0-A-DOOR
10
7065
20
11030
11
6165
21
11030
0
ARC
8
A-FLOOR-0-A-DOOR
10
7065
20
11030
40
900
50
90
51
180
0
LINE
8
A-FLOOR-0-A-DOOR
10
7065
20
11930
11
7025
21
11930
0
LINE
8
A-DOOR
10
7065
20
11030
11
6165
21
11030
0
ARC
8
A-DOOR
10
7065
20
11030
40
900
50
90
51
180
0
LINE
8
A-DOOR
10
7065
20
11930
11
7025
21
11930
0
LINE
8
A-FLOOR-0-A-DOOR
10
10430
20
11030
11
11330
21
11030
0
ARC
8
A-FLOOR-0-A-DOOR
10
10430
20
11030
40
900
50
0
51
90
0
LINE
8
A-FLOOR-0-A-DOOR
10
10430
20
11930
11
10390
21
11930
0
LINE
8
A-DOOR
10
10430
20
11030
11
11330
21
11030
0
ARC
8
A-DOOR
10
10430
20
11030
40
900
50
0
51
90
0
LINE
8
A-DOOR
10
10430
20
11930
11
10390
21
11930
0
LINE
8
A-FLOOR-0-A-DOOR
10
4315
20
9530
11
5215
21
9530
0
ARC
8
A-FLOOR-0-A-DOOR
10
4315
20
9530
40
900
50
-90
51
0
0
LINE
8
A-FLOOR-0-A-DOOR
10
4315
20
8630
11
4355
21
8630
0
LINE
8
A-DOOR
10
4315
20
9530
11
5215
21
9530
0
ARC
8
A-DOOR
10
4315
20
9530
40
900
50
-90
51
0
0
LINE
8
A-DOOR
10
4315
20
8630
11
4355
21
8630
0
LINE
8
A-FLOOR-0-A-DOOR
10
9515
20
9530
11
8615
21
9530
0
ARC
8
A-FLOOR-0-A-DOOR
10
9515
20
9530
40
900
50
180
51
270
0
LINE
8
A-FLOOR-0-A-DOOR
10
9515
20
8630
11
9555
21
8630
0
LINE
8
A-DOOR
10
9515
20
9530
11
8615
21
9530
0
ARC
8
A-DOOR
10
9515
20
9530
40
900
50
180
51
270
0
LINE
8
A-DOOR
10
9515
20
8630
11
9555
21
8630
0
LINE
8
A-FLOOR-0-A-DOOR
10
11350
20
9530
11
12250
21
9530
0
ARC
8
A-FLOOR-0-A-DOOR
10
11350
20
9530
40
900
50
-90
51
0
0
LINE
8
A-FLOOR-0-A-DOOR
10
11350
20
8630
11
11390
21
8630
0
LINE
8
A-DOOR
10
11350
20
9530
11
12250
21
9530
0
ARC
8
A-DOOR
10
11350
20
9530
40
900
50
-90
51
0
0
LINE
8
A-DOOR
10
11350
20
8630
11
11390
21
8630
0
LINE
8
A-FLOOR-0-A-DOOR
10
2350
20
3000
11
3250
21
3000
0
ARC
8
A-FLOOR-0-A-DOOR
10
2350
20
3000
40
900
50
0
51
90
0
LINE
8
A-FLOOR-0-A-DOOR
10
2350
20
3900
11
2310
21
3900
0
LINE
8
A-DOOR
10
2350
20
3000
11
3250
21
3000
0
ARC
8
A-DOOR
10
2350
20
3000
40
900
50
0
51
90
0
LINE
8
A-DOOR
10
2350
20
3900
11
2310
21
3900
0
LINE
8
A-FLOOR-0-A-DOOR
10
4470
20
16415
11
4470
21
15615
0
ARC
8
A-FLOOR-0-A-DOOR
10
4470
20
16415
40
800
50
180
51
270
0
LINE
8
A-FLOOR-0-A-DOOR
10
3670
20
16415
11
3670
21
16375
0
LINE
8
A-DOOR
10
4470
20
16415
11
4470
21
15615
0
ARC
8
A-DOOR
10
4470
20
16415
40
800
50
180
51
270
0
LINE
8
A-DOOR
10
3670
20
16415
11
3670
21
16375
0
LINE
8
A-FLOOR-0-A-DOOR
10
8760
20
16465
11
8760
21
15565
0
ARC
8
A-FLOOR-0-A-DOOR
10
8760
20
16465
40
900
50
180
51
270
0
LINE
8
A-FLOOR-0-A-DOOR
10
7860
20
16465
11
7860
21
16425
0
LINE
8
A-DOOR
10
8760
20
16465
11
8760
21
15565
0
ARC
8
A-DOOR
10
8760
20
16465
40
900
50
180
51
270
0
LINE
8
A-DOOR
10
7860
20
16465
11
7860
21
16425
0
LINE
8
A-FLOOR-0-A-DOOR
10
10600
20
5965
11
10600
21
5065
0
ARC
8
A-FLOOR-0-A-DOOR
10
10600
20
5965
40
900
50
-90
51
0
0
LINE
8
A-FLOOR-0-A-DOOR
10
11500
20
5965
11
11500
21
6005
0
LINE
8
A-DOOR
10
10600
20
5965
11
10600
21
5065
0
ARC
8
A-DOOR
10
10600
20
5965
40
900
50
-90
51
0
0
LINE
8
A-DOOR
10
11500
20
5965
11
11500
21
6005
0
LINE
8
A-FLOOR-0-A-WINDOW
10
2060
20
15515
11
2060
21
16515
0
LINE
8
A-FLOOR-0-A-WINDOW
10
2020
20
15515
11
2020
21
16515
0
LINE
8
A-FLOOR-0-A-WINDOW
10
1980
20
15515
11
1980
21
16515
0
LINE
8
A-FLOOR-0-A-WINDOW
10
1940
20
15515
11
1940
21
16515
0
LINE
8
A-WINDOW
10
2060
20
15515
11
2060
21
16515
0
LINE
8
A-WINDOW
10
2020
20
15515
11
2020
21
16515
0
LINE
8
A-WINDOW
10
1980
20
15515
11
1980
21
16515
0
LINE
8
A-WINDOW
10
1940
20
15515
11
1940
21
16515
0
LINE
8
A-FLOOR-0-A-WINDOW
10
5415
20
20940
11
7815
21
20940
0
LINE
8
A-FLOOR-0-A-WINDOW
10
5415
20
20980
11
7815
21
20980
0
LINE
8
A-FLOOR-0-A-WINDOW
10
5415
20
21020
11
7815
21
21020
0
LINE
8
A-FLOOR-0-A-WINDOW
10
5415
20
21060
11
7815
21
21060
0
LINE
8
A-WINDOW
10
5415
20
20940
11
7815
21
20940
0
LINE
8
A-WINDOW
10
5415
20
20980
11
7815
21
20980
0
LINE
8
A-WINDOW
10
5415
20
21020
11
7815
21
21020
0
LINE
8
A-WINDOW
10
5415
20
21060
11
7815
21
21060
0
LINE
8
A-FLOOR-0-A-WINDOW
10
13060
20
15015
11
13060
21
17015
0
LINE
8
A-FLOOR-0-A-WINDOW
10
13020
20
15015
11
13020
21
17015
0
LINE
8
A-FLOOR-0-A-WINDOW
10
12980
20
15015
11
12980
21
17015
0
LINE
8
A-FLOOR-0-A-WINDOW
10
12940
20
15015
11
12940
21
17015
0
LINE
8
A-WINDOW
10
13060
20
15015
11
13060
21
17015
0
LINE
8
A-WINDOW
10
13020
20
15015
11
13020
21
17015
0
LINE
8
A-WINDOW
10
12980
20
15015
11
12980
21
17015
0
LINE
8
A-WINDOW
10
12940
20
15015
11
12940
21
17015
0
LINE
8
A-FLOOR-0-A-WINDOW
10
13060
20
4615
11
13060
21
6415
0
LINE
8
A-FLOOR-0-A-WINDOW
10
13020
20
4615
11
13020
21
6415
0
LINE
8
A-FLOOR-0-A-WINDOW
10
12980
20
4615
11
12980
21
6415
0
LINE
8
A-FLOOR-0-A-WINDOW
10
12940
20
4615
11
12940
21
6415
0
LINE
8
A-WINDOW
10
13060
20
4615
11
13060
21
6415
0
LINE
8
A-WINDOW
10
13020
20
4615
11
13020
21
6415
0
LINE
8
A-WINDOW
10
12980
20
4615
11
12980
21
6415
0
LINE
8
A-WINDOW
10
12940
20
4615
11
12940
21
6415
0
LINE
8
A-FLOOR-0-A-WINDOW
10
2060
20
4765
11
2060
21
7765
0
LINE
8
A-FLOOR-0-A-WINDOW
10
2020
20
4765
11
2020
21
7765
0
LINE
8
A-FLOOR-0-A-WINDOW
10
1980
20
4765
11
1980
21
7765
0
LINE
8
A-FLOOR-0-A-WINDOW
10
1940
20
4765
11
1940
21
7765
0
LINE
8
A-WINDOW
10
2060
20
4765
11
2060
21
7765
0
LINE
8
A-WINDOW
10
2020
20
4765
11
2020
21
7765
0
LINE
8
A-WINDOW
10
1980
20
4765
11
1980
21
7765
0
LINE
8
A-WINDOW
10
1940
20
4765
11
1940
21
7765
0
LINE
8
A-FLOOR-0-A-WINDOW
10
8220.75
20
1440
11
9909.25
21
1440
0
LINE
8
A-FLOOR-0-A-WINDOW
10
8220.75
20
1480
11
9909.25
21
1480
0
LINE
8
A-FLOOR-0-A-WINDOW
10
8220.75
20
1520
11
9909.25
21
1520
0
LINE
8
A-FLOOR-0-A-WINDOW
10
8220.75
20
1560
11
9909.25
21
1560
0
LINE
8
A-WINDOW
10
8220.75
20
1440
11
9909.25
21
1440
0
LINE
8
A-WINDOW
10
8220.75
20
1480
11
9909.25
21
1480
0
LINE
8
A-WINDOW
10
8220.75
20
1520
11
9909.25
21
1520
0
LINE
8
A-WINDOW
10
8220.75
20
1560
11
9909.25
21
1560
0
POLYLINE
8
A-FLOOR-0-A-PARKING
66
1
70
1
0
VERTEX
8
A-FLOOR-0-A-PARKING
10
0
20
0
0
VERTEX
8
A-FLOOR-0-A-PARKING
10
15000
20
0
0
VERTEX
8
A-FLOOR-0-A-PARKING
10
15000
20
3000
0
VERTEX
8
A-FLOOR-0-A-PARKING
10
0
20
3000
0
SEQEND
8
A-FLOOR-0-A-PARKING
0
TEXT
8
A-FLOOR-0-A-PARKING
10
7500
20
1500
40
250
1
AISLE
50
0
72
1
11
7500
21
1500
0
POLYLINE
8
A-PARKING
66
1
70
1
0
VERTEX
8
A-PARKING
10
0
20
0
0
VERTEX
8
A-PARKING
10
15000
20
0
0
VERTEX
8
A-PARKING
10
15000
20
3000
0
VERTEX
8
A-PARKING
10
0
20
3000
0
SEQEND
8
A-PARKING
0
TEXT
8
A-PARKING
10
7500
20
1500
40
250
1
AISLE
50
0
72
1
11
7500
21
1500
0
POLYLINE
8
A-FLOOR-0-A-ROOM
66
1
70
1
0
VERTEX
8
A-FLOOR-0-A-ROOM
10
2000
20
11030
0
VERTEX
8
A-FLOOR-0-A-ROOM
10
4470
20
11030
0
VERTEX
8
A-FLOOR-0-A-ROOM
10
4470
20
21000
0
VERTEX
8
A-FLOOR-0-A-ROOM
10
2000
20
21000
0
SEQEND
8
A-FLOOR-0-A-ROOM
0
POLYLINE
8
A-ROOM
66
1
70
1
0
VERTEX
8
A-ROOM
10
2000
20
11030
0
VERTEX
8
A-ROOM
10
4470
20
11030
0
VERTEX
8
A-ROOM
10
4470
20
21000
0
VERTEX
8
A-ROOM
10
2000
20
21000
0
SEQEND
8
A-ROOM
0
POLYLINE
8
A-FLOOR-0-A-ROOM
66
1
70
1
0
VERTEX
8
A-FLOOR-0-A-ROOM
10
4470
20
11030
0
VERTEX
8
A-FLOOR-0-A-ROOM
10
8760
20
11030
0
VERTEX
8
A-FLOOR-0-A-ROOM
10
8760
20
21000
0
VERTEX
8
A-FLOOR-0-A-ROOM
10
4470
20
21000
0
SEQEND
8
A-FLOOR-0-A-ROOM
0
POLYLINE
8
A-ROOM
66
1
70
1
0
VERTEX
8
A-ROOM
10
4470
20
11030
0
VERTEX
8
A-ROOM
10
8760
20
11030
0
VERTEX
8
A-ROOM
10
8760
20
21000
0
VERTEX
8
A-ROOM
10
4470
20
21000
0
SEQEND
8
A-ROOM
0
POLYLINE
8
A-FLOOR-0-A-ROOM
66
1
70
1
0
VERTEX
8
A-FLOOR-0-A-ROOM
10
8760
20
11030
0
VERTEX
8
A-FLOOR-0-A-ROOM
10
13000
20
11030
0
VERTEX
8
A-FLOOR-0-A-ROOM
10
13000
20
21000
0
VERTEX
8
A-FLOOR-0-A-ROOM
10
8760
20
21000
0
SEQEND
8
A-FLOOR-0-A-ROOM
0
POLYLINE
8
A-ROOM
66
1
70
1
0
VERTEX
8
A-ROOM
10
8760
20
11030
0
VERTEX
8
A-ROOM
10
13000
20
11030
0
VERTEX
8
A-ROOM
10
13000
20
21000
0
VERTEX
8
A-ROOM
10
8760
20
21000
0
SEQEND
8
A-ROOM
0
POLYLINE
8
A-FLOOR-0-A-ROOM
66
1
70
1
0
VERTEX
8
A-FLOOR-0-A-ROOM
10
10600
20
1500
0
VERTEX
8
A-FLOOR-0-A-ROOM
10
13000
20
1500
0
VERTEX
8
A-FLOOR-0-A-ROOM
10
13000
20
9530
0
VERTEX
8
A-FLOOR-0-A-ROOM
10
10600
20
9530
0
SEQEND
8
A-FLOOR-0-A-ROOM
0
POLYLINE
8
A-ROOM
66
1
70
1
0
VERTEX
8
A-ROOM
10
10600
20
1500
0
VERTEX
8
A-ROOM
10
13000
20
1500
0
VERTEX
8
A-ROOM
10
13000
20
9530
0
VERTEX
8
A-ROOM
10
10600
20
9530
0
SEQEND
8
A-ROOM
0
POLYLINE
8
A-FLOOR-0-A-ROOM
66
1
70
1
0
VERTEX
8
A-FLOOR-0-A-ROOM
10
2000
20
3000
0
VERTEX
8
A-FLOOR-0-A-ROOM
10
7530
20
3000
0
VERTEX
8
A-FLOOR-0-A-ROOM
10
7530
20
9530
0
VERTEX
8
A-FLOOR-0-A-ROOM
10
2000
20
9530
0
SEQEND
8
A-FLOOR-0-A-ROOM
0
POLYLINE
8
A-ROOM
66
1
70
1
0
VERTEX
8
A-ROOM
10
2000
20
3000
0
VERTEX
8
A-ROOM
10
7530
20
3000
0
VERTEX
8
A-ROOM
10
7530
20
9530
0
VERTEX
8
A-ROOM
10
2000
20
9530
0
SEQEND
8
A-ROOM
0
POLYLINE
8
A-FLOOR-0-A-ROOM
66
1
70
1
0
VERTEX
8
A-FLOOR-0-A-ROOM
10
7530
20
1500
0
VERTEX
8
A-FLOOR-0-A-ROOM
10
10600
20
1500
0
VERTEX
8
A-FLOOR-0-A-ROOM
10
10600
20
9530
0
VERTEX
8
A-FLOOR-0-A-ROOM
10
7530
20
9530
0
SEQEND
8
A-FLOOR-0-A-ROOM
0
POLYLINE
8
A-ROOM
66
1
70
1
0
VERTEX
8
A-ROOM
10
7530
20
1500
0
VERTEX
8
A-ROOM
10
10600
20
1500
0
VERTEX
8
A-ROOM
10
10600
20
9530
0
VERTEX
8
A-ROOM
10
7530
20
9530
0
SEQEND
8
A-ROOM
0
POLYLINE
8
A-FLOOR-0-A-ROOM
66
1
70
1
0
VERTEX
8
A-FLOOR-0-A-ROOM
10
2000
20
9530
0
VERTEX
8
A-FLOOR-0-A-ROOM
10
13000
20
9530
0
VERTEX
8
A-FLOOR-0-A-ROOM
10
13000
20
11030
0
VERTEX
8
A-FLOOR-0-A-ROOM
10
2000
20
11030
0
SEQEND
8
A-FLOOR-0-A-ROOM
0
POLYLINE
8
A-ROOM
66
1
70
1
0
VERTEX
8
A-ROOM
10
2000
20
9530
0
VERTEX
8
A-ROOM
10
13000
20
9530
0
VERTEX
8
A-ROOM
10
13000
20
11030
0
VERTEX
8
A-ROOM
10
2000
20
11030
0
SEQEND
8
A-ROOM
0
POLYLINE
8
A-FLOOR-0-A-ROOM
66
1
70
1
0
VERTEX
8
A-FLOOR-0-A-ROOM
10
2000
20
1500
0
VERTEX
8
A-FLOOR-0-A-ROOM
10
3600
20
1500
0
VERTEX
8
A-FLOOR-0-A-ROOM
10
3600
20
3000
0
VERTEX
8
A-FLOOR-0-A-ROOM
10
2000
20
3000
0
SEQEND
8
A-FLOOR-0-A-ROOM
0
POLYLINE
8
A-ROOM
66
1
70
1
0
VERTEX
8
A-ROOM
10
2000
20
1500
0
VERTEX
8
A-ROOM
10
3600
20
1500
0
VERTEX
8
A-ROOM
10
3600
20
3000
0
VERTEX
8
A-ROOM
10
2000
20
3000
0
SEQEND
8
A-ROOM
0
TEXT
8
A-FLOOR-0-A-ROOM
10
3235
20
16113.8
40
197.6
1
Master Bathroom [F0]
50
0
72
1
11
3235
21
16113.8
0
TEXT
8
A-FLOOR-0-A-ROOM
10
3235
20
15876.68
40
138.32
1
24.6 m2
50
0
72
1
11
3235
21
15876.68
0
TEXT
8
A-ROOM
10
3235
20
16113.8
40
197.6
1
Master Bathroom
50
0
72
1
11
3235
21
16113.8
0
TEXT
8
A-ROOM
10
3235
20
15876.68
40
138.32
1
24.6 m2
50
0
72
1
11
3235
21
15876.68
0
TEXT
8
A-FLOOR-0-A-ROOM
10
6615
20
16186.6
40
343.2
1
Master Bedroom [F0]
50
0
72
1
11
6615
21
16186.6
0
TEXT
8
A-FLOOR-0-A-ROOM
10
6615
20
15774.76
40
240.24
1
42.8 m2
50
0
72
1
11
6615
21
15774.76
0
TEXT
8
A-ROOM
10
6615
20
16186.6
40
343.2
1
Master Bedroom
50
0
72
1
11
6615
21
16186.6
0
TEXT
8
A-ROOM
10
6615
20
15774.76
40
240.24
1
42.8 m2
50
0
72
1
11
6615
21
15774.76
0
TEXT
8
A-FLOOR-0-A-ROOM
10
10880
20
16184.6
40
339.2
1
Bedroom 1 [F0]
50
0
72
1
11
10880
21
16184.6
0
TEXT
8
A-FLOOR-0-A-ROOM
10
10880
20
15777.56
40
237.44
1
42.3 m2
50
0
72
1
11
10880
21
15777.56
0
TEXT
8
A-ROOM
10
10880
20
16184.6
40
339.2
1
Bedroom 1
50
0
72
1
11
10880
21
16184.6
0
TEXT
8
A-ROOM
10
10880
20
15777.56
40
237.44
1
42.3 m2
50
0
72
1
11
10880
21
15777.56
0
TEXT
8
A-FLOOR-0-A-ROOM
10
11800
20
5611
40
192
1
Kitchen [F0]
50
0
72
1
11
11800
21
5611
0
TEXT
8
A-FLOOR-0-A-ROOM
10
11800
20
5380.6
40
134.4
1
19.3 m2
50
0
72
1
11
11800
21
5380.6
0
TEXT
8
A-ROOM
10
11800
20
5611
40
192
1
Kitchen
50
0
72
1
11
11800
21
5611
0
TEXT
8
A-ROOM
10
11800
20
5380.6
40
134.4
1
19.3 m2
50
0
72
1
11
11800
21
5380.6
0
TEXT
8
A-FLOOR-0-A-ROOM
10
4765
20
6440
40
350
1
Living Room [F0]
50
0
72
1
11
4765
21
6440
0
TEXT
8
A-FLOOR-0-A-ROOM
10
4765
20
6020
40
245
1
36.1 m2
50
0
72
1
11
4765
21
6020
0
TEXT
8
A-ROOM
10
4765
20
6440
40
350
1
Living Room
50
0
72
1
11
4765
21
6440
0
TEXT
8
A-ROOM
10
4765
20
6020
40
245
1
36.1 m2
50
0
72
1
11
4765
21
6020
0
TEXT
8
A-FLOOR-0-A-ROOM
10
9065
20
5637.8
40
245.6
1
Dining [F0]
50
0
72
1
11
9065
21
5637.8
0
TEXT
8
A-FLOOR-0-A-ROOM
10
9065
20
5343.08
40
171.92
1
24.7 m2
50
0
72
1
11
9065
21
5343.08
0
TEXT
8
A-ROOM
10
9065
20
5637.8
40
245.6
1
Dining
50
0
72
1
11
9065
21
5637.8
0
TEXT
8
A-ROOM
10
9065
20
5343.08
40
171.92
1
24.7 m2
50
0
72
1
11
9065
21
5343.08
0
TEXT
8
A-FLOOR-0-A-ROOM
10
7500
20
10370
40
180
1
Corridor [F0]
50
0
72
1
11
7500
21
10370
0
TEXT
8
A-FLOOR-0-A-ROOM
10
7500
20
10154
40
126
1
16.5 m2
50
0
72
1
11
7500
21
10154
0
TEXT
8
A-ROOM
10
7500
20
10370
40
180
1
Corridor
50
0
72
1
11
7500
21
10370
0
TEXT
8
A-ROOM
10
7500
20
10154
40
126
1
16.5 m2
50
0
72
1
11
7500
21
10154
0
TEXT
8
A-FLOOR-0-A-ROOM
10
2800
20
2340
40
180
1
Entrance [F0]
50
0
72
1
11
2800
21
2340
0
TEXT
8
A-FLOOR-0-A-ROOM
10
2800
20
2124
40
126
1
2.4 m2
50
0
72
1
11
2800
21
2124
0
TEXT
8
A-ROOM
10
2800
20
2340
40
180
1
Entrance
50
0
72
1
11
2800
21
2340
0
TEXT
8
A-ROOM
10
2800
20
2124
40
126
1
2.4 m2
50
0
72
1
11
2800
21
2124
0
LINE
8
A-GRID
10
2000
20
1000
11
2000
21
21500
0
LINE
8
A-AXIS
10
7500
20
1000
11
7500
21
21500
0
LINE
8
A-GRID
10
13000
20
1000
11
13000
21
21500
0
LINE
8
A-GRID
10
1500
20
1500
11
13500
21
1500
0
LINE
8
A-AXIS
10
1500
20
11250
11
13500
21
11250
0
LINE
8
A-GRID
10
1500
20
21000
11
13500
21
21000
0
TEXT
8
A-AXIS-TEXT
10
1300
20
21300
40
250
1
A
50
0
72
1
11
1300
21
21300
0
TEXT
8
A-AXIS-TEXT
10
7500
20
21300
40
250
1
B
50
0
72
1
11
7500
21
21300
0
TEXT
8
A-AXIS-TEXT
10
13300
20
21300
40
250
1
C
50
0
72
0
11
13300
21
21300
0
TEXT
8
A-AXIS-TEXT
10
1300
20
800
40
250
1
1
50
0
72
2
11
1300
21
800
0
TEXT
8
A-AXIS-TEXT
10
1300
20
11250
40
250
1
2
50
0
72
2
11
1300
21
11250
0
LINE
8
A-FLOOR-0-A-DIMS
10
2000
20
500
11
13000
21
500
0
TEXT
8
A-FLOOR-0-A-DIMS
10
7500
20
200
40
220
1
11.00 m F0
50
0
72
1
11
7500
21
200
0
LINE
8
A-FLOOR-0-A-DIMS
10
2000
20
350
11
2000
21
650
0
LINE
8
A-FLOOR-0-A-DIMS
10
13000
20
350
11
13000
21
650
0
LINE
8
A-FLOOR-0-A-DIMS
10
1000
20
1500
11
1000
21
21000
0
TEXT
8
A-FLOOR-0-A-DIMS
10
700
20
11250
40
220
1
19.50 m
50
0
72
1
11
700
21
11250
0
LINE
8
A-FLOOR-0-A-DIMS
10
850
20
1500
11
1150
21
1500
0
LINE
8
A-FLOOR-0-A-DIMS
10
850
20
21000
11
1150
21
21000
0
LINE
8
A-DIMS
10
2000
20
500
11
13000
21
500
0
TEXT
8
A-DIMS
10
7500
20
200
40
220
1
11.00 m
50
0
72
1
11
7500
21
200
0
LINE
8
A-DIMS
10
2000
20
350
11
2000
21
650
0
LINE
8
A-DIMS
10
13000
20
350
11
13000
21
650
0
LINE
8
A-DIMS
10
1000
20
1500
11
1000
21
21000
0
TEXT
8
A-DIMS
10
700
20
11250
40
220
1
19.50 m
50
0
72
1
11
700
21
11250
0
LINE
8
A-DIMS
10
850
20
1500
11
1150
21
1500
0
LINE
8
A-DIMS
10
850
20
21000
11
1150
21
21000
0
LINE
8
A-FLOOR-0-A-DIMS
10
2000
20
10880
11
4470
21
10880
0
TEXT
8
A-FLOOR-0-A-DIMS
10
3235
20
10730
40
120
1
2.47
50
0
72
1
11
3235
21
10730
0
LINE
8
A-FLOOR-0-A-DIMS
10
1850
20
11030
11
1850
21
21000
0
TEXT
8
A-FLOOR-0-A-DIMS
10
1650
20
16015
40
120
1
9.97
50
0
72
2
11
1650
21
16015
0
LINE
8
A-DIMS
10
2000
20
10880
11
4470
21
10880
0
TEXT
8
A-DIMS
10
3235
20
10730
40
120
1
2.47
50
0
72
1
11
3235
21
10730
0
LINE
8
A-DIMS
10
1850
20
11030
11
1850
21
21000
0
TEXT
8
A-DIMS
10
1650
20
16015
40
120
1
9.97
50
0
72
2
11
1650
21
16015
0
LINE
8
A-FLOOR-0-A-DIMS
10
4470
20
10880
11
8760
21
10880
0
TEXT
8
A-FLOOR-0-A-DIMS
10
6615
20
10730
40
120
1
4.29
50
0
72
1
11
6615
21
10730
0
LINE
8
A-FLOOR-0-A-DIMS
10
4320
20
11030
11
4320
21
21000
0
TEXT
8
A-FLOOR-0-A-DIMS
10
4120
20
16015
40
120
1
9.97
50
0
72
2
11
4120
21
16015
0
LINE
8
A-DIMS
10
4470
20
10880
11
8760
21
10880
0
TEXT
8
A-DIMS
10
6615
20
10730
40
120
1
4.29
50
0
72
1
11
6615
21
10730
0
LINE
8
A-DIMS
10
4320
20
11030
11
4320
21
21000
0
TEXT
8
A-DIMS
10
4120
20
16015
40
120
1
9.97
50
0
72
2
11
4120
21
16015
0
LINE
8
A-FLOOR-0-A-DIMS
10
8760
20
10880
11
13000
21
10880
0
TEXT
8
A-FLOOR-0-A-DIMS
10
10880
20
10730
40
120
1
4.24
50
0
72
1
11
10880
21
10730
0
LINE
8
A-FLOOR-0-A-DIMS
10
8610
20
11030
11
8610
21
21000
0
TEXT
8
A-FLOOR-0-A-DIMS
10
8410
20
16015
40
120
1
9.97
50
0
72
2
11
8410
21
16015
0
LINE
8
A-DIMS
10
8760
20
10880
11
13000
21
10880
0
TEXT
8
A-DIMS
10
10880
20
10730
40
120
1
4.24
50
0
72
1
11
10880
21
10730
0
LINE
8
A-DIMS
10
8610
20
11030
11
8610
21
21000
0
TEXT
8
A-DIMS
10
8410
20
16015
40
120
1
9.97
50
0
72
2
11
8410
21
16015
0
LINE
8
A-FLOOR-0-A-DIMS
10
10600
20
1350
11
13000
21
1350
0
TEXT
8
A-FLOOR-0-A-DIMS
10
11800
20
1200
40
120
1
2.40
50
0
72
1
11
11800
21
1200
0
LINE
8
A-FLOOR-0-A-DIMS
10
10450
20
1500
11
10450
21
9530
0
TEXT
8
A-FLOOR-0-A-DIMS
10
10250
20
5515
40
120
1
8.03
50
0
72
2
11
10250
21
5515
0
LINE
8
A-DIMS
10
10600
20
1350
11
13000
21
1350
0
TEXT
8
A-DIMS
10
11800
20
1200
40
120
1
2.40
50
0
72
1
11
11800
21
1200
0
LINE
8
A-DIMS
10
10450
20
1500
11
10450
21
9530
0
TEXT
8
A-DIMS
10
10250
20
5515
40
120
1
8.03
50
0
72
2
11
10250
21
5515
0
LINE
8
A-FLOOR-0-A-DIMS
10
2000
20
2850
11
7530
21
2850
0
TEXT
8
A-FLOOR-0-A-DIMS
10
4765
20
2700
40
120
1
5.53
50
0
72
1
11
4765
21
2700
0
LINE
8
A-FLOOR-0-A-DIMS
10
1850
20
3000
11
1850
21
9530
0
TEXT
8
A-FLOOR-0-A-DIMS
10
1650
20
6265
40
120
1
6.53
50
0
72
2
11
1650
21
6265
0
LINE
8
A-DIMS
10
2000
20
2850
11
7530
21
2850
0
TEXT
8
A-DIMS
10
4765
20
2700
40
120
1
5.53
50
0
72
1
11
4765
21
2700
0
LINE
8
A-DIMS
10
1850
20
3000
11
1850
21
9530
0
TEXT
8
A-DIMS
10
1650
20
6265
40
120
1
6.53
50
0
72
2
11
1650
21
6265
0
LINE
8
A-FLOOR-0-A-DIMS
10
7530
20
1350
11
10600
21
1350
0
TEXT
8
A-FLOOR-0-A-DIMS
10
9065
20
1200
40
120
1
3.07
50
0
72
1
11
9065
21
1200
0
LINE
8
A-FLOOR-0-A-DIMS
10
7380
20
1500
11
7380
21
9530
0
TEXT
8
A-FLOOR-0-A-DIMS
10
7180
20
5515
40
120
1
8.03
50
0
72
2
11
7180
21
5515
0
LINE
8
A-DIMS
10
7530
20
1350
11
10600
21
1350
0
TEXT
8
A-DIMS
10
9065
20
1200
40
120
1
3.07
50
0
72
1
11
9065
21
1200
0
LINE
8
A-DIMS
10
7380
20
1500
11
7380
21
9530
0
TEXT
8
A-DIMS
10
7180
20
5515
40
120
1
8.03
50
0
72
2
11
7180
21
5515
0
LINE
8
A-NORTH
10
11800
20
20700
11
11800
21
21500
0
LINE
8
A-NORTH
10
11800
20
21500
11
11650
21
21200
0
LINE
8
A-NORTH
10
11800
20
21500
11
11950
21
21200
0
LINE
8
A-NORTH
10
11960
20
20700
11
11954.55
21
20741.41
0
LINE
8
A-NORTH
10
11954.55
20
20741.41
11
11938.56
21
20780
0
LINE
8
A-NORTH
10
11938.56
20
20780
11
11913.14
21
20813.14
0
LINE
8
A-NORTH
10
11913.14
20
20813.14
11
11880
21
20838.56
0
LINE
8
A-NORTH
10
11880
20
20838.56
11
11841.41
21
20854.55
0
LINE
8
A-NORTH
10
11841.41
20
20854.55
11
11800
21
20860
0
LINE
8
A-NORTH
10
11800
20
20860
11
11758.59
21
20854.55
0
LINE
8
A-NORTH
10
11758.59
20
20854.55
11
11720
21
20838.56
0
LINE
8
A-NORTH
10
11720
20
20838.56
11
11686.86
21
20813.14
0
LINE
8
A-NORTH
10
11686.86
20
20813.14
11
11661.44
21
20780
0
LINE
8
A-NORTH
10
11661.44
20
20780
11
11645.45
21
20741.41
0
LINE
8
A-NORTH
10
11645.45
20
20741.41
11
11640
21
20700
0
LINE
8
A-NORTH
10
11640
20
20700
11
11645.45
21
20658.59
0
LINE
8
A-NORTH
10
11645.45
20
20658.59
11
11661.44
21
20620
0
LINE
8
A-NORTH
10
11661.44
20
20620
11
11686.86
21
20586.86
0
LINE
8
A-NORTH
10
11686.86
20
20586.86
11
11720
21
20561.44
0
LINE
8
A-NORTH
10
11720
20
20561.44
11
11758.59
21
20545.45
0
LINE
8
A-NORTH
10
11758.59
20
20545.45
11
11800
21
20540
0
LINE
8
A-NORTH
10
11800
20
20540
11
11841.41
21
20545.45
0
LINE
8
A-NORTH
10
11841.41
20
20545.45
11
11880
21
20561.44
0
LINE
8
A-NORTH
10
11880
20
20561.44
11
11913.14
21
20586.86
0
LINE
8
A-NORTH
10
11913.14
20
20586.86
11
11938.56
21
20620
0
LINE
8
A-NORTH
10
11938.56
20
20620
11
11954.55
21
20658.59
0
LINE
8
A-NORTH
10
11954.55
20
20658.59
11
11960
21
20700
0
TEXT
8
A-NORTH
10
11800
20
21700
40
250
1
N
50
0
72
1
11
11800
21
21700
0
LINE
8
A-TITLE
10
500
20
-2500
11
14500
21
-2500
0
LINE
8
A-TITLE
10
14500
20
-2500
11
14500
21
22500
0
LINE
8
A-TITLE
10
14500
20
22500
11
500
21
22500
0
LINE
8
A-TITLE
10
500
20
22500
11
500
21
-2500
0
LINE
8
A-TITLE
10
4500
20
-2500
11
14500
21
-2500
0
LINE
8
A-TITLE
10
4500
20
-500
11
14500
21
-500
0
LINE
8
A-TITLE
10
4500
20
-2500
11
4500
21
-500
0
LINE
8
A-TITLE
10
14500
20
-2500
11
14500
21
-500
0
TEXT
8
A-TITLE
10
4800
20
-1000
40
400
1
rect
50
0
72
0
11
4800
21
-1000
0
TEXT
8
A-TITLE
10
4800
20
-1500
40
220
1
ArchGenius - AI Architectural Planning & Professional AutoCAD System
50
0
72
0
11
4800
21
-1500
0
TEXT
8
A-TITLE
10
4800
20
-2200
40
200
1
Strategy: area-efficiency | Floors: 1 | Scale: 1:100
50
0
72
0
11
4800
21
-2200
0
ENDSEC
0
EOF
