0
SECTION
2
HEADER
9
$ACADVER
1
AC1009
9
$EXTMIN
10
-2500
20
-4600
30
0.0
9
$EXTMAX
10
18050
20
22050
30
0.0
9
$LIMMIN
10
-2500
20
-4600
30
0.0
9
$LIMMAX
10
18050
20
22050
30
0.0
9
$VIEWCTR
10
7775
20
8725
30
0.0
9
$VIEWSIZE
40
30647.5
9
$VIEWDIR
10
0.0
20
0.0
30
1.0
9
$LUNITS
70
2
0
ENDSEC
0
SECTION
2
TABLES
0
TABLE
2
LTYPE
70
1
0
LTYPE
2
CONTINUOUS
70
0
3
Solid line
72
65
73
0
40
0.0
0
ENDTAB
0
TABLE
2
LAYER
70
2
0
LAYER
2
0
70
0
62
7
6
CONTINUOUS
0
LAYER
2
A-WALL-EXT
70
0
62
7
6
CONTINUOUS
0
ENDTAB
0
TABLE
2
STYLE
70
1
0
STYLE
2
STANDARD
70
0
40
0.0
41
1.0
50
0.0
71
0
42
0.2
3
txt
4

0
ENDTAB
0
ENDSEC
0
SECTION
2
ENTITIES
0
LINE
8
A-WALL-EXT
10
0.0
20
0.0
30
0.0
11
15000.0
21
15000.0
31
0.0
0
ENDSEC
0
EOF
