0
SECTION
2
HEADER
9
$ACADVER
1
AC1009
0
ENDSEC
0
SECTION
2
TABLES
0
TABLE
2
LTYPE
70
3
0
LTYPE
2
CONTINUOUS
70
0
3
Solid line
72
65
73
0
40
0
0
LTYPE
2
CENTER
70
0
3
Center ____ _ ____ _ ____
72
65
73
0
40
0
0
LTYPE
2
DASHED
70
0
3
Dashed __ __ __ __
72
65
73
0
40
0
0
ENDTAB
0
TABLE
2
LAYER
70
65
0
LAYER
2
A-GRID
70
0
62
1
6
CENTER
0
LAYER
2
A-AXIS
70
0
62
1
6
CENTER
0
LAYER
2
A-AXIS-TEXT
70
0
62
1
6
CONTINUOUS
0
LAYER
2
A-WALL-EXT
70
0
62
7
6
CONTINUOUS
0
LAYER
2
A-WALL-INT
70
0
62
7
6
CONTINUOUS
0
LAYER
2
A-WALL-CORE
70
0
62
7
6
CONTINUOUS
0
LAYER
2
A-WALL-SERVICE
70
0
62
7
6
CONTINUOUS
0
LAYER
2
A-WALL-PART
70
0
62
7
6
CONTINUOUS
0
LAYER
2
A-COLUMN
70
0
62
7
6
CONTINUOUS
0
LAYER
2
A-DOOR
70
0
62
3
6
CONTINUOUS
0
LAYER
2
A-WINDOW
70
0
62
4
6
CONTINUOUS
0
LAYER
2
A-STAIR
70
0
62
6
6
CONTINUOUS
0
LAYER
2
A-STAIR-TREAD
70
0
62
8
6
CONTINUOUS
0
LAYER
2
A-STAIR-DIR
70
0
62
6
6
CONTINUOUS
0
LAYER
2
A-PARKING
70
0
62
8
6
CONTINUOUS
0
LAYER
2
A-SANITARY
70
0
62
3
6
CONTINUOUS
0
LAYER
2
A-FURN
70
0
62
8
6
CONTINUOUS
0
LAYER
2
A-ROOM
70
0
62
7
6
CONTINUOUS
0
LAYER
2
A-HATCH
70
0
62
8
6
CONTINUOUS
0
LAYER
2
A-DIMS
70
0
62
2
6
CONTINUOUS
0
LAYER
2
A-TEXT
70
0
62
7
6
CONTINUOUS
0
LAYER
2
A-NORTH
70
0
62
7
6
CONTINUOUS
0
LAYER
2
A-TITLE
70
0
62
7
6
CONTINUOUS
0
LAYER
2
A-BLDG-OUT
70
0
62
9
6
DASHED
0
LAYER
2
A-SITE
70
0
62
3
6
DASHED
0
LAYER
2
A-SETBACK
70
0
62
2
6
DASHED
0
LAYER
2
0
70
0
62
7
6
CONTINUOUS
0
LAYER
2
A-FLOOR-0-A-WALL-EXT
70
0
62
7
6
CONTINUOUS
0
LAYER
2
A-FLOOR-0-A-WALL-INT
70
0
62
7
6
CONTINUOUS
0
LAYER
2
A-FLOOR-0-A-WALL-CORE
70
0
62
7
6
CONTINUOUS
0
LAYER
2
A-FLOOR-0-A-WALL-SERVICE
70
0
62
7
6
CONTINUOUS
0
LAYER
2
A-FLOOR-0-A-WALL-PART
70
0
62
7
6
CONTINUOUS
0
LAYER
2
A-FLOOR-0-A-DOOR
70
0
62
3
6
CONTINUOUS
0
LAYER
2
A-FLOOR-0-A-WINDOW
70
0
62
4
6
CONTINUOUS
0
LAYER
2
A-FLOOR-0-A-STAIR
70
0
62
6
6
CONTINUOUS
0
LAYER
2
A-FLOOR-0-A-STAIR-TREAD
70
0
62
8
6
CONTINUOUS
0
LAYER
2
A-FLOOR-0-A-STAIR-DIR
70
0
62
6
6
CONTINUOUS
0
LAYER
2
A-FLOOR-0-A-ROOM
70
0
62
7
6
CONTINUOUS
0
LAYER
2
A-FLOOR-0-A-TEXT
70
0
62
7
6
CONTINUOUS
0
LAYER
2
A-FLOOR-0-A-FURN
70
0
62
8
6
CONTINUOUS
0
LAYER
2
A-FLOOR-0-A-SANITARY
70
0
62
3
6
CONTINUOUS
0
LAYER
2
A-FLOOR-0-A-DIMS
70
0
62
2
6
CONTINUOUS
0
LAYER
2
A-FLOOR-0-A-PARKING
70
0
62
8
6
CONTINUOUS
0
LAYER
2
A-FLOOR-0-A-BLDG-OUT
70
0
62
9
6
DASHED
0
LAYER
2
A-FLOOR-0-A-SITE
70
0
62
3
6
DASHED
0
LAYER
2
A-FLOOR-0-A-SETBACK
70
0
62
2
6
DASHED
0
LAYER
2
A-FLOOR-1-A-WALL-EXT
70
0
62
7
6
CONTINUOUS
0
LAYER
2
A-FLOOR-1-A-WALL-INT
70
0
62
7
6
CONTINUOUS
0
LAYER
2
A-FLOOR-1-A-WALL-CORE
70
0
62
7
6
CONTINUOUS
0
LAYER
2
A-FLOOR-1-A-WALL-SERVICE
70
0
62
7
6
CONTINUOUS
0
LAYER
2
A-FLOOR-1-A-WALL-PART
70
0
62
7
6
CONTINUOUS
0
LAYER
2
A-FLOOR-1-A-DOOR
70
0
62
3
6
CONTINUOUS
0
LAYER
2
A-FLOOR-1-A-WINDOW
70
0
62
4
6
CONTINUOUS
0
LAYER
2
A-FLOOR-1-A-STAIR
70
0
62
6
6
CONTINUOUS
0
LAYER
2
A-FLOOR-1-A-STAIR-TREAD
70
0
62
8
6
CONTINUOUS
0
LAYER
2
A-FLOOR-1-A-STAIR-DIR
70
0
62
6
6
CONTINUOUS
0
LAYER
2
A-FLOOR-1-A-ROOM
70
0
62
7
6
CONTINUOUS
0
LAYER
2
A-FLOOR-1-A-TEXT
70
0
62
7
6
CONTINUOUS
0
LAYER
2
A-FLOOR-1-A-FURN
70
0
62
8
6
CONTINUOUS
0
LAYER
2
A-FLOOR-1-A-SANITARY
70
0
62
3
6
CONTINUOUS
0
LAYER
2
A-FLOOR-1-A-DIMS
70
0
62
2
6
CONTINUOUS
0
LAYER
2
A-FLOOR-1-A-PARKING
70
0
62
8
6
CONTINUOUS
0
LAYER
2
A-FLOOR-1-A-BLDG-OUT
70
0
62
9
6
DASHED
0
LAYER
2
A-FLOOR-1-A-SITE
70
0
62
3
6
DASHED
0
LAYER
2
A-FLOOR-1-A-SETBACK
70
0
62
2
6
DASHED
0
ENDTAB
0
TABLE
2
STYLE
70
1
0
STYLE
2
STANDARD
70
0
40
0
41
1
50
0
71
0
42
0.2
3
txt
4

0
ENDTAB
0
ENDSEC
0
SECTION
2
BLOCKS
0
BLOCK
2
*Model_Space
70
0
10
0
20
0
30
0
0
ENDBLK
0
BLOCK
2
*Paper_Space
70
0
10
0
20
0
30
0
0
ENDBLK
0
ENDSEC
0
SECTION
2
ENTITIES
0
POLYLINE
8
A-BLDG-OUT
10
0
20
0
30
0
70
1
66
1
40
0
41
0
71
0
72
0
0
VERTEX
8
A-BLDG-OUT
10
2600
20
1750
30
0
42
0
0
VERTEX
8
A-BLDG-OUT
10
16000
20
1750
30
0
42
0
0
VERTEX
8
A-BLDG-OUT
10
16000
20
22050
30
0
42
0
0
VERTEX
8
A-BLDG-OUT
10
2600
20
22050
30
0
42
0
0
SEQEND
8
A-BLDG-OUT
0
POLYLINE
8
A-FLOOR-0-A-BLDG-OUT
10
0
20
0
30
0
70
1
66
1
40
0
41
0
71
0
72
0
0
VERTEX
8
A-FLOOR-0-A-BLDG-OUT
10
2600
20
1750
30
0
42
0
0
VERTEX
8
A-FLOOR-0-A-BLDG-OUT
10
16000
20
1750
30
0
42
0
0
VERTEX
8
A-FLOOR-0-A-BLDG-OUT
10
16000
20
22050
30
0
42
0
0
VERTEX
8
A-FLOOR-0-A-BLDG-OUT
10
2600
20
22050
30
0
42
0
0
SEQEND
8
A-FLOOR-0-A-BLDG-OUT
0
POLYLINE
8
A-SETBACK
10
0
20
0
30
0
70
1
66
1
40
0
41
0
71
0
72
0
0
VERTEX
8
A-SETBACK
10
2600
20
1750
30
0
42
0
0
VERTEX
8
A-SETBACK
10
16000
20
1750
30
0
42
0
0
VERTEX
8
A-SETBACK
10
16000
20
22050
30
0
42
0
0
VERTEX
8
A-SETBACK
10
2600
20
22050
30
0
42
0
0
SEQEND
8
A-SETBACK
0
POLYLINE
8
A-FLOOR-0-A-SETBACK
10
0
20
0
30
0
70
1
66
1
40
0
41
0
71
0
72
0
0
VERTEX
8
A-FLOOR-0-A-SETBACK
10
2600
20
1750
30
0
42
0
0
VERTEX
8
A-FLOOR-0-A-SETBACK
10
16000
20
1750
30
0
42
0
0
VERTEX
8
A-FLOOR-0-A-SETBACK
10
16000
20
22050
30
0
42
0
0
VERTEX
8
A-FLOOR-0-A-SETBACK
10
2600
20
22050
30
0
42
0
0
SEQEND
8
A-FLOOR-0-A-SETBACK
0
POLYLINE
8
A-SITE
10
0
20
0
30
0
70
1
66
1
40
0
41
0
71
0
72
0
0
VERTEX
8
A-SITE
10
0
20
0
30
0
42
0
0
VERTEX
8
A-SITE
10
17500
20
0
30
0
42
0
0
VERTEX
8
A-SITE
10
17500
20
24300
30
0
42
0
0
VERTEX
8
A-SITE
10
0
20
24300
30
0
42
0
0
SEQEND
8
A-SITE
0
POLYLINE
8
A-FLOOR-0-A-SITE
10
0
20
0
30
0
70
1
66
1
40
0
41
0
71
0
72
0
0
VERTEX
8
A-FLOOR-0-A-SITE
10
0
20
0
30
0
42
0
0
VERTEX
8
A-FLOOR-0-A-SITE
10
17500
20
0
30
0
42
0
0
VERTEX
8
A-FLOOR-0-A-SITE
10
17500
20
24300
30
0
42
0
0
VERTEX
8
A-FLOOR-0-A-SITE
10
0
20
24300
30
0
42
0
0
SEQEND
8
A-FLOOR-0-A-SITE
0
TEXT
8
A-SITE
10
1250
20
-800
30
0
40
300
1
SITE rectangle 17.5x24.3m
50
0
72
0
11
1250
21
-800
31
0
0
TEXT
8
A-SETBACK
10
1250
20
-1200
30
0
40
200
1
Setbacks N=2.25 S=1.75 E=1.5 W=2.6
50
0
72
0
11
1250
21
-1200
31
0
0
TEXT
8
A-TEXT
10
2600
20
22550
30
0
40
300
1
FLOOR 0 - ELEV 0.00 m
50
0
72
0
11
2600
21
22550
31
0
0
TEXT
8
A-FLOOR-0-A-TEXT
10
2600
20
22550
30
0
40
300
1
FLOOR 0 - ELEV 0.00 m
50
0
72
0
11
2600
21
22550
31
0
0
LINE
8
A-WALL-EXT
10
2600
20
1925
30
0
11
6630
21
1925
31
0
0
LINE
8
A-WALL-EXT
10
2600
20
1575
30
0
11
6630
21
1575
31
0
0
LINE
8
A-WALL-EXT
10
2600
20
1925
30
0
11
2600
21
1575
31
0
0
LINE
8
A-WALL-EXT
10
6630
20
1925
30
0
11
6630
21
1575
31
0
0
LINE
8
A-FLOOR-0-A-WALL-EXT
10
2600
20
1925
30
0
11
6630
21
1925
31
0
0
LINE
8
A-FLOOR-0-A-WALL-EXT
10
2600
20
1575
30
0
11
6630
21
1575
31
0
0
LINE
8
A-FLOOR-0-A-WALL-EXT
10
2600
20
1925
30
0
11
2600
21
1575
31
0
0
LINE
8
A-FLOOR-0-A-WALL-EXT
10
6630
20
1925
30
0
11
6630
21
1575
31
0
0
LINE
8
A-WALL-EXT
10
6630
20
1925
30
0
11
8130
21
1925
31
0
0
LINE
8
A-WALL-EXT
10
6630
20
1575
30
0
11
8130
21
1575
31
0
0
LINE
8
A-WALL-EXT
10
8130
20
1925
30
0
11
8130
21
1575
31
0
0
LINE
8
A-FLOOR-0-A-WALL-EXT
10
6630
20
1925
30
0
11
8130
21
1925
31
0
0
LINE
8
A-FLOOR-0-A-WALL-EXT
10
6630
20
1575
30
0
11
8130
21
1575
31
0
0
LINE
8
A-FLOOR-0-A-WALL-EXT
10
8130
20
1925
30
0
11
8130
21
1575
31
0
0
LINE
8
A-WALL-EXT
10
8130
20
1925
30
0
11
10330
21
1925
31
0
0
LINE
8
A-WALL-EXT
10
8130
20
1575
30
0
11
10330
21
1575
31
0
0
LINE
8
A-WALL-EXT
10
10330
20
1925
30
0
11
10330
21
1575
31
0
0
LINE
8
A-FLOOR-0-A-WALL-EXT
10
8130
20
1925
30
0
11
10330
21
1925
31
0
0
LINE
8
A-FLOOR-0-A-WALL-EXT
10
8130
20
1575
30
0
11
10330
21
1575
31
0
0
LINE
8
A-FLOOR-0-A-WALL-EXT
10
10330
20
1925
30
0
11
10330
21
1575
31
0
0
LINE
8
A-WALL-EXT
10
10330
20
1925
30
0
11
11800
21
1925
31
0
0
LINE
8
A-WALL-EXT
10
10330
20
1575
30
0
11
11800
21
1575
31
0
0
LINE
8
A-WALL-EXT
10
11800
20
1925
30
0
11
11800
21
1575
31
0
0
LINE
8
A-FLOOR-0-A-WALL-EXT
10
10330
20
1925
30
0
11
11800
21
1925
31
0
0
LINE
8
A-FLOOR-0-A-WALL-EXT
10
10330
20
1575
30
0
11
11800
21
1575
31
0
0
LINE
8
A-FLOOR-0-A-WALL-EXT
10
11800
20
1925
30
0
11
11800
21
1575
31
0
0
LINE
8
A-WALL-EXT
10
11625
20
1750
30
0
11
11625
21
2200
31
0
0
LINE
8
A-WALL-EXT
10
11975
20
1750
30
0
11
11975
21
2200
31
0
0
LINE
8
A-WALL-EXT
10
11625
20
1750
30
0
11
11975
21
1750
31
0
0
LINE
8
A-WALL-EXT
10
11625
20
3200
30
0
11
11625
21
3650
31
0
0
LINE
8
A-WALL-EXT
10
11975
20
3200
30
0
11
11975
21
3650
31
0
0
LINE
8
A-WALL-EXT
10
11625
20
3650
30
0
11
11975
21
3650
31
0
0
LINE
8
A-WALL-EXT
10
11625
20
2200
30
0
11
11975
21
2200
31
0
0
LINE
8
A-WALL-EXT
10
11625
20
3200
30
0
11
11975
21
3200
31
0
0
LINE
8
A-FLOOR-0-A-WALL-EXT
10
11625
20
1750
30
0
11
11625
21
2200
31
0
0
LINE
8
A-FLOOR-0-A-WALL-EXT
10
11975
20
1750
30
0
11
11975
21
2200
31
0
0
LINE
8
A-FLOOR-0-A-WALL-EXT
10
11625
20
1750
30
0
11
11975
21
1750
31
0
0
LINE
8
A-FLOOR-0-A-WALL-EXT
10
11625
20
3200
30
0
11
11625
21
3650
31
0
0
LINE
8
A-FLOOR-0-A-WALL-EXT
10
11975
20
3200
30
0
11
11975
21
3650
31
0
0
LINE
8
A-FLOOR-0-A-WALL-EXT
10
11625
20
3650
30
0
11
11975
21
3650
31
0
0
LINE
8
A-FLOOR-0-A-WALL-EXT
10
11625
20
2200
30
0
11
11975
21
2200
31
0
0
LINE
8
A-FLOOR-0-A-WALL-EXT
10
11625
20
3200
30
0
11
11975
21
3200
31
0
0
LINE
8
A-WALL-EXT
10
11625
20
3650
30
0
11
11625
21
6950
31
0
0
LINE
8
A-WALL-EXT
10
11975
20
3650
30
0
11
11975
21
6950
31
0
0
LINE
8
A-WALL-EXT
10
11625
20
9950
30
0
11
11625
21
13250
31
0
0
LINE
8
A-WALL-EXT
10
11975
20
9950
30
0
11
11975
21
13250
31
0
0
LINE
8
A-WALL-EXT
10
11625
20
13250
30
0
11
11975
21
13250
31
0
0
LINE
8
A-WALL-EXT
10
11625
20
6950
30
0
11
11975
21
6950
31
0
0
LINE
8
A-WALL-EXT
10
11625
20
9950
30
0
11
11975
21
9950
31
0
0
LINE
8
A-FLOOR-0-A-WALL-EXT
10
11625
20
3650
30
0
11
11625
21
6950
31
0
0
LINE
8
A-FLOOR-0-A-WALL-EXT
10
11975
20
3650
30
0
11
11975
21
6950
31
0
0
LINE
8
A-FLOOR-0-A-WALL-EXT
10
11625
20
9950
30
0
11
11625
21
13250
31
0
0
LINE
8
A-FLOOR-0-A-WALL-EXT
10
11975
20
9950
30
0
11
11975
21
13250
31
0
0
LINE
8
A-FLOOR-0-A-WALL-EXT
10
11625
20
13250
30
0
11
11975
21
13250
31
0
0
LINE
8
A-FLOOR-0-A-WALL-EXT
10
11625
20
6950
30
0
11
11975
21
6950
31
0
0
LINE
8
A-FLOOR-0-A-WALL-EXT
10
11625
20
9950
30
0
11
11975
21
9950
31
0
0
LINE
8
A-WALL-EXT
10
11625
20
13250
30
0
11
11625
21
15250
31
0
0
LINE
8
A-WALL-EXT
10
11975
20
13250
30
0
11
11975
21
15250
31
0
0
LINE
8
A-WALL-EXT
10
11625
20
17650
30
0
11
11625
21
19650
31
0
0
LINE
8
A-WALL-EXT
10
11975
20
17650
30
0
11
11975
21
19650
31
0
0
LINE
8
A-WALL-EXT
10
11625
20
19650
30
0
11
11975
21
19650
31
0
0
LINE
8
A-WALL-EXT
10
11625
20
15250
30
0
11
11975
21
15250
31
0
0
LINE
8
A-WALL-EXT
10
11625
20
17650
30
0
11
11975
21
17650
31
0
0
LINE
8
A-FLOOR-0-A-WALL-EXT
10
11625
20
13250
30
0
11
11625
21
15250
31
0
0
LINE
8
A-FLOOR-0-A-WALL-EXT
10
11975
20
13250
30
0
11
11975
21
15250
31
0
0
LINE
8
A-FLOOR-0-A-WALL-EXT
10
11625
20
17650
30
0
11
11625
21
19650
31
0
0
LINE
8
A-FLOOR-0-A-WALL-EXT
10
11975
20
17650
30
0
11
11975
21
19650
31
0
0
LINE
8
A-FLOOR-0-A-WALL-EXT
10
11625
20
19650
30
0
11
11975
21
19650
31
0
0
LINE
8
A-FLOOR-0-A-WALL-EXT
10
11625
20
15250
30
0
11
11975
21
15250
31
0
0
LINE
8
A-FLOOR-0-A-WALL-EXT
10
11625
20
17650
30
0
11
11975
21
17650
31
0
0
LINE
8
A-WALL-EXT
10
11625
20
19650
30
0
11
11625
21
20310
31
0
0
LINE
8
A-WALL-EXT
10
11975
20
19650
30
0
11
11975
21
20310
31
0
0
LINE
8
A-WALL-EXT
10
11625
20
21390
30
0
11
11625
21
22050
31
0
0
LINE
8
A-WALL-EXT
10
11975
20
21390
30
0
11
11975
21
22050
31
0
0
LINE
8
A-WALL-EXT
10
11625
20
22050
30
0
11
11975
21
22050
31
0
0
LINE
8
A-WALL-EXT
10
11625
20
20310
30
0
11
11975
21
20310
31
0
0
LINE
8
A-WALL-EXT
10
11625
20
21390
30
0
11
11975
21
21390
31
0
0
LINE
8
A-FLOOR-0-A-WALL-EXT
10
11625
20
19650
30
0
11
11625
21
20310
31
0
0
LINE
8
A-FLOOR-0-A-WALL-EXT
10
11975
20
19650
30
0
11
11975
21
20310
31
0
0
LINE
8
A-FLOOR-0-A-WALL-EXT
10
11625
20
21390
30
0
11
11625
21
22050
31
0
0
LINE
8
A-FLOOR-0-A-WALL-EXT
10
11975
20
21390
30
0
11
11975
21
22050
31
0
0
LINE
8
A-FLOOR-0-A-WALL-EXT
10
11625
20
22050
30
0
11
11975
21
22050
31
0
0
LINE
8
A-FLOOR-0-A-WALL-EXT
10
11625
20
20310
30
0
11
11975
21
20310
31
0
0
LINE
8
A-FLOOR-0-A-WALL-EXT
10
11625
20
21390
30
0
11
11975
21
21390
31
0
0
LINE
8
A-WALL-INT
10
8130
20
3725
30
0
11
8780
21
3725
31
0
0
LINE
8
A-WALL-INT
10
8130
20
3575
30
0
11
8780
21
3575
31
0
0
LINE
8
A-WALL-INT
10
8130
20
3725
30
0
11
8130
21
3575
31
0
0
LINE
8
A-WALL-INT
10
9680
20
3725
30
0
11
10330
21
3725
31
0
0
LINE
8
A-WALL-INT
10
9680
20
3575
30
0
11
10330
21
3575
31
0
0
LINE
8
A-WALL-INT
10
10330
20
3725
30
0
11
10330
21
3575
31
0
0
LINE
8
A-WALL-INT
10
8780
20
3725
30
0
11
8780
21
3575
31
0
0
LINE
8
A-WALL-INT
10
9680
20
3725
30
0
11
9680
21
3575
31
0
0
LINE
8
A-FLOOR-0-A-WALL-INT
10
8130
20
3725
30
0
11
8780
21
3725
31
0
0
LINE
8
A-FLOOR-0-A-WALL-INT
10
8130
20
3575
30
0
11
8780
21
3575
31
0
0
LINE
8
A-FLOOR-0-A-WALL-INT
10
8130
20
3725
30
0
11
8130
21
3575
31
0
0
LINE
8
A-FLOOR-0-A-WALL-INT
10
9680
20
3725
30
0
11
10330
21
3725
31
0
0
LINE
8
A-FLOOR-0-A-WALL-INT
10
9680
20
3575
30
0
11
10330
21
3575
31
0
0
LINE
8
A-FLOOR-0-A-WALL-INT
10
10330
20
3725
30
0
11
10330
21
3575
31
0
0
LINE
8
A-FLOOR-0-A-WALL-INT
10
8780
20
3725
30
0
11
8780
21
3575
31
0
0
LINE
8
A-FLOOR-0-A-WALL-INT
10
9680
20
3725
30
0
11
9680
21
3575
31
0
0
LINE
8
A-WALL-INT
10
10330
20
3725
30
0
11
11800
21
3725
31
0
0
LINE
8
A-WALL-INT
10
10330
20
3575
30
0
11
11800
21
3575
31
0
0
LINE
8
A-WALL-INT
10
11800
20
3725
30
0
11
11800
21
3575
31
0
0
LINE
8
A-FLOOR-0-A-WALL-INT
10
10330
20
3725
30
0
11
11800
21
3725
31
0
0
LINE
8
A-FLOOR-0-A-WALL-INT
10
10330
20
3575
30
0
11
11800
21
3575
31
0
0
LINE
8
A-FLOOR-0-A-WALL-INT
10
11800
20
3725
30
0
11
11800
21
3575
31
0
0
LINE
8
A-WALL-INT
10
10255
20
1750
30
0
11
10255
21
2250
31
0
0
LINE
8
A-WALL-INT
10
10405
20
1750
30
0
11
10405
21
2250
31
0
0
LINE
8
A-WALL-INT
10
10255
20
1750
30
0
11
10405
21
1750
31
0
0
LINE
8
A-WALL-INT
10
10255
20
3150
30
0
11
10255
21
3650
31
0
0
LINE
8
A-WALL-INT
10
10405
20
3150
30
0
11
10405
21
3650
31
0
0
LINE
8
A-WALL-INT
10
10255
20
3650
30
0
11
10405
21
3650
31
0
0
LINE
8
A-WALL-INT
10
10255
20
2250
30
0
11
10405
21
2250
31
0
0
LINE
8
A-WALL-INT
10
10255
20
3150
30
0
11
10405
21
3150
31
0
0
LINE
8
A-FLOOR-0-A-WALL-INT
10
10255
20
1750
30
0
11
10255
21
2250
31
0
0
LINE
8
A-FLOOR-0-A-WALL-INT
10
10405
20
1750
30
0
11
10405
21
2250
31
0
0
LINE
8
A-FLOOR-0-A-WALL-INT
10
10255
20
1750
30
0
11
10405
21
1750
31
0
0
LINE
8
A-FLOOR-0-A-WALL-INT
10
10255
20
3150
30
0
11
10255
21
3650
31
0
0
LINE
8
A-FLOOR-0-A-WALL-INT
10
10405
20
3150
30
0
11
10405
21
3650
31
0
0
LINE
8
A-FLOOR-0-A-WALL-INT
10
10255
20
3650
30
0
11
10405
21
3650
31
0
0
LINE
8
A-FLOOR-0-A-WALL-INT
10
10255
20
2250
30
0
11
10405
21
2250
31
0
0
LINE
8
A-FLOOR-0-A-WALL-INT
10
10255
20
3150
30
0
11
10405
21
3150
31
0
0
LINE
8
A-WALL-INT
10
8055
20
1750
30
0
11
8055
21
2250
31
0
0
LINE
8
A-WALL-INT
10
8205
20
1750
30
0
11
8205
21
2250
31
0
0
LINE
8
A-WALL-INT
10
8055
20
1750
30
0
11
8205
21
1750
31
0
0
LINE
8
A-WALL-INT
10
8055
20
3150
30
0
11
8055
21
3650
31
0
0
LINE
8
A-WALL-INT
10
8205
20
3150
30
0
11
8205
21
3650
31
0
0
LINE
8
A-WALL-INT
10
8055
20
3650
30
0
11
8205
21
3650
31
0
0
LINE
8
A-WALL-INT
10
8055
20
2250
30
0
11
8205
21
2250
31
0
0
LINE
8
A-WALL-INT
10
8055
20
3150
30
0
11
8205
21
3150
31
0
0
LINE
8
A-FLOOR-0-A-WALL-INT
10
8055
20
1750
30
0
11
8055
21
2250
31
0
0
LINE
8
A-FLOOR-0-A-WALL-INT
10
8205
20
1750
30
0
11
8205
21
2250
31
0
0
LINE
8
A-FLOOR-0-A-WALL-INT
10
8055
20
1750
30
0
11
8205
21
1750
31
0
0
LINE
8
A-FLOOR-0-A-WALL-INT
10
8055
20
3150
30
0
11
8055
21
3650
31
0
0
LINE
8
A-FLOOR-0-A-WALL-INT
10
8205
20
3150
30
0
11
8205
21
3650
31
0
0
LINE
8
A-FLOOR-0-A-WALL-INT
10
8055
20
3650
30
0
11
8205
21
3650
31
0
0
LINE
8
A-FLOOR-0-A-WALL-INT
10
8055
20
2250
30
0
11
8205
21
2250
31
0
0
LINE
8
A-FLOOR-0-A-WALL-INT
10
8055
20
3150
30
0
11
8205
21
3150
31
0
0
LINE
8
A-WALL-INT
10
8055
20
3650
30
0
11
8055
21
13250
31
0
0
LINE
8
A-WALL-INT
10
8205
20
3650
30
0
11
8205
21
13250
31
0
0
LINE
8
A-WALL-INT
10
8055
20
13250
30
0
11
8205
21
13250
31
0
0
LINE
8
A-FLOOR-0-A-WALL-INT
10
8055
20
3650
30
0
11
8055
21
13250
31
0
0
LINE
8
A-FLOOR-0-A-WALL-INT
10
8205
20
3650
30
0
11
8205
21
13250
31
0
0
LINE
8
A-FLOOR-0-A-WALL-INT
10
8055
20
13250
30
0
11
8205
21
13250
31
0
0
LINE
8
A-WALL-SERVICE
10
8070
20
13250
30
0
11
8070
21
16050
31
0
0
LINE
8
A-WALL-SERVICE
10
8190
20
13250
30
0
11
8190
21
16050
31
0
0
LINE
8
A-WALL-SERVICE
10
8070
20
13250
30
0
11
8190
21
13250
31
0
0
LINE
8
A-WALL-SERVICE
10
8070
20
16850
30
0
11
8070
21
19650
31
0
0
LINE
8
A-WALL-SERVICE
10
8190
20
16850
30
0
11
8190
21
19650
31
0
0
LINE
8
A-WALL-SERVICE
10
8070
20
19650
30
0
11
8190
21
19650
31
0
0
LINE
8
A-WALL-SERVICE
10
8070
20
16050
30
0
11
8190
21
16050
31
0
0
LINE
8
A-WALL-SERVICE
10
8070
20
16850
30
0
11
8190
21
16850
31
0
0
LINE
8
A-FLOOR-0-A-WALL-SERVICE
10
8070
20
13250
30
0
11
8070
21
16050
31
0
0
LINE
8
A-FLOOR-0-A-WALL-SERVICE
10
8190
20
13250
30
0
11
8190
21
16050
31
0
0
LINE
8
A-FLOOR-0-A-WALL-SERVICE
10
8070
20
13250
30
0
11
8190
21
13250
31
0
0
LINE
8
A-FLOOR-0-A-WALL-SERVICE
10
8070
20
16850
30
0
11
8070
21
19650
31
0
0
LINE
8
A-FLOOR-0-A-WALL-SERVICE
10
8190
20
16850
30
0
11
8190
21
19650
31
0
0
LINE
8
A-FLOOR-0-A-WALL-SERVICE
10
8070
20
19650
30
0
11
8190
21
19650
31
0
0
LINE
8
A-FLOOR-0-A-WALL-SERVICE
10
8070
20
16050
30
0
11
8190
21
16050
31
0
0
LINE
8
A-FLOOR-0-A-WALL-SERVICE
10
8070
20
16850
30
0
11
8190
21
16850
31
0
0
LINE
8
A-WALL-INT
10
8055
20
19650
30
0
11
8055
21
20400
31
0
0
LINE
8
A-WALL-INT
10
8205
20
19650
30
0
11
8205
21
20400
31
0
0
LINE
8
A-WALL-INT
10
8055
20
19650
30
0
11
8205
21
19650
31
0
0
LINE
8
A-WALL-INT
10
8055
20
21300
30
0
11
8055
21
22050
31
0
0
LINE
8
A-WALL-INT
10
8205
20
21300
30
0
11
8205
21
22050
31
0
0
LINE
8
A-WALL-INT
10
8055
20
22050
30
0
11
8205
21
22050
31
0
0
LINE
8
A-WALL-INT
10
8055
20
20400
30
0
11
8205
21
20400
31
0
0
LINE
8
A-WALL-INT
10
8055
20
21300
30
0
11
8205
21
21300
31
0
0
LINE
8
A-FLOOR-0-A-WALL-INT
10
8055
20
19650
30
0
11
8055
21
20400
31
0
0
LINE
8
A-FLOOR-0-A-WALL-INT
10
8205
20
19650
30
0
11
8205
21
20400
31
0
0
LINE
8
A-FLOOR-0-A-WALL-INT
10
8055
20
19650
30
0
11
8205
21
19650
31
0
0
LINE
8
A-FLOOR-0-A-WALL-INT
10
8055
20
21300
30
0
11
8055
21
22050
31
0
0
LINE
8
A-FLOOR-0-A-WALL-INT
10
8205
20
21300
30
0
11
8205
21
22050
31
0
0
LINE
8
A-FLOOR-0-A-WALL-INT
10
8055
20
22050
30
0
11
8205
21
22050
31
0
0
LINE
8
A-FLOOR-0-A-WALL-INT
10
8055
20
20400
30
0
11
8205
21
20400
31
0
0
LINE
8
A-FLOOR-0-A-WALL-INT
10
8055
20
21300
30
0
11
8205
21
21300
31
0
0
LINE
8
A-WALL-SERVICE
10
8130
20
19710
30
0
11
9400
21
19710
31
0
0
LINE
8
A-WALL-SERVICE
10
8130
20
19590
30
0
11
9400
21
19590
31
0
0
LINE
8
A-WALL-SERVICE
10
8130
20
19710
30
0
11
8130
21
19590
31
0
0
LINE
8
A-WALL-SERVICE
10
9400
20
19710
30
0
11
9400
21
19590
31
0
0
LINE
8
A-FLOOR-0-A-WALL-SERVICE
10
8130
20
19710
30
0
11
9400
21
19710
31
0
0
LINE
8
A-FLOOR-0-A-WALL-SERVICE
10
8130
20
19590
30
0
11
9400
21
19590
31
0
0
LINE
8
A-FLOOR-0-A-WALL-SERVICE
10
8130
20
19710
30
0
11
8130
21
19590
31
0
0
LINE
8
A-FLOOR-0-A-WALL-SERVICE
10
9400
20
19710
30
0
11
9400
21
19590
31
0
0
LINE
8
A-WALL-INT
10
9400
20
19725
30
0
11
11800
21
19725
31
0
0
LINE
8
A-WALL-INT
10
9400
20
19575
30
0
11
11800
21
19575
31
0
0
LINE
8
A-WALL-INT
10
9400
20
19725
30
0
11
9400
21
19575
31
0
0
LINE
8
A-WALL-INT
10
11800
20
19725
30
0
11
11800
21
19575
31
0
0
LINE
8
A-FLOOR-0-A-WALL-INT
10
9400
20
19725
30
0
11
11800
21
19725
31
0
0
LINE
8
A-FLOOR-0-A-WALL-INT
10
9400
20
19575
30
0
11
11800
21
19575
31
0
0
LINE
8
A-FLOOR-0-A-WALL-INT
10
9400
20
19725
30
0
11
9400
21
19575
31
0
0
LINE
8
A-FLOOR-0-A-WALL-INT
10
11800
20
19725
30
0
11
11800
21
19575
31
0
0
LINE
8
A-WALL-EXT
10
6630
20
22225
30
0
11
8130
21
22225
31
0
0
LINE
8
A-WALL-EXT
10
6630
20
21875
30
0
11
8130
21
21875
31
0
0
LINE
8
A-WALL-EXT
10
6630
20
22225
30
0
11
6630
21
21875
31
0
0
LINE
8
A-WALL-EXT
10
8130
20
22225
30
0
11
8130
21
21875
31
0
0
LINE
8
A-FLOOR-0-A-WALL-EXT
10
6630
20
22225
30
0
11
8130
21
22225
31
0
0
LINE
8
A-FLOOR-0-A-WALL-EXT
10
6630
20
21875
30
0
11
8130
21
21875
31
0
0
LINE
8
A-FLOOR-0-A-WALL-EXT
10
6630
20
22225
30
0
11
6630
21
21875
31
0
0
LINE
8
A-FLOOR-0-A-WALL-EXT
10
8130
20
22225
30
0
11
8130
21
21875
31
0
0
LINE
8
A-WALL-EXT
10
8130
20
22225
30
0
11
11800
21
22225
31
0
0
LINE
8
A-WALL-EXT
10
8130
20
21875
30
0
11
11800
21
21875
31
0
0
LINE
8
A-WALL-EXT
10
11800
20
22225
30
0
11
11800
21
21875
31
0
0
LINE
8
A-FLOOR-0-A-WALL-EXT
10
8130
20
22225
30
0
11
11800
21
22225
31
0
0
LINE
8
A-FLOOR-0-A-WALL-EXT
10
8130
20
21875
30
0
11
11800
21
21875
31
0
0
LINE
8
A-FLOOR-0-A-WALL-EXT
10
11800
20
22225
30
0
11
11800
21
21875
31
0
0
LINE
8
A-WALL-CORE
10
6530
20
1750
30
0
11
6530
21
2750
31
0
0
LINE
8
A-WALL-CORE
10
6730
20
1750
30
0
11
6730
21
2750
31
0
0
LINE
8
A-WALL-CORE
10
6530
20
1750
30
0
11
6730
21
1750
31
0
0
LINE
8
A-WALL-CORE
10
6530
20
3650
30
0
11
6530
21
4650
31
0
0
LINE
8
A-WALL-CORE
10
6730
20
3650
30
0
11
6730
21
4650
31
0
0
LINE
8
A-WALL-CORE
10
6530
20
4650
30
0
11
6730
21
4650
31
0
0
LINE
8
A-WALL-CORE
10
6530
20
2750
30
0
11
6730
21
2750
31
0
0
LINE
8
A-WALL-CORE
10
6530
20
3650
30
0
11
6730
21
3650
31
0
0
LINE
8
A-FLOOR-0-A-WALL-CORE
10
6530
20
1750
30
0
11
6530
21
2750
31
0
0
LINE
8
A-FLOOR-0-A-WALL-CORE
10
6730
20
1750
30
0
11
6730
21
2750
31
0
0
LINE
8
A-FLOOR-0-A-WALL-CORE
10
6530
20
1750
30
0
11
6730
21
1750
31
0
0
LINE
8
A-FLOOR-0-A-WALL-CORE
10
6530
20
3650
30
0
11
6530
21
4650
31
0
0
LINE
8
A-FLOOR-0-A-WALL-CORE
10
6730
20
3650
30
0
11
6730
21
4650
31
0
0
LINE
8
A-FLOOR-0-A-WALL-CORE
10
6530
20
4650
30
0
11
6730
21
4650
31
0
0
LINE
8
A-FLOOR-0-A-WALL-CORE
10
6530
20
2750
30
0
11
6730
21
2750
31
0
0
LINE
8
A-FLOOR-0-A-WALL-CORE
10
6530
20
3650
30
0
11
6730
21
3650
31
0
0
LINE
8
A-WALL-EXT
10
6455
20
4650
30
0
11
6455
21
22050
31
0
0
LINE
8
A-WALL-EXT
10
6805
20
4650
30
0
11
6805
21
22050
31
0
0
LINE
8
A-WALL-EXT
10
6455
20
4650
30
0
11
6805
21
4650
31
0
0
LINE
8
A-WALL-EXT
10
6455
20
22050
30
0
11
6805
21
22050
31
0
0
LINE
8
A-FLOOR-0-A-WALL-EXT
10
6455
20
4650
30
0
11
6455
21
22050
31
0
0
LINE
8
A-FLOOR-0-A-WALL-EXT
10
6805
20
4650
30
0
11
6805
21
22050
31
0
0
LINE
8
A-FLOOR-0-A-WALL-EXT
10
6455
20
4650
30
0
11
6805
21
4650
31
0
0
LINE
8
A-FLOOR-0-A-WALL-EXT
10
6455
20
22050
30
0
11
6805
21
22050
31
0
0
LINE
8
A-WALL-EXT
10
2600
20
4825
30
0
11
6630
21
4825
31
0
0
LINE
8
A-WALL-EXT
10
2600
20
4475
30
0
11
6630
21
4475
31
0
0
LINE
8
A-WALL-EXT
10
2600
20
4825
30
0
11
2600
21
4475
31
0
0
LINE
8
A-WALL-EXT
10
6630
20
4825
30
0
11
6630
21
4475
31
0
0
LINE
8
A-FLOOR-0-A-WALL-EXT
10
2600
20
4825
30
0
11
6630
21
4825
31
0
0
LINE
8
A-FLOOR-0-A-WALL-EXT
10
2600
20
4475
30
0
11
6630
21
4475
31
0
0
LINE
8
A-FLOOR-0-A-WALL-EXT
10
2600
20
4825
30
0
11
2600
21
4475
31
0
0
LINE
8
A-FLOOR-0-A-WALL-EXT
10
6630
20
4825
30
0
11
6630
21
4475
31
0
0
LINE
8
A-WALL-EXT
10
2425
20
1750
30
0
11
2425
21
4650
31
0
0
LINE
8
A-WALL-EXT
10
2775
20
1750
30
0
11
2775
21
4650
31
0
0
LINE
8
A-WALL-EXT
10
2425
20
1750
30
0
11
2775
21
1750
31
0
0
LINE
8
A-WALL-EXT
10
2425
20
4650
30
0
11
2775
21
4650
31
0
0
LINE
8
A-FLOOR-0-A-WALL-EXT
10
2425
20
1750
30
0
11
2425
21
4650
31
0
0
LINE
8
A-FLOOR-0-A-WALL-EXT
10
2775
20
1750
30
0
11
2775
21
4650
31
0
0
LINE
8
A-FLOOR-0-A-WALL-EXT
10
2425
20
1750
30
0
11
2775
21
1750
31
0
0
LINE
8
A-FLOOR-0-A-WALL-EXT
10
2425
20
4650
30
0
11
2775
21
4650
31
0
0
LINE
8
A-WALL-SERVICE
10
8130
20
13310
30
0
11
9400
21
13310
31
0
0
LINE
8
A-WALL-SERVICE
10
8130
20
13190
30
0
11
9400
21
13190
31
0
0
LINE
8
A-WALL-SERVICE
10
8130
20
13310
30
0
11
8130
21
13190
31
0
0
LINE
8
A-WALL-SERVICE
10
9400
20
13310
30
0
11
9400
21
13190
31
0
0
LINE
8
A-FLOOR-0-A-WALL-SERVICE
10
8130
20
13310
30
0
11
9400
21
13310
31
0
0
LINE
8
A-FLOOR-0-A-WALL-SERVICE
10
8130
20
13190
30
0
11
9400
21
13190
31
0
0
LINE
8
A-FLOOR-0-A-WALL-SERVICE
10
8130
20
13310
30
0
11
8130
21
13190
31
0
0
LINE
8
A-FLOOR-0-A-WALL-SERVICE
10
9400
20
13310
30
0
11
9400
21
13190
31
0
0
LINE
8
A-WALL-INT
10
9400
20
13325
30
0
11
10150
21
13325
31
0
0
LINE
8
A-WALL-INT
10
9400
20
13175
30
0
11
10150
21
13175
31
0
0
LINE
8
A-WALL-INT
10
9400
20
13325
30
0
11
9400
21
13175
31
0
0
LINE
8
A-WALL-INT
10
11050
20
13325
30
0
11
11800
21
13325
31
0
0
LINE
8
A-WALL-INT
10
11050
20
13175
30
0
11
11800
21
13175
31
0
0
LINE
8
A-WALL-INT
10
11800
20
13325
30
0
11
11800
21
13175
31
0
0
LINE
8
A-WALL-INT
10
10150
20
13325
30
0
11
10150
21
13175
31
0
0
LINE
8
A-WALL-INT
10
11050
20
13325
30
0
11
11050
21
13175
31
0
0
LINE
8
A-FLOOR-0-A-WALL-INT
10
9400
20
13325
30
0
11
10150
21
13325
31
0
0
LINE
8
A-FLOOR-0-A-WALL-INT
10
9400
20
13175
30
0
11
10150
21
13175
31
0
0
LINE
8
A-FLOOR-0-A-WALL-INT
10
9400
20
13325
30
0
11
9400
21
13175
31
0
0
LINE
8
A-FLOOR-0-A-WALL-INT
10
11050
20
13325
30
0
11
11800
21
13325
31
0
0
LINE
8
A-FLOOR-0-A-WALL-INT
10
11050
20
13175
30
0
11
11800
21
13175
31
0
0
LINE
8
A-FLOOR-0-A-WALL-INT
10
11800
20
13325
30
0
11
11800
21
13175
31
0
0
LINE
8
A-FLOOR-0-A-WALL-INT
10
10150
20
13325
30
0
11
10150
21
13175
31
0
0
LINE
8
A-FLOOR-0-A-WALL-INT
10
11050
20
13325
30
0
11
11050
21
13175
31
0
0
LINE
8
A-WALL-SERVICE
10
9340
20
13250
30
0
11
9340
21
19650
31
0
0
LINE
8
A-WALL-SERVICE
10
9460
20
13250
30
0
11
9460
21
19650
31
0
0
LINE
8
A-WALL-SERVICE
10
9340
20
13250
30
0
11
9460
21
13250
31
0
0
LINE
8
A-WALL-SERVICE
10
9340
20
19650
30
0
11
9460
21
19650
31
0
0
LINE
8
A-FLOOR-0-A-WALL-SERVICE
10
9340
20
13250
30
0
11
9340
21
19650
31
0
0
LINE
8
A-FLOOR-0-A-WALL-SERVICE
10
9460
20
13250
30
0
11
9460
21
19650
31
0
0
LINE
8
A-FLOOR-0-A-WALL-SERVICE
10
9340
20
13250
30
0
11
9460
21
13250
31
0
0
LINE
8
A-FLOOR-0-A-WALL-SERVICE
10
9340
20
19650
30
0
11
9460
21
19650
31
0
0
LINE
8
A-DOOR
10
11800
20
2200
30
0
11
11800
21
3200
31
0
0
ARC
8
A-DOOR
10
11800
20
2200
30
0
40
1000
50
90
51
180
0
LINE
8
A-DOOR
10
10800
20
2200
30
0
11
10800
21
2160
31
0
0
LINE
8
A-FLOOR-0-A-DOOR
10
11800
20
2200
30
0
11
11800
21
3200
31
0
0
ARC
8
A-FLOOR-0-A-DOOR
10
11800
20
2200
30
0
40
1000
50
90
51
180
0
LINE
8
A-FLOOR-0-A-DOOR
10
10800
20
2200
30
0
11
10800
21
2160
31
0
0
LINE
8
A-DIMS
10
11850
20
3200
30
0
11
12200
21
3200
31
0
0
LINE
8
A-FLOOR-0-A-DIMS
10
11850
20
3200
30
0
11
12200
21
3200
31
0
0
LINE
8
A-DIMS
10
11850
20
2200
30
0
11
12200
21
2200
31
0
0
LINE
8
A-FLOOR-0-A-DIMS
10
11850
20
2200
30
0
11
12200
21
2200
31
0
0
LINE
8
A-DIMS
10
12120
20
3200
30
0
11
12120
21
2200
31
0
0
LINE
8
A-FLOOR-0-A-DIMS
10
12120
20
3200
30
0
11
12120
21
2200
31
0
0
LINE
8
A-DIMS
10
12170
20
3150
30
0
11
12070
21
3250
31
0
0
LINE
8
A-FLOOR-0-A-DIMS
10
12170
20
3150
30
0
11
12070
21
3250
31
0
0
LINE
8
A-DIMS
10
12170
20
2150
30
0
11
12070
21
2250
31
0
0
LINE
8
A-FLOOR-0-A-DIMS
10
12170
20
2150
30
0
11
12070
21
2250
31
0
0
TEXT
8
A-DIMS
10
12180
20
2700
30
0
40
100
1
1.00 m
50
0
72
1
11
12180
21
2700
31
0
0
TEXT
8
A-FLOOR-0-A-DIMS
10
12180
20
2700
30
0
40
100
1
1.00 m
50
0
72
1
11
12180
21
2700
31
0
0
LINE
8
A-DOOR
10
8130
20
3150
30
0
11
8130
21
2250
31
0
0
ARC
8
A-DOOR
10
8130
20
3150
30
0
40
900
50
270
51
0
0
LINE
8
A-DOOR
10
9030
20
3150
30
0
11
9030
21
3190
31
0
0
LINE
8
A-FLOOR-0-A-DOOR
10
8130
20
3150
30
0
11
8130
21
2250
31
0
0
ARC
8
A-FLOOR-0-A-DOOR
10
8130
20
3150
30
0
40
900
50
270
51
0
0
LINE
8
A-FLOOR-0-A-DOOR
10
9030
20
3150
30
0
11
9030
21
3190
31
0
0
LINE
8
A-DOOR
10
6630
20
3650
30
0
11
6630
21
2750
31
0
0
ARC
8
A-DOOR
10
6630
20
3650
30
0
40
900
50
180
51
270
0
LINE
8
A-DOOR
10
5730
20
3650
30
0
11
5730
21
3610
31
0
0
LINE
8
A-FLOOR-0-A-DOOR
10
6630
20
3650
30
0
11
6630
21
2750
31
0
0
ARC
8
A-FLOOR-0-A-DOOR
10
6630
20
3650
30
0
40
900
50
180
51
270
0
LINE
8
A-FLOOR-0-A-DOOR
10
5730
20
3650
30
0
11
5730
21
3610
31
0
0
LINE
8
A-DOOR
10
10330
20
2250
30
0
11
10330
21
3150
31
0
0
ARC
8
A-DOOR
10
10330
20
2250
30
0
40
900
50
90
51
180
0
LINE
8
A-DOOR
10
9430
20
2250
30
0
11
9430
21
2210
31
0
0
LINE
8
A-FLOOR-0-A-DOOR
10
10330
20
2250
30
0
11
10330
21
3150
31
0
0
ARC
8
A-FLOOR-0-A-DOOR
10
10330
20
2250
30
0
40
900
50
90
51
180
0
LINE
8
A-FLOOR-0-A-DOOR
10
9430
20
2250
30
0
11
9430
21
2210
31
0
0
LINE
8
A-DOOR
10
8130
20
16850
30
0
11
8130
21
16050
31
0
0
ARC
8
A-DOOR
10
8130
20
16850
30
0
40
800
50
270
51
0
0
LINE
8
A-DOOR
10
8930
20
16850
30
0
11
8930
21
16890
31
0
0
LINE
8
A-FLOOR-0-A-DOOR
10
8130
20
16850
30
0
11
8130
21
16050
31
0
0
ARC
8
A-FLOOR-0-A-DOOR
10
8130
20
16850
30
0
40
800
50
270
51
0
0
LINE
8
A-FLOOR-0-A-DOOR
10
8930
20
16850
30
0
11
8930
21
16890
31
0
0
LINE
8
A-DOOR
10
8130
20
20400
30
0
11
8130
21
21300
31
0
0
ARC
8
A-DOOR
10
8130
20
20400
30
0
40
900
50
0
51
90
0
LINE
8
A-DOOR
10
9030
20
20400
30
0
11
9030
21
20440
31
0
0
LINE
8
A-FLOOR-0-A-DOOR
10
8130
20
20400
30
0
11
8130
21
21300
31
0
0
ARC
8
A-FLOOR-0-A-DOOR
10
8130
20
20400
30
0
40
900
50
0
51
90
0
LINE
8
A-FLOOR-0-A-DOOR
10
9030
20
20400
30
0
11
9030
21
20440
31
0
0
LINE
8
A-DOOR
10
8780
20
3650
30
0
11
9680
21
3650
31
0
0
ARC
8
A-DOOR
10
8780
20
3650
30
0
40
900
50
0
51
90
0
LINE
8
A-DOOR
10
8780
20
4550
30
0
11
8740
21
4550
31
0
0
LINE
8
A-FLOOR-0-A-DOOR
10
8780
20
3650
30
0
11
9680
21
3650
31
0
0
ARC
8
A-FLOOR-0-A-DOOR
10
8780
20
3650
30
0
40
900
50
0
51
90
0
LINE
8
A-FLOOR-0-A-DOOR
10
8780
20
4550
30
0
11
8740
21
4550
31
0
0
LINE
8
A-DOOR
10
10150
20
13250
30
0
11
11050
21
13250
31
0
0
ARC
8
A-DOOR
10
10150
20
13250
30
0
40
900
50
0
51
90
0
LINE
8
A-DOOR
10
10150
20
14150
30
0
11
10110
21
14150
31
0
0
LINE
8
A-FLOOR-0-A-DOOR
10
10150
20
13250
30
0
11
11050
21
13250
31
0
0
ARC
8
A-FLOOR-0-A-DOOR
10
10150
20
13250
30
0
40
900
50
0
51
90
0
LINE
8
A-FLOOR-0-A-DOOR
10
10150
20
14150
30
0
11
10110
21
14150
31
0
0
LINE
8
A-WINDOW
10
11860
20
20310
30
0
11
11860
21
21390
31
0
0
LINE
8
A-WINDOW
10
11820
20
20310
30
0
11
11820
21
21390
31
0
0
LINE
8
A-WINDOW
10
11780
20
20310
30
0
11
11780
21
21390
31
0
0
LINE
8
A-WINDOW
10
11740
20
20310
30
0
11
11740
21
21390
31
0
0
LINE
8
A-FLOOR-0-A-WINDOW
10
11860
20
20310
30
0
11
11860
21
21390
31
0
0
LINE
8
A-FLOOR-0-A-WINDOW
10
11820
20
20310
30
0
11
11820
21
21390
31
0
0
LINE
8
A-FLOOR-0-A-WINDOW
10
11780
20
20310
30
0
11
11780
21
21390
31
0
0
LINE
8
A-FLOOR-0-A-WINDOW
10
11740
20
20310
30
0
11
11740
21
21390
31
0
0
LINE
8
A-DIMS
10
11850
20
21390
30
0
11
12200
21
21390
31
0
0
LINE
8
A-FLOOR-0-A-DIMS
10
11850
20
21390
30
0
11
12200
21
21390
31
0
0
LINE
8
A-DIMS
10
11850
20
20310
30
0
11
12200
21
20310
31
0
0
LINE
8
A-FLOOR-0-A-DIMS
10
11850
20
20310
30
0
11
12200
21
20310
31
0
0
LINE
8
A-DIMS
10
12120
20
21390
30
0
11
12120
21
20310
31
0
0
LINE
8
A-FLOOR-0-A-DIMS
10
12120
20
21390
30
0
11
12120
21
20310
31
0
0
LINE
8
A-DIMS
10
12170
20
21340
30
0
11
12070
21
21440
31
0
0
LINE
8
A-FLOOR-0-A-DIMS
10
12170
20
21340
30
0
11
12070
21
21440
31
0
0
LINE
8
A-DIMS
10
12170
20
20260
30
0
11
12070
21
20360
31
0
0
LINE
8
A-FLOOR-0-A-DIMS
10
12170
20
20260
30
0
11
12070
21
20360
31
0
0
TEXT
8
A-DIMS
10
12180
20
20850
30
0
40
100
1
1.08 m
50
0
72
1
11
12180
21
20850
31
0
0
TEXT
8
A-FLOOR-0-A-DIMS
10
12180
20
20850
30
0
40
100
1
1.08 m
50
0
72
1
11
12180
21
20850
31
0
0
LINE
8
A-WINDOW
10
11860
20
6950
30
0
11
11860
21
9950
31
0
0
LINE
8
A-WINDOW
10
11820
20
6950
30
0
11
11820
21
9950
31
0
0
LINE
8
A-WINDOW
10
11780
20
6950
30
0
11
11780
21
9950
31
0
0
LINE
8
A-WINDOW
10
11740
20
6950
30
0
11
11740
21
9950
31
0
0
LINE
8
A-FLOOR-0-A-WINDOW
10
11860
20
6950
30
0
11
11860
21
9950
31
0
0
LINE
8
A-FLOOR-0-A-WINDOW
10
11820
20
6950
30
0
11
11820
21
9950
31
0
0
LINE
8
A-FLOOR-0-A-WINDOW
10
11780
20
6950
30
0
11
11780
21
9950
31
0
0
LINE
8
A-FLOOR-0-A-WINDOW
10
11740
20
6950
30
0
11
11740
21
9950
31
0
0
LINE
8
A-DIMS
10
11850
20
9950
30
0
11
12200
21
9950
31
0
0
LINE
8
A-FLOOR-0-A-DIMS
10
11850
20
9950
30
0
11
12200
21
9950
31
0
0
LINE
8
A-DIMS
10
11850
20
6950
30
0
11
12200
21
6950
31
0
0
LINE
8
A-FLOOR-0-A-DIMS
10
11850
20
6950
30
0
11
12200
21
6950
31
0
0
LINE
8
A-DIMS
10
12120
20
9950
30
0
11
12120
21
6950
31
0
0
LINE
8
A-FLOOR-0-A-DIMS
10
12120
20
9950
30
0
11
12120
21
6950
31
0
0
LINE
8
A-DIMS
10
12170
20
9900
30
0
11
12070
21
10000
31
0
0
LINE
8
A-FLOOR-0-A-DIMS
10
12170
20
9900
30
0
11
12070
21
10000
31
0
0
LINE
8
A-DIMS
10
12170
20
6900
30
0
11
12070
21
7000
31
0
0
LINE
8
A-FLOOR-0-A-DIMS
10
12170
20
6900
30
0
11
12070
21
7000
31
0
0
TEXT
8
A-DIMS
10
12180
20
8450
30
0
40
100
1
3.00 m
50
0
72
1
11
12180
21
8450
31
0
0
TEXT
8
A-FLOOR-0-A-DIMS
10
12180
20
8450
30
0
40
100
1
3.00 m
50
0
72
1
11
12180
21
8450
31
0
0
LINE
8
A-WINDOW
10
11860
20
15250
30
0
11
11860
21
17650
31
0
0
LINE
8
A-WINDOW
10
11820
20
15250
30
0
11
11820
21
17650
31
0
0
LINE
8
A-WINDOW
10
11780
20
15250
30
0
11
11780
21
17650
31
0
0
LINE
8
A-WINDOW
10
11740
20
15250
30
0
11
11740
21
17650
31
0
0
LINE
8
A-FLOOR-0-A-WINDOW
10
11860
20
15250
30
0
11
11860
21
17650
31
0
0
LINE
8
A-FLOOR-0-A-WINDOW
10
11820
20
15250
30
0
11
11820
21
17650
31
0
0
LINE
8
A-FLOOR-0-A-WINDOW
10
11780
20
15250
30
0
11
11780
21
17650
31
0
0
LINE
8
A-FLOOR-0-A-WINDOW
10
11740
20
15250
30
0
11
11740
21
17650
31
0
0
LINE
8
A-DIMS
10
11850
20
17650
30
0
11
12200
21
17650
31
0
0
LINE
8
A-FLOOR-0-A-DIMS
10
11850
20
17650
30
0
11
12200
21
17650
31
0
0
LINE
8
A-DIMS
10
11850
20
15250
30
0
11
12200
21
15250
31
0
0
LINE
8
A-FLOOR-0-A-DIMS
10
11850
20
15250
30
0
11
12200
21
15250
31
0
0
LINE
8
A-DIMS
10
12120
20
17650
30
0
11
12120
21
15250
31
0
0
LINE
8
A-FLOOR-0-A-DIMS
10
12120
20
17650
30
0
11
12120
21
15250
31
0
0
LINE
8
A-DIMS
10
12170
20
17600
30
0
11
12070
21
17700
31
0
0
LINE
8
A-FLOOR-0-A-DIMS
10
12170
20
17600
30
0
11
12070
21
17700
31
0
0
LINE
8
A-DIMS
10
12170
20
15200
30
0
11
12070
21
15300
31
0
0
LINE
8
A-FLOOR-0-A-DIMS
10
12170
20
15200
30
0
11
12070
21
15300
31
0
0
TEXT
8
A-DIMS
10
12180
20
16450
30
0
40
100
1
2.40 m
50
0
72
1
11
12180
21
16450
31
0
0
TEXT
8
A-FLOOR-0-A-DIMS
10
12180
20
16450
30
0
40
100
1
2.40 m
50
0
72
1
11
12180
21
16450
31
0
0
LINE
8
A-STAIR
10
2785
20
1750
30
0
11
6630
21
1750
31
0
0
LINE
8
A-FLOOR-0-A-STAIR
10
2785
20
1750
30
0
11
6630
21
1750
31
0
0
LINE
8
A-STAIR
10
6630
20
1750
30
0
11
6630
21
4560
31
0
0
LINE
8
A-FLOOR-0-A-STAIR
10
6630
20
1750
30
0
11
6630
21
4560
31
0
0
LINE
8
A-STAIR
10
6630
20
4560
30
0
11
2785
21
4560
31
0
0
LINE
8
A-FLOOR-0-A-STAIR
10
6630
20
4560
30
0
11
2785
21
4560
31
0
0
LINE
8
A-STAIR
10
2785
20
4560
30
0
11
2785
21
1750
31
0
0
LINE
8
A-FLOOR-0-A-STAIR
10
2785
20
4560
30
0
11
2785
21
1750
31
0
0
POLYLINE
8
A-STAIR
10
0
20
0
30
0
70
1
66
1
40
0
41
0
71
0
72
0
0
VERTEX
8
A-STAIR
10
5025
20
1750
30
0
42
0
0
VERTEX
8
A-STAIR
10
6630
20
1750
30
0
42
0
0
VERTEX
8
A-STAIR
10
6630
20
4560
30
0
42
0
0
VERTEX
8
A-STAIR
10
5025
20
4560
30
0
42
0
0
SEQEND
8
A-STAIR
0
POLYLINE
8
A-FLOOR-0-A-STAIR
10
0
20
0
30
0
70
1
66
1
40
0
41
0
71
0
72
0
0
VERTEX
8
A-FLOOR-0-A-STAIR
10
5025
20
1750
30
0
42
0
0
VERTEX
8
A-FLOOR-0-A-STAIR
10
6630
20
1750
30
0
42
0
0
VERTEX
8
A-FLOOR-0-A-STAIR
10
6630
20
4560
30
0
42
0
0
VERTEX
8
A-FLOOR-0-A-STAIR
10
5025
20
4560
30
0
42
0
0
SEQEND
8
A-FLOOR-0-A-STAIR
0
TEXT
8
A-STAIR
10
5827.5
20
3155
30
0
40
180
1
LDNG 1.60
50
0
72
1
11
5827.5
21
3155
31
0
0
TEXT
8
A-FLOOR-0-A-STAIR
10
5827.5
20
3155
30
0
40
180
1
LDNG 1.60
50
0
72
1
11
5827.5
21
3155
31
0
0
POLYLINE
8
A-STAIR
10
0
20
0
30
0
70
0
66
1
40
0
41
0
71
0
72
0
0
VERTEX
8
A-STAIR
10
2785
20
1750
30
0
42
0
0
VERTEX
8
A-STAIR
10
5025
20
1750
30
0
42
0
0
VERTEX
8
A-STAIR
10
5025
20
3055
30
0
42
0
0
VERTEX
8
A-STAIR
10
2785
20
3055
30
0
42
0
0
SEQEND
8
A-STAIR
0
POLYLINE
8
A-FLOOR-0-A-STAIR
10
0
20
0
30
0
70
0
66
1
40
0
41
0
71
0
72
0
0
VERTEX
8
A-FLOOR-0-A-STAIR
10
2785
20
1750
30
0
42
0
0
VERTEX
8
A-FLOOR-0-A-STAIR
10
5025
20
1750
30
0
42
0
0
VERTEX
8
A-FLOOR-0-A-STAIR
10
5025
20
3055
30
0
42
0
0
VERTEX
8
A-FLOOR-0-A-STAIR
10
2785
20
3055
30
0
42
0
0
SEQEND
8
A-FLOOR-0-A-STAIR
0
LINE
8
A-STAIR-TREAD
10
3065
20
1750
30
0
11
3065
21
3055
31
0
0
LINE
8
A-FLOOR-0-A-STAIR-TREAD
10
3065
20
1750
30
0
11
3065
21
3055
31
0
0
LINE
8
A-STAIR-TREAD
10
3345
20
1750
30
0
11
3345
21
3055
31
0
0
LINE
8
A-FLOOR-0-A-STAIR-TREAD
10
3345
20
1750
30
0
11
3345
21
3055
31
0
0
LINE
8
A-STAIR-TREAD
10
3625
20
1750
30
0
11
3625
21
3055
31
0
0
LINE
8
A-FLOOR-0-A-STAIR-TREAD
10
3625
20
1750
30
0
11
3625
21
3055
31
0
0
LINE
8
A-STAIR-TREAD
10
3905
20
1750
30
0
11
3905
21
3055
31
0
0
LINE
8
A-FLOOR-0-A-STAIR-TREAD
10
3905
20
1750
30
0
11
3905
21
3055
31
0
0
LINE
8
A-STAIR-TREAD
10
4185
20
1750
30
0
11
4185
21
3055
31
0
0
LINE
8
A-FLOOR-0-A-STAIR-TREAD
10
4185
20
1750
30
0
11
4185
21
3055
31
0
0
LINE
8
A-STAIR-TREAD
10
4465
20
1750
30
0
11
4465
21
3055
31
0
0
LINE
8
A-FLOOR-0-A-STAIR-TREAD
10
4465
20
1750
30
0
11
4465
21
3055
31
0
0
LINE
8
A-STAIR-TREAD
10
4745
20
1750
30
0
11
4745
21
3055
31
0
0
LINE
8
A-FLOOR-0-A-STAIR-TREAD
10
4745
20
1750
30
0
11
4745
21
3055
31
0
0
LINE
8
A-STAIR-DIR
10
3555
20
2402.5
30
0
11
4255
21
2402.5
31
0
0
LINE
8
A-FLOOR-0-A-STAIR-DIR
10
3555
20
2402.5
30
0
11
4255
21
2402.5
31
0
0
LINE
8
A-STAIR-DIR
10
4255
20
2402.5
30
0
11
4135
21
2322.5
31
0
0
LINE
8
A-FLOOR-0-A-STAIR-DIR
10
4255
20
2402.5
30
0
11
4135
21
2322.5
31
0
0
LINE
8
A-STAIR-DIR
10
4255
20
2402.5
30
0
11
4135
21
2482.5
31
0
0
LINE
8
A-FLOOR-0-A-STAIR-DIR
10
4255
20
2402.5
30
0
11
4135
21
2482.5
31
0
0
POLYLINE
8
A-STAIR
10
0
20
0
30
0
70
0
66
1
40
0
41
0
71
0
72
0
0
VERTEX
8
A-STAIR
10
2785
20
3255
30
0
42
0
0
VERTEX
8
A-STAIR
10
5025
20
3255
30
0
42
0
0
VERTEX
8
A-STAIR
10
5025
20
4560
30
0
42
0
0
VERTEX
8
A-STAIR
10
2785
20
4560
30
0
42
0
0
SEQEND
8
A-STAIR
0
POLYLINE
8
A-FLOOR-0-A-STAIR
10
0
20
0
30
0
70
0
66
1
40
0
41
0
71
0
72
0
0
VERTEX
8
A-FLOOR-0-A-STAIR
10
2785
20
3255
30
0
42
0
0
VERTEX
8
A-FLOOR-0-A-STAIR
10
5025
20
3255
30
0
42
0
0
VERTEX
8
A-FLOOR-0-A-STAIR
10
5025
20
4560
30
0
42
0
0
VERTEX
8
A-FLOOR-0-A-STAIR
10
2785
20
4560
30
0
42
0
0
SEQEND
8
A-FLOOR-0-A-STAIR
0
LINE
8
A-STAIR-TREAD
10
4745
20
3255
30
0
11
4745
21
4560
31
0
0
LINE
8
A-FLOOR-0-A-STAIR-TREAD
10
4745
20
3255
30
0
11
4745
21
4560
31
0
0
LINE
8
A-STAIR-TREAD
10
4465
20
3255
30
0
11
4465
21
4560
31
0
0
LINE
8
A-FLOOR-0-A-STAIR-TREAD
10
4465
20
3255
30
0
11
4465
21
4560
31
0
0
LINE
8
A-STAIR-TREAD
10
4185
20
3255
30
0
11
4185
21
4560
31
0
0
LINE
8
A-FLOOR-0-A-STAIR-TREAD
10
4185
20
3255
30
0
11
4185
21
4560
31
0
0
LINE
8
A-STAIR-TREAD
10
3905
20
3255
30
0
11
3905
21
4560
31
0
0
LINE
8
A-FLOOR-0-A-STAIR-TREAD
10
3905
20
3255
30
0
11
3905
21
4560
31
0
0
LINE
8
A-STAIR-TREAD
10
3625
20
3255
30
0
11
3625
21
4560
31
0
0
LINE
8
A-FLOOR-0-A-STAIR-TREAD
10
3625
20
3255
30
0
11
3625
21
4560
31
0
0
LINE
8
A-STAIR-TREAD
10
3345
20
3255
30
0
11
3345
21
4560
31
0
0
LINE
8
A-FLOOR-0-A-STAIR-TREAD
10
3345
20
3255
30
0
11
3345
21
4560
31
0
0
LINE
8
A-STAIR-TREAD
10
3065
20
3255
30
0
11
3065
21
4560
31
0
0
LINE
8
A-FLOOR-0-A-STAIR-TREAD
10
3065
20
3255
30
0
11
3065
21
4560
31
0
0
LINE
8
A-STAIR-DIR
10
4255
20
3907.5
30
0
11
3555
21
3907.5
31
0
0
LINE
8
A-FLOOR-0-A-STAIR-DIR
10
4255
20
3907.5
30
0
11
3555
21
3907.5
31
0
0
LINE
8
A-STAIR-DIR
10
3555
20
3907.5
30
0
11
3675
21
3827.5
31
0
0
LINE
8
A-FLOOR-0-A-STAIR-DIR
10
3555
20
3907.5
30
0
11
3675
21
3827.5
31
0
0
LINE
8
A-STAIR-DIR
10
3555
20
3907.5
30
0
11
3675
21
3987.5
31
0
0
LINE
8
A-FLOOR-0-A-STAIR-DIR
10
3555
20
3907.5
30
0
11
3675
21
3987.5
31
0
0
TEXT
8
A-STAIR-DIR
10
2535
20
2352.5
30
0
40
180
1
UP
50
0
72
0
11
2535
21
2352.5
31
0
0
TEXT
8
A-FLOOR-0-A-STAIR-DIR
10
2535
20
2352.5
30
0
40
180
1
UP
50
0
72
0
11
2535
21
2352.5
31
0
0
TEXT
8
A-TEXT
10
2885
20
4410
30
0
40
123.48
1
2F . 18R @ 18x28 . F0?F1 u-stair ent.east
50
0
72
0
11
2885
21
4410
31
0
0
TEXT
8
A-FLOOR-0-A-TEXT
10
2885
20
4410
30
0
40
123.48
1
2F . 18R @ 18x28 . F0?F1 u-stair ent.east
50
0
72
0
11
2885
21
4410
31
0
0
LINE
8
A-PARKING
10
11800
20
1750
30
0
11
14000
21
1750
31
0
0
LINE
8
A-FLOOR-0-A-PARKING
10
11800
20
1750
30
0
11
14000
21
1750
31
0
0
LINE
8
A-PARKING
10
14000
20
1750
30
0
11
14000
21
7750
31
0
0
LINE
8
A-FLOOR-0-A-PARKING
10
14000
20
1750
30
0
11
14000
21
7750
31
0
0
LINE
8
A-PARKING
10
14000
20
7750
30
0
11
11800
21
7750
31
0
0
LINE
8
A-FLOOR-0-A-PARKING
10
14000
20
7750
30
0
11
11800
21
7750
31
0
0
LINE
8
A-PARKING
10
11800
20
7750
30
0
11
11800
21
1750
31
0
0
LINE
8
A-FLOOR-0-A-PARKING
10
11800
20
7750
30
0
11
11800
21
1750
31
0
0
TEXT
8
A-PARKING
10
12900
20
4550
30
0
40
250
1
P1 F0
50
0
72
1
11
12900
21
4550
31
0
0
TEXT
8
A-FLOOR-0-A-PARKING
10
12900
20
4550
30
0
40
250
1
P1 F0
50
0
72
1
11
12900
21
4550
31
0
0
POLYLINE
8
A-PARKING
10
0
20
0
30
0
70
1
66
1
40
0
41
0
71
0
72
0
0
VERTEX
8
A-PARKING
10
14000
20
1750
30
0
42
0
0
VERTEX
8
A-PARKING
10
17500
20
1750
30
0
42
0
0
VERTEX
8
A-PARKING
10
17500
20
7750
30
0
42
0
0
VERTEX
8
A-PARKING
10
14000
20
7750
30
0
42
0
0
SEQEND
8
A-PARKING
0
POLYLINE
8
A-FLOOR-0-A-PARKING
10
0
20
0
30
0
70
1
66
1
40
0
41
0
71
0
72
0
0
VERTEX
8
A-FLOOR-0-A-PARKING
10
14000
20
1750
30
0
42
0
0
VERTEX
8
A-FLOOR-0-A-PARKING
10
17500
20
1750
30
0
42
0
0
VERTEX
8
A-FLOOR-0-A-PARKING
10
17500
20
7750
30
0
42
0
0
VERTEX
8
A-FLOOR-0-A-PARKING
10
14000
20
7750
30
0
42
0
0
SEQEND
8
A-FLOOR-0-A-PARKING
0
TEXT
8
A-PARKING
10
15750
20
4750
30
0
40
250
1
AISLE
50
0
72
1
11
15750
21
4750
31
0
0
TEXT
8
A-FLOOR-0-A-PARKING
10
15750
20
4750
30
0
40
250
1
AISLE
50
0
72
1
11
15750
21
4750
31
0
0
LINE
8
A-FURN
10
9150
20
20200
30
0
11
11750
21
20200
31
0
0
LINE
8
A-FLOOR-0-A-FURN
10
9150
20
20200
30
0
11
11750
21
20200
31
0
0
LINE
8
A-FURN
10
11750
20
20200
30
0
11
11750
21
22000
31
0
0
LINE
8
A-FLOOR-0-A-FURN
10
11750
20
20200
30
0
11
11750
21
22000
31
0
0
LINE
8
A-FURN
10
11750
20
22000
30
0
11
9150
21
22000
31
0
0
LINE
8
A-FLOOR-0-A-FURN
10
11750
20
22000
30
0
11
9150
21
22000
31
0
0
LINE
8
A-FURN
10
9150
20
22000
30
0
11
9150
21
20200
31
0
0
LINE
8
A-FLOOR-0-A-FURN
10
9150
20
22000
30
0
11
9150
21
20200
31
0
0
LINE
8
A-FURN
10
8865
20
12300
30
0
11
11065
21
12300
31
0
0
LINE
8
A-FLOOR-0-A-FURN
10
8865
20
12300
30
0
11
11065
21
12300
31
0
0
LINE
8
A-FURN
10
11065
20
12300
30
0
11
11065
21
13200
31
0
0
LINE
8
A-FLOOR-0-A-FURN
10
11065
20
12300
30
0
11
11065
21
13200
31
0
0
LINE
8
A-FURN
10
11065
20
13200
30
0
11
8865
21
13200
31
0
0
LINE
8
A-FLOOR-0-A-FURN
10
11065
20
13200
30
0
11
8865
21
13200
31
0
0
LINE
8
A-FURN
10
8865
20
13200
30
0
11
8865
21
12300
31
0
0
LINE
8
A-FLOOR-0-A-FURN
10
8865
20
13200
30
0
11
8865
21
12300
31
0
0
LINE
8
A-FURN
10
10000
20
16050
30
0
11
11200
21
16050
31
0
0
LINE
8
A-FLOOR-0-A-FURN
10
10000
20
16050
30
0
11
11200
21
16050
31
0
0
LINE
8
A-FURN
10
11200
20
16050
30
0
11
11200
21
16850
31
0
0
LINE
8
A-FLOOR-0-A-FURN
10
11200
20
16050
30
0
11
11200
21
16850
31
0
0
LINE
8
A-FURN
10
11200
20
16850
30
0
11
10000
21
16850
31
0
0
LINE
8
A-FLOOR-0-A-FURN
10
11200
20
16850
30
0
11
10000
21
16850
31
0
0
LINE
8
A-FURN
10
10000
20
16850
30
0
11
10000
21
16050
31
0
0
LINE
8
A-FLOOR-0-A-FURN
10
10000
20
16850
30
0
11
10000
21
16050
31
0
0
LINE
8
A-SANITARY
10
8850
20
18900
30
0
11
9350
21
18900
31
0
0
LINE
8
A-FLOOR-0-A-SANITARY
10
8850
20
18900
30
0
11
9350
21
18900
31
0
0
LINE
8
A-SANITARY
10
9350
20
18900
30
0
11
9350
21
19600
31
0
0
LINE
8
A-FLOOR-0-A-SANITARY
10
9350
20
18900
30
0
11
9350
21
19600
31
0
0
LINE
8
A-SANITARY
10
9350
20
19600
30
0
11
8850
21
19600
31
0
0
LINE
8
A-FLOOR-0-A-SANITARY
10
9350
20
19600
30
0
11
8850
21
19600
31
0
0
LINE
8
A-SANITARY
10
8850
20
19600
30
0
11
8850
21
18900
31
0
0
LINE
8
A-FLOOR-0-A-SANITARY
10
8850
20
19600
30
0
11
8850
21
18900
31
0
0
LINE
8
A-SANITARY
10
8180
20
19100
30
0
11
8780
21
19100
31
0
0
LINE
8
A-FLOOR-0-A-SANITARY
10
8180
20
19100
30
0
11
8780
21
19100
31
0
0
LINE
8
A-SANITARY
10
8780
20
19100
30
0
11
8780
21
19600
31
0
0
LINE
8
A-FLOOR-0-A-SANITARY
10
8780
20
19100
30
0
11
8780
21
19600
31
0
0
LINE
8
A-SANITARY
10
8780
20
19600
30
0
11
8180
21
19600
31
0
0
LINE
8
A-FLOOR-0-A-SANITARY
10
8780
20
19600
30
0
11
8180
21
19600
31
0
0
LINE
8
A-SANITARY
10
8180
20
19600
30
0
11
8180
21
19100
31
0
0
LINE
8
A-FLOOR-0-A-SANITARY
10
8180
20
19600
30
0
11
8180
21
19100
31
0
0
POLYLINE
8
A-ROOM
10
0
20
0
30
0
70
1
66
1
40
0
41
0
71
0
72
0
0
VERTEX
8
A-ROOM
10
10330
20
1750
30
0
42
0
0
VERTEX
8
A-ROOM
10
11800
20
1750
30
0
42
0
0
VERTEX
8
A-ROOM
10
11800
20
3650
30
0
42
0
0
VERTEX
8
A-ROOM
10
10330
20
3650
30
0
42
0
0
SEQEND
8
A-ROOM
0
POLYLINE
8
A-FLOOR-0-A-ROOM
10
0
20
0
30
0
70
1
66
1
40
0
41
0
71
0
72
0
0
VERTEX
8
A-FLOOR-0-A-ROOM
10
10330
20
1750
30
0
42
0
0
VERTEX
8
A-FLOOR-0-A-ROOM
10
11800
20
1750
30
0
42
0
0
VERTEX
8
A-FLOOR-0-A-ROOM
10
11800
20
3650
30
0
42
0
0
VERTEX
8
A-FLOOR-0-A-ROOM
10
10330
20
3650
30
0
42
0
0
SEQEND
8
A-FLOOR-0-A-ROOM
0
POLYLINE
8
A-ROOM
10
0
20
0
30
0
70
1
66
1
40
0
41
0
71
0
72
0
0
VERTEX
8
A-ROOM
10
8130
20
1750
30
0
42
0
0
VERTEX
8
A-ROOM
10
10330
20
1750
30
0
42
0
0
VERTEX
8
A-ROOM
10
10330
20
3650
30
0
42
0
0
VERTEX
8
A-ROOM
10
8130
20
3650
30
0
42
0
0
SEQEND
8
A-ROOM
0
POLYLINE
8
A-FLOOR-0-A-ROOM
10
0
20
0
30
0
70
1
66
1
40
0
41
0
71
0
72
0
0
VERTEX
8
A-FLOOR-0-A-ROOM
10
8130
20
1750
30
0
42
0
0
VERTEX
8
A-FLOOR-0-A-ROOM
10
10330
20
1750
30
0
42
0
0
VERTEX
8
A-FLOOR-0-A-ROOM
10
10330
20
3650
30
0
42
0
0
VERTEX
8
A-FLOOR-0-A-ROOM
10
8130
20
3650
30
0
42
0
0
SEQEND
8
A-FLOOR-0-A-ROOM
0
POLYLINE
8
A-ROOM
10
0
20
0
30
0
70
1
66
1
40
0
41
0
71
0
72
0
0
VERTEX
8
A-ROOM
10
8130
20
19650
30
0
42
0
0
VERTEX
8
A-ROOM
10
11800
20
19650
30
0
42
0
0
VERTEX
8
A-ROOM
10
11800
20
22050
30
0
42
0
0
VERTEX
8
A-ROOM
10
8130
20
22050
30
0
42
0
0
SEQEND
8
A-ROOM
0
POLYLINE
8
A-FLOOR-0-A-ROOM
10
0
20
0
30
0
70
1
66
1
40
0
41
0
71
0
72
0
0
VERTEX
8
A-FLOOR-0-A-ROOM
10
8130
20
19650
30
0
42
0
0
VERTEX
8
A-FLOOR-0-A-ROOM
10
11800
20
19650
30
0
42
0
0
VERTEX
8
A-FLOOR-0-A-ROOM
10
11800
20
22050
30
0
42
0
0
VERTEX
8
A-FLOOR-0-A-ROOM
10
8130
20
22050
30
0
42
0
0
SEQEND
8
A-FLOOR-0-A-ROOM
0
POLYLINE
8
A-ROOM
10
0
20
0
30
0
70
1
66
1
40
0
41
0
71
0
72
0
0
VERTEX
8
A-ROOM
10
2600
20
1750
30
0
42
0
0
VERTEX
8
A-ROOM
10
6630
20
1750
30
0
42
0
0
VERTEX
8
A-ROOM
10
6630
20
4650
30
0
42
0
0
VERTEX
8
A-ROOM
10
2600
20
4650
30
0
42
0
0
SEQEND
8
A-ROOM
0
POLYLINE
8
A-FLOOR-0-A-ROOM
10
0
20
0
30
0
70
1
66
1
40
0
41
0
71
0
72
0
0
VERTEX
8
A-FLOOR-0-A-ROOM
10
2600
20
1750
30
0
42
0
0
VERTEX
8
A-FLOOR-0-A-ROOM
10
6630
20
1750
30
0
42
0
0
VERTEX
8
A-FLOOR-0-A-ROOM
10
6630
20
4650
30
0
42
0
0
VERTEX
8
A-FLOOR-0-A-ROOM
10
2600
20
4650
30
0
42
0
0
SEQEND
8
A-FLOOR-0-A-ROOM
0
POLYLINE
8
A-ROOM
10
0
20
0
30
0
70
1
66
1
40
0
41
0
71
0
72
0
0
VERTEX
8
A-ROOM
10
8130
20
3650
30
0
42
0
0
VERTEX
8
A-ROOM
10
11800
20
3650
30
0
42
0
0
VERTEX
8
A-ROOM
10
11800
20
13250
30
0
42
0
0
VERTEX
8
A-ROOM
10
8130
20
13250
30
0
42
0
0
SEQEND
8
A-ROOM
0
POLYLINE
8
A-FLOOR-0-A-ROOM
10
0
20
0
30
0
70
1
66
1
40
0
41
0
71
0
72
0
0
VERTEX
8
A-FLOOR-0-A-ROOM
10
8130
20
3650
30
0
42
0
0
VERTEX
8
A-FLOOR-0-A-ROOM
10
11800
20
3650
30
0
42
0
0
VERTEX
8
A-FLOOR-0-A-ROOM
10
11800
20
13250
30
0
42
0
0
VERTEX
8
A-FLOOR-0-A-ROOM
10
8130
20
13250
30
0
42
0
0
SEQEND
8
A-FLOOR-0-A-ROOM
0
POLYLINE
8
A-ROOM
10
0
20
0
30
0
70
1
66
1
40
0
41
0
71
0
72
0
0
VERTEX
8
A-ROOM
10
9400
20
13250
30
0
42
0
0
VERTEX
8
A-ROOM
10
11800
20
13250
30
0
42
0
0
VERTEX
8
A-ROOM
10
11800
20
19650
30
0
42
0
0
VERTEX
8
A-ROOM
10
9400
20
19650
30
0
42
0
0
SEQEND
8
A-ROOM
0
POLYLINE
8
A-FLOOR-0-A-ROOM
10
0
20
0
30
0
70
1
66
1
40
0
41
0
71
0
72
0
0
VERTEX
8
A-FLOOR-0-A-ROOM
10
9400
20
13250
30
0
42
0
0
VERTEX
8
A-FLOOR-0-A-ROOM
10
11800
20
13250
30
0
42
0
0
VERTEX
8
A-FLOOR-0-A-ROOM
10
11800
20
19650
30
0
42
0
0
VERTEX
8
A-FLOOR-0-A-ROOM
10
9400
20
19650
30
0
42
0
0
SEQEND
8
A-FLOOR-0-A-ROOM
0
POLYLINE
8
A-ROOM
10
0
20
0
30
0
70
1
66
1
40
0
41
0
71
0
72
0
0
VERTEX
8
A-ROOM
10
8130
20
13250
30
0
42
0
0
VERTEX
8
A-ROOM
10
9400
20
13250
30
0
42
0
0
VERTEX
8
A-ROOM
10
9400
20
19650
30
0
42
0
0
VERTEX
8
A-ROOM
10
8130
20
19650
30
0
42
0
0
SEQEND
8
A-ROOM
0
POLYLINE
8
A-FLOOR-0-A-ROOM
10
0
20
0
30
0
70
1
66
1
40
0
41
0
71
0
72
0
0
VERTEX
8
A-FLOOR-0-A-ROOM
10
8130
20
13250
30
0
42
0
0
VERTEX
8
A-FLOOR-0-A-ROOM
10
9400
20
13250
30
0
42
0
0
VERTEX
8
A-FLOOR-0-A-ROOM
10
9400
20
19650
30
0
42
0
0
VERTEX
8
A-FLOOR-0-A-ROOM
10
8130
20
19650
30
0
42
0
0
SEQEND
8
A-FLOOR-0-A-ROOM
0
POLYLINE
8
A-ROOM
10
0
20
0
30
0
70
1
66
1
40
0
41
0
71
0
72
0
0
VERTEX
8
A-ROOM
10
6630
20
1750
30
0
42
0
0
VERTEX
8
A-ROOM
10
8130
20
1750
30
0
42
0
0
VERTEX
8
A-ROOM
10
8130
20
22050
30
0
42
0
0
VERTEX
8
A-ROOM
10
6630
20
22050
30
0
42
0
0
SEQEND
8
A-ROOM
0
POLYLINE
8
A-FLOOR-0-A-ROOM
10
0
20
0
30
0
70
1
66
1
40
0
41
0
71
0
72
0
0
VERTEX
8
A-FLOOR-0-A-ROOM
10
6630
20
1750
30
0
42
0
0
VERTEX
8
A-FLOOR-0-A-ROOM
10
8130
20
1750
30
0
42
0
0
VERTEX
8
A-FLOOR-0-A-ROOM
10
8130
20
22050
30
0
42
0
0
VERTEX
8
A-FLOOR-0-A-ROOM
10
6630
20
22050
30
0
42
0
0
SEQEND
8
A-FLOOR-0-A-ROOM
0
TEXT
8
A-ROOM
10
11170.65
20
2698.76
30
0
40
170.94
1
Entrance . F0
50
90
72
1
11
11170.65
21
2698.76
31
0
0
TEXT
8
A-FLOOR-0-A-ROOM
10
11170.65
20
2698.76
30
0
40
170.94
1
Entrance . F0
50
90
72
1
11
11170.65
21
2698.76
31
0
0
TEXT
8
A-ROOM
10
10958.68
20
2698.76
30
0
40
119.66
1
2.8 m2
50
90
72
1
11
10958.68
21
2698.76
31
0
0
TEXT
8
A-FLOOR-0-A-ROOM
10
10958.68
20
2698.76
30
0
40
119.66
1
2.8 m2
50
90
72
1
11
10958.68
21
2698.76
31
0
0
TEXT
8
A-ROOM
10
9230
20
2863.02
30
0
40
263.89
1
Foyer . F0
50
0
72
1
11
9230
21
2863.02
31
0
0
TEXT
8
A-FLOOR-0-A-ROOM
10
9230
20
2863.02
30
0
40
263.89
1
Foyer . F0
50
0
72
1
11
9230
21
2863.02
31
0
0
TEXT
8
A-ROOM
10
9230
20
2535.79
30
0
40
184.72
1
4.2 m2
50
0
72
1
11
9230
21
2535.79
31
0
0
TEXT
8
A-FLOOR-0-A-ROOM
10
9230
20
2535.79
30
0
40
184.72
1
4.2 m2
50
0
72
1
11
9230
21
2535.79
31
0
0
TEXT
8
A-ROOM
10
9965
20
21067
30
0
40
350
1
Kitchen . F0
50
0
72
1
11
9965
21
21067
31
0
0
TEXT
8
A-FLOOR-0-A-ROOM
10
9965
20
21067
30
0
40
350
1
Kitchen . F0
50
0
72
1
11
9965
21
21067
31
0
0
TEXT
8
A-ROOM
10
9965
20
20633
30
0
40
245
1
8.8 m2
50
0
72
1
11
9965
21
20633
31
0
0
TEXT
8
A-FLOOR-0-A-ROOM
10
9965
20
20633
30
0
40
245
1
8.8 m2
50
0
72
1
11
9965
21
20633
31
0
0
TEXT
8
A-ROOM
10
4607.13
20
3415.42
30
0
40
345.37
1
Stair Hall . F0
50
0
72
1
11
4607.13
21
3415.42
31
0
0
TEXT
8
A-FLOOR-0-A-ROOM
10
4607.13
20
3415.42
30
0
40
345.37
1
Stair Hall . F0
50
0
72
1
11
4607.13
21
3415.42
31
0
0
TEXT
8
A-ROOM
10
4607.13
20
2987.16
30
0
40
241.76
1
11.7 m2
50
0
72
1
11
4607.13
21
2987.16
31
0
0
TEXT
8
A-FLOOR-0-A-ROOM
10
4607.13
20
2987.16
30
0
40
241.76
1
11.7 m2
50
0
72
1
11
4607.13
21
2987.16
31
0
0
TEXT
8
A-ROOM
10
10184.36
20
8443.75
30
0
40
350
1
Living Room . F0
50
90
72
1
11
10184.36
21
8443.75
31
0
0
TEXT
8
A-FLOOR-0-A-ROOM
10
10184.36
20
8443.75
30
0
40
350
1
Living Room . F0
50
90
72
1
11
10184.36
21
8443.75
31
0
0
TEXT
8
A-ROOM
10
9750.36
20
8443.75
30
0
40
245
1
35.2 m2
50
90
72
1
11
9750.36
21
8443.75
31
0
0
TEXT
8
A-FLOOR-0-A-ROOM
10
9750.36
20
8443.75
30
0
40
245
1
35.2 m2
50
90
72
1
11
9750.36
21
8443.75
31
0
0
TEXT
8
A-ROOM
10
10817
20
16445.83
30
0
40
350
1
Dining . F0
50
90
72
1
11
10817
21
16445.83
31
0
0
TEXT
8
A-FLOOR-0-A-ROOM
10
10817
20
16445.83
30
0
40
350
1
Dining . F0
50
90
72
1
11
10817
21
16445.83
31
0
0
TEXT
8
A-ROOM
10
10383
20
16445.83
30
0
40
245
1
15.4 m2
50
90
72
1
11
10383
21
16445.83
31
0
0
TEXT
8
A-FLOOR-0-A-ROOM
10
10383
20
16445.83
30
0
40
245
1
15.4 m2
50
90
72
1
11
10383
21
16445.83
31
0
0
TEXT
8
A-ROOM
10
8984
20
16450
30
0
40
350
1
Guest WC . F0
50
90
72
1
11
8984
21
16450
31
0
0
TEXT
8
A-FLOOR-0-A-ROOM
10
8984
20
16450
30
0
40
350
1
Guest WC . F0
50
90
72
1
11
8984
21
16450
31
0
0
TEXT
8
A-ROOM
10
8550
20
16450
30
0
40
245
1
8.1 m2
50
90
72
1
11
8550
21
16450
31
0
0
TEXT
8
A-FLOOR-0-A-ROOM
10
8550
20
16450
30
0
40
245
1
8.1 m2
50
90
72
1
11
8550
21
16450
31
0
0
TEXT
8
A-ROOM
10
7597
20
11900
30
0
40
350
1
Corridor . F0
50
90
72
1
11
7597
21
11900
31
0
0
TEXT
8
A-FLOOR-0-A-ROOM
10
7597
20
11900
30
0
40
350
1
Corridor . F0
50
90
72
1
11
7597
21
11900
31
0
0
TEXT
8
A-ROOM
10
7163
20
11900
30
0
40
245
1
30.5 m2
50
90
72
1
11
7163
21
11900
31
0
0
TEXT
8
A-FLOOR-0-A-ROOM
10
7163
20
11900
30
0
40
245
1
30.5 m2
50
90
72
1
11
7163
21
11900
31
0
0
LINE
8
A-GRID
10
2600
20
1250
30
0
11
2600
21
22550
31
0
0
LINE
8
A-AXIS
10
9300
20
1250
30
0
11
9300
21
22550
31
0
0
LINE
8
A-GRID
10
16000
20
1250
30
0
11
16000
21
22550
31
0
0
LINE
8
A-GRID
10
2100
20
1750
30
0
11
16500
21
1750
31
0
0
LINE
8
A-AXIS
10
2100
20
11900
30
0
11
16500
21
11900
31
0
0
LINE
8
A-GRID
10
2100
20
22050
30
0
11
16500
21
22050
31
0
0
TEXT
8
A-AXIS-TEXT
10
1900
20
22350
30
0
40
250
1
A
50
0
72
1
11
1900
21
22350
31
0
0
TEXT
8
A-AXIS-TEXT
10
9300
20
22350
30
0
40
250
1
B
50
0
72
1
11
9300
21
22350
31
0
0
TEXT
8
A-AXIS-TEXT
10
16300
20
22350
30
0
40
250
1
C
50
0
72
0
11
16300
21
22350
31
0
0
TEXT
8
A-AXIS-TEXT
10
1900
20
1050
30
0
40
250
1
1
50
0
72
2
11
1900
21
1050
31
0
0
TEXT
8
A-AXIS-TEXT
10
1900
20
11900
30
0
40
250
1
2
50
0
72
2
11
1900
21
11900
31
0
0
LINE
8
A-DIMS
10
2600
20
1650
30
0
11
2600
21
600
31
0
0
LINE
8
A-FLOOR-0-A-DIMS
10
2600
20
1650
30
0
11
2600
21
600
31
0
0
LINE
8
A-DIMS
10
16000
20
1650
30
0
11
16000
21
600
31
0
0
LINE
8
A-FLOOR-0-A-DIMS
10
16000
20
1650
30
0
11
16000
21
600
31
0
0
LINE
8
A-DIMS
10
2600
20
750
30
0
11
16000
21
750
31
0
0
LINE
8
A-FLOOR-0-A-DIMS
10
2600
20
750
30
0
11
16000
21
750
31
0
0
LINE
8
A-DIMS
10
2550
20
700
30
0
11
2650
21
800
31
0
0
LINE
8
A-FLOOR-0-A-DIMS
10
2550
20
700
30
0
11
2650
21
800
31
0
0
LINE
8
A-DIMS
10
15950
20
700
30
0
11
16050
21
800
31
0
0
LINE
8
A-FLOOR-0-A-DIMS
10
15950
20
700
30
0
11
16050
21
800
31
0
0
TEXT
8
A-DIMS
10
9300
20
430
30
0
40
200
1
13.40 m F0
50
0
72
1
11
9300
21
430
31
0
0
TEXT
8
A-FLOOR-0-A-DIMS
10
9300
20
430
30
0
40
200
1
13.40 m F0
50
0
72
1
11
9300
21
430
31
0
0
LINE
8
A-DIMS
10
2500
20
1750
30
0
11
1450
21
1750
31
0
0
LINE
8
A-FLOOR-0-A-DIMS
10
2500
20
1750
30
0
11
1450
21
1750
31
0
0
LINE
8
A-DIMS
10
2500
20
22050
30
0
11
1450
21
22050
31
0
0
LINE
8
A-FLOOR-0-A-DIMS
10
2500
20
22050
30
0
11
1450
21
22050
31
0
0
LINE
8
A-DIMS
10
1600
20
1750
30
0
11
1600
21
22050
31
0
0
LINE
8
A-FLOOR-0-A-DIMS
10
1600
20
1750
30
0
11
1600
21
22050
31
0
0
LINE
8
A-DIMS
10
1650
20
1700
30
0
11
1550
21
1800
31
0
0
LINE
8
A-FLOOR-0-A-DIMS
10
1650
20
1700
30
0
11
1550
21
1800
31
0
0
LINE
8
A-DIMS
10
1650
20
22000
30
0
11
1550
21
22100
31
0
0
LINE
8
A-FLOOR-0-A-DIMS
10
1650
20
22000
30
0
11
1550
21
22100
31
0
0
TEXT
8
A-DIMS
10
1300
20
11900
30
0
40
200
1
20.30 m
50
0
72
2
11
1300
21
11900
31
0
0
TEXT
8
A-FLOOR-0-A-DIMS
10
1300
20
11900
30
0
40
200
1
20.30 m
50
0
72
2
11
1300
21
11900
31
0
0
LINE
8
A-DIMS
10
2600
20
1570
30
0
11
6630
21
1570
31
0
0
LINE
8
A-FLOOR-0-A-DIMS
10
2600
20
1570
30
0
11
6630
21
1570
31
0
0
LINE
8
A-DIMS
10
2550
20
1520
30
0
11
2650
21
1620
31
0
0
LINE
8
A-FLOOR-0-A-DIMS
10
2550
20
1520
30
0
11
2650
21
1620
31
0
0
LINE
8
A-DIMS
10
6580
20
1520
30
0
11
6680
21
1620
31
0
0
LINE
8
A-FLOOR-0-A-DIMS
10
6580
20
1520
30
0
11
6680
21
1620
31
0
0
TEXT
8
A-DIMS
10
4615
20
1410
30
0
40
120
1
4.03 m
50
0
72
1
11
4615
21
1410
31
0
0
TEXT
8
A-FLOOR-0-A-DIMS
10
4615
20
1410
30
0
40
120
1
4.03 m
50
0
72
1
11
4615
21
1410
31
0
0
LINE
8
A-DIMS
10
2420
20
1750
30
0
11
2420
21
4650
31
0
0
LINE
8
A-FLOOR-0-A-DIMS
10
2420
20
1750
30
0
11
2420
21
4650
31
0
0
LINE
8
A-DIMS
10
2470
20
1700
30
0
11
2370
21
1800
31
0
0
LINE
8
A-FLOOR-0-A-DIMS
10
2470
20
1700
30
0
11
2370
21
1800
31
0
0
LINE
8
A-DIMS
10
2470
20
4600
30
0
11
2370
21
4700
31
0
0
LINE
8
A-FLOOR-0-A-DIMS
10
2470
20
4600
30
0
11
2370
21
4700
31
0
0
TEXT
8
A-DIMS
10
2220
20
3200
30
0
40
120
1
2.90 m
50
0
72
2
11
2220
21
3200
31
0
0
TEXT
8
A-FLOOR-0-A-DIMS
10
2220
20
3200
30
0
40
120
1
2.90 m
50
0
72
2
11
2220
21
3200
31
0
0
LINE
8
A-DIMS
10
0
20
-600
30
0
11
0
21
-2050
31
0
0
LINE
8
A-FLOOR-0-A-DIMS
10
0
20
-600
30
0
11
0
21
-2050
31
0
0
LINE
8
A-DIMS
10
17500
20
-600
30
0
11
17500
21
-2050
31
0
0
LINE
8
A-FLOOR-0-A-DIMS
10
17500
20
-600
30
0
11
17500
21
-2050
31
0
0
LINE
8
A-DIMS
10
0
20
-1900
30
0
11
17500
21
-1900
31
0
0
LINE
8
A-FLOOR-0-A-DIMS
10
0
20
-1900
30
0
11
17500
21
-1900
31
0
0
LINE
8
A-DIMS
10
-50
20
-1950
30
0
11
50
21
-1850
31
0
0
LINE
8
A-FLOOR-0-A-DIMS
10
-50
20
-1950
30
0
11
50
21
-1850
31
0
0
LINE
8
A-DIMS
10
17450
20
-1950
30
0
11
17550
21
-1850
31
0
0
LINE
8
A-FLOOR-0-A-DIMS
10
17450
20
-1950
30
0
11
17550
21
-1850
31
0
0
TEXT
8
A-DIMS
10
8750
20
-2240
30
0
40
220
1
SITE 17.50 m
50
0
72
1
11
8750
21
-2240
31
0
0
TEXT
8
A-FLOOR-0-A-DIMS
10
8750
20
-2240
30
0
40
220
1
SITE 17.50 m
50
0
72
1
11
8750
21
-2240
31
0
0
LINE
8
A-DIMS
10
-600
20
0
30
0
11
-2500
21
0
31
0
0
LINE
8
A-FLOOR-0-A-DIMS
10
-600
20
0
30
0
11
-2500
21
0
31
0
0
LINE
8
A-DIMS
10
-600
20
24300
30
0
11
-2500
21
24300
31
0
0
LINE
8
A-FLOOR-0-A-DIMS
10
-600
20
24300
30
0
11
-2500
21
24300
31
0
0
LINE
8
A-DIMS
10
-1900
20
0
30
0
11
-1900
21
24300
31
0
0
LINE
8
A-FLOOR-0-A-DIMS
10
-1900
20
0
30
0
11
-1900
21
24300
31
0
0
LINE
8
A-DIMS
10
-1850
20
-50
30
0
11
-1950
21
50
31
0
0
LINE
8
A-FLOOR-0-A-DIMS
10
-1850
20
-50
30
0
11
-1950
21
50
31
0
0
LINE
8
A-DIMS
10
-1850
20
24250
30
0
11
-1950
21
24350
31
0
0
LINE
8
A-FLOOR-0-A-DIMS
10
-1850
20
24250
30
0
11
-1950
21
24350
31
0
0
TEXT
8
A-DIMS
10
-2240
20
12150
30
0
40
220
1
SITE 24.30 m
50
0
72
2
11
-2240
21
12150
31
0
0
TEXT
8
A-FLOOR-0-A-DIMS
10
-2240
20
12150
30
0
40
220
1
SITE 24.30 m
50
0
72
2
11
-2240
21
12150
31
0
0
LINE
8
A-NORTH
10
14800
20
21750
30
0
11
14800
21
22550
31
0
0
LINE
8
A-NORTH
10
14800
20
22550
30
0
11
14650
21
22250
31
0
0
LINE
8
A-NORTH
10
14800
20
22550
30
0
11
14950
21
22250
31
0
0
LINE
8
A-NORTH
10
14960
20
21750
30
0
11
14954.55
21
21791.41
31
0
0
LINE
8
A-NORTH
10
14954.55
20
21791.41
30
0
11
14938.56
21
21830
31
0
0
LINE
8
A-NORTH
10
14938.56
20
21830
30
0
11
14913.14
21
21863.14
31
0
0
LINE
8
A-NORTH
10
14913.14
20
21863.14
30
0
11
14880
21
21888.56
31
0
0
LINE
8
A-NORTH
10
14880
20
21888.56
30
0
11
14841.41
21
21904.55
31
0
0
LINE
8
A-NORTH
10
14841.41
20
21904.55
30
0
11
14800
21
21910
31
0
0
LINE
8
A-NORTH
10
14800
20
21910
30
0
11
14758.59
21
21904.55
31
0
0
LINE
8
A-NORTH
10
14758.59
20
21904.55
30
0
11
14720
21
21888.56
31
0
0
LINE
8
A-NORTH
10
14720
20
21888.56
30
0
11
14686.86
21
21863.14
31
0
0
LINE
8
A-NORTH
10
14686.86
20
21863.14
30
0
11
14661.44
21
21830
31
0
0
LINE
8
A-NORTH
10
14661.44
20
21830
30
0
11
14645.45
21
21791.41
31
0
0
LINE
8
A-NORTH
10
14645.45
20
21791.41
30
0
11
14640
21
21750
31
0
0
LINE
8
A-NORTH
10
14640
20
21750
30
0
11
14645.45
21
21708.59
31
0
0
LINE
8
A-NORTH
10
14645.45
20
21708.59
30
0
11
14661.44
21
21670
31
0
0
LINE
8
A-NORTH
10
14661.44
20
21670
30
0
11
14686.86
21
21636.86
31
0
0
LINE
8
A-NORTH
10
14686.86
20
21636.86
30
0
11
14720
21
21611.44
31
0
0
LINE
8
A-NORTH
10
14720
20
21611.44
30
0
11
14758.59
21
21595.45
31
0
0
LINE
8
A-NORTH
10
14758.59
20
21595.45
30
0
11
14800
21
21590
31
0
0
LINE
8
A-NORTH
10
14800
20
21590
30
0
11
14841.41
21
21595.45
31
0
0
LINE
8
A-NORTH
10
14841.41
20
21595.45
30
0
11
14880
21
21611.44
31
0
0
LINE
8
A-NORTH
10
14880
20
21611.44
30
0
11
14913.14
21
21636.86
31
0
0
LINE
8
A-NORTH
10
14913.14
20
21636.86
30
0
11
14938.56
21
21670
31
0
0
LINE
8
A-NORTH
10
14938.56
20
21670
30
0
11
14954.55
21
21708.59
31
0
0
LINE
8
A-NORTH
10
14954.55
20
21708.59
30
0
11
14960
21
21750
31
0
0
TEXT
8
A-NORTH
10
14800
20
22750
30
0
40
250
1
N
50
0
72
1
11
14800
21
22750
31
0
0
POLYLINE
8
A-FLOOR-1-A-BLDG-OUT
10
0
20
0
30
0
70
1
66
1
40
0
41
0
71
0
72
0
0
VERTEX
8
A-FLOOR-1-A-BLDG-OUT
10
2600
20
26050
30
0
42
0
0
VERTEX
8
A-FLOOR-1-A-BLDG-OUT
10
16000
20
26050
30
0
42
0
0
VERTEX
8
A-FLOOR-1-A-BLDG-OUT
10
16000
20
46350
30
0
42
0
0
VERTEX
8
A-FLOOR-1-A-BLDG-OUT
10
2600
20
46350
30
0
42
0
0
SEQEND
8
A-FLOOR-1-A-BLDG-OUT
0
POLYLINE
8
A-FLOOR-1-A-SETBACK
10
0
20
0
30
0
70
1
66
1
40
0
41
0
71
0
72
0
0
VERTEX
8
A-FLOOR-1-A-SETBACK
10
2600
20
26050
30
0
42
0
0
VERTEX
8
A-FLOOR-1-A-SETBACK
10
16000
20
26050
30
0
42
0
0
VERTEX
8
A-FLOOR-1-A-SETBACK
10
16000
20
46350
30
0
42
0
0
VERTEX
8
A-FLOOR-1-A-SETBACK
10
2600
20
46350
30
0
42
0
0
SEQEND
8
A-FLOOR-1-A-SETBACK
0
POLYLINE
8
A-FLOOR-1-A-SITE
10
0
20
0
30
0
70
1
66
1
40
0
41
0
71
0
72
0
0
VERTEX
8
A-FLOOR-1-A-SITE
10
0
20
24300
30
0
42
0
0
VERTEX
8
A-FLOOR-1-A-SITE
10
17500
20
24300
30
0
42
0
0
VERTEX
8
A-FLOOR-1-A-SITE
10
17500
20
48600
30
0
42
0
0
VERTEX
8
A-FLOOR-1-A-SITE
10
0
20
48600
30
0
42
0
0
SEQEND
8
A-FLOOR-1-A-SITE
0
TEXT
8
A-FLOOR-1-A-TEXT
10
2600
20
43945
30
0
40
300
1
FLOOR 1 - ELEV 3.20 m
50
0
72
0
11
2600
21
43945
31
0
0
LINE
8
A-FLOOR-1-A-WALL-EXT
10
2600
20
29125
30
0
11
3740
21
29125
31
0
0
LINE
8
A-FLOOR-1-A-WALL-EXT
10
2600
20
28775
30
0
11
3740
21
28775
31
0
0
LINE
8
A-FLOOR-1-A-WALL-EXT
10
2600
20
29125
30
0
11
2600
21
28775
31
0
0
LINE
8
A-FLOOR-1-A-WALL-EXT
10
3740
20
29125
30
0
11
3740
21
28775
31
0
0
LINE
8
A-FLOOR-1-A-WALL-CORE
10
3740
20
29050
30
0
11
6630
21
29050
31
0
0
LINE
8
A-FLOOR-1-A-WALL-CORE
10
3740
20
28850
30
0
11
6630
21
28850
31
0
0
LINE
8
A-FLOOR-1-A-WALL-CORE
10
3740
20
29050
30
0
11
3740
21
28850
31
0
0
LINE
8
A-FLOOR-1-A-WALL-CORE
10
6630
20
29050
30
0
11
6630
21
28850
31
0
0
LINE
8
A-FLOOR-1-A-WALL-CORE
10
6530
20
26050
30
0
11
6530
21
27050
31
0
0
LINE
8
A-FLOOR-1-A-WALL-CORE
10
6730
20
26050
30
0
11
6730
21
27050
31
0
0
LINE
8
A-FLOOR-1-A-WALL-CORE
10
6530
20
26050
30
0
11
6730
21
26050
31
0
0
LINE
8
A-FLOOR-1-A-WALL-CORE
10
6530
20
27950
30
0
11
6530
21
28950
31
0
0
LINE
8
A-FLOOR-1-A-WALL-CORE
10
6730
20
27950
30
0
11
6730
21
28950
31
0
0
LINE
8
A-FLOOR-1-A-WALL-CORE
10
6530
20
28950
30
0
11
6730
21
28950
31
0
0
LINE
8
A-FLOOR-1-A-WALL-CORE
10
6530
20
27050
30
0
11
6730
21
27050
31
0
0
LINE
8
A-FLOOR-1-A-WALL-CORE
10
6530
20
27950
30
0
11
6730
21
27950
31
0
0
LINE
8
A-FLOOR-1-A-WALL-SERVICE
10
6570
20
28950
30
0
11
6570
21
30065
31
0
0
LINE
8
A-FLOOR-1-A-WALL-SERVICE
10
6690
20
28950
30
0
11
6690
21
30065
31
0
0
LINE
8
A-FLOOR-1-A-WALL-SERVICE
10
6570
20
28950
30
0
11
6690
21
28950
31
0
0
LINE
8
A-FLOOR-1-A-WALL-SERVICE
10
6570
20
30865
30
0
11
6570
21
31980
31
0
0
LINE
8
A-FLOOR-1-A-WALL-SERVICE
10
6690
20
30865
30
0
11
6690
21
31980
31
0
0
LINE
8
A-FLOOR-1-A-WALL-SERVICE
10
6570
20
31980
30
0
11
6690
21
31980
31
0
0
LINE
8
A-FLOOR-1-A-WALL-SERVICE
10
6570
20
30065
30
0
11
6690
21
30065
31
0
0
LINE
8
A-FLOOR-1-A-WALL-SERVICE
10
6570
20
30865
30
0
11
6690
21
30865
31
0
0
LINE
8
A-FLOOR-1-A-WALL-INT
10
6555
20
31980
30
0
11
6555
21
34570
31
0
0
LINE
8
A-FLOOR-1-A-WALL-INT
10
6705
20
31980
30
0
11
6705
21
34570
31
0
0
LINE
8
A-FLOOR-1-A-WALL-INT
10
6555
20
31980
30
0
11
6705
21
31980
31
0
0
LINE
8
A-FLOOR-1-A-WALL-INT
10
6555
20
35470
30
0
11
6555
21
38060
31
0
0
LINE
8
A-FLOOR-1-A-WALL-INT
10
6705
20
35470
30
0
11
6705
21
38060
31
0
0
LINE
8
A-FLOOR-1-A-WALL-INT
10
6555
20
38060
30
0
11
6705
21
38060
31
0
0
LINE
8
A-FLOOR-1-A-WALL-INT
10
6555
20
34570
30
0
11
6705
21
34570
31
0
0
LINE
8
A-FLOOR-1-A-WALL-INT
10
6555
20
35470
30
0
11
6705
21
35470
31
0
0
LINE
8
A-FLOOR-1-A-WALL-INT
10
6555
20
38060
30
0
11
6555
21
40215
31
0
0
LINE
8
A-FLOOR-1-A-WALL-INT
10
6705
20
38060
30
0
11
6705
21
40215
31
0
0
LINE
8
A-FLOOR-1-A-WALL-INT
10
6555
20
41115
30
0
11
6555
21
43270
31
0
0
LINE
8
A-FLOOR-1-A-WALL-INT
10
6705
20
41115
30
0
11
6705
21
43270
31
0
0
LINE
8
A-FLOOR-1-A-WALL-INT
10
6555
20
43270
30
0
11
6705
21
43270
31
0
0
LINE
8
A-FLOOR-1-A-WALL-INT
10
6555
20
40215
30
0
11
6705
21
40215
31
0
0
LINE
8
A-FLOOR-1-A-WALL-INT
10
6555
20
41115
30
0
11
6705
21
41115
31
0
0
LINE
8
A-FLOOR-1-A-WALL-EXT
10
2600
20
32155
30
0
11
3740
21
32155
31
0
0
LINE
8
A-FLOOR-1-A-WALL-EXT
10
2600
20
31805
30
0
11
3740
21
31805
31
0
0
LINE
8
A-FLOOR-1-A-WALL-EXT
10
2600
20
32155
30
0
11
2600
21
31805
31
0
0
LINE
8
A-FLOOR-1-A-WALL-EXT
10
3740
20
32155
30
0
11
3740
21
31805
31
0
0
LINE
8
A-FLOOR-1-A-WALL-SERVICE
10
3740
20
32040
30
0
11
6630
21
32040
31
0
0
LINE
8
A-FLOOR-1-A-WALL-SERVICE
10
3740
20
31920
30
0
11
6630
21
31920
31
0
0
LINE
8
A-FLOOR-1-A-WALL-SERVICE
10
3740
20
32040
30
0
11
3740
21
31920
31
0
0
LINE
8
A-FLOOR-1-A-WALL-SERVICE
10
6630
20
32040
30
0
11
6630
21
31920
31
0
0
LINE
8
A-FLOOR-1-A-WALL-EXT
10
3565
20
28950
30
0
11
3565
21
29965
31
0
0
LINE
8
A-FLOOR-1-A-WALL-EXT
10
3915
20
28950
30
0
11
3915
21
29965
31
0
0
LINE
8
A-FLOOR-1-A-WALL-EXT
10
3565
20
28950
30
0
11
3915
21
28950
31
0
0
LINE
8
A-FLOOR-1-A-WALL-EXT
10
3565
20
30965
30
0
11
3565
21
31980
31
0
0
LINE
8
A-FLOOR-1-A-WALL-EXT
10
3915
20
30965
30
0
11
3915
21
31980
31
0
0
LINE
8
A-FLOOR-1-A-WALL-EXT
10
3565
20
31980
30
0
11
3915
21
31980
31
0
0
LINE
8
A-FLOOR-1-A-WALL-EXT
10
3565
20
29965
30
0
11
3915
21
29965
31
0
0
LINE
8
A-FLOOR-1-A-WALL-EXT
10
3565
20
30965
30
0
11
3915
21
30965
31
0
0
LINE
8
A-FLOOR-1-A-WALL-INT
10
2600
20
38135
30
0
11
6630
21
38135
31
0
0
LINE
8
A-FLOOR-1-A-WALL-INT
10
2600
20
37985
30
0
11
6630
21
37985
31
0
0
LINE
8
A-FLOOR-1-A-WALL-INT
10
2600
20
38135
30
0
11
2600
21
37985
31
0
0
LINE
8
A-FLOOR-1-A-WALL-INT
10
6630
20
38135
30
0
11
6630
21
37985
31
0
0
LINE
8
A-FLOOR-1-A-WALL-EXT
10
2425
20
26050
30
0
11
2425
21
28950
31
0
0
LINE
8
A-FLOOR-1-A-WALL-EXT
10
2775
20
26050
30
0
11
2775
21
28950
31
0
0
LINE
8
A-FLOOR-1-A-WALL-EXT
10
2425
20
26050
30
0
11
2775
21
26050
31
0
0
LINE
8
A-FLOOR-1-A-WALL-EXT
10
2425
20
28950
30
0
11
2775
21
28950
31
0
0
LINE
8
A-FLOOR-1-A-WALL-EXT
10
2425
20
31980
30
0
11
2425
21
33820
31
0
0
LINE
8
A-FLOOR-1-A-WALL-EXT
10
2775
20
31980
30
0
11
2775
21
33820
31
0
0
LINE
8
A-FLOOR-1-A-WALL-EXT
10
2425
20
31980
30
0
11
2775
21
31980
31
0
0
LINE
8
A-FLOOR-1-A-WALL-EXT
10
2425
20
36220
30
0
11
2425
21
38060
31
0
0
LINE
8
A-FLOOR-1-A-WALL-EXT
10
2775
20
36220
30
0
11
2775
21
38060
31
0
0
LINE
8
A-FLOOR-1-A-WALL-EXT
10
2425
20
38060
30
0
11
2775
21
38060
31
0
0
LINE
8
A-FLOOR-1-A-WALL-EXT
10
2425
20
33820
30
0
11
2775
21
33820
31
0
0
LINE
8
A-FLOOR-1-A-WALL-EXT
10
2425
20
36220
30
0
11
2775
21
36220
31
0
0
LINE
8
A-FLOOR-1-A-WALL-EXT
10
2425
20
38060
30
0
11
2425
21
39665
31
0
0
LINE
8
A-FLOOR-1-A-WALL-EXT
10
2775
20
38060
30
0
11
2775
21
39665
31
0
0
LINE
8
A-FLOOR-1-A-WALL-EXT
10
2425
20
41665
30
0
11
2425
21
43270
31
0
0
LINE
8
A-FLOOR-1-A-WALL-EXT
10
2775
20
41665
30
0
11
2775
21
43270
31
0
0
LINE
8
A-FLOOR-1-A-WALL-EXT
10
2425
20
43270
30
0
11
2775
21
43270
31
0
0
LINE
8
A-FLOOR-1-A-WALL-EXT
10
2425
20
39665
30
0
11
2775
21
39665
31
0
0
LINE
8
A-FLOOR-1-A-WALL-EXT
10
2425
20
41665
30
0
11
2775
21
41665
31
0
0
LINE
8
A-FLOOR-1-A-WALL-EXT
10
2600
20
43445
30
0
11
6630
21
43445
31
0
0
LINE
8
A-FLOOR-1-A-WALL-EXT
10
2600
20
43095
30
0
11
6630
21
43095
31
0
0
LINE
8
A-FLOOR-1-A-WALL-EXT
10
2600
20
43445
30
0
11
2600
21
43095
31
0
0
LINE
8
A-FLOOR-1-A-WALL-EXT
10
6630
20
43445
30
0
11
6630
21
43095
31
0
0
LINE
8
A-FLOOR-1-A-WALL-EXT
10
6630
20
43445
30
0
11
8130
21
43445
31
0
0
LINE
8
A-FLOOR-1-A-WALL-EXT
10
6630
20
43095
30
0
11
8130
21
43095
31
0
0
LINE
8
A-FLOOR-1-A-WALL-EXT
10
8130
20
43445
30
0
11
8130
21
43095
31
0
0
LINE
8
A-FLOOR-1-A-WALL-EXT
10
2600
20
26225
30
0
11
6630
21
26225
31
0
0
LINE
8
A-FLOOR-1-A-WALL-EXT
10
2600
20
25875
30
0
11
6630
21
25875
31
0
0
LINE
8
A-FLOOR-1-A-WALL-EXT
10
2600
20
26225
30
0
11
2600
21
25875
31
0
0
LINE
8
A-FLOOR-1-A-WALL-EXT
10
6630
20
26225
30
0
11
6630
21
25875
31
0
0
LINE
8
A-FLOOR-1-A-WALL-EXT
10
6630
20
26225
30
0
11
8130
21
26225
31
0
0
LINE
8
A-FLOOR-1-A-WALL-EXT
10
6630
20
25875
30
0
11
8130
21
25875
31
0
0
LINE
8
A-FLOOR-1-A-WALL-EXT
10
8130
20
26225
30
0
11
8130
21
25875
31
0
0
LINE
8
A-FLOOR-1-A-WALL-EXT
10
7955
20
26050
30
0
11
7955
21
43270
31
0
0
LINE
8
A-FLOOR-1-A-WALL-EXT
10
8305
20
26050
30
0
11
8305
21
43270
31
0
0
LINE
8
A-FLOOR-1-A-WALL-EXT
10
7955
20
26050
30
0
11
8305
21
26050
31
0
0
LINE
8
A-FLOOR-1-A-WALL-EXT
10
7955
20
43270
30
0
11
8305
21
43270
31
0
0
LINE
8
A-FLOOR-1-A-DOOR
10
6630
20
27050
30
0
11
6630
21
27950
31
0
0
ARC
8
A-FLOOR-1-A-DOOR
10
6630
20
27050
30
0
40
900
50
90
51
180
0
LINE
8
A-FLOOR-1-A-DOOR
10
5730
20
27050
30
0
11
5730
21
27010
31
0
0
LINE
8
A-FLOOR-1-A-DOOR
10
6630
20
41115
30
0
11
6630
21
40215
31
0
0
ARC
8
A-FLOOR-1-A-DOOR
10
6630
20
41115
30
0
40
900
50
180
51
270
0
LINE
8
A-FLOOR-1-A-DOOR
10
5730
20
41115
30
0
11
5730
21
41075
31
0
0
LINE
8
A-FLOOR-1-A-DOOR
10
6630
20
30865
30
0
11
6630
21
30065
31
0
0
ARC
8
A-FLOOR-1-A-DOOR
10
6630
20
30865
30
0
40
800
50
180
51
270
0
LINE
8
A-FLOOR-1-A-DOOR
10
5830
20
30865
30
0
11
5830
21
30825
31
0
0
LINE
8
A-FLOOR-1-A-DOOR
10
6630
20
34570
30
0
11
6630
21
35470
31
0
0
ARC
8
A-FLOOR-1-A-DOOR
10
6630
20
34570
30
0
40
900
50
90
51
180
0
LINE
8
A-FLOOR-1-A-DOOR
10
5730
20
34570
30
0
11
5730
21
34530
31
0
0
LINE
8
A-FLOOR-1-A-WINDOW
10
3800
20
29965
30
0
11
3800
21
30965
31
0
0
LINE
8
A-FLOOR-1-A-WINDOW
10
3760
20
29965
30
0
11
3760
21
30965
31
0
0
LINE
8
A-FLOOR-1-A-WINDOW
10
3720
20
29965
30
0
11
3720
21
30965
31
0
0
LINE
8
A-FLOOR-1-A-WINDOW
10
3680
20
29965
30
0
11
3680
21
30965
31
0
0
LINE
8
A-FLOOR-1-A-DIMS
10
3690
20
30965
30
0
11
3340
21
30965
31
0
0
LINE
8
A-FLOOR-1-A-DIMS
10
3690
20
29965
30
0
11
3340
21
29965
31
0
0
LINE
8
A-FLOOR-1-A-DIMS
10
3420
20
30965
30
0
11
3420
21
29965
31
0
0
LINE
8
A-FLOOR-1-A-DIMS
10
3470
20
30915
30
0
11
3370
21
31015
31
0
0
LINE
8
A-FLOOR-1-A-DIMS
10
3470
20
29915
30
0
11
3370
21
30015
31
0
0
LINE
8
A-FLOOR-1-A-WINDOW
10
2660
20
33820
30
0
11
2660
21
36220
31
0
0
LINE
8
A-FLOOR-1-A-WINDOW
10
2620
20
33820
30
0
11
2620
21
36220
31
0
0
LINE
8
A-FLOOR-1-A-WINDOW
10
2580
20
33820
30
0
11
2580
21
36220
31
0
0
LINE
8
A-FLOOR-1-A-WINDOW
10
2540
20
33820
30
0
11
2540
21
36220
31
0
0
LINE
8
A-FLOOR-1-A-DIMS
10
2550
20
36220
30
0
11
2200
21
36220
31
0
0
LINE
8
A-FLOOR-1-A-DIMS
10
2550
20
33820
30
0
11
2200
21
33820
31
0
0
LINE
8
A-FLOOR-1-A-DIMS
10
2280
20
36220
30
0
11
2280
21
33820
31
0
0
LINE
8
A-FLOOR-1-A-DIMS
10
2330
20
36170
30
0
11
2230
21
36270
31
0
0
LINE
8
A-FLOOR-1-A-DIMS
10
2330
20
33770
30
0
11
2230
21
33870
31
0
0
LINE
8
A-FLOOR-1-A-WINDOW
10
2660
20
39665
30
0
11
2660
21
41665
31
0
0
LINE
8
A-FLOOR-1-A-WINDOW
10
2620
20
39665
30
0
11
2620
21
41665
31
0
0
LINE
8
A-FLOOR-1-A-WINDOW
10
2580
20
39665
30
0
11
2580
21
41665
31
0
0
LINE
8
A-FLOOR-1-A-WINDOW
10
2540
20
39665
30
0
11
2540
21
41665
31
0
0
LINE
8
A-FLOOR-1-A-DIMS
10
2550
20
41665
30
0
11
2200
21
41665
31
0
0
LINE
8
A-FLOOR-1-A-DIMS
10
2550
20
39665
30
0
11
2200
21
39665
31
0
0
LINE
8
A-FLOOR-1-A-DIMS
10
2280
20
41665
30
0
11
2280
21
39665
31
0
0
LINE
8
A-FLOOR-1-A-DIMS
10
2330
20
41615
30
0
11
2230
21
41715
31
0
0
LINE
8
A-FLOOR-1-A-DIMS
10
2330
20
39615
30
0
11
2230
21
39715
31
0
0
LINE
8
A-FLOOR-1-A-STAIR
10
2785
20
26050
30
0
11
6630
21
26050
31
0
0
LINE
8
A-FLOOR-1-A-STAIR
10
6630
20
26050
30
0
11
6630
21
28860
31
0
0
LINE
8
A-FLOOR-1-A-STAIR
10
6630
20
28860
30
0
11
2785
21
28860
31
0
0
LINE
8
A-FLOOR-1-A-STAIR
10
2785
20
28860
30
0
11
2785
21
26050
31
0
0
POLYLINE
8
A-FLOOR-1-A-STAIR
10
0
20
0
30
0
70
1
66
1
40
0
41
0
71
0
72
0
0
VERTEX
8
A-FLOOR-1-A-STAIR
10
5025
20
26050
30
0
42
0
0
VERTEX
8
A-FLOOR-1-A-STAIR
10
6630
20
26050
30
0
42
0
0
VERTEX
8
A-FLOOR-1-A-STAIR
10
6630
20
28860
30
0
42
0
0
VERTEX
8
A-FLOOR-1-A-STAIR
10
5025
20
28860
30
0
42
0
0
SEQEND
8
A-FLOOR-1-A-STAIR
0
TEXT
8
A-FLOOR-1-A-STAIR
10
5827.5
20
27455
30
0
40
180
1
LDNG 1.60
50
0
72
1
11
5827.5
21
27455
31
0
0
POLYLINE
8
A-FLOOR-1-A-STAIR
10
0
20
0
30
0
70
0
66
1
40
0
41
0
71
0
72
0
0
VERTEX
8
A-FLOOR-1-A-STAIR
10
2785
20
26050
30
0
42
0
0
VERTEX
8
A-FLOOR-1-A-STAIR
10
5025
20
26050
30
0
42
0
0
VERTEX
8
A-FLOOR-1-A-STAIR
10
5025
20
27355
30
0
42
0
0
VERTEX
8
A-FLOOR-1-A-STAIR
10
2785
20
27355
30
0
42
0
0
SEQEND
8
A-FLOOR-1-A-STAIR
0
LINE
8
A-FLOOR-1-A-STAIR-TREAD
10
3065
20
26050
30
0
11
3065
21
27355
31
0
0
LINE
8
A-FLOOR-1-A-STAIR-TREAD
10
3345
20
26050
30
0
11
3345
21
27355
31
0
0
LINE
8
A-FLOOR-1-A-STAIR-TREAD
10
3625
20
26050
30
0
11
3625
21
27355
31
0
0
LINE
8
A-FLOOR-1-A-STAIR-TREAD
10
3905
20
26050
30
0
11
3905
21
27355
31
0
0
LINE
8
A-FLOOR-1-A-STAIR-TREAD
10
4185
20
26050
30
0
11
4185
21
27355
31
0
0
LINE
8
A-FLOOR-1-A-STAIR-TREAD
10
4465
20
26050
30
0
11
4465
21
27355
31
0
0
LINE
8
A-FLOOR-1-A-STAIR-TREAD
10
4745
20
26050
30
0
11
4745
21
27355
31
0
0
LINE
8
A-FLOOR-1-A-STAIR-DIR
10
3555
20
26702.5
30
0
11
4255
21
26702.5
31
0
0
LINE
8
A-FLOOR-1-A-STAIR-DIR
10
4255
20
26702.5
30
0
11
4135
21
26622.5
31
0
0
LINE
8
A-FLOOR-1-A-STAIR-DIR
10
4255
20
26702.5
30
0
11
4135
21
26782.5
31
0
0
POLYLINE
8
A-FLOOR-1-A-STAIR
10
0
20
0
30
0
70
0
66
1
40
0
41
0
71
0
72
0
0
VERTEX
8
A-FLOOR-1-A-STAIR
10
2785
20
27555
30
0
42
0
0
VERTEX
8
A-FLOOR-1-A-STAIR
10
5025
20
27555
30
0
42
0
0
VERTEX
8
A-FLOOR-1-A-STAIR
10
5025
20
28860
30
0
42
0
0
VERTEX
8
A-FLOOR-1-A-STAIR
10
2785
20
28860
30
0
42
0
0
SEQEND
8
A-FLOOR-1-A-STAIR
0
LINE
8
A-FLOOR-1-A-STAIR-TREAD
10
4745
20
27555
30
0
11
4745
21
28860
31
0
0
LINE
8
A-FLOOR-1-A-STAIR-TREAD
10
4465
20
27555
30
0
11
4465
21
28860
31
0
0
LINE
8
A-FLOOR-1-A-STAIR-TREAD
10
4185
20
27555
30
0
11
4185
21
28860
31
0
0
LINE
8
A-FLOOR-1-A-STAIR-TREAD
10
3905
20
27555
30
0
11
3905
21
28860
31
0
0
LINE
8
A-FLOOR-1-A-STAIR-TREAD
10
3625
20
27555
30
0
11
3625
21
28860
31
0
0
LINE
8
A-FLOOR-1-A-STAIR-TREAD
10
3345
20
27555
30
0
11
3345
21
28860
31
0
0
LINE
8
A-FLOOR-1-A-STAIR-TREAD
10
3065
20
27555
30
0
11
3065
21
28860
31
0
0
LINE
8
A-FLOOR-1-A-STAIR-DIR
10
4255
20
28207.5
30
0
11
3555
21
28207.5
31
0
0
LINE
8
A-FLOOR-1-A-STAIR-DIR
10
3555
20
28207.5
30
0
11
3675
21
28127.5
31
0
0
LINE
8
A-FLOOR-1-A-STAIR-DIR
10
3555
20
28207.5
30
0
11
3675
21
28287.5
31
0
0
TEXT
8
A-FLOOR-1-A-STAIR-DIR
10
2535
20
26652.5
30
0
40
180
1
UP
50
0
72
0
11
2535
21
26652.5
31
0
0
TEXT
8
A-FLOOR-1-A-TEXT
10
2885
20
28710
30
0
40
123.48
1
2F . 18R @ 18x28 . F1?F2 u-stair ent.east
50
0
72
0
11
2885
21
28710
31
0
0
LINE
8
A-FLOOR-1-A-SANITARY
10
6080
20
31230
30
0
11
6580
21
31230
31
0
0
LINE
8
A-FLOOR-1-A-SANITARY
10
6580
20
31230
30
0
11
6580
21
31930
31
0
0
LINE
8
A-FLOOR-1-A-SANITARY
10
6580
20
31930
30
0
11
6080
21
31930
31
0
0
LINE
8
A-FLOOR-1-A-SANITARY
10
6080
20
31930
30
0
11
6080
21
31230
31
0
0
LINE
8
A-FLOOR-1-A-SANITARY
10
3790
20
31430
30
0
11
4390
21
31430
31
0
0
LINE
8
A-FLOOR-1-A-SANITARY
10
4390
20
31430
30
0
11
4390
21
31930
31
0
0
LINE
8
A-FLOOR-1-A-SANITARY
10
4390
20
31930
30
0
11
3790
21
31930
31
0
0
LINE
8
A-FLOOR-1-A-SANITARY
10
3790
20
31930
30
0
11
3790
21
31430
31
0
0
LINE
8
A-FLOOR-1-A-SANITARY
10
5680
20
29000
30
0
11
6580
21
29000
31
0
0
LINE
8
A-FLOOR-1-A-SANITARY
10
6580
20
29000
30
0
11
6580
21
29900
31
0
0
LINE
8
A-FLOOR-1-A-SANITARY
10
6580
20
29900
30
0
11
5680
21
29900
31
0
0
LINE
8
A-FLOOR-1-A-SANITARY
10
5680
20
29900
30
0
11
5680
21
29000
31
0
0
LINE
8
A-FLOOR-1-A-FURN
10
2650
20
32030
30
0
11
4450
21
32030
31
0
0
LINE
8
A-FLOOR-1-A-FURN
10
4450
20
32030
30
0
11
4450
21
34030
31
0
0
LINE
8
A-FLOOR-1-A-FURN
10
4450
20
34030
30
0
11
2650
21
34030
31
0
0
LINE
8
A-FLOOR-1-A-FURN
10
2650
20
34030
30
0
11
2650
21
32030
31
0
0
LINE
8
A-FLOOR-1-A-FURN
10
3715
20
37410
30
0
11
5515
21
37410
31
0
0
LINE
8
A-FLOOR-1-A-FURN
10
5515
20
37410
30
0
11
5515
21
38010
31
0
0
LINE
8
A-FLOOR-1-A-FURN
10
5515
20
38010
30
0
11
3715
21
38010
31
0
0
LINE
8
A-FLOOR-1-A-FURN
10
3715
20
38010
30
0
11
3715
21
37410
31
0
0
LINE
8
A-FLOOR-1-A-FURN
10
2650
20
38110
30
0
11
4250
21
38110
31
0
0
LINE
8
A-FLOOR-1-A-FURN
10
4250
20
38110
30
0
11
4250
21
40110
31
0
0
LINE
8
A-FLOOR-1-A-FURN
10
4250
20
40110
30
0
11
2650
21
40110
31
0
0
LINE
8
A-FLOOR-1-A-FURN
10
2650
20
40110
30
0
11
2650
21
38110
31
0
0
LINE
8
A-FLOOR-1-A-FURN
10
3715
20
42620
30
0
11
5515
21
42620
31
0
0
LINE
8
A-FLOOR-1-A-FURN
10
5515
20
42620
30
0
11
5515
21
43220
31
0
0
LINE
8
A-FLOOR-1-A-FURN
10
5515
20
43220
30
0
11
3715
21
43220
31
0
0
LINE
8
A-FLOOR-1-A-FURN
10
3715
20
43220
30
0
11
3715
21
42620
31
0
0
POLYLINE
8
A-FLOOR-1-A-ROOM
10
0
20
0
30
0
70
1
66
1
40
0
41
0
71
0
72
0
0
VERTEX
8
A-FLOOR-1-A-ROOM
10
3740
20
28950
30
0
42
0
0
VERTEX
8
A-FLOOR-1-A-ROOM
10
6630
20
28950
30
0
42
0
0
VERTEX
8
A-FLOOR-1-A-ROOM
10
6630
20
31980
30
0
42
0
0
VERTEX
8
A-FLOOR-1-A-ROOM
10
3740
20
31980
30
0
42
0
0
SEQEND
8
A-FLOOR-1-A-ROOM
0
POLYLINE
8
A-FLOOR-1-A-ROOM
10
0
20
0
30
0
70
1
66
1
40
0
41
0
71
0
72
0
0
VERTEX
8
A-FLOOR-1-A-ROOM
10
2600
20
31980
30
0
42
0
0
VERTEX
8
A-FLOOR-1-A-ROOM
10
6630
20
31980
30
0
42
0
0
VERTEX
8
A-FLOOR-1-A-ROOM
10
6630
20
38060
30
0
42
0
0
VERTEX
8
A-FLOOR-1-A-ROOM
10
2600
20
38060
30
0
42
0
0
SEQEND
8
A-FLOOR-1-A-ROOM
0
POLYLINE
8
A-FLOOR-1-A-ROOM
10
0
20
0
30
0
70
1
66
1
40
0
41
0
71
0
72
0
0
VERTEX
8
A-FLOOR-1-A-ROOM
10
2600
20
38060
30
0
42
0
0
VERTEX
8
A-FLOOR-1-A-ROOM
10
6630
20
38060
30
0
42
0
0
VERTEX
8
A-FLOOR-1-A-ROOM
10
6630
20
43270
30
0
42
0
0
VERTEX
8
A-FLOOR-1-A-ROOM
10
2600
20
43270
30
0
42
0
0
SEQEND
8
A-FLOOR-1-A-ROOM
0
POLYLINE
8
A-FLOOR-1-A-ROOM
10
0
20
0
30
0
70
1
66
1
40
0
41
0
71
0
72
0
0
VERTEX
8
A-FLOOR-1-A-ROOM
10
2600
20
26050
30
0
42
0
0
VERTEX
8
A-FLOOR-1-A-ROOM
10
6630
20
26050
30
0
42
0
0
VERTEX
8
A-FLOOR-1-A-ROOM
10
6630
20
28950
30
0
42
0
0
VERTEX
8
A-FLOOR-1-A-ROOM
10
2600
20
28950
30
0
42
0
0
SEQEND
8
A-FLOOR-1-A-ROOM
0
POLYLINE
8
A-FLOOR-1-A-ROOM
10
0
20
0
30
0
70
1
66
1
40
0
41
0
71
0
72
0
0
VERTEX
8
A-FLOOR-1-A-ROOM
10
6630
20
26050
30
0
42
0
0
VERTEX
8
A-FLOOR-1-A-ROOM
10
8130
20
26050
30
0
42
0
0
VERTEX
8
A-FLOOR-1-A-ROOM
10
8130
20
43270
30
0
42
0
0
VERTEX
8
A-FLOOR-1-A-ROOM
10
6630
20
43270
30
0
42
0
0
SEQEND
8
A-FLOOR-1-A-ROOM
0
TEXT
8
A-FLOOR-1-A-ROOM
10
5184.7
20
30576.51
30
0
40
179.86
1
Master Bathroom . F1
50
0
72
1
11
5184.7
21
30576.51
31
0
0
TEXT
8
A-FLOOR-1-A-ROOM
10
5184.7
20
30353.49
30
0
40
125.9
1
8.8 m2
50
0
72
1
11
5184.7
21
30353.49
31
0
0
TEXT
8
A-FLOOR-1-A-ROOM
10
4832
20
35020
30
0
40
350
1
Master Bedroom . F1
50
90
72
1
11
4832
21
35020
31
0
0
TEXT
8
A-FLOOR-1-A-ROOM
10
4398
20
35020
30
0
40
245
1
24.5 m2
50
90
72
1
11
4398
21
35020
31
0
0
TEXT
8
A-FLOOR-1-A-ROOM
10
4614.1
20
40878.61
30
0
40
350
1
Bedroom 1 . F1
50
0
72
1
11
4614.1
21
40878.61
31
0
0
TEXT
8
A-FLOOR-1-A-ROOM
10
4614.1
20
40444.61
30
0
40
245
1
21.0 m2
50
0
72
1
11
4614.1
21
40444.61
31
0
0
TEXT
8
A-FLOOR-1-A-ROOM
10
4607.13
20
27715.42
30
0
40
345.37
1
Stair Hall . F1
50
0
72
1
11
4607.13
21
27715.42
31
0
0
TEXT
8
A-FLOOR-1-A-ROOM
10
4607.13
20
27287.16
30
0
40
241.76
1
11.7 m2
50
0
72
1
11
4607.13
21
27287.16
31
0
0
TEXT
8
A-FLOOR-1-A-ROOM
10
7597
20
34660
30
0
40
350
1
Corridor . F1
50
90
72
1
11
7597
21
34660
31
0
0
TEXT
8
A-FLOOR-1-A-ROOM
10
7163
20
34660
30
0
40
245
1
25.8 m2
50
90
72
1
11
7163
21
34660
31
0
0
LINE
8
A-FLOOR-1-A-DIMS
10
2600
20
25950
30
0
11
2600
21
24900
31
0
0
LINE
8
A-FLOOR-1-A-DIMS
10
8305
20
25950
30
0
11
8305
21
24900
31
0
0
LINE
8
A-FLOOR-1-A-DIMS
10
2600
20
25050
30
0
11
8305
21
25050
31
0
0
LINE
8
A-FLOOR-1-A-DIMS
10
2550
20
25000
30
0
11
2650
21
25100
31
0
0
LINE
8
A-FLOOR-1-A-DIMS
10
8255
20
25000
30
0
11
8355
21
25100
31
0
0
TEXT
8
A-FLOOR-1-A-DIMS
10
5452.5
20
24730
30
0
40
200
1
5.71 m F1
50
0
72
1
11
5452.5
21
24730
31
0
0
LINE
8
A-FLOOR-1-A-DIMS
10
2500
20
26050
30
0
11
1450
21
26050
31
0
0
LINE
8
A-FLOOR-1-A-DIMS
10
2500
20
43445
30
0
11
1450
21
43445
31
0
0
LINE
8
A-FLOOR-1-A-DIMS
10
1600
20
26050
30
0
11
1600
21
43445
31
0
0
LINE
8
A-FLOOR-1-A-DIMS
10
1650
20
26000
30
0
11
1550
21
26100
31
0
0
LINE
8
A-FLOOR-1-A-DIMS
10
1650
20
43395
30
0
11
1550
21
43495
31
0
0
TEXT
8
A-FLOOR-1-A-DIMS
10
1300
20
34747.5
30
0
40
200
1
17.39 m
50
0
72
2
11
1300
21
34747.5
31
0
0
LINE
8
A-FLOOR-1-A-DIMS
10
3560
20
28950
30
0
11
3560
21
31980
31
0
0
LINE
8
A-FLOOR-1-A-DIMS
10
3610
20
28900
30
0
11
3510
21
29000
31
0
0
LINE
8
A-FLOOR-1-A-DIMS
10
3610
20
31930
30
0
11
3510
21
32030
31
0
0
TEXT
8
A-FLOOR-1-A-DIMS
10
3360
20
30465
30
0
40
120
1
3.03 m
50
0
72
2
11
3360
21
30465
31
0
0
LINE
8
A-FLOOR-1-A-DIMS
10
2420
20
31980
30
0
11
2420
21
38060
31
0
0
LINE
8
A-FLOOR-1-A-DIMS
10
2470
20
31930
30
0
11
2370
21
32030
31
0
0
LINE
8
A-FLOOR-1-A-DIMS
10
2470
20
38010
30
0
11
2370
21
38110
31
0
0
TEXT
8
A-FLOOR-1-A-DIMS
10
2220
20
35020
30
0
40
120
1
6.08 m
50
0
72
2
11
2220
21
35020
31
0
0
LINE
8
A-FLOOR-1-A-DIMS
10
2420
20
38060
30
0
11
2420
21
43270
31
0
0
LINE
8
A-FLOOR-1-A-DIMS
10
2470
20
43220
30
0
11
2370
21
43320
31
0
0
TEXT
8
A-FLOOR-1-A-DIMS
10
2220
20
40665
30
0
40
120
1
5.21 m
50
0
72
2
11
2220
21
40665
31
0
0
LINE
8
A-FLOOR-1-A-DIMS
10
2600
20
25870
30
0
11
6630
21
25870
31
0
0
LINE
8
A-FLOOR-1-A-DIMS
10
2550
20
25820
30
0
11
2650
21
25920
31
0
0
LINE
8
A-FLOOR-1-A-DIMS
10
6580
20
25820
30
0
11
6680
21
25920
31
0
0
TEXT
8
A-FLOOR-1-A-DIMS
10
4615
20
25710
30
0
40
120
1
4.03 m
50
0
72
1
11
4615
21
25710
31
0
0
LINE
8
A-FLOOR-1-A-DIMS
10
2420
20
26050
30
0
11
2420
21
28950
31
0
0
LINE
8
A-FLOOR-1-A-DIMS
10
2470
20
26000
30
0
11
2370
21
26100
31
0
0
LINE
8
A-FLOOR-1-A-DIMS
10
2470
20
28900
30
0
11
2370
21
29000
31
0
0
TEXT
8
A-FLOOR-1-A-DIMS
10
2220
20
27500
30
0
40
120
1
2.90 m
50
0
72
2
11
2220
21
27500
31
0
0
LINE
8
A-TITLE
10
1100
20
-4350
30
0
11
17500
21
-4350
31
0
0
LINE
8
A-TITLE
10
17500
20
-4350
30
0
11
17500
21
23550
31
0
0
LINE
8
A-TITLE
10
17500
20
23550
30
0
11
1100
21
23550
31
0
0
LINE
8
A-TITLE
10
1100
20
23550
30
0
11
1100
21
-4350
31
0
0
LINE
8
A-TITLE
10
6500
20
-4200
30
0
11
17350
21
-4200
31
0
0
LINE
8
A-TITLE
10
17350
20
-4200
30
0
11
17350
21
-1800
31
0
0
LINE
8
A-TITLE
10
17350
20
-1800
30
0
11
6500
21
-1800
31
0
0
LINE
8
A-TITLE
10
6500
20
-1800
30
0
11
6500
21
-4200
31
0
0
LINE
8
A-TITLE
10
6750
20
-2550
30
0
11
17100
21
-2550
31
0
0
TEXT
8
A-TITLE
10
6800
20
-2350
30
0
40
320
1
Golden decimal 2F
50
0
72
0
11
6800
21
-2350
31
0
0
TEXT
8
A-TITLE
10
6800
20
-2900
30
0
40
180
1
FLOOR PLANS - 2 FLOOR(S) | STRATEGY functional-circulation
50
0
72
0
11
6800
21
-2900
31
0
0
TEXT
8
A-TITLE
10
6800
20
-3300
30
0
40
160
1
UNITS: MILLIMETRES | MODEL SPACE 1:1 | PLOT SCALE 1:100 @ A1
50
0
72
0
11
6800
21
-3300
31
0
0
TEXT
8
A-TITLE
10
6800
20
-3700
30
0
40
160
1
NET FLOOR AREA (SUM OF ROOMS, ALL FLOORS): 208.4 m2 | SITE 17.5x24.3 m
50
0
72
0
11
6800
21
-3700
31
0
0
TEXT
8
A-TITLE
10
6800
20
-4080
30
0
40
140
1
ARCHGENIUS - AUTOMATED CAD DRAFT - PROFESSIONAL REVIEW REQUIRED
50
0
72
0
11
6800
21
-4080
31
0
0
TEXT
8
A-TITLE
10
2900
20
-3500
30
0
40
200
1
LEGEND
50
0
72
0
11
2900
21
-3500
31
0
0
LINE
8
A-WALL-EXT
10
2900
20
-3850
30
0
11
3700
21
-3850
31
0
0
LINE
8
A-FLOOR-0-A-WALL-EXT
10
2900
20
-3850
30
0
11
3700
21
-3850
31
0
0
TEXT
8
A-TITLE
10
3950
20
-3910
30
0
40
120
1
A-WALL-EXT - WALL, EXTERIOR
50
0
72
0
11
3950
21
-3910
31
0
0
LINE
8
A-WALL-INT
10
2900
20
-3590
30
0
11
3700
21
-3590
31
0
0
LINE
8
A-FLOOR-0-A-WALL-INT
10
2900
20
-3590
30
0
11
3700
21
-3590
31
0
0
TEXT
8
A-TITLE
10
3950
20
-3650
30
0
40
120
1
A-WALL-INT - WALL, INTERIOR
50
0
72
0
11
3950
21
-3650
31
0
0
LINE
8
A-WALL-CORE
10
2900
20
-3330
30
0
11
3700
21
-3330
31
0
0
LINE
8
A-FLOOR-0-A-WALL-CORE
10
2900
20
-3330
30
0
11
3700
21
-3330
31
0
0
TEXT
8
A-TITLE
10
3950
20
-3390
30
0
40
120
1
A-WALL-CORE - WALL, CORE
50
0
72
0
11
3950
21
-3390
31
0
0
LINE
8
A-DOOR
10
2900
20
-3070
30
0
11
3700
21
-3070
31
0
0
LINE
8
A-FLOOR-0-A-DOOR
10
2900
20
-3070
30
0
11
3700
21
-3070
31
0
0
TEXT
8
A-TITLE
10
3950
20
-3130
30
0
40
120
1
A-DOOR - DOOR + SWING
50
0
72
0
11
3950
21
-3130
31
0
0
LINE
8
A-WINDOW
10
2900
20
-2810
30
0
11
3700
21
-2810
31
0
0
LINE
8
A-FLOOR-0-A-WINDOW
10
2900
20
-2810
30
0
11
3700
21
-2810
31
0
0
TEXT
8
A-TITLE
10
3950
20
-2870
30
0
40
120
1
A-WINDOW - WINDOW
50
0
72
0
11
3950
21
-2870
31
0
0
LINE
8
A-STAIR
10
2900
20
-2550
30
0
11
3700
21
-2550
31
0
0
LINE
8
A-FLOOR-0-A-STAIR
10
2900
20
-2550
30
0
11
3700
21
-2550
31
0
0
TEXT
8
A-TITLE
10
3950
20
-2610
30
0
40
120
1
A-STAIR - STAIR / LANDING
50
0
72
0
11
3950
21
-2610
31
0
0
LINE
8
A-PARKING
10
2900
20
-2290
30
0
11
3700
21
-2290
31
0
0
LINE
8
A-FLOOR-0-A-PARKING
10
2900
20
-2290
30
0
11
3700
21
-2290
31
0
0
TEXT
8
A-TITLE
10
3950
20
-2350
30
0
40
120
1
A-PARKING - PARKING STALL
50
0
72
0
11
3950
21
-2350
31
0
0
LINE
8
A-DIMS
10
2900
20
-2030
30
0
11
3700
21
-2030
31
0
0
LINE
8
A-FLOOR-0-A-DIMS
10
2900
20
-2030
30
0
11
3700
21
-2030
31
0
0
TEXT
8
A-TITLE
10
3950
20
-2090
30
0
40
120
1
A-DIMS - DIMENSIONS (m)
50
0
72
0
11
3950
21
-2090
31
0
0
LINE
8
A-TEXT
10
2900
20
-1770
30
0
11
3700
21
-1770
31
0
0
LINE
8
A-FLOOR-0-A-TEXT
10
2900
20
-1770
30
0
11
3700
21
-1770
31
0
0
TEXT
8
A-TITLE
10
3950
20
-1830
30
0
40
120
1
A-TEXT - GENERAL NOTES
50
0
72
0
11
3950
21
-1830
31
0
0
LINE
8
A-SITE
10
2900
20
-1510
30
0
11
3700
21
-1510
31
0
0
LINE
8
A-FLOOR-0-A-SITE
10
2900
20
-1510
30
0
11
3700
21
-1510
31
0
0
TEXT
8
A-TITLE
10
3950
20
-1570
30
0
40
120
1
A-SITE - SITE BOUNDARY
50
0
72
0
11
3950
21
-1570
31
0
0
LINE
8
A-TITLE
10
2700
20
-4200
30
0
11
2700
21
-950
31
0
0
LINE
8
A-STAIR
10
4707.5
20
1750
30
0
11
4707.5
21
43445
31
0
0
TEXT
8
A-TEXT
10
4907.5
20
43645
30
0
40
250
1
STAIR STACK - 2 FLOORS - Whole-Building
50
0
72
0
11
4907.5
21
43645
31
0
0
ENDSEC
0
EOF
