0
SECTION
2
HEADER
9
$ACADVER
1
AC1009
0
ENDSEC
0
SECTION
2
TABLES
0
TABLE
2
LTYPE
70
3
0
LTYPE
2
CONTINUOUS
70
0
3
Solid line
72
65
73
0
40
0
0
LTYPE
2
CENTER
70
0
3
Center ____ _ ____ _ ____
72
65
73
0
40
0
0
LTYPE
2
DASHED
70
0
3
Dashed __ __ __ __
72
65
73
0
40
0
0
ENDTAB
0
TABLE
2
LAYER
70
65
0
LAYER
2
A-GRID
70
0
62
1
6
CENTER
0
LAYER
2
A-AXIS
70
0
62
1
6
CENTER
0
LAYER
2
A-AXIS-TEXT
70
0
62
1
6
CONTINUOUS
0
LAYER
2
A-WALL-EXT
70
0
62
7
6
CONTINUOUS
0
LAYER
2
A-WALL-INT
70
0
62
7
6
CONTINUOUS
0
LAYER
2
A-WALL-CORE
70
0
62
7
6
CONTINUOUS
0
LAYER
2
A-WALL-SERVICE
70
0
62
7
6
CONTINUOUS
0
LAYER
2
A-WALL-PART
70
0
62
7
6
CONTINUOUS
0
LAYER
2
A-COLUMN
70
0
62
7
6
CONTINUOUS
0
LAYER
2
A-DOOR
70
0
62
3
6
CONTINUOUS
0
LAYER
2
A-WINDOW
70
0
62
4
6
CONTINUOUS
0
LAYER
2
A-STAIR
70
0
62
6
6
CONTINUOUS
0
LAYER
2
A-STAIR-TREAD
70
0
62
8
6
CONTINUOUS
0
LAYER
2
A-STAIR-DIR
70
0
62
6
6
CONTINUOUS
0
LAYER
2
A-PARKING
70
0
62
8
6
CONTINUOUS
0
LAYER
2
A-SANITARY
70
0
62
3
6
CONTINUOUS
0
LAYER
2
A-FURN
70
0
62
8
6
CONTINUOUS
0
LAYER
2
A-ROOM
70
0
62
7
6
CONTINUOUS
0
LAYER
2
A-HATCH
70
0
62
8
6
CONTINUOUS
0
LAYER
2
A-DIMS
70
0
62
2
6
CONTINUOUS
0
LAYER
2
A-TEXT
70
0
62
7
6
CONTINUOUS
0
LAYER
2
A-NORTH
70
0
62
7
6
CONTINUOUS
0
LAYER
2
A-TITLE
70
0
62
7
6
CONTINUOUS
0
LAYER
2
A-BLDG-OUT
70
0
62
9
6
DASHED
0
LAYER
2
A-SITE
70
0
62
3
6
DASHED
0
LAYER
2
A-SETBACK
70
0
62
2
6
DASHED
0
LAYER
2
0
70
0
62
7
6
CONTINUOUS
0
LAYER
2
A-FLOOR-0-A-WALL-EXT
70
0
62
7
6
CONTINUOUS
0
LAYER
2
A-FLOOR-0-A-WALL-INT
70
0
62
7
6
CONTINUOUS
0
LAYER
2
A-FLOOR-0-A-WALL-CORE
70
0
62
7
6
CONTINUOUS
0
LAYER
2
A-FLOOR-0-A-WALL-SERVICE
70
0
62
7
6
CONTINUOUS
0
LAYER
2
A-FLOOR-0-A-WALL-PART
70
0
62
7
6
CONTINUOUS
0
LAYER
2
A-FLOOR-0-A-DOOR
70
0
62
3
6
CONTINUOUS
0
LAYER
2
A-FLOOR-0-A-WINDOW
70
0
62
4
6
CONTINUOUS
0
LAYER
2
A-FLOOR-0-A-STAIR
70
0
62
6
6
CONTINUOUS
0
LAYER
2
A-FLOOR-0-A-STAIR-TREAD
70
0
62
8
6
CONTINUOUS
0
LAYER
2
A-FLOOR-0-A-STAIR-DIR
70
0
62
6
6
CONTINUOUS
0
LAYER
2
A-FLOOR-0-A-ROOM
70
0
62
7
6
CONTINUOUS
0
LAYER
2
A-FLOOR-0-A-TEXT
70
0
62
7
6
CONTINUOUS
0
LAYER
2
A-FLOOR-0-A-FURN
70
0
62
8
6
CONTINUOUS
0
LAYER
2
A-FLOOR-0-A-SANITARY
70
0
62
3
6
CONTINUOUS
0
LAYER
2
A-FLOOR-0-A-DIMS
70
0
62
2
6
CONTINUOUS
0
LAYER
2
A-FLOOR-0-A-PARKING
70
0
62
8
6
CONTINUOUS
0
LAYER
2
A-FLOOR-0-A-BLDG-OUT
70
0
62
9
6
DASHED
0
LAYER
2
A-FLOOR-0-A-SITE
70
0
62
3
6
DASHED
0
LAYER
2
A-FLOOR-0-A-SETBACK
70
0
62
2
6
DASHED
0
LAYER
2
A-FLOOR-1-A-WALL-EXT
70
0
62
7
6
CONTINUOUS
0
LAYER
2
A-FLOOR-1-A-WALL-INT
70
0
62
7
6
CONTINUOUS
0
LAYER
2
A-FLOOR-1-A-WALL-CORE
70
0
62
7
6
CONTINUOUS
0
LAYER
2
A-FLOOR-1-A-WALL-SERVICE
70
0
62
7
6
CONTINUOUS
0
LAYER
2
A-FLOOR-1-A-WALL-PART
70
0
62
7
6
CONTINUOUS
0
LAYER
2
A-FLOOR-1-A-DOOR
70
0
62
3
6
CONTINUOUS
0
LAYER
2
A-FLOOR-1-A-WINDOW
70
0
62
4
6
CONTINUOUS
0
LAYER
2
A-FLOOR-1-A-STAIR
70
0
62
6
6
CONTINUOUS
0
LAYER
2
A-FLOOR-1-A-STAIR-TREAD
70
0
62
8
6
CONTINUOUS
0
LAYER
2
A-FLOOR-1-A-STAIR-DIR
70
0
62
6
6
CONTINUOUS
0
LAYER
2
A-FLOOR-1-A-ROOM
70
0
62
7
6
CONTINUOUS
0
LAYER
2
A-FLOOR-1-A-TEXT
70
0
62
7
6
CONTINUOUS
0
LAYER
2
A-FLOOR-1-A-FURN
70
0
62
8
6
CONTINUOUS
0
LAYER
2
A-FLOOR-1-A-SANITARY
70
0
62
3
6
CONTINUOUS
0
LAYER
2
A-FLOOR-1-A-DIMS
70
0
62
2
6
CONTINUOUS
0
LAYER
2
A-FLOOR-1-A-PARKING
70
0
62
8
6
CONTINUOUS
0
LAYER
2
A-FLOOR-1-A-BLDG-OUT
70
0
62
9
6
DASHED
0
LAYER
2
A-FLOOR-1-A-SITE
70
0
62
3
6
DASHED
0
LAYER
2
A-FLOOR-1-A-SETBACK
70
0
62
2
6
DASHED
0
ENDTAB
0
TABLE
2
STYLE
70
1
0
STYLE
2
STANDARD
70
0
40
0
41
1
50
0
71
0
42
0.2
3
txt
4

0
ENDTAB
0
ENDSEC
0
SECTION
2
BLOCKS
0
BLOCK
2
*Model_Space
70
0
10
0
20
0
30
0
0
ENDBLK
0
BLOCK
2
*Paper_Space
70
0
10
0
20
0
30
0
0
ENDBLK
0
ENDSEC
0
SECTION
2
ENTITIES
0
POLYLINE
8
A-BLDG-OUT
10
0
20
0
30
0
70
1
66
1
40
0
41
0
71
0
72
0
0
VERTEX
8
A-BLDG-OUT
10
2000
20
1500
30
0
42
0
0
VERTEX
8
A-BLDG-OUT
10
18000
20
1500
30
0
42
0
0
VERTEX
8
A-BLDG-OUT
10
18000
20
17000
30
0
42
0
0
VERTEX
8
A-BLDG-OUT
10
14000
20
17000
30
0
42
0
0
VERTEX
8
A-BLDG-OUT
10
14000
20
23000
30
0
42
0
0
VERTEX
8
A-BLDG-OUT
10
2000
20
23000
30
0
42
0
0
SEQEND
8
A-BLDG-OUT
0
POLYLINE
8
A-FLOOR-0-A-BLDG-OUT
10
0
20
0
30
0
70
1
66
1
40
0
41
0
71
0
72
0
0
VERTEX
8
A-FLOOR-0-A-BLDG-OUT
10
2000
20
1500
30
0
42
0
0
VERTEX
8
A-FLOOR-0-A-BLDG-OUT
10
18000
20
1500
30
0
42
0
0
VERTEX
8
A-FLOOR-0-A-BLDG-OUT
10
18000
20
17000
30
0
42
0
0
VERTEX
8
A-FLOOR-0-A-BLDG-OUT
10
14000
20
17000
30
0
42
0
0
VERTEX
8
A-FLOOR-0-A-BLDG-OUT
10
14000
20
23000
30
0
42
0
0
VERTEX
8
A-FLOOR-0-A-BLDG-OUT
10
2000
20
23000
30
0
42
0
0
SEQEND
8
A-FLOOR-0-A-BLDG-OUT
0
POLYLINE
8
A-SETBACK
10
0
20
0
30
0
70
1
66
1
40
0
41
0
71
0
72
0
0
VERTEX
8
A-SETBACK
10
2000
20
1500
30
0
42
0
0
VERTEX
8
A-SETBACK
10
18000
20
1500
30
0
42
0
0
VERTEX
8
A-SETBACK
10
18000
20
17000
30
0
42
0
0
VERTEX
8
A-SETBACK
10
14000
20
17000
30
0
42
0
0
VERTEX
8
A-SETBACK
10
14000
20
23000
30
0
42
0
0
VERTEX
8
A-SETBACK
10
2000
20
23000
30
0
42
0
0
SEQEND
8
A-SETBACK
0
POLYLINE
8
A-FLOOR-0-A-SETBACK
10
0
20
0
30
0
70
1
66
1
40
0
41
0
71
0
72
0
0
VERTEX
8
A-FLOOR-0-A-SETBACK
10
2000
20
1500
30
0
42
0
0
VERTEX
8
A-FLOOR-0-A-SETBACK
10
18000
20
1500
30
0
42
0
0
VERTEX
8
A-FLOOR-0-A-SETBACK
10
18000
20
17000
30
0
42
0
0
VERTEX
8
A-FLOOR-0-A-SETBACK
10
14000
20
17000
30
0
42
0
0
VERTEX
8
A-FLOOR-0-A-SETBACK
10
14000
20
23000
30
0
42
0
0
VERTEX
8
A-FLOOR-0-A-SETBACK
10
2000
20
23000
30
0
42
0
0
SEQEND
8
A-FLOOR-0-A-SETBACK
0
POLYLINE
8
A-SITE
10
0
20
0
30
0
70
1
66
1
40
0
41
0
71
0
72
0
0
VERTEX
8
A-SITE
10
0
20
0
30
0
42
0
0
VERTEX
8
A-SITE
10
20000
20
0
30
0
42
0
0
VERTEX
8
A-SITE
10
20000
20
20000
30
0
42
0
0
VERTEX
8
A-SITE
10
16000
20
20000
30
0
42
0
0
VERTEX
8
A-SITE
10
16000
20
26000
30
0
42
0
0
VERTEX
8
A-SITE
10
0
20
26000
30
0
42
0
0
SEQEND
8
A-SITE
0
POLYLINE
8
A-FLOOR-0-A-SITE
10
0
20
0
30
0
70
1
66
1
40
0
41
0
71
0
72
0
0
VERTEX
8
A-FLOOR-0-A-SITE
10
0
20
0
30
0
42
0
0
VERTEX
8
A-FLOOR-0-A-SITE
10
20000
20
0
30
0
42
0
0
VERTEX
8
A-FLOOR-0-A-SITE
10
20000
20
20000
30
0
42
0
0
VERTEX
8
A-FLOOR-0-A-SITE
10
16000
20
20000
30
0
42
0
0
VERTEX
8
A-FLOOR-0-A-SITE
10
16000
20
26000
30
0
42
0
0
VERTEX
8
A-FLOOR-0-A-SITE
10
0
20
26000
30
0
42
0
0
SEQEND
8
A-FLOOR-0-A-SITE
0
TEXT
8
A-SITE
10
650
20
-800
30
0
40
300
1
SITE l-shape 20.0x26.0m
50
0
72
0
11
650
21
-800
31
0
0
TEXT
8
A-SETBACK
10
650
20
-1200
30
0
40
200
1
Setbacks N=3 S=1.5 E=2 W=2
50
0
72
0
11
650
21
-1200
31
0
0
TEXT
8
A-TEXT
10
2000
20
17155
30
0
40
300
1
FLOOR 0 - ELEV 0.00 m
50
0
72
0
11
2000
21
17155
31
0
0
TEXT
8
A-FLOOR-0-A-TEXT
10
2000
20
17155
30
0
40
300
1
FLOOR 0 - ELEV 0.00 m
50
0
72
0
11
2000
21
17155
31
0
0
LINE
8
A-WALL-EXT
10
2000
20
5875
30
0
11
2340
21
5875
31
0
0
LINE
8
A-WALL-EXT
10
2000
20
5525
30
0
11
2340
21
5525
31
0
0
LINE
8
A-WALL-EXT
10
2000
20
5875
30
0
11
2000
21
5525
31
0
0
LINE
8
A-WALL-EXT
10
3340
20
5875
30
0
11
3680
21
5875
31
0
0
LINE
8
A-WALL-EXT
10
3340
20
5525
30
0
11
3680
21
5525
31
0
0
LINE
8
A-WALL-EXT
10
3680
20
5875
30
0
11
3680
21
5525
31
0
0
LINE
8
A-WALL-EXT
10
2340
20
5875
30
0
11
2340
21
5525
31
0
0
LINE
8
A-WALL-EXT
10
3340
20
5875
30
0
11
3340
21
5525
31
0
0
LINE
8
A-FLOOR-0-A-WALL-EXT
10
2000
20
5875
30
0
11
2340
21
5875
31
0
0
LINE
8
A-FLOOR-0-A-WALL-EXT
10
2000
20
5525
30
0
11
2340
21
5525
31
0
0
LINE
8
A-FLOOR-0-A-WALL-EXT
10
2000
20
5875
30
0
11
2000
21
5525
31
0
0
LINE
8
A-FLOOR-0-A-WALL-EXT
10
3340
20
5875
30
0
11
3680
21
5875
31
0
0
LINE
8
A-FLOOR-0-A-WALL-EXT
10
3340
20
5525
30
0
11
3680
21
5525
31
0
0
LINE
8
A-FLOOR-0-A-WALL-EXT
10
3680
20
5875
30
0
11
3680
21
5525
31
0
0
LINE
8
A-FLOOR-0-A-WALL-EXT
10
2340
20
5875
30
0
11
2340
21
5525
31
0
0
LINE
8
A-FLOOR-0-A-WALL-EXT
10
3340
20
5875
30
0
11
3340
21
5525
31
0
0
LINE
8
A-WALL-EXT
10
3680
20
5875
30
0
11
4374.75
21
5875
31
0
0
LINE
8
A-WALL-EXT
10
3680
20
5525
30
0
11
4374.75
21
5525
31
0
0
LINE
8
A-WALL-EXT
10
6955.25
20
5875
30
0
11
7650
21
5875
31
0
0
LINE
8
A-WALL-EXT
10
6955.25
20
5525
30
0
11
7650
21
5525
31
0
0
LINE
8
A-WALL-EXT
10
7650
20
5875
30
0
11
7650
21
5525
31
0
0
LINE
8
A-WALL-EXT
10
4374.75
20
5875
30
0
11
4374.75
21
5525
31
0
0
LINE
8
A-WALL-EXT
10
6955.25
20
5875
30
0
11
6955.25
21
5525
31
0
0
LINE
8
A-FLOOR-0-A-WALL-EXT
10
3680
20
5875
30
0
11
4374.75
21
5875
31
0
0
LINE
8
A-FLOOR-0-A-WALL-EXT
10
3680
20
5525
30
0
11
4374.75
21
5525
31
0
0
LINE
8
A-FLOOR-0-A-WALL-EXT
10
6955.25
20
5875
30
0
11
7650
21
5875
31
0
0
LINE
8
A-FLOOR-0-A-WALL-EXT
10
6955.25
20
5525
30
0
11
7650
21
5525
31
0
0
LINE
8
A-FLOOR-0-A-WALL-EXT
10
7650
20
5875
30
0
11
7650
21
5525
31
0
0
LINE
8
A-FLOOR-0-A-WALL-EXT
10
4374.75
20
5875
30
0
11
4374.75
21
5525
31
0
0
LINE
8
A-FLOOR-0-A-WALL-EXT
10
6955.25
20
5875
30
0
11
6955.25
21
5525
31
0
0
LINE
8
A-WALL-EXT
10
7650
20
5875
30
0
11
8246.25
21
5875
31
0
0
LINE
8
A-WALL-EXT
10
7650
20
5525
30
0
11
8246.25
21
5525
31
0
0
LINE
8
A-WALL-EXT
10
9703.75
20
5875
30
0
11
10300
21
5875
31
0
0
LINE
8
A-WALL-EXT
10
9703.75
20
5525
30
0
11
10300
21
5525
31
0
0
LINE
8
A-WALL-EXT
10
10300
20
5875
30
0
11
10300
21
5525
31
0
0
LINE
8
A-WALL-EXT
10
8246.25
20
5875
30
0
11
8246.25
21
5525
31
0
0
LINE
8
A-WALL-EXT
10
9703.75
20
5875
30
0
11
9703.75
21
5525
31
0
0
LINE
8
A-FLOOR-0-A-WALL-EXT
10
7650
20
5875
30
0
11
8246.25
21
5875
31
0
0
LINE
8
A-FLOOR-0-A-WALL-EXT
10
7650
20
5525
30
0
11
8246.25
21
5525
31
0
0
LINE
8
A-FLOOR-0-A-WALL-EXT
10
9703.75
20
5875
30
0
11
10300
21
5875
31
0
0
LINE
8
A-FLOOR-0-A-WALL-EXT
10
9703.75
20
5525
30
0
11
10300
21
5525
31
0
0
LINE
8
A-FLOOR-0-A-WALL-EXT
10
10300
20
5875
30
0
11
10300
21
5525
31
0
0
LINE
8
A-FLOOR-0-A-WALL-EXT
10
8246.25
20
5875
30
0
11
8246.25
21
5525
31
0
0
LINE
8
A-FLOOR-0-A-WALL-EXT
10
9703.75
20
5875
30
0
11
9703.75
21
5525
31
0
0
LINE
8
A-WALL-EXT
10
12500
20
5875
30
0
11
14000
21
5875
31
0
0
LINE
8
A-WALL-EXT
10
12500
20
5525
30
0
11
14000
21
5525
31
0
0
LINE
8
A-WALL-EXT
10
12500
20
5875
30
0
11
12500
21
5525
31
0
0
LINE
8
A-WALL-EXT
10
14000
20
5875
30
0
11
14000
21
5525
31
0
0
LINE
8
A-FLOOR-0-A-WALL-EXT
10
12500
20
5875
30
0
11
14000
21
5875
31
0
0
LINE
8
A-FLOOR-0-A-WALL-EXT
10
12500
20
5525
30
0
11
14000
21
5525
31
0
0
LINE
8
A-FLOOR-0-A-WALL-EXT
10
12500
20
5875
30
0
11
12500
21
5525
31
0
0
LINE
8
A-FLOOR-0-A-WALL-EXT
10
14000
20
5875
30
0
11
14000
21
5525
31
0
0
LINE
8
A-WALL-EXT
10
14000
20
5875
30
0
11
18000
21
5875
31
0
0
LINE
8
A-WALL-EXT
10
14000
20
5525
30
0
11
18000
21
5525
31
0
0
LINE
8
A-WALL-EXT
10
18000
20
5875
30
0
11
18000
21
5525
31
0
0
LINE
8
A-FLOOR-0-A-WALL-EXT
10
14000
20
5875
30
0
11
18000
21
5875
31
0
0
LINE
8
A-FLOOR-0-A-WALL-EXT
10
14000
20
5525
30
0
11
18000
21
5525
31
0
0
LINE
8
A-FLOOR-0-A-WALL-EXT
10
18000
20
5875
30
0
11
18000
21
5525
31
0
0
LINE
8
A-WALL-INT
10
3605
20
5700
30
0
11
3605
21
7500
31
0
0
LINE
8
A-WALL-INT
10
3755
20
5700
30
0
11
3755
21
7500
31
0
0
LINE
8
A-WALL-INT
10
3605
20
5700
30
0
11
3755
21
5700
31
0
0
LINE
8
A-WALL-INT
10
3605
20
7500
30
0
11
3755
21
7500
31
0
0
LINE
8
A-FLOOR-0-A-WALL-INT
10
3605
20
5700
30
0
11
3605
21
7500
31
0
0
LINE
8
A-FLOOR-0-A-WALL-INT
10
3755
20
5700
30
0
11
3755
21
7500
31
0
0
LINE
8
A-FLOOR-0-A-WALL-INT
10
3605
20
5700
30
0
11
3755
21
5700
31
0
0
LINE
8
A-FLOOR-0-A-WALL-INT
10
3605
20
7500
30
0
11
3755
21
7500
31
0
0
LINE
8
A-WALL-INT
10
3605
20
7500
30
0
11
3605
21
9740
31
0
0
LINE
8
A-WALL-INT
10
3755
20
7500
30
0
11
3755
21
9740
31
0
0
LINE
8
A-WALL-INT
10
3605
20
10640
30
0
11
3605
21
12880
31
0
0
LINE
8
A-WALL-INT
10
3755
20
10640
30
0
11
3755
21
12880
31
0
0
LINE
8
A-WALL-INT
10
3605
20
12880
30
0
11
3755
21
12880
31
0
0
LINE
8
A-WALL-INT
10
3605
20
9740
30
0
11
3755
21
9740
31
0
0
LINE
8
A-WALL-INT
10
3605
20
10640
30
0
11
3755
21
10640
31
0
0
LINE
8
A-FLOOR-0-A-WALL-INT
10
3605
20
7500
30
0
11
3605
21
9740
31
0
0
LINE
8
A-FLOOR-0-A-WALL-INT
10
3755
20
7500
30
0
11
3755
21
9740
31
0
0
LINE
8
A-FLOOR-0-A-WALL-INT
10
3605
20
10640
30
0
11
3605
21
12880
31
0
0
LINE
8
A-FLOOR-0-A-WALL-INT
10
3755
20
10640
30
0
11
3755
21
12880
31
0
0
LINE
8
A-FLOOR-0-A-WALL-INT
10
3605
20
12880
30
0
11
3755
21
12880
31
0
0
LINE
8
A-FLOOR-0-A-WALL-INT
10
3605
20
9740
30
0
11
3755
21
9740
31
0
0
LINE
8
A-FLOOR-0-A-WALL-INT
10
3605
20
10640
30
0
11
3755
21
10640
31
0
0
LINE
8
A-WALL-SERVICE
10
3620
20
12880
30
0
11
3620
21
14980
31
0
0
LINE
8
A-WALL-SERVICE
10
3740
20
12880
30
0
11
3740
21
14980
31
0
0
LINE
8
A-WALL-SERVICE
10
3620
20
12880
30
0
11
3740
21
12880
31
0
0
LINE
8
A-WALL-SERVICE
10
3620
20
14980
30
0
11
3740
21
14980
31
0
0
LINE
8
A-FLOOR-0-A-WALL-SERVICE
10
3620
20
12880
30
0
11
3620
21
14980
31
0
0
LINE
8
A-FLOOR-0-A-WALL-SERVICE
10
3740
20
12880
30
0
11
3740
21
14980
31
0
0
LINE
8
A-FLOOR-0-A-WALL-SERVICE
10
3620
20
12880
30
0
11
3740
21
12880
31
0
0
LINE
8
A-FLOOR-0-A-WALL-SERVICE
10
3620
20
14980
30
0
11
3740
21
14980
31
0
0
LINE
8
A-WALL-INT
10
2000
20
7575
30
0
11
2390
21
7575
31
0
0
LINE
8
A-WALL-INT
10
2000
20
7425
30
0
11
2390
21
7425
31
0
0
LINE
8
A-WALL-INT
10
2000
20
7575
30
0
11
2000
21
7425
31
0
0
LINE
8
A-WALL-INT
10
3290
20
7575
30
0
11
3680
21
7575
31
0
0
LINE
8
A-WALL-INT
10
3290
20
7425
30
0
11
3680
21
7425
31
0
0
LINE
8
A-WALL-INT
10
3680
20
7575
30
0
11
3680
21
7425
31
0
0
LINE
8
A-WALL-INT
10
2390
20
7575
30
0
11
2390
21
7425
31
0
0
LINE
8
A-WALL-INT
10
3290
20
7575
30
0
11
3290
21
7425
31
0
0
LINE
8
A-FLOOR-0-A-WALL-INT
10
2000
20
7575
30
0
11
2390
21
7575
31
0
0
LINE
8
A-FLOOR-0-A-WALL-INT
10
2000
20
7425
30
0
11
2390
21
7425
31
0
0
LINE
8
A-FLOOR-0-A-WALL-INT
10
2000
20
7575
30
0
11
2000
21
7425
31
0
0
LINE
8
A-FLOOR-0-A-WALL-INT
10
3290
20
7575
30
0
11
3680
21
7575
31
0
0
LINE
8
A-FLOOR-0-A-WALL-INT
10
3290
20
7425
30
0
11
3680
21
7425
31
0
0
LINE
8
A-FLOOR-0-A-WALL-INT
10
3680
20
7575
30
0
11
3680
21
7425
31
0
0
LINE
8
A-FLOOR-0-A-WALL-INT
10
2390
20
7575
30
0
11
2390
21
7425
31
0
0
LINE
8
A-FLOOR-0-A-WALL-INT
10
3290
20
7575
30
0
11
3290
21
7425
31
0
0
LINE
8
A-WALL-EXT
10
1825
20
5700
30
0
11
1825
21
7500
31
0
0
LINE
8
A-WALL-EXT
10
2175
20
5700
30
0
11
2175
21
7500
31
0
0
LINE
8
A-WALL-EXT
10
1825
20
5700
30
0
11
2175
21
5700
31
0
0
LINE
8
A-WALL-EXT
10
1825
20
7500
30
0
11
2175
21
7500
31
0
0
LINE
8
A-FLOOR-0-A-WALL-EXT
10
1825
20
5700
30
0
11
1825
21
7500
31
0
0
LINE
8
A-FLOOR-0-A-WALL-EXT
10
2175
20
5700
30
0
11
2175
21
7500
31
0
0
LINE
8
A-FLOOR-0-A-WALL-EXT
10
1825
20
5700
30
0
11
2175
21
5700
31
0
0
LINE
8
A-FLOOR-0-A-WALL-EXT
10
1825
20
7500
30
0
11
2175
21
7500
31
0
0
LINE
8
A-WALL-EXT
10
1825
20
7500
30
0
11
1825
21
12880
31
0
0
LINE
8
A-WALL-EXT
10
2175
20
7500
30
0
11
2175
21
12880
31
0
0
LINE
8
A-WALL-EXT
10
1825
20
12880
30
0
11
2175
21
12880
31
0
0
LINE
8
A-FLOOR-0-A-WALL-EXT
10
1825
20
7500
30
0
11
1825
21
12880
31
0
0
LINE
8
A-FLOOR-0-A-WALL-EXT
10
2175
20
7500
30
0
11
2175
21
12880
31
0
0
LINE
8
A-FLOOR-0-A-WALL-EXT
10
1825
20
12880
30
0
11
2175
21
12880
31
0
0
LINE
8
A-WALL-EXT
10
1825
20
12880
30
0
11
1825
21
14980
31
0
0
LINE
8
A-WALL-EXT
10
2175
20
12880
30
0
11
2175
21
14980
31
0
0
LINE
8
A-WALL-EXT
10
1825
20
14980
30
0
11
2175
21
14980
31
0
0
LINE
8
A-FLOOR-0-A-WALL-EXT
10
1825
20
12880
30
0
11
1825
21
14980
31
0
0
LINE
8
A-FLOOR-0-A-WALL-EXT
10
2175
20
12880
30
0
11
2175
21
14980
31
0
0
LINE
8
A-FLOOR-0-A-WALL-EXT
10
1825
20
14980
30
0
11
2175
21
14980
31
0
0
LINE
8
A-WALL-EXT
10
1825
20
14980
30
0
11
1825
21
16480
31
0
0
LINE
8
A-WALL-EXT
10
2175
20
14980
30
0
11
2175
21
16480
31
0
0
LINE
8
A-WALL-EXT
10
1825
20
16480
30
0
11
2175
21
16480
31
0
0
LINE
8
A-FLOOR-0-A-WALL-EXT
10
1825
20
14980
30
0
11
1825
21
16480
31
0
0
LINE
8
A-FLOOR-0-A-WALL-EXT
10
2175
20
14980
30
0
11
2175
21
16480
31
0
0
LINE
8
A-FLOOR-0-A-WALL-EXT
10
1825
20
16480
30
0
11
2175
21
16480
31
0
0
LINE
8
A-WALL-SERVICE
10
2000
20
12940
30
0
11
2440
21
12940
31
0
0
LINE
8
A-WALL-SERVICE
10
2000
20
12820
30
0
11
2440
21
12820
31
0
0
LINE
8
A-WALL-SERVICE
10
2000
20
12940
30
0
11
2000
21
12820
31
0
0
LINE
8
A-WALL-SERVICE
10
3240
20
12940
30
0
11
3680
21
12940
31
0
0
LINE
8
A-WALL-SERVICE
10
3240
20
12820
30
0
11
3680
21
12820
31
0
0
LINE
8
A-WALL-SERVICE
10
3680
20
12940
30
0
11
3680
21
12820
31
0
0
LINE
8
A-WALL-SERVICE
10
2440
20
12940
30
0
11
2440
21
12820
31
0
0
LINE
8
A-WALL-SERVICE
10
3240
20
12940
30
0
11
3240
21
12820
31
0
0
LINE
8
A-FLOOR-0-A-WALL-SERVICE
10
2000
20
12940
30
0
11
2440
21
12940
31
0
0
LINE
8
A-FLOOR-0-A-WALL-SERVICE
10
2000
20
12820
30
0
11
2440
21
12820
31
0
0
LINE
8
A-FLOOR-0-A-WALL-SERVICE
10
2000
20
12940
30
0
11
2000
21
12820
31
0
0
LINE
8
A-FLOOR-0-A-WALL-SERVICE
10
3240
20
12940
30
0
11
3680
21
12940
31
0
0
LINE
8
A-FLOOR-0-A-WALL-SERVICE
10
3240
20
12820
30
0
11
3680
21
12820
31
0
0
LINE
8
A-FLOOR-0-A-WALL-SERVICE
10
3680
20
12940
30
0
11
3680
21
12820
31
0
0
LINE
8
A-FLOOR-0-A-WALL-SERVICE
10
2440
20
12940
30
0
11
2440
21
12820
31
0
0
LINE
8
A-FLOOR-0-A-WALL-SERVICE
10
3240
20
12940
30
0
11
3240
21
12820
31
0
0
LINE
8
A-WALL-SERVICE
10
2000
20
15040
30
0
11
3680
21
15040
31
0
0
LINE
8
A-WALL-SERVICE
10
2000
20
14920
30
0
11
3680
21
14920
31
0
0
LINE
8
A-WALL-SERVICE
10
2000
20
15040
30
0
11
2000
21
14920
31
0
0
LINE
8
A-WALL-SERVICE
10
3680
20
15040
30
0
11
3680
21
14920
31
0
0
LINE
8
A-FLOOR-0-A-WALL-SERVICE
10
2000
20
15040
30
0
11
3680
21
15040
31
0
0
LINE
8
A-FLOOR-0-A-WALL-SERVICE
10
2000
20
14920
30
0
11
3680
21
14920
31
0
0
LINE
8
A-FLOOR-0-A-WALL-SERVICE
10
2000
20
15040
30
0
11
2000
21
14920
31
0
0
LINE
8
A-FLOOR-0-A-WALL-SERVICE
10
3680
20
15040
30
0
11
3680
21
14920
31
0
0
LINE
8
A-WALL-INT
10
3680
20
15055
30
0
11
5215
21
15055
31
0
0
LINE
8
A-WALL-INT
10
3680
20
14905
30
0
11
5215
21
14905
31
0
0
LINE
8
A-WALL-INT
10
3680
20
15055
30
0
11
3680
21
14905
31
0
0
LINE
8
A-WALL-INT
10
6115
20
15055
30
0
11
7650
21
15055
31
0
0
LINE
8
A-WALL-INT
10
6115
20
14905
30
0
11
7650
21
14905
31
0
0
LINE
8
A-WALL-INT
10
7650
20
15055
30
0
11
7650
21
14905
31
0
0
LINE
8
A-WALL-INT
10
5215
20
15055
30
0
11
5215
21
14905
31
0
0
LINE
8
A-WALL-INT
10
6115
20
15055
30
0
11
6115
21
14905
31
0
0
LINE
8
A-FLOOR-0-A-WALL-INT
10
3680
20
15055
30
0
11
5215
21
15055
31
0
0
LINE
8
A-FLOOR-0-A-WALL-INT
10
3680
20
14905
30
0
11
5215
21
14905
31
0
0
LINE
8
A-FLOOR-0-A-WALL-INT
10
3680
20
15055
30
0
11
3680
21
14905
31
0
0
LINE
8
A-FLOOR-0-A-WALL-INT
10
6115
20
15055
30
0
11
7650
21
15055
31
0
0
LINE
8
A-FLOOR-0-A-WALL-INT
10
6115
20
14905
30
0
11
7650
21
14905
31
0
0
LINE
8
A-FLOOR-0-A-WALL-INT
10
7650
20
15055
30
0
11
7650
21
14905
31
0
0
LINE
8
A-FLOOR-0-A-WALL-INT
10
5215
20
15055
30
0
11
5215
21
14905
31
0
0
LINE
8
A-FLOOR-0-A-WALL-INT
10
6115
20
15055
30
0
11
6115
21
14905
31
0
0
LINE
8
A-WALL-INT
10
7650
20
15055
30
0
11
8525
21
15055
31
0
0
LINE
8
A-WALL-INT
10
7650
20
14905
30
0
11
8525
21
14905
31
0
0
LINE
8
A-WALL-INT
10
9425
20
15055
30
0
11
10300
21
15055
31
0
0
LINE
8
A-WALL-INT
10
9425
20
14905
30
0
11
10300
21
14905
31
0
0
LINE
8
A-WALL-INT
10
10300
20
15055
30
0
11
10300
21
14905
31
0
0
LINE
8
A-WALL-INT
10
8525
20
15055
30
0
11
8525
21
14905
31
0
0
LINE
8
A-WALL-INT
10
9425
20
15055
30
0
11
9425
21
14905
31
0
0
LINE
8
A-FLOOR-0-A-WALL-INT
10
7650
20
15055
30
0
11
8525
21
15055
31
0
0
LINE
8
A-FLOOR-0-A-WALL-INT
10
7650
20
14905
30
0
11
8525
21
14905
31
0
0
LINE
8
A-FLOOR-0-A-WALL-INT
10
9425
20
15055
30
0
11
10300
21
15055
31
0
0
LINE
8
A-FLOOR-0-A-WALL-INT
10
9425
20
14905
30
0
11
10300
21
14905
31
0
0
LINE
8
A-FLOOR-0-A-WALL-INT
10
10300
20
15055
30
0
11
10300
21
14905
31
0
0
LINE
8
A-FLOOR-0-A-WALL-INT
10
8525
20
15055
30
0
11
8525
21
14905
31
0
0
LINE
8
A-FLOOR-0-A-WALL-INT
10
9425
20
15055
30
0
11
9425
21
14905
31
0
0
LINE
8
A-WALL-INT
10
10300
20
15055
30
0
11
10950
21
15055
31
0
0
LINE
8
A-WALL-INT
10
10300
20
14905
30
0
11
10950
21
14905
31
0
0
LINE
8
A-WALL-INT
10
11850
20
15055
30
0
11
12500
21
15055
31
0
0
LINE
8
A-WALL-INT
10
11850
20
14905
30
0
11
12500
21
14905
31
0
0
LINE
8
A-WALL-INT
10
12500
20
15055
30
0
11
12500
21
14905
31
0
0
LINE
8
A-WALL-INT
10
10950
20
15055
30
0
11
10950
21
14905
31
0
0
LINE
8
A-WALL-INT
10
11850
20
15055
30
0
11
11850
21
14905
31
0
0
LINE
8
A-FLOOR-0-A-WALL-INT
10
10300
20
15055
30
0
11
10950
21
15055
31
0
0
LINE
8
A-FLOOR-0-A-WALL-INT
10
10300
20
14905
30
0
11
10950
21
14905
31
0
0
LINE
8
A-FLOOR-0-A-WALL-INT
10
11850
20
15055
30
0
11
12500
21
15055
31
0
0
LINE
8
A-FLOOR-0-A-WALL-INT
10
11850
20
14905
30
0
11
12500
21
14905
31
0
0
LINE
8
A-FLOOR-0-A-WALL-INT
10
12500
20
15055
30
0
11
12500
21
14905
31
0
0
LINE
8
A-FLOOR-0-A-WALL-INT
10
10950
20
15055
30
0
11
10950
21
14905
31
0
0
LINE
8
A-FLOOR-0-A-WALL-INT
10
11850
20
15055
30
0
11
11850
21
14905
31
0
0
LINE
8
A-WALL-EXT
10
10300
20
8155
30
0
11
10905
21
8155
31
0
0
LINE
8
A-WALL-EXT
10
10300
20
7805
30
0
11
10905
21
7805
31
0
0
LINE
8
A-WALL-EXT
10
10300
20
8155
30
0
11
10300
21
7805
31
0
0
LINE
8
A-WALL-EXT
10
11895
20
8155
30
0
11
12500
21
8155
31
0
0
LINE
8
A-WALL-EXT
10
11895
20
7805
30
0
11
12500
21
7805
31
0
0
LINE
8
A-WALL-EXT
10
12500
20
8155
30
0
11
12500
21
7805
31
0
0
LINE
8
A-WALL-EXT
10
10905
20
8155
30
0
11
10905
21
7805
31
0
0
LINE
8
A-WALL-EXT
10
11895
20
8155
30
0
11
11895
21
7805
31
0
0
LINE
8
A-FLOOR-0-A-WALL-EXT
10
10300
20
8155
30
0
11
10905
21
8155
31
0
0
LINE
8
A-FLOOR-0-A-WALL-EXT
10
10300
20
7805
30
0
11
10905
21
7805
31
0
0
LINE
8
A-FLOOR-0-A-WALL-EXT
10
10300
20
8155
30
0
11
10300
21
7805
31
0
0
LINE
8
A-FLOOR-0-A-WALL-EXT
10
11895
20
8155
30
0
11
12500
21
8155
31
0
0
LINE
8
A-FLOOR-0-A-WALL-EXT
10
11895
20
7805
30
0
11
12500
21
7805
31
0
0
LINE
8
A-FLOOR-0-A-WALL-EXT
10
12500
20
8155
30
0
11
12500
21
7805
31
0
0
LINE
8
A-FLOOR-0-A-WALL-EXT
10
10905
20
8155
30
0
11
10905
21
7805
31
0
0
LINE
8
A-FLOOR-0-A-WALL-EXT
10
11895
20
8155
30
0
11
11895
21
7805
31
0
0
LINE
8
A-WALL-EXT
10
12325
20
5700
30
0
11
12325
21
7980
31
0
0
LINE
8
A-WALL-EXT
10
12675
20
5700
30
0
11
12675
21
7980
31
0
0
LINE
8
A-WALL-EXT
10
12325
20
5700
30
0
11
12675
21
5700
31
0
0
LINE
8
A-WALL-EXT
10
12325
20
7980
30
0
11
12675
21
7980
31
0
0
LINE
8
A-FLOOR-0-A-WALL-EXT
10
12325
20
5700
30
0
11
12325
21
7980
31
0
0
LINE
8
A-FLOOR-0-A-WALL-EXT
10
12675
20
5700
30
0
11
12675
21
7980
31
0
0
LINE
8
A-FLOOR-0-A-WALL-EXT
10
12325
20
5700
30
0
11
12675
21
5700
31
0
0
LINE
8
A-FLOOR-0-A-WALL-EXT
10
12325
20
7980
30
0
11
12675
21
7980
31
0
0
LINE
8
A-WALL-INT
10
12425
20
7980
30
0
11
12425
21
14980
31
0
0
LINE
8
A-WALL-INT
10
12575
20
7980
30
0
11
12575
21
14980
31
0
0
LINE
8
A-WALL-INT
10
12425
20
7980
30
0
11
12575
21
7980
31
0
0
LINE
8
A-WALL-INT
10
12425
20
14980
30
0
11
12575
21
14980
31
0
0
LINE
8
A-FLOOR-0-A-WALL-INT
10
12425
20
7980
30
0
11
12425
21
14980
31
0
0
LINE
8
A-FLOOR-0-A-WALL-INT
10
12575
20
7980
30
0
11
12575
21
14980
31
0
0
LINE
8
A-FLOOR-0-A-WALL-INT
10
12425
20
7980
30
0
11
12575
21
7980
31
0
0
LINE
8
A-FLOOR-0-A-WALL-INT
10
12425
20
14980
30
0
11
12575
21
14980
31
0
0
LINE
8
A-WALL-INT
10
12425
20
14980
30
0
11
12425
21
15280
31
0
0
LINE
8
A-WALL-INT
10
12575
20
14980
30
0
11
12575
21
15280
31
0
0
LINE
8
A-WALL-INT
10
12425
20
16180
30
0
11
12425
21
16480
31
0
0
LINE
8
A-WALL-INT
10
12575
20
16180
30
0
11
12575
21
16480
31
0
0
LINE
8
A-WALL-INT
10
12425
20
16480
30
0
11
12575
21
16480
31
0
0
LINE
8
A-WALL-INT
10
12425
20
15280
30
0
11
12575
21
15280
31
0
0
LINE
8
A-WALL-INT
10
12425
20
16180
30
0
11
12575
21
16180
31
0
0
LINE
8
A-FLOOR-0-A-WALL-INT
10
12425
20
14980
30
0
11
12425
21
15280
31
0
0
LINE
8
A-FLOOR-0-A-WALL-INT
10
12575
20
14980
30
0
11
12575
21
15280
31
0
0
LINE
8
A-FLOOR-0-A-WALL-INT
10
12425
20
16180
30
0
11
12425
21
16480
31
0
0
LINE
8
A-FLOOR-0-A-WALL-INT
10
12575
20
16180
30
0
11
12575
21
16480
31
0
0
LINE
8
A-FLOOR-0-A-WALL-INT
10
12425
20
16480
30
0
11
12575
21
16480
31
0
0
LINE
8
A-FLOOR-0-A-WALL-INT
10
12425
20
15280
30
0
11
12575
21
15280
31
0
0
LINE
8
A-FLOOR-0-A-WALL-INT
10
12425
20
16180
30
0
11
12575
21
16180
31
0
0
LINE
8
A-WALL-EXT
10
10125
20
5700
30
0
11
10125
21
7980
31
0
0
LINE
8
A-WALL-EXT
10
10475
20
5700
30
0
11
10475
21
7980
31
0
0
LINE
8
A-WALL-EXT
10
10125
20
5700
30
0
11
10475
21
5700
31
0
0
LINE
8
A-WALL-EXT
10
10125
20
7980
30
0
11
10475
21
7980
31
0
0
LINE
8
A-FLOOR-0-A-WALL-EXT
10
10125
20
5700
30
0
11
10125
21
7980
31
0
0
LINE
8
A-FLOOR-0-A-WALL-EXT
10
10475
20
5700
30
0
11
10475
21
7980
31
0
0
LINE
8
A-FLOOR-0-A-WALL-EXT
10
10125
20
5700
30
0
11
10475
21
5700
31
0
0
LINE
8
A-FLOOR-0-A-WALL-EXT
10
10125
20
7980
30
0
11
10475
21
7980
31
0
0
LINE
8
A-WALL-INT
10
10225
20
7980
30
0
11
10225
21
14980
31
0
0
LINE
8
A-WALL-INT
10
10375
20
7980
30
0
11
10375
21
14980
31
0
0
LINE
8
A-WALL-INT
10
10225
20
7980
30
0
11
10375
21
7980
31
0
0
LINE
8
A-WALL-INT
10
10225
20
14980
30
0
11
10375
21
14980
31
0
0
LINE
8
A-FLOOR-0-A-WALL-INT
10
10225
20
7980
30
0
11
10225
21
14980
31
0
0
LINE
8
A-FLOOR-0-A-WALL-INT
10
10375
20
7980
30
0
11
10375
21
14980
31
0
0
LINE
8
A-FLOOR-0-A-WALL-INT
10
10225
20
7980
30
0
11
10375
21
7980
31
0
0
LINE
8
A-FLOOR-0-A-WALL-INT
10
10225
20
14980
30
0
11
10375
21
14980
31
0
0
LINE
8
A-WALL-INT
10
7575
20
5700
30
0
11
7575
21
14980
31
0
0
LINE
8
A-WALL-INT
10
7725
20
5700
30
0
11
7725
21
14980
31
0
0
LINE
8
A-WALL-INT
10
7575
20
5700
30
0
11
7725
21
5700
31
0
0
LINE
8
A-WALL-INT
10
7575
20
14980
30
0
11
7725
21
14980
31
0
0
LINE
8
A-FLOOR-0-A-WALL-INT
10
7575
20
5700
30
0
11
7575
21
14980
31
0
0
LINE
8
A-FLOOR-0-A-WALL-INT
10
7725
20
5700
30
0
11
7725
21
14980
31
0
0
LINE
8
A-FLOOR-0-A-WALL-INT
10
7575
20
5700
30
0
11
7725
21
5700
31
0
0
LINE
8
A-FLOOR-0-A-WALL-INT
10
7575
20
14980
30
0
11
7725
21
14980
31
0
0
LINE
8
A-WALL-EXT
10
17825
20
5700
30
0
11
17825
21
8320
31
0
0
LINE
8
A-WALL-EXT
10
18175
20
5700
30
0
11
18175
21
8320
31
0
0
LINE
8
A-WALL-EXT
10
17825
20
5700
30
0
11
18175
21
5700
31
0
0
LINE
8
A-WALL-EXT
10
17825
20
8320
30
0
11
18175
21
8320
31
0
0
LINE
8
A-FLOOR-0-A-WALL-EXT
10
17825
20
5700
30
0
11
17825
21
8320
31
0
0
LINE
8
A-FLOOR-0-A-WALL-EXT
10
18175
20
5700
30
0
11
18175
21
8320
31
0
0
LINE
8
A-FLOOR-0-A-WALL-EXT
10
17825
20
5700
30
0
11
18175
21
5700
31
0
0
LINE
8
A-FLOOR-0-A-WALL-EXT
10
17825
20
8320
30
0
11
18175
21
8320
31
0
0
LINE
8
A-WALL-EXT
10
14000
20
8495
30
0
11
18000
21
8495
31
0
0
LINE
8
A-WALL-EXT
10
14000
20
8145
30
0
11
18000
21
8145
31
0
0
LINE
8
A-WALL-EXT
10
14000
20
8495
30
0
11
14000
21
8145
31
0
0
LINE
8
A-WALL-EXT
10
18000
20
8495
30
0
11
18000
21
8145
31
0
0
LINE
8
A-FLOOR-0-A-WALL-EXT
10
14000
20
8495
30
0
11
18000
21
8495
31
0
0
LINE
8
A-FLOOR-0-A-WALL-EXT
10
14000
20
8145
30
0
11
18000
21
8145
31
0
0
LINE
8
A-FLOOR-0-A-WALL-EXT
10
14000
20
8495
30
0
11
14000
21
8145
31
0
0
LINE
8
A-FLOOR-0-A-WALL-EXT
10
18000
20
8495
30
0
11
18000
21
8145
31
0
0
LINE
8
A-WALL-CORE
10
13900
20
5700
30
0
11
13900
21
6560
31
0
0
LINE
8
A-WALL-CORE
10
14100
20
5700
30
0
11
14100
21
6560
31
0
0
LINE
8
A-WALL-CORE
10
13900
20
5700
30
0
11
14100
21
5700
31
0
0
LINE
8
A-WALL-CORE
10
13900
20
7460
30
0
11
13900
21
8320
31
0
0
LINE
8
A-WALL-CORE
10
14100
20
7460
30
0
11
14100
21
8320
31
0
0
LINE
8
A-WALL-CORE
10
13900
20
8320
30
0
11
14100
21
8320
31
0
0
LINE
8
A-WALL-CORE
10
13900
20
6560
30
0
11
14100
21
6560
31
0
0
LINE
8
A-WALL-CORE
10
13900
20
7460
30
0
11
14100
21
7460
31
0
0
LINE
8
A-FLOOR-0-A-WALL-CORE
10
13900
20
5700
30
0
11
13900
21
6560
31
0
0
LINE
8
A-FLOOR-0-A-WALL-CORE
10
14100
20
5700
30
0
11
14100
21
6560
31
0
0
LINE
8
A-FLOOR-0-A-WALL-CORE
10
13900
20
5700
30
0
11
14100
21
5700
31
0
0
LINE
8
A-FLOOR-0-A-WALL-CORE
10
13900
20
7460
30
0
11
13900
21
8320
31
0
0
LINE
8
A-FLOOR-0-A-WALL-CORE
10
14100
20
7460
30
0
11
14100
21
8320
31
0
0
LINE
8
A-FLOOR-0-A-WALL-CORE
10
13900
20
8320
30
0
11
14100
21
8320
31
0
0
LINE
8
A-FLOOR-0-A-WALL-CORE
10
13900
20
6560
30
0
11
14100
21
6560
31
0
0
LINE
8
A-FLOOR-0-A-WALL-CORE
10
13900
20
7460
30
0
11
14100
21
7460
31
0
0
LINE
8
A-WALL-EXT
10
13825
20
8320
30
0
11
13825
21
16480
31
0
0
LINE
8
A-WALL-EXT
10
14175
20
8320
30
0
11
14175
21
16480
31
0
0
LINE
8
A-WALL-EXT
10
13825
20
8320
30
0
11
14175
21
8320
31
0
0
LINE
8
A-WALL-EXT
10
13825
20
16480
30
0
11
14175
21
16480
31
0
0
LINE
8
A-FLOOR-0-A-WALL-EXT
10
13825
20
8320
30
0
11
13825
21
16480
31
0
0
LINE
8
A-FLOOR-0-A-WALL-EXT
10
14175
20
8320
30
0
11
14175
21
16480
31
0
0
LINE
8
A-FLOOR-0-A-WALL-EXT
10
13825
20
8320
30
0
11
14175
21
8320
31
0
0
LINE
8
A-FLOOR-0-A-WALL-EXT
10
13825
20
16480
30
0
11
14175
21
16480
31
0
0
LINE
8
A-WALL-EXT
10
2000
20
16655
30
0
11
12500
21
16655
31
0
0
LINE
8
A-WALL-EXT
10
2000
20
16305
30
0
11
12500
21
16305
31
0
0
LINE
8
A-WALL-EXT
10
2000
20
16655
30
0
11
2000
21
16305
31
0
0
LINE
8
A-WALL-EXT
10
12500
20
16655
30
0
11
12500
21
16305
31
0
0
LINE
8
A-FLOOR-0-A-WALL-EXT
10
2000
20
16655
30
0
11
12500
21
16655
31
0
0
LINE
8
A-FLOOR-0-A-WALL-EXT
10
2000
20
16305
30
0
11
12500
21
16305
31
0
0
LINE
8
A-FLOOR-0-A-WALL-EXT
10
2000
20
16655
30
0
11
2000
21
16305
31
0
0
LINE
8
A-FLOOR-0-A-WALL-EXT
10
12500
20
16655
30
0
11
12500
21
16305
31
0
0
LINE
8
A-WALL-EXT
10
12500
20
16655
30
0
11
14000
21
16655
31
0
0
LINE
8
A-WALL-EXT
10
12500
20
16305
30
0
11
14000
21
16305
31
0
0
LINE
8
A-WALL-EXT
10
14000
20
16655
30
0
11
14000
21
16305
31
0
0
LINE
8
A-FLOOR-0-A-WALL-EXT
10
12500
20
16655
30
0
11
14000
21
16655
31
0
0
LINE
8
A-FLOOR-0-A-WALL-EXT
10
12500
20
16305
30
0
11
14000
21
16305
31
0
0
LINE
8
A-FLOOR-0-A-WALL-EXT
10
14000
20
16655
30
0
11
14000
21
16305
31
0
0
LINE
8
A-DOOR
10
2340
20
5700
30
0
11
3340
21
5700
31
0
0
ARC
8
A-DOOR
10
2340
20
5700
30
0
40
1000
50
0
51
90
0
LINE
8
A-DOOR
10
2340
20
6700
30
0
11
2300
21
6700
31
0
0
LINE
8
A-FLOOR-0-A-DOOR
10
2340
20
5700
30
0
11
3340
21
5700
31
0
0
ARC
8
A-FLOOR-0-A-DOOR
10
2340
20
5700
30
0
40
1000
50
0
51
90
0
LINE
8
A-FLOOR-0-A-DOOR
10
2340
20
6700
30
0
11
2300
21
6700
31
0
0
LINE
8
A-DIMS
10
3340
20
5650
30
0
11
3340
21
5300
31
0
0
LINE
8
A-FLOOR-0-A-DIMS
10
3340
20
5650
30
0
11
3340
21
5300
31
0
0
LINE
8
A-DIMS
10
2340
20
5650
30
0
11
2340
21
5300
31
0
0
LINE
8
A-FLOOR-0-A-DIMS
10
2340
20
5650
30
0
11
2340
21
5300
31
0
0
LINE
8
A-DIMS
10
3340
20
5380
30
0
11
2340
21
5380
31
0
0
LINE
8
A-FLOOR-0-A-DIMS
10
3340
20
5380
30
0
11
2340
21
5380
31
0
0
LINE
8
A-DIMS
10
3290
20
5330
30
0
11
3390
21
5430
31
0
0
LINE
8
A-FLOOR-0-A-DIMS
10
3290
20
5330
30
0
11
3390
21
5430
31
0
0
LINE
8
A-DIMS
10
2290
20
5330
30
0
11
2390
21
5430
31
0
0
LINE
8
A-FLOOR-0-A-DIMS
10
2290
20
5330
30
0
11
2390
21
5430
31
0
0
TEXT
8
A-DIMS
10
2840
20
5320
30
0
40
100
1
1.00 m
50
0
72
1
11
2840
21
5320
31
0
0
TEXT
8
A-FLOOR-0-A-DIMS
10
2840
20
5320
30
0
40
100
1
1.00 m
50
0
72
1
11
2840
21
5320
31
0
0
LINE
8
A-DOOR
10
12500
20
16180
30
0
11
12500
21
15280
31
0
0
ARC
8
A-DOOR
10
12500
20
16180
30
0
40
900
50
270
51
0
0
LINE
8
A-DOOR
10
13400
20
16180
30
0
11
13400
21
16220
31
0
0
LINE
8
A-FLOOR-0-A-DOOR
10
12500
20
16180
30
0
11
12500
21
15280
31
0
0
ARC
8
A-FLOOR-0-A-DOOR
10
12500
20
16180
30
0
40
900
50
270
51
0
0
LINE
8
A-FLOOR-0-A-DOOR
10
13400
20
16180
30
0
11
13400
21
16220
31
0
0
LINE
8
A-DOOR
10
14000
20
7460
30
0
11
14000
21
6560
31
0
0
ARC
8
A-DOOR
10
14000
20
7460
30
0
40
900
50
270
51
0
0
LINE
8
A-DOOR
10
14900
20
7460
30
0
11
14900
21
7500
31
0
0
LINE
8
A-FLOOR-0-A-DOOR
10
14000
20
7460
30
0
11
14000
21
6560
31
0
0
ARC
8
A-FLOOR-0-A-DOOR
10
14000
20
7460
30
0
40
900
50
270
51
0
0
LINE
8
A-FLOOR-0-A-DOOR
10
14900
20
7460
30
0
11
14900
21
7500
31
0
0
LINE
8
A-DOOR
10
2390
20
7500
30
0
11
3290
21
7500
31
0
0
ARC
8
A-DOOR
10
2390
20
7500
30
0
40
900
50
0
51
90
0
LINE
8
A-DOOR
10
2390
20
8400
30
0
11
2350
21
8400
31
0
0
LINE
8
A-FLOOR-0-A-DOOR
10
2390
20
7500
30
0
11
3290
21
7500
31
0
0
ARC
8
A-FLOOR-0-A-DOOR
10
2390
20
7500
30
0
40
900
50
0
51
90
0
LINE
8
A-FLOOR-0-A-DOOR
10
2390
20
8400
30
0
11
2350
21
8400
31
0
0
LINE
8
A-DOOR
10
8525
20
14980
30
0
11
9425
21
14980
31
0
0
ARC
8
A-DOOR
10
8525
20
14980
30
0
40
900
50
270
51
0
0
LINE
8
A-DOOR
10
8525
20
14080
30
0
11
8565
21
14080
31
0
0
LINE
8
A-FLOOR-0-A-DOOR
10
8525
20
14980
30
0
11
9425
21
14980
31
0
0
ARC
8
A-FLOOR-0-A-DOOR
10
8525
20
14980
30
0
40
900
50
270
51
0
0
LINE
8
A-FLOOR-0-A-DOOR
10
8525
20
14080
30
0
11
8565
21
14080
31
0
0
LINE
8
A-DOOR
10
3240
20
12880
30
0
11
2440
21
12880
31
0
0
ARC
8
A-DOOR
10
3240
20
12880
30
0
40
800
50
90
51
180
0
LINE
8
A-DOOR
10
3240
20
13680
30
0
11
3200
21
13680
31
0
0
LINE
8
A-FLOOR-0-A-DOOR
10
3240
20
12880
30
0
11
2440
21
12880
31
0
0
ARC
8
A-FLOOR-0-A-DOOR
10
3240
20
12880
30
0
40
800
50
90
51
180
0
LINE
8
A-FLOOR-0-A-DOOR
10
3240
20
13680
30
0
11
3200
21
13680
31
0
0
LINE
8
A-DOOR
10
11850
20
14980
30
0
11
10950
21
14980
31
0
0
ARC
8
A-DOOR
10
11850
20
14980
30
0
40
900
50
180
51
270
0
LINE
8
A-DOOR
10
11850
20
14080
30
0
11
11890
21
14080
31
0
0
LINE
8
A-FLOOR-0-A-DOOR
10
11850
20
14980
30
0
11
10950
21
14980
31
0
0
ARC
8
A-FLOOR-0-A-DOOR
10
11850
20
14980
30
0
40
900
50
180
51
270
0
LINE
8
A-FLOOR-0-A-DOOR
10
11850
20
14080
30
0
11
11890
21
14080
31
0
0
LINE
8
A-DOOR
10
3680
20
9740
30
0
11
3680
21
10640
31
0
0
ARC
8
A-DOOR
10
3680
20
9740
30
0
40
900
50
0
51
90
0
LINE
8
A-DOOR
10
4580
20
9740
30
0
11
4580
21
9780
31
0
0
LINE
8
A-FLOOR-0-A-DOOR
10
3680
20
9740
30
0
11
3680
21
10640
31
0
0
ARC
8
A-FLOOR-0-A-DOOR
10
3680
20
9740
30
0
40
900
50
0
51
90
0
LINE
8
A-FLOOR-0-A-DOOR
10
4580
20
9740
30
0
11
4580
21
9780
31
0
0
LINE
8
A-DOOR
10
6115
20
14980
30
0
11
5215
21
14980
31
0
0
ARC
8
A-DOOR
10
6115
20
14980
30
0
40
900
50
180
51
270
0
LINE
8
A-DOOR
10
6115
20
14080
30
0
11
6155
21
14080
31
0
0
LINE
8
A-FLOOR-0-A-DOOR
10
6115
20
14980
30
0
11
5215
21
14980
31
0
0
ARC
8
A-FLOOR-0-A-DOOR
10
6115
20
14980
30
0
40
900
50
180
51
270
0
LINE
8
A-FLOOR-0-A-DOOR
10
6115
20
14080
30
0
11
6155
21
14080
31
0
0
LINE
8
A-WINDOW
10
10905
20
7920
30
0
11
11895
21
7920
31
0
0
LINE
8
A-WINDOW
10
10905
20
7960
30
0
11
11895
21
7960
31
0
0
LINE
8
A-WINDOW
10
10905
20
8000
30
0
11
11895
21
8000
31
0
0
LINE
8
A-WINDOW
10
10905
20
8040
30
0
11
11895
21
8040
31
0
0
LINE
8
A-FLOOR-0-A-WINDOW
10
10905
20
7920
30
0
11
11895
21
7920
31
0
0
LINE
8
A-FLOOR-0-A-WINDOW
10
10905
20
7960
30
0
11
11895
21
7960
31
0
0
LINE
8
A-FLOOR-0-A-WINDOW
10
10905
20
8000
30
0
11
11895
21
8000
31
0
0
LINE
8
A-FLOOR-0-A-WINDOW
10
10905
20
8040
30
0
11
11895
21
8040
31
0
0
LINE
8
A-DIMS
10
11895
20
7930
30
0
11
11895
21
7580
31
0
0
LINE
8
A-FLOOR-0-A-DIMS
10
11895
20
7930
30
0
11
11895
21
7580
31
0
0
LINE
8
A-DIMS
10
10905
20
7930
30
0
11
10905
21
7580
31
0
0
LINE
8
A-FLOOR-0-A-DIMS
10
10905
20
7930
30
0
11
10905
21
7580
31
0
0
LINE
8
A-DIMS
10
11895
20
7660
30
0
11
10905
21
7660
31
0
0
LINE
8
A-FLOOR-0-A-DIMS
10
11895
20
7660
30
0
11
10905
21
7660
31
0
0
LINE
8
A-DIMS
10
11845
20
7610
30
0
11
11945
21
7710
31
0
0
LINE
8
A-FLOOR-0-A-DIMS
10
11845
20
7610
30
0
11
11945
21
7710
31
0
0
LINE
8
A-DIMS
10
10855
20
7610
30
0
11
10955
21
7710
31
0
0
LINE
8
A-FLOOR-0-A-DIMS
10
10855
20
7610
30
0
11
10955
21
7710
31
0
0
LINE
8
A-WINDOW
10
4374.75
20
5640
30
0
11
6955.25
21
5640
31
0
0
LINE
8
A-WINDOW
10
4374.75
20
5680
30
0
11
6955.25
21
5680
31
0
0
LINE
8
A-WINDOW
10
4374.75
20
5720
30
0
11
6955.25
21
5720
31
0
0
LINE
8
A-WINDOW
10
4374.75
20
5760
30
0
11
6955.25
21
5760
31
0
0
LINE
8
A-FLOOR-0-A-WINDOW
10
4374.75
20
5640
30
0
11
6955.25
21
5640
31
0
0
LINE
8
A-FLOOR-0-A-WINDOW
10
4374.75
20
5680
30
0
11
6955.25
21
5680
31
0
0
LINE
8
A-FLOOR-0-A-WINDOW
10
4374.75
20
5720
30
0
11
6955.25
21
5720
31
0
0
LINE
8
A-FLOOR-0-A-WINDOW
10
4374.75
20
5760
30
0
11
6955.25
21
5760
31
0
0
LINE
8
A-DIMS
10
6955.25
20
5650
30
0
11
6955.25
21
5300
31
0
0
LINE
8
A-FLOOR-0-A-DIMS
10
6955.25
20
5650
30
0
11
6955.25
21
5300
31
0
0
LINE
8
A-DIMS
10
4374.75
20
5650
30
0
11
4374.75
21
5300
31
0
0
LINE
8
A-FLOOR-0-A-DIMS
10
4374.75
20
5650
30
0
11
4374.75
21
5300
31
0
0
LINE
8
A-DIMS
10
6955.25
20
5380
30
0
11
4374.75
21
5380
31
0
0
LINE
8
A-FLOOR-0-A-DIMS
10
6955.25
20
5380
30
0
11
4374.75
21
5380
31
0
0
LINE
8
A-DIMS
10
6905.25
20
5330
30
0
11
7005.25
21
5430
31
0
0
LINE
8
A-FLOOR-0-A-DIMS
10
6905.25
20
5330
30
0
11
7005.25
21
5430
31
0
0
LINE
8
A-DIMS
10
4324.75
20
5330
30
0
11
4424.75
21
5430
31
0
0
LINE
8
A-FLOOR-0-A-DIMS
10
4324.75
20
5330
30
0
11
4424.75
21
5430
31
0
0
LINE
8
A-WINDOW
10
8246.25
20
5640
30
0
11
9703.75
21
5640
31
0
0
LINE
8
A-WINDOW
10
8246.25
20
5680
30
0
11
9703.75
21
5680
31
0
0
LINE
8
A-WINDOW
10
8246.25
20
5720
30
0
11
9703.75
21
5720
31
0
0
LINE
8
A-WINDOW
10
8246.25
20
5760
30
0
11
9703.75
21
5760
31
0
0
LINE
8
A-FLOOR-0-A-WINDOW
10
8246.25
20
5640
30
0
11
9703.75
21
5640
31
0
0
LINE
8
A-FLOOR-0-A-WINDOW
10
8246.25
20
5680
30
0
11
9703.75
21
5680
31
0
0
LINE
8
A-FLOOR-0-A-WINDOW
10
8246.25
20
5720
30
0
11
9703.75
21
5720
31
0
0
LINE
8
A-FLOOR-0-A-WINDOW
10
8246.25
20
5760
30
0
11
9703.75
21
5760
31
0
0
LINE
8
A-DIMS
10
9703.75
20
5650
30
0
11
9703.75
21
5300
31
0
0
LINE
8
A-FLOOR-0-A-DIMS
10
9703.75
20
5650
30
0
11
9703.75
21
5300
31
0
0
LINE
8
A-DIMS
10
8246.25
20
5650
30
0
11
8246.25
21
5300
31
0
0
LINE
8
A-FLOOR-0-A-DIMS
10
8246.25
20
5650
30
0
11
8246.25
21
5300
31
0
0
LINE
8
A-DIMS
10
9703.75
20
5380
30
0
11
8246.25
21
5380
31
0
0
LINE
8
A-FLOOR-0-A-DIMS
10
9703.75
20
5380
30
0
11
8246.25
21
5380
31
0
0
LINE
8
A-DIMS
10
9653.75
20
5330
30
0
11
9753.75
21
5430
31
0
0
LINE
8
A-FLOOR-0-A-DIMS
10
9653.75
20
5330
30
0
11
9753.75
21
5430
31
0
0
LINE
8
A-DIMS
10
8196.25
20
5330
30
0
11
8296.25
21
5430
31
0
0
LINE
8
A-FLOOR-0-A-DIMS
10
8196.25
20
5330
30
0
11
8296.25
21
5430
31
0
0
LINE
8
A-STAIR
10
14000
20
5700
30
0
11
17719
21
5700
31
0
0
LINE
8
A-FLOOR-0-A-STAIR
10
14000
20
5700
30
0
11
17719
21
5700
31
0
0
LINE
8
A-STAIR
10
17719
20
5700
30
0
11
17719
21
8258
31
0
0
LINE
8
A-FLOOR-0-A-STAIR
10
17719
20
5700
30
0
11
17719
21
8258
31
0
0
LINE
8
A-STAIR
10
17719
20
8258
30
0
11
14000
21
8258
31
0
0
LINE
8
A-FLOOR-0-A-STAIR
10
17719
20
8258
30
0
11
14000
21
8258
31
0
0
LINE
8
A-STAIR
10
14000
20
8258
30
0
11
14000
21
5700
31
0
0
LINE
8
A-FLOOR-0-A-STAIR
10
14000
20
8258
30
0
11
14000
21
5700
31
0
0
POLYLINE
8
A-STAIR
10
0
20
0
30
0
70
1
66
1
40
0
41
0
71
0
72
0
0
VERTEX
8
A-STAIR
10
14000
20
5700
30
0
42
0
0
VERTEX
8
A-STAIR
10
15479
20
5700
30
0
42
0
0
VERTEX
8
A-STAIR
10
15479
20
8258
30
0
42
0
0
VERTEX
8
A-STAIR
10
14000
20
8258
30
0
42
0
0
SEQEND
8
A-STAIR
0
POLYLINE
8
A-FLOOR-0-A-STAIR
10
0
20
0
30
0
70
1
66
1
40
0
41
0
71
0
72
0
0
VERTEX
8
A-FLOOR-0-A-STAIR
10
14000
20
5700
30
0
42
0
0
VERTEX
8
A-FLOOR-0-A-STAIR
10
15479
20
5700
30
0
42
0
0
VERTEX
8
A-FLOOR-0-A-STAIR
10
15479
20
8258
30
0
42
0
0
VERTEX
8
A-FLOOR-0-A-STAIR
10
14000
20
8258
30
0
42
0
0
SEQEND
8
A-FLOOR-0-A-STAIR
0
TEXT
8
A-STAIR
10
14739.5
20
6979
30
0
40
180
1
LDNG 1.48
50
0
72
1
11
14739.5
21
6979
31
0
0
TEXT
8
A-FLOOR-0-A-STAIR
10
14739.5
20
6979
30
0
40
180
1
LDNG 1.48
50
0
72
1
11
14739.5
21
6979
31
0
0
POLYLINE
8
A-STAIR
10
0
20
0
30
0
70
0
66
1
40
0
41
0
71
0
72
0
0
VERTEX
8
A-STAIR
10
15479
20
5700
30
0
42
0
0
VERTEX
8
A-STAIR
10
17719
20
5700
30
0
42
0
0
VERTEX
8
A-STAIR
10
17719
20
6879
30
0
42
0
0
VERTEX
8
A-STAIR
10
15479
20
6879
30
0
42
0
0
SEQEND
8
A-STAIR
0
POLYLINE
8
A-FLOOR-0-A-STAIR
10
0
20
0
30
0
70
0
66
1
40
0
41
0
71
0
72
0
0
VERTEX
8
A-FLOOR-0-A-STAIR
10
15479
20
5700
30
0
42
0
0
VERTEX
8
A-FLOOR-0-A-STAIR
10
17719
20
5700
30
0
42
0
0
VERTEX
8
A-FLOOR-0-A-STAIR
10
17719
20
6879
30
0
42
0
0
VERTEX
8
A-FLOOR-0-A-STAIR
10
15479
20
6879
30
0
42
0
0
SEQEND
8
A-FLOOR-0-A-STAIR
0
LINE
8
A-STAIR-TREAD
10
17439
20
5700
30
0
11
17439
21
6879
31
0
0
LINE
8
A-FLOOR-0-A-STAIR-TREAD
10
17439
20
5700
30
0
11
17439
21
6879
31
0
0
LINE
8
A-STAIR-TREAD
10
17159
20
5700
30
0
11
17159
21
6879
31
0
0
LINE
8
A-FLOOR-0-A-STAIR-TREAD
10
17159
20
5700
30
0
11
17159
21
6879
31
0
0
LINE
8
A-STAIR-TREAD
10
16879
20
5700
30
0
11
16879
21
6879
31
0
0
LINE
8
A-FLOOR-0-A-STAIR-TREAD
10
16879
20
5700
30
0
11
16879
21
6879
31
0
0
LINE
8
A-STAIR-TREAD
10
16599
20
5700
30
0
11
16599
21
6879
31
0
0
LINE
8
A-FLOOR-0-A-STAIR-TREAD
10
16599
20
5700
30
0
11
16599
21
6879
31
0
0
LINE
8
A-STAIR-TREAD
10
16319
20
5700
30
0
11
16319
21
6879
31
0
0
LINE
8
A-FLOOR-0-A-STAIR-TREAD
10
16319
20
5700
30
0
11
16319
21
6879
31
0
0
LINE
8
A-STAIR-TREAD
10
16039
20
5700
30
0
11
16039
21
6879
31
0
0
LINE
8
A-FLOOR-0-A-STAIR-TREAD
10
16039
20
5700
30
0
11
16039
21
6879
31
0
0
LINE
8
A-STAIR-TREAD
10
15759
20
5700
30
0
11
15759
21
6879
31
0
0
LINE
8
A-FLOOR-0-A-STAIR-TREAD
10
15759
20
5700
30
0
11
15759
21
6879
31
0
0
LINE
8
A-STAIR-DIR
10
16949
20
6289.5
30
0
11
16249
21
6289.5
31
0
0
LINE
8
A-FLOOR-0-A-STAIR-DIR
10
16949
20
6289.5
30
0
11
16249
21
6289.5
31
0
0
LINE
8
A-STAIR-DIR
10
16249
20
6289.5
30
0
11
16369
21
6209.5
31
0
0
LINE
8
A-FLOOR-0-A-STAIR-DIR
10
16249
20
6289.5
30
0
11
16369
21
6209.5
31
0
0
LINE
8
A-STAIR-DIR
10
16249
20
6289.5
30
0
11
16369
21
6369.5
31
0
0
LINE
8
A-FLOOR-0-A-STAIR-DIR
10
16249
20
6289.5
30
0
11
16369
21
6369.5
31
0
0
POLYLINE
8
A-STAIR
10
0
20
0
30
0
70
0
66
1
40
0
41
0
71
0
72
0
0
VERTEX
8
A-STAIR
10
15479
20
7079
30
0
42
0
0
VERTEX
8
A-STAIR
10
17719
20
7079
30
0
42
0
0
VERTEX
8
A-STAIR
10
17719
20
8258
30
0
42
0
0
VERTEX
8
A-STAIR
10
15479
20
8258
30
0
42
0
0
SEQEND
8
A-STAIR
0
POLYLINE
8
A-FLOOR-0-A-STAIR
10
0
20
0
30
0
70
0
66
1
40
0
41
0
71
0
72
0
0
VERTEX
8
A-FLOOR-0-A-STAIR
10
15479
20
7079
30
0
42
0
0
VERTEX
8
A-FLOOR-0-A-STAIR
10
17719
20
7079
30
0
42
0
0
VERTEX
8
A-FLOOR-0-A-STAIR
10
17719
20
8258
30
0
42
0
0
VERTEX
8
A-FLOOR-0-A-STAIR
10
15479
20
8258
30
0
42
0
0
SEQEND
8
A-FLOOR-0-A-STAIR
0
LINE
8
A-STAIR-TREAD
10
15759
20
7079
30
0
11
15759
21
8258
31
0
0
LINE
8
A-FLOOR-0-A-STAIR-TREAD
10
15759
20
7079
30
0
11
15759
21
8258
31
0
0
LINE
8
A-STAIR-TREAD
10
16039
20
7079
30
0
11
16039
21
8258
31
0
0
LINE
8
A-FLOOR-0-A-STAIR-TREAD
10
16039
20
7079
30
0
11
16039
21
8258
31
0
0
LINE
8
A-STAIR-TREAD
10
16319
20
7079
30
0
11
16319
21
8258
31
0
0
LINE
8
A-FLOOR-0-A-STAIR-TREAD
10
16319
20
7079
30
0
11
16319
21
8258
31
0
0
LINE
8
A-STAIR-TREAD
10
16599
20
7079
30
0
11
16599
21
8258
31
0
0
LINE
8
A-FLOOR-0-A-STAIR-TREAD
10
16599
20
7079
30
0
11
16599
21
8258
31
0
0
LINE
8
A-STAIR-TREAD
10
16879
20
7079
30
0
11
16879
21
8258
31
0
0
LINE
8
A-FLOOR-0-A-STAIR-TREAD
10
16879
20
7079
30
0
11
16879
21
8258
31
0
0
LINE
8
A-STAIR-TREAD
10
17159
20
7079
30
0
11
17159
21
8258
31
0
0
LINE
8
A-FLOOR-0-A-STAIR-TREAD
10
17159
20
7079
30
0
11
17159
21
8258
31
0
0
LINE
8
A-STAIR-TREAD
10
17439
20
7079
30
0
11
17439
21
8258
31
0
0
LINE
8
A-FLOOR-0-A-STAIR-TREAD
10
17439
20
7079
30
0
11
17439
21
8258
31
0
0
LINE
8
A-STAIR-DIR
10
16249
20
7668.5
30
0
11
16949
21
7668.5
31
0
0
LINE
8
A-FLOOR-0-A-STAIR-DIR
10
16249
20
7668.5
30
0
11
16949
21
7668.5
31
0
0
LINE
8
A-STAIR-DIR
10
16949
20
7668.5
30
0
11
16829
21
7588.5
31
0
0
LINE
8
A-FLOOR-0-A-STAIR-DIR
10
16949
20
7668.5
30
0
11
16829
21
7588.5
31
0
0
LINE
8
A-STAIR-DIR
10
16949
20
7668.5
30
0
11
16829
21
7748.5
31
0
0
LINE
8
A-FLOOR-0-A-STAIR-DIR
10
16949
20
7668.5
30
0
11
16829
21
7748.5
31
0
0
TEXT
8
A-STAIR-DIR
10
17469
20
6239.5
30
0
40
180
1
UP
50
0
72
0
11
17469
21
6239.5
31
0
0
TEXT
8
A-FLOOR-0-A-STAIR-DIR
10
17469
20
6239.5
30
0
40
180
1
UP
50
0
72
0
11
17469
21
6239.5
31
0
0
TEXT
8
A-TEXT
10
14100
20
8108
30
0
40
119.21
1
2F . 18R @ 18x28 . F0?F1 u-stair ent.west
50
0
72
0
11
14100
21
8108
31
0
0
TEXT
8
A-FLOOR-0-A-TEXT
10
14100
20
8108
30
0
40
119.21
1
2F . 18R @ 18x28 . F0?F1 u-stair ent.west
50
0
72
0
11
14100
21
8108
31
0
0
LINE
8
A-PARKING
10
2000
20
3500
30
0
11
8000
21
3500
31
0
0
LINE
8
A-FLOOR-0-A-PARKING
10
2000
20
3500
30
0
11
8000
21
3500
31
0
0
LINE
8
A-PARKING
10
8000
20
3500
30
0
11
8000
21
5700
31
0
0
LINE
8
A-FLOOR-0-A-PARKING
10
8000
20
3500
30
0
11
8000
21
5700
31
0
0
LINE
8
A-PARKING
10
8000
20
5700
30
0
11
2000
21
5700
31
0
0
LINE
8
A-FLOOR-0-A-PARKING
10
8000
20
5700
30
0
11
2000
21
5700
31
0
0
LINE
8
A-PARKING
10
2000
20
5700
30
0
11
2000
21
3500
31
0
0
LINE
8
A-FLOOR-0-A-PARKING
10
2000
20
5700
30
0
11
2000
21
3500
31
0
0
TEXT
8
A-PARKING
10
5000
20
4400
30
0
40
250
1
P1 F0
50
0
72
1
11
5000
21
4400
31
0
0
TEXT
8
A-FLOOR-0-A-PARKING
10
5000
20
4400
30
0
40
250
1
P1 F0
50
0
72
1
11
5000
21
4400
31
0
0
POLYLINE
8
A-PARKING
10
0
20
0
30
0
70
1
66
1
40
0
41
0
71
0
72
0
0
VERTEX
8
A-PARKING
10
2000
20
0
30
0
42
0
0
VERTEX
8
A-PARKING
10
8000
20
0
30
0
42
0
0
VERTEX
8
A-PARKING
10
8000
20
3500
30
0
42
0
0
VERTEX
8
A-PARKING
10
2000
20
3500
30
0
42
0
0
SEQEND
8
A-PARKING
0
POLYLINE
8
A-FLOOR-0-A-PARKING
10
0
20
0
30
0
70
1
66
1
40
0
41
0
71
0
72
0
0
VERTEX
8
A-FLOOR-0-A-PARKING
10
2000
20
0
30
0
42
0
0
VERTEX
8
A-FLOOR-0-A-PARKING
10
8000
20
0
30
0
42
0
0
VERTEX
8
A-FLOOR-0-A-PARKING
10
8000
20
3500
30
0
42
0
0
VERTEX
8
A-FLOOR-0-A-PARKING
10
2000
20
3500
30
0
42
0
0
SEQEND
8
A-FLOOR-0-A-PARKING
0
TEXT
8
A-PARKING
10
5000
20
1750
30
0
40
250
1
AISLE
50
0
72
1
11
5000
21
1750
31
0
0
TEXT
8
A-FLOOR-0-A-PARKING
10
5000
20
1750
30
0
40
250
1
AISLE
50
0
72
1
11
5000
21
1750
31
0
0
LINE
8
A-SANITARY
10
3130
20
14230
30
0
11
3630
21
14230
31
0
0
LINE
8
A-FLOOR-0-A-SANITARY
10
3130
20
14230
30
0
11
3630
21
14230
31
0
0
LINE
8
A-SANITARY
10
3630
20
14230
30
0
11
3630
21
14930
31
0
0
LINE
8
A-FLOOR-0-A-SANITARY
10
3630
20
14230
30
0
11
3630
21
14930
31
0
0
LINE
8
A-SANITARY
10
3630
20
14930
30
0
11
3130
21
14930
31
0
0
LINE
8
A-FLOOR-0-A-SANITARY
10
3630
20
14930
30
0
11
3130
21
14930
31
0
0
LINE
8
A-SANITARY
10
3130
20
14930
30
0
11
3130
21
14230
31
0
0
LINE
8
A-FLOOR-0-A-SANITARY
10
3130
20
14930
30
0
11
3130
21
14230
31
0
0
LINE
8
A-SANITARY
10
2050
20
14430
30
0
11
2650
21
14430
31
0
0
LINE
8
A-FLOOR-0-A-SANITARY
10
2050
20
14430
30
0
11
2650
21
14430
31
0
0
LINE
8
A-SANITARY
10
2650
20
14430
30
0
11
2650
21
14930
31
0
0
LINE
8
A-FLOOR-0-A-SANITARY
10
2650
20
14430
30
0
11
2650
21
14930
31
0
0
LINE
8
A-SANITARY
10
2650
20
14930
30
0
11
2050
21
14930
31
0
0
LINE
8
A-FLOOR-0-A-SANITARY
10
2650
20
14930
30
0
11
2050
21
14930
31
0
0
LINE
8
A-SANITARY
10
2050
20
14930
30
0
11
2050
21
14430
31
0
0
LINE
8
A-FLOOR-0-A-SANITARY
10
2050
20
14930
30
0
11
2050
21
14430
31
0
0
LINE
8
A-FURN
10
4565
20
5750
30
0
11
6765
21
5750
31
0
0
LINE
8
A-FLOOR-0-A-FURN
10
4565
20
5750
30
0
11
6765
21
5750
31
0
0
LINE
8
A-FURN
10
6765
20
5750
30
0
11
6765
21
6650
31
0
0
LINE
8
A-FLOOR-0-A-FURN
10
6765
20
5750
30
0
11
6765
21
6650
31
0
0
LINE
8
A-FURN
10
6765
20
6650
30
0
11
4565
21
6650
31
0
0
LINE
8
A-FLOOR-0-A-FURN
10
6765
20
6650
30
0
11
4565
21
6650
31
0
0
LINE
8
A-FURN
10
4565
20
6650
30
0
11
4565
21
5750
31
0
0
LINE
8
A-FLOOR-0-A-FURN
10
4565
20
6650
30
0
11
4565
21
5750
31
0
0
LINE
8
A-FURN
10
8375
20
9940
30
0
11
9575
21
9940
31
0
0
LINE
8
A-FLOOR-0-A-FURN
10
8375
20
9940
30
0
11
9575
21
9940
31
0
0
LINE
8
A-FURN
10
9575
20
9940
30
0
11
9575
21
10740
31
0
0
LINE
8
A-FLOOR-0-A-FURN
10
9575
20
9940
30
0
11
9575
21
10740
31
0
0
LINE
8
A-FURN
10
9575
20
10740
30
0
11
8375
21
10740
31
0
0
LINE
8
A-FLOOR-0-A-FURN
10
9575
20
10740
30
0
11
8375
21
10740
31
0
0
LINE
8
A-FURN
10
8375
20
10740
30
0
11
8375
21
9940
31
0
0
LINE
8
A-FLOOR-0-A-FURN
10
8375
20
10740
30
0
11
8375
21
9940
31
0
0
POLYLINE
8
A-ROOM
10
0
20
0
30
0
70
1
66
1
40
0
41
0
71
0
72
0
0
VERTEX
8
A-ROOM
10
2000
20
5700
30
0
42
0
0
VERTEX
8
A-ROOM
10
3680
20
5700
30
0
42
0
0
VERTEX
8
A-ROOM
10
3680
20
7500
30
0
42
0
0
VERTEX
8
A-ROOM
10
2000
20
7500
30
0
42
0
0
SEQEND
8
A-ROOM
0
POLYLINE
8
A-FLOOR-0-A-ROOM
10
0
20
0
30
0
70
1
66
1
40
0
41
0
71
0
72
0
0
VERTEX
8
A-FLOOR-0-A-ROOM
10
2000
20
5700
30
0
42
0
0
VERTEX
8
A-FLOOR-0-A-ROOM
10
3680
20
5700
30
0
42
0
0
VERTEX
8
A-FLOOR-0-A-ROOM
10
3680
20
7500
30
0
42
0
0
VERTEX
8
A-FLOOR-0-A-ROOM
10
2000
20
7500
30
0
42
0
0
SEQEND
8
A-FLOOR-0-A-ROOM
0
POLYLINE
8
A-ROOM
10
0
20
0
30
0
70
1
66
1
40
0
41
0
71
0
72
0
0
VERTEX
8
A-ROOM
10
2000
20
7500
30
0
42
0
0
VERTEX
8
A-ROOM
10
3680
20
7500
30
0
42
0
0
VERTEX
8
A-ROOM
10
3680
20
12880
30
0
42
0
0
VERTEX
8
A-ROOM
10
2000
20
12880
30
0
42
0
0
SEQEND
8
A-ROOM
0
POLYLINE
8
A-FLOOR-0-A-ROOM
10
0
20
0
30
0
70
1
66
1
40
0
41
0
71
0
72
0
0
VERTEX
8
A-FLOOR-0-A-ROOM
10
2000
20
7500
30
0
42
0
0
VERTEX
8
A-FLOOR-0-A-ROOM
10
3680
20
7500
30
0
42
0
0
VERTEX
8
A-FLOOR-0-A-ROOM
10
3680
20
12880
30
0
42
0
0
VERTEX
8
A-FLOOR-0-A-ROOM
10
2000
20
12880
30
0
42
0
0
SEQEND
8
A-FLOOR-0-A-ROOM
0
POLYLINE
8
A-ROOM
10
0
20
0
30
0
70
1
66
1
40
0
41
0
71
0
72
0
0
VERTEX
8
A-ROOM
10
2000
20
12880
30
0
42
0
0
VERTEX
8
A-ROOM
10
3680
20
12880
30
0
42
0
0
VERTEX
8
A-ROOM
10
3680
20
14980
30
0
42
0
0
VERTEX
8
A-ROOM
10
2000
20
14980
30
0
42
0
0
SEQEND
8
A-ROOM
0
POLYLINE
8
A-FLOOR-0-A-ROOM
10
0
20
0
30
0
70
1
66
1
40
0
41
0
71
0
72
0
0
VERTEX
8
A-FLOOR-0-A-ROOM
10
2000
20
12880
30
0
42
0
0
VERTEX
8
A-FLOOR-0-A-ROOM
10
3680
20
12880
30
0
42
0
0
VERTEX
8
A-FLOOR-0-A-ROOM
10
3680
20
14980
30
0
42
0
0
VERTEX
8
A-FLOOR-0-A-ROOM
10
2000
20
14980
30
0
42
0
0
SEQEND
8
A-FLOOR-0-A-ROOM
0
POLYLINE
8
A-ROOM
10
0
20
0
30
0
70
1
66
1
40
0
41
0
71
0
72
0
0
VERTEX
8
A-ROOM
10
10300
20
7980
30
0
42
0
0
VERTEX
8
A-ROOM
10
12500
20
7980
30
0
42
0
0
VERTEX
8
A-ROOM
10
12500
20
14980
30
0
42
0
0
VERTEX
8
A-ROOM
10
10300
20
14980
30
0
42
0
0
SEQEND
8
A-ROOM
0
POLYLINE
8
A-FLOOR-0-A-ROOM
10
0
20
0
30
0
70
1
66
1
40
0
41
0
71
0
72
0
0
VERTEX
8
A-FLOOR-0-A-ROOM
10
10300
20
7980
30
0
42
0
0
VERTEX
8
A-FLOOR-0-A-ROOM
10
12500
20
7980
30
0
42
0
0
VERTEX
8
A-FLOOR-0-A-ROOM
10
12500
20
14980
30
0
42
0
0
VERTEX
8
A-FLOOR-0-A-ROOM
10
10300
20
14980
30
0
42
0
0
SEQEND
8
A-FLOOR-0-A-ROOM
0
POLYLINE
8
A-ROOM
10
0
20
0
30
0
70
1
66
1
40
0
41
0
71
0
72
0
0
VERTEX
8
A-ROOM
10
3680
20
5700
30
0
42
0
0
VERTEX
8
A-ROOM
10
7650
20
5700
30
0
42
0
0
VERTEX
8
A-ROOM
10
7650
20
14980
30
0
42
0
0
VERTEX
8
A-ROOM
10
3680
20
14980
30
0
42
0
0
SEQEND
8
A-ROOM
0
POLYLINE
8
A-FLOOR-0-A-ROOM
10
0
20
0
30
0
70
1
66
1
40
0
41
0
71
0
72
0
0
VERTEX
8
A-FLOOR-0-A-ROOM
10
3680
20
5700
30
0
42
0
0
VERTEX
8
A-FLOOR-0-A-ROOM
10
7650
20
5700
30
0
42
0
0
VERTEX
8
A-FLOOR-0-A-ROOM
10
7650
20
14980
30
0
42
0
0
VERTEX
8
A-FLOOR-0-A-ROOM
10
3680
20
14980
30
0
42
0
0
SEQEND
8
A-FLOOR-0-A-ROOM
0
POLYLINE
8
A-ROOM
10
0
20
0
30
0
70
1
66
1
40
0
41
0
71
0
72
0
0
VERTEX
8
A-ROOM
10
7650
20
5700
30
0
42
0
0
VERTEX
8
A-ROOM
10
10300
20
5700
30
0
42
0
0
VERTEX
8
A-ROOM
10
10300
20
14980
30
0
42
0
0
VERTEX
8
A-ROOM
10
7650
20
14980
30
0
42
0
0
SEQEND
8
A-ROOM
0
POLYLINE
8
A-FLOOR-0-A-ROOM
10
0
20
0
30
0
70
1
66
1
40
0
41
0
71
0
72
0
0
VERTEX
8
A-FLOOR-0-A-ROOM
10
7650
20
5700
30
0
42
0
0
VERTEX
8
A-FLOOR-0-A-ROOM
10
10300
20
5700
30
0
42
0
0
VERTEX
8
A-FLOOR-0-A-ROOM
10
10300
20
14980
30
0
42
0
0
VERTEX
8
A-FLOOR-0-A-ROOM
10
7650
20
14980
30
0
42
0
0
SEQEND
8
A-FLOOR-0-A-ROOM
0
POLYLINE
8
A-ROOM
10
0
20
0
30
0
70
1
66
1
40
0
41
0
71
0
72
0
0
VERTEX
8
A-ROOM
10
14000
20
5700
30
0
42
0
0
VERTEX
8
A-ROOM
10
18000
20
5700
30
0
42
0
0
VERTEX
8
A-ROOM
10
18000
20
8320
30
0
42
0
0
VERTEX
8
A-ROOM
10
14000
20
8320
30
0
42
0
0
SEQEND
8
A-ROOM
0
POLYLINE
8
A-FLOOR-0-A-ROOM
10
0
20
0
30
0
70
1
66
1
40
0
41
0
71
0
72
0
0
VERTEX
8
A-FLOOR-0-A-ROOM
10
14000
20
5700
30
0
42
0
0
VERTEX
8
A-FLOOR-0-A-ROOM
10
18000
20
5700
30
0
42
0
0
VERTEX
8
A-FLOOR-0-A-ROOM
10
18000
20
8320
30
0
42
0
0
VERTEX
8
A-FLOOR-0-A-ROOM
10
14000
20
8320
30
0
42
0
0
SEQEND
8
A-FLOOR-0-A-ROOM
0
POLYLINE
8
A-ROOM
10
0
20
0
30
0
70
1
66
1
40
0
41
0
71
0
72
0
0
VERTEX
8
A-ROOM
10
2000
20
14980
30
0
42
0
0
VERTEX
8
A-ROOM
10
12500
20
14980
30
0
42
0
0
VERTEX
8
A-ROOM
10
12500
20
16480
30
0
42
0
0
VERTEX
8
A-ROOM
10
2000
20
16480
30
0
42
0
0
SEQEND
8
A-ROOM
0
POLYLINE
8
A-FLOOR-0-A-ROOM
10
0
20
0
30
0
70
1
66
1
40
0
41
0
71
0
72
0
0
VERTEX
8
A-FLOOR-0-A-ROOM
10
2000
20
14980
30
0
42
0
0
VERTEX
8
A-FLOOR-0-A-ROOM
10
12500
20
14980
30
0
42
0
0
VERTEX
8
A-FLOOR-0-A-ROOM
10
12500
20
16480
30
0
42
0
0
VERTEX
8
A-FLOOR-0-A-ROOM
10
2000
20
16480
30
0
42
0
0
SEQEND
8
A-FLOOR-0-A-ROOM
0
POLYLINE
8
A-ROOM
10
0
20
0
30
0
70
1
66
1
40
0
41
0
71
0
72
0
0
VERTEX
8
A-ROOM
10
12500
20
5700
30
0
42
0
0
VERTEX
8
A-ROOM
10
14000
20
5700
30
0
42
0
0
VERTEX
8
A-ROOM
10
14000
20
16480
30
0
42
0
0
VERTEX
8
A-ROOM
10
12500
20
16480
30
0
42
0
0
SEQEND
8
A-ROOM
0
POLYLINE
8
A-FLOOR-0-A-ROOM
10
0
20
0
30
0
70
1
66
1
40
0
41
0
71
0
72
0
0
VERTEX
8
A-FLOOR-0-A-ROOM
10
12500
20
5700
30
0
42
0
0
VERTEX
8
A-FLOOR-0-A-ROOM
10
14000
20
5700
30
0
42
0
0
VERTEX
8
A-FLOOR-0-A-ROOM
10
14000
20
16480
30
0
42
0
0
VERTEX
8
A-FLOOR-0-A-ROOM
10
12500
20
16480
30
0
42
0
0
SEQEND
8
A-FLOOR-0-A-ROOM
0
TEXT
8
A-ROOM
10
2840
20
6691.41
30
0
40
147.44
1
Entrance . F0
50
0
72
1
11
2840
21
6691.41
31
0
0
TEXT
8
A-FLOOR-0-A-ROOM
10
2840
20
6691.41
30
0
40
147.44
1
Entrance . F0
50
0
72
1
11
2840
21
6691.41
31
0
0
TEXT
8
A-ROOM
10
2840
20
6508.59
30
0
40
103.21
1
3.0 m2
50
0
72
1
11
2840
21
6508.59
31
0
0
TEXT
8
A-FLOOR-0-A-ROOM
10
2840
20
6508.59
30
0
40
103.21
1
3.0 m2
50
0
72
1
11
2840
21
6508.59
31
0
0
TEXT
8
A-ROOM
10
3057.91
20
10190
30
0
40
350
1
Foyer . F0
50
90
72
1
11
3057.91
21
10190
31
0
0
TEXT
8
A-FLOOR-0-A-ROOM
10
3057.91
20
10190
30
0
40
350
1
Foyer . F0
50
90
72
1
11
3057.91
21
10190
31
0
0
TEXT
8
A-ROOM
10
2623.91
20
10190
30
0
40
245
1
9.0 m2
50
90
72
1
11
2623.91
21
10190
31
0
0
TEXT
8
A-FLOOR-0-A-ROOM
10
2623.91
20
10190
30
0
40
245
1
9.0 m2
50
90
72
1
11
2623.91
21
10190
31
0
0
TEXT
8
A-ROOM
10
2958.77
20
13928.63
30
0
40
192.31
1
Guest WC . F0
50
90
72
1
11
2958.77
21
13928.63
31
0
0
TEXT
8
A-FLOOR-0-A-ROOM
10
2958.77
20
13928.63
30
0
40
192.31
1
Guest WC . F0
50
90
72
1
11
2958.77
21
13928.63
31
0
0
TEXT
8
A-ROOM
10
2720.31
20
13928.63
30
0
40
134.62
1
3.5 m2
50
90
72
1
11
2720.31
21
13928.63
31
0
0
TEXT
8
A-FLOOR-0-A-ROOM
10
2720.31
20
13928.63
30
0
40
134.62
1
3.5 m2
50
90
72
1
11
2720.31
21
13928.63
31
0
0
TEXT
8
A-ROOM
10
11617
20
11480
30
0
40
350
1
Kitchen . F0
50
90
72
1
11
11617
21
11480
31
0
0
TEXT
8
A-FLOOR-0-A-ROOM
10
11617
20
11480
30
0
40
350
1
Kitchen . F0
50
90
72
1
11
11617
21
11480
31
0
0
TEXT
8
A-ROOM
10
11183
20
11480
30
0
40
245
1
15.4 m2
50
90
72
1
11
11183
21
11480
31
0
0
TEXT
8
A-FLOOR-0-A-ROOM
10
11183
20
11480
30
0
40
245
1
15.4 m2
50
90
72
1
11
11183
21
11480
31
0
0
TEXT
8
A-ROOM
10
5665
20
10537.52
30
0
40
318.58
1
Living Room . F0
50
0
72
1
11
5665
21
10537.52
31
0
0
TEXT
8
A-FLOOR-0-A-ROOM
10
5665
20
10537.52
30
0
40
318.58
1
Living Room . F0
50
0
72
1
11
5665
21
10537.52
31
0
0
TEXT
8
A-ROOM
10
5665
20
10142.48
30
0
40
223
1
36.8 m2
50
0
72
1
11
5665
21
10142.48
31
0
0
TEXT
8
A-FLOOR-0-A-ROOM
10
5665
20
10142.48
30
0
40
223
1
36.8 m2
50
0
72
1
11
5665
21
10142.48
31
0
0
TEXT
8
A-ROOM
10
9190.01
20
10333.96
30
0
40
350
1
Dining . F0
50
90
72
1
11
9190.01
21
10333.96
31
0
0
TEXT
8
A-FLOOR-0-A-ROOM
10
9190.01
20
10333.96
30
0
40
350
1
Dining . F0
50
90
72
1
11
9190.01
21
10333.96
31
0
0
TEXT
8
A-ROOM
10
8756.01
20
10333.96
30
0
40
245
1
24.6 m2
50
90
72
1
11
8756.01
21
10333.96
31
0
0
TEXT
8
A-FLOOR-0-A-ROOM
10
8756.01
20
10333.96
30
0
40
245
1
24.6 m2
50
90
72
1
11
8756.01
21
10333.96
31
0
0
TEXT
8
A-ROOM
10
16000
20
7222.41
30
0
40
342.59
1
Stair Hall . F0
50
0
72
1
11
16000
21
7222.41
31
0
0
TEXT
8
A-FLOOR-0-A-ROOM
10
16000
20
7222.41
30
0
40
342.59
1
Stair Hall . F0
50
0
72
1
11
16000
21
7222.41
31
0
0
TEXT
8
A-ROOM
10
16000
20
6797.59
30
0
40
239.81
1
10.5 m2
50
0
72
1
11
16000
21
6797.59
31
0
0
TEXT
8
A-FLOOR-0-A-ROOM
10
16000
20
6797.59
30
0
40
239.81
1
10.5 m2
50
0
72
1
11
16000
21
6797.59
31
0
0
TEXT
8
A-ROOM
10
7161.13
20
15949.93
30
0
40
350
1
Corridor . F0
50
0
72
1
11
7161.13
21
15949.93
31
0
0
TEXT
8
A-FLOOR-0-A-ROOM
10
7161.13
20
15949.93
30
0
40
350
1
Corridor . F0
50
0
72
1
11
7161.13
21
15949.93
31
0
0
TEXT
8
A-ROOM
10
7161.13
20
15515.93
30
0
40
245
1
15.8 m2
50
0
72
1
11
7161.13
21
15515.93
31
0
0
TEXT
8
A-FLOOR-0-A-ROOM
10
7161.13
20
15515.93
30
0
40
245
1
15.8 m2
50
0
72
1
11
7161.13
21
15515.93
31
0
0
TEXT
8
A-ROOM
10
13464.34
20
11090
30
0
40
350
1
Corridor . F0
50
90
72
1
11
13464.34
21
11090
31
0
0
TEXT
8
A-FLOOR-0-A-ROOM
10
13464.34
20
11090
30
0
40
350
1
Corridor . F0
50
90
72
1
11
13464.34
21
11090
31
0
0
TEXT
8
A-ROOM
10
13030.34
20
11090
30
0
40
245
1
16.2 m2
50
90
72
1
11
13030.34
21
11090
31
0
0
TEXT
8
A-FLOOR-0-A-ROOM
10
13030.34
20
11090
30
0
40
245
1
16.2 m2
50
90
72
1
11
13030.34
21
11090
31
0
0
LINE
8
A-GRID
10
2000
20
1000
30
0
11
2000
21
23500
31
0
0
LINE
8
A-AXIS
10
10000
20
1000
30
0
11
10000
21
23500
31
0
0
LINE
8
A-GRID
10
18000
20
1000
30
0
11
18000
21
23500
31
0
0
LINE
8
A-GRID
10
1500
20
1500
30
0
11
18500
21
1500
31
0
0
LINE
8
A-AXIS
10
1500
20
12250
30
0
11
18500
21
12250
31
0
0
LINE
8
A-GRID
10
1500
20
23000
30
0
11
18500
21
23000
31
0
0
TEXT
8
A-AXIS-TEXT
10
1300
20
23300
30
0
40
250
1
A
50
0
72
1
11
1300
21
23300
31
0
0
TEXT
8
A-AXIS-TEXT
10
10000
20
23300
30
0
40
250
1
B
50
0
72
1
11
10000
21
23300
31
0
0
TEXT
8
A-AXIS-TEXT
10
18300
20
23300
30
0
40
250
1
C
50
0
72
0
11
18300
21
23300
31
0
0
TEXT
8
A-AXIS-TEXT
10
1300
20
800
30
0
40
250
1
1
50
0
72
2
11
1300
21
800
31
0
0
TEXT
8
A-AXIS-TEXT
10
1300
20
12250
30
0
40
250
1
2
50
0
72
2
11
1300
21
12250
31
0
0
LINE
8
A-DIMS
10
2000
20
1400
30
0
11
2000
21
350
31
0
0
LINE
8
A-FLOOR-0-A-DIMS
10
2000
20
1400
30
0
11
2000
21
350
31
0
0
LINE
8
A-DIMS
10
18000
20
1400
30
0
11
18000
21
350
31
0
0
LINE
8
A-FLOOR-0-A-DIMS
10
18000
20
1400
30
0
11
18000
21
350
31
0
0
LINE
8
A-DIMS
10
2000
20
500
30
0
11
18000
21
500
31
0
0
LINE
8
A-FLOOR-0-A-DIMS
10
2000
20
500
30
0
11
18000
21
500
31
0
0
LINE
8
A-DIMS
10
1950
20
450
30
0
11
2050
21
550
31
0
0
LINE
8
A-FLOOR-0-A-DIMS
10
1950
20
450
30
0
11
2050
21
550
31
0
0
LINE
8
A-DIMS
10
17950
20
450
30
0
11
18050
21
550
31
0
0
LINE
8
A-FLOOR-0-A-DIMS
10
17950
20
450
30
0
11
18050
21
550
31
0
0
TEXT
8
A-DIMS
10
10000
20
180
30
0
40
200
1
16.00 m F0
50
0
72
1
11
10000
21
180
31
0
0
TEXT
8
A-FLOOR-0-A-DIMS
10
10000
20
180
30
0
40
200
1
16.00 m F0
50
0
72
1
11
10000
21
180
31
0
0
LINE
8
A-DIMS
10
1900
20
1500
30
0
11
850
21
1500
31
0
0
LINE
8
A-FLOOR-0-A-DIMS
10
1900
20
1500
30
0
11
850
21
1500
31
0
0
LINE
8
A-DIMS
10
1900
20
16655
30
0
11
850
21
16655
31
0
0
LINE
8
A-FLOOR-0-A-DIMS
10
1900
20
16655
30
0
11
850
21
16655
31
0
0
LINE
8
A-DIMS
10
1000
20
1500
30
0
11
1000
21
16655
31
0
0
LINE
8
A-FLOOR-0-A-DIMS
10
1000
20
1500
30
0
11
1000
21
16655
31
0
0
LINE
8
A-DIMS
10
1050
20
1450
30
0
11
950
21
1550
31
0
0
LINE
8
A-FLOOR-0-A-DIMS
10
1050
20
1450
30
0
11
950
21
1550
31
0
0
LINE
8
A-DIMS
10
1050
20
16605
30
0
11
950
21
16705
31
0
0
LINE
8
A-FLOOR-0-A-DIMS
10
1050
20
16605
30
0
11
950
21
16705
31
0
0
TEXT
8
A-DIMS
10
700
20
9077.5
30
0
40
200
1
15.16 m
50
0
72
2
11
700
21
9077.5
31
0
0
TEXT
8
A-FLOOR-0-A-DIMS
10
700
20
9077.5
30
0
40
200
1
15.16 m
50
0
72
2
11
700
21
9077.5
31
0
0
LINE
8
A-DIMS
10
10300
20
7800
30
0
11
12500
21
7800
31
0
0
LINE
8
A-FLOOR-0-A-DIMS
10
10300
20
7800
30
0
11
12500
21
7800
31
0
0
LINE
8
A-DIMS
10
10250
20
7750
30
0
11
10350
21
7850
31
0
0
LINE
8
A-FLOOR-0-A-DIMS
10
10250
20
7750
30
0
11
10350
21
7850
31
0
0
LINE
8
A-DIMS
10
12450
20
7750
30
0
11
12550
21
7850
31
0
0
LINE
8
A-FLOOR-0-A-DIMS
10
12450
20
7750
30
0
11
12550
21
7850
31
0
0
TEXT
8
A-DIMS
10
11400
20
7640
30
0
40
120
1
2.20 m
50
0
72
1
11
11400
21
7640
31
0
0
TEXT
8
A-FLOOR-0-A-DIMS
10
11400
20
7640
30
0
40
120
1
2.20 m
50
0
72
1
11
11400
21
7640
31
0
0
LINE
8
A-DIMS
10
3680
20
5520
30
0
11
7650
21
5520
31
0
0
LINE
8
A-FLOOR-0-A-DIMS
10
3680
20
5520
30
0
11
7650
21
5520
31
0
0
LINE
8
A-DIMS
10
3630
20
5470
30
0
11
3730
21
5570
31
0
0
LINE
8
A-FLOOR-0-A-DIMS
10
3630
20
5470
30
0
11
3730
21
5570
31
0
0
LINE
8
A-DIMS
10
7600
20
5470
30
0
11
7700
21
5570
31
0
0
LINE
8
A-FLOOR-0-A-DIMS
10
7600
20
5470
30
0
11
7700
21
5570
31
0
0
TEXT
8
A-DIMS
10
5665
20
5360
30
0
40
120
1
3.97 m
50
0
72
1
11
5665
21
5360
31
0
0
TEXT
8
A-FLOOR-0-A-DIMS
10
5665
20
5360
30
0
40
120
1
3.97 m
50
0
72
1
11
5665
21
5360
31
0
0
LINE
8
A-DIMS
10
7650
20
5520
30
0
11
10300
21
5520
31
0
0
LINE
8
A-FLOOR-0-A-DIMS
10
7650
20
5520
30
0
11
10300
21
5520
31
0
0
LINE
8
A-DIMS
10
10250
20
5470
30
0
11
10350
21
5570
31
0
0
LINE
8
A-FLOOR-0-A-DIMS
10
10250
20
5470
30
0
11
10350
21
5570
31
0
0
TEXT
8
A-DIMS
10
8975
20
5360
30
0
40
120
1
2.65 m
50
0
72
1
11
8975
21
5360
31
0
0
TEXT
8
A-FLOOR-0-A-DIMS
10
8975
20
5360
30
0
40
120
1
2.65 m
50
0
72
1
11
8975
21
5360
31
0
0
LINE
8
A-DIMS
10
14000
20
5520
30
0
11
18000
21
5520
31
0
0
LINE
8
A-FLOOR-0-A-DIMS
10
14000
20
5520
30
0
11
18000
21
5520
31
0
0
LINE
8
A-DIMS
10
13950
20
5470
30
0
11
14050
21
5570
31
0
0
LINE
8
A-FLOOR-0-A-DIMS
10
13950
20
5470
30
0
11
14050
21
5570
31
0
0
LINE
8
A-DIMS
10
17950
20
5470
30
0
11
18050
21
5570
31
0
0
LINE
8
A-FLOOR-0-A-DIMS
10
17950
20
5470
30
0
11
18050
21
5570
31
0
0
TEXT
8
A-DIMS
10
16000
20
5360
30
0
40
120
1
4.00 m
50
0
72
1
11
16000
21
5360
31
0
0
TEXT
8
A-FLOOR-0-A-DIMS
10
16000
20
5360
30
0
40
120
1
4.00 m
50
0
72
1
11
16000
21
5360
31
0
0
LINE
8
A-DIMS
10
0
20
-600
30
0
11
0
21
-2050
31
0
0
LINE
8
A-FLOOR-0-A-DIMS
10
0
20
-600
30
0
11
0
21
-2050
31
0
0
LINE
8
A-DIMS
10
20000
20
-600
30
0
11
20000
21
-2050
31
0
0
LINE
8
A-FLOOR-0-A-DIMS
10
20000
20
-600
30
0
11
20000
21
-2050
31
0
0
LINE
8
A-DIMS
10
0
20
-1900
30
0
11
20000
21
-1900
31
0
0
LINE
8
A-FLOOR-0-A-DIMS
10
0
20
-1900
30
0
11
20000
21
-1900
31
0
0
LINE
8
A-DIMS
10
-50
20
-1950
30
0
11
50
21
-1850
31
0
0
LINE
8
A-FLOOR-0-A-DIMS
10
-50
20
-1950
30
0
11
50
21
-1850
31
0
0
LINE
8
A-DIMS
10
19950
20
-1950
30
0
11
20050
21
-1850
31
0
0
LINE
8
A-FLOOR-0-A-DIMS
10
19950
20
-1950
30
0
11
20050
21
-1850
31
0
0
TEXT
8
A-DIMS
10
10000
20
-2240
30
0
40
220
1
SITE 20.00 m
50
0
72
1
11
10000
21
-2240
31
0
0
TEXT
8
A-FLOOR-0-A-DIMS
10
10000
20
-2240
30
0
40
220
1
SITE 20.00 m
50
0
72
1
11
10000
21
-2240
31
0
0
LINE
8
A-DIMS
10
-600
20
0
30
0
11
-2500
21
0
31
0
0
LINE
8
A-FLOOR-0-A-DIMS
10
-600
20
0
30
0
11
-2500
21
0
31
0
0
LINE
8
A-DIMS
10
-600
20
26000
30
0
11
-2500
21
26000
31
0
0
LINE
8
A-FLOOR-0-A-DIMS
10
-600
20
26000
30
0
11
-2500
21
26000
31
0
0
LINE
8
A-DIMS
10
-1900
20
0
30
0
11
-1900
21
26000
31
0
0
LINE
8
A-FLOOR-0-A-DIMS
10
-1900
20
0
30
0
11
-1900
21
26000
31
0
0
LINE
8
A-DIMS
10
-1850
20
-50
30
0
11
-1950
21
50
31
0
0
LINE
8
A-FLOOR-0-A-DIMS
10
-1850
20
-50
30
0
11
-1950
21
50
31
0
0
LINE
8
A-DIMS
10
-1850
20
25950
30
0
11
-1950
21
26050
31
0
0
LINE
8
A-FLOOR-0-A-DIMS
10
-1850
20
25950
30
0
11
-1950
21
26050
31
0
0
TEXT
8
A-DIMS
10
-2240
20
13000
30
0
40
220
1
SITE 26.00 m
50
0
72
2
11
-2240
21
13000
31
0
0
TEXT
8
A-FLOOR-0-A-DIMS
10
-2240
20
13000
30
0
40
220
1
SITE 26.00 m
50
0
72
2
11
-2240
21
13000
31
0
0
LINE
8
A-NORTH
10
16800
20
16355
30
0
11
16800
21
17155
31
0
0
LINE
8
A-NORTH
10
16800
20
17155
30
0
11
16650
21
16855
31
0
0
LINE
8
A-NORTH
10
16800
20
17155
30
0
11
16950
21
16855
31
0
0
LINE
8
A-NORTH
10
16960
20
16355
30
0
11
16954.55
21
16396.41
31
0
0
LINE
8
A-NORTH
10
16954.55
20
16396.41
30
0
11
16938.56
21
16435
31
0
0
LINE
8
A-NORTH
10
16938.56
20
16435
30
0
11
16913.14
21
16468.14
31
0
0
LINE
8
A-NORTH
10
16913.14
20
16468.14
30
0
11
16880
21
16493.56
31
0
0
LINE
8
A-NORTH
10
16880
20
16493.56
30
0
11
16841.41
21
16509.55
31
0
0
LINE
8
A-NORTH
10
16841.41
20
16509.55
30
0
11
16800
21
16515
31
0
0
LINE
8
A-NORTH
10
16800
20
16515
30
0
11
16758.59
21
16509.55
31
0
0
LINE
8
A-NORTH
10
16758.59
20
16509.55
30
0
11
16720
21
16493.56
31
0
0
LINE
8
A-NORTH
10
16720
20
16493.56
30
0
11
16686.86
21
16468.14
31
0
0
LINE
8
A-NORTH
10
16686.86
20
16468.14
30
0
11
16661.44
21
16435
31
0
0
LINE
8
A-NORTH
10
16661.44
20
16435
30
0
11
16645.45
21
16396.41
31
0
0
LINE
8
A-NORTH
10
16645.45
20
16396.41
30
0
11
16640
21
16355
31
0
0
LINE
8
A-NORTH
10
16640
20
16355
30
0
11
16645.45
21
16313.59
31
0
0
LINE
8
A-NORTH
10
16645.45
20
16313.59
30
0
11
16661.44
21
16275
31
0
0
LINE
8
A-NORTH
10
16661.44
20
16275
30
0
11
16686.86
21
16241.86
31
0
0
LINE
8
A-NORTH
10
16686.86
20
16241.86
30
0
11
16720
21
16216.44
31
0
0
LINE
8
A-NORTH
10
16720
20
16216.44
30
0
11
16758.59
21
16200.45
31
0
0
LINE
8
A-NORTH
10
16758.59
20
16200.45
30
0
11
16800
21
16195
31
0
0
LINE
8
A-NORTH
10
16800
20
16195
30
0
11
16841.41
21
16200.45
31
0
0
LINE
8
A-NORTH
10
16841.41
20
16200.45
30
0
11
16880
21
16216.44
31
0
0
LINE
8
A-NORTH
10
16880
20
16216.44
30
0
11
16913.14
21
16241.86
31
0
0
LINE
8
A-NORTH
10
16913.14
20
16241.86
30
0
11
16938.56
21
16275
31
0
0
LINE
8
A-NORTH
10
16938.56
20
16275
30
0
11
16954.55
21
16313.59
31
0
0
LINE
8
A-NORTH
10
16954.55
20
16313.59
30
0
11
16960
21
16355
31
0
0
TEXT
8
A-NORTH
10
16800
20
17355
30
0
40
250
1
N
50
0
72
1
11
16800
21
17355
31
0
0
POLYLINE
8
A-FLOOR-1-A-BLDG-OUT
10
0
20
0
30
0
70
1
66
1
40
0
41
0
71
0
72
0
0
VERTEX
8
A-FLOOR-1-A-BLDG-OUT
10
2000
20
27000
30
0
42
0
0
VERTEX
8
A-FLOOR-1-A-BLDG-OUT
10
18000
20
27000
30
0
42
0
0
VERTEX
8
A-FLOOR-1-A-BLDG-OUT
10
18000
20
42500
30
0
42
0
0
VERTEX
8
A-FLOOR-1-A-BLDG-OUT
10
14000
20
42500
30
0
42
0
0
VERTEX
8
A-FLOOR-1-A-BLDG-OUT
10
14000
20
48500
30
0
42
0
0
VERTEX
8
A-FLOOR-1-A-BLDG-OUT
10
2000
20
48500
30
0
42
0
0
SEQEND
8
A-FLOOR-1-A-BLDG-OUT
0
POLYLINE
8
A-FLOOR-1-A-SETBACK
10
0
20
0
30
0
70
1
66
1
40
0
41
0
71
0
72
0
0
VERTEX
8
A-FLOOR-1-A-SETBACK
10
2000
20
27000
30
0
42
0
0
VERTEX
8
A-FLOOR-1-A-SETBACK
10
18000
20
27000
30
0
42
0
0
VERTEX
8
A-FLOOR-1-A-SETBACK
10
18000
20
42500
30
0
42
0
0
VERTEX
8
A-FLOOR-1-A-SETBACK
10
14000
20
42500
30
0
42
0
0
VERTEX
8
A-FLOOR-1-A-SETBACK
10
14000
20
48500
30
0
42
0
0
VERTEX
8
A-FLOOR-1-A-SETBACK
10
2000
20
48500
30
0
42
0
0
SEQEND
8
A-FLOOR-1-A-SETBACK
0
POLYLINE
8
A-FLOOR-1-A-SITE
10
0
20
0
30
0
70
1
66
1
40
0
41
0
71
0
72
0
0
VERTEX
8
A-FLOOR-1-A-SITE
10
0
20
25500
30
0
42
0
0
VERTEX
8
A-FLOOR-1-A-SITE
10
20000
20
25500
30
0
42
0
0
VERTEX
8
A-FLOOR-1-A-SITE
10
20000
20
45500
30
0
42
0
0
VERTEX
8
A-FLOOR-1-A-SITE
10
16000
20
45500
30
0
42
0
0
VERTEX
8
A-FLOOR-1-A-SITE
10
16000
20
51500
30
0
42
0
0
VERTEX
8
A-FLOOR-1-A-SITE
10
0
20
51500
30
0
42
0
0
SEQEND
8
A-FLOOR-1-A-SITE
0
TEXT
8
A-FLOOR-1-A-TEXT
10
2000
20
49000
30
0
40
300
1
FLOOR 1 - ELEV 3.20 m
50
0
72
0
11
2000
21
49000
31
0
0
LINE
8
A-FLOOR-1-A-WALL-INT
10
14000
20
37445
30
0
11
15550
21
37445
31
0
0
LINE
8
A-FLOOR-1-A-WALL-INT
10
14000
20
37295
30
0
11
15550
21
37295
31
0
0
LINE
8
A-FLOOR-1-A-WALL-INT
10
14000
20
37445
30
0
11
14000
21
37295
31
0
0
LINE
8
A-FLOOR-1-A-WALL-INT
10
16450
20
37445
30
0
11
18000
21
37445
31
0
0
LINE
8
A-FLOOR-1-A-WALL-INT
10
16450
20
37295
30
0
11
18000
21
37295
31
0
0
LINE
8
A-FLOOR-1-A-WALL-INT
10
18000
20
37445
30
0
11
18000
21
37295
31
0
0
LINE
8
A-FLOOR-1-A-WALL-INT
10
15550
20
37445
30
0
11
15550
21
37295
31
0
0
LINE
8
A-FLOOR-1-A-WALL-INT
10
16450
20
37445
30
0
11
16450
21
37295
31
0
0
LINE
8
A-FLOOR-1-A-WALL-EXT
10
17825
20
31200
30
0
11
17825
21
33820
31
0
0
LINE
8
A-FLOOR-1-A-WALL-EXT
10
18175
20
31200
30
0
11
18175
21
33820
31
0
0
LINE
8
A-FLOOR-1-A-WALL-EXT
10
17825
20
31200
30
0
11
18175
21
31200
31
0
0
LINE
8
A-FLOOR-1-A-WALL-EXT
10
17825
20
33820
30
0
11
18175
21
33820
31
0
0
LINE
8
A-FLOOR-1-A-WALL-EXT
10
17825
20
35870
30
0
11
17825
21
37370
31
0
0
LINE
8
A-FLOOR-1-A-WALL-EXT
10
18175
20
35870
30
0
11
18175
21
37370
31
0
0
LINE
8
A-FLOOR-1-A-WALL-EXT
10
17825
20
35870
30
0
11
18175
21
35870
31
0
0
LINE
8
A-FLOOR-1-A-WALL-EXT
10
17825
20
37370
30
0
11
18175
21
37370
31
0
0
LINE
8
A-FLOOR-1-A-WALL-EXT
10
17825
20
37370
30
0
11
17825
21
38935
31
0
0
LINE
8
A-FLOOR-1-A-WALL-EXT
10
18175
20
37370
30
0
11
18175
21
38935
31
0
0
LINE
8
A-FLOOR-1-A-WALL-EXT
10
17825
20
40935
30
0
11
17825
21
42500
31
0
0
LINE
8
A-FLOOR-1-A-WALL-EXT
10
18175
20
40935
30
0
11
18175
21
42500
31
0
0
LINE
8
A-FLOOR-1-A-WALL-EXT
10
17825
20
42500
30
0
11
18175
21
42500
31
0
0
LINE
8
A-FLOOR-1-A-WALL-EXT
10
17825
20
38935
30
0
11
18175
21
38935
31
0
0
LINE
8
A-FLOOR-1-A-WALL-EXT
10
17825
20
40935
30
0
11
18175
21
40935
31
0
0
LINE
8
A-FLOOR-1-A-WALL-EXT
10
14000
20
42675
30
0
11
18000
21
42675
31
0
0
LINE
8
A-FLOOR-1-A-WALL-EXT
10
14000
20
42325
30
0
11
18000
21
42325
31
0
0
LINE
8
A-FLOOR-1-A-WALL-EXT
10
14000
20
42675
30
0
11
14000
21
42325
31
0
0
LINE
8
A-FLOOR-1-A-WALL-EXT
10
18000
20
42675
30
0
11
18000
21
42325
31
0
0
LINE
8
A-FLOOR-1-A-WALL-CORE
10
13900
20
31200
30
0
11
13900
21
32060
31
0
0
LINE
8
A-FLOOR-1-A-WALL-CORE
10
14100
20
31200
30
0
11
14100
21
32060
31
0
0
LINE
8
A-FLOOR-1-A-WALL-CORE
10
13900
20
31200
30
0
11
14100
21
31200
31
0
0
LINE
8
A-FLOOR-1-A-WALL-CORE
10
13900
20
32960
30
0
11
13900
21
33820
31
0
0
LINE
8
A-FLOOR-1-A-WALL-CORE
10
14100
20
32960
30
0
11
14100
21
33820
31
0
0
LINE
8
A-FLOOR-1-A-WALL-CORE
10
13900
20
33820
30
0
11
14100
21
33820
31
0
0
LINE
8
A-FLOOR-1-A-WALL-CORE
10
13900
20
32060
30
0
11
14100
21
32060
31
0
0
LINE
8
A-FLOOR-1-A-WALL-CORE
10
13900
20
32960
30
0
11
14100
21
32960
31
0
0
LINE
8
A-FLOOR-1-A-WALL-EXT
10
13825
20
33820
30
0
11
13825
21
35870
31
0
0
LINE
8
A-FLOOR-1-A-WALL-EXT
10
14175
20
33820
30
0
11
14175
21
35870
31
0
0
LINE
8
A-FLOOR-1-A-WALL-EXT
10
13825
20
33820
30
0
11
14175
21
33820
31
0
0
LINE
8
A-FLOOR-1-A-WALL-EXT
10
13825
20
35870
30
0
11
14175
21
35870
31
0
0
LINE
8
A-FLOOR-1-A-WALL-INT
10
13925
20
35870
30
0
11
13925
21
36170
31
0
0
LINE
8
A-FLOOR-1-A-WALL-INT
10
14075
20
35870
30
0
11
14075
21
36170
31
0
0
LINE
8
A-FLOOR-1-A-WALL-INT
10
13925
20
35870
30
0
11
14075
21
35870
31
0
0
LINE
8
A-FLOOR-1-A-WALL-INT
10
13925
20
37070
30
0
11
13925
21
37370
31
0
0
LINE
8
A-FLOOR-1-A-WALL-INT
10
14075
20
37070
30
0
11
14075
21
37370
31
0
0
LINE
8
A-FLOOR-1-A-WALL-INT
10
13925
20
37370
30
0
11
14075
21
37370
31
0
0
LINE
8
A-FLOOR-1-A-WALL-INT
10
13925
20
36170
30
0
11
14075
21
36170
31
0
0
LINE
8
A-FLOOR-1-A-WALL-INT
10
13925
20
37070
30
0
11
14075
21
37070
31
0
0
LINE
8
A-FLOOR-1-A-WALL-INT
10
13925
20
37370
30
0
11
13925
21
42500
31
0
0
LINE
8
A-FLOOR-1-A-WALL-INT
10
14075
20
37370
30
0
11
14075
21
42500
31
0
0
LINE
8
A-FLOOR-1-A-WALL-INT
10
13925
20
42500
30
0
11
14075
21
42500
31
0
0
LINE
8
A-FLOOR-1-A-WALL-EXT
10
13825
20
42500
30
0
11
13825
21
48500
31
0
0
LINE
8
A-FLOOR-1-A-WALL-EXT
10
14175
20
42500
30
0
11
14175
21
48500
31
0
0
LINE
8
A-FLOOR-1-A-WALL-EXT
10
13825
20
42500
30
0
11
14175
21
42500
31
0
0
LINE
8
A-FLOOR-1-A-WALL-EXT
10
13825
20
48500
30
0
11
14175
21
48500
31
0
0
LINE
8
A-FLOOR-1-A-WALL-EXT
10
2000
20
31375
30
0
11
6050
21
31375
31
0
0
LINE
8
A-FLOOR-1-A-WALL-EXT
10
2000
20
31025
30
0
11
6050
21
31025
31
0
0
LINE
8
A-FLOOR-1-A-WALL-EXT
10
2000
20
31375
30
0
11
2000
21
31025
31
0
0
LINE
8
A-FLOOR-1-A-WALL-EXT
10
8450
20
31375
30
0
11
12500
21
31375
31
0
0
LINE
8
A-FLOOR-1-A-WALL-EXT
10
8450
20
31025
30
0
11
12500
21
31025
31
0
0
LINE
8
A-FLOOR-1-A-WALL-EXT
10
12500
20
31375
30
0
11
12500
21
31025
31
0
0
LINE
8
A-FLOOR-1-A-WALL-EXT
10
6050
20
31375
30
0
11
6050
21
31025
31
0
0
LINE
8
A-FLOOR-1-A-WALL-EXT
10
8450
20
31375
30
0
11
8450
21
31025
31
0
0
LINE
8
A-FLOOR-1-A-WALL-EXT
10
12500
20
31375
30
0
11
14000
21
31375
31
0
0
LINE
8
A-FLOOR-1-A-WALL-EXT
10
12500
20
31025
30
0
11
14000
21
31025
31
0
0
LINE
8
A-FLOOR-1-A-WALL-EXT
10
14000
20
31375
30
0
11
14000
21
31025
31
0
0
LINE
8
A-FLOOR-1-A-WALL-EXT
10
14000
20
31375
30
0
11
18000
21
31375
31
0
0
LINE
8
A-FLOOR-1-A-WALL-EXT
10
14000
20
31025
30
0
11
18000
21
31025
31
0
0
LINE
8
A-FLOOR-1-A-WALL-EXT
10
18000
20
31375
30
0
11
18000
21
31025
31
0
0
LINE
8
A-FLOOR-1-A-WALL-INT
10
12425
20
31200
30
0
11
12425
21
37100
31
0
0
LINE
8
A-FLOOR-1-A-WALL-INT
10
12575
20
31200
30
0
11
12575
21
37100
31
0
0
LINE
8
A-FLOOR-1-A-WALL-INT
10
12425
20
31200
30
0
11
12575
21
31200
31
0
0
LINE
8
A-FLOOR-1-A-WALL-INT
10
12425
20
38000
30
0
11
12425
21
43900
31
0
0
LINE
8
A-FLOOR-1-A-WALL-INT
10
12575
20
38000
30
0
11
12575
21
43900
31
0
0
LINE
8
A-FLOOR-1-A-WALL-INT
10
12425
20
43900
30
0
11
12575
21
43900
31
0
0
LINE
8
A-FLOOR-1-A-WALL-INT
10
12425
20
37100
30
0
11
12575
21
37100
31
0
0
LINE
8
A-FLOOR-1-A-WALL-INT
10
12425
20
38000
30
0
11
12575
21
38000
31
0
0
LINE
8
A-FLOOR-1-A-WALL-SERVICE
10
12440
20
43900
30
0
11
12440
21
45800
31
0
0
LINE
8
A-FLOOR-1-A-WALL-SERVICE
10
12560
20
43900
30
0
11
12560
21
45800
31
0
0
LINE
8
A-FLOOR-1-A-WALL-SERVICE
10
12440
20
43900
30
0
11
12560
21
43900
31
0
0
LINE
8
A-FLOOR-1-A-WALL-SERVICE
10
12440
20
46600
30
0
11
12440
21
48500
31
0
0
LINE
8
A-FLOOR-1-A-WALL-SERVICE
10
12560
20
46600
30
0
11
12560
21
48500
31
0
0
LINE
8
A-FLOOR-1-A-WALL-SERVICE
10
12440
20
48500
30
0
11
12560
21
48500
31
0
0
LINE
8
A-FLOOR-1-A-WALL-SERVICE
10
12440
20
45800
30
0
11
12560
21
45800
31
0
0
LINE
8
A-FLOOR-1-A-WALL-SERVICE
10
12440
20
46600
30
0
11
12560
21
46600
31
0
0
LINE
8
A-FLOOR-1-A-WALL-SERVICE
10
2000
20
43960
30
0
11
12500
21
43960
31
0
0
LINE
8
A-FLOOR-1-A-WALL-SERVICE
10
2000
20
43840
30
0
11
12500
21
43840
31
0
0
LINE
8
A-FLOOR-1-A-WALL-SERVICE
10
2000
20
43960
30
0
11
2000
21
43840
31
0
0
LINE
8
A-FLOOR-1-A-WALL-SERVICE
10
12500
20
43960
30
0
11
12500
21
43840
31
0
0
LINE
8
A-FLOOR-1-A-WALL-EXT
10
1825
20
31200
30
0
11
1825
21
43900
31
0
0
LINE
8
A-FLOOR-1-A-WALL-EXT
10
2175
20
31200
30
0
11
2175
21
43900
31
0
0
LINE
8
A-FLOOR-1-A-WALL-EXT
10
1825
20
31200
30
0
11
2175
21
31200
31
0
0
LINE
8
A-FLOOR-1-A-WALL-EXT
10
1825
20
43900
30
0
11
2175
21
43900
31
0
0
LINE
8
A-FLOOR-1-A-WALL-EXT
10
1825
20
43900
30
0
11
1825
21
48500
31
0
0
LINE
8
A-FLOOR-1-A-WALL-EXT
10
2175
20
43900
30
0
11
2175
21
48500
31
0
0
LINE
8
A-FLOOR-1-A-WALL-EXT
10
1825
20
48500
30
0
11
2175
21
48500
31
0
0
LINE
8
A-FLOOR-1-A-WALL-EXT
10
2000
20
48675
30
0
11
6750
21
48675
31
0
0
LINE
8
A-FLOOR-1-A-WALL-EXT
10
2000
20
48325
30
0
11
6750
21
48325
31
0
0
LINE
8
A-FLOOR-1-A-WALL-EXT
10
2000
20
48675
30
0
11
2000
21
48325
31
0
0
LINE
8
A-FLOOR-1-A-WALL-EXT
10
7750
20
48675
30
0
11
12500
21
48675
31
0
0
LINE
8
A-FLOOR-1-A-WALL-EXT
10
7750
20
48325
30
0
11
12500
21
48325
31
0
0
LINE
8
A-FLOOR-1-A-WALL-EXT
10
12500
20
48675
30
0
11
12500
21
48325
31
0
0
LINE
8
A-FLOOR-1-A-WALL-EXT
10
6750
20
48675
30
0
11
6750
21
48325
31
0
0
LINE
8
A-FLOOR-1-A-WALL-EXT
10
7750
20
48675
30
0
11
7750
21
48325
31
0
0
LINE
8
A-FLOOR-1-A-WALL-EXT
10
12500
20
48675
30
0
11
14000
21
48675
31
0
0
LINE
8
A-FLOOR-1-A-WALL-EXT
10
12500
20
48325
30
0
11
14000
21
48325
31
0
0
LINE
8
A-FLOOR-1-A-WALL-EXT
10
14000
20
48675
30
0
11
14000
21
48325
31
0
0
LINE
8
A-FLOOR-1-A-WALL-EXT
10
14000
20
36045
30
0
11
18000
21
36045
31
0
0
LINE
8
A-FLOOR-1-A-WALL-EXT
10
14000
20
35695
30
0
11
18000
21
35695
31
0
0
LINE
8
A-FLOOR-1-A-WALL-EXT
10
14000
20
36045
30
0
11
14000
21
35695
31
0
0
LINE
8
A-FLOOR-1-A-WALL-EXT
10
18000
20
36045
30
0
11
18000
21
35695
31
0
0
LINE
8
A-FLOOR-1-A-WALL-EXT
10
14000
20
33995
30
0
11
18000
21
33995
31
0
0
LINE
8
A-FLOOR-1-A-WALL-EXT
10
14000
20
33645
30
0
11
18000
21
33645
31
0
0
LINE
8
A-FLOOR-1-A-WALL-EXT
10
14000
20
33995
30
0
11
14000
21
33645
31
0
0
LINE
8
A-FLOOR-1-A-WALL-EXT
10
18000
20
33995
30
0
11
18000
21
33645
31
0
0
LINE
8
A-FLOOR-1-A-DOOR
10
14000
20
37070
30
0
11
14000
21
36170
31
0
0
ARC
8
A-FLOOR-1-A-DOOR
10
14000
20
37070
30
0
40
900
50
180
51
270
0
LINE
8
A-FLOOR-1-A-DOOR
10
13100
20
37070
30
0
11
13100
21
37030
31
0
0
LINE
8
A-FLOOR-1-A-DOOR
10
14000
20
32960
30
0
11
14000
21
32060
31
0
0
ARC
8
A-FLOOR-1-A-DOOR
10
14000
20
32960
30
0
40
900
50
270
51
0
0
LINE
8
A-FLOOR-1-A-DOOR
10
14900
20
32960
30
0
11
14900
21
33000
31
0
0
LINE
8
A-FLOOR-1-A-DOOR
10
15550
20
37370
30
0
11
16450
21
37370
31
0
0
ARC
8
A-FLOOR-1-A-DOOR
10
15550
20
37370
30
0
40
900
50
0
51
90
0
LINE
8
A-FLOOR-1-A-DOOR
10
15550
20
38270
30
0
11
15510
21
38270
31
0
0
LINE
8
A-FLOOR-1-A-DOOR
10
12500
20
45800
30
0
11
12500
21
46600
31
0
0
ARC
8
A-FLOOR-1-A-DOOR
10
12500
20
45800
30
0
40
800
50
90
51
180
0
LINE
8
A-FLOOR-1-A-DOOR
10
11700
20
45800
30
0
11
11700
21
45760
31
0
0
LINE
8
A-FLOOR-1-A-DOOR
10
12500
20
38000
30
0
11
12500
21
37100
31
0
0
ARC
8
A-FLOOR-1-A-DOOR
10
12500
20
38000
30
0
40
900
50
180
51
270
0
LINE
8
A-FLOOR-1-A-DOOR
10
11600
20
38000
30
0
11
11600
21
37960
31
0
0
LINE
8
A-FLOOR-1-A-WINDOW
10
18060
20
38935
30
0
11
18060
21
40935
31
0
0
LINE
8
A-FLOOR-1-A-WINDOW
10
18020
20
38935
30
0
11
18020
21
40935
31
0
0
LINE
8
A-FLOOR-1-A-WINDOW
10
17980
20
38935
30
0
11
17980
21
40935
31
0
0
LINE
8
A-FLOOR-1-A-WINDOW
10
17940
20
38935
30
0
11
17940
21
40935
31
0
0
LINE
8
A-FLOOR-1-A-DIMS
10
18050
20
40935
30
0
11
18400
21
40935
31
0
0
LINE
8
A-FLOOR-1-A-DIMS
10
18050
20
38935
30
0
11
18400
21
38935
31
0
0
LINE
8
A-FLOOR-1-A-DIMS
10
18320
20
40935
30
0
11
18320
21
38935
31
0
0
LINE
8
A-FLOOR-1-A-DIMS
10
18370
20
40885
30
0
11
18270
21
40985
31
0
0
LINE
8
A-FLOOR-1-A-DIMS
10
18370
20
38885
30
0
11
18270
21
38985
31
0
0
TEXT
8
A-FLOOR-1-A-DIMS
10
18380
20
39935
30
0
40
100
1
2.00 m
50
0
72
1
11
18380
21
39935
31
0
0
LINE
8
A-FLOOR-1-A-WINDOW
10
6050
20
31140
30
0
11
8450
21
31140
31
0
0
LINE
8
A-FLOOR-1-A-WINDOW
10
6050
20
31180
30
0
11
8450
21
31180
31
0
0
LINE
8
A-FLOOR-1-A-WINDOW
10
6050
20
31220
30
0
11
8450
21
31220
31
0
0
LINE
8
A-FLOOR-1-A-WINDOW
10
6050
20
31260
30
0
11
8450
21
31260
31
0
0
LINE
8
A-FLOOR-1-A-DIMS
10
8450
20
31150
30
0
11
8450
21
30800
31
0
0
LINE
8
A-FLOOR-1-A-DIMS
10
6050
20
31150
30
0
11
6050
21
30800
31
0
0
LINE
8
A-FLOOR-1-A-DIMS
10
8450
20
30880
30
0
11
6050
21
30880
31
0
0
LINE
8
A-FLOOR-1-A-DIMS
10
8400
20
30830
30
0
11
8500
21
30930
31
0
0
LINE
8
A-FLOOR-1-A-DIMS
10
6000
20
30830
30
0
11
6100
21
30930
31
0
0
LINE
8
A-FLOOR-1-A-WINDOW
10
6750
20
48440
30
0
11
7750
21
48440
31
0
0
LINE
8
A-FLOOR-1-A-WINDOW
10
6750
20
48480
30
0
11
7750
21
48480
31
0
0
LINE
8
A-FLOOR-1-A-WINDOW
10
6750
20
48520
30
0
11
7750
21
48520
31
0
0
LINE
8
A-FLOOR-1-A-WINDOW
10
6750
20
48560
30
0
11
7750
21
48560
31
0
0
LINE
8
A-FLOOR-1-A-DIMS
10
7750
20
48550
30
0
11
7750
21
48900
31
0
0
LINE
8
A-FLOOR-1-A-DIMS
10
6750
20
48550
30
0
11
6750
21
48900
31
0
0
LINE
8
A-FLOOR-1-A-DIMS
10
7750
20
48820
30
0
11
6750
21
48820
31
0
0
LINE
8
A-FLOOR-1-A-DIMS
10
7700
20
48770
30
0
11
7800
21
48870
31
0
0
LINE
8
A-FLOOR-1-A-DIMS
10
6700
20
48770
30
0
11
6800
21
48870
31
0
0
TEXT
8
A-FLOOR-1-A-DIMS
10
7250
20
48880
30
0
40
100
1
1.00 m
50
0
72
1
11
7250
21
48880
31
0
0
LINE
8
A-FLOOR-1-A-STAIR
10
14000
20
31200
30
0
11
17719
21
31200
31
0
0
LINE
8
A-FLOOR-1-A-STAIR
10
17719
20
31200
30
0
11
17719
21
33758
31
0
0
LINE
8
A-FLOOR-1-A-STAIR
10
17719
20
33758
30
0
11
14000
21
33758
31
0
0
LINE
8
A-FLOOR-1-A-STAIR
10
14000
20
33758
30
0
11
14000
21
31200
31
0
0
POLYLINE
8
A-FLOOR-1-A-STAIR
10
0
20
0
30
0
70
1
66
1
40
0
41
0
71
0
72
0
0
VERTEX
8
A-FLOOR-1-A-STAIR
10
14000
20
31200
30
0
42
0
0
VERTEX
8
A-FLOOR-1-A-STAIR
10
15479
20
31200
30
0
42
0
0
VERTEX
8
A-FLOOR-1-A-STAIR
10
15479
20
33758
30
0
42
0
0
VERTEX
8
A-FLOOR-1-A-STAIR
10
14000
20
33758
30
0
42
0
0
SEQEND
8
A-FLOOR-1-A-STAIR
0
TEXT
8
A-FLOOR-1-A-STAIR
10
14739.5
20
32479
30
0
40
180
1
LDNG 1.48
50
0
72
1
11
14739.5
21
32479
31
0
0
POLYLINE
8
A-FLOOR-1-A-STAIR
10
0
20
0
30
0
70
0
66
1
40
0
41
0
71
0
72
0
0
VERTEX
8
A-FLOOR-1-A-STAIR
10
15479
20
31200
30
0
42
0
0
VERTEX
8
A-FLOOR-1-A-STAIR
10
17719
20
31200
30
0
42
0
0
VERTEX
8
A-FLOOR-1-A-STAIR
10
17719
20
32379
30
0
42
0
0
VERTEX
8
A-FLOOR-1-A-STAIR
10
15479
20
32379
30
0
42
0
0
SEQEND
8
A-FLOOR-1-A-STAIR
0
LINE
8
A-FLOOR-1-A-STAIR-TREAD
10
17439
20
31200
30
0
11
17439
21
32379
31
0
0
LINE
8
A-FLOOR-1-A-STAIR-TREAD
10
17159
20
31200
30
0
11
17159
21
32379
31
0
0
LINE
8
A-FLOOR-1-A-STAIR-TREAD
10
16879
20
31200
30
0
11
16879
21
32379
31
0
0
LINE
8
A-FLOOR-1-A-STAIR-TREAD
10
16599
20
31200
30
0
11
16599
21
32379
31
0
0
LINE
8
A-FLOOR-1-A-STAIR-TREAD
10
16319
20
31200
30
0
11
16319
21
32379
31
0
0
LINE
8
A-FLOOR-1-A-STAIR-TREAD
10
16039
20
31200
30
0
11
16039
21
32379
31
0
0
LINE
8
A-FLOOR-1-A-STAIR-TREAD
10
15759
20
31200
30
0
11
15759
21
32379
31
0
0
LINE
8
A-FLOOR-1-A-STAIR-DIR
10
16949
20
31789.5
30
0
11
16249
21
31789.5
31
0
0
LINE
8
A-FLOOR-1-A-STAIR-DIR
10
16249
20
31789.5
30
0
11
16369
21
31709.5
31
0
0
LINE
8
A-FLOOR-1-A-STAIR-DIR
10
16249
20
31789.5
30
0
11
16369
21
31869.5
31
0
0
POLYLINE
8
A-FLOOR-1-A-STAIR
10
0
20
0
30
0
70
0
66
1
40
0
41
0
71
0
72
0
0
VERTEX
8
A-FLOOR-1-A-STAIR
10
15479
20
32579
30
0
42
0
0
VERTEX
8
A-FLOOR-1-A-STAIR
10
17719
20
32579
30
0
42
0
0
VERTEX
8
A-FLOOR-1-A-STAIR
10
17719
20
33758
30
0
42
0
0
VERTEX
8
A-FLOOR-1-A-STAIR
10
15479
20
33758
30
0
42
0
0
SEQEND
8
A-FLOOR-1-A-STAIR
0
LINE
8
A-FLOOR-1-A-STAIR-TREAD
10
15759
20
32579
30
0
11
15759
21
33758
31
0
0
LINE
8
A-FLOOR-1-A-STAIR-TREAD
10
16039
20
32579
30
0
11
16039
21
33758
31
0
0
LINE
8
A-FLOOR-1-A-STAIR-TREAD
10
16319
20
32579
30
0
11
16319
21
33758
31
0
0
LINE
8
A-FLOOR-1-A-STAIR-TREAD
10
16599
20
32579
30
0
11
16599
21
33758
31
0
0
LINE
8
A-FLOOR-1-A-STAIR-TREAD
10
16879
20
32579
30
0
11
16879
21
33758
31
0
0
LINE
8
A-FLOOR-1-A-STAIR-TREAD
10
17159
20
32579
30
0
11
17159
21
33758
31
0
0
LINE
8
A-FLOOR-1-A-STAIR-TREAD
10
17439
20
32579
30
0
11
17439
21
33758
31
0
0
LINE
8
A-FLOOR-1-A-STAIR-DIR
10
16249
20
33168.5
30
0
11
16949
21
33168.5
31
0
0
LINE
8
A-FLOOR-1-A-STAIR-DIR
10
16949
20
33168.5
30
0
11
16829
21
33088.5
31
0
0
LINE
8
A-FLOOR-1-A-STAIR-DIR
10
16949
20
33168.5
30
0
11
16829
21
33248.5
31
0
0
TEXT
8
A-FLOOR-1-A-STAIR-DIR
10
17469
20
31739.5
30
0
40
180
1
UP
50
0
72
0
11
17469
21
31739.5
31
0
0
TEXT
8
A-FLOOR-1-A-TEXT
10
14100
20
33608
30
0
40
119.21
1
2F . 18R @ 18x28 . F1?F2 u-stair ent.west
50
0
72
0
11
14100
21
33608
31
0
0
LINE
8
A-FLOOR-1-A-FURN
10
14050
20
40450
30
0
11
15650
21
40450
31
0
0
LINE
8
A-FLOOR-1-A-FURN
10
15650
20
40450
30
0
11
15650
21
42450
31
0
0
LINE
8
A-FLOOR-1-A-FURN
10
15650
20
42450
30
0
11
14050
21
42450
31
0
0
LINE
8
A-FLOOR-1-A-FURN
10
14050
20
42450
30
0
11
14050
21
40450
31
0
0
LINE
8
A-FLOOR-1-A-FURN
10
17350
20
39035
30
0
11
17950
21
39035
31
0
0
LINE
8
A-FLOOR-1-A-FURN
10
17950
20
39035
30
0
11
17950
21
40835
31
0
0
LINE
8
A-FLOOR-1-A-FURN
10
17950
20
40835
30
0
11
17350
21
40835
31
0
0
LINE
8
A-FLOOR-1-A-FURN
10
17350
20
40835
30
0
11
17350
21
39035
31
0
0
LINE
8
A-FLOOR-1-A-FURN
10
2050
20
31250
30
0
11
3850
21
31250
31
0
0
LINE
8
A-FLOOR-1-A-FURN
10
3850
20
31250
30
0
11
3850
21
33250
31
0
0
LINE
8
A-FLOOR-1-A-FURN
10
3850
20
33250
30
0
11
2050
21
33250
31
0
0
LINE
8
A-FLOOR-1-A-FURN
10
2050
20
33250
30
0
11
2050
21
31250
31
0
0
LINE
8
A-FLOOR-1-A-FURN
10
6350
20
43250
30
0
11
8150
21
43250
31
0
0
LINE
8
A-FLOOR-1-A-FURN
10
8150
20
43250
30
0
11
8150
21
43850
31
0
0
LINE
8
A-FLOOR-1-A-FURN
10
8150
20
43850
30
0
11
6350
21
43850
31
0
0
LINE
8
A-FLOOR-1-A-FURN
10
6350
20
43850
30
0
11
6350
21
43250
31
0
0
LINE
8
A-FLOOR-1-A-SANITARY
10
11950
20
47750
30
0
11
12450
21
47750
31
0
0
LINE
8
A-FLOOR-1-A-SANITARY
10
12450
20
47750
30
0
11
12450
21
48450
31
0
0
LINE
8
A-FLOOR-1-A-SANITARY
10
12450
20
48450
30
0
11
11950
21
48450
31
0
0
LINE
8
A-FLOOR-1-A-SANITARY
10
11950
20
48450
30
0
11
11950
21
47750
31
0
0
LINE
8
A-FLOOR-1-A-SANITARY
10
2050
20
47950
30
0
11
2650
21
47950
31
0
0
LINE
8
A-FLOOR-1-A-SANITARY
10
2650
20
47950
30
0
11
2650
21
48450
31
0
0
LINE
8
A-FLOOR-1-A-SANITARY
10
2650
20
48450
30
0
11
2050
21
48450
31
0
0
LINE
8
A-FLOOR-1-A-SANITARY
10
2050
20
48450
30
0
11
2050
21
47950
31
0
0
LINE
8
A-FLOOR-1-A-SANITARY
10
11550
20
43950
30
0
11
12450
21
43950
31
0
0
LINE
8
A-FLOOR-1-A-SANITARY
10
12450
20
43950
30
0
11
12450
21
44850
31
0
0
LINE
8
A-FLOOR-1-A-SANITARY
10
12450
20
44850
30
0
11
11550
21
44850
31
0
0
LINE
8
A-FLOOR-1-A-SANITARY
10
11550
20
44850
30
0
11
11550
21
43950
31
0
0
POLYLINE
8
A-FLOOR-1-A-ROOM
10
0
20
0
30
0
70
1
66
1
40
0
41
0
71
0
72
0
0
VERTEX
8
A-FLOOR-1-A-ROOM
10
14000
20
37370
30
0
42
0
0
VERTEX
8
A-FLOOR-1-A-ROOM
10
18000
20
37370
30
0
42
0
0
VERTEX
8
A-FLOOR-1-A-ROOM
10
18000
20
42500
30
0
42
0
0
VERTEX
8
A-FLOOR-1-A-ROOM
10
14000
20
42500
30
0
42
0
0
SEQEND
8
A-FLOOR-1-A-ROOM
0
POLYLINE
8
A-FLOOR-1-A-ROOM
10
0
20
0
30
0
70
1
66
1
40
0
41
0
71
0
72
0
0
VERTEX
8
A-FLOOR-1-A-ROOM
10
2000
20
31200
30
0
42
0
0
VERTEX
8
A-FLOOR-1-A-ROOM
10
12500
20
31200
30
0
42
0
0
VERTEX
8
A-FLOOR-1-A-ROOM
10
12500
20
43900
30
0
42
0
0
VERTEX
8
A-FLOOR-1-A-ROOM
10
2000
20
43900
30
0
42
0
0
SEQEND
8
A-FLOOR-1-A-ROOM
0
POLYLINE
8
A-FLOOR-1-A-ROOM
10
0
20
0
30
0
70
1
66
1
40
0
41
0
71
0
72
0
0
VERTEX
8
A-FLOOR-1-A-ROOM
10
2000
20
43900
30
0
42
0
0
VERTEX
8
A-FLOOR-1-A-ROOM
10
12500
20
43900
30
0
42
0
0
VERTEX
8
A-FLOOR-1-A-ROOM
10
12500
20
48500
30
0
42
0
0
VERTEX
8
A-FLOOR-1-A-ROOM
10
2000
20
48500
30
0
42
0
0
SEQEND
8
A-FLOOR-1-A-ROOM
0
POLYLINE
8
A-FLOOR-1-A-ROOM
10
0
20
0
30
0
70
1
66
1
40
0
41
0
71
0
72
0
0
VERTEX
8
A-FLOOR-1-A-ROOM
10
14000
20
35870
30
0
42
0
0
VERTEX
8
A-FLOOR-1-A-ROOM
10
18000
20
35870
30
0
42
0
0
VERTEX
8
A-FLOOR-1-A-ROOM
10
18000
20
37370
30
0
42
0
0
VERTEX
8
A-FLOOR-1-A-ROOM
10
14000
20
37370
30
0
42
0
0
SEQEND
8
A-FLOOR-1-A-ROOM
0
POLYLINE
8
A-FLOOR-1-A-ROOM
10
0
20
0
30
0
70
1
66
1
40
0
41
0
71
0
72
0
0
VERTEX
8
A-FLOOR-1-A-ROOM
10
12500
20
31200
30
0
42
0
0
VERTEX
8
A-FLOOR-1-A-ROOM
10
14000
20
31200
30
0
42
0
0
VERTEX
8
A-FLOOR-1-A-ROOM
10
14000
20
48500
30
0
42
0
0
VERTEX
8
A-FLOOR-1-A-ROOM
10
12500
20
48500
30
0
42
0
0
SEQEND
8
A-FLOOR-1-A-ROOM
0
POLYLINE
8
A-FLOOR-1-A-ROOM
10
0
20
0
30
0
70
1
66
1
40
0
41
0
71
0
72
0
0
VERTEX
8
A-FLOOR-1-A-ROOM
10
14000
20
31200
30
0
42
0
0
VERTEX
8
A-FLOOR-1-A-ROOM
10
18000
20
31200
30
0
42
0
0
VERTEX
8
A-FLOOR-1-A-ROOM
10
18000
20
33820
30
0
42
0
0
VERTEX
8
A-FLOOR-1-A-ROOM
10
14000
20
33820
30
0
42
0
0
SEQEND
8
A-FLOOR-1-A-ROOM
0
TEXT
8
A-FLOOR-1-A-ROOM
10
15998.39
20
40152
30
0
40
350
1
Bedroom 1 . F1
50
0
72
1
11
15998.39
21
40152
31
0
0
TEXT
8
A-FLOOR-1-A-ROOM
10
15998.39
20
39718
30
0
40
245
1
20.5 m2
50
0
72
1
11
15998.39
21
39718
31
0
0
TEXT
8
A-FLOOR-1-A-ROOM
10
7250
20
37767
30
0
40
350
1
Master Bedroom . F1
50
0
72
1
11
7250
21
37767
31
0
0
TEXT
8
A-FLOOR-1-A-ROOM
10
7250
20
37333
30
0
40
245
1
133.3 m2
50
0
72
1
11
7250
21
37333
31
0
0
TEXT
8
A-FLOOR-1-A-ROOM
10
7236.33
20
46419.82
30
0
40
350
1
Master Bathroom . F1
50
0
72
1
11
7236.33
21
46419.82
31
0
0
TEXT
8
A-FLOOR-1-A-ROOM
10
7236.33
20
45985.82
30
0
40
245
1
48.3 m2
50
0
72
1
11
7236.33
21
45985.82
31
0
0
TEXT
8
A-FLOOR-1-A-ROOM
10
15997.4
20
36837
30
0
40
350
1
Corridor . F1
50
0
72
1
11
15997.4
21
36837
31
0
0
TEXT
8
A-FLOOR-1-A-ROOM
10
15997.4
20
36403
30
0
40
245
1
6.0 m2
50
0
72
1
11
15997.4
21
36403
31
0
0
TEXT
8
A-FLOOR-1-A-ROOM
10
13467
20
39850
30
0
40
350
1
Corridor . F1
50
90
72
1
11
13467
21
39850
31
0
0
TEXT
8
A-FLOOR-1-A-ROOM
10
13033
20
39850
30
0
40
245
1
25.9 m2
50
90
72
1
11
13033
21
39850
31
0
0
TEXT
8
A-FLOOR-1-A-ROOM
10
16000
20
32722.41
30
0
40
342.59
1
Stair Hall . F1
50
0
72
1
11
16000
21
32722.41
31
0
0
TEXT
8
A-FLOOR-1-A-ROOM
10
16000
20
32297.59
30
0
40
239.81
1
10.5 m2
50
0
72
1
11
16000
21
32297.59
31
0
0
LINE
8
A-FLOOR-1-A-DIMS
10
2000
20
30925
30
0
11
2000
21
29875
31
0
0
LINE
8
A-FLOOR-1-A-DIMS
10
18000
20
30925
30
0
11
18000
21
29875
31
0
0
LINE
8
A-FLOOR-1-A-DIMS
10
2000
20
30025
30
0
11
18000
21
30025
31
0
0
LINE
8
A-FLOOR-1-A-DIMS
10
1950
20
29975
30
0
11
2050
21
30075
31
0
0
LINE
8
A-FLOOR-1-A-DIMS
10
17950
20
29975
30
0
11
18050
21
30075
31
0
0
TEXT
8
A-FLOOR-1-A-DIMS
10
10000
20
29705
30
0
40
200
1
16.00 m F1
50
0
72
1
11
10000
21
29705
31
0
0
LINE
8
A-FLOOR-1-A-DIMS
10
1900
20
31025
30
0
11
850
21
31025
31
0
0
LINE
8
A-FLOOR-1-A-DIMS
10
1900
20
48500
30
0
11
850
21
48500
31
0
0
LINE
8
A-FLOOR-1-A-DIMS
10
1000
20
31025
30
0
11
1000
21
48500
31
0
0
LINE
8
A-FLOOR-1-A-DIMS
10
1050
20
30975
30
0
11
950
21
31075
31
0
0
LINE
8
A-FLOOR-1-A-DIMS
10
1050
20
48450
30
0
11
950
21
48550
31
0
0
TEXT
8
A-FLOOR-1-A-DIMS
10
700
20
39762.5
30
0
40
200
1
17.48 m
50
0
72
2
11
700
21
39762.5
31
0
0
LINE
8
A-FLOOR-1-A-DIMS
10
2000
20
31020
30
0
11
12500
21
31020
31
0
0
LINE
8
A-FLOOR-1-A-DIMS
10
1950
20
30970
30
0
11
2050
21
31070
31
0
0
LINE
8
A-FLOOR-1-A-DIMS
10
12450
20
30970
30
0
11
12550
21
31070
31
0
0
TEXT
8
A-FLOOR-1-A-DIMS
10
7250
20
30860
30
0
40
120
1
10.50 m
50
0
72
1
11
7250
21
30860
31
0
0
LINE
8
A-FLOOR-1-A-DIMS
10
1820
20
31200
30
0
11
1820
21
43900
31
0
0
LINE
8
A-FLOOR-1-A-DIMS
10
1870
20
31150
30
0
11
1770
21
31250
31
0
0
LINE
8
A-FLOOR-1-A-DIMS
10
1870
20
43850
30
0
11
1770
21
43950
31
0
0
TEXT
8
A-FLOOR-1-A-DIMS
10
1620
20
37550
30
0
40
120
1
12.70 m
50
0
72
2
11
1620
21
37550
31
0
0
LINE
8
A-FLOOR-1-A-DIMS
10
1820
20
43900
30
0
11
1820
21
48500
31
0
0
LINE
8
A-FLOOR-1-A-DIMS
10
1870
20
48450
30
0
11
1770
21
48550
31
0
0
TEXT
8
A-FLOOR-1-A-DIMS
10
1620
20
46200
30
0
40
120
1
4.60 m
50
0
72
2
11
1620
21
46200
31
0
0
LINE
8
A-FLOOR-1-A-DIMS
10
14000
20
31020
30
0
11
18000
21
31020
31
0
0
LINE
8
A-FLOOR-1-A-DIMS
10
13950
20
30970
30
0
11
14050
21
31070
31
0
0
LINE
8
A-FLOOR-1-A-DIMS
10
17950
20
30970
30
0
11
18050
21
31070
31
0
0
TEXT
8
A-FLOOR-1-A-DIMS
10
16000
20
30860
30
0
40
120
1
4.00 m
50
0
72
1
11
16000
21
30860
31
0
0
LINE
8
A-TITLE
10
500
20
-4600
30
0
11
19500
21
-4600
31
0
0
LINE
8
A-TITLE
10
19500
20
-4600
30
0
11
19500
21
18155
31
0
0
LINE
8
A-TITLE
10
19500
20
18155
30
0
11
500
21
18155
31
0
0
LINE
8
A-TITLE
10
500
20
18155
30
0
11
500
21
-4600
31
0
0
LINE
8
A-TITLE
10
8500
20
-4450
30
0
11
19350
21
-4450
31
0
0
LINE
8
A-TITLE
10
19350
20
-4450
30
0
11
19350
21
-2050
31
0
0
LINE
8
A-TITLE
10
19350
20
-2050
30
0
11
8500
21
-2050
31
0
0
LINE
8
A-TITLE
10
8500
20
-2050
30
0
11
8500
21
-4450
31
0
0
LINE
8
A-TITLE
10
8750
20
-2800
30
0
11
19100
21
-2800
31
0
0
TEXT
8
A-TITLE
10
8800
20
-2600
30
0
40
320
1
Golden L 2F
50
0
72
0
11
8800
21
-2600
31
0
0
TEXT
8
A-TITLE
10
8800
20
-3150
30
0
40
180
1
FLOOR PLANS - 2 FLOOR(S) | STRATEGY functional-circulation
50
0
72
0
11
8800
21
-3150
31
0
0
TEXT
8
A-TITLE
10
8800
20
-3550
30
0
40
160
1
UNITS: MILLIMETRES | MODEL SPACE 1:1 | PLOT SCALE 1:100 @ A1
50
0
72
0
11
8800
21
-3550
31
0
0
TEXT
8
A-TITLE
10
8800
20
-3950
30
0
40
160
1
NET FLOOR AREA (SUM OF ROOMS, ALL FLOORS): 379.4 m2 | SITE 20.0x26.0 m
50
0
72
0
11
8800
21
-3950
31
0
0
TEXT
8
A-TITLE
10
8800
20
-4330
30
0
40
140
1
ARCHGENIUS - AUTOMATED CAD DRAFT - PROFESSIONAL REVIEW REQUIRED
50
0
72
0
11
8800
21
-4330
31
0
0
TEXT
8
A-TITLE
10
4900
20
-3750
30
0
40
200
1
LEGEND
50
0
72
0
11
4900
21
-3750
31
0
0
LINE
8
A-WALL-EXT
10
4900
20
-4100
30
0
11
5700
21
-4100
31
0
0
LINE
8
A-FLOOR-0-A-WALL-EXT
10
4900
20
-4100
30
0
11
5700
21
-4100
31
0
0
TEXT
8
A-TITLE
10
5950
20
-4160
30
0
40
120
1
A-WALL-EXT - WALL, EXTERIOR
50
0
72
0
11
5950
21
-4160
31
0
0
LINE
8
A-WALL-INT
10
4900
20
-3840
30
0
11
5700
21
-3840
31
0
0
LINE
8
A-FLOOR-0-A-WALL-INT
10
4900
20
-3840
30
0
11
5700
21
-3840
31
0
0
TEXT
8
A-TITLE
10
5950
20
-3900
30
0
40
120
1
A-WALL-INT - WALL, INTERIOR
50
0
72
0
11
5950
21
-3900
31
0
0
LINE
8
A-WALL-CORE
10
4900
20
-3580
30
0
11
5700
21
-3580
31
0
0
LINE
8
A-FLOOR-0-A-WALL-CORE
10
4900
20
-3580
30
0
11
5700
21
-3580
31
0
0
TEXT
8
A-TITLE
10
5950
20
-3640
30
0
40
120
1
A-WALL-CORE - WALL, CORE
50
0
72
0
11
5950
21
-3640
31
0
0
LINE
8
A-DOOR
10
4900
20
-3320
30
0
11
5700
21
-3320
31
0
0
LINE
8
A-FLOOR-0-A-DOOR
10
4900
20
-3320
30
0
11
5700
21
-3320
31
0
0
TEXT
8
A-TITLE
10
5950
20
-3380
30
0
40
120
1
A-DOOR - DOOR + SWING
50
0
72
0
11
5950
21
-3380
31
0
0
LINE
8
A-WINDOW
10
4900
20
-3060
30
0
11
5700
21
-3060
31
0
0
LINE
8
A-FLOOR-0-A-WINDOW
10
4900
20
-3060
30
0
11
5700
21
-3060
31
0
0
TEXT
8
A-TITLE
10
5950
20
-3120
30
0
40
120
1
A-WINDOW - WINDOW
50
0
72
0
11
5950
21
-3120
31
0
0
LINE
8
A-STAIR
10
4900
20
-2800
30
0
11
5700
21
-2800
31
0
0
LINE
8
A-FLOOR-0-A-STAIR
10
4900
20
-2800
30
0
11
5700
21
-2800
31
0
0
TEXT
8
A-TITLE
10
5950
20
-2860
30
0
40
120
1
A-STAIR - STAIR / LANDING
50
0
72
0
11
5950
21
-2860
31
0
0
LINE
8
A-PARKING
10
4900
20
-2540
30
0
11
5700
21
-2540
31
0
0
LINE
8
A-FLOOR-0-A-PARKING
10
4900
20
-2540
30
0
11
5700
21
-2540
31
0
0
TEXT
8
A-TITLE
10
5950
20
-2600
30
0
40
120
1
A-PARKING - PARKING STALL
50
0
72
0
11
5950
21
-2600
31
0
0
LINE
8
A-DIMS
10
4900
20
-2280
30
0
11
5700
21
-2280
31
0
0
LINE
8
A-FLOOR-0-A-DIMS
10
4900
20
-2280
30
0
11
5700
21
-2280
31
0
0
TEXT
8
A-TITLE
10
5950
20
-2340
30
0
40
120
1
A-DIMS - DIMENSIONS (m)
50
0
72
0
11
5950
21
-2340
31
0
0
LINE
8
A-TEXT
10
4900
20
-2020
30
0
11
5700
21
-2020
31
0
0
LINE
8
A-FLOOR-0-A-TEXT
10
4900
20
-2020
30
0
11
5700
21
-2020
31
0
0
TEXT
8
A-TITLE
10
5950
20
-2080
30
0
40
120
1
A-TEXT - GENERAL NOTES
50
0
72
0
11
5950
21
-2080
31
0
0
LINE
8
A-SITE
10
4900
20
-1760
30
0
11
5700
21
-1760
31
0
0
LINE
8
A-FLOOR-0-A-SITE
10
4900
20
-1760
30
0
11
5700
21
-1760
31
0
0
TEXT
8
A-TITLE
10
5950
20
-1820
30
0
40
120
1
A-SITE - SITE BOUNDARY
50
0
72
0
11
5950
21
-1820
31
0
0
LINE
8
A-GRID
10
4900
20
-1500
30
0
11
5700
21
-1500
31
0
0
TEXT
8
A-TITLE
10
5950
20
-1560
30
0
40
120
1
A-GRID - GRID / AXIS
50
0
72
0
11
5950
21
-1560
31
0
0
LINE
8
A-TITLE
10
4700
20
-4450
30
0
11
4700
21
-1200
31
0
0
LINE
8
A-STAIR
10
15859.5
20
5700
30
0
11
15859.5
21
48500
31
0
0
TEXT
8
A-TEXT
10
16059.5
20
48700
30
0
40
250
1
STAIR STACK - 2 FLOORS - Whole-Building
50
0
72
0
11
16059.5
21
48700
31
0
0
ENDSEC
0
EOF
