0
SECTION
2
HEADER
9
$ACADVER
1
AC1009
0
ENDSEC
0
SECTION
2
TABLES
0
TABLE
2
LTYPE
70
3
0
LTYPE
2
CONTINUOUS
70
0
3
Solid line
72
65
73
0
40
0
0
LTYPE
2
CENTER
70
0
3
Center ____ _ ____ _ ____
72
65
73
0
40
0
0
LTYPE
2
DASHED
70
0
3
Dashed __ __ __ __
72
65
73
0
40
0
0
ENDTAB
0
TABLE
2
LAYER
70
46
0
LAYER
2
A-GRID
70
0
62
1
6
CENTER
0
LAYER
2
A-AXIS
70
0
62
1
6
CENTER
0
LAYER
2
A-AXIS-TEXT
70
0
62
1
6
CONTINUOUS
0
LAYER
2
A-WALL-EXT
70
0
62
7
6
CONTINUOUS
0
LAYER
2
A-WALL-INT
70
0
62
7
6
CONTINUOUS
0
LAYER
2
A-WALL-CORE
70
0
62
7
6
CONTINUOUS
0
LAYER
2
A-WALL-SERVICE
70
0
62
7
6
CONTINUOUS
0
LAYER
2
A-WALL-PART
70
0
62
7
6
CONTINUOUS
0
LAYER
2
A-COLUMN
70
0
62
7
6
CONTINUOUS
0
LAYER
2
A-DOOR
70
0
62
3
6
CONTINUOUS
0
LAYER
2
A-WINDOW
70
0
62
4
6
CONTINUOUS
0
LAYER
2
A-STAIR
70
0
62
6
6
CONTINUOUS
0
LAYER
2
A-STAIR-TREAD
70
0
62
8
6
CONTINUOUS
0
LAYER
2
A-STAIR-DIR
70
0
62
6
6
CONTINUOUS
0
LAYER
2
A-PARKING
70
0
62
8
6
CONTINUOUS
0
LAYER
2
A-SANITARY
70
0
62
3
6
CONTINUOUS
0
LAYER
2
A-FURN
70
0
62
8
6
CONTINUOUS
0
LAYER
2
A-ROOM
70
0
62
7
6
CONTINUOUS
0
LAYER
2
A-HATCH
70
0
62
8
6
CONTINUOUS
0
LAYER
2
A-DIMS
70
0
62
2
6
CONTINUOUS
0
LAYER
2
A-TEXT
70
0
62
7
6
CONTINUOUS
0
LAYER
2
A-NORTH
70
0
62
7
6
CONTINUOUS
0
LAYER
2
A-TITLE
70
0
62
7
6
CONTINUOUS
0
LAYER
2
A-BLDG-OUT
70
0
62
9
6
DASHED
0
LAYER
2
A-SITE
70
0
62
3
6
DASHED
0
LAYER
2
A-SETBACK
70
0
62
2
6
DASHED
0
LAYER
2
0
70
0
62
7
6
CONTINUOUS
0
LAYER
2
A-FLOOR-0-A-WALL-EXT
70
0
62
7
6
CONTINUOUS
0
LAYER
2
A-FLOOR-0-A-WALL-INT
70
0
62
7
6
CONTINUOUS
0
LAYER
2
A-FLOOR-0-A-WALL-CORE
70
0
62
7
6
CONTINUOUS
0
LAYER
2
A-FLOOR-0-A-WALL-SERVICE
70
0
62
7
6
CONTINUOUS
0
LAYER
2
A-FLOOR-0-A-WALL-PART
70
0
62
7
6
CONTINUOUS
0
LAYER
2
A-FLOOR-0-A-DOOR
70
0
62
3
6
CONTINUOUS
0
LAYER
2
A-FLOOR-0-A-WINDOW
70
0
62
4
6
CONTINUOUS
0
LAYER
2
A-FLOOR-0-A-STAIR
70
0
62
6
6
CONTINUOUS
0
LAYER
2
A-FLOOR-0-A-STAIR-TREAD
70
0
62
8
6
CONTINUOUS
0
LAYER
2
A-FLOOR-0-A-STAIR-DIR
70
0
62
6
6
CONTINUOUS
0
LAYER
2
A-FLOOR-0-A-ROOM
70
0
62
7
6
CONTINUOUS
0
LAYER
2
A-FLOOR-0-A-TEXT
70
0
62
7
6
CONTINUOUS
0
LAYER
2
A-FLOOR-0-A-FURN
70
0
62
8
6
CONTINUOUS
0
LAYER
2
A-FLOOR-0-A-SANITARY
70
0
62
3
6
CONTINUOUS
0
LAYER
2
A-FLOOR-0-A-DIMS
70
0
62
2
6
CONTINUOUS
0
LAYER
2
A-FLOOR-0-A-PARKING
70
0
62
8
6
CONTINUOUS
0
LAYER
2
A-FLOOR-0-A-BLDG-OUT
70
0
62
9
6
DASHED
0
LAYER
2
A-FLOOR-0-A-SITE
70
0
62
3
6
DASHED
0
LAYER
2
A-FLOOR-0-A-SETBACK
70
0
62
2
6
DASHED
0
ENDTAB
0
TABLE
2
STYLE
70
1
0
STYLE
2
STANDARD
70
0
40
0
41
1
50
0
71
0
42
0.2
3
txt
4

0
ENDTAB
0
ENDSEC
0
SECTION
2
BLOCKS
0
BLOCK
2
*Model_Space
70
0
10
0
20
0
30
0
0
ENDBLK
0
BLOCK
2
*Paper_Space
70
0
10
0
20
0
30
0
0
ENDBLK
0
ENDSEC
0
SECTION
2
ENTITIES
0
POLYLINE
8
A-BLDG-OUT
10
0
20
0
30
0
70
1
66
1
40
0
41
0
71
0
72
0
0
VERTEX
8
A-BLDG-OUT
10
2000
20
1500
30
0
42
0
0
VERTEX
8
A-BLDG-OUT
10
16000
20
1500
30
0
42
0
0
VERTEX
8
A-BLDG-OUT
10
16000
20
22000
30
0
42
0
0
VERTEX
8
A-BLDG-OUT
10
2000
20
22000
30
0
42
0
0
SEQEND
8
A-BLDG-OUT
0
POLYLINE
8
A-FLOOR-0-A-BLDG-OUT
10
0
20
0
30
0
70
1
66
1
40
0
41
0
71
0
72
0
0
VERTEX
8
A-FLOOR-0-A-BLDG-OUT
10
2000
20
1500
30
0
42
0
0
VERTEX
8
A-FLOOR-0-A-BLDG-OUT
10
16000
20
1500
30
0
42
0
0
VERTEX
8
A-FLOOR-0-A-BLDG-OUT
10
16000
20
22000
30
0
42
0
0
VERTEX
8
A-FLOOR-0-A-BLDG-OUT
10
2000
20
22000
30
0
42
0
0
SEQEND
8
A-FLOOR-0-A-BLDG-OUT
0
POLYLINE
8
A-SETBACK
10
0
20
0
30
0
70
1
66
1
40
0
41
0
71
0
72
0
0
VERTEX
8
A-SETBACK
10
2000
20
1500
30
0
42
0
0
VERTEX
8
A-SETBACK
10
16000
20
1500
30
0
42
0
0
VERTEX
8
A-SETBACK
10
16000
20
22000
30
0
42
0
0
VERTEX
8
A-SETBACK
10
2000
20
22000
30
0
42
0
0
SEQEND
8
A-SETBACK
0
POLYLINE
8
A-FLOOR-0-A-SETBACK
10
0
20
0
30
0
70
1
66
1
40
0
41
0
71
0
72
0
0
VERTEX
8
A-FLOOR-0-A-SETBACK
10
2000
20
1500
30
0
42
0
0
VERTEX
8
A-FLOOR-0-A-SETBACK
10
16000
20
1500
30
0
42
0
0
VERTEX
8
A-FLOOR-0-A-SETBACK
10
16000
20
22000
30
0
42
0
0
VERTEX
8
A-FLOOR-0-A-SETBACK
10
2000
20
22000
30
0
42
0
0
SEQEND
8
A-FLOOR-0-A-SETBACK
0
POLYLINE
8
A-SITE
10
0
20
0
30
0
70
1
66
1
40
0
41
0
71
0
72
0
0
VERTEX
8
A-SITE
10
0
20
0
30
0
42
0
0
VERTEX
8
A-SITE
10
18000
20
0
30
0
42
0
0
VERTEX
8
A-SITE
10
18000
20
25000
30
0
42
0
0
VERTEX
8
A-SITE
10
0
20
25000
30
0
42
0
0
SEQEND
8
A-SITE
0
POLYLINE
8
A-FLOOR-0-A-SITE
10
0
20
0
30
0
70
1
66
1
40
0
41
0
71
0
72
0
0
VERTEX
8
A-FLOOR-0-A-SITE
10
0
20
0
30
0
42
0
0
VERTEX
8
A-FLOOR-0-A-SITE
10
18000
20
0
30
0
42
0
0
VERTEX
8
A-FLOOR-0-A-SITE
10
18000
20
25000
30
0
42
0
0
VERTEX
8
A-FLOOR-0-A-SITE
10
0
20
25000
30
0
42
0
0
SEQEND
8
A-FLOOR-0-A-SITE
0
TEXT
8
A-SITE
10
650
20
-800
30
0
40
300
1
SITE rectangle 18.0x25.0m
50
0
72
0
11
650
21
-800
31
0
0
TEXT
8
A-SETBACK
10
650
20
-1200
30
0
40
200
1
Setbacks N=3 S=1.5 E=2 W=2
50
0
72
0
11
650
21
-1200
31
0
0
TEXT
8
A-TEXT
10
2000
20
19155
30
0
40
300
1
FLOOR 0 - ELEV 0.00 m
50
0
72
0
11
2000
21
19155
31
0
0
TEXT
8
A-FLOOR-0-A-TEXT
10
2000
20
19155
30
0
40
300
1
FLOOR 0 - ELEV 0.00 m
50
0
72
0
11
2000
21
19155
31
0
0
LINE
8
A-WALL-SERVICE
10
2000
20
11540
30
0
11
2600
21
11540
31
0
0
LINE
8
A-WALL-SERVICE
10
2000
20
11420
30
0
11
2600
21
11420
31
0
0
LINE
8
A-WALL-SERVICE
10
2000
20
11540
30
0
11
2000
21
11420
31
0
0
LINE
8
A-WALL-SERVICE
10
3400
20
11540
30
0
11
4000
21
11540
31
0
0
LINE
8
A-WALL-SERVICE
10
3400
20
11420
30
0
11
4000
21
11420
31
0
0
LINE
8
A-WALL-SERVICE
10
4000
20
11540
30
0
11
4000
21
11420
31
0
0
LINE
8
A-WALL-SERVICE
10
2600
20
11540
30
0
11
2600
21
11420
31
0
0
LINE
8
A-WALL-SERVICE
10
3400
20
11540
30
0
11
3400
21
11420
31
0
0
LINE
8
A-FLOOR-0-A-WALL-SERVICE
10
2000
20
11540
30
0
11
2600
21
11540
31
0
0
LINE
8
A-FLOOR-0-A-WALL-SERVICE
10
2000
20
11420
30
0
11
2600
21
11420
31
0
0
LINE
8
A-FLOOR-0-A-WALL-SERVICE
10
2000
20
11540
30
0
11
2000
21
11420
31
0
0
LINE
8
A-FLOOR-0-A-WALL-SERVICE
10
3400
20
11540
30
0
11
4000
21
11540
31
0
0
LINE
8
A-FLOOR-0-A-WALL-SERVICE
10
3400
20
11420
30
0
11
4000
21
11420
31
0
0
LINE
8
A-FLOOR-0-A-WALL-SERVICE
10
4000
20
11540
30
0
11
4000
21
11420
31
0
0
LINE
8
A-FLOOR-0-A-WALL-SERVICE
10
2600
20
11540
30
0
11
2600
21
11420
31
0
0
LINE
8
A-FLOOR-0-A-WALL-SERVICE
10
3400
20
11540
30
0
11
3400
21
11420
31
0
0
LINE
8
A-WALL-INT
10
4000
20
11555
30
0
11
4950
21
11555
31
0
0
LINE
8
A-WALL-INT
10
4000
20
11405
30
0
11
4950
21
11405
31
0
0
LINE
8
A-WALL-INT
10
4000
20
11555
30
0
11
4000
21
11405
31
0
0
LINE
8
A-WALL-INT
10
5850
20
11555
30
0
11
6800
21
11555
31
0
0
LINE
8
A-WALL-INT
10
5850
20
11405
30
0
11
6800
21
11405
31
0
0
LINE
8
A-WALL-INT
10
6800
20
11555
30
0
11
6800
21
11405
31
0
0
LINE
8
A-WALL-INT
10
4950
20
11555
30
0
11
4950
21
11405
31
0
0
LINE
8
A-WALL-INT
10
5850
20
11555
30
0
11
5850
21
11405
31
0
0
LINE
8
A-FLOOR-0-A-WALL-INT
10
4000
20
11555
30
0
11
4950
21
11555
31
0
0
LINE
8
A-FLOOR-0-A-WALL-INT
10
4000
20
11405
30
0
11
4950
21
11405
31
0
0
LINE
8
A-FLOOR-0-A-WALL-INT
10
4000
20
11555
30
0
11
4000
21
11405
31
0
0
LINE
8
A-FLOOR-0-A-WALL-INT
10
5850
20
11555
30
0
11
6800
21
11555
31
0
0
LINE
8
A-FLOOR-0-A-WALL-INT
10
5850
20
11405
30
0
11
6800
21
11405
31
0
0
LINE
8
A-FLOOR-0-A-WALL-INT
10
6800
20
11555
30
0
11
6800
21
11405
31
0
0
LINE
8
A-FLOOR-0-A-WALL-INT
10
4950
20
11555
30
0
11
4950
21
11405
31
0
0
LINE
8
A-FLOOR-0-A-WALL-INT
10
5850
20
11555
30
0
11
5850
21
11405
31
0
0
LINE
8
A-WALL-EXT
10
6800
20
11655
30
0
11
16000
21
11655
31
0
0
LINE
8
A-WALL-EXT
10
6800
20
11305
30
0
11
16000
21
11305
31
0
0
LINE
8
A-WALL-EXT
10
6800
20
11655
30
0
11
6800
21
11305
31
0
0
LINE
8
A-WALL-EXT
10
16000
20
11655
30
0
11
16000
21
11305
31
0
0
LINE
8
A-FLOOR-0-A-WALL-EXT
10
6800
20
11655
30
0
11
16000
21
11655
31
0
0
LINE
8
A-FLOOR-0-A-WALL-EXT
10
6800
20
11305
30
0
11
16000
21
11305
31
0
0
LINE
8
A-FLOOR-0-A-WALL-EXT
10
6800
20
11655
30
0
11
6800
21
11305
31
0
0
LINE
8
A-FLOOR-0-A-WALL-EXT
10
16000
20
11655
30
0
11
16000
21
11305
31
0
0
LINE
8
A-WALL-SERVICE
10
3940
20
11480
30
0
11
3940
21
15860
31
0
0
LINE
8
A-WALL-SERVICE
10
4060
20
11480
30
0
11
4060
21
15860
31
0
0
LINE
8
A-WALL-SERVICE
10
3940
20
11480
30
0
11
4060
21
11480
31
0
0
LINE
8
A-WALL-SERVICE
10
3940
20
15860
30
0
11
4060
21
15860
31
0
0
LINE
8
A-FLOOR-0-A-WALL-SERVICE
10
3940
20
11480
30
0
11
3940
21
15860
31
0
0
LINE
8
A-FLOOR-0-A-WALL-SERVICE
10
4060
20
11480
30
0
11
4060
21
15860
31
0
0
LINE
8
A-FLOOR-0-A-WALL-SERVICE
10
3940
20
11480
30
0
11
4060
21
11480
31
0
0
LINE
8
A-FLOOR-0-A-WALL-SERVICE
10
3940
20
15860
30
0
11
4060
21
15860
31
0
0
LINE
8
A-WALL-EXT
10
3825
20
15860
30
0
11
3825
21
18480
31
0
0
LINE
8
A-WALL-EXT
10
4175
20
15860
30
0
11
4175
21
18480
31
0
0
LINE
8
A-WALL-EXT
10
3825
20
15860
30
0
11
4175
21
15860
31
0
0
LINE
8
A-WALL-EXT
10
3825
20
18480
30
0
11
4175
21
18480
31
0
0
LINE
8
A-FLOOR-0-A-WALL-EXT
10
3825
20
15860
30
0
11
3825
21
18480
31
0
0
LINE
8
A-FLOOR-0-A-WALL-EXT
10
4175
20
15860
30
0
11
4175
21
18480
31
0
0
LINE
8
A-FLOOR-0-A-WALL-EXT
10
3825
20
15860
30
0
11
4175
21
15860
31
0
0
LINE
8
A-FLOOR-0-A-WALL-EXT
10
3825
20
18480
30
0
11
4175
21
18480
31
0
0
LINE
8
A-WALL-EXT
10
2000
20
16035
30
0
11
4000
21
16035
31
0
0
LINE
8
A-WALL-EXT
10
2000
20
15685
30
0
11
4000
21
15685
31
0
0
LINE
8
A-WALL-EXT
10
2000
20
16035
30
0
11
2000
21
15685
31
0
0
LINE
8
A-WALL-EXT
10
4000
20
16035
30
0
11
4000
21
15685
31
0
0
LINE
8
A-FLOOR-0-A-WALL-EXT
10
2000
20
16035
30
0
11
4000
21
16035
31
0
0
LINE
8
A-FLOOR-0-A-WALL-EXT
10
2000
20
15685
30
0
11
4000
21
15685
31
0
0
LINE
8
A-FLOOR-0-A-WALL-EXT
10
2000
20
16035
30
0
11
2000
21
15685
31
0
0
LINE
8
A-FLOOR-0-A-WALL-EXT
10
4000
20
16035
30
0
11
4000
21
15685
31
0
0
LINE
8
A-WALL-EXT
10
1825
20
1500
30
0
11
1825
21
3360
31
0
0
LINE
8
A-WALL-EXT
10
2175
20
1500
30
0
11
2175
21
3360
31
0
0
LINE
8
A-WALL-EXT
10
1825
20
1500
30
0
11
2175
21
1500
31
0
0
LINE
8
A-WALL-EXT
10
1825
20
3360
30
0
11
2175
21
3360
31
0
0
LINE
8
A-FLOOR-0-A-WALL-EXT
10
1825
20
1500
30
0
11
1825
21
3360
31
0
0
LINE
8
A-FLOOR-0-A-WALL-EXT
10
2175
20
1500
30
0
11
2175
21
3360
31
0
0
LINE
8
A-FLOOR-0-A-WALL-EXT
10
1825
20
1500
30
0
11
2175
21
1500
31
0
0
LINE
8
A-FLOOR-0-A-WALL-EXT
10
1825
20
3360
30
0
11
2175
21
3360
31
0
0
LINE
8
A-WALL-EXT
10
1825
20
3360
30
0
11
1825
21
5170
31
0
0
LINE
8
A-WALL-EXT
10
2175
20
3360
30
0
11
2175
21
5170
31
0
0
LINE
8
A-WALL-EXT
10
1825
20
8170
30
0
11
1825
21
9980
31
0
0
LINE
8
A-WALL-EXT
10
2175
20
8170
30
0
11
2175
21
9980
31
0
0
LINE
8
A-WALL-EXT
10
1825
20
9980
30
0
11
2175
21
9980
31
0
0
LINE
8
A-WALL-EXT
10
1825
20
5170
30
0
11
2175
21
5170
31
0
0
LINE
8
A-WALL-EXT
10
1825
20
8170
30
0
11
2175
21
8170
31
0
0
LINE
8
A-FLOOR-0-A-WALL-EXT
10
1825
20
3360
30
0
11
1825
21
5170
31
0
0
LINE
8
A-FLOOR-0-A-WALL-EXT
10
2175
20
3360
30
0
11
2175
21
5170
31
0
0
LINE
8
A-FLOOR-0-A-WALL-EXT
10
1825
20
8170
30
0
11
1825
21
9980
31
0
0
LINE
8
A-FLOOR-0-A-WALL-EXT
10
2175
20
8170
30
0
11
2175
21
9980
31
0
0
LINE
8
A-FLOOR-0-A-WALL-EXT
10
1825
20
9980
30
0
11
2175
21
9980
31
0
0
LINE
8
A-FLOOR-0-A-WALL-EXT
10
1825
20
5170
30
0
11
2175
21
5170
31
0
0
LINE
8
A-FLOOR-0-A-WALL-EXT
10
1825
20
8170
30
0
11
2175
21
8170
31
0
0
LINE
8
A-WALL-EXT
10
1825
20
9980
30
0
11
1825
21
11480
31
0
0
LINE
8
A-WALL-EXT
10
2175
20
9980
30
0
11
2175
21
11480
31
0
0
LINE
8
A-WALL-EXT
10
1825
20
11480
30
0
11
2175
21
11480
31
0
0
LINE
8
A-FLOOR-0-A-WALL-EXT
10
1825
20
9980
30
0
11
1825
21
11480
31
0
0
LINE
8
A-FLOOR-0-A-WALL-EXT
10
2175
20
9980
30
0
11
2175
21
11480
31
0
0
LINE
8
A-FLOOR-0-A-WALL-EXT
10
1825
20
11480
30
0
11
2175
21
11480
31
0
0
LINE
8
A-WALL-EXT
10
1825
20
11480
30
0
11
1825
21
13170
31
0
0
LINE
8
A-WALL-EXT
10
2175
20
11480
30
0
11
2175
21
13170
31
0
0
LINE
8
A-WALL-EXT
10
1825
20
14170
30
0
11
1825
21
15860
31
0
0
LINE
8
A-WALL-EXT
10
2175
20
14170
30
0
11
2175
21
15860
31
0
0
LINE
8
A-WALL-EXT
10
1825
20
15860
30
0
11
2175
21
15860
31
0
0
LINE
8
A-WALL-EXT
10
1825
20
13170
30
0
11
2175
21
13170
31
0
0
LINE
8
A-WALL-EXT
10
1825
20
14170
30
0
11
2175
21
14170
31
0
0
LINE
8
A-FLOOR-0-A-WALL-EXT
10
1825
20
11480
30
0
11
1825
21
13170
31
0
0
LINE
8
A-FLOOR-0-A-WALL-EXT
10
2175
20
11480
30
0
11
2175
21
13170
31
0
0
LINE
8
A-FLOOR-0-A-WALL-EXT
10
1825
20
14170
30
0
11
1825
21
15860
31
0
0
LINE
8
A-FLOOR-0-A-WALL-EXT
10
2175
20
14170
30
0
11
2175
21
15860
31
0
0
LINE
8
A-FLOOR-0-A-WALL-EXT
10
1825
20
15860
30
0
11
2175
21
15860
31
0
0
LINE
8
A-FLOOR-0-A-WALL-EXT
10
1825
20
13170
30
0
11
2175
21
13170
31
0
0
LINE
8
A-FLOOR-0-A-WALL-EXT
10
1825
20
14170
30
0
11
2175
21
14170
31
0
0
LINE
8
A-WALL-EXT
10
6625
20
11480
30
0
11
6625
21
18480
31
0
0
LINE
8
A-WALL-EXT
10
6975
20
11480
30
0
11
6975
21
18480
31
0
0
LINE
8
A-WALL-EXT
10
6625
20
11480
30
0
11
6975
21
11480
31
0
0
LINE
8
A-WALL-EXT
10
6625
20
18480
30
0
11
6975
21
18480
31
0
0
LINE
8
A-FLOOR-0-A-WALL-EXT
10
6625
20
11480
30
0
11
6625
21
18480
31
0
0
LINE
8
A-FLOOR-0-A-WALL-EXT
10
6975
20
11480
30
0
11
6975
21
18480
31
0
0
LINE
8
A-FLOOR-0-A-WALL-EXT
10
6625
20
11480
30
0
11
6975
21
11480
31
0
0
LINE
8
A-FLOOR-0-A-WALL-EXT
10
6625
20
18480
30
0
11
6975
21
18480
31
0
0
LINE
8
A-WALL-EXT
10
4000
20
18655
30
0
11
4560
21
18655
31
0
0
LINE
8
A-WALL-EXT
10
4000
20
18305
30
0
11
4560
21
18305
31
0
0
LINE
8
A-WALL-EXT
10
4000
20
18655
30
0
11
4000
21
18305
31
0
0
LINE
8
A-WALL-EXT
10
6240
20
18655
30
0
11
6800
21
18655
31
0
0
LINE
8
A-WALL-EXT
10
6240
20
18305
30
0
11
6800
21
18305
31
0
0
LINE
8
A-WALL-EXT
10
6800
20
18655
30
0
11
6800
21
18305
31
0
0
LINE
8
A-WALL-EXT
10
4560
20
18655
30
0
11
4560
21
18305
31
0
0
LINE
8
A-WALL-EXT
10
6240
20
18655
30
0
11
6240
21
18305
31
0
0
LINE
8
A-FLOOR-0-A-WALL-EXT
10
4000
20
18655
30
0
11
4560
21
18655
31
0
0
LINE
8
A-FLOOR-0-A-WALL-EXT
10
4000
20
18305
30
0
11
4560
21
18305
31
0
0
LINE
8
A-FLOOR-0-A-WALL-EXT
10
4000
20
18655
30
0
11
4000
21
18305
31
0
0
LINE
8
A-FLOOR-0-A-WALL-EXT
10
6240
20
18655
30
0
11
6800
21
18655
31
0
0
LINE
8
A-FLOOR-0-A-WALL-EXT
10
6240
20
18305
30
0
11
6800
21
18305
31
0
0
LINE
8
A-FLOOR-0-A-WALL-EXT
10
6800
20
18655
30
0
11
6800
21
18305
31
0
0
LINE
8
A-FLOOR-0-A-WALL-EXT
10
4560
20
18655
30
0
11
4560
21
18305
31
0
0
LINE
8
A-FLOOR-0-A-WALL-EXT
10
6240
20
18655
30
0
11
6240
21
18305
31
0
0
LINE
8
A-WALL-EXT
10
13600
20
4315
30
0
11
16000
21
4315
31
0
0
LINE
8
A-WALL-EXT
10
13600
20
3965
30
0
11
16000
21
3965
31
0
0
LINE
8
A-WALL-EXT
10
13600
20
4315
30
0
11
13600
21
3965
31
0
0
LINE
8
A-WALL-EXT
10
16000
20
4315
30
0
11
16000
21
3965
31
0
0
LINE
8
A-FLOOR-0-A-WALL-EXT
10
13600
20
4315
30
0
11
16000
21
4315
31
0
0
LINE
8
A-FLOOR-0-A-WALL-EXT
10
13600
20
3965
30
0
11
16000
21
3965
31
0
0
LINE
8
A-FLOOR-0-A-WALL-EXT
10
13600
20
4315
30
0
11
13600
21
3965
31
0
0
LINE
8
A-FLOOR-0-A-WALL-EXT
10
16000
20
4315
30
0
11
16000
21
3965
31
0
0
LINE
8
A-WALL-EXT
10
15825
20
4140
30
0
11
15825
21
6160
31
0
0
LINE
8
A-WALL-EXT
10
16175
20
4140
30
0
11
16175
21
6160
31
0
0
LINE
8
A-WALL-EXT
10
15825
20
4140
30
0
11
16175
21
4140
31
0
0
LINE
8
A-WALL-EXT
10
15825
20
7960
30
0
11
15825
21
9980
31
0
0
LINE
8
A-WALL-EXT
10
16175
20
7960
30
0
11
16175
21
9980
31
0
0
LINE
8
A-WALL-EXT
10
15825
20
9980
30
0
11
16175
21
9980
31
0
0
LINE
8
A-WALL-EXT
10
15825
20
6160
30
0
11
16175
21
6160
31
0
0
LINE
8
A-WALL-EXT
10
15825
20
7960
30
0
11
16175
21
7960
31
0
0
LINE
8
A-FLOOR-0-A-WALL-EXT
10
15825
20
4140
30
0
11
15825
21
6160
31
0
0
LINE
8
A-FLOOR-0-A-WALL-EXT
10
16175
20
4140
30
0
11
16175
21
6160
31
0
0
LINE
8
A-FLOOR-0-A-WALL-EXT
10
15825
20
4140
30
0
11
16175
21
4140
31
0
0
LINE
8
A-FLOOR-0-A-WALL-EXT
10
15825
20
7960
30
0
11
15825
21
9980
31
0
0
LINE
8
A-FLOOR-0-A-WALL-EXT
10
16175
20
7960
30
0
11
16175
21
9980
31
0
0
LINE
8
A-FLOOR-0-A-WALL-EXT
10
15825
20
9980
30
0
11
16175
21
9980
31
0
0
LINE
8
A-FLOOR-0-A-WALL-EXT
10
15825
20
6160
30
0
11
16175
21
6160
31
0
0
LINE
8
A-FLOOR-0-A-WALL-EXT
10
15825
20
7960
30
0
11
16175
21
7960
31
0
0
LINE
8
A-WALL-EXT
10
15825
20
9980
30
0
11
15825
21
11480
31
0
0
LINE
8
A-WALL-EXT
10
16175
20
9980
30
0
11
16175
21
11480
31
0
0
LINE
8
A-WALL-EXT
10
15825
20
11480
30
0
11
16175
21
11480
31
0
0
LINE
8
A-FLOOR-0-A-WALL-EXT
10
15825
20
9980
30
0
11
15825
21
11480
31
0
0
LINE
8
A-FLOOR-0-A-WALL-EXT
10
16175
20
9980
30
0
11
16175
21
11480
31
0
0
LINE
8
A-FLOOR-0-A-WALL-EXT
10
15825
20
11480
30
0
11
16175
21
11480
31
0
0
LINE
8
A-WALL-INT
10
2000
20
10055
30
0
11
5280
21
10055
31
0
0
LINE
8
A-WALL-INT
10
2000
20
9905
30
0
11
5280
21
9905
31
0
0
LINE
8
A-WALL-INT
10
2000
20
10055
30
0
11
2000
21
9905
31
0
0
LINE
8
A-WALL-INT
10
6180
20
10055
30
0
11
9460
21
10055
31
0
0
LINE
8
A-WALL-INT
10
6180
20
9905
30
0
11
9460
21
9905
31
0
0
LINE
8
A-WALL-INT
10
9460
20
10055
30
0
11
9460
21
9905
31
0
0
LINE
8
A-WALL-INT
10
5280
20
10055
30
0
11
5280
21
9905
31
0
0
LINE
8
A-WALL-INT
10
6180
20
10055
30
0
11
6180
21
9905
31
0
0
LINE
8
A-FLOOR-0-A-WALL-INT
10
2000
20
10055
30
0
11
5280
21
10055
31
0
0
LINE
8
A-FLOOR-0-A-WALL-INT
10
2000
20
9905
30
0
11
5280
21
9905
31
0
0
LINE
8
A-FLOOR-0-A-WALL-INT
10
2000
20
10055
30
0
11
2000
21
9905
31
0
0
LINE
8
A-FLOOR-0-A-WALL-INT
10
6180
20
10055
30
0
11
9460
21
10055
31
0
0
LINE
8
A-FLOOR-0-A-WALL-INT
10
6180
20
9905
30
0
11
9460
21
9905
31
0
0
LINE
8
A-FLOOR-0-A-WALL-INT
10
9460
20
10055
30
0
11
9460
21
9905
31
0
0
LINE
8
A-FLOOR-0-A-WALL-INT
10
5280
20
10055
30
0
11
5280
21
9905
31
0
0
LINE
8
A-FLOOR-0-A-WALL-INT
10
6180
20
10055
30
0
11
6180
21
9905
31
0
0
LINE
8
A-WALL-INT
10
9460
20
10055
30
0
11
11080
21
10055
31
0
0
LINE
8
A-WALL-INT
10
9460
20
9905
30
0
11
11080
21
9905
31
0
0
LINE
8
A-WALL-INT
10
11980
20
10055
30
0
11
13600
21
10055
31
0
0
LINE
8
A-WALL-INT
10
11980
20
9905
30
0
11
13600
21
9905
31
0
0
LINE
8
A-WALL-INT
10
13600
20
10055
30
0
11
13600
21
9905
31
0
0
LINE
8
A-WALL-INT
10
11080
20
10055
30
0
11
11080
21
9905
31
0
0
LINE
8
A-WALL-INT
10
11980
20
10055
30
0
11
11980
21
9905
31
0
0
LINE
8
A-FLOOR-0-A-WALL-INT
10
9460
20
10055
30
0
11
11080
21
10055
31
0
0
LINE
8
A-FLOOR-0-A-WALL-INT
10
9460
20
9905
30
0
11
11080
21
9905
31
0
0
LINE
8
A-FLOOR-0-A-WALL-INT
10
11980
20
10055
30
0
11
13600
21
10055
31
0
0
LINE
8
A-FLOOR-0-A-WALL-INT
10
11980
20
9905
30
0
11
13600
21
9905
31
0
0
LINE
8
A-FLOOR-0-A-WALL-INT
10
13600
20
10055
30
0
11
13600
21
9905
31
0
0
LINE
8
A-FLOOR-0-A-WALL-INT
10
11080
20
10055
30
0
11
11080
21
9905
31
0
0
LINE
8
A-FLOOR-0-A-WALL-INT
10
11980
20
10055
30
0
11
11980
21
9905
31
0
0
LINE
8
A-WALL-INT
10
13600
20
10055
30
0
11
14350
21
10055
31
0
0
LINE
8
A-WALL-INT
10
13600
20
9905
30
0
11
14350
21
9905
31
0
0
LINE
8
A-WALL-INT
10
15250
20
10055
30
0
11
16000
21
10055
31
0
0
LINE
8
A-WALL-INT
10
15250
20
9905
30
0
11
16000
21
9905
31
0
0
LINE
8
A-WALL-INT
10
16000
20
10055
30
0
11
16000
21
9905
31
0
0
LINE
8
A-WALL-INT
10
14350
20
10055
30
0
11
14350
21
9905
31
0
0
LINE
8
A-WALL-INT
10
15250
20
10055
30
0
11
15250
21
9905
31
0
0
LINE
8
A-FLOOR-0-A-WALL-INT
10
13600
20
10055
30
0
11
14350
21
10055
31
0
0
LINE
8
A-FLOOR-0-A-WALL-INT
10
13600
20
9905
30
0
11
14350
21
9905
31
0
0
LINE
8
A-FLOOR-0-A-WALL-INT
10
15250
20
10055
30
0
11
16000
21
10055
31
0
0
LINE
8
A-FLOOR-0-A-WALL-INT
10
15250
20
9905
30
0
11
16000
21
9905
31
0
0
LINE
8
A-FLOOR-0-A-WALL-INT
10
16000
20
10055
30
0
11
16000
21
9905
31
0
0
LINE
8
A-FLOOR-0-A-WALL-INT
10
14350
20
10055
30
0
11
14350
21
9905
31
0
0
LINE
8
A-FLOOR-0-A-WALL-INT
10
15250
20
10055
30
0
11
15250
21
9905
31
0
0
LINE
8
A-WALL-EXT
10
13425
20
1500
30
0
11
13425
21
3360
31
0
0
LINE
8
A-WALL-EXT
10
13775
20
1500
30
0
11
13775
21
3360
31
0
0
LINE
8
A-WALL-EXT
10
13425
20
1500
30
0
11
13775
21
1500
31
0
0
LINE
8
A-WALL-EXT
10
13425
20
3360
30
0
11
13775
21
3360
31
0
0
LINE
8
A-FLOOR-0-A-WALL-EXT
10
13425
20
1500
30
0
11
13425
21
3360
31
0
0
LINE
8
A-FLOOR-0-A-WALL-EXT
10
13775
20
1500
30
0
11
13775
21
3360
31
0
0
LINE
8
A-FLOOR-0-A-WALL-EXT
10
13425
20
1500
30
0
11
13775
21
1500
31
0
0
LINE
8
A-FLOOR-0-A-WALL-EXT
10
13425
20
3360
30
0
11
13775
21
3360
31
0
0
LINE
8
A-WALL-EXT
10
13425
20
3360
30
0
11
13425
21
4140
31
0
0
LINE
8
A-WALL-EXT
10
13775
20
3360
30
0
11
13775
21
4140
31
0
0
LINE
8
A-WALL-EXT
10
13425
20
4140
30
0
11
13775
21
4140
31
0
0
LINE
8
A-FLOOR-0-A-WALL-EXT
10
13425
20
3360
30
0
11
13425
21
4140
31
0
0
LINE
8
A-FLOOR-0-A-WALL-EXT
10
13775
20
3360
30
0
11
13775
21
4140
31
0
0
LINE
8
A-FLOOR-0-A-WALL-EXT
10
13425
20
4140
30
0
11
13775
21
4140
31
0
0
LINE
8
A-WALL-INT
10
13525
20
4140
30
0
11
13525
21
9980
31
0
0
LINE
8
A-WALL-INT
10
13675
20
4140
30
0
11
13675
21
9980
31
0
0
LINE
8
A-WALL-INT
10
13525
20
4140
30
0
11
13675
21
4140
31
0
0
LINE
8
A-WALL-INT
10
13525
20
9980
30
0
11
13675
21
9980
31
0
0
LINE
8
A-FLOOR-0-A-WALL-INT
10
13525
20
4140
30
0
11
13525
21
9980
31
0
0
LINE
8
A-FLOOR-0-A-WALL-INT
10
13675
20
4140
30
0
11
13675
21
9980
31
0
0
LINE
8
A-FLOOR-0-A-WALL-INT
10
13525
20
4140
30
0
11
13675
21
4140
31
0
0
LINE
8
A-FLOOR-0-A-WALL-INT
10
13525
20
9980
30
0
11
13675
21
9980
31
0
0
LINE
8
A-WALL-EXT
10
2000
20
1675
30
0
11
3415
21
1675
31
0
0
LINE
8
A-WALL-EXT
10
2000
20
1325
30
0
11
3415
21
1325
31
0
0
LINE
8
A-WALL-EXT
10
2000
20
1675
30
0
11
2000
21
1325
31
0
0
LINE
8
A-WALL-EXT
10
4415
20
1675
30
0
11
5830
21
1675
31
0
0
LINE
8
A-WALL-EXT
10
4415
20
1325
30
0
11
5830
21
1325
31
0
0
LINE
8
A-WALL-EXT
10
5830
20
1675
30
0
11
5830
21
1325
31
0
0
LINE
8
A-WALL-EXT
10
3415
20
1675
30
0
11
3415
21
1325
31
0
0
LINE
8
A-WALL-EXT
10
4415
20
1675
30
0
11
4415
21
1325
31
0
0
LINE
8
A-FLOOR-0-A-WALL-EXT
10
2000
20
1675
30
0
11
3415
21
1675
31
0
0
LINE
8
A-FLOOR-0-A-WALL-EXT
10
2000
20
1325
30
0
11
3415
21
1325
31
0
0
LINE
8
A-FLOOR-0-A-WALL-EXT
10
2000
20
1675
30
0
11
2000
21
1325
31
0
0
LINE
8
A-FLOOR-0-A-WALL-EXT
10
4415
20
1675
30
0
11
5830
21
1675
31
0
0
LINE
8
A-FLOOR-0-A-WALL-EXT
10
4415
20
1325
30
0
11
5830
21
1325
31
0
0
LINE
8
A-FLOOR-0-A-WALL-EXT
10
5830
20
1675
30
0
11
5830
21
1325
31
0
0
LINE
8
A-FLOOR-0-A-WALL-EXT
10
3415
20
1675
30
0
11
3415
21
1325
31
0
0
LINE
8
A-FLOOR-0-A-WALL-EXT
10
4415
20
1675
30
0
11
4415
21
1325
31
0
0
LINE
8
A-WALL-EXT
10
5830
20
1675
30
0
11
10740
21
1675
31
0
0
LINE
8
A-WALL-EXT
10
5830
20
1325
30
0
11
10740
21
1325
31
0
0
LINE
8
A-WALL-EXT
10
10740
20
1675
30
0
11
10740
21
1325
31
0
0
LINE
8
A-FLOOR-0-A-WALL-EXT
10
5830
20
1675
30
0
11
10740
21
1675
31
0
0
LINE
8
A-FLOOR-0-A-WALL-EXT
10
5830
20
1325
30
0
11
10740
21
1325
31
0
0
LINE
8
A-FLOOR-0-A-WALL-EXT
10
10740
20
1675
30
0
11
10740
21
1325
31
0
0
LINE
8
A-WALL-EXT
10
10740
20
1675
30
0
11
13600
21
1675
31
0
0
LINE
8
A-WALL-EXT
10
10740
20
1325
30
0
11
13600
21
1325
31
0
0
LINE
8
A-WALL-EXT
10
13600
20
1675
30
0
11
13600
21
1325
31
0
0
LINE
8
A-FLOOR-0-A-WALL-EXT
10
10740
20
1675
30
0
11
13600
21
1675
31
0
0
LINE
8
A-FLOOR-0-A-WALL-EXT
10
10740
20
1325
30
0
11
13600
21
1325
31
0
0
LINE
8
A-FLOOR-0-A-WALL-EXT
10
13600
20
1675
30
0
11
13600
21
1325
31
0
0
LINE
8
A-WALL-INT
10
5755
20
1500
30
0
11
5755
21
1980
31
0
0
LINE
8
A-WALL-INT
10
5905
20
1500
30
0
11
5905
21
1980
31
0
0
LINE
8
A-WALL-INT
10
5755
20
1500
30
0
11
5905
21
1500
31
0
0
LINE
8
A-WALL-INT
10
5755
20
2880
30
0
11
5755
21
3360
31
0
0
LINE
8
A-WALL-INT
10
5905
20
2880
30
0
11
5905
21
3360
31
0
0
LINE
8
A-WALL-INT
10
5755
20
3360
30
0
11
5905
21
3360
31
0
0
LINE
8
A-WALL-INT
10
5755
20
1980
30
0
11
5905
21
1980
31
0
0
LINE
8
A-WALL-INT
10
5755
20
2880
30
0
11
5905
21
2880
31
0
0
LINE
8
A-FLOOR-0-A-WALL-INT
10
5755
20
1500
30
0
11
5755
21
1980
31
0
0
LINE
8
A-FLOOR-0-A-WALL-INT
10
5905
20
1500
30
0
11
5905
21
1980
31
0
0
LINE
8
A-FLOOR-0-A-WALL-INT
10
5755
20
1500
30
0
11
5905
21
1500
31
0
0
LINE
8
A-FLOOR-0-A-WALL-INT
10
5755
20
2880
30
0
11
5755
21
3360
31
0
0
LINE
8
A-FLOOR-0-A-WALL-INT
10
5905
20
2880
30
0
11
5905
21
3360
31
0
0
LINE
8
A-FLOOR-0-A-WALL-INT
10
5755
20
3360
30
0
11
5905
21
3360
31
0
0
LINE
8
A-FLOOR-0-A-WALL-INT
10
5755
20
1980
30
0
11
5905
21
1980
31
0
0
LINE
8
A-FLOOR-0-A-WALL-INT
10
5755
20
2880
30
0
11
5905
21
2880
31
0
0
LINE
8
A-WALL-INT
10
2000
20
3435
30
0
11
5830
21
3435
31
0
0
LINE
8
A-WALL-INT
10
2000
20
3285
30
0
11
5830
21
3285
31
0
0
LINE
8
A-WALL-INT
10
2000
20
3435
30
0
11
2000
21
3285
31
0
0
LINE
8
A-WALL-INT
10
5830
20
3435
30
0
11
5830
21
3285
31
0
0
LINE
8
A-FLOOR-0-A-WALL-INT
10
2000
20
3435
30
0
11
5830
21
3435
31
0
0
LINE
8
A-FLOOR-0-A-WALL-INT
10
2000
20
3285
30
0
11
5830
21
3285
31
0
0
LINE
8
A-FLOOR-0-A-WALL-INT
10
2000
20
3435
30
0
11
2000
21
3285
31
0
0
LINE
8
A-FLOOR-0-A-WALL-INT
10
5830
20
3435
30
0
11
5830
21
3285
31
0
0
LINE
8
A-WALL-INT
10
5830
20
3435
30
0
11
7195
21
3435
31
0
0
LINE
8
A-WALL-INT
10
5830
20
3285
30
0
11
7195
21
3285
31
0
0
LINE
8
A-WALL-INT
10
8095
20
3435
30
0
11
9460
21
3435
31
0
0
LINE
8
A-WALL-INT
10
8095
20
3285
30
0
11
9460
21
3285
31
0
0
LINE
8
A-WALL-INT
10
9460
20
3435
30
0
11
9460
21
3285
31
0
0
LINE
8
A-WALL-INT
10
7195
20
3435
30
0
11
7195
21
3285
31
0
0
LINE
8
A-WALL-INT
10
8095
20
3435
30
0
11
8095
21
3285
31
0
0
LINE
8
A-FLOOR-0-A-WALL-INT
10
5830
20
3435
30
0
11
7195
21
3435
31
0
0
LINE
8
A-FLOOR-0-A-WALL-INT
10
5830
20
3285
30
0
11
7195
21
3285
31
0
0
LINE
8
A-FLOOR-0-A-WALL-INT
10
8095
20
3435
30
0
11
9460
21
3435
31
0
0
LINE
8
A-FLOOR-0-A-WALL-INT
10
8095
20
3285
30
0
11
9460
21
3285
31
0
0
LINE
8
A-FLOOR-0-A-WALL-INT
10
9460
20
3435
30
0
11
9460
21
3285
31
0
0
LINE
8
A-FLOOR-0-A-WALL-INT
10
7195
20
3435
30
0
11
7195
21
3285
31
0
0
LINE
8
A-FLOOR-0-A-WALL-INT
10
8095
20
3435
30
0
11
8095
21
3285
31
0
0
LINE
8
A-WALL-INT
10
9460
20
3435
30
0
11
10740
21
3435
31
0
0
LINE
8
A-WALL-INT
10
9460
20
3285
30
0
11
10740
21
3285
31
0
0
LINE
8
A-WALL-INT
10
10740
20
3435
30
0
11
10740
21
3285
31
0
0
LINE
8
A-FLOOR-0-A-WALL-INT
10
9460
20
3435
30
0
11
10740
21
3435
31
0
0
LINE
8
A-FLOOR-0-A-WALL-INT
10
9460
20
3285
30
0
11
10740
21
3285
31
0
0
LINE
8
A-FLOOR-0-A-WALL-INT
10
10740
20
3435
30
0
11
10740
21
3285
31
0
0
LINE
8
A-WALL-SERVICE
10
10740
20
3420
30
0
11
13600
21
3420
31
0
0
LINE
8
A-WALL-SERVICE
10
10740
20
3300
30
0
11
13600
21
3300
31
0
0
LINE
8
A-WALL-SERVICE
10
10740
20
3420
30
0
11
10740
21
3300
31
0
0
LINE
8
A-WALL-SERVICE
10
13600
20
3420
30
0
11
13600
21
3300
31
0
0
LINE
8
A-FLOOR-0-A-WALL-SERVICE
10
10740
20
3420
30
0
11
13600
21
3420
31
0
0
LINE
8
A-FLOOR-0-A-WALL-SERVICE
10
10740
20
3300
30
0
11
13600
21
3300
31
0
0
LINE
8
A-FLOOR-0-A-WALL-SERVICE
10
10740
20
3420
30
0
11
10740
21
3300
31
0
0
LINE
8
A-FLOOR-0-A-WALL-SERVICE
10
13600
20
3420
30
0
11
13600
21
3300
31
0
0
LINE
8
A-WALL-SERVICE
10
10680
20
1500
30
0
11
10680
21
2030
31
0
0
LINE
8
A-WALL-SERVICE
10
10800
20
1500
30
0
11
10800
21
2030
31
0
0
LINE
8
A-WALL-SERVICE
10
10680
20
1500
30
0
11
10800
21
1500
31
0
0
LINE
8
A-WALL-SERVICE
10
10680
20
2830
30
0
11
10680
21
3360
31
0
0
LINE
8
A-WALL-SERVICE
10
10800
20
2830
30
0
11
10800
21
3360
31
0
0
LINE
8
A-WALL-SERVICE
10
10680
20
3360
30
0
11
10800
21
3360
31
0
0
LINE
8
A-WALL-SERVICE
10
10680
20
2030
30
0
11
10800
21
2030
31
0
0
LINE
8
A-WALL-SERVICE
10
10680
20
2830
30
0
11
10800
21
2830
31
0
0
LINE
8
A-FLOOR-0-A-WALL-SERVICE
10
10680
20
1500
30
0
11
10680
21
2030
31
0
0
LINE
8
A-FLOOR-0-A-WALL-SERVICE
10
10800
20
1500
30
0
11
10800
21
2030
31
0
0
LINE
8
A-FLOOR-0-A-WALL-SERVICE
10
10680
20
1500
30
0
11
10800
21
1500
31
0
0
LINE
8
A-FLOOR-0-A-WALL-SERVICE
10
10680
20
2830
30
0
11
10680
21
3360
31
0
0
LINE
8
A-FLOOR-0-A-WALL-SERVICE
10
10800
20
2830
30
0
11
10800
21
3360
31
0
0
LINE
8
A-FLOOR-0-A-WALL-SERVICE
10
10680
20
3360
30
0
11
10800
21
3360
31
0
0
LINE
8
A-FLOOR-0-A-WALL-SERVICE
10
10680
20
2030
30
0
11
10800
21
2030
31
0
0
LINE
8
A-FLOOR-0-A-WALL-SERVICE
10
10680
20
2830
30
0
11
10800
21
2830
31
0
0
LINE
8
A-WALL-INT
10
9385
20
3360
30
0
11
9385
21
9980
31
0
0
LINE
8
A-WALL-INT
10
9535
20
3360
30
0
11
9535
21
9980
31
0
0
LINE
8
A-WALL-INT
10
9385
20
3360
30
0
11
9535
21
3360
31
0
0
LINE
8
A-WALL-INT
10
9385
20
9980
30
0
11
9535
21
9980
31
0
0
LINE
8
A-FLOOR-0-A-WALL-INT
10
9385
20
3360
30
0
11
9385
21
9980
31
0
0
LINE
8
A-FLOOR-0-A-WALL-INT
10
9535
20
3360
30
0
11
9535
21
9980
31
0
0
LINE
8
A-FLOOR-0-A-WALL-INT
10
9385
20
3360
30
0
11
9535
21
3360
31
0
0
LINE
8
A-FLOOR-0-A-WALL-INT
10
9385
20
9980
30
0
11
9535
21
9980
31
0
0
LINE
8
A-DOOR
10
3415
20
1500
30
0
11
4415
21
1500
31
0
0
ARC
8
A-DOOR
10
3415
20
1500
30
0
40
1000
50
0
51
90
0
LINE
8
A-DOOR
10
3415
20
2500
30
0
11
3375
21
2500
31
0
0
LINE
8
A-FLOOR-0-A-DOOR
10
3415
20
1500
30
0
11
4415
21
1500
31
0
0
ARC
8
A-FLOOR-0-A-DOOR
10
3415
20
1500
30
0
40
1000
50
0
51
90
0
LINE
8
A-FLOOR-0-A-DOOR
10
3415
20
2500
30
0
11
3375
21
2500
31
0
0
LINE
8
A-DIMS
10
4415
20
1450
30
0
11
4415
21
1100
31
0
0
LINE
8
A-FLOOR-0-A-DIMS
10
4415
20
1450
30
0
11
4415
21
1100
31
0
0
LINE
8
A-DIMS
10
3415
20
1450
30
0
11
3415
21
1100
31
0
0
LINE
8
A-FLOOR-0-A-DIMS
10
3415
20
1450
30
0
11
3415
21
1100
31
0
0
LINE
8
A-DIMS
10
4415
20
1180
30
0
11
3415
21
1180
31
0
0
LINE
8
A-FLOOR-0-A-DIMS
10
4415
20
1180
30
0
11
3415
21
1180
31
0
0
LINE
8
A-DIMS
10
4365
20
1130
30
0
11
4465
21
1230
31
0
0
LINE
8
A-FLOOR-0-A-DIMS
10
4365
20
1130
30
0
11
4465
21
1230
31
0
0
LINE
8
A-DIMS
10
3365
20
1130
30
0
11
3465
21
1230
31
0
0
LINE
8
A-FLOOR-0-A-DIMS
10
3365
20
1130
30
0
11
3465
21
1230
31
0
0
TEXT
8
A-DIMS
10
3915
20
1120
30
0
40
100
1
1.00 m
50
0
72
1
11
3915
21
1120
31
0
0
TEXT
8
A-FLOOR-0-A-DIMS
10
3915
20
1120
30
0
40
100
1
1.00 m
50
0
72
1
11
3915
21
1120
31
0
0
LINE
8
A-DOOR
10
5830
20
1980
30
0
11
5830
21
2880
31
0
0
ARC
8
A-DOOR
10
5830
20
1980
30
0
40
900
50
0
51
90
0
LINE
8
A-DOOR
10
6730
20
1980
30
0
11
6730
21
2020
31
0
0
LINE
8
A-FLOOR-0-A-DOOR
10
5830
20
1980
30
0
11
5830
21
2880
31
0
0
ARC
8
A-FLOOR-0-A-DOOR
10
5830
20
1980
30
0
40
900
50
0
51
90
0
LINE
8
A-FLOOR-0-A-DOOR
10
6730
20
1980
30
0
11
6730
21
2020
31
0
0
LINE
8
A-DOOR
10
11080
20
9980
30
0
11
11980
21
9980
31
0
0
ARC
8
A-DOOR
10
11080
20
9980
30
0
40
900
50
270
51
0
0
LINE
8
A-DOOR
10
11080
20
9080
30
0
11
11120
21
9080
31
0
0
LINE
8
A-FLOOR-0-A-DOOR
10
11080
20
9980
30
0
11
11980
21
9980
31
0
0
ARC
8
A-FLOOR-0-A-DOOR
10
11080
20
9980
30
0
40
900
50
270
51
0
0
LINE
8
A-FLOOR-0-A-DOOR
10
11080
20
9080
30
0
11
11120
21
9080
31
0
0
LINE
8
A-DOOR
10
10740
20
2830
30
0
11
10740
21
2030
31
0
0
ARC
8
A-DOOR
10
10740
20
2830
30
0
40
800
50
270
51
0
0
LINE
8
A-DOOR
10
11540
20
2830
30
0
11
11540
21
2870
31
0
0
LINE
8
A-FLOOR-0-A-DOOR
10
10740
20
2830
30
0
11
10740
21
2030
31
0
0
ARC
8
A-FLOOR-0-A-DOOR
10
10740
20
2830
30
0
40
800
50
270
51
0
0
LINE
8
A-FLOOR-0-A-DOOR
10
11540
20
2830
30
0
11
11540
21
2870
31
0
0
LINE
8
A-DOOR
10
15250
20
9980
30
0
11
14350
21
9980
31
0
0
ARC
8
A-DOOR
10
15250
20
9980
30
0
40
900
50
180
51
270
0
LINE
8
A-DOOR
10
15250
20
9080
30
0
11
15290
21
9080
31
0
0
LINE
8
A-FLOOR-0-A-DOOR
10
15250
20
9980
30
0
11
14350
21
9980
31
0
0
ARC
8
A-FLOOR-0-A-DOOR
10
15250
20
9980
30
0
40
900
50
180
51
270
0
LINE
8
A-FLOOR-0-A-DOOR
10
15250
20
9080
30
0
11
15290
21
9080
31
0
0
LINE
8
A-DOOR
10
7195
20
3360
30
0
11
8095
21
3360
31
0
0
ARC
8
A-DOOR
10
7195
20
3360
30
0
40
900
50
0
51
90
0
LINE
8
A-DOOR
10
7195
20
4260
30
0
11
7155
21
4260
31
0
0
LINE
8
A-FLOOR-0-A-DOOR
10
7195
20
3360
30
0
11
8095
21
3360
31
0
0
ARC
8
A-FLOOR-0-A-DOOR
10
7195
20
3360
30
0
40
900
50
0
51
90
0
LINE
8
A-FLOOR-0-A-DOOR
10
7195
20
4260
30
0
11
7155
21
4260
31
0
0
LINE
8
A-DOOR
10
2600
20
11480
30
0
11
3400
21
11480
31
0
0
ARC
8
A-DOOR
10
2600
20
11480
30
0
40
800
50
0
51
90
0
LINE
8
A-DOOR
10
2600
20
12280
30
0
11
2560
21
12280
31
0
0
LINE
8
A-FLOOR-0-A-DOOR
10
2600
20
11480
30
0
11
3400
21
11480
31
0
0
ARC
8
A-FLOOR-0-A-DOOR
10
2600
20
11480
30
0
40
800
50
0
51
90
0
LINE
8
A-FLOOR-0-A-DOOR
10
2600
20
12280
30
0
11
2560
21
12280
31
0
0
LINE
8
A-DOOR
10
5850
20
11480
30
0
11
4950
21
11480
31
0
0
ARC
8
A-DOOR
10
5850
20
11480
30
0
40
900
50
90
51
180
0
LINE
8
A-DOOR
10
5850
20
12380
30
0
11
5810
21
12380
31
0
0
LINE
8
A-FLOOR-0-A-DOOR
10
5850
20
11480
30
0
11
4950
21
11480
31
0
0
ARC
8
A-FLOOR-0-A-DOOR
10
5850
20
11480
30
0
40
900
50
90
51
180
0
LINE
8
A-FLOOR-0-A-DOOR
10
5850
20
12380
30
0
11
5810
21
12380
31
0
0
LINE
8
A-DOOR
10
6180
20
9980
30
0
11
5280
21
9980
31
0
0
ARC
8
A-DOOR
10
6180
20
9980
30
0
40
900
50
180
51
270
0
LINE
8
A-DOOR
10
6180
20
9080
30
0
11
6220
21
9080
31
0
0
LINE
8
A-FLOOR-0-A-DOOR
10
6180
20
9980
30
0
11
5280
21
9980
31
0
0
ARC
8
A-FLOOR-0-A-DOOR
10
6180
20
9980
30
0
40
900
50
180
51
270
0
LINE
8
A-FLOOR-0-A-DOOR
10
6180
20
9080
30
0
11
6220
21
9080
31
0
0
LINE
8
A-WINDOW
10
2060
20
13170
30
0
11
2060
21
14170
31
0
0
LINE
8
A-WINDOW
10
2020
20
13170
30
0
11
2020
21
14170
31
0
0
LINE
8
A-WINDOW
10
1980
20
13170
30
0
11
1980
21
14170
31
0
0
LINE
8
A-WINDOW
10
1940
20
13170
30
0
11
1940
21
14170
31
0
0
LINE
8
A-FLOOR-0-A-WINDOW
10
2060
20
13170
30
0
11
2060
21
14170
31
0
0
LINE
8
A-FLOOR-0-A-WINDOW
10
2020
20
13170
30
0
11
2020
21
14170
31
0
0
LINE
8
A-FLOOR-0-A-WINDOW
10
1980
20
13170
30
0
11
1980
21
14170
31
0
0
LINE
8
A-FLOOR-0-A-WINDOW
10
1940
20
13170
30
0
11
1940
21
14170
31
0
0
LINE
8
A-DIMS
10
1950
20
14170
30
0
11
1600
21
14170
31
0
0
LINE
8
A-FLOOR-0-A-DIMS
10
1950
20
14170
30
0
11
1600
21
14170
31
0
0
LINE
8
A-DIMS
10
1950
20
13170
30
0
11
1600
21
13170
31
0
0
LINE
8
A-FLOOR-0-A-DIMS
10
1950
20
13170
30
0
11
1600
21
13170
31
0
0
LINE
8
A-DIMS
10
1680
20
14170
30
0
11
1680
21
13170
31
0
0
LINE
8
A-FLOOR-0-A-DIMS
10
1680
20
14170
30
0
11
1680
21
13170
31
0
0
LINE
8
A-DIMS
10
1730
20
14120
30
0
11
1630
21
14220
31
0
0
LINE
8
A-FLOOR-0-A-DIMS
10
1730
20
14120
30
0
11
1630
21
14220
31
0
0
LINE
8
A-DIMS
10
1730
20
13120
30
0
11
1630
21
13220
31
0
0
LINE
8
A-FLOOR-0-A-DIMS
10
1730
20
13120
30
0
11
1630
21
13220
31
0
0
LINE
8
A-WINDOW
10
4560
20
18420
30
0
11
6240
21
18420
31
0
0
LINE
8
A-WINDOW
10
4560
20
18460
30
0
11
6240
21
18460
31
0
0
LINE
8
A-WINDOW
10
4560
20
18500
30
0
11
6240
21
18500
31
0
0
LINE
8
A-WINDOW
10
4560
20
18540
30
0
11
6240
21
18540
31
0
0
LINE
8
A-FLOOR-0-A-WINDOW
10
4560
20
18420
30
0
11
6240
21
18420
31
0
0
LINE
8
A-FLOOR-0-A-WINDOW
10
4560
20
18460
30
0
11
6240
21
18460
31
0
0
LINE
8
A-FLOOR-0-A-WINDOW
10
4560
20
18500
30
0
11
6240
21
18500
31
0
0
LINE
8
A-FLOOR-0-A-WINDOW
10
4560
20
18540
30
0
11
6240
21
18540
31
0
0
LINE
8
A-DIMS
10
6240
20
18530
30
0
11
6240
21
18880
31
0
0
LINE
8
A-FLOOR-0-A-DIMS
10
6240
20
18530
30
0
11
6240
21
18880
31
0
0
LINE
8
A-DIMS
10
4560
20
18530
30
0
11
4560
21
18880
31
0
0
LINE
8
A-FLOOR-0-A-DIMS
10
4560
20
18530
30
0
11
4560
21
18880
31
0
0
LINE
8
A-DIMS
10
6240
20
18800
30
0
11
4560
21
18800
31
0
0
LINE
8
A-FLOOR-0-A-DIMS
10
6240
20
18800
30
0
11
4560
21
18800
31
0
0
LINE
8
A-DIMS
10
6190
20
18750
30
0
11
6290
21
18850
31
0
0
LINE
8
A-FLOOR-0-A-DIMS
10
6190
20
18750
30
0
11
6290
21
18850
31
0
0
LINE
8
A-DIMS
10
4510
20
18750
30
0
11
4610
21
18850
31
0
0
LINE
8
A-FLOOR-0-A-DIMS
10
4510
20
18750
30
0
11
4610
21
18850
31
0
0
TEXT
8
A-DIMS
10
5400
20
18860
30
0
40
100
1
1.68 m
50
0
72
1
11
5400
21
18860
31
0
0
TEXT
8
A-FLOOR-0-A-DIMS
10
5400
20
18860
30
0
40
100
1
1.68 m
50
0
72
1
11
5400
21
18860
31
0
0
LINE
8
A-WINDOW
10
16060
20
6160
30
0
11
16060
21
7960
31
0
0
LINE
8
A-WINDOW
10
16020
20
6160
30
0
11
16020
21
7960
31
0
0
LINE
8
A-WINDOW
10
15980
20
6160
30
0
11
15980
21
7960
31
0
0
LINE
8
A-WINDOW
10
15940
20
6160
30
0
11
15940
21
7960
31
0
0
LINE
8
A-FLOOR-0-A-WINDOW
10
16060
20
6160
30
0
11
16060
21
7960
31
0
0
LINE
8
A-FLOOR-0-A-WINDOW
10
16020
20
6160
30
0
11
16020
21
7960
31
0
0
LINE
8
A-FLOOR-0-A-WINDOW
10
15980
20
6160
30
0
11
15980
21
7960
31
0
0
LINE
8
A-FLOOR-0-A-WINDOW
10
15940
20
6160
30
0
11
15940
21
7960
31
0
0
LINE
8
A-DIMS
10
16050
20
7960
30
0
11
16400
21
7960
31
0
0
LINE
8
A-FLOOR-0-A-DIMS
10
16050
20
7960
30
0
11
16400
21
7960
31
0
0
LINE
8
A-DIMS
10
16050
20
6160
30
0
11
16400
21
6160
31
0
0
LINE
8
A-FLOOR-0-A-DIMS
10
16050
20
6160
30
0
11
16400
21
6160
31
0
0
LINE
8
A-DIMS
10
16320
20
7960
30
0
11
16320
21
6160
31
0
0
LINE
8
A-FLOOR-0-A-DIMS
10
16320
20
7960
30
0
11
16320
21
6160
31
0
0
LINE
8
A-DIMS
10
16370
20
7910
30
0
11
16270
21
8010
31
0
0
LINE
8
A-FLOOR-0-A-DIMS
10
16370
20
7910
30
0
11
16270
21
8010
31
0
0
LINE
8
A-DIMS
10
16370
20
6110
30
0
11
16270
21
6210
31
0
0
LINE
8
A-FLOOR-0-A-DIMS
10
16370
20
6110
30
0
11
16270
21
6210
31
0
0
TEXT
8
A-DIMS
10
16380
20
7060
30
0
40
100
1
1.80 m
50
0
72
1
11
16380
21
7060
31
0
0
TEXT
8
A-FLOOR-0-A-DIMS
10
16380
20
7060
30
0
40
100
1
1.80 m
50
0
72
1
11
16380
21
7060
31
0
0
LINE
8
A-WINDOW
10
2060
20
5170
30
0
11
2060
21
8170
31
0
0
LINE
8
A-WINDOW
10
2020
20
5170
30
0
11
2020
21
8170
31
0
0
LINE
8
A-WINDOW
10
1980
20
5170
30
0
11
1980
21
8170
31
0
0
LINE
8
A-WINDOW
10
1940
20
5170
30
0
11
1940
21
8170
31
0
0
LINE
8
A-FLOOR-0-A-WINDOW
10
2060
20
5170
30
0
11
2060
21
8170
31
0
0
LINE
8
A-FLOOR-0-A-WINDOW
10
2020
20
5170
30
0
11
2020
21
8170
31
0
0
LINE
8
A-FLOOR-0-A-WINDOW
10
1980
20
5170
30
0
11
1980
21
8170
31
0
0
LINE
8
A-FLOOR-0-A-WINDOW
10
1940
20
5170
30
0
11
1940
21
8170
31
0
0
LINE
8
A-DIMS
10
1950
20
8170
30
0
11
1600
21
8170
31
0
0
LINE
8
A-FLOOR-0-A-DIMS
10
1950
20
8170
30
0
11
1600
21
8170
31
0
0
LINE
8
A-DIMS
10
1950
20
5170
30
0
11
1600
21
5170
31
0
0
LINE
8
A-FLOOR-0-A-DIMS
10
1950
20
5170
30
0
11
1600
21
5170
31
0
0
LINE
8
A-DIMS
10
1680
20
8170
30
0
11
1680
21
5170
31
0
0
LINE
8
A-FLOOR-0-A-DIMS
10
1680
20
8170
30
0
11
1680
21
5170
31
0
0
LINE
8
A-DIMS
10
1730
20
8120
30
0
11
1630
21
8220
31
0
0
LINE
8
A-FLOOR-0-A-DIMS
10
1730
20
8120
30
0
11
1630
21
8220
31
0
0
LINE
8
A-DIMS
10
1730
20
5120
30
0
11
1630
21
5220
31
0
0
LINE
8
A-FLOOR-0-A-DIMS
10
1730
20
5120
30
0
11
1630
21
5220
31
0
0
LINE
8
A-SANITARY
10
3450
20
15110
30
0
11
3950
21
15110
31
0
0
LINE
8
A-FLOOR-0-A-SANITARY
10
3450
20
15110
30
0
11
3950
21
15110
31
0
0
LINE
8
A-SANITARY
10
3950
20
15110
30
0
11
3950
21
15810
31
0
0
LINE
8
A-FLOOR-0-A-SANITARY
10
3950
20
15110
30
0
11
3950
21
15810
31
0
0
LINE
8
A-SANITARY
10
3950
20
15810
30
0
11
3450
21
15810
31
0
0
LINE
8
A-FLOOR-0-A-SANITARY
10
3950
20
15810
30
0
11
3450
21
15810
31
0
0
LINE
8
A-SANITARY
10
3450
20
15810
30
0
11
3450
21
15110
31
0
0
LINE
8
A-FLOOR-0-A-SANITARY
10
3450
20
15810
30
0
11
3450
21
15110
31
0
0
LINE
8
A-SANITARY
10
2050
20
15310
30
0
11
2650
21
15310
31
0
0
LINE
8
A-FLOOR-0-A-SANITARY
10
2050
20
15310
30
0
11
2650
21
15310
31
0
0
LINE
8
A-SANITARY
10
2650
20
15310
30
0
11
2650
21
15810
31
0
0
LINE
8
A-FLOOR-0-A-SANITARY
10
2650
20
15310
30
0
11
2650
21
15810
31
0
0
LINE
8
A-SANITARY
10
2650
20
15810
30
0
11
2050
21
15810
31
0
0
LINE
8
A-FLOOR-0-A-SANITARY
10
2650
20
15810
30
0
11
2050
21
15810
31
0
0
LINE
8
A-SANITARY
10
2050
20
15810
30
0
11
2050
21
15310
31
0
0
LINE
8
A-FLOOR-0-A-SANITARY
10
2050
20
15810
30
0
11
2050
21
15310
31
0
0
LINE
8
A-FURN
10
4050
20
16430
30
0
11
5850
21
16430
31
0
0
LINE
8
A-FLOOR-0-A-FURN
10
4050
20
16430
30
0
11
5850
21
16430
31
0
0
LINE
8
A-FURN
10
5850
20
16430
30
0
11
5850
21
18430
31
0
0
LINE
8
A-FLOOR-0-A-FURN
10
5850
20
16430
30
0
11
5850
21
18430
31
0
0
LINE
8
A-FURN
10
5850
20
18430
30
0
11
4050
21
18430
31
0
0
LINE
8
A-FLOOR-0-A-FURN
10
5850
20
18430
30
0
11
4050
21
18430
31
0
0
LINE
8
A-FURN
10
4050
20
18430
30
0
11
4050
21
16430
31
0
0
LINE
8
A-FLOOR-0-A-FURN
10
4050
20
18430
30
0
11
4050
21
16430
31
0
0
LINE
8
A-FURN
10
4050
20
14080
30
0
11
4650
21
14080
31
0
0
LINE
8
A-FLOOR-0-A-FURN
10
4050
20
14080
30
0
11
4650
21
14080
31
0
0
LINE
8
A-FURN
10
4650
20
14080
30
0
11
4650
21
15880
31
0
0
LINE
8
A-FLOOR-0-A-FURN
10
4650
20
14080
30
0
11
4650
21
15880
31
0
0
LINE
8
A-FURN
10
4650
20
15880
30
0
11
4050
21
15880
31
0
0
LINE
8
A-FLOOR-0-A-FURN
10
4650
20
15880
30
0
11
4050
21
15880
31
0
0
LINE
8
A-FURN
10
4050
20
15880
30
0
11
4050
21
14080
31
0
0
LINE
8
A-FLOOR-0-A-FURN
10
4050
20
15880
30
0
11
4050
21
14080
31
0
0
LINE
8
A-SANITARY
10
13050
20
2610
30
0
11
13550
21
2610
31
0
0
LINE
8
A-FLOOR-0-A-SANITARY
10
13050
20
2610
30
0
11
13550
21
2610
31
0
0
LINE
8
A-SANITARY
10
13550
20
2610
30
0
11
13550
21
3310
31
0
0
LINE
8
A-FLOOR-0-A-SANITARY
10
13550
20
2610
30
0
11
13550
21
3310
31
0
0
LINE
8
A-SANITARY
10
13550
20
3310
30
0
11
13050
21
3310
31
0
0
LINE
8
A-FLOOR-0-A-SANITARY
10
13550
20
3310
30
0
11
13050
21
3310
31
0
0
LINE
8
A-SANITARY
10
13050
20
3310
30
0
11
13050
21
2610
31
0
0
LINE
8
A-FLOOR-0-A-SANITARY
10
13050
20
3310
30
0
11
13050
21
2610
31
0
0
LINE
8
A-SANITARY
10
10790
20
2810
30
0
11
11390
21
2810
31
0
0
LINE
8
A-FLOOR-0-A-SANITARY
10
10790
20
2810
30
0
11
11390
21
2810
31
0
0
LINE
8
A-SANITARY
10
11390
20
2810
30
0
11
11390
21
3310
31
0
0
LINE
8
A-FLOOR-0-A-SANITARY
10
11390
20
2810
30
0
11
11390
21
3310
31
0
0
LINE
8
A-SANITARY
10
11390
20
3310
30
0
11
10790
21
3310
31
0
0
LINE
8
A-FLOOR-0-A-SANITARY
10
11390
20
3310
30
0
11
10790
21
3310
31
0
0
LINE
8
A-SANITARY
10
10790
20
3310
30
0
11
10790
21
2810
31
0
0
LINE
8
A-FLOOR-0-A-SANITARY
10
10790
20
3310
30
0
11
10790
21
2810
31
0
0
LINE
8
A-FURN
10
4630
20
3410
30
0
11
6830
21
3410
31
0
0
LINE
8
A-FLOOR-0-A-FURN
10
4630
20
3410
30
0
11
6830
21
3410
31
0
0
LINE
8
A-FURN
10
6830
20
3410
30
0
11
6830
21
4310
31
0
0
LINE
8
A-FLOOR-0-A-FURN
10
6830
20
3410
30
0
11
6830
21
4310
31
0
0
LINE
8
A-FURN
10
6830
20
4310
30
0
11
4630
21
4310
31
0
0
LINE
8
A-FLOOR-0-A-FURN
10
6830
20
4310
30
0
11
4630
21
4310
31
0
0
LINE
8
A-FURN
10
4630
20
4310
30
0
11
4630
21
3410
31
0
0
LINE
8
A-FLOOR-0-A-FURN
10
4630
20
4310
30
0
11
4630
21
3410
31
0
0
LINE
8
A-FURN
10
10930
20
6270
30
0
11
12130
21
6270
31
0
0
LINE
8
A-FLOOR-0-A-FURN
10
10930
20
6270
30
0
11
12130
21
6270
31
0
0
LINE
8
A-FURN
10
12130
20
6270
30
0
11
12130
21
7070
31
0
0
LINE
8
A-FLOOR-0-A-FURN
10
12130
20
6270
30
0
11
12130
21
7070
31
0
0
LINE
8
A-FURN
10
12130
20
7070
30
0
11
10930
21
7070
31
0
0
LINE
8
A-FLOOR-0-A-FURN
10
12130
20
7070
30
0
11
10930
21
7070
31
0
0
LINE
8
A-FURN
10
10930
20
7070
30
0
11
10930
21
6270
31
0
0
LINE
8
A-FLOOR-0-A-FURN
10
10930
20
7070
30
0
11
10930
21
6270
31
0
0
POLYLINE
8
A-ROOM
10
0
20
0
30
0
70
1
66
1
40
0
41
0
71
0
72
0
0
VERTEX
8
A-ROOM
10
2000
20
11480
30
0
42
0
0
VERTEX
8
A-ROOM
10
4000
20
11480
30
0
42
0
0
VERTEX
8
A-ROOM
10
4000
20
15860
30
0
42
0
0
VERTEX
8
A-ROOM
10
2000
20
15860
30
0
42
0
0
SEQEND
8
A-ROOM
0
POLYLINE
8
A-FLOOR-0-A-ROOM
10
0
20
0
30
0
70
1
66
1
40
0
41
0
71
0
72
0
0
VERTEX
8
A-FLOOR-0-A-ROOM
10
2000
20
11480
30
0
42
0
0
VERTEX
8
A-FLOOR-0-A-ROOM
10
4000
20
11480
30
0
42
0
0
VERTEX
8
A-FLOOR-0-A-ROOM
10
4000
20
15860
30
0
42
0
0
VERTEX
8
A-FLOOR-0-A-ROOM
10
2000
20
15860
30
0
42
0
0
SEQEND
8
A-FLOOR-0-A-ROOM
0
POLYLINE
8
A-ROOM
10
0
20
0
30
0
70
1
66
1
40
0
41
0
71
0
72
0
0
VERTEX
8
A-ROOM
10
4000
20
11480
30
0
42
0
0
VERTEX
8
A-ROOM
10
6800
20
11480
30
0
42
0
0
VERTEX
8
A-ROOM
10
6800
20
18480
30
0
42
0
0
VERTEX
8
A-ROOM
10
4000
20
18480
30
0
42
0
0
SEQEND
8
A-ROOM
0
POLYLINE
8
A-FLOOR-0-A-ROOM
10
0
20
0
30
0
70
1
66
1
40
0
41
0
71
0
72
0
0
VERTEX
8
A-FLOOR-0-A-ROOM
10
4000
20
11480
30
0
42
0
0
VERTEX
8
A-FLOOR-0-A-ROOM
10
6800
20
11480
30
0
42
0
0
VERTEX
8
A-FLOOR-0-A-ROOM
10
6800
20
18480
30
0
42
0
0
VERTEX
8
A-FLOOR-0-A-ROOM
10
4000
20
18480
30
0
42
0
0
SEQEND
8
A-FLOOR-0-A-ROOM
0
POLYLINE
8
A-ROOM
10
0
20
0
30
0
70
1
66
1
40
0
41
0
71
0
72
0
0
VERTEX
8
A-ROOM
10
13600
20
4140
30
0
42
0
0
VERTEX
8
A-ROOM
10
16000
20
4140
30
0
42
0
0
VERTEX
8
A-ROOM
10
16000
20
9980
30
0
42
0
0
VERTEX
8
A-ROOM
10
13600
20
9980
30
0
42
0
0
SEQEND
8
A-ROOM
0
POLYLINE
8
A-FLOOR-0-A-ROOM
10
0
20
0
30
0
70
1
66
1
40
0
41
0
71
0
72
0
0
VERTEX
8
A-FLOOR-0-A-ROOM
10
13600
20
4140
30
0
42
0
0
VERTEX
8
A-FLOOR-0-A-ROOM
10
16000
20
4140
30
0
42
0
0
VERTEX
8
A-FLOOR-0-A-ROOM
10
16000
20
9980
30
0
42
0
0
VERTEX
8
A-FLOOR-0-A-ROOM
10
13600
20
9980
30
0
42
0
0
SEQEND
8
A-FLOOR-0-A-ROOM
0
POLYLINE
8
A-ROOM
10
0
20
0
30
0
70
1
66
1
40
0
41
0
71
0
72
0
0
VERTEX
8
A-ROOM
10
2000
20
1500
30
0
42
0
0
VERTEX
8
A-ROOM
10
5830
20
1500
30
0
42
0
0
VERTEX
8
A-ROOM
10
5830
20
3360
30
0
42
0
0
VERTEX
8
A-ROOM
10
2000
20
3360
30
0
42
0
0
SEQEND
8
A-ROOM
0
POLYLINE
8
A-FLOOR-0-A-ROOM
10
0
20
0
30
0
70
1
66
1
40
0
41
0
71
0
72
0
0
VERTEX
8
A-FLOOR-0-A-ROOM
10
2000
20
1500
30
0
42
0
0
VERTEX
8
A-FLOOR-0-A-ROOM
10
5830
20
1500
30
0
42
0
0
VERTEX
8
A-FLOOR-0-A-ROOM
10
5830
20
3360
30
0
42
0
0
VERTEX
8
A-FLOOR-0-A-ROOM
10
2000
20
3360
30
0
42
0
0
SEQEND
8
A-FLOOR-0-A-ROOM
0
POLYLINE
8
A-ROOM
10
0
20
0
30
0
70
1
66
1
40
0
41
0
71
0
72
0
0
VERTEX
8
A-ROOM
10
5830
20
1500
30
0
42
0
0
VERTEX
8
A-ROOM
10
10740
20
1500
30
0
42
0
0
VERTEX
8
A-ROOM
10
10740
20
3360
30
0
42
0
0
VERTEX
8
A-ROOM
10
5830
20
3360
30
0
42
0
0
SEQEND
8
A-ROOM
0
POLYLINE
8
A-FLOOR-0-A-ROOM
10
0
20
0
30
0
70
1
66
1
40
0
41
0
71
0
72
0
0
VERTEX
8
A-FLOOR-0-A-ROOM
10
5830
20
1500
30
0
42
0
0
VERTEX
8
A-FLOOR-0-A-ROOM
10
10740
20
1500
30
0
42
0
0
VERTEX
8
A-FLOOR-0-A-ROOM
10
10740
20
3360
30
0
42
0
0
VERTEX
8
A-FLOOR-0-A-ROOM
10
5830
20
3360
30
0
42
0
0
SEQEND
8
A-FLOOR-0-A-ROOM
0
POLYLINE
8
A-ROOM
10
0
20
0
30
0
70
1
66
1
40
0
41
0
71
0
72
0
0
VERTEX
8
A-ROOM
10
10740
20
1500
30
0
42
0
0
VERTEX
8
A-ROOM
10
13600
20
1500
30
0
42
0
0
VERTEX
8
A-ROOM
10
13600
20
3360
30
0
42
0
0
VERTEX
8
A-ROOM
10
10740
20
3360
30
0
42
0
0
SEQEND
8
A-ROOM
0
POLYLINE
8
A-FLOOR-0-A-ROOM
10
0
20
0
30
0
70
1
66
1
40
0
41
0
71
0
72
0
0
VERTEX
8
A-FLOOR-0-A-ROOM
10
10740
20
1500
30
0
42
0
0
VERTEX
8
A-FLOOR-0-A-ROOM
10
13600
20
1500
30
0
42
0
0
VERTEX
8
A-FLOOR-0-A-ROOM
10
13600
20
3360
30
0
42
0
0
VERTEX
8
A-FLOOR-0-A-ROOM
10
10740
20
3360
30
0
42
0
0
SEQEND
8
A-FLOOR-0-A-ROOM
0
POLYLINE
8
A-ROOM
10
0
20
0
30
0
70
1
66
1
40
0
41
0
71
0
72
0
0
VERTEX
8
A-ROOM
10
2000
20
3360
30
0
42
0
0
VERTEX
8
A-ROOM
10
9460
20
3360
30
0
42
0
0
VERTEX
8
A-ROOM
10
9460
20
9980
30
0
42
0
0
VERTEX
8
A-ROOM
10
2000
20
9980
30
0
42
0
0
SEQEND
8
A-ROOM
0
POLYLINE
8
A-FLOOR-0-A-ROOM
10
0
20
0
30
0
70
1
66
1
40
0
41
0
71
0
72
0
0
VERTEX
8
A-FLOOR-0-A-ROOM
10
2000
20
3360
30
0
42
0
0
VERTEX
8
A-FLOOR-0-A-ROOM
10
9460
20
3360
30
0
42
0
0
VERTEX
8
A-FLOOR-0-A-ROOM
10
9460
20
9980
30
0
42
0
0
VERTEX
8
A-FLOOR-0-A-ROOM
10
2000
20
9980
30
0
42
0
0
SEQEND
8
A-FLOOR-0-A-ROOM
0
POLYLINE
8
A-ROOM
10
0
20
0
30
0
70
1
66
1
40
0
41
0
71
0
72
0
0
VERTEX
8
A-ROOM
10
9460
20
3360
30
0
42
0
0
VERTEX
8
A-ROOM
10
13600
20
3360
30
0
42
0
0
VERTEX
8
A-ROOM
10
13600
20
9980
30
0
42
0
0
VERTEX
8
A-ROOM
10
9460
20
9980
30
0
42
0
0
SEQEND
8
A-ROOM
0
POLYLINE
8
A-FLOOR-0-A-ROOM
10
0
20
0
30
0
70
1
66
1
40
0
41
0
71
0
72
0
0
VERTEX
8
A-FLOOR-0-A-ROOM
10
9460
20
3360
30
0
42
0
0
VERTEX
8
A-FLOOR-0-A-ROOM
10
13600
20
3360
30
0
42
0
0
VERTEX
8
A-FLOOR-0-A-ROOM
10
13600
20
9980
30
0
42
0
0
VERTEX
8
A-FLOOR-0-A-ROOM
10
9460
20
9980
30
0
42
0
0
SEQEND
8
A-FLOOR-0-A-ROOM
0
POLYLINE
8
A-ROOM
10
0
20
0
30
0
70
1
66
1
40
0
41
0
71
0
72
0
0
VERTEX
8
A-ROOM
10
2000
20
9980
30
0
42
0
0
VERTEX
8
A-ROOM
10
16000
20
9980
30
0
42
0
0
VERTEX
8
A-ROOM
10
16000
20
11480
30
0
42
0
0
VERTEX
8
A-ROOM
10
2000
20
11480
30
0
42
0
0
SEQEND
8
A-ROOM
0
POLYLINE
8
A-FLOOR-0-A-ROOM
10
0
20
0
30
0
70
1
66
1
40
0
41
0
71
0
72
0
0
VERTEX
8
A-FLOOR-0-A-ROOM
10
2000
20
9980
30
0
42
0
0
VERTEX
8
A-FLOOR-0-A-ROOM
10
16000
20
9980
30
0
42
0
0
VERTEX
8
A-FLOOR-0-A-ROOM
10
16000
20
11480
30
0
42
0
0
VERTEX
8
A-FLOOR-0-A-ROOM
10
2000
20
11480
30
0
42
0
0
SEQEND
8
A-FLOOR-0-A-ROOM
0
TEXT
8
A-ROOM
10
3216.66
20
13667.15
30
0
40
350
1
Master Bathroom
50
90
72
1
11
3216.66
21
13667.15
31
0
0
TEXT
8
A-FLOOR-0-A-ROOM
10
3216.66
20
13667.15
30
0
40
350
1
Master Bathroom
50
90
72
1
11
3216.66
21
13667.15
31
0
0
TEXT
8
A-ROOM
10
2782.66
20
13667.15
30
0
40
245
1
8.8 m2
50
90
72
1
11
2782.66
21
13667.15
31
0
0
TEXT
8
A-FLOOR-0-A-ROOM
10
2782.66
20
13667.15
30
0
40
245
1
8.8 m2
50
90
72
1
11
2782.66
21
13667.15
31
0
0
TEXT
8
A-ROOM
10
5617
20
14980
30
0
40
350
1
Master Bedroom
50
90
72
1
11
5617
21
14980
31
0
0
TEXT
8
A-FLOOR-0-A-ROOM
10
5617
20
14980
30
0
40
350
1
Master Bedroom
50
90
72
1
11
5617
21
14980
31
0
0
TEXT
8
A-ROOM
10
5183
20
14980
30
0
40
245
1
19.6 m2
50
90
72
1
11
5183
21
14980
31
0
0
TEXT
8
A-FLOOR-0-A-ROOM
10
5183
20
14980
30
0
40
245
1
19.6 m2
50
90
72
1
11
5183
21
14980
31
0
0
TEXT
8
A-ROOM
10
14800
20
7277
30
0
40
350
1
Kitchen
50
0
72
1
11
14800
21
7277
31
0
0
TEXT
8
A-FLOOR-0-A-ROOM
10
14800
20
7277
30
0
40
350
1
Kitchen
50
0
72
1
11
14800
21
7277
31
0
0
TEXT
8
A-ROOM
10
14800
20
6843
30
0
40
245
1
14.0 m2
50
0
72
1
11
14800
21
6843
31
0
0
TEXT
8
A-FLOOR-0-A-ROOM
10
14800
20
6843
30
0
40
245
1
14.0 m2
50
0
72
1
11
14800
21
6843
31
0
0
TEXT
8
A-ROOM
10
3915
20
2647
30
0
40
350
1
Entrance
50
0
72
1
11
3915
21
2647
31
0
0
TEXT
8
A-FLOOR-0-A-ROOM
10
3915
20
2647
30
0
40
350
1
Entrance
50
0
72
1
11
3915
21
2647
31
0
0
TEXT
8
A-ROOM
10
3915
20
2213
30
0
40
245
1
7.1 m2
50
0
72
1
11
3915
21
2213
31
0
0
TEXT
8
A-FLOOR-0-A-ROOM
10
3915
20
2213
30
0
40
245
1
7.1 m2
50
0
72
1
11
3915
21
2213
31
0
0
TEXT
8
A-ROOM
10
8285
20
2645.96
30
0
40
350
1
Foyer
50
0
72
1
11
8285
21
2645.96
31
0
0
TEXT
8
A-FLOOR-0-A-ROOM
10
8285
20
2645.96
30
0
40
350
1
Foyer
50
0
72
1
11
8285
21
2645.96
31
0
0
TEXT
8
A-ROOM
10
8285
20
2211.96
30
0
40
245
1
9.1 m2
50
0
72
1
11
8285
21
2211.96
31
0
0
TEXT
8
A-FLOOR-0-A-ROOM
10
8285
20
2211.96
30
0
40
245
1
9.1 m2
50
0
72
1
11
8285
21
2211.96
31
0
0
TEXT
8
A-ROOM
10
12170
20
2647
30
0
40
350
1
Guest WC
50
0
72
1
11
12170
21
2647
31
0
0
TEXT
8
A-FLOOR-0-A-ROOM
10
12170
20
2647
30
0
40
350
1
Guest WC
50
0
72
1
11
12170
21
2647
31
0
0
TEXT
8
A-ROOM
10
12170
20
2213
30
0
40
245
1
5.3 m2
50
0
72
1
11
12170
21
2213
31
0
0
TEXT
8
A-FLOOR-0-A-ROOM
10
12170
20
2213
30
0
40
245
1
5.3 m2
50
0
72
1
11
12170
21
2213
31
0
0
TEXT
8
A-ROOM
10
5725.14
20
6884.8
30
0
40
350
1
Living Room
50
0
72
1
11
5725.14
21
6884.8
31
0
0
TEXT
8
A-FLOOR-0-A-ROOM
10
5725.14
20
6884.8
30
0
40
350
1
Living Room
50
0
72
1
11
5725.14
21
6884.8
31
0
0
TEXT
8
A-ROOM
10
5725.14
20
6450.8
30
0
40
245
1
49.4 m2
50
0
72
1
11
5725.14
21
6450.8
31
0
0
TEXT
8
A-FLOOR-0-A-ROOM
10
5725.14
20
6450.8
30
0
40
245
1
49.4 m2
50
0
72
1
11
5725.14
21
6450.8
31
0
0
TEXT
8
A-ROOM
10
11529.92
20
6887
30
0
40
350
1
Dining
50
0
72
1
11
11529.92
21
6887
31
0
0
TEXT
8
A-FLOOR-0-A-ROOM
10
11529.92
20
6887
30
0
40
350
1
Dining
50
0
72
1
11
11529.92
21
6887
31
0
0
TEXT
8
A-ROOM
10
11529.92
20
6453
30
0
40
245
1
27.4 m2
50
0
72
1
11
11529.92
21
6453
31
0
0
TEXT
8
A-FLOOR-0-A-ROOM
10
11529.92
20
6453
30
0
40
245
1
27.4 m2
50
0
72
1
11
11529.92
21
6453
31
0
0
TEXT
8
A-ROOM
10
9000
20
10943.09
30
0
40
350
1
Corridor
50
0
72
1
11
9000
21
10943.09
31
0
0
TEXT
8
A-FLOOR-0-A-ROOM
10
9000
20
10943.09
30
0
40
350
1
Corridor
50
0
72
1
11
9000
21
10943.09
31
0
0
TEXT
8
A-ROOM
10
9000
20
10509.09
30
0
40
245
1
21.0 m2
50
0
72
1
11
9000
21
10509.09
31
0
0
TEXT
8
A-FLOOR-0-A-ROOM
10
9000
20
10509.09
30
0
40
245
1
21.0 m2
50
0
72
1
11
9000
21
10509.09
31
0
0
LINE
8
A-GRID
10
2000
20
1000
30
0
11
2000
21
22500
31
0
0
LINE
8
A-AXIS
10
9000
20
1000
30
0
11
9000
21
22500
31
0
0
LINE
8
A-GRID
10
16000
20
1000
30
0
11
16000
21
22500
31
0
0
LINE
8
A-GRID
10
1500
20
1500
30
0
11
16500
21
1500
31
0
0
LINE
8
A-AXIS
10
1500
20
11750
30
0
11
16500
21
11750
31
0
0
LINE
8
A-GRID
10
1500
20
22000
30
0
11
16500
21
22000
31
0
0
TEXT
8
A-AXIS-TEXT
10
1300
20
22300
30
0
40
250
1
A
50
0
72
1
11
1300
21
22300
31
0
0
TEXT
8
A-AXIS-TEXT
10
9000
20
22300
30
0
40
250
1
B
50
0
72
1
11
9000
21
22300
31
0
0
TEXT
8
A-AXIS-TEXT
10
16300
20
22300
30
0
40
250
1
C
50
0
72
0
11
16300
21
22300
31
0
0
TEXT
8
A-AXIS-TEXT
10
1300
20
800
30
0
40
250
1
1
50
0
72
2
11
1300
21
800
31
0
0
TEXT
8
A-AXIS-TEXT
10
1300
20
11750
30
0
40
250
1
2
50
0
72
2
11
1300
21
11750
31
0
0
LINE
8
A-DIMS
10
2000
20
1400
30
0
11
2000
21
350
31
0
0
LINE
8
A-FLOOR-0-A-DIMS
10
2000
20
1400
30
0
11
2000
21
350
31
0
0
LINE
8
A-DIMS
10
16000
20
1400
30
0
11
16000
21
350
31
0
0
LINE
8
A-FLOOR-0-A-DIMS
10
16000
20
1400
30
0
11
16000
21
350
31
0
0
LINE
8
A-DIMS
10
2000
20
500
30
0
11
16000
21
500
31
0
0
LINE
8
A-FLOOR-0-A-DIMS
10
2000
20
500
30
0
11
16000
21
500
31
0
0
LINE
8
A-DIMS
10
1950
20
450
30
0
11
2050
21
550
31
0
0
LINE
8
A-FLOOR-0-A-DIMS
10
1950
20
450
30
0
11
2050
21
550
31
0
0
LINE
8
A-DIMS
10
15950
20
450
30
0
11
16050
21
550
31
0
0
LINE
8
A-FLOOR-0-A-DIMS
10
15950
20
450
30
0
11
16050
21
550
31
0
0
TEXT
8
A-DIMS
10
9000
20
180
30
0
40
200
1
14.00 m F0
50
0
72
1
11
9000
21
180
31
0
0
TEXT
8
A-FLOOR-0-A-DIMS
10
9000
20
180
30
0
40
200
1
14.00 m F0
50
0
72
1
11
9000
21
180
31
0
0
LINE
8
A-DIMS
10
1900
20
1500
30
0
11
850
21
1500
31
0
0
LINE
8
A-FLOOR-0-A-DIMS
10
1900
20
1500
30
0
11
850
21
1500
31
0
0
LINE
8
A-DIMS
10
1900
20
18655
30
0
11
850
21
18655
31
0
0
LINE
8
A-FLOOR-0-A-DIMS
10
1900
20
18655
30
0
11
850
21
18655
31
0
0
LINE
8
A-DIMS
10
1000
20
1500
30
0
11
1000
21
18655
31
0
0
LINE
8
A-FLOOR-0-A-DIMS
10
1000
20
1500
30
0
11
1000
21
18655
31
0
0
LINE
8
A-DIMS
10
1050
20
1450
30
0
11
950
21
1550
31
0
0
LINE
8
A-FLOOR-0-A-DIMS
10
1050
20
1450
30
0
11
950
21
1550
31
0
0
LINE
8
A-DIMS
10
1050
20
18605
30
0
11
950
21
18705
31
0
0
LINE
8
A-FLOOR-0-A-DIMS
10
1050
20
18605
30
0
11
950
21
18705
31
0
0
TEXT
8
A-DIMS
10
700
20
10077.5
30
0
40
200
1
17.16 m
50
0
72
2
11
700
21
10077.5
31
0
0
TEXT
8
A-FLOOR-0-A-DIMS
10
700
20
10077.5
30
0
40
200
1
17.16 m
50
0
72
2
11
700
21
10077.5
31
0
0
LINE
8
A-DIMS
10
1820
20
11480
30
0
11
1820
21
15860
31
0
0
LINE
8
A-FLOOR-0-A-DIMS
10
1820
20
11480
30
0
11
1820
21
15860
31
0
0
LINE
8
A-DIMS
10
1870
20
11430
30
0
11
1770
21
11530
31
0
0
LINE
8
A-FLOOR-0-A-DIMS
10
1870
20
11430
30
0
11
1770
21
11530
31
0
0
LINE
8
A-DIMS
10
1870
20
15810
30
0
11
1770
21
15910
31
0
0
LINE
8
A-FLOOR-0-A-DIMS
10
1870
20
15810
30
0
11
1770
21
15910
31
0
0
TEXT
8
A-DIMS
10
1620
20
13670
30
0
40
120
1
4.38 m
50
0
72
2
11
1620
21
13670
31
0
0
TEXT
8
A-FLOOR-0-A-DIMS
10
1620
20
13670
30
0
40
120
1
4.38 m
50
0
72
2
11
1620
21
13670
31
0
0
LINE
8
A-DIMS
10
13600
20
3960
30
0
11
16000
21
3960
31
0
0
LINE
8
A-FLOOR-0-A-DIMS
10
13600
20
3960
30
0
11
16000
21
3960
31
0
0
LINE
8
A-DIMS
10
13550
20
3910
30
0
11
13650
21
4010
31
0
0
LINE
8
A-FLOOR-0-A-DIMS
10
13550
20
3910
30
0
11
13650
21
4010
31
0
0
LINE
8
A-DIMS
10
15950
20
3910
30
0
11
16050
21
4010
31
0
0
LINE
8
A-FLOOR-0-A-DIMS
10
15950
20
3910
30
0
11
16050
21
4010
31
0
0
TEXT
8
A-DIMS
10
14800
20
3800
30
0
40
120
1
2.40 m
50
0
72
1
11
14800
21
3800
31
0
0
TEXT
8
A-FLOOR-0-A-DIMS
10
14800
20
3800
30
0
40
120
1
2.40 m
50
0
72
1
11
14800
21
3800
31
0
0
LINE
8
A-DIMS
10
1820
20
3360
30
0
11
1820
21
9980
31
0
0
LINE
8
A-FLOOR-0-A-DIMS
10
1820
20
3360
30
0
11
1820
21
9980
31
0
0
LINE
8
A-DIMS
10
1870
20
3310
30
0
11
1770
21
3410
31
0
0
LINE
8
A-FLOOR-0-A-DIMS
10
1870
20
3310
30
0
11
1770
21
3410
31
0
0
LINE
8
A-DIMS
10
1870
20
9930
30
0
11
1770
21
10030
31
0
0
LINE
8
A-FLOOR-0-A-DIMS
10
1870
20
9930
30
0
11
1770
21
10030
31
0
0
TEXT
8
A-DIMS
10
1620
20
6670
30
0
40
120
1
6.62 m
50
0
72
2
11
1620
21
6670
31
0
0
TEXT
8
A-FLOOR-0-A-DIMS
10
1620
20
6670
30
0
40
120
1
6.62 m
50
0
72
2
11
1620
21
6670
31
0
0
LINE
8
A-DIMS
10
0
20
-600
30
0
11
0
21
-2050
31
0
0
LINE
8
A-FLOOR-0-A-DIMS
10
0
20
-600
30
0
11
0
21
-2050
31
0
0
LINE
8
A-DIMS
10
18000
20
-600
30
0
11
18000
21
-2050
31
0
0
LINE
8
A-FLOOR-0-A-DIMS
10
18000
20
-600
30
0
11
18000
21
-2050
31
0
0
LINE
8
A-DIMS
10
0
20
-1900
30
0
11
18000
21
-1900
31
0
0
LINE
8
A-FLOOR-0-A-DIMS
10
0
20
-1900
30
0
11
18000
21
-1900
31
0
0
LINE
8
A-DIMS
10
-50
20
-1950
30
0
11
50
21
-1850
31
0
0
LINE
8
A-FLOOR-0-A-DIMS
10
-50
20
-1950
30
0
11
50
21
-1850
31
0
0
LINE
8
A-DIMS
10
17950
20
-1950
30
0
11
18050
21
-1850
31
0
0
LINE
8
A-FLOOR-0-A-DIMS
10
17950
20
-1950
30
0
11
18050
21
-1850
31
0
0
TEXT
8
A-DIMS
10
9000
20
-2240
30
0
40
220
1
SITE 18.00 m
50
0
72
1
11
9000
21
-2240
31
0
0
TEXT
8
A-FLOOR-0-A-DIMS
10
9000
20
-2240
30
0
40
220
1
SITE 18.00 m
50
0
72
1
11
9000
21
-2240
31
0
0
LINE
8
A-DIMS
10
-600
20
0
30
0
11
-2500
21
0
31
0
0
LINE
8
A-FLOOR-0-A-DIMS
10
-600
20
0
30
0
11
-2500
21
0
31
0
0
LINE
8
A-DIMS
10
-600
20
25000
30
0
11
-2500
21
25000
31
0
0
LINE
8
A-FLOOR-0-A-DIMS
10
-600
20
25000
30
0
11
-2500
21
25000
31
0
0
LINE
8
A-DIMS
10
-1900
20
0
30
0
11
-1900
21
25000
31
0
0
LINE
8
A-FLOOR-0-A-DIMS
10
-1900
20
0
30
0
11
-1900
21
25000
31
0
0
LINE
8
A-DIMS
10
-1850
20
-50
30
0
11
-1950
21
50
31
0
0
LINE
8
A-FLOOR-0-A-DIMS
10
-1850
20
-50
30
0
11
-1950
21
50
31
0
0
LINE
8
A-DIMS
10
-1850
20
24950
30
0
11
-1950
21
25050
31
0
0
LINE
8
A-FLOOR-0-A-DIMS
10
-1850
20
24950
30
0
11
-1950
21
25050
31
0
0
TEXT
8
A-DIMS
10
-2240
20
12500
30
0
40
220
1
SITE 25.00 m
50
0
72
2
11
-2240
21
12500
31
0
0
TEXT
8
A-FLOOR-0-A-DIMS
10
-2240
20
12500
30
0
40
220
1
SITE 25.00 m
50
0
72
2
11
-2240
21
12500
31
0
0
LINE
8
A-NORTH
10
14800
20
18355
30
0
11
14800
21
19155
31
0
0
LINE
8
A-NORTH
10
14800
20
19155
30
0
11
14650
21
18855
31
0
0
LINE
8
A-NORTH
10
14800
20
19155
30
0
11
14950
21
18855
31
0
0
LINE
8
A-NORTH
10
14960
20
18355
30
0
11
14954.55
21
18396.41
31
0
0
LINE
8
A-NORTH
10
14954.55
20
18396.41
30
0
11
14938.56
21
18435
31
0
0
LINE
8
A-NORTH
10
14938.56
20
18435
30
0
11
14913.14
21
18468.14
31
0
0
LINE
8
A-NORTH
10
14913.14
20
18468.14
30
0
11
14880
21
18493.56
31
0
0
LINE
8
A-NORTH
10
14880
20
18493.56
30
0
11
14841.41
21
18509.55
31
0
0
LINE
8
A-NORTH
10
14841.41
20
18509.55
30
0
11
14800
21
18515
31
0
0
LINE
8
A-NORTH
10
14800
20
18515
30
0
11
14758.59
21
18509.55
31
0
0
LINE
8
A-NORTH
10
14758.59
20
18509.55
30
0
11
14720
21
18493.56
31
0
0
LINE
8
A-NORTH
10
14720
20
18493.56
30
0
11
14686.86
21
18468.14
31
0
0
LINE
8
A-NORTH
10
14686.86
20
18468.14
30
0
11
14661.44
21
18435
31
0
0
LINE
8
A-NORTH
10
14661.44
20
18435
30
0
11
14645.45
21
18396.41
31
0
0
LINE
8
A-NORTH
10
14645.45
20
18396.41
30
0
11
14640
21
18355
31
0
0
LINE
8
A-NORTH
10
14640
20
18355
30
0
11
14645.45
21
18313.59
31
0
0
LINE
8
A-NORTH
10
14645.45
20
18313.59
30
0
11
14661.44
21
18275
31
0
0
LINE
8
A-NORTH
10
14661.44
20
18275
30
0
11
14686.86
21
18241.86
31
0
0
LINE
8
A-NORTH
10
14686.86
20
18241.86
30
0
11
14720
21
18216.44
31
0
0
LINE
8
A-NORTH
10
14720
20
18216.44
30
0
11
14758.59
21
18200.45
31
0
0
LINE
8
A-NORTH
10
14758.59
20
18200.45
30
0
11
14800
21
18195
31
0
0
LINE
8
A-NORTH
10
14800
20
18195
30
0
11
14841.41
21
18200.45
31
0
0
LINE
8
A-NORTH
10
14841.41
20
18200.45
30
0
11
14880
21
18216.44
31
0
0
LINE
8
A-NORTH
10
14880
20
18216.44
30
0
11
14913.14
21
18241.86
31
0
0
LINE
8
A-NORTH
10
14913.14
20
18241.86
30
0
11
14938.56
21
18275
31
0
0
LINE
8
A-NORTH
10
14938.56
20
18275
30
0
11
14954.55
21
18313.59
31
0
0
LINE
8
A-NORTH
10
14954.55
20
18313.59
30
0
11
14960
21
18355
31
0
0
TEXT
8
A-NORTH
10
14800
20
19355
30
0
40
250
1
N
50
0
72
1
11
14800
21
19355
31
0
0
LINE
8
A-TITLE
10
500
20
-4600
30
0
11
17500
21
-4600
31
0
0
LINE
8
A-TITLE
10
17500
20
-4600
30
0
11
17500
21
20155
31
0
0
LINE
8
A-TITLE
10
17500
20
20155
30
0
11
500
21
20155
31
0
0
LINE
8
A-TITLE
10
500
20
20155
30
0
11
500
21
-4600
31
0
0
LINE
8
A-TITLE
10
6500
20
-4450
30
0
11
17350
21
-4450
31
0
0
LINE
8
A-TITLE
10
17350
20
-4450
30
0
11
17350
21
-2050
31
0
0
LINE
8
A-TITLE
10
17350
20
-2050
30
0
11
6500
21
-2050
31
0
0
LINE
8
A-TITLE
10
6500
20
-2050
30
0
11
6500
21
-4450
31
0
0
LINE
8
A-TITLE
10
6750
20
-2800
30
0
11
17100
21
-2800
31
0
0
TEXT
8
A-TITLE
10
6800
20
-2600
30
0
40
320
1
Golden rect 1F
50
0
72
0
11
6800
21
-2600
31
0
0
TEXT
8
A-TITLE
10
6800
20
-3150
30
0
40
180
1
FLOOR PLANS - 1 FLOOR(S) | STRATEGY area-efficiency
50
0
72
0
11
6800
21
-3150
31
0
0
TEXT
8
A-TITLE
10
6800
20
-3550
30
0
40
160
1
UNITS: MILLIMETRES | MODEL SPACE 1:1 | PLOT SCALE 1:100 @ A1
50
0
72
0
11
6800
21
-3550
31
0
0
TEXT
8
A-TITLE
10
6800
20
-3950
30
0
40
160
1
NET FLOOR AREA (SUM OF ROOMS, ALL FLOORS): 161.7 m2 | SITE 18.0x25.0 m
50
0
72
0
11
6800
21
-3950
31
0
0
TEXT
8
A-TITLE
10
6800
20
-4330
30
0
40
140
1
ARCHGENIUS - AUTOMATED CAD DRAFT - PROFESSIONAL REVIEW REQUIRED
50
0
72
0
11
6800
21
-4330
31
0
0
TEXT
8
A-TITLE
10
2900
20
-3750
30
0
40
200
1
LEGEND
50
0
72
0
11
2900
21
-3750
31
0
0
LINE
8
A-WALL-EXT
10
2900
20
-4100
30
0
11
3700
21
-4100
31
0
0
LINE
8
A-FLOOR-0-A-WALL-EXT
10
2900
20
-4100
30
0
11
3700
21
-4100
31
0
0
TEXT
8
A-TITLE
10
3950
20
-4160
30
0
40
120
1
A-WALL-EXT - WALL, EXTERIOR
50
0
72
0
11
3950
21
-4160
31
0
0
LINE
8
A-WALL-INT
10
2900
20
-3840
30
0
11
3700
21
-3840
31
0
0
LINE
8
A-FLOOR-0-A-WALL-INT
10
2900
20
-3840
30
0
11
3700
21
-3840
31
0
0
TEXT
8
A-TITLE
10
3950
20
-3900
30
0
40
120
1
A-WALL-INT - WALL, INTERIOR
50
0
72
0
11
3950
21
-3900
31
0
0
LINE
8
A-WALL-CORE
10
2900
20
-3580
30
0
11
3700
21
-3580
31
0
0
LINE
8
A-FLOOR-0-A-WALL-CORE
10
2900
20
-3580
30
0
11
3700
21
-3580
31
0
0
TEXT
8
A-TITLE
10
3950
20
-3640
30
0
40
120
1
A-WALL-CORE - WALL, CORE
50
0
72
0
11
3950
21
-3640
31
0
0
LINE
8
A-DOOR
10
2900
20
-3320
30
0
11
3700
21
-3320
31
0
0
LINE
8
A-FLOOR-0-A-DOOR
10
2900
20
-3320
30
0
11
3700
21
-3320
31
0
0
TEXT
8
A-TITLE
10
3950
20
-3380
30
0
40
120
1
A-DOOR - DOOR + SWING
50
0
72
0
11
3950
21
-3380
31
0
0
LINE
8
A-WINDOW
10
2900
20
-3060
30
0
11
3700
21
-3060
31
0
0
LINE
8
A-FLOOR-0-A-WINDOW
10
2900
20
-3060
30
0
11
3700
21
-3060
31
0
0
TEXT
8
A-TITLE
10
3950
20
-3120
30
0
40
120
1
A-WINDOW - WINDOW
50
0
72
0
11
3950
21
-3120
31
0
0
LINE
8
A-STAIR
10
2900
20
-2800
30
0
11
3700
21
-2800
31
0
0
LINE
8
A-FLOOR-0-A-STAIR
10
2900
20
-2800
30
0
11
3700
21
-2800
31
0
0
TEXT
8
A-TITLE
10
3950
20
-2860
30
0
40
120
1
A-STAIR - STAIR / LANDING
50
0
72
0
11
3950
21
-2860
31
0
0
LINE
8
A-PARKING
10
2900
20
-2540
30
0
11
3700
21
-2540
31
0
0
LINE
8
A-FLOOR-0-A-PARKING
10
2900
20
-2540
30
0
11
3700
21
-2540
31
0
0
TEXT
8
A-TITLE
10
3950
20
-2600
30
0
40
120
1
A-PARKING - PARKING STALL
50
0
72
0
11
3950
21
-2600
31
0
0
LINE
8
A-DIMS
10
2900
20
-2280
30
0
11
3700
21
-2280
31
0
0
LINE
8
A-FLOOR-0-A-DIMS
10
2900
20
-2280
30
0
11
3700
21
-2280
31
0
0
TEXT
8
A-TITLE
10
3950
20
-2340
30
0
40
120
1
A-DIMS - DIMENSIONS (m)
50
0
72
0
11
3950
21
-2340
31
0
0
LINE
8
A-TEXT
10
2900
20
-2020
30
0
11
3700
21
-2020
31
0
0
LINE
8
A-FLOOR-0-A-TEXT
10
2900
20
-2020
30
0
11
3700
21
-2020
31
0
0
TEXT
8
A-TITLE
10
3950
20
-2080
30
0
40
120
1
A-TEXT - GENERAL NOTES
50
0
72
0
11
3950
21
-2080
31
0
0
LINE
8
A-SITE
10
2900
20
-1760
30
0
11
3700
21
-1760
31
0
0
LINE
8
A-FLOOR-0-A-SITE
10
2900
20
-1760
30
0
11
3700
21
-1760
31
0
0
TEXT
8
A-TITLE
10
3950
20
-1820
30
0
40
120
1
A-SITE - SITE BOUNDARY
50
0
72
0
11
3950
21
-1820
31
0
0
LINE
8
A-GRID
10
2900
20
-1500
30
0
11
3700
21
-1500
31
0
0
TEXT
8
A-TITLE
10
3950
20
-1560
30
0
40
120
1
A-GRID - GRID / AXIS
50
0
72
0
11
3950
21
-1560
31
0
0
LINE
8
A-TITLE
10
2700
20
-4450
30
0
11
2700
21
-1200
31
0
0
ENDSEC
0
EOF
