0
SECTION
2
HEADER
9
$ACADVER
1
AC1009
0
ENDSEC
0
SECTION
2
TABLES
0
TABLE
2
LTYPE
70
3
0
LTYPE
2
CONTINUOUS
70
0
3
Solid line
72
65
73
0
40
0
0
LTYPE
2
CENTER
70
0
3
Center ____ _ ____ _ ____
72
65
73
0
40
0
0
LTYPE
2
DASHED
70
0
3
Dashed __ __ __ __
72
65
73
0
40
0
0
ENDTAB
0
TABLE
2
LAYER
70
46
0
LAYER
2
A-GRID
70
0
62
1
6
CENTER
0
LAYER
2
A-AXIS
70
0
62
1
6
CENTER
0
LAYER
2
A-AXIS-TEXT
70
0
62
1
6
CONTINUOUS
0
LAYER
2
A-WALL-EXT
70
0
62
7
6
CONTINUOUS
0
LAYER
2
A-WALL-INT
70
0
62
7
6
CONTINUOUS
0
LAYER
2
A-WALL-CORE
70
0
62
7
6
CONTINUOUS
0
LAYER
2
A-WALL-SERVICE
70
0
62
7
6
CONTINUOUS
0
LAYER
2
A-WALL-PART
70
0
62
7
6
CONTINUOUS
0
LAYER
2
A-COLUMN
70
0
62
7
6
CONTINUOUS
0
LAYER
2
A-DOOR
70
0
62
3
6
CONTINUOUS
0
LAYER
2
A-WINDOW
70
0
62
4
6
CONTINUOUS
0
LAYER
2
A-STAIR
70
0
62
6
6
CONTINUOUS
0
LAYER
2
A-STAIR-TREAD
70
0
62
8
6
CONTINUOUS
0
LAYER
2
A-STAIR-DIR
70
0
62
6
6
CONTINUOUS
0
LAYER
2
A-PARKING
70
0
62
8
6
CONTINUOUS
0
LAYER
2
A-SANITARY
70
0
62
3
6
CONTINUOUS
0
LAYER
2
A-FURN
70
0
62
8
6
CONTINUOUS
0
LAYER
2
A-ROOM
70
0
62
7
6
CONTINUOUS
0
LAYER
2
A-HATCH
70
0
62
8
6
CONTINUOUS
0
LAYER
2
A-DIMS
70
0
62
2
6
CONTINUOUS
0
LAYER
2
A-TEXT
70
0
62
7
6
CONTINUOUS
0
LAYER
2
A-NORTH
70
0
62
7
6
CONTINUOUS
0
LAYER
2
A-TITLE
70
0
62
7
6
CONTINUOUS
0
LAYER
2
A-BLDG-OUT
70
0
62
9
6
DASHED
0
LAYER
2
A-SITE
70
0
62
3
6
DASHED
0
LAYER
2
A-SETBACK
70
0
62
2
6
DASHED
0
LAYER
2
0
70
0
62
7
6
CONTINUOUS
0
LAYER
2
A-FLOOR-0-A-WALL-EXT
70
0
62
7
6
CONTINUOUS
0
LAYER
2
A-FLOOR-0-A-WALL-INT
70
0
62
7
6
CONTINUOUS
0
LAYER
2
A-FLOOR-0-A-WALL-CORE
70
0
62
7
6
CONTINUOUS
0
LAYER
2
A-FLOOR-0-A-WALL-SERVICE
70
0
62
7
6
CONTINUOUS
0
LAYER
2
A-FLOOR-0-A-WALL-PART
70
0
62
7
6
CONTINUOUS
0
LAYER
2
A-FLOOR-0-A-DOOR
70
0
62
3
6
CONTINUOUS
0
LAYER
2
A-FLOOR-0-A-WINDOW
70
0
62
4
6
CONTINUOUS
0
LAYER
2
A-FLOOR-0-A-STAIR
70
0
62
6
6
CONTINUOUS
0
LAYER
2
A-FLOOR-0-A-STAIR-TREAD
70
0
62
8
6
CONTINUOUS
0
LAYER
2
A-FLOOR-0-A-STAIR-DIR
70
0
62
6
6
CONTINUOUS
0
LAYER
2
A-FLOOR-0-A-ROOM
70
0
62
7
6
CONTINUOUS
0
LAYER
2
A-FLOOR-0-A-TEXT
70
0
62
7
6
CONTINUOUS
0
LAYER
2
A-FLOOR-0-A-FURN
70
0
62
8
6
CONTINUOUS
0
LAYER
2
A-FLOOR-0-A-SANITARY
70
0
62
3
6
CONTINUOUS
0
LAYER
2
A-FLOOR-0-A-DIMS
70
0
62
2
6
CONTINUOUS
0
LAYER
2
A-FLOOR-0-A-PARKING
70
0
62
8
6
CONTINUOUS
0
LAYER
2
A-FLOOR-0-A-BLDG-OUT
70
0
62
9
6
DASHED
0
LAYER
2
A-FLOOR-0-A-SITE
70
0
62
3
6
DASHED
0
LAYER
2
A-FLOOR-0-A-SETBACK
70
0
62
2
6
DASHED
0
ENDTAB
0
TABLE
2
STYLE
70
1
0
STYLE
2
STANDARD
70
0
40
0
41
1
50
0
71
0
42
0.2
3
txt
4

0
ENDTAB
0
ENDSEC
0
SECTION
2
BLOCKS
0
BLOCK
2
*Model_Space
70
0
10
0
20
0
30
0
0
ENDBLK
0
BLOCK
2
*Paper_Space
70
0
10
0
20
0
30
0
0
ENDBLK
0
ENDSEC
0
SECTION
2
ENTITIES
0
POLYLINE
8
A-BLDG-OUT
10
0
20
0
30
0
70
1
66
1
40
0
41
0
71
0
72
0
0
VERTEX
8
A-BLDG-OUT
10
2000
20
1500
30
0
42
0
0
VERTEX
8
A-BLDG-OUT
10
16000
20
1500
30
0
42
0
0
VERTEX
8
A-BLDG-OUT
10
16000
20
10000
30
0
42
0
0
VERTEX
8
A-BLDG-OUT
10
9000
20
10000
30
0
42
0
0
VERTEX
8
A-BLDG-OUT
10
9000
20
19000
30
0
42
0
0
VERTEX
8
A-BLDG-OUT
10
2000
20
19000
30
0
42
0
0
SEQEND
8
A-BLDG-OUT
0
POLYLINE
8
A-FLOOR-0-A-BLDG-OUT
10
0
20
0
30
0
70
1
66
1
40
0
41
0
71
0
72
0
0
VERTEX
8
A-FLOOR-0-A-BLDG-OUT
10
2000
20
1500
30
0
42
0
0
VERTEX
8
A-FLOOR-0-A-BLDG-OUT
10
16000
20
1500
30
0
42
0
0
VERTEX
8
A-FLOOR-0-A-BLDG-OUT
10
16000
20
10000
30
0
42
0
0
VERTEX
8
A-FLOOR-0-A-BLDG-OUT
10
9000
20
10000
30
0
42
0
0
VERTEX
8
A-FLOOR-0-A-BLDG-OUT
10
9000
20
19000
30
0
42
0
0
VERTEX
8
A-FLOOR-0-A-BLDG-OUT
10
2000
20
19000
30
0
42
0
0
SEQEND
8
A-FLOOR-0-A-BLDG-OUT
0
POLYLINE
8
A-SETBACK
10
0
20
0
30
0
70
1
66
1
40
0
41
0
71
0
72
0
0
VERTEX
8
A-SETBACK
10
2000
20
1500
30
0
42
0
0
VERTEX
8
A-SETBACK
10
16000
20
1500
30
0
42
0
0
VERTEX
8
A-SETBACK
10
16000
20
10000
30
0
42
0
0
VERTEX
8
A-SETBACK
10
9000
20
10000
30
0
42
0
0
VERTEX
8
A-SETBACK
10
9000
20
19000
30
0
42
0
0
VERTEX
8
A-SETBACK
10
2000
20
19000
30
0
42
0
0
SEQEND
8
A-SETBACK
0
POLYLINE
8
A-FLOOR-0-A-SETBACK
10
0
20
0
30
0
70
1
66
1
40
0
41
0
71
0
72
0
0
VERTEX
8
A-FLOOR-0-A-SETBACK
10
2000
20
1500
30
0
42
0
0
VERTEX
8
A-FLOOR-0-A-SETBACK
10
16000
20
1500
30
0
42
0
0
VERTEX
8
A-FLOOR-0-A-SETBACK
10
16000
20
10000
30
0
42
0
0
VERTEX
8
A-FLOOR-0-A-SETBACK
10
9000
20
10000
30
0
42
0
0
VERTEX
8
A-FLOOR-0-A-SETBACK
10
9000
20
19000
30
0
42
0
0
VERTEX
8
A-FLOOR-0-A-SETBACK
10
2000
20
19000
30
0
42
0
0
SEQEND
8
A-FLOOR-0-A-SETBACK
0
POLYLINE
8
A-SITE
10
0
20
0
30
0
70
1
66
1
40
0
41
0
71
0
72
0
0
VERTEX
8
A-SITE
10
0
20
0
30
0
42
0
0
VERTEX
8
A-SITE
10
18000
20
0
30
0
42
0
0
VERTEX
8
A-SITE
10
18000
20
13000
30
0
42
0
0
VERTEX
8
A-SITE
10
11000
20
13000
30
0
42
0
0
VERTEX
8
A-SITE
10
11000
20
22000
30
0
42
0
0
VERTEX
8
A-SITE
10
0
20
22000
30
0
42
0
0
SEQEND
8
A-SITE
0
POLYLINE
8
A-FLOOR-0-A-SITE
10
0
20
0
30
0
70
1
66
1
40
0
41
0
71
0
72
0
0
VERTEX
8
A-FLOOR-0-A-SITE
10
0
20
0
30
0
42
0
0
VERTEX
8
A-FLOOR-0-A-SITE
10
18000
20
0
30
0
42
0
0
VERTEX
8
A-FLOOR-0-A-SITE
10
18000
20
13000
30
0
42
0
0
VERTEX
8
A-FLOOR-0-A-SITE
10
11000
20
13000
30
0
42
0
0
VERTEX
8
A-FLOOR-0-A-SITE
10
11000
20
22000
30
0
42
0
0
VERTEX
8
A-FLOOR-0-A-SITE
10
0
20
22000
30
0
42
0
0
SEQEND
8
A-FLOOR-0-A-SITE
0
TEXT
8
A-SITE
10
0
20
-800
30
0
40
300
1
SITE l-shape 18.0x22.0m
50
0
72
0
11
0
21
-800
31
0
0
TEXT
8
A-SETBACK
10
0
20
-1200
30
0
40
200
1
Setbacks N=3 S=1.5 E=2 W=2
50
0
72
0
11
0
21
-1200
31
0
0
TEXT
8
A-TEXT
10
2000
20
19500
30
0
40
300
1
FLOOR 0 - ELEV 0.00 m
50
0
72
0
11
2000
21
19500
31
0
0
TEXT
8
A-FLOOR-0-A-TEXT
10
2000
20
19500
30
0
40
300
1
FLOOR 0 - ELEV 0.00 m
50
0
72
0
11
2000
21
19500
31
0
0
LINE
8
A-WALL-EXT
10
2000
20
5875
30
0
11
3830
21
5875
31
0
0
LINE
8
A-WALL-EXT
10
2000
20
5525
30
0
11
3830
21
5525
31
0
0
LINE
8
A-WALL-EXT
10
2000
20
5875
30
0
11
2000
21
5525
31
0
0
LINE
8
A-WALL-EXT
10
3830
20
5875
30
0
11
3830
21
5525
31
0
0
LINE
8
A-FLOOR-0-A-WALL-EXT
10
2000
20
5875
30
0
11
3830
21
5875
31
0
0
LINE
8
A-FLOOR-0-A-WALL-EXT
10
2000
20
5525
30
0
11
3830
21
5525
31
0
0
LINE
8
A-FLOOR-0-A-WALL-EXT
10
2000
20
5875
30
0
11
2000
21
5525
31
0
0
LINE
8
A-FLOOR-0-A-WALL-EXT
10
3830
20
5875
30
0
11
3830
21
5525
31
0
0
LINE
8
A-WALL-EXT
10
3830
20
5875
30
0
11
4480
21
5875
31
0
0
LINE
8
A-WALL-EXT
10
3830
20
5525
30
0
11
4480
21
5525
31
0
0
LINE
8
A-WALL-EXT
10
5480
20
5875
30
0
11
6130
21
5875
31
0
0
LINE
8
A-WALL-EXT
10
5480
20
5525
30
0
11
6130
21
5525
31
0
0
LINE
8
A-WALL-EXT
10
6130
20
5875
30
0
11
6130
21
5525
31
0
0
LINE
8
A-WALL-EXT
10
4480
20
5875
30
0
11
4480
21
5525
31
0
0
LINE
8
A-WALL-EXT
10
5480
20
5875
30
0
11
5480
21
5525
31
0
0
LINE
8
A-FLOOR-0-A-WALL-EXT
10
3830
20
5875
30
0
11
4480
21
5875
31
0
0
LINE
8
A-FLOOR-0-A-WALL-EXT
10
3830
20
5525
30
0
11
4480
21
5525
31
0
0
LINE
8
A-FLOOR-0-A-WALL-EXT
10
5480
20
5875
30
0
11
6130
21
5875
31
0
0
LINE
8
A-FLOOR-0-A-WALL-EXT
10
5480
20
5525
30
0
11
6130
21
5525
31
0
0
LINE
8
A-FLOOR-0-A-WALL-EXT
10
6130
20
5875
30
0
11
6130
21
5525
31
0
0
LINE
8
A-FLOOR-0-A-WALL-EXT
10
4480
20
5875
30
0
11
4480
21
5525
31
0
0
LINE
8
A-FLOOR-0-A-WALL-EXT
10
5480
20
5875
30
0
11
5480
21
5525
31
0
0
LINE
8
A-WALL-EXT
10
6130
20
5875
30
0
11
9000
21
5875
31
0
0
LINE
8
A-WALL-EXT
10
6130
20
5525
30
0
11
9000
21
5525
31
0
0
LINE
8
A-WALL-EXT
10
9000
20
5875
30
0
11
9000
21
5525
31
0
0
LINE
8
A-FLOOR-0-A-WALL-EXT
10
6130
20
5875
30
0
11
9000
21
5875
31
0
0
LINE
8
A-FLOOR-0-A-WALL-EXT
10
6130
20
5525
30
0
11
9000
21
5525
31
0
0
LINE
8
A-FLOOR-0-A-WALL-EXT
10
9000
20
5875
30
0
11
9000
21
5525
31
0
0
LINE
8
A-WALL-EXT
10
9000
20
5875
30
0
11
10500
21
5875
31
0
0
LINE
8
A-WALL-EXT
10
9000
20
5525
30
0
11
10500
21
5525
31
0
0
LINE
8
A-WALL-EXT
10
10500
20
5875
30
0
11
10500
21
5525
31
0
0
LINE
8
A-FLOOR-0-A-WALL-EXT
10
9000
20
5875
30
0
11
10500
21
5875
31
0
0
LINE
8
A-FLOOR-0-A-WALL-EXT
10
9000
20
5525
30
0
11
10500
21
5525
31
0
0
LINE
8
A-FLOOR-0-A-WALL-EXT
10
10500
20
5875
30
0
11
10500
21
5525
31
0
0
LINE
8
A-WALL-EXT
10
10500
20
5875
30
0
11
12050
21
5875
31
0
0
LINE
8
A-WALL-EXT
10
10500
20
5525
30
0
11
12050
21
5525
31
0
0
LINE
8
A-WALL-EXT
10
14450
20
5875
30
0
11
16000
21
5875
31
0
0
LINE
8
A-WALL-EXT
10
14450
20
5525
30
0
11
16000
21
5525
31
0
0
LINE
8
A-WALL-EXT
10
16000
20
5875
30
0
11
16000
21
5525
31
0
0
LINE
8
A-WALL-EXT
10
12050
20
5875
30
0
11
12050
21
5525
31
0
0
LINE
8
A-WALL-EXT
10
14450
20
5875
30
0
11
14450
21
5525
31
0
0
LINE
8
A-FLOOR-0-A-WALL-EXT
10
10500
20
5875
30
0
11
12050
21
5875
31
0
0
LINE
8
A-FLOOR-0-A-WALL-EXT
10
10500
20
5525
30
0
11
12050
21
5525
31
0
0
LINE
8
A-FLOOR-0-A-WALL-EXT
10
14450
20
5875
30
0
11
16000
21
5875
31
0
0
LINE
8
A-FLOOR-0-A-WALL-EXT
10
14450
20
5525
30
0
11
16000
21
5525
31
0
0
LINE
8
A-FLOOR-0-A-WALL-EXT
10
16000
20
5875
30
0
11
16000
21
5525
31
0
0
LINE
8
A-FLOOR-0-A-WALL-EXT
10
12050
20
5875
30
0
11
12050
21
5525
31
0
0
LINE
8
A-FLOOR-0-A-WALL-EXT
10
14450
20
5875
30
0
11
14450
21
5525
31
0
0
LINE
8
A-WALL-SERVICE
10
3770
20
5700
30
0
11
3770
21
6200
31
0
0
LINE
8
A-WALL-SERVICE
10
3890
20
5700
30
0
11
3890
21
6200
31
0
0
LINE
8
A-WALL-SERVICE
10
3770
20
5700
30
0
11
3890
21
5700
31
0
0
LINE
8
A-WALL-SERVICE
10
3770
20
7000
30
0
11
3770
21
7500
31
0
0
LINE
8
A-WALL-SERVICE
10
3890
20
7000
30
0
11
3890
21
7500
31
0
0
LINE
8
A-WALL-SERVICE
10
3770
20
7500
30
0
11
3890
21
7500
31
0
0
LINE
8
A-WALL-SERVICE
10
3770
20
6200
30
0
11
3890
21
6200
31
0
0
LINE
8
A-WALL-SERVICE
10
3770
20
7000
30
0
11
3890
21
7000
31
0
0
LINE
8
A-FLOOR-0-A-WALL-SERVICE
10
3770
20
5700
30
0
11
3770
21
6200
31
0
0
LINE
8
A-FLOOR-0-A-WALL-SERVICE
10
3890
20
5700
30
0
11
3890
21
6200
31
0
0
LINE
8
A-FLOOR-0-A-WALL-SERVICE
10
3770
20
5700
30
0
11
3890
21
5700
31
0
0
LINE
8
A-FLOOR-0-A-WALL-SERVICE
10
3770
20
7000
30
0
11
3770
21
7500
31
0
0
LINE
8
A-FLOOR-0-A-WALL-SERVICE
10
3890
20
7000
30
0
11
3890
21
7500
31
0
0
LINE
8
A-FLOOR-0-A-WALL-SERVICE
10
3770
20
7500
30
0
11
3890
21
7500
31
0
0
LINE
8
A-FLOOR-0-A-WALL-SERVICE
10
3770
20
6200
30
0
11
3890
21
6200
31
0
0
LINE
8
A-FLOOR-0-A-WALL-SERVICE
10
3770
20
7000
30
0
11
3890
21
7000
31
0
0
LINE
8
A-WALL-EXT
10
2000
20
7675
30
0
11
3540
21
7675
31
0
0
LINE
8
A-WALL-EXT
10
2000
20
7325
30
0
11
3540
21
7325
31
0
0
LINE
8
A-WALL-EXT
10
2000
20
7675
30
0
11
2000
21
7325
31
0
0
LINE
8
A-WALL-EXT
10
3540
20
7675
30
0
11
3540
21
7325
31
0
0
LINE
8
A-FLOOR-0-A-WALL-EXT
10
2000
20
7675
30
0
11
3540
21
7675
31
0
0
LINE
8
A-FLOOR-0-A-WALL-EXT
10
2000
20
7325
30
0
11
3540
21
7325
31
0
0
LINE
8
A-FLOOR-0-A-WALL-EXT
10
2000
20
7675
30
0
11
2000
21
7325
31
0
0
LINE
8
A-FLOOR-0-A-WALL-EXT
10
3540
20
7675
30
0
11
3540
21
7325
31
0
0
LINE
8
A-WALL-SERVICE
10
3540
20
7560
30
0
11
3830
21
7560
31
0
0
LINE
8
A-WALL-SERVICE
10
3540
20
7440
30
0
11
3830
21
7440
31
0
0
LINE
8
A-WALL-SERVICE
10
3540
20
7560
30
0
11
3540
21
7440
31
0
0
LINE
8
A-WALL-SERVICE
10
3830
20
7560
30
0
11
3830
21
7440
31
0
0
LINE
8
A-FLOOR-0-A-WALL-SERVICE
10
3540
20
7560
30
0
11
3830
21
7560
31
0
0
LINE
8
A-FLOOR-0-A-WALL-SERVICE
10
3540
20
7440
30
0
11
3830
21
7440
31
0
0
LINE
8
A-FLOOR-0-A-WALL-SERVICE
10
3540
20
7560
30
0
11
3540
21
7440
31
0
0
LINE
8
A-FLOOR-0-A-WALL-SERVICE
10
3830
20
7560
30
0
11
3830
21
7440
31
0
0
LINE
8
A-WALL-INT
10
3830
20
7575
30
0
11
4530
21
7575
31
0
0
LINE
8
A-WALL-INT
10
3830
20
7425
30
0
11
4530
21
7425
31
0
0
LINE
8
A-WALL-INT
10
3830
20
7575
30
0
11
3830
21
7425
31
0
0
LINE
8
A-WALL-INT
10
5430
20
7575
30
0
11
6130
21
7575
31
0
0
LINE
8
A-WALL-INT
10
5430
20
7425
30
0
11
6130
21
7425
31
0
0
LINE
8
A-WALL-INT
10
6130
20
7575
30
0
11
6130
21
7425
31
0
0
LINE
8
A-WALL-INT
10
4530
20
7575
30
0
11
4530
21
7425
31
0
0
LINE
8
A-WALL-INT
10
5430
20
7575
30
0
11
5430
21
7425
31
0
0
LINE
8
A-FLOOR-0-A-WALL-INT
10
3830
20
7575
30
0
11
4530
21
7575
31
0
0
LINE
8
A-FLOOR-0-A-WALL-INT
10
3830
20
7425
30
0
11
4530
21
7425
31
0
0
LINE
8
A-FLOOR-0-A-WALL-INT
10
3830
20
7575
30
0
11
3830
21
7425
31
0
0
LINE
8
A-FLOOR-0-A-WALL-INT
10
5430
20
7575
30
0
11
6130
21
7575
31
0
0
LINE
8
A-FLOOR-0-A-WALL-INT
10
5430
20
7425
30
0
11
6130
21
7425
31
0
0
LINE
8
A-FLOOR-0-A-WALL-INT
10
6130
20
7575
30
0
11
6130
21
7425
31
0
0
LINE
8
A-FLOOR-0-A-WALL-INT
10
4530
20
7575
30
0
11
4530
21
7425
31
0
0
LINE
8
A-FLOOR-0-A-WALL-INT
10
5430
20
7575
30
0
11
5430
21
7425
31
0
0
LINE
8
A-WALL-INT
10
6130
20
7575
30
0
11
7000
21
7575
31
0
0
LINE
8
A-WALL-INT
10
6130
20
7425
30
0
11
7000
21
7425
31
0
0
LINE
8
A-WALL-INT
10
7000
20
7575
30
0
11
7000
21
7425
31
0
0
LINE
8
A-FLOOR-0-A-WALL-INT
10
6130
20
7575
30
0
11
7000
21
7575
31
0
0
LINE
8
A-FLOOR-0-A-WALL-INT
10
6130
20
7425
30
0
11
7000
21
7425
31
0
0
LINE
8
A-FLOOR-0-A-WALL-INT
10
7000
20
7575
30
0
11
7000
21
7425
31
0
0
LINE
8
A-WALL-INT
10
7000
20
7575
30
0
11
9000
21
7575
31
0
0
LINE
8
A-WALL-INT
10
7000
20
7425
30
0
11
9000
21
7425
31
0
0
LINE
8
A-WALL-INT
10
9000
20
7575
30
0
11
9000
21
7425
31
0
0
LINE
8
A-FLOOR-0-A-WALL-INT
10
7000
20
7575
30
0
11
9000
21
7575
31
0
0
LINE
8
A-FLOOR-0-A-WALL-INT
10
7000
20
7425
30
0
11
9000
21
7425
31
0
0
LINE
8
A-FLOOR-0-A-WALL-INT
10
9000
20
7575
30
0
11
9000
21
7425
31
0
0
LINE
8
A-WALL-EXT
10
1825
20
5700
30
0
11
1825
21
7500
31
0
0
LINE
8
A-WALL-EXT
10
2175
20
5700
30
0
11
2175
21
7500
31
0
0
LINE
8
A-WALL-EXT
10
1825
20
5700
30
0
11
2175
21
5700
31
0
0
LINE
8
A-WALL-EXT
10
1825
20
7500
30
0
11
2175
21
7500
31
0
0
LINE
8
A-FLOOR-0-A-WALL-EXT
10
1825
20
5700
30
0
11
1825
21
7500
31
0
0
LINE
8
A-FLOOR-0-A-WALL-EXT
10
2175
20
5700
30
0
11
2175
21
7500
31
0
0
LINE
8
A-FLOOR-0-A-WALL-EXT
10
1825
20
5700
30
0
11
2175
21
5700
31
0
0
LINE
8
A-FLOOR-0-A-WALL-EXT
10
1825
20
7500
30
0
11
2175
21
7500
31
0
0
LINE
8
A-WALL-EXT
10
1825
20
14460
30
0
11
1825
21
15960
31
0
0
LINE
8
A-WALL-EXT
10
2175
20
14460
30
0
11
2175
21
15960
31
0
0
LINE
8
A-WALL-EXT
10
1825
20
14460
30
0
11
2175
21
14460
31
0
0
LINE
8
A-WALL-EXT
10
1825
20
15960
30
0
11
2175
21
15960
31
0
0
LINE
8
A-FLOOR-0-A-WALL-EXT
10
1825
20
14460
30
0
11
1825
21
15960
31
0
0
LINE
8
A-FLOOR-0-A-WALL-EXT
10
2175
20
14460
30
0
11
2175
21
15960
31
0
0
LINE
8
A-FLOOR-0-A-WALL-EXT
10
1825
20
14460
30
0
11
2175
21
14460
31
0
0
LINE
8
A-FLOOR-0-A-WALL-EXT
10
1825
20
15960
30
0
11
2175
21
15960
31
0
0
LINE
8
A-WALL-EXT
10
1825
20
15960
30
0
11
1825
21
16717.5
31
0
0
LINE
8
A-WALL-EXT
10
2175
20
15960
30
0
11
2175
21
16717.5
31
0
0
LINE
8
A-WALL-EXT
10
1825
20
18232.5
30
0
11
1825
21
18990
31
0
0
LINE
8
A-WALL-EXT
10
2175
20
18232.5
30
0
11
2175
21
18990
31
0
0
LINE
8
A-WALL-EXT
10
1825
20
18990
30
0
11
2175
21
18990
31
0
0
LINE
8
A-WALL-EXT
10
1825
20
16717.5
30
0
11
2175
21
16717.5
31
0
0
LINE
8
A-WALL-EXT
10
1825
20
18232.5
30
0
11
2175
21
18232.5
31
0
0
LINE
8
A-FLOOR-0-A-WALL-EXT
10
1825
20
15960
30
0
11
1825
21
16717.5
31
0
0
LINE
8
A-FLOOR-0-A-WALL-EXT
10
2175
20
15960
30
0
11
2175
21
16717.5
31
0
0
LINE
8
A-FLOOR-0-A-WALL-EXT
10
1825
20
18232.5
30
0
11
1825
21
18990
31
0
0
LINE
8
A-FLOOR-0-A-WALL-EXT
10
2175
20
18232.5
30
0
11
2175
21
18990
31
0
0
LINE
8
A-FLOOR-0-A-WALL-EXT
10
1825
20
18990
30
0
11
2175
21
18990
31
0
0
LINE
8
A-FLOOR-0-A-WALL-EXT
10
1825
20
16717.5
30
0
11
2175
21
16717.5
31
0
0
LINE
8
A-FLOOR-0-A-WALL-EXT
10
1825
20
18232.5
30
0
11
2175
21
18232.5
31
0
0
LINE
8
A-WALL-INT
10
6055
20
5700
30
0
11
6055
21
6150
31
0
0
LINE
8
A-WALL-INT
10
6205
20
5700
30
0
11
6205
21
6150
31
0
0
LINE
8
A-WALL-INT
10
6055
20
5700
30
0
11
6205
21
5700
31
0
0
LINE
8
A-WALL-INT
10
6055
20
7050
30
0
11
6055
21
7500
31
0
0
LINE
8
A-WALL-INT
10
6205
20
7050
30
0
11
6205
21
7500
31
0
0
LINE
8
A-WALL-INT
10
6055
20
7500
30
0
11
6205
21
7500
31
0
0
LINE
8
A-WALL-INT
10
6055
20
6150
30
0
11
6205
21
6150
31
0
0
LINE
8
A-WALL-INT
10
6055
20
7050
30
0
11
6205
21
7050
31
0
0
LINE
8
A-FLOOR-0-A-WALL-INT
10
6055
20
5700
30
0
11
6055
21
6150
31
0
0
LINE
8
A-FLOOR-0-A-WALL-INT
10
6205
20
5700
30
0
11
6205
21
6150
31
0
0
LINE
8
A-FLOOR-0-A-WALL-INT
10
6055
20
5700
30
0
11
6205
21
5700
31
0
0
LINE
8
A-FLOOR-0-A-WALL-INT
10
6055
20
7050
30
0
11
6055
21
7500
31
0
0
LINE
8
A-FLOOR-0-A-WALL-INT
10
6205
20
7050
30
0
11
6205
21
7500
31
0
0
LINE
8
A-FLOOR-0-A-WALL-INT
10
6055
20
7500
30
0
11
6205
21
7500
31
0
0
LINE
8
A-FLOOR-0-A-WALL-INT
10
6055
20
6150
30
0
11
6205
21
6150
31
0
0
LINE
8
A-FLOOR-0-A-WALL-INT
10
6055
20
7050
30
0
11
6205
21
7050
31
0
0
LINE
8
A-WALL-INT
10
8925
20
5700
30
0
11
8925
21
6150
31
0
0
LINE
8
A-WALL-INT
10
9075
20
5700
30
0
11
9075
21
6150
31
0
0
LINE
8
A-WALL-INT
10
8925
20
5700
30
0
11
9075
21
5700
31
0
0
LINE
8
A-WALL-INT
10
8925
20
7050
30
0
11
8925
21
7500
31
0
0
LINE
8
A-WALL-INT
10
9075
20
7050
30
0
11
9075
21
7500
31
0
0
LINE
8
A-WALL-INT
10
8925
20
7500
30
0
11
9075
21
7500
31
0
0
LINE
8
A-WALL-INT
10
8925
20
6150
30
0
11
9075
21
6150
31
0
0
LINE
8
A-WALL-INT
10
8925
20
7050
30
0
11
9075
21
7050
31
0
0
LINE
8
A-FLOOR-0-A-WALL-INT
10
8925
20
5700
30
0
11
8925
21
6150
31
0
0
LINE
8
A-FLOOR-0-A-WALL-INT
10
9075
20
5700
30
0
11
9075
21
6150
31
0
0
LINE
8
A-FLOOR-0-A-WALL-INT
10
8925
20
5700
30
0
11
9075
21
5700
31
0
0
LINE
8
A-FLOOR-0-A-WALL-INT
10
8925
20
7050
30
0
11
8925
21
7500
31
0
0
LINE
8
A-FLOOR-0-A-WALL-INT
10
9075
20
7050
30
0
11
9075
21
7500
31
0
0
LINE
8
A-FLOOR-0-A-WALL-INT
10
8925
20
7500
30
0
11
9075
21
7500
31
0
0
LINE
8
A-FLOOR-0-A-WALL-INT
10
8925
20
6150
30
0
11
9075
21
6150
31
0
0
LINE
8
A-FLOOR-0-A-WALL-INT
10
8925
20
7050
30
0
11
9075
21
7050
31
0
0
LINE
8
A-WALL-INT
10
8925
20
7500
30
0
11
8925
21
10000
31
0
0
LINE
8
A-WALL-INT
10
9075
20
7500
30
0
11
9075
21
10000
31
0
0
LINE
8
A-WALL-INT
10
8925
20
10000
30
0
11
9075
21
10000
31
0
0
LINE
8
A-FLOOR-0-A-WALL-INT
10
8925
20
7500
30
0
11
8925
21
10000
31
0
0
LINE
8
A-FLOOR-0-A-WALL-INT
10
9075
20
7500
30
0
11
9075
21
10000
31
0
0
LINE
8
A-FLOOR-0-A-WALL-INT
10
8925
20
10000
30
0
11
9075
21
10000
31
0
0
LINE
8
A-WALL-EXT
10
8825
20
10000
30
0
11
8825
21
11330
31
0
0
LINE
8
A-WALL-EXT
10
9175
20
10000
30
0
11
9175
21
11330
31
0
0
LINE
8
A-WALL-EXT
10
8825
20
10000
30
0
11
9175
21
10000
31
0
0
LINE
8
A-WALL-EXT
10
8825
20
13130
30
0
11
8825
21
14460
31
0
0
LINE
8
A-WALL-EXT
10
9175
20
13130
30
0
11
9175
21
14460
31
0
0
LINE
8
A-WALL-EXT
10
8825
20
14460
30
0
11
9175
21
14460
31
0
0
LINE
8
A-WALL-EXT
10
8825
20
11330
30
0
11
9175
21
11330
31
0
0
LINE
8
A-WALL-EXT
10
8825
20
13130
30
0
11
9175
21
13130
31
0
0
LINE
8
A-FLOOR-0-A-WALL-EXT
10
8825
20
10000
30
0
11
8825
21
11330
31
0
0
LINE
8
A-FLOOR-0-A-WALL-EXT
10
9175
20
10000
30
0
11
9175
21
11330
31
0
0
LINE
8
A-FLOOR-0-A-WALL-EXT
10
8825
20
10000
30
0
11
9175
21
10000
31
0
0
LINE
8
A-FLOOR-0-A-WALL-EXT
10
8825
20
13130
30
0
11
8825
21
14460
31
0
0
LINE
8
A-FLOOR-0-A-WALL-EXT
10
9175
20
13130
30
0
11
9175
21
14460
31
0
0
LINE
8
A-FLOOR-0-A-WALL-EXT
10
8825
20
14460
30
0
11
9175
21
14460
31
0
0
LINE
8
A-FLOOR-0-A-WALL-EXT
10
8825
20
11330
30
0
11
9175
21
11330
31
0
0
LINE
8
A-FLOOR-0-A-WALL-EXT
10
8825
20
13130
30
0
11
9175
21
13130
31
0
0
LINE
8
A-WALL-EXT
10
8825
20
14460
30
0
11
8825
21
15960
31
0
0
LINE
8
A-WALL-EXT
10
9175
20
14460
30
0
11
9175
21
15960
31
0
0
LINE
8
A-WALL-EXT
10
8825
20
15960
30
0
11
9175
21
15960
31
0
0
LINE
8
A-FLOOR-0-A-WALL-EXT
10
8825
20
14460
30
0
11
8825
21
15960
31
0
0
LINE
8
A-FLOOR-0-A-WALL-EXT
10
9175
20
14460
30
0
11
9175
21
15960
31
0
0
LINE
8
A-FLOOR-0-A-WALL-EXT
10
8825
20
15960
30
0
11
9175
21
15960
31
0
0
LINE
8
A-WALL-EXT
10
8825
20
15960
30
0
11
8825
21
18990
31
0
0
LINE
8
A-WALL-EXT
10
9175
20
15960
30
0
11
9175
21
18990
31
0
0
LINE
8
A-WALL-EXT
10
8825
20
18990
30
0
11
9175
21
18990
31
0
0
LINE
8
A-FLOOR-0-A-WALL-EXT
10
8825
20
15960
30
0
11
8825
21
18990
31
0
0
LINE
8
A-FLOOR-0-A-WALL-EXT
10
9175
20
15960
30
0
11
9175
21
18990
31
0
0
LINE
8
A-FLOOR-0-A-WALL-EXT
10
8825
20
18990
30
0
11
9175
21
18990
31
0
0
LINE
8
A-WALL-INT
10
2000
20
16035
30
0
11
3860
21
16035
31
0
0
LINE
8
A-WALL-INT
10
2000
20
15885
30
0
11
3860
21
15885
31
0
0
LINE
8
A-WALL-INT
10
2000
20
16035
30
0
11
2000
21
15885
31
0
0
LINE
8
A-WALL-INT
10
4760
20
16035
30
0
11
6620
21
16035
31
0
0
LINE
8
A-WALL-INT
10
4760
20
15885
30
0
11
6620
21
15885
31
0
0
LINE
8
A-WALL-INT
10
6620
20
16035
30
0
11
6620
21
15885
31
0
0
LINE
8
A-WALL-INT
10
3860
20
16035
30
0
11
3860
21
15885
31
0
0
LINE
8
A-WALL-INT
10
4760
20
16035
30
0
11
4760
21
15885
31
0
0
LINE
8
A-FLOOR-0-A-WALL-INT
10
2000
20
16035
30
0
11
3860
21
16035
31
0
0
LINE
8
A-FLOOR-0-A-WALL-INT
10
2000
20
15885
30
0
11
3860
21
15885
31
0
0
LINE
8
A-FLOOR-0-A-WALL-INT
10
2000
20
16035
30
0
11
2000
21
15885
31
0
0
LINE
8
A-FLOOR-0-A-WALL-INT
10
4760
20
16035
30
0
11
6620
21
16035
31
0
0
LINE
8
A-FLOOR-0-A-WALL-INT
10
4760
20
15885
30
0
11
6620
21
15885
31
0
0
LINE
8
A-FLOOR-0-A-WALL-INT
10
6620
20
16035
30
0
11
6620
21
15885
31
0
0
LINE
8
A-FLOOR-0-A-WALL-INT
10
3860
20
16035
30
0
11
3860
21
15885
31
0
0
LINE
8
A-FLOOR-0-A-WALL-INT
10
4760
20
16035
30
0
11
4760
21
15885
31
0
0
LINE
8
A-WALL-SERVICE
10
6620
20
16020
30
0
11
7410
21
16020
31
0
0
LINE
8
A-WALL-SERVICE
10
6620
20
15900
30
0
11
7410
21
15900
31
0
0
LINE
8
A-WALL-SERVICE
10
6620
20
16020
30
0
11
6620
21
15900
31
0
0
LINE
8
A-WALL-SERVICE
10
8210
20
16020
30
0
11
9000
21
16020
31
0
0
LINE
8
A-WALL-SERVICE
10
8210
20
15900
30
0
11
9000
21
15900
31
0
0
LINE
8
A-WALL-SERVICE
10
9000
20
16020
30
0
11
9000
21
15900
31
0
0
LINE
8
A-WALL-SERVICE
10
7410
20
16020
30
0
11
7410
21
15900
31
0
0
LINE
8
A-WALL-SERVICE
10
8210
20
16020
30
0
11
8210
21
15900
31
0
0
LINE
8
A-FLOOR-0-A-WALL-SERVICE
10
6620
20
16020
30
0
11
7410
21
16020
31
0
0
LINE
8
A-FLOOR-0-A-WALL-SERVICE
10
6620
20
15900
30
0
11
7410
21
15900
31
0
0
LINE
8
A-FLOOR-0-A-WALL-SERVICE
10
6620
20
16020
30
0
11
6620
21
15900
31
0
0
LINE
8
A-FLOOR-0-A-WALL-SERVICE
10
8210
20
16020
30
0
11
9000
21
16020
31
0
0
LINE
8
A-FLOOR-0-A-WALL-SERVICE
10
8210
20
15900
30
0
11
9000
21
15900
31
0
0
LINE
8
A-FLOOR-0-A-WALL-SERVICE
10
9000
20
16020
30
0
11
9000
21
15900
31
0
0
LINE
8
A-FLOOR-0-A-WALL-SERVICE
10
7410
20
16020
30
0
11
7410
21
15900
31
0
0
LINE
8
A-FLOOR-0-A-WALL-SERVICE
10
8210
20
16020
30
0
11
8210
21
15900
31
0
0
LINE
8
A-WALL-SERVICE
10
6560
20
15960
30
0
11
6560
21
18990
31
0
0
LINE
8
A-WALL-SERVICE
10
6680
20
15960
30
0
11
6680
21
18990
31
0
0
LINE
8
A-WALL-SERVICE
10
6560
20
15960
30
0
11
6680
21
15960
31
0
0
LINE
8
A-WALL-SERVICE
10
6560
20
18990
30
0
11
6680
21
18990
31
0
0
LINE
8
A-FLOOR-0-A-WALL-SERVICE
10
6560
20
15960
30
0
11
6560
21
18990
31
0
0
LINE
8
A-FLOOR-0-A-WALL-SERVICE
10
6680
20
15960
30
0
11
6680
21
18990
31
0
0
LINE
8
A-FLOOR-0-A-WALL-SERVICE
10
6560
20
15960
30
0
11
6680
21
15960
31
0
0
LINE
8
A-FLOOR-0-A-WALL-SERVICE
10
6560
20
18990
30
0
11
6680
21
18990
31
0
0
LINE
8
A-WALL-EXT
10
2000
20
19165
30
0
11
6620
21
19165
31
0
0
LINE
8
A-WALL-EXT
10
2000
20
18815
30
0
11
6620
21
18815
31
0
0
LINE
8
A-WALL-EXT
10
2000
20
19165
30
0
11
2000
21
18815
31
0
0
LINE
8
A-WALL-EXT
10
6620
20
19165
30
0
11
6620
21
18815
31
0
0
LINE
8
A-FLOOR-0-A-WALL-EXT
10
2000
20
19165
30
0
11
6620
21
19165
31
0
0
LINE
8
A-FLOOR-0-A-WALL-EXT
10
2000
20
18815
30
0
11
6620
21
18815
31
0
0
LINE
8
A-FLOOR-0-A-WALL-EXT
10
2000
20
19165
30
0
11
2000
21
18815
31
0
0
LINE
8
A-FLOOR-0-A-WALL-EXT
10
6620
20
19165
30
0
11
6620
21
18815
31
0
0
LINE
8
A-WALL-EXT
10
6620
20
19165
30
0
11
7393.5
21
19165
31
0
0
LINE
8
A-WALL-EXT
10
6620
20
18815
30
0
11
7393.5
21
18815
31
0
0
LINE
8
A-WALL-EXT
10
8226.5
20
19165
30
0
11
9000
21
19165
31
0
0
LINE
8
A-WALL-EXT
10
8226.5
20
18815
30
0
11
9000
21
18815
31
0
0
LINE
8
A-WALL-EXT
10
9000
20
19165
30
0
11
9000
21
18815
31
0
0
LINE
8
A-WALL-EXT
10
7393.5
20
19165
30
0
11
7393.5
21
18815
31
0
0
LINE
8
A-WALL-EXT
10
8226.5
20
19165
30
0
11
8226.5
21
18815
31
0
0
LINE
8
A-FLOOR-0-A-WALL-EXT
10
6620
20
19165
30
0
11
7393.5
21
19165
31
0
0
LINE
8
A-FLOOR-0-A-WALL-EXT
10
6620
20
18815
30
0
11
7393.5
21
18815
31
0
0
LINE
8
A-FLOOR-0-A-WALL-EXT
10
8226.5
20
19165
30
0
11
9000
21
19165
31
0
0
LINE
8
A-FLOOR-0-A-WALL-EXT
10
8226.5
20
18815
30
0
11
9000
21
18815
31
0
0
LINE
8
A-FLOOR-0-A-WALL-EXT
10
9000
20
19165
30
0
11
9000
21
18815
31
0
0
LINE
8
A-FLOOR-0-A-WALL-EXT
10
7393.5
20
19165
30
0
11
7393.5
21
18815
31
0
0
LINE
8
A-FLOOR-0-A-WALL-EXT
10
8226.5
20
19165
30
0
11
8226.5
21
18815
31
0
0
LINE
8
A-WALL-EXT
10
2000
20
14635
30
0
11
3540
21
14635
31
0
0
LINE
8
A-WALL-EXT
10
2000
20
14285
30
0
11
3540
21
14285
31
0
0
LINE
8
A-WALL-EXT
10
2000
20
14635
30
0
11
2000
21
14285
31
0
0
LINE
8
A-WALL-EXT
10
3540
20
14635
30
0
11
3540
21
14285
31
0
0
LINE
8
A-FLOOR-0-A-WALL-EXT
10
2000
20
14635
30
0
11
3540
21
14635
31
0
0
LINE
8
A-FLOOR-0-A-WALL-EXT
10
2000
20
14285
30
0
11
3540
21
14285
31
0
0
LINE
8
A-FLOOR-0-A-WALL-EXT
10
2000
20
14635
30
0
11
2000
21
14285
31
0
0
LINE
8
A-FLOOR-0-A-WALL-EXT
10
3540
20
14635
30
0
11
3540
21
14285
31
0
0
LINE
8
A-WALL-INT
10
3540
20
14535
30
0
11
4820
21
14535
31
0
0
LINE
8
A-WALL-INT
10
3540
20
14385
30
0
11
4820
21
14385
31
0
0
LINE
8
A-WALL-INT
10
3540
20
14535
30
0
11
3540
21
14385
31
0
0
LINE
8
A-WALL-INT
10
5720
20
14535
30
0
11
7000
21
14535
31
0
0
LINE
8
A-WALL-INT
10
5720
20
14385
30
0
11
7000
21
14385
31
0
0
LINE
8
A-WALL-INT
10
7000
20
14535
30
0
11
7000
21
14385
31
0
0
LINE
8
A-WALL-INT
10
4820
20
14535
30
0
11
4820
21
14385
31
0
0
LINE
8
A-WALL-INT
10
5720
20
14535
30
0
11
5720
21
14385
31
0
0
LINE
8
A-FLOOR-0-A-WALL-INT
10
3540
20
14535
30
0
11
4820
21
14535
31
0
0
LINE
8
A-FLOOR-0-A-WALL-INT
10
3540
20
14385
30
0
11
4820
21
14385
31
0
0
LINE
8
A-FLOOR-0-A-WALL-INT
10
3540
20
14535
30
0
11
3540
21
14385
31
0
0
LINE
8
A-FLOOR-0-A-WALL-INT
10
5720
20
14535
30
0
11
7000
21
14535
31
0
0
LINE
8
A-FLOOR-0-A-WALL-INT
10
5720
20
14385
30
0
11
7000
21
14385
31
0
0
LINE
8
A-FLOOR-0-A-WALL-INT
10
7000
20
14535
30
0
11
7000
21
14385
31
0
0
LINE
8
A-FLOOR-0-A-WALL-INT
10
4820
20
14535
30
0
11
4820
21
14385
31
0
0
LINE
8
A-FLOOR-0-A-WALL-INT
10
5720
20
14535
30
0
11
5720
21
14385
31
0
0
LINE
8
A-WALL-INT
10
7000
20
14535
30
0
11
7550
21
14535
31
0
0
LINE
8
A-WALL-INT
10
7000
20
14385
30
0
11
7550
21
14385
31
0
0
LINE
8
A-WALL-INT
10
8450
20
14535
30
0
11
9000
21
14535
31
0
0
LINE
8
A-WALL-INT
10
8450
20
14385
30
0
11
9000
21
14385
31
0
0
LINE
8
A-WALL-INT
10
9000
20
14535
30
0
11
9000
21
14385
31
0
0
LINE
8
A-WALL-INT
10
7550
20
14535
30
0
11
7550
21
14385
31
0
0
LINE
8
A-WALL-INT
10
8450
20
14535
30
0
11
8450
21
14385
31
0
0
LINE
8
A-FLOOR-0-A-WALL-INT
10
7000
20
14535
30
0
11
7550
21
14535
31
0
0
LINE
8
A-FLOOR-0-A-WALL-INT
10
7000
20
14385
30
0
11
7550
21
14385
31
0
0
LINE
8
A-FLOOR-0-A-WALL-INT
10
8450
20
14535
30
0
11
9000
21
14535
31
0
0
LINE
8
A-FLOOR-0-A-WALL-INT
10
8450
20
14385
30
0
11
9000
21
14385
31
0
0
LINE
8
A-FLOOR-0-A-WALL-INT
10
9000
20
14535
30
0
11
9000
21
14385
31
0
0
LINE
8
A-FLOOR-0-A-WALL-INT
10
7550
20
14535
30
0
11
7550
21
14385
31
0
0
LINE
8
A-FLOOR-0-A-WALL-INT
10
8450
20
14535
30
0
11
8450
21
14385
31
0
0
LINE
8
A-WALL-INT
10
6925
20
7500
30
0
11
6925
21
10980
31
0
0
LINE
8
A-WALL-INT
10
7075
20
7500
30
0
11
7075
21
10980
31
0
0
LINE
8
A-WALL-INT
10
6925
20
7500
30
0
11
7075
21
7500
31
0
0
LINE
8
A-WALL-INT
10
6925
20
10980
30
0
11
7075
21
10980
31
0
0
LINE
8
A-FLOOR-0-A-WALL-INT
10
6925
20
7500
30
0
11
6925
21
10980
31
0
0
LINE
8
A-FLOOR-0-A-WALL-INT
10
7075
20
7500
30
0
11
7075
21
10980
31
0
0
LINE
8
A-FLOOR-0-A-WALL-INT
10
6925
20
7500
30
0
11
7075
21
7500
31
0
0
LINE
8
A-FLOOR-0-A-WALL-INT
10
6925
20
10980
30
0
11
7075
21
10980
31
0
0
LINE
8
A-WALL-INT
10
6925
20
10980
30
0
11
6925
21
14460
31
0
0
LINE
8
A-WALL-INT
10
7075
20
10980
30
0
11
7075
21
14460
31
0
0
LINE
8
A-WALL-INT
10
6925
20
14460
30
0
11
7075
21
14460
31
0
0
LINE
8
A-FLOOR-0-A-WALL-INT
10
6925
20
10980
30
0
11
6925
21
14460
31
0
0
LINE
8
A-FLOOR-0-A-WALL-INT
10
7075
20
10980
30
0
11
7075
21
14460
31
0
0
LINE
8
A-FLOOR-0-A-WALL-INT
10
6925
20
14460
30
0
11
7075
21
14460
31
0
0
LINE
8
A-WALL-INT
10
3540
20
11055
30
0
11
4820
21
11055
31
0
0
LINE
8
A-WALL-INT
10
3540
20
10905
30
0
11
4820
21
10905
31
0
0
LINE
8
A-WALL-INT
10
3540
20
11055
30
0
11
3540
21
10905
31
0
0
LINE
8
A-WALL-INT
10
5720
20
11055
30
0
11
7000
21
11055
31
0
0
LINE
8
A-WALL-INT
10
5720
20
10905
30
0
11
7000
21
10905
31
0
0
LINE
8
A-WALL-INT
10
7000
20
11055
30
0
11
7000
21
10905
31
0
0
LINE
8
A-WALL-INT
10
4820
20
11055
30
0
11
4820
21
10905
31
0
0
LINE
8
A-WALL-INT
10
5720
20
11055
30
0
11
5720
21
10905
31
0
0
LINE
8
A-FLOOR-0-A-WALL-INT
10
3540
20
11055
30
0
11
4820
21
11055
31
0
0
LINE
8
A-FLOOR-0-A-WALL-INT
10
3540
20
10905
30
0
11
4820
21
10905
31
0
0
LINE
8
A-FLOOR-0-A-WALL-INT
10
3540
20
11055
30
0
11
3540
21
10905
31
0
0
LINE
8
A-FLOOR-0-A-WALL-INT
10
5720
20
11055
30
0
11
7000
21
11055
31
0
0
LINE
8
A-FLOOR-0-A-WALL-INT
10
5720
20
10905
30
0
11
7000
21
10905
31
0
0
LINE
8
A-FLOOR-0-A-WALL-INT
10
7000
20
11055
30
0
11
7000
21
10905
31
0
0
LINE
8
A-FLOOR-0-A-WALL-INT
10
4820
20
11055
30
0
11
4820
21
10905
31
0
0
LINE
8
A-FLOOR-0-A-WALL-INT
10
5720
20
11055
30
0
11
5720
21
10905
31
0
0
LINE
8
A-WALL-EXT
10
3365
20
7500
30
0
11
3365
21
8109
31
0
0
LINE
8
A-WALL-EXT
10
3715
20
7500
30
0
11
3715
21
8109
31
0
0
LINE
8
A-WALL-EXT
10
3365
20
7500
30
0
11
3715
21
7500
31
0
0
LINE
8
A-WALL-EXT
10
3365
20
10371
30
0
11
3365
21
10980
31
0
0
LINE
8
A-WALL-EXT
10
3715
20
10371
30
0
11
3715
21
10980
31
0
0
LINE
8
A-WALL-EXT
10
3365
20
10980
30
0
11
3715
21
10980
31
0
0
LINE
8
A-WALL-EXT
10
3365
20
8109
30
0
11
3715
21
8109
31
0
0
LINE
8
A-WALL-EXT
10
3365
20
10371
30
0
11
3715
21
10371
31
0
0
LINE
8
A-FLOOR-0-A-WALL-EXT
10
3365
20
7500
30
0
11
3365
21
8109
31
0
0
LINE
8
A-FLOOR-0-A-WALL-EXT
10
3715
20
7500
30
0
11
3715
21
8109
31
0
0
LINE
8
A-FLOOR-0-A-WALL-EXT
10
3365
20
7500
30
0
11
3715
21
7500
31
0
0
LINE
8
A-FLOOR-0-A-WALL-EXT
10
3365
20
10371
30
0
11
3365
21
10980
31
0
0
LINE
8
A-FLOOR-0-A-WALL-EXT
10
3715
20
10371
30
0
11
3715
21
10980
31
0
0
LINE
8
A-FLOOR-0-A-WALL-EXT
10
3365
20
10980
30
0
11
3715
21
10980
31
0
0
LINE
8
A-FLOOR-0-A-WALL-EXT
10
3365
20
8109
30
0
11
3715
21
8109
31
0
0
LINE
8
A-FLOOR-0-A-WALL-EXT
10
3365
20
10371
30
0
11
3715
21
10371
31
0
0
LINE
8
A-WALL-EXT
10
3365
20
10980
30
0
11
3365
21
11763
31
0
0
LINE
8
A-WALL-EXT
10
3715
20
10980
30
0
11
3715
21
11763
31
0
0
LINE
8
A-WALL-EXT
10
3365
20
13677
30
0
11
3365
21
14460
31
0
0
LINE
8
A-WALL-EXT
10
3715
20
13677
30
0
11
3715
21
14460
31
0
0
LINE
8
A-WALL-EXT
10
3365
20
14460
30
0
11
3715
21
14460
31
0
0
LINE
8
A-WALL-EXT
10
3365
20
11763
30
0
11
3715
21
11763
31
0
0
LINE
8
A-WALL-EXT
10
3365
20
13677
30
0
11
3715
21
13677
31
0
0
LINE
8
A-FLOOR-0-A-WALL-EXT
10
3365
20
10980
30
0
11
3365
21
11763
31
0
0
LINE
8
A-FLOOR-0-A-WALL-EXT
10
3715
20
10980
30
0
11
3715
21
11763
31
0
0
LINE
8
A-FLOOR-0-A-WALL-EXT
10
3365
20
13677
30
0
11
3365
21
14460
31
0
0
LINE
8
A-FLOOR-0-A-WALL-EXT
10
3715
20
13677
30
0
11
3715
21
14460
31
0
0
LINE
8
A-FLOOR-0-A-WALL-EXT
10
3365
20
14460
30
0
11
3715
21
14460
31
0
0
LINE
8
A-FLOOR-0-A-WALL-EXT
10
3365
20
11763
30
0
11
3715
21
11763
31
0
0
LINE
8
A-FLOOR-0-A-WALL-EXT
10
3365
20
13677
30
0
11
3715
21
13677
31
0
0
LINE
8
A-WALL-EXT
10
15825
20
5700
30
0
11
15825
21
10000
31
0
0
LINE
8
A-WALL-EXT
10
16175
20
5700
30
0
11
16175
21
10000
31
0
0
LINE
8
A-WALL-EXT
10
15825
20
5700
30
0
11
16175
21
5700
31
0
0
LINE
8
A-WALL-EXT
10
15825
20
10000
30
0
11
16175
21
10000
31
0
0
LINE
8
A-FLOOR-0-A-WALL-EXT
10
15825
20
5700
30
0
11
15825
21
10000
31
0
0
LINE
8
A-FLOOR-0-A-WALL-EXT
10
16175
20
5700
30
0
11
16175
21
10000
31
0
0
LINE
8
A-FLOOR-0-A-WALL-EXT
10
15825
20
5700
30
0
11
16175
21
5700
31
0
0
LINE
8
A-FLOOR-0-A-WALL-EXT
10
15825
20
10000
30
0
11
16175
21
10000
31
0
0
LINE
8
A-WALL-EXT
10
9000
20
10175
30
0
11
10500
21
10175
31
0
0
LINE
8
A-WALL-EXT
10
9000
20
9825
30
0
11
10500
21
9825
31
0
0
LINE
8
A-WALL-EXT
10
9000
20
10175
30
0
11
9000
21
9825
31
0
0
LINE
8
A-WALL-EXT
10
10500
20
10175
30
0
11
10500
21
9825
31
0
0
LINE
8
A-FLOOR-0-A-WALL-EXT
10
9000
20
10175
30
0
11
10500
21
10175
31
0
0
LINE
8
A-FLOOR-0-A-WALL-EXT
10
9000
20
9825
30
0
11
10500
21
9825
31
0
0
LINE
8
A-FLOOR-0-A-WALL-EXT
10
9000
20
10175
30
0
11
9000
21
9825
31
0
0
LINE
8
A-FLOOR-0-A-WALL-EXT
10
10500
20
10175
30
0
11
10500
21
9825
31
0
0
LINE
8
A-WALL-EXT
10
10500
20
10175
30
0
11
16000
21
10175
31
0
0
LINE
8
A-WALL-EXT
10
10500
20
9825
30
0
11
16000
21
9825
31
0
0
LINE
8
A-WALL-EXT
10
16000
20
10175
30
0
11
16000
21
9825
31
0
0
LINE
8
A-FLOOR-0-A-WALL-EXT
10
10500
20
10175
30
0
11
16000
21
10175
31
0
0
LINE
8
A-FLOOR-0-A-WALL-EXT
10
10500
20
9825
30
0
11
16000
21
9825
31
0
0
LINE
8
A-FLOOR-0-A-WALL-EXT
10
16000
20
10175
30
0
11
16000
21
9825
31
0
0
LINE
8
A-WALL-INT
10
10425
20
5700
30
0
11
10425
21
7400
31
0
0
LINE
8
A-WALL-INT
10
10575
20
5700
30
0
11
10575
21
7400
31
0
0
LINE
8
A-WALL-INT
10
10425
20
5700
30
0
11
10575
21
5700
31
0
0
LINE
8
A-WALL-INT
10
10425
20
8300
30
0
11
10425
21
10000
31
0
0
LINE
8
A-WALL-INT
10
10575
20
8300
30
0
11
10575
21
10000
31
0
0
LINE
8
A-WALL-INT
10
10425
20
10000
30
0
11
10575
21
10000
31
0
0
LINE
8
A-WALL-INT
10
10425
20
7400
30
0
11
10575
21
7400
31
0
0
LINE
8
A-WALL-INT
10
10425
20
8300
30
0
11
10575
21
8300
31
0
0
LINE
8
A-FLOOR-0-A-WALL-INT
10
10425
20
5700
30
0
11
10425
21
7400
31
0
0
LINE
8
A-FLOOR-0-A-WALL-INT
10
10575
20
5700
30
0
11
10575
21
7400
31
0
0
LINE
8
A-FLOOR-0-A-WALL-INT
10
10425
20
5700
30
0
11
10575
21
5700
31
0
0
LINE
8
A-FLOOR-0-A-WALL-INT
10
10425
20
8300
30
0
11
10425
21
10000
31
0
0
LINE
8
A-FLOOR-0-A-WALL-INT
10
10575
20
8300
30
0
11
10575
21
10000
31
0
0
LINE
8
A-FLOOR-0-A-WALL-INT
10
10425
20
10000
30
0
11
10575
21
10000
31
0
0
LINE
8
A-FLOOR-0-A-WALL-INT
10
10425
20
7400
30
0
11
10575
21
7400
31
0
0
LINE
8
A-FLOOR-0-A-WALL-INT
10
10425
20
8300
30
0
11
10575
21
8300
31
0
0
LINE
8
A-DOOR
10
4480
20
5700
30
0
11
5480
21
5700
31
0
0
ARC
8
A-DOOR
10
4480
20
5700
30
0
40
1000
50
0
51
90
0
LINE
8
A-DOOR
10
4480
20
6700
30
0
11
4440
21
6700
31
0
0
LINE
8
A-FLOOR-0-A-DOOR
10
4480
20
5700
30
0
11
5480
21
5700
31
0
0
ARC
8
A-FLOOR-0-A-DOOR
10
4480
20
5700
30
0
40
1000
50
0
51
90
0
LINE
8
A-FLOOR-0-A-DOOR
10
4480
20
6700
30
0
11
4440
21
6700
31
0
0
LINE
8
A-DIMS
10
5480
20
5650
30
0
11
5480
21
5300
31
0
0
LINE
8
A-FLOOR-0-A-DIMS
10
5480
20
5650
30
0
11
5480
21
5300
31
0
0
LINE
8
A-DIMS
10
4480
20
5650
30
0
11
4480
21
5300
31
0
0
LINE
8
A-FLOOR-0-A-DIMS
10
4480
20
5650
30
0
11
4480
21
5300
31
0
0
LINE
8
A-DIMS
10
5480
20
5380
30
0
11
4480
21
5380
31
0
0
LINE
8
A-FLOOR-0-A-DIMS
10
5480
20
5380
30
0
11
4480
21
5380
31
0
0
LINE
8
A-DIMS
10
5430
20
5330
30
0
11
5530
21
5430
31
0
0
LINE
8
A-FLOOR-0-A-DIMS
10
5430
20
5330
30
0
11
5530
21
5430
31
0
0
LINE
8
A-DIMS
10
4430
20
5330
30
0
11
4530
21
5430
31
0
0
LINE
8
A-FLOOR-0-A-DIMS
10
4430
20
5330
30
0
11
4530
21
5430
31
0
0
TEXT
8
A-DIMS
10
4980
20
5320
30
0
40
100
1
1.00 m
50
0
72
1
11
4980
21
5320
31
0
0
TEXT
8
A-FLOOR-0-A-DIMS
10
4980
20
5320
30
0
40
100
1
1.00 m
50
0
72
1
11
4980
21
5320
31
0
0
LINE
8
A-DOOR
10
9000
20
7050
30
0
11
9000
21
6150
31
0
0
ARC
8
A-DOOR
10
9000
20
7050
30
0
40
900
50
180
51
270
0
LINE
8
A-DOOR
10
8100
20
7050
30
0
11
8100
21
7010
31
0
0
LINE
8
A-FLOOR-0-A-DOOR
10
9000
20
7050
30
0
11
9000
21
6150
31
0
0
ARC
8
A-FLOOR-0-A-DOOR
10
9000
20
7050
30
0
40
900
50
180
51
270
0
LINE
8
A-FLOOR-0-A-DOOR
10
8100
20
7050
30
0
11
8100
21
7010
31
0
0
LINE
8
A-DOOR
10
6130
20
6150
30
0
11
6130
21
7050
31
0
0
ARC
8
A-DOOR
10
6130
20
6150
30
0
40
900
50
0
51
90
0
LINE
8
A-DOOR
10
7030
20
6150
30
0
11
7030
21
6190
31
0
0
LINE
8
A-FLOOR-0-A-DOOR
10
6130
20
6150
30
0
11
6130
21
7050
31
0
0
ARC
8
A-FLOOR-0-A-DOOR
10
6130
20
6150
30
0
40
900
50
0
51
90
0
LINE
8
A-FLOOR-0-A-DOOR
10
7030
20
6150
30
0
11
7030
21
6190
31
0
0
LINE
8
A-DOOR
10
3860
20
15960
30
0
11
4760
21
15960
31
0
0
ARC
8
A-DOOR
10
3860
20
15960
30
0
40
900
50
0
51
90
0
LINE
8
A-DOOR
10
3860
20
16860
30
0
11
3820
21
16860
31
0
0
LINE
8
A-FLOOR-0-A-DOOR
10
3860
20
15960
30
0
11
4760
21
15960
31
0
0
ARC
8
A-FLOOR-0-A-DOOR
10
3860
20
15960
30
0
40
900
50
0
51
90
0
LINE
8
A-FLOOR-0-A-DOOR
10
3860
20
16860
30
0
11
3820
21
16860
31
0
0
LINE
8
A-DOOR
10
4820
20
14460
30
0
11
5720
21
14460
31
0
0
ARC
8
A-DOOR
10
4820
20
14460
30
0
40
900
50
270
51
0
0
LINE
8
A-DOOR
10
4820
20
13560
30
0
11
4860
21
13560
31
0
0
LINE
8
A-FLOOR-0-A-DOOR
10
4820
20
14460
30
0
11
5720
21
14460
31
0
0
ARC
8
A-FLOOR-0-A-DOOR
10
4820
20
14460
30
0
40
900
50
270
51
0
0
LINE
8
A-FLOOR-0-A-DOOR
10
4820
20
13560
30
0
11
4860
21
13560
31
0
0
LINE
8
A-DOOR
10
3830
20
7000
30
0
11
3830
21
6200
31
0
0
ARC
8
A-DOOR
10
3830
20
7000
30
0
40
800
50
180
51
270
0
LINE
8
A-DOOR
10
3030
20
7000
30
0
11
3030
21
6960
31
0
0
LINE
8
A-FLOOR-0-A-DOOR
10
3830
20
7000
30
0
11
3830
21
6200
31
0
0
ARC
8
A-FLOOR-0-A-DOOR
10
3830
20
7000
30
0
40
800
50
180
51
270
0
LINE
8
A-FLOOR-0-A-DOOR
10
3030
20
7000
30
0
11
3030
21
6960
31
0
0
LINE
8
A-DOOR
10
8450
20
14460
30
0
11
7550
21
14460
31
0
0
ARC
8
A-DOOR
10
8450
20
14460
30
0
40
900
50
180
51
270
0
LINE
8
A-DOOR
10
8450
20
13560
30
0
11
8490
21
13560
31
0
0
LINE
8
A-FLOOR-0-A-DOOR
10
8450
20
14460
30
0
11
7550
21
14460
31
0
0
ARC
8
A-FLOOR-0-A-DOOR
10
8450
20
14460
30
0
40
900
50
180
51
270
0
LINE
8
A-FLOOR-0-A-DOOR
10
8450
20
13560
30
0
11
8490
21
13560
31
0
0
LINE
8
A-DOOR
10
4530
20
7500
30
0
11
5430
21
7500
31
0
0
ARC
8
A-DOOR
10
4530
20
7500
30
0
40
900
50
0
51
90
0
LINE
8
A-DOOR
10
4530
20
8400
30
0
11
4490
21
8400
31
0
0
LINE
8
A-FLOOR-0-A-DOOR
10
4530
20
7500
30
0
11
5430
21
7500
31
0
0
ARC
8
A-FLOOR-0-A-DOOR
10
4530
20
7500
30
0
40
900
50
0
51
90
0
LINE
8
A-FLOOR-0-A-DOOR
10
4530
20
8400
30
0
11
4490
21
8400
31
0
0
LINE
8
A-DOOR
10
8210
20
15960
30
0
11
7410
21
15960
31
0
0
ARC
8
A-DOOR
10
8210
20
15960
30
0
40
800
50
90
51
180
0
LINE
8
A-DOOR
10
8210
20
16760
30
0
11
8170
21
16760
31
0
0
LINE
8
A-FLOOR-0-A-DOOR
10
8210
20
15960
30
0
11
7410
21
15960
31
0
0
ARC
8
A-FLOOR-0-A-DOOR
10
8210
20
15960
30
0
40
800
50
90
51
180
0
LINE
8
A-FLOOR-0-A-DOOR
10
8210
20
16760
30
0
11
8170
21
16760
31
0
0
LINE
8
A-DOOR
10
10500
20
7400
30
0
11
10500
21
8300
31
0
0
ARC
8
A-DOOR
10
10500
20
7400
30
0
40
900
50
0
51
90
0
LINE
8
A-DOOR
10
11400
20
7400
30
0
11
11400
21
7440
31
0
0
LINE
8
A-FLOOR-0-A-DOOR
10
10500
20
7400
30
0
11
10500
21
8300
31
0
0
ARC
8
A-FLOOR-0-A-DOOR
10
10500
20
7400
30
0
40
900
50
0
51
90
0
LINE
8
A-FLOOR-0-A-DOOR
10
11400
20
7400
30
0
11
11400
21
7440
31
0
0
LINE
8
A-DOOR
10
4820
20
10980
30
0
11
5720
21
10980
31
0
0
ARC
8
A-DOOR
10
4820
20
10980
30
0
40
900
50
0
51
90
0
LINE
8
A-DOOR
10
4820
20
11880
30
0
11
4780
21
11880
31
0
0
LINE
8
A-FLOOR-0-A-DOOR
10
4820
20
10980
30
0
11
5720
21
10980
31
0
0
ARC
8
A-FLOOR-0-A-DOOR
10
4820
20
10980
30
0
40
900
50
0
51
90
0
LINE
8
A-FLOOR-0-A-DOOR
10
4820
20
11880
30
0
11
4780
21
11880
31
0
0
LINE
8
A-WINDOW
10
2060
20
16717.5
30
0
11
2060
21
18232.5
31
0
0
LINE
8
A-WINDOW
10
2020
20
16717.5
30
0
11
2020
21
18232.5
31
0
0
LINE
8
A-WINDOW
10
1980
20
16717.5
30
0
11
1980
21
18232.5
31
0
0
LINE
8
A-WINDOW
10
1940
20
16717.5
30
0
11
1940
21
18232.5
31
0
0
LINE
8
A-FLOOR-0-A-WINDOW
10
2060
20
16717.5
30
0
11
2060
21
18232.5
31
0
0
LINE
8
A-FLOOR-0-A-WINDOW
10
2020
20
16717.5
30
0
11
2020
21
18232.5
31
0
0
LINE
8
A-FLOOR-0-A-WINDOW
10
1980
20
16717.5
30
0
11
1980
21
18232.5
31
0
0
LINE
8
A-FLOOR-0-A-WINDOW
10
1940
20
16717.5
30
0
11
1940
21
18232.5
31
0
0
LINE
8
A-DIMS
10
1950
20
18232.5
30
0
11
1600
21
18232.5
31
0
0
LINE
8
A-FLOOR-0-A-DIMS
10
1950
20
18232.5
30
0
11
1600
21
18232.5
31
0
0
LINE
8
A-DIMS
10
1950
20
16717.5
30
0
11
1600
21
16717.5
31
0
0
LINE
8
A-FLOOR-0-A-DIMS
10
1950
20
16717.5
30
0
11
1600
21
16717.5
31
0
0
LINE
8
A-DIMS
10
1680
20
18232.5
30
0
11
1680
21
16717.5
31
0
0
LINE
8
A-FLOOR-0-A-DIMS
10
1680
20
18232.5
30
0
11
1680
21
16717.5
31
0
0
LINE
8
A-DIMS
10
1730
20
18182.5
30
0
11
1630
21
18282.5
31
0
0
LINE
8
A-FLOOR-0-A-DIMS
10
1730
20
18182.5
30
0
11
1630
21
18282.5
31
0
0
LINE
8
A-DIMS
10
1730
20
16667.5
30
0
11
1630
21
16767.5
31
0
0
LINE
8
A-FLOOR-0-A-DIMS
10
1730
20
16667.5
30
0
11
1630
21
16767.5
31
0
0
LINE
8
A-WINDOW
10
7393.5
20
18930
30
0
11
8226.5
21
18930
31
0
0
LINE
8
A-WINDOW
10
7393.5
20
18970
30
0
11
8226.5
21
18970
31
0
0
LINE
8
A-WINDOW
10
7393.5
20
19010
30
0
11
8226.5
21
19010
31
0
0
LINE
8
A-WINDOW
10
7393.5
20
19050
30
0
11
8226.5
21
19050
31
0
0
LINE
8
A-FLOOR-0-A-WINDOW
10
7393.5
20
18930
30
0
11
8226.5
21
18930
31
0
0
LINE
8
A-FLOOR-0-A-WINDOW
10
7393.5
20
18970
30
0
11
8226.5
21
18970
31
0
0
LINE
8
A-FLOOR-0-A-WINDOW
10
7393.5
20
19010
30
0
11
8226.5
21
19010
31
0
0
LINE
8
A-FLOOR-0-A-WINDOW
10
7393.5
20
19050
30
0
11
8226.5
21
19050
31
0
0
LINE
8
A-DIMS
10
8226.5
20
19040
30
0
11
8226.5
21
19390
31
0
0
LINE
8
A-FLOOR-0-A-DIMS
10
8226.5
20
19040
30
0
11
8226.5
21
19390
31
0
0
LINE
8
A-DIMS
10
7393.5
20
19040
30
0
11
7393.5
21
19390
31
0
0
LINE
8
A-FLOOR-0-A-DIMS
10
7393.5
20
19040
30
0
11
7393.5
21
19390
31
0
0
LINE
8
A-DIMS
10
8226.5
20
19310
30
0
11
7393.5
21
19310
31
0
0
LINE
8
A-FLOOR-0-A-DIMS
10
8226.5
20
19310
30
0
11
7393.5
21
19310
31
0
0
LINE
8
A-DIMS
10
8176.5
20
19260
30
0
11
8276.5
21
19360
31
0
0
LINE
8
A-FLOOR-0-A-DIMS
10
8176.5
20
19260
30
0
11
8276.5
21
19360
31
0
0
LINE
8
A-DIMS
10
7343.5
20
19260
30
0
11
7443.5
21
19360
31
0
0
LINE
8
A-FLOOR-0-A-DIMS
10
7343.5
20
19260
30
0
11
7443.5
21
19360
31
0
0
TEXT
8
A-DIMS
10
7810
20
19370
30
0
40
100
1
0.83 m
50
0
72
1
11
7810
21
19370
31
0
0
TEXT
8
A-FLOOR-0-A-DIMS
10
7810
20
19370
30
0
40
100
1
0.83 m
50
0
72
1
11
7810
21
19370
31
0
0
LINE
8
A-WINDOW
10
9060
20
11330
30
0
11
9060
21
13130
31
0
0
LINE
8
A-WINDOW
10
9020
20
11330
30
0
11
9020
21
13130
31
0
0
LINE
8
A-WINDOW
10
8980
20
11330
30
0
11
8980
21
13130
31
0
0
LINE
8
A-WINDOW
10
8940
20
11330
30
0
11
8940
21
13130
31
0
0
LINE
8
A-FLOOR-0-A-WINDOW
10
9060
20
11330
30
0
11
9060
21
13130
31
0
0
LINE
8
A-FLOOR-0-A-WINDOW
10
9020
20
11330
30
0
11
9020
21
13130
31
0
0
LINE
8
A-FLOOR-0-A-WINDOW
10
8980
20
11330
30
0
11
8980
21
13130
31
0
0
LINE
8
A-FLOOR-0-A-WINDOW
10
8940
20
11330
30
0
11
8940
21
13130
31
0
0
LINE
8
A-DIMS
10
9050
20
13130
30
0
11
9400
21
13130
31
0
0
LINE
8
A-FLOOR-0-A-DIMS
10
9050
20
13130
30
0
11
9400
21
13130
31
0
0
LINE
8
A-DIMS
10
9050
20
11330
30
0
11
9400
21
11330
31
0
0
LINE
8
A-FLOOR-0-A-DIMS
10
9050
20
11330
30
0
11
9400
21
11330
31
0
0
LINE
8
A-DIMS
10
9320
20
13130
30
0
11
9320
21
11330
31
0
0
LINE
8
A-FLOOR-0-A-DIMS
10
9320
20
13130
30
0
11
9320
21
11330
31
0
0
LINE
8
A-DIMS
10
9370
20
13080
30
0
11
9270
21
13180
31
0
0
LINE
8
A-FLOOR-0-A-DIMS
10
9370
20
13080
30
0
11
9270
21
13180
31
0
0
LINE
8
A-DIMS
10
9370
20
11280
30
0
11
9270
21
11380
31
0
0
LINE
8
A-FLOOR-0-A-DIMS
10
9370
20
11280
30
0
11
9270
21
11380
31
0
0
TEXT
8
A-DIMS
10
9380
20
12230
30
0
40
100
1
1.80 m
50
0
72
1
11
9380
21
12230
31
0
0
TEXT
8
A-FLOOR-0-A-DIMS
10
9380
20
12230
30
0
40
100
1
1.80 m
50
0
72
1
11
9380
21
12230
31
0
0
LINE
8
A-WINDOW
10
3600
20
8109
30
0
11
3600
21
10371
31
0
0
LINE
8
A-WINDOW
10
3560
20
8109
30
0
11
3560
21
10371
31
0
0
LINE
8
A-WINDOW
10
3520
20
8109
30
0
11
3520
21
10371
31
0
0
LINE
8
A-WINDOW
10
3480
20
8109
30
0
11
3480
21
10371
31
0
0
LINE
8
A-FLOOR-0-A-WINDOW
10
3600
20
8109
30
0
11
3600
21
10371
31
0
0
LINE
8
A-FLOOR-0-A-WINDOW
10
3560
20
8109
30
0
11
3560
21
10371
31
0
0
LINE
8
A-FLOOR-0-A-WINDOW
10
3520
20
8109
30
0
11
3520
21
10371
31
0
0
LINE
8
A-FLOOR-0-A-WINDOW
10
3480
20
8109
30
0
11
3480
21
10371
31
0
0
LINE
8
A-DIMS
10
3490
20
10371
30
0
11
3140
21
10371
31
0
0
LINE
8
A-FLOOR-0-A-DIMS
10
3490
20
10371
30
0
11
3140
21
10371
31
0
0
LINE
8
A-DIMS
10
3490
20
8109
30
0
11
3140
21
8109
31
0
0
LINE
8
A-FLOOR-0-A-DIMS
10
3490
20
8109
30
0
11
3140
21
8109
31
0
0
LINE
8
A-DIMS
10
3220
20
10371
30
0
11
3220
21
8109
31
0
0
LINE
8
A-FLOOR-0-A-DIMS
10
3220
20
10371
30
0
11
3220
21
8109
31
0
0
LINE
8
A-DIMS
10
3270
20
10321
30
0
11
3170
21
10421
31
0
0
LINE
8
A-FLOOR-0-A-DIMS
10
3270
20
10321
30
0
11
3170
21
10421
31
0
0
LINE
8
A-DIMS
10
3270
20
8059
30
0
11
3170
21
8159
31
0
0
LINE
8
A-FLOOR-0-A-DIMS
10
3270
20
8059
30
0
11
3170
21
8159
31
0
0
LINE
8
A-WINDOW
10
3600
20
11763
30
0
11
3600
21
13677
31
0
0
LINE
8
A-WINDOW
10
3560
20
11763
30
0
11
3560
21
13677
31
0
0
LINE
8
A-WINDOW
10
3520
20
11763
30
0
11
3520
21
13677
31
0
0
LINE
8
A-WINDOW
10
3480
20
11763
30
0
11
3480
21
13677
31
0
0
LINE
8
A-FLOOR-0-A-WINDOW
10
3600
20
11763
30
0
11
3600
21
13677
31
0
0
LINE
8
A-FLOOR-0-A-WINDOW
10
3560
20
11763
30
0
11
3560
21
13677
31
0
0
LINE
8
A-FLOOR-0-A-WINDOW
10
3520
20
11763
30
0
11
3520
21
13677
31
0
0
LINE
8
A-FLOOR-0-A-WINDOW
10
3480
20
11763
30
0
11
3480
21
13677
31
0
0
LINE
8
A-DIMS
10
3490
20
13677
30
0
11
3140
21
13677
31
0
0
LINE
8
A-FLOOR-0-A-DIMS
10
3490
20
13677
30
0
11
3140
21
13677
31
0
0
LINE
8
A-DIMS
10
3490
20
11763
30
0
11
3140
21
11763
31
0
0
LINE
8
A-FLOOR-0-A-DIMS
10
3490
20
11763
30
0
11
3140
21
11763
31
0
0
LINE
8
A-DIMS
10
3220
20
13677
30
0
11
3220
21
11763
31
0
0
LINE
8
A-FLOOR-0-A-DIMS
10
3220
20
13677
30
0
11
3220
21
11763
31
0
0
LINE
8
A-DIMS
10
3270
20
13627
30
0
11
3170
21
13727
31
0
0
LINE
8
A-FLOOR-0-A-DIMS
10
3270
20
13627
30
0
11
3170
21
13727
31
0
0
LINE
8
A-DIMS
10
3270
20
11713
30
0
11
3170
21
11813
31
0
0
LINE
8
A-FLOOR-0-A-DIMS
10
3270
20
11713
30
0
11
3170
21
11813
31
0
0
LINE
8
A-WINDOW
10
12050
20
5640
30
0
11
14450
21
5640
31
0
0
LINE
8
A-WINDOW
10
12050
20
5680
30
0
11
14450
21
5680
31
0
0
LINE
8
A-WINDOW
10
12050
20
5720
30
0
11
14450
21
5720
31
0
0
LINE
8
A-WINDOW
10
12050
20
5760
30
0
11
14450
21
5760
31
0
0
LINE
8
A-FLOOR-0-A-WINDOW
10
12050
20
5640
30
0
11
14450
21
5640
31
0
0
LINE
8
A-FLOOR-0-A-WINDOW
10
12050
20
5680
30
0
11
14450
21
5680
31
0
0
LINE
8
A-FLOOR-0-A-WINDOW
10
12050
20
5720
30
0
11
14450
21
5720
31
0
0
LINE
8
A-FLOOR-0-A-WINDOW
10
12050
20
5760
30
0
11
14450
21
5760
31
0
0
LINE
8
A-DIMS
10
14450
20
5650
30
0
11
14450
21
5300
31
0
0
LINE
8
A-FLOOR-0-A-DIMS
10
14450
20
5650
30
0
11
14450
21
5300
31
0
0
LINE
8
A-DIMS
10
12050
20
5650
30
0
11
12050
21
5300
31
0
0
LINE
8
A-FLOOR-0-A-DIMS
10
12050
20
5650
30
0
11
12050
21
5300
31
0
0
LINE
8
A-DIMS
10
14450
20
5380
30
0
11
12050
21
5380
31
0
0
LINE
8
A-FLOOR-0-A-DIMS
10
14450
20
5380
30
0
11
12050
21
5380
31
0
0
LINE
8
A-DIMS
10
14400
20
5330
30
0
11
14500
21
5430
31
0
0
LINE
8
A-FLOOR-0-A-DIMS
10
14400
20
5330
30
0
11
14500
21
5430
31
0
0
LINE
8
A-DIMS
10
12000
20
5330
30
0
11
12100
21
5430
31
0
0
LINE
8
A-FLOOR-0-A-DIMS
10
12000
20
5330
30
0
11
12100
21
5430
31
0
0
LINE
8
A-PARKING
10
2000
20
3500
30
0
11
8000
21
3500
31
0
0
LINE
8
A-FLOOR-0-A-PARKING
10
2000
20
3500
30
0
11
8000
21
3500
31
0
0
LINE
8
A-PARKING
10
8000
20
3500
30
0
11
8000
21
5700
31
0
0
LINE
8
A-FLOOR-0-A-PARKING
10
8000
20
3500
30
0
11
8000
21
5700
31
0
0
LINE
8
A-PARKING
10
8000
20
5700
30
0
11
2000
21
5700
31
0
0
LINE
8
A-FLOOR-0-A-PARKING
10
8000
20
5700
30
0
11
2000
21
5700
31
0
0
LINE
8
A-PARKING
10
2000
20
5700
30
0
11
2000
21
3500
31
0
0
LINE
8
A-FLOOR-0-A-PARKING
10
2000
20
5700
30
0
11
2000
21
3500
31
0
0
TEXT
8
A-PARKING
10
5000
20
4400
30
0
40
250
1
P1 F0
50
0
72
1
11
5000
21
4400
31
0
0
TEXT
8
A-FLOOR-0-A-PARKING
10
5000
20
4400
30
0
40
250
1
P1 F0
50
0
72
1
11
5000
21
4400
31
0
0
POLYLINE
8
A-PARKING
10
0
20
0
30
0
70
1
66
1
40
0
41
0
71
0
72
0
0
VERTEX
8
A-PARKING
10
2000
20
0
30
0
42
0
0
VERTEX
8
A-PARKING
10
8000
20
0
30
0
42
0
0
VERTEX
8
A-PARKING
10
8000
20
3500
30
0
42
0
0
VERTEX
8
A-PARKING
10
2000
20
3500
30
0
42
0
0
SEQEND
8
A-PARKING
0
POLYLINE
8
A-FLOOR-0-A-PARKING
10
0
20
0
30
0
70
1
66
1
40
0
41
0
71
0
72
0
0
VERTEX
8
A-FLOOR-0-A-PARKING
10
2000
20
0
30
0
42
0
0
VERTEX
8
A-FLOOR-0-A-PARKING
10
8000
20
0
30
0
42
0
0
VERTEX
8
A-FLOOR-0-A-PARKING
10
8000
20
3500
30
0
42
0
0
VERTEX
8
A-FLOOR-0-A-PARKING
10
2000
20
3500
30
0
42
0
0
SEQEND
8
A-FLOOR-0-A-PARKING
0
TEXT
8
A-PARKING
10
5000
20
1750
30
0
40
250
1
AISLE
50
0
72
1
11
5000
21
1750
31
0
0
TEXT
8
A-FLOOR-0-A-PARKING
10
5000
20
1750
30
0
40
250
1
AISLE
50
0
72
1
11
5000
21
1750
31
0
0
LINE
8
A-SANITARY
10
2050
20
6950
30
0
11
2650
21
6950
31
0
0
LINE
8
A-FLOOR-0-A-SANITARY
10
2050
20
6950
30
0
11
2650
21
6950
31
0
0
LINE
8
A-SANITARY
10
2650
20
6950
30
0
11
2650
21
7450
31
0
0
LINE
8
A-FLOOR-0-A-SANITARY
10
2650
20
6950
30
0
11
2650
21
7450
31
0
0
LINE
8
A-SANITARY
10
2650
20
7450
30
0
11
2050
21
7450
31
0
0
LINE
8
A-FLOOR-0-A-SANITARY
10
2650
20
7450
30
0
11
2050
21
7450
31
0
0
LINE
8
A-SANITARY
10
2050
20
7450
30
0
11
2050
21
6950
31
0
0
LINE
8
A-FLOOR-0-A-SANITARY
10
2050
20
7450
30
0
11
2050
21
6950
31
0
0
LINE
8
A-FURN
10
2050
20
16010
30
0
11
3650
21
16010
31
0
0
LINE
8
A-FLOOR-0-A-FURN
10
2050
20
16010
30
0
11
3650
21
16010
31
0
0
LINE
8
A-FURN
10
3650
20
16010
30
0
11
3650
21
18010
31
0
0
LINE
8
A-FLOOR-0-A-FURN
10
3650
20
16010
30
0
11
3650
21
18010
31
0
0
LINE
8
A-FURN
10
3650
20
18010
30
0
11
2050
21
18010
31
0
0
LINE
8
A-FLOOR-0-A-FURN
10
3650
20
18010
30
0
11
2050
21
18010
31
0
0
LINE
8
A-FURN
10
2050
20
18010
30
0
11
2050
21
16010
31
0
0
LINE
8
A-FLOOR-0-A-FURN
10
2050
20
18010
30
0
11
2050
21
16010
31
0
0
LINE
8
A-FURN
10
3410
20
18340
30
0
11
5210
21
18340
31
0
0
LINE
8
A-FLOOR-0-A-FURN
10
3410
20
18340
30
0
11
5210
21
18340
31
0
0
LINE
8
A-FURN
10
5210
20
18340
30
0
11
5210
21
18940
31
0
0
LINE
8
A-FLOOR-0-A-FURN
10
5210
20
18340
30
0
11
5210
21
18940
31
0
0
LINE
8
A-FURN
10
5210
20
18940
30
0
11
3410
21
18940
31
0
0
LINE
8
A-FLOOR-0-A-FURN
10
5210
20
18940
30
0
11
3410
21
18940
31
0
0
LINE
8
A-FURN
10
3410
20
18940
30
0
11
3410
21
18340
31
0
0
LINE
8
A-FLOOR-0-A-FURN
10
3410
20
18940
30
0
11
3410
21
18340
31
0
0
LINE
8
A-SANITARY
10
8450
20
18240
30
0
11
8950
21
18240
31
0
0
LINE
8
A-FLOOR-0-A-SANITARY
10
8450
20
18240
30
0
11
8950
21
18240
31
0
0
LINE
8
A-SANITARY
10
8950
20
18240
30
0
11
8950
21
18940
31
0
0
LINE
8
A-FLOOR-0-A-SANITARY
10
8950
20
18240
30
0
11
8950
21
18940
31
0
0
LINE
8
A-SANITARY
10
8950
20
18940
30
0
11
8450
21
18940
31
0
0
LINE
8
A-FLOOR-0-A-SANITARY
10
8950
20
18940
30
0
11
8450
21
18940
31
0
0
LINE
8
A-SANITARY
10
8450
20
18940
30
0
11
8450
21
18240
31
0
0
LINE
8
A-FLOOR-0-A-SANITARY
10
8450
20
18940
30
0
11
8450
21
18240
31
0
0
LINE
8
A-SANITARY
10
6670
20
18440
30
0
11
7270
21
18440
31
0
0
LINE
8
A-FLOOR-0-A-SANITARY
10
6670
20
18440
30
0
11
7270
21
18440
31
0
0
LINE
8
A-SANITARY
10
7270
20
18440
30
0
11
7270
21
18940
31
0
0
LINE
8
A-FLOOR-0-A-SANITARY
10
7270
20
18440
30
0
11
7270
21
18940
31
0
0
LINE
8
A-SANITARY
10
7270
20
18940
30
0
11
6670
21
18940
31
0
0
LINE
8
A-FLOOR-0-A-SANITARY
10
7270
20
18940
30
0
11
6670
21
18940
31
0
0
LINE
8
A-SANITARY
10
6670
20
18940
30
0
11
6670
21
18440
31
0
0
LINE
8
A-FLOOR-0-A-SANITARY
10
6670
20
18940
30
0
11
6670
21
18440
31
0
0
LINE
8
A-FURN
10
4170
20
10030
30
0
11
6370
21
10030
31
0
0
LINE
8
A-FLOOR-0-A-FURN
10
4170
20
10030
30
0
11
6370
21
10030
31
0
0
LINE
8
A-FURN
10
6370
20
10030
30
0
11
6370
21
10930
31
0
0
LINE
8
A-FLOOR-0-A-FURN
10
6370
20
10030
30
0
11
6370
21
10930
31
0
0
LINE
8
A-FURN
10
6370
20
10930
30
0
11
4170
21
10930
31
0
0
LINE
8
A-FLOOR-0-A-FURN
10
6370
20
10930
30
0
11
4170
21
10930
31
0
0
LINE
8
A-FURN
10
4170
20
10930
30
0
11
4170
21
10030
31
0
0
LINE
8
A-FLOOR-0-A-FURN
10
4170
20
10930
30
0
11
4170
21
10030
31
0
0
LINE
8
A-FURN
10
4670
20
12320
30
0
11
5870
21
12320
31
0
0
LINE
8
A-FLOOR-0-A-FURN
10
4670
20
12320
30
0
11
5870
21
12320
31
0
0
LINE
8
A-FURN
10
5870
20
12320
30
0
11
5870
21
13120
31
0
0
LINE
8
A-FLOOR-0-A-FURN
10
5870
20
12320
30
0
11
5870
21
13120
31
0
0
LINE
8
A-FURN
10
5870
20
13120
30
0
11
4670
21
13120
31
0
0
LINE
8
A-FLOOR-0-A-FURN
10
5870
20
13120
30
0
11
4670
21
13120
31
0
0
LINE
8
A-FURN
10
4670
20
13120
30
0
11
4670
21
12320
31
0
0
LINE
8
A-FLOOR-0-A-FURN
10
4670
20
13120
30
0
11
4670
21
12320
31
0
0
LINE
8
A-FURN
10
12350
20
9350
30
0
11
14150
21
9350
31
0
0
LINE
8
A-FLOOR-0-A-FURN
10
12350
20
9350
30
0
11
14150
21
9350
31
0
0
LINE
8
A-FURN
10
14150
20
9350
30
0
11
14150
21
9950
31
0
0
LINE
8
A-FLOOR-0-A-FURN
10
14150
20
9350
30
0
11
14150
21
9950
31
0
0
LINE
8
A-FURN
10
14150
20
9950
30
0
11
12350
21
9950
31
0
0
LINE
8
A-FLOOR-0-A-FURN
10
14150
20
9950
30
0
11
12350
21
9950
31
0
0
LINE
8
A-FURN
10
12350
20
9950
30
0
11
12350
21
9350
31
0
0
LINE
8
A-FLOOR-0-A-FURN
10
12350
20
9950
30
0
11
12350
21
9350
31
0
0
POLYLINE
8
A-ROOM
10
0
20
0
30
0
70
1
66
1
40
0
41
0
71
0
72
0
0
VERTEX
8
A-ROOM
10
2000
20
5700
30
0
42
0
0
VERTEX
8
A-ROOM
10
3830
20
5700
30
0
42
0
0
VERTEX
8
A-ROOM
10
3830
20
7500
30
0
42
0
0
VERTEX
8
A-ROOM
10
2000
20
7500
30
0
42
0
0
SEQEND
8
A-ROOM
0
POLYLINE
8
A-FLOOR-0-A-ROOM
10
0
20
0
30
0
70
1
66
1
40
0
41
0
71
0
72
0
0
VERTEX
8
A-FLOOR-0-A-ROOM
10
2000
20
5700
30
0
42
0
0
VERTEX
8
A-FLOOR-0-A-ROOM
10
3830
20
5700
30
0
42
0
0
VERTEX
8
A-FLOOR-0-A-ROOM
10
3830
20
7500
30
0
42
0
0
VERTEX
8
A-FLOOR-0-A-ROOM
10
2000
20
7500
30
0
42
0
0
SEQEND
8
A-FLOOR-0-A-ROOM
0
POLYLINE
8
A-ROOM
10
0
20
0
30
0
70
1
66
1
40
0
41
0
71
0
72
0
0
VERTEX
8
A-ROOM
10
3830
20
5700
30
0
42
0
0
VERTEX
8
A-ROOM
10
6130
20
5700
30
0
42
0
0
VERTEX
8
A-ROOM
10
6130
20
7500
30
0
42
0
0
VERTEX
8
A-ROOM
10
3830
20
7500
30
0
42
0
0
SEQEND
8
A-ROOM
0
POLYLINE
8
A-FLOOR-0-A-ROOM
10
0
20
0
30
0
70
1
66
1
40
0
41
0
71
0
72
0
0
VERTEX
8
A-FLOOR-0-A-ROOM
10
3830
20
5700
30
0
42
0
0
VERTEX
8
A-FLOOR-0-A-ROOM
10
6130
20
5700
30
0
42
0
0
VERTEX
8
A-FLOOR-0-A-ROOM
10
6130
20
7500
30
0
42
0
0
VERTEX
8
A-FLOOR-0-A-ROOM
10
3830
20
7500
30
0
42
0
0
SEQEND
8
A-FLOOR-0-A-ROOM
0
POLYLINE
8
A-ROOM
10
0
20
0
30
0
70
1
66
1
40
0
41
0
71
0
72
0
0
VERTEX
8
A-ROOM
10
6130
20
5700
30
0
42
0
0
VERTEX
8
A-ROOM
10
9000
20
5700
30
0
42
0
0
VERTEX
8
A-ROOM
10
9000
20
7500
30
0
42
0
0
VERTEX
8
A-ROOM
10
6130
20
7500
30
0
42
0
0
SEQEND
8
A-ROOM
0
POLYLINE
8
A-FLOOR-0-A-ROOM
10
0
20
0
30
0
70
1
66
1
40
0
41
0
71
0
72
0
0
VERTEX
8
A-FLOOR-0-A-ROOM
10
6130
20
5700
30
0
42
0
0
VERTEX
8
A-FLOOR-0-A-ROOM
10
9000
20
5700
30
0
42
0
0
VERTEX
8
A-FLOOR-0-A-ROOM
10
9000
20
7500
30
0
42
0
0
VERTEX
8
A-FLOOR-0-A-ROOM
10
6130
20
7500
30
0
42
0
0
SEQEND
8
A-FLOOR-0-A-ROOM
0
POLYLINE
8
A-ROOM
10
0
20
0
30
0
70
1
66
1
40
0
41
0
71
0
72
0
0
VERTEX
8
A-ROOM
10
2000
20
15960
30
0
42
0
0
VERTEX
8
A-ROOM
10
6620
20
15960
30
0
42
0
0
VERTEX
8
A-ROOM
10
6620
20
18990
30
0
42
0
0
VERTEX
8
A-ROOM
10
2000
20
18990
30
0
42
0
0
SEQEND
8
A-ROOM
0
POLYLINE
8
A-FLOOR-0-A-ROOM
10
0
20
0
30
0
70
1
66
1
40
0
41
0
71
0
72
0
0
VERTEX
8
A-FLOOR-0-A-ROOM
10
2000
20
15960
30
0
42
0
0
VERTEX
8
A-FLOOR-0-A-ROOM
10
6620
20
15960
30
0
42
0
0
VERTEX
8
A-FLOOR-0-A-ROOM
10
6620
20
18990
30
0
42
0
0
VERTEX
8
A-FLOOR-0-A-ROOM
10
2000
20
18990
30
0
42
0
0
SEQEND
8
A-FLOOR-0-A-ROOM
0
POLYLINE
8
A-ROOM
10
0
20
0
30
0
70
1
66
1
40
0
41
0
71
0
72
0
0
VERTEX
8
A-ROOM
10
6620
20
15960
30
0
42
0
0
VERTEX
8
A-ROOM
10
9000
20
15960
30
0
42
0
0
VERTEX
8
A-ROOM
10
9000
20
18990
30
0
42
0
0
VERTEX
8
A-ROOM
10
6620
20
18990
30
0
42
0
0
SEQEND
8
A-ROOM
0
POLYLINE
8
A-FLOOR-0-A-ROOM
10
0
20
0
30
0
70
1
66
1
40
0
41
0
71
0
72
0
0
VERTEX
8
A-FLOOR-0-A-ROOM
10
6620
20
15960
30
0
42
0
0
VERTEX
8
A-FLOOR-0-A-ROOM
10
9000
20
15960
30
0
42
0
0
VERTEX
8
A-FLOOR-0-A-ROOM
10
9000
20
18990
30
0
42
0
0
VERTEX
8
A-FLOOR-0-A-ROOM
10
6620
20
18990
30
0
42
0
0
SEQEND
8
A-FLOOR-0-A-ROOM
0
POLYLINE
8
A-ROOM
10
0
20
0
30
0
70
1
66
1
40
0
41
0
71
0
72
0
0
VERTEX
8
A-ROOM
10
7000
20
7500
30
0
42
0
0
VERTEX
8
A-ROOM
10
9000
20
7500
30
0
42
0
0
VERTEX
8
A-ROOM
10
9000
20
14460
30
0
42
0
0
VERTEX
8
A-ROOM
10
7000
20
14460
30
0
42
0
0
SEQEND
8
A-ROOM
0
POLYLINE
8
A-FLOOR-0-A-ROOM
10
0
20
0
30
0
70
1
66
1
40
0
41
0
71
0
72
0
0
VERTEX
8
A-FLOOR-0-A-ROOM
10
7000
20
7500
30
0
42
0
0
VERTEX
8
A-FLOOR-0-A-ROOM
10
9000
20
7500
30
0
42
0
0
VERTEX
8
A-FLOOR-0-A-ROOM
10
9000
20
14460
30
0
42
0
0
VERTEX
8
A-FLOOR-0-A-ROOM
10
7000
20
14460
30
0
42
0
0
SEQEND
8
A-FLOOR-0-A-ROOM
0
POLYLINE
8
A-ROOM
10
0
20
0
30
0
70
1
66
1
40
0
41
0
71
0
72
0
0
VERTEX
8
A-ROOM
10
3540
20
7500
30
0
42
0
0
VERTEX
8
A-ROOM
10
7000
20
7500
30
0
42
0
0
VERTEX
8
A-ROOM
10
7000
20
10980
30
0
42
0
0
VERTEX
8
A-ROOM
10
3540
20
10980
30
0
42
0
0
SEQEND
8
A-ROOM
0
POLYLINE
8
A-FLOOR-0-A-ROOM
10
0
20
0
30
0
70
1
66
1
40
0
41
0
71
0
72
0
0
VERTEX
8
A-FLOOR-0-A-ROOM
10
3540
20
7500
30
0
42
0
0
VERTEX
8
A-FLOOR-0-A-ROOM
10
7000
20
7500
30
0
42
0
0
VERTEX
8
A-FLOOR-0-A-ROOM
10
7000
20
10980
30
0
42
0
0
VERTEX
8
A-FLOOR-0-A-ROOM
10
3540
20
10980
30
0
42
0
0
SEQEND
8
A-FLOOR-0-A-ROOM
0
POLYLINE
8
A-ROOM
10
0
20
0
30
0
70
1
66
1
40
0
41
0
71
0
72
0
0
VERTEX
8
A-ROOM
10
3540
20
10980
30
0
42
0
0
VERTEX
8
A-ROOM
10
7000
20
10980
30
0
42
0
0
VERTEX
8
A-ROOM
10
7000
20
14460
30
0
42
0
0
VERTEX
8
A-ROOM
10
3540
20
14460
30
0
42
0
0
SEQEND
8
A-ROOM
0
POLYLINE
8
A-FLOOR-0-A-ROOM
10
0
20
0
30
0
70
1
66
1
40
0
41
0
71
0
72
0
0
VERTEX
8
A-FLOOR-0-A-ROOM
10
3540
20
10980
30
0
42
0
0
VERTEX
8
A-FLOOR-0-A-ROOM
10
7000
20
10980
30
0
42
0
0
VERTEX
8
A-FLOOR-0-A-ROOM
10
7000
20
14460
30
0
42
0
0
VERTEX
8
A-FLOOR-0-A-ROOM
10
3540
20
14460
30
0
42
0
0
SEQEND
8
A-FLOOR-0-A-ROOM
0
POLYLINE
8
A-ROOM
10
0
20
0
30
0
70
1
66
1
40
0
41
0
71
0
72
0
0
VERTEX
8
A-ROOM
10
10500
20
5700
30
0
42
0
0
VERTEX
8
A-ROOM
10
16000
20
5700
30
0
42
0
0
VERTEX
8
A-ROOM
10
16000
20
10000
30
0
42
0
0
VERTEX
8
A-ROOM
10
10500
20
10000
30
0
42
0
0
SEQEND
8
A-ROOM
0
POLYLINE
8
A-FLOOR-0-A-ROOM
10
0
20
0
30
0
70
1
66
1
40
0
41
0
71
0
72
0
0
VERTEX
8
A-FLOOR-0-A-ROOM
10
10500
20
5700
30
0
42
0
0
VERTEX
8
A-FLOOR-0-A-ROOM
10
16000
20
5700
30
0
42
0
0
VERTEX
8
A-FLOOR-0-A-ROOM
10
16000
20
10000
30
0
42
0
0
VERTEX
8
A-FLOOR-0-A-ROOM
10
10500
20
10000
30
0
42
0
0
SEQEND
8
A-FLOOR-0-A-ROOM
0
POLYLINE
8
A-ROOM
10
0
20
0
30
0
70
1
66
1
40
0
41
0
71
0
72
0
0
VERTEX
8
A-ROOM
10
2000
20
14460
30
0
42
0
0
VERTEX
8
A-ROOM
10
9000
20
14460
30
0
42
0
0
VERTEX
8
A-ROOM
10
9000
20
15960
30
0
42
0
0
VERTEX
8
A-ROOM
10
2000
20
15960
30
0
42
0
0
SEQEND
8
A-ROOM
0
POLYLINE
8
A-FLOOR-0-A-ROOM
10
0
20
0
30
0
70
1
66
1
40
0
41
0
71
0
72
0
0
VERTEX
8
A-FLOOR-0-A-ROOM
10
2000
20
14460
30
0
42
0
0
VERTEX
8
A-FLOOR-0-A-ROOM
10
9000
20
14460
30
0
42
0
0
VERTEX
8
A-FLOOR-0-A-ROOM
10
9000
20
15960
30
0
42
0
0
VERTEX
8
A-FLOOR-0-A-ROOM
10
2000
20
15960
30
0
42
0
0
SEQEND
8
A-FLOOR-0-A-ROOM
0
POLYLINE
8
A-ROOM
10
0
20
0
30
0
70
1
66
1
40
0
41
0
71
0
72
0
0
VERTEX
8
A-ROOM
10
9000
20
5700
30
0
42
0
0
VERTEX
8
A-ROOM
10
10500
20
5700
30
0
42
0
0
VERTEX
8
A-ROOM
10
10500
20
10000
30
0
42
0
0
VERTEX
8
A-ROOM
10
9000
20
10000
30
0
42
0
0
SEQEND
8
A-ROOM
0
POLYLINE
8
A-FLOOR-0-A-ROOM
10
0
20
0
30
0
70
1
66
1
40
0
41
0
71
0
72
0
0
VERTEX
8
A-FLOOR-0-A-ROOM
10
9000
20
5700
30
0
42
0
0
VERTEX
8
A-FLOOR-0-A-ROOM
10
10500
20
5700
30
0
42
0
0
VERTEX
8
A-FLOOR-0-A-ROOM
10
10500
20
10000
30
0
42
0
0
VERTEX
8
A-FLOOR-0-A-ROOM
10
9000
20
10000
30
0
42
0
0
SEQEND
8
A-FLOOR-0-A-ROOM
0
TEXT
8
A-ROOM
10
2915
20
6764.69
30
0
40
265.63
1
Guest WC
50
0
72
1
11
2915
21
6764.69
31
0
0
TEXT
8
A-FLOOR-0-A-ROOM
10
2915
20
6764.69
30
0
40
265.63
1
Guest WC
50
0
72
1
11
2915
21
6764.69
31
0
0
TEXT
8
A-ROOM
10
2915
20
6435.31
30
0
40
185.94
1
3.3 m2
50
0
72
1
11
2915
21
6435.31
31
0
0
TEXT
8
A-FLOOR-0-A-ROOM
10
2915
20
6435.31
30
0
40
185.94
1
3.3 m2
50
0
72
1
11
2915
21
6435.31
31
0
0
TEXT
8
A-ROOM
10
4980
20
6814.73
30
0
40
347.22
1
Entrance
50
0
72
1
11
4980
21
6814.73
31
0
0
TEXT
8
A-FLOOR-0-A-ROOM
10
4980
20
6814.73
30
0
40
347.22
1
Entrance
50
0
72
1
11
4980
21
6814.73
31
0
0
TEXT
8
A-ROOM
10
4980
20
6384.17
30
0
40
243.06
1
4.1 m2
50
0
72
1
11
4980
21
6384.17
31
0
0
TEXT
8
A-FLOOR-0-A-ROOM
10
4980
20
6384.17
30
0
40
243.06
1
4.1 m2
50
0
72
1
11
4980
21
6384.17
31
0
0
TEXT
8
A-ROOM
10
7565
20
6817.21
30
0
40
350
1
Foyer
50
0
72
1
11
7565
21
6817.21
31
0
0
TEXT
8
A-FLOOR-0-A-ROOM
10
7565
20
6817.21
30
0
40
350
1
Foyer
50
0
72
1
11
7565
21
6817.21
31
0
0
TEXT
8
A-ROOM
10
7565
20
6383.21
30
0
40
245
1
5.2 m2
50
0
72
1
11
7565
21
6383.21
31
0
0
TEXT
8
A-FLOOR-0-A-ROOM
10
7565
20
6383.21
30
0
40
245
1
5.2 m2
50
0
72
1
11
7565
21
6383.21
31
0
0
TEXT
8
A-ROOM
10
4310
20
17692
30
0
40
350
1
Bedroom 1
50
0
72
1
11
4310
21
17692
31
0
0
TEXT
8
A-FLOOR-0-A-ROOM
10
4310
20
17692
30
0
40
350
1
Bedroom 1
50
0
72
1
11
4310
21
17692
31
0
0
TEXT
8
A-ROOM
10
4310
20
17258
30
0
40
245
1
14.0 m2
50
0
72
1
11
4310
21
17258
31
0
0
TEXT
8
A-FLOOR-0-A-ROOM
10
4310
20
17258
30
0
40
245
1
14.0 m2
50
0
72
1
11
4310
21
17258
31
0
0
TEXT
8
A-ROOM
10
7967.22
20
17473.03
30
0
40
252.78
1
Master Bathroom
50
90
72
1
11
7967.22
21
17473.03
31
0
0
TEXT
8
A-FLOOR-0-A-ROOM
10
7967.22
20
17473.03
30
0
40
252.78
1
Master Bathroom
50
90
72
1
11
7967.22
21
17473.03
31
0
0
TEXT
8
A-ROOM
10
7653.77
20
17473.03
30
0
40
176.94
1
7.2 m2
50
90
72
1
11
7653.77
21
17473.03
31
0
0
TEXT
8
A-FLOOR-0-A-ROOM
10
7653.77
20
17473.03
30
0
40
176.94
1
7.2 m2
50
90
72
1
11
7653.77
21
17473.03
31
0
0
TEXT
8
A-ROOM
10
8002.14
20
11184.6
30
0
40
337.3
1
Kitchen
50
0
72
1
11
8002.14
21
11184.6
31
0
0
TEXT
8
A-FLOOR-0-A-ROOM
10
8002.14
20
11184.6
30
0
40
337.3
1
Kitchen
50
0
72
1
11
8002.14
21
11184.6
31
0
0
TEXT
8
A-ROOM
10
8002.14
20
10766.34
30
0
40
236.11
1
13.9 m2
50
0
72
1
11
8002.14
21
10766.34
31
0
0
TEXT
8
A-FLOOR-0-A-ROOM
10
8002.14
20
10766.34
30
0
40
236.11
1
13.9 m2
50
0
72
1
11
8002.14
21
10766.34
31
0
0
TEXT
8
A-ROOM
10
5270
20
9457
30
0
40
350
1
Living Room
50
0
72
1
11
5270
21
9457
31
0
0
TEXT
8
A-FLOOR-0-A-ROOM
10
5270
20
9457
30
0
40
350
1
Living Room
50
0
72
1
11
5270
21
9457
31
0
0
TEXT
8
A-ROOM
10
5270
20
9023
30
0
40
245
1
12.0 m2
50
0
72
1
11
5270
21
9023
31
0
0
TEXT
8
A-FLOOR-0-A-ROOM
10
5270
20
9023
30
0
40
245
1
12.0 m2
50
0
72
1
11
5270
21
9023
31
0
0
TEXT
8
A-ROOM
10
5270
20
12937
30
0
40
350
1
Dining
50
0
72
1
11
5270
21
12937
31
0
0
TEXT
8
A-FLOOR-0-A-ROOM
10
5270
20
12937
30
0
40
350
1
Dining
50
0
72
1
11
5270
21
12937
31
0
0
TEXT
8
A-ROOM
10
5270
20
12503
30
0
40
245
1
12.0 m2
50
0
72
1
11
5270
21
12503
31
0
0
TEXT
8
A-FLOOR-0-A-ROOM
10
5270
20
12503
30
0
40
245
1
12.0 m2
50
0
72
1
11
5270
21
12503
31
0
0
TEXT
8
A-ROOM
10
13246.42
20
8065.57
30
0
40
350
1
Master Bedroom
50
0
72
1
11
13246.42
21
8065.57
31
0
0
TEXT
8
A-FLOOR-0-A-ROOM
10
13246.42
20
8065.57
30
0
40
350
1
Master Bedroom
50
0
72
1
11
13246.42
21
8065.57
31
0
0
TEXT
8
A-ROOM
10
13246.42
20
7631.57
30
0
40
245
1
23.6 m2
50
0
72
1
11
13246.42
21
7631.57
31
0
0
TEXT
8
A-FLOOR-0-A-ROOM
10
13246.42
20
7631.57
30
0
40
245
1
23.6 m2
50
0
72
1
11
13246.42
21
7631.57
31
0
0
TEXT
8
A-ROOM
10
5504.56
20
15426.61
30
0
40
350
1
Corridor
50
0
72
1
11
5504.56
21
15426.61
31
0
0
TEXT
8
A-FLOOR-0-A-ROOM
10
5504.56
20
15426.61
30
0
40
350
1
Corridor
50
0
72
1
11
5504.56
21
15426.61
31
0
0
TEXT
8
A-ROOM
10
5504.56
20
14992.61
30
0
40
245
1
10.5 m2
50
0
72
1
11
5504.56
21
14992.61
31
0
0
TEXT
8
A-FLOOR-0-A-ROOM
10
5504.56
20
14992.61
30
0
40
245
1
10.5 m2
50
0
72
1
11
5504.56
21
14992.61
31
0
0
TEXT
8
A-ROOM
10
9967
20
7850
30
0
40
350
1
Corridor
50
90
72
1
11
9967
21
7850
31
0
0
TEXT
8
A-FLOOR-0-A-ROOM
10
9967
20
7850
30
0
40
350
1
Corridor
50
90
72
1
11
9967
21
7850
31
0
0
TEXT
8
A-ROOM
10
9533
20
7850
30
0
40
245
1
6.5 m2
50
90
72
1
11
9533
21
7850
31
0
0
TEXT
8
A-FLOOR-0-A-ROOM
10
9533
20
7850
30
0
40
245
1
6.5 m2
50
90
72
1
11
9533
21
7850
31
0
0
LINE
8
A-GRID
10
2000
20
1000
30
0
11
2000
21
19500
31
0
0
LINE
8
A-AXIS
10
9000
20
1000
30
0
11
9000
21
19500
31
0
0
LINE
8
A-GRID
10
16000
20
1000
30
0
11
16000
21
19500
31
0
0
LINE
8
A-GRID
10
1500
20
1500
30
0
11
16500
21
1500
31
0
0
LINE
8
A-AXIS
10
1500
20
10250
30
0
11
16500
21
10250
31
0
0
LINE
8
A-GRID
10
1500
20
19000
30
0
11
16500
21
19000
31
0
0
TEXT
8
A-AXIS-TEXT
10
1300
20
19300
30
0
40
250
1
A
50
0
72
1
11
1300
21
19300
31
0
0
TEXT
8
A-AXIS-TEXT
10
9000
20
19300
30
0
40
250
1
B
50
0
72
1
11
9000
21
19300
31
0
0
TEXT
8
A-AXIS-TEXT
10
16300
20
19300
30
0
40
250
1
C
50
0
72
0
11
16300
21
19300
31
0
0
TEXT
8
A-AXIS-TEXT
10
1300
20
800
30
0
40
250
1
1
50
0
72
2
11
1300
21
800
31
0
0
TEXT
8
A-AXIS-TEXT
10
1300
20
10250
30
0
40
250
1
2
50
0
72
2
11
1300
21
10250
31
0
0
LINE
8
A-DIMS
10
2000
20
1400
30
0
11
2000
21
350
31
0
0
LINE
8
A-FLOOR-0-A-DIMS
10
2000
20
1400
30
0
11
2000
21
350
31
0
0
LINE
8
A-DIMS
10
16000
20
1400
30
0
11
16000
21
350
31
0
0
LINE
8
A-FLOOR-0-A-DIMS
10
16000
20
1400
30
0
11
16000
21
350
31
0
0
LINE
8
A-DIMS
10
2000
20
500
30
0
11
16000
21
500
31
0
0
LINE
8
A-FLOOR-0-A-DIMS
10
2000
20
500
30
0
11
16000
21
500
31
0
0
LINE
8
A-DIMS
10
1950
20
450
30
0
11
2050
21
550
31
0
0
LINE
8
A-FLOOR-0-A-DIMS
10
1950
20
450
30
0
11
2050
21
550
31
0
0
LINE
8
A-DIMS
10
15950
20
450
30
0
11
16050
21
550
31
0
0
LINE
8
A-FLOOR-0-A-DIMS
10
15950
20
450
30
0
11
16050
21
550
31
0
0
TEXT
8
A-DIMS
10
9000
20
180
30
0
40
200
1
14.00 m F0
50
0
72
1
11
9000
21
180
31
0
0
TEXT
8
A-FLOOR-0-A-DIMS
10
9000
20
180
30
0
40
200
1
14.00 m F0
50
0
72
1
11
9000
21
180
31
0
0
LINE
8
A-DIMS
10
1900
20
1500
30
0
11
850
21
1500
31
0
0
LINE
8
A-FLOOR-0-A-DIMS
10
1900
20
1500
30
0
11
850
21
1500
31
0
0
LINE
8
A-DIMS
10
1900
20
19000
30
0
11
850
21
19000
31
0
0
LINE
8
A-FLOOR-0-A-DIMS
10
1900
20
19000
30
0
11
850
21
19000
31
0
0
LINE
8
A-DIMS
10
1000
20
1500
30
0
11
1000
21
19000
31
0
0
LINE
8
A-FLOOR-0-A-DIMS
10
1000
20
1500
30
0
11
1000
21
19000
31
0
0
LINE
8
A-DIMS
10
1050
20
1450
30
0
11
950
21
1550
31
0
0
LINE
8
A-FLOOR-0-A-DIMS
10
1050
20
1450
30
0
11
950
21
1550
31
0
0
LINE
8
A-DIMS
10
1050
20
18950
30
0
11
950
21
19050
31
0
0
LINE
8
A-FLOOR-0-A-DIMS
10
1050
20
18950
30
0
11
950
21
19050
31
0
0
TEXT
8
A-DIMS
10
700
20
10250
30
0
40
200
1
17.50 m
50
0
72
2
11
700
21
10250
31
0
0
TEXT
8
A-FLOOR-0-A-DIMS
10
700
20
10250
30
0
40
200
1
17.50 m
50
0
72
2
11
700
21
10250
31
0
0
LINE
8
A-DIMS
10
1820
20
15960
30
0
11
1820
21
18990
31
0
0
LINE
8
A-FLOOR-0-A-DIMS
10
1820
20
15960
30
0
11
1820
21
18990
31
0
0
LINE
8
A-DIMS
10
1870
20
15910
30
0
11
1770
21
16010
31
0
0
LINE
8
A-FLOOR-0-A-DIMS
10
1870
20
15910
30
0
11
1770
21
16010
31
0
0
LINE
8
A-DIMS
10
1870
20
18940
30
0
11
1770
21
19040
31
0
0
LINE
8
A-FLOOR-0-A-DIMS
10
1870
20
18940
30
0
11
1770
21
19040
31
0
0
TEXT
8
A-DIMS
10
1620
20
17475
30
0
40
120
1
3.03 m
50
0
72
2
11
1620
21
17475
31
0
0
TEXT
8
A-FLOOR-0-A-DIMS
10
1620
20
17475
30
0
40
120
1
3.03 m
50
0
72
2
11
1620
21
17475
31
0
0
LINE
8
A-DIMS
10
3360
20
7500
30
0
11
3360
21
10980
31
0
0
LINE
8
A-FLOOR-0-A-DIMS
10
3360
20
7500
30
0
11
3360
21
10980
31
0
0
LINE
8
A-DIMS
10
3410
20
7450
30
0
11
3310
21
7550
31
0
0
LINE
8
A-FLOOR-0-A-DIMS
10
3410
20
7450
30
0
11
3310
21
7550
31
0
0
LINE
8
A-DIMS
10
3410
20
10930
30
0
11
3310
21
11030
31
0
0
LINE
8
A-FLOOR-0-A-DIMS
10
3410
20
10930
30
0
11
3310
21
11030
31
0
0
TEXT
8
A-DIMS
10
3160
20
9240
30
0
40
120
1
3.48 m
50
0
72
2
11
3160
21
9240
31
0
0
TEXT
8
A-FLOOR-0-A-DIMS
10
3160
20
9240
30
0
40
120
1
3.48 m
50
0
72
2
11
3160
21
9240
31
0
0
LINE
8
A-DIMS
10
3360
20
10980
30
0
11
3360
21
14460
31
0
0
LINE
8
A-FLOOR-0-A-DIMS
10
3360
20
10980
30
0
11
3360
21
14460
31
0
0
LINE
8
A-DIMS
10
3410
20
14410
30
0
11
3310
21
14510
31
0
0
LINE
8
A-FLOOR-0-A-DIMS
10
3410
20
14410
30
0
11
3310
21
14510
31
0
0
TEXT
8
A-DIMS
10
3160
20
12720
30
0
40
120
1
3.48 m
50
0
72
2
11
3160
21
12720
31
0
0
TEXT
8
A-FLOOR-0-A-DIMS
10
3160
20
12720
30
0
40
120
1
3.48 m
50
0
72
2
11
3160
21
12720
31
0
0
LINE
8
A-DIMS
10
10500
20
5520
30
0
11
16000
21
5520
31
0
0
LINE
8
A-FLOOR-0-A-DIMS
10
10500
20
5520
30
0
11
16000
21
5520
31
0
0
LINE
8
A-DIMS
10
10450
20
5470
30
0
11
10550
21
5570
31
0
0
LINE
8
A-FLOOR-0-A-DIMS
10
10450
20
5470
30
0
11
10550
21
5570
31
0
0
LINE
8
A-DIMS
10
15950
20
5470
30
0
11
16050
21
5570
31
0
0
LINE
8
A-FLOOR-0-A-DIMS
10
15950
20
5470
30
0
11
16050
21
5570
31
0
0
TEXT
8
A-DIMS
10
13250
20
5360
30
0
40
120
1
5.50 m
50
0
72
1
11
13250
21
5360
31
0
0
TEXT
8
A-FLOOR-0-A-DIMS
10
13250
20
5360
30
0
40
120
1
5.50 m
50
0
72
1
11
13250
21
5360
31
0
0
LINE
8
A-DIMS
10
0
20
-600
30
0
11
0
21
-2050
31
0
0
LINE
8
A-FLOOR-0-A-DIMS
10
0
20
-600
30
0
11
0
21
-2050
31
0
0
LINE
8
A-DIMS
10
18000
20
-600
30
0
11
18000
21
-2050
31
0
0
LINE
8
A-FLOOR-0-A-DIMS
10
18000
20
-600
30
0
11
18000
21
-2050
31
0
0
LINE
8
A-DIMS
10
0
20
-1900
30
0
11
18000
21
-1900
31
0
0
LINE
8
A-FLOOR-0-A-DIMS
10
0
20
-1900
30
0
11
18000
21
-1900
31
0
0
LINE
8
A-DIMS
10
-50
20
-1950
30
0
11
50
21
-1850
31
0
0
LINE
8
A-FLOOR-0-A-DIMS
10
-50
20
-1950
30
0
11
50
21
-1850
31
0
0
LINE
8
A-DIMS
10
17950
20
-1950
30
0
11
18050
21
-1850
31
0
0
LINE
8
A-FLOOR-0-A-DIMS
10
17950
20
-1950
30
0
11
18050
21
-1850
31
0
0
TEXT
8
A-DIMS
10
9000
20
-2240
30
0
40
220
1
SITE 18.00 m
50
0
72
1
11
9000
21
-2240
31
0
0
TEXT
8
A-FLOOR-0-A-DIMS
10
9000
20
-2240
30
0
40
220
1
SITE 18.00 m
50
0
72
1
11
9000
21
-2240
31
0
0
LINE
8
A-DIMS
10
-600
20
0
30
0
11
-2500
21
0
31
0
0
LINE
8
A-FLOOR-0-A-DIMS
10
-600
20
0
30
0
11
-2500
21
0
31
0
0
LINE
8
A-DIMS
10
-600
20
22000
30
0
11
-2500
21
22000
31
0
0
LINE
8
A-FLOOR-0-A-DIMS
10
-600
20
22000
30
0
11
-2500
21
22000
31
0
0
LINE
8
A-DIMS
10
-1900
20
0
30
0
11
-1900
21
22000
31
0
0
LINE
8
A-FLOOR-0-A-DIMS
10
-1900
20
0
30
0
11
-1900
21
22000
31
0
0
LINE
8
A-DIMS
10
-1850
20
-50
30
0
11
-1950
21
50
31
0
0
LINE
8
A-FLOOR-0-A-DIMS
10
-1850
20
-50
30
0
11
-1950
21
50
31
0
0
LINE
8
A-DIMS
10
-1850
20
21950
30
0
11
-1950
21
22050
31
0
0
LINE
8
A-FLOOR-0-A-DIMS
10
-1850
20
21950
30
0
11
-1950
21
22050
31
0
0
TEXT
8
A-DIMS
10
-2240
20
11000
30
0
40
220
1
SITE 22.00 m
50
0
72
2
11
-2240
21
11000
31
0
0
TEXT
8
A-FLOOR-0-A-DIMS
10
-2240
20
11000
30
0
40
220
1
SITE 22.00 m
50
0
72
2
11
-2240
21
11000
31
0
0
LINE
8
A-NORTH
10
14800
20
18700
30
0
11
14800
21
19500
31
0
0
LINE
8
A-NORTH
10
14800
20
19500
30
0
11
14650
21
19200
31
0
0
LINE
8
A-NORTH
10
14800
20
19500
30
0
11
14950
21
19200
31
0
0
LINE
8
A-NORTH
10
14960
20
18700
30
0
11
14954.55
21
18741.41
31
0
0
LINE
8
A-NORTH
10
14954.55
20
18741.41
30
0
11
14938.56
21
18780
31
0
0
LINE
8
A-NORTH
10
14938.56
20
18780
30
0
11
14913.14
21
18813.14
31
0
0
LINE
8
A-NORTH
10
14913.14
20
18813.14
30
0
11
14880
21
18838.56
31
0
0
LINE
8
A-NORTH
10
14880
20
18838.56
30
0
11
14841.41
21
18854.55
31
0
0
LINE
8
A-NORTH
10
14841.41
20
18854.55
30
0
11
14800
21
18860
31
0
0
LINE
8
A-NORTH
10
14800
20
18860
30
0
11
14758.59
21
18854.55
31
0
0
LINE
8
A-NORTH
10
14758.59
20
18854.55
30
0
11
14720
21
18838.56
31
0
0
LINE
8
A-NORTH
10
14720
20
18838.56
30
0
11
14686.86
21
18813.14
31
0
0
LINE
8
A-NORTH
10
14686.86
20
18813.14
30
0
11
14661.44
21
18780
31
0
0
LINE
8
A-NORTH
10
14661.44
20
18780
30
0
11
14645.45
21
18741.41
31
0
0
LINE
8
A-NORTH
10
14645.45
20
18741.41
30
0
11
14640
21
18700
31
0
0
LINE
8
A-NORTH
10
14640
20
18700
30
0
11
14645.45
21
18658.59
31
0
0
LINE
8
A-NORTH
10
14645.45
20
18658.59
30
0
11
14661.44
21
18620
31
0
0
LINE
8
A-NORTH
10
14661.44
20
18620
30
0
11
14686.86
21
18586.86
31
0
0
LINE
8
A-NORTH
10
14686.86
20
18586.86
30
0
11
14720
21
18561.44
31
0
0
LINE
8
A-NORTH
10
14720
20
18561.44
30
0
11
14758.59
21
18545.45
31
0
0
LINE
8
A-NORTH
10
14758.59
20
18545.45
30
0
11
14800
21
18540
31
0
0
LINE
8
A-NORTH
10
14800
20
18540
30
0
11
14841.41
21
18545.45
31
0
0
LINE
8
A-NORTH
10
14841.41
20
18545.45
30
0
11
14880
21
18561.44
31
0
0
LINE
8
A-NORTH
10
14880
20
18561.44
30
0
11
14913.14
21
18586.86
31
0
0
LINE
8
A-NORTH
10
14913.14
20
18586.86
30
0
11
14938.56
21
18620
31
0
0
LINE
8
A-NORTH
10
14938.56
20
18620
30
0
11
14954.55
21
18658.59
31
0
0
LINE
8
A-NORTH
10
14954.55
20
18658.59
30
0
11
14960
21
18700
31
0
0
TEXT
8
A-NORTH
10
14800
20
19700
30
0
40
250
1
N
50
0
72
1
11
14800
21
19700
31
0
0
LINE
8
A-TITLE
10
500
20
-4600
30
0
11
17500
21
-4600
31
0
0
LINE
8
A-TITLE
10
17500
20
-4600
30
0
11
17500
21
20500
31
0
0
LINE
8
A-TITLE
10
17500
20
20500
30
0
11
500
21
20500
31
0
0
LINE
8
A-TITLE
10
500
20
20500
30
0
11
500
21
-4600
31
0
0
LINE
8
A-TITLE
10
6500
20
-4450
30
0
11
17350
21
-4450
31
0
0
LINE
8
A-TITLE
10
17350
20
-4450
30
0
11
17350
21
-2050
31
0
0
LINE
8
A-TITLE
10
17350
20
-2050
30
0
11
6500
21
-2050
31
0
0
LINE
8
A-TITLE
10
6500
20
-2050
30
0
11
6500
21
-4450
31
0
0
LINE
8
A-TITLE
10
6750
20
-2800
30
0
11
17100
21
-2800
31
0
0
TEXT
8
A-TITLE
10
6800
20
-2600
30
0
40
320
1
P25 L
50
0
72
0
11
6800
21
-2600
31
0
0
TEXT
8
A-TITLE
10
6800
20
-3150
30
0
40
180
1
FLOOR PLANS - 1 FLOOR(S) | STRATEGY alternative-zoning
50
0
72
0
11
6800
21
-3150
31
0
0
TEXT
8
A-TITLE
10
6800
20
-3550
30
0
40
160
1
UNITS: MILLIMETRES | MODEL SPACE 1:1 | PLOT SCALE 1:100 @ A1
50
0
72
0
11
6800
21
-3550
31
0
0
TEXT
8
A-TITLE
10
6800
20
-3950
30
0
40
160
1
NET FLOOR AREA (SUM OF ROOMS, ALL FLOORS): 112.4 m2 | SITE 18.0x22.0 m
50
0
72
0
11
6800
21
-3950
31
0
0
TEXT
8
A-TITLE
10
6800
20
-4330
30
0
40
140
1
ARCHGENIUS - AUTOMATED CAD DRAFT - PROFESSIONAL REVIEW REQUIRED
50
0
72
0
11
6800
21
-4330
31
0
0
TEXT
8
A-TITLE
10
2900
20
-3750
30
0
40
200
1
LEGEND
50
0
72
0
11
2900
21
-3750
31
0
0
LINE
8
A-WALL-EXT
10
2900
20
-4100
30
0
11
3800
21
-4100
31
0
0
LINE
8
A-FLOOR-0-A-WALL-EXT
10
2900
20
-4100
30
0
11
3800
21
-4100
31
0
0
TEXT
8
A-TITLE
10
4050
20
-4160
30
0
40
140
1
A-WALL-EXT - WALL, EXTERIOR
50
0
72
0
11
4050
21
-4160
31
0
0
LINE
8
A-WALL-INT
10
2900
20
-3800
30
0
11
3800
21
-3800
31
0
0
LINE
8
A-FLOOR-0-A-WALL-INT
10
2900
20
-3800
30
0
11
3800
21
-3800
31
0
0
TEXT
8
A-TITLE
10
4050
20
-3860
30
0
40
140
1
A-WALL-INT - WALL, INTERIOR
50
0
72
0
11
4050
21
-3860
31
0
0
LINE
8
A-WALL-CORE
10
2900
20
-3500
30
0
11
3800
21
-3500
31
0
0
LINE
8
A-FLOOR-0-A-WALL-CORE
10
2900
20
-3500
30
0
11
3800
21
-3500
31
0
0
TEXT
8
A-TITLE
10
4050
20
-3560
30
0
40
140
1
A-WALL-CORE - WALL, CORE
50
0
72
0
11
4050
21
-3560
31
0
0
LINE
8
A-DOOR
10
2900
20
-3200
30
0
11
3800
21
-3200
31
0
0
LINE
8
A-FLOOR-0-A-DOOR
10
2900
20
-3200
30
0
11
3800
21
-3200
31
0
0
TEXT
8
A-TITLE
10
4050
20
-3260
30
0
40
140
1
A-DOOR - DOOR + SWING
50
0
72
0
11
4050
21
-3260
31
0
0
LINE
8
A-WINDOW
10
2900
20
-2900
30
0
11
3800
21
-2900
31
0
0
LINE
8
A-FLOOR-0-A-WINDOW
10
2900
20
-2900
30
0
11
3800
21
-2900
31
0
0
TEXT
8
A-TITLE
10
4050
20
-2960
30
0
40
140
1
A-WINDOW - WINDOW
50
0
72
0
11
4050
21
-2960
31
0
0
LINE
8
A-STAIR
10
2900
20
-2600
30
0
11
3800
21
-2600
31
0
0
LINE
8
A-FLOOR-0-A-STAIR
10
2900
20
-2600
30
0
11
3800
21
-2600
31
0
0
TEXT
8
A-TITLE
10
4050
20
-2660
30
0
40
140
1
A-STAIR - STAIR / LANDING
50
0
72
0
11
4050
21
-2660
31
0
0
LINE
8
A-PARKING
10
2900
20
-2300
30
0
11
3800
21
-2300
31
0
0
LINE
8
A-FLOOR-0-A-PARKING
10
2900
20
-2300
30
0
11
3800
21
-2300
31
0
0
TEXT
8
A-TITLE
10
4050
20
-2360
30
0
40
140
1
A-PARKING - PARKING STALL
50
0
72
0
11
4050
21
-2360
31
0
0
LINE
8
A-DIMS
10
2900
20
-2000
30
0
11
3800
21
-2000
31
0
0
LINE
8
A-FLOOR-0-A-DIMS
10
2900
20
-2000
30
0
11
3800
21
-2000
31
0
0
TEXT
8
A-TITLE
10
4050
20
-2060
30
0
40
140
1
A-DIMS - DIMENSIONS (m)
50
0
72
0
11
4050
21
-2060
31
0
0
LINE
8
A-TEXT
10
2900
20
-1700
30
0
11
3800
21
-1700
31
0
0
LINE
8
A-FLOOR-0-A-TEXT
10
2900
20
-1700
30
0
11
3800
21
-1700
31
0
0
TEXT
8
A-TITLE
10
4050
20
-1760
30
0
40
140
1
A-TEXT - GENERAL NOTES
50
0
72
0
11
4050
21
-1760
31
0
0
LINE
8
A-SITE
10
2900
20
-1400
30
0
11
3800
21
-1400
31
0
0
LINE
8
A-FLOOR-0-A-SITE
10
2900
20
-1400
30
0
11
3800
21
-1400
31
0
0
TEXT
8
A-TITLE
10
4050
20
-1460
30
0
40
140
1
A-SITE - SITE BOUNDARY
50
0
72
0
11
4050
21
-1460
31
0
0
LINE
8
A-GRID
10
2900
20
-1100
30
0
11
3800
21
-1100
31
0
0
TEXT
8
A-TITLE
10
4050
20
-1160
30
0
40
140
1
A-GRID - GRID / AXIS
50
0
72
0
11
4050
21
-1160
31
0
0
LINE
8
A-TITLE
10
2700
20
-4450
30
0
11
2700
21
-750
31
0
0
ENDSEC
0
EOF
