0
SECTION
2
HEADER
9
$ACADVER
1
AC1009
0
ENDSEC
0
SECTION
2
TABLES
0
TABLE
2
LTYPE
70
3
0
LTYPE
2
CONTINUOUS
70
0
3
Solid line
72
65
73
0
40
0
0
LTYPE
2
CENTER
70
0
3
Center ____ _ ____ _ ____
72
65
73
0
40
0
0
LTYPE
2
DASHED
70
0
3
Dashed __ __ __ __
72
65
73
0
40
0
0
ENDTAB
0
TABLE
2
LAYER
70
46
0
LAYER
2
A-GRID
70
0
62
1
6
CENTER
0
LAYER
2
A-AXIS
70
0
62
1
6
CENTER
0
LAYER
2
A-AXIS-TEXT
70
0
62
1
6
CONTINUOUS
0
LAYER
2
A-WALL-EXT
70
0
62
7
6
CONTINUOUS
0
LAYER
2
A-WALL-INT
70
0
62
7
6
CONTINUOUS
0
LAYER
2
A-WALL-CORE
70
0
62
7
6
CONTINUOUS
0
LAYER
2
A-WALL-SERVICE
70
0
62
7
6
CONTINUOUS
0
LAYER
2
A-WALL-PART
70
0
62
7
6
CONTINUOUS
0
LAYER
2
A-COLUMN
70
0
62
7
6
CONTINUOUS
0
LAYER
2
A-DOOR
70
0
62
3
6
CONTINUOUS
0
LAYER
2
A-WINDOW
70
0
62
4
6
CONTINUOUS
0
LAYER
2
A-STAIR
70
0
62
6
6
CONTINUOUS
0
LAYER
2
A-STAIR-TREAD
70
0
62
8
6
CONTINUOUS
0
LAYER
2
A-STAIR-DIR
70
0
62
6
6
CONTINUOUS
0
LAYER
2
A-PARKING
70
0
62
8
6
CONTINUOUS
0
LAYER
2
A-SANITARY
70
0
62
3
6
CONTINUOUS
0
LAYER
2
A-FURN
70
0
62
8
6
CONTINUOUS
0
LAYER
2
A-ROOM
70
0
62
7
6
CONTINUOUS
0
LAYER
2
A-HATCH
70
0
62
8
6
CONTINUOUS
0
LAYER
2
A-DIMS
70
0
62
2
6
CONTINUOUS
0
LAYER
2
A-TEXT
70
0
62
7
6
CONTINUOUS
0
LAYER
2
A-NORTH
70
0
62
7
6
CONTINUOUS
0
LAYER
2
A-TITLE
70
0
62
7
6
CONTINUOUS
0
LAYER
2
A-BLDG-OUT
70
0
62
9
6
DASHED
0
LAYER
2
A-SITE
70
0
62
3
6
DASHED
0
LAYER
2
A-SETBACK
70
0
62
2
6
DASHED
0
LAYER
2
0
70
0
62
7
6
CONTINUOUS
0
LAYER
2
A-FLOOR-0-A-WALL-EXT
70
0
62
7
6
CONTINUOUS
0
LAYER
2
A-FLOOR-0-A-WALL-INT
70
0
62
7
6
CONTINUOUS
0
LAYER
2
A-FLOOR-0-A-WALL-CORE
70
0
62
7
6
CONTINUOUS
0
LAYER
2
A-FLOOR-0-A-WALL-SERVICE
70
0
62
7
6
CONTINUOUS
0
LAYER
2
A-FLOOR-0-A-WALL-PART
70
0
62
7
6
CONTINUOUS
0
LAYER
2
A-FLOOR-0-A-DOOR
70
0
62
3
6
CONTINUOUS
0
LAYER
2
A-FLOOR-0-A-WINDOW
70
0
62
4
6
CONTINUOUS
0
LAYER
2
A-FLOOR-0-A-STAIR
70
0
62
6
6
CONTINUOUS
0
LAYER
2
A-FLOOR-0-A-STAIR-TREAD
70
0
62
8
6
CONTINUOUS
0
LAYER
2
A-FLOOR-0-A-STAIR-DIR
70
0
62
6
6
CONTINUOUS
0
LAYER
2
A-FLOOR-0-A-ROOM
70
0
62
7
6
CONTINUOUS
0
LAYER
2
A-FLOOR-0-A-TEXT
70
0
62
7
6
CONTINUOUS
0
LAYER
2
A-FLOOR-0-A-FURN
70
0
62
8
6
CONTINUOUS
0
LAYER
2
A-FLOOR-0-A-SANITARY
70
0
62
3
6
CONTINUOUS
0
LAYER
2
A-FLOOR-0-A-DIMS
70
0
62
2
6
CONTINUOUS
0
LAYER
2
A-FLOOR-0-A-PARKING
70
0
62
8
6
CONTINUOUS
0
LAYER
2
A-FLOOR-0-A-BLDG-OUT
70
0
62
9
6
DASHED
0
LAYER
2
A-FLOOR-0-A-SITE
70
0
62
3
6
DASHED
0
LAYER
2
A-FLOOR-0-A-SETBACK
70
0
62
2
6
DASHED
0
ENDTAB
0
TABLE
2
STYLE
70
1
0
STYLE
2
STANDARD
70
0
40
0
41
1
50
0
71
0
42
0.2
3
txt
4

0
ENDTAB
0
ENDSEC
0
SECTION
2
BLOCKS
0
BLOCK
2
*Model_Space
70
0
10
0
20
0
30
0
0
ENDBLK
0
BLOCK
2
*Paper_Space
70
0
10
0
20
0
30
0
0
ENDBLK
0
ENDSEC
0
SECTION
2
ENTITIES
0
POLYLINE
8
A-BLDG-OUT
10
0
20
0
30
0
70
1
66
1
40
0
41
0
71
0
72
0
0
VERTEX
8
A-BLDG-OUT
10
2000
20
1500
30
0
42
0
0
VERTEX
8
A-BLDG-OUT
10
13000
20
1500
30
0
42
0
0
VERTEX
8
A-BLDG-OUT
10
13000
20
21000
30
0
42
0
0
VERTEX
8
A-BLDG-OUT
10
2000
20
21000
30
0
42
0
0
SEQEND
8
A-BLDG-OUT
0
POLYLINE
8
A-FLOOR-0-A-BLDG-OUT
10
0
20
0
30
0
70
1
66
1
40
0
41
0
71
0
72
0
0
VERTEX
8
A-FLOOR-0-A-BLDG-OUT
10
2000
20
1500
30
0
42
0
0
VERTEX
8
A-FLOOR-0-A-BLDG-OUT
10
13000
20
1500
30
0
42
0
0
VERTEX
8
A-FLOOR-0-A-BLDG-OUT
10
13000
20
21000
30
0
42
0
0
VERTEX
8
A-FLOOR-0-A-BLDG-OUT
10
2000
20
21000
30
0
42
0
0
SEQEND
8
A-FLOOR-0-A-BLDG-OUT
0
POLYLINE
8
A-SETBACK
10
0
20
0
30
0
70
1
66
1
40
0
41
0
71
0
72
0
0
VERTEX
8
A-SETBACK
10
2000
20
1500
30
0
42
0
0
VERTEX
8
A-SETBACK
10
13000
20
1500
30
0
42
0
0
VERTEX
8
A-SETBACK
10
13000
20
21000
30
0
42
0
0
VERTEX
8
A-SETBACK
10
2000
20
21000
30
0
42
0
0
SEQEND
8
A-SETBACK
0
POLYLINE
8
A-FLOOR-0-A-SETBACK
10
0
20
0
30
0
70
1
66
1
40
0
41
0
71
0
72
0
0
VERTEX
8
A-FLOOR-0-A-SETBACK
10
2000
20
1500
30
0
42
0
0
VERTEX
8
A-FLOOR-0-A-SETBACK
10
13000
20
1500
30
0
42
0
0
VERTEX
8
A-FLOOR-0-A-SETBACK
10
13000
20
21000
30
0
42
0
0
VERTEX
8
A-FLOOR-0-A-SETBACK
10
2000
20
21000
30
0
42
0
0
SEQEND
8
A-FLOOR-0-A-SETBACK
0
POLYLINE
8
A-SITE
10
0
20
0
30
0
70
1
66
1
40
0
41
0
71
0
72
0
0
VERTEX
8
A-SITE
10
0
20
0
30
0
42
0
0
VERTEX
8
A-SITE
10
15000
20
0
30
0
42
0
0
VERTEX
8
A-SITE
10
15000
20
24000
30
0
42
0
0
VERTEX
8
A-SITE
10
0
20
24000
30
0
42
0
0
SEQEND
8
A-SITE
0
POLYLINE
8
A-FLOOR-0-A-SITE
10
0
20
0
30
0
70
1
66
1
40
0
41
0
71
0
72
0
0
VERTEX
8
A-FLOOR-0-A-SITE
10
0
20
0
30
0
42
0
0
VERTEX
8
A-FLOOR-0-A-SITE
10
15000
20
0
30
0
42
0
0
VERTEX
8
A-FLOOR-0-A-SITE
10
15000
20
24000
30
0
42
0
0
VERTEX
8
A-FLOOR-0-A-SITE
10
0
20
24000
30
0
42
0
0
SEQEND
8
A-FLOOR-0-A-SITE
0
TEXT
8
A-SITE
10
0
20
-800
30
0
40
300
1
SITE rectangle 15.0x24.0m
50
0
72
0
11
0
21
-800
31
0
0
TEXT
8
A-SETBACK
10
0
20
-1200
30
0
40
200
1
Setbacks N=3 S=1.5 E=2 W=2
50
0
72
0
11
0
21
-1200
31
0
0
TEXT
8
A-TEXT
10
2000
20
21500
30
0
40
300
1
FLOOR 0 - ELEV 0.00 m
50
0
72
0
11
2000
21
21500
31
0
0
TEXT
8
A-FLOOR-0-A-TEXT
10
2000
20
21500
30
0
40
300
1
FLOOR 0 - ELEV 0.00 m
50
0
72
0
11
2000
21
21500
31
0
0
LINE
8
A-WALL-EXT
10
2000
20
5875
30
0
11
2275
21
5875
31
0
0
LINE
8
A-WALL-EXT
10
2000
20
5525
30
0
11
2275
21
5525
31
0
0
LINE
8
A-WALL-EXT
10
2000
20
5875
30
0
11
2000
21
5525
31
0
0
LINE
8
A-WALL-EXT
10
3275
20
5875
30
0
11
3550
21
5875
31
0
0
LINE
8
A-WALL-EXT
10
3275
20
5525
30
0
11
3550
21
5525
31
0
0
LINE
8
A-WALL-EXT
10
3550
20
5875
30
0
11
3550
21
5525
31
0
0
LINE
8
A-WALL-EXT
10
2275
20
5875
30
0
11
2275
21
5525
31
0
0
LINE
8
A-WALL-EXT
10
3275
20
5875
30
0
11
3275
21
5525
31
0
0
LINE
8
A-FLOOR-0-A-WALL-EXT
10
2000
20
5875
30
0
11
2275
21
5875
31
0
0
LINE
8
A-FLOOR-0-A-WALL-EXT
10
2000
20
5525
30
0
11
2275
21
5525
31
0
0
LINE
8
A-FLOOR-0-A-WALL-EXT
10
2000
20
5875
30
0
11
2000
21
5525
31
0
0
LINE
8
A-FLOOR-0-A-WALL-EXT
10
3275
20
5875
30
0
11
3550
21
5875
31
0
0
LINE
8
A-FLOOR-0-A-WALL-EXT
10
3275
20
5525
30
0
11
3550
21
5525
31
0
0
LINE
8
A-FLOOR-0-A-WALL-EXT
10
3550
20
5875
30
0
11
3550
21
5525
31
0
0
LINE
8
A-FLOOR-0-A-WALL-EXT
10
2275
20
5875
30
0
11
2275
21
5525
31
0
0
LINE
8
A-FLOOR-0-A-WALL-EXT
10
3275
20
5875
30
0
11
3275
21
5525
31
0
0
LINE
8
A-WALL-EXT
10
3550
20
5875
30
0
11
5420
21
5875
31
0
0
LINE
8
A-WALL-EXT
10
3550
20
5525
30
0
11
5420
21
5525
31
0
0
LINE
8
A-WALL-EXT
10
5420
20
5875
30
0
11
5420
21
5525
31
0
0
LINE
8
A-FLOOR-0-A-WALL-EXT
10
3550
20
5875
30
0
11
5420
21
5875
31
0
0
LINE
8
A-FLOOR-0-A-WALL-EXT
10
3550
20
5525
30
0
11
5420
21
5525
31
0
0
LINE
8
A-FLOOR-0-A-WALL-EXT
10
5420
20
5875
30
0
11
5420
21
5525
31
0
0
LINE
8
A-WALL-EXT
10
5420
20
5875
30
0
11
6750
21
5875
31
0
0
LINE
8
A-WALL-EXT
10
5420
20
5525
30
0
11
6750
21
5525
31
0
0
LINE
8
A-WALL-EXT
10
6750
20
5875
30
0
11
6750
21
5525
31
0
0
LINE
8
A-FLOOR-0-A-WALL-EXT
10
5420
20
5875
30
0
11
6750
21
5875
31
0
0
LINE
8
A-FLOOR-0-A-WALL-EXT
10
5420
20
5525
30
0
11
6750
21
5525
31
0
0
LINE
8
A-FLOOR-0-A-WALL-EXT
10
6750
20
5875
30
0
11
6750
21
5525
31
0
0
LINE
8
A-WALL-EXT
10
6750
20
5875
30
0
11
8250
21
5875
31
0
0
LINE
8
A-WALL-EXT
10
6750
20
5525
30
0
11
8250
21
5525
31
0
0
LINE
8
A-WALL-EXT
10
8250
20
5875
30
0
11
8250
21
5525
31
0
0
LINE
8
A-FLOOR-0-A-WALL-EXT
10
6750
20
5875
30
0
11
8250
21
5875
31
0
0
LINE
8
A-FLOOR-0-A-WALL-EXT
10
6750
20
5525
30
0
11
8250
21
5525
31
0
0
LINE
8
A-FLOOR-0-A-WALL-EXT
10
8250
20
5875
30
0
11
8250
21
5525
31
0
0
LINE
8
A-WALL-EXT
10
8250
20
5875
30
0
11
9425
21
5875
31
0
0
LINE
8
A-WALL-EXT
10
8250
20
5525
30
0
11
9425
21
5525
31
0
0
LINE
8
A-WALL-EXT
10
11825
20
5875
30
0
11
13000
21
5875
31
0
0
LINE
8
A-WALL-EXT
10
11825
20
5525
30
0
11
13000
21
5525
31
0
0
LINE
8
A-WALL-EXT
10
13000
20
5875
30
0
11
13000
21
5525
31
0
0
LINE
8
A-WALL-EXT
10
9425
20
5875
30
0
11
9425
21
5525
31
0
0
LINE
8
A-WALL-EXT
10
11825
20
5875
30
0
11
11825
21
5525
31
0
0
LINE
8
A-FLOOR-0-A-WALL-EXT
10
8250
20
5875
30
0
11
9425
21
5875
31
0
0
LINE
8
A-FLOOR-0-A-WALL-EXT
10
8250
20
5525
30
0
11
9425
21
5525
31
0
0
LINE
8
A-FLOOR-0-A-WALL-EXT
10
11825
20
5875
30
0
11
13000
21
5875
31
0
0
LINE
8
A-FLOOR-0-A-WALL-EXT
10
11825
20
5525
30
0
11
13000
21
5525
31
0
0
LINE
8
A-FLOOR-0-A-WALL-EXT
10
13000
20
5875
30
0
11
13000
21
5525
31
0
0
LINE
8
A-FLOOR-0-A-WALL-EXT
10
9425
20
5875
30
0
11
9425
21
5525
31
0
0
LINE
8
A-FLOOR-0-A-WALL-EXT
10
11825
20
5875
30
0
11
11825
21
5525
31
0
0
LINE
8
A-WALL-EXT
10
12825
20
5700
30
0
11
12825
21
11120
31
0
0
LINE
8
A-WALL-EXT
10
13175
20
5700
30
0
11
13175
21
11120
31
0
0
LINE
8
A-WALL-EXT
10
12825
20
5700
30
0
11
13175
21
5700
31
0
0
LINE
8
A-WALL-EXT
10
12825
20
11120
30
0
11
13175
21
11120
31
0
0
LINE
8
A-FLOOR-0-A-WALL-EXT
10
12825
20
5700
30
0
11
12825
21
11120
31
0
0
LINE
8
A-FLOOR-0-A-WALL-EXT
10
13175
20
5700
30
0
11
13175
21
11120
31
0
0
LINE
8
A-FLOOR-0-A-WALL-EXT
10
12825
20
5700
30
0
11
13175
21
5700
31
0
0
LINE
8
A-FLOOR-0-A-WALL-EXT
10
12825
20
11120
30
0
11
13175
21
11120
31
0
0
LINE
8
A-WALL-EXT
10
12825
20
11120
30
0
11
12825
21
11874
31
0
0
LINE
8
A-WALL-EXT
10
13175
20
11120
30
0
11
13175
21
11874
31
0
0
LINE
8
A-WALL-EXT
10
12825
20
12686
30
0
11
12825
21
13440
31
0
0
LINE
8
A-WALL-EXT
10
13175
20
12686
30
0
11
13175
21
13440
31
0
0
LINE
8
A-WALL-EXT
10
12825
20
13440
30
0
11
13175
21
13440
31
0
0
LINE
8
A-WALL-EXT
10
12825
20
11874
30
0
11
13175
21
11874
31
0
0
LINE
8
A-WALL-EXT
10
12825
20
12686
30
0
11
13175
21
12686
31
0
0
LINE
8
A-FLOOR-0-A-WALL-EXT
10
12825
20
11120
30
0
11
12825
21
11874
31
0
0
LINE
8
A-FLOOR-0-A-WALL-EXT
10
13175
20
11120
30
0
11
13175
21
11874
31
0
0
LINE
8
A-FLOOR-0-A-WALL-EXT
10
12825
20
12686
30
0
11
12825
21
13440
31
0
0
LINE
8
A-FLOOR-0-A-WALL-EXT
10
13175
20
12686
30
0
11
13175
21
13440
31
0
0
LINE
8
A-FLOOR-0-A-WALL-EXT
10
12825
20
13440
30
0
11
13175
21
13440
31
0
0
LINE
8
A-FLOOR-0-A-WALL-EXT
10
12825
20
11874
30
0
11
13175
21
11874
31
0
0
LINE
8
A-FLOOR-0-A-WALL-EXT
10
12825
20
12686
30
0
11
13175
21
12686
31
0
0
LINE
8
A-WALL-EXT
10
12825
20
13440
30
0
11
12825
21
14650
31
0
0
LINE
8
A-WALL-EXT
10
13175
20
13440
30
0
11
13175
21
14650
31
0
0
LINE
8
A-WALL-EXT
10
12825
20
16650
30
0
11
12825
21
17860
31
0
0
LINE
8
A-WALL-EXT
10
13175
20
16650
30
0
11
13175
21
17860
31
0
0
LINE
8
A-WALL-EXT
10
12825
20
17860
30
0
11
13175
21
17860
31
0
0
LINE
8
A-WALL-EXT
10
12825
20
14650
30
0
11
13175
21
14650
31
0
0
LINE
8
A-WALL-EXT
10
12825
20
16650
30
0
11
13175
21
16650
31
0
0
LINE
8
A-FLOOR-0-A-WALL-EXT
10
12825
20
13440
30
0
11
12825
21
14650
31
0
0
LINE
8
A-FLOOR-0-A-WALL-EXT
10
13175
20
13440
30
0
11
13175
21
14650
31
0
0
LINE
8
A-FLOOR-0-A-WALL-EXT
10
12825
20
16650
30
0
11
12825
21
17860
31
0
0
LINE
8
A-FLOOR-0-A-WALL-EXT
10
13175
20
16650
30
0
11
13175
21
17860
31
0
0
LINE
8
A-FLOOR-0-A-WALL-EXT
10
12825
20
17860
30
0
11
13175
21
17860
31
0
0
LINE
8
A-FLOOR-0-A-WALL-EXT
10
12825
20
14650
30
0
11
13175
21
14650
31
0
0
LINE
8
A-FLOOR-0-A-WALL-EXT
10
12825
20
16650
30
0
11
13175
21
16650
31
0
0
LINE
8
A-WALL-SERVICE
10
8250
20
11180
30
0
11
13000
21
11180
31
0
0
LINE
8
A-WALL-SERVICE
10
8250
20
11060
30
0
11
13000
21
11060
31
0
0
LINE
8
A-WALL-SERVICE
10
8250
20
11180
30
0
11
8250
21
11060
31
0
0
LINE
8
A-WALL-SERVICE
10
13000
20
11180
30
0
11
13000
21
11060
31
0
0
LINE
8
A-FLOOR-0-A-WALL-SERVICE
10
8250
20
11180
30
0
11
13000
21
11180
31
0
0
LINE
8
A-FLOOR-0-A-WALL-SERVICE
10
8250
20
11060
30
0
11
13000
21
11060
31
0
0
LINE
8
A-FLOOR-0-A-WALL-SERVICE
10
8250
20
11180
30
0
11
8250
21
11060
31
0
0
LINE
8
A-FLOOR-0-A-WALL-SERVICE
10
13000
20
11180
30
0
11
13000
21
11060
31
0
0
LINE
8
A-WALL-INT
10
8175
20
5700
30
0
11
8175
21
7960
31
0
0
LINE
8
A-WALL-INT
10
8325
20
5700
30
0
11
8325
21
7960
31
0
0
LINE
8
A-WALL-INT
10
8175
20
5700
30
0
11
8325
21
5700
31
0
0
LINE
8
A-WALL-INT
10
8175
20
8860
30
0
11
8175
21
11120
31
0
0
LINE
8
A-WALL-INT
10
8325
20
8860
30
0
11
8325
21
11120
31
0
0
LINE
8
A-WALL-INT
10
8175
20
11120
30
0
11
8325
21
11120
31
0
0
LINE
8
A-WALL-INT
10
8175
20
7960
30
0
11
8325
21
7960
31
0
0
LINE
8
A-WALL-INT
10
8175
20
8860
30
0
11
8325
21
8860
31
0
0
LINE
8
A-FLOOR-0-A-WALL-INT
10
8175
20
5700
30
0
11
8175
21
7960
31
0
0
LINE
8
A-FLOOR-0-A-WALL-INT
10
8325
20
5700
30
0
11
8325
21
7960
31
0
0
LINE
8
A-FLOOR-0-A-WALL-INT
10
8175
20
5700
30
0
11
8325
21
5700
31
0
0
LINE
8
A-FLOOR-0-A-WALL-INT
10
8175
20
8860
30
0
11
8175
21
11120
31
0
0
LINE
8
A-FLOOR-0-A-WALL-INT
10
8325
20
8860
30
0
11
8325
21
11120
31
0
0
LINE
8
A-FLOOR-0-A-WALL-INT
10
8175
20
11120
30
0
11
8325
21
11120
31
0
0
LINE
8
A-FLOOR-0-A-WALL-INT
10
8175
20
7960
30
0
11
8325
21
7960
31
0
0
LINE
8
A-FLOOR-0-A-WALL-INT
10
8175
20
8860
30
0
11
8325
21
8860
31
0
0
LINE
8
A-WALL-SERVICE
10
8190
20
11120
30
0
11
8190
21
11880
31
0
0
LINE
8
A-WALL-SERVICE
10
8310
20
11120
30
0
11
8310
21
11880
31
0
0
LINE
8
A-WALL-SERVICE
10
8190
20
11120
30
0
11
8310
21
11120
31
0
0
LINE
8
A-WALL-SERVICE
10
8190
20
12680
30
0
11
8190
21
13440
31
0
0
LINE
8
A-WALL-SERVICE
10
8310
20
12680
30
0
11
8310
21
13440
31
0
0
LINE
8
A-WALL-SERVICE
10
8190
20
13440
30
0
11
8310
21
13440
31
0
0
LINE
8
A-WALL-SERVICE
10
8190
20
11880
30
0
11
8310
21
11880
31
0
0
LINE
8
A-WALL-SERVICE
10
8190
20
12680
30
0
11
8310
21
12680
31
0
0
LINE
8
A-FLOOR-0-A-WALL-SERVICE
10
8190
20
11120
30
0
11
8190
21
11880
31
0
0
LINE
8
A-FLOOR-0-A-WALL-SERVICE
10
8310
20
11120
30
0
11
8310
21
11880
31
0
0
LINE
8
A-FLOOR-0-A-WALL-SERVICE
10
8190
20
11120
30
0
11
8310
21
11120
31
0
0
LINE
8
A-FLOOR-0-A-WALL-SERVICE
10
8190
20
12680
30
0
11
8190
21
13440
31
0
0
LINE
8
A-FLOOR-0-A-WALL-SERVICE
10
8310
20
12680
30
0
11
8310
21
13440
31
0
0
LINE
8
A-FLOOR-0-A-WALL-SERVICE
10
8190
20
13440
30
0
11
8310
21
13440
31
0
0
LINE
8
A-FLOOR-0-A-WALL-SERVICE
10
8190
20
11880
30
0
11
8310
21
11880
31
0
0
LINE
8
A-FLOOR-0-A-WALL-SERVICE
10
8190
20
12680
30
0
11
8310
21
12680
31
0
0
LINE
8
A-WALL-INT
10
8175
20
13440
30
0
11
8175
21
15200
31
0
0
LINE
8
A-WALL-INT
10
8325
20
13440
30
0
11
8325
21
15200
31
0
0
LINE
8
A-WALL-INT
10
8175
20
13440
30
0
11
8325
21
13440
31
0
0
LINE
8
A-WALL-INT
10
8175
20
16100
30
0
11
8175
21
17860
31
0
0
LINE
8
A-WALL-INT
10
8325
20
16100
30
0
11
8325
21
17860
31
0
0
LINE
8
A-WALL-INT
10
8175
20
17860
30
0
11
8325
21
17860
31
0
0
LINE
8
A-WALL-INT
10
8175
20
15200
30
0
11
8325
21
15200
31
0
0
LINE
8
A-WALL-INT
10
8175
20
16100
30
0
11
8325
21
16100
31
0
0
LINE
8
A-FLOOR-0-A-WALL-INT
10
8175
20
13440
30
0
11
8175
21
15200
31
0
0
LINE
8
A-FLOOR-0-A-WALL-INT
10
8325
20
13440
30
0
11
8325
21
15200
31
0
0
LINE
8
A-FLOOR-0-A-WALL-INT
10
8175
20
13440
30
0
11
8325
21
13440
31
0
0
LINE
8
A-FLOOR-0-A-WALL-INT
10
8175
20
16100
30
0
11
8175
21
17860
31
0
0
LINE
8
A-FLOOR-0-A-WALL-INT
10
8325
20
16100
30
0
11
8325
21
17860
31
0
0
LINE
8
A-FLOOR-0-A-WALL-INT
10
8175
20
17860
30
0
11
8325
21
17860
31
0
0
LINE
8
A-FLOOR-0-A-WALL-INT
10
8175
20
15200
30
0
11
8325
21
15200
31
0
0
LINE
8
A-FLOOR-0-A-WALL-INT
10
8175
20
16100
30
0
11
8325
21
16100
31
0
0
LINE
8
A-WALL-EXT
10
8075
20
17860
30
0
11
8075
21
21000
31
0
0
LINE
8
A-WALL-EXT
10
8425
20
17860
30
0
11
8425
21
21000
31
0
0
LINE
8
A-WALL-EXT
10
8075
20
17860
30
0
11
8425
21
17860
31
0
0
LINE
8
A-WALL-EXT
10
8075
20
21000
30
0
11
8425
21
21000
31
0
0
LINE
8
A-FLOOR-0-A-WALL-EXT
10
8075
20
17860
30
0
11
8075
21
21000
31
0
0
LINE
8
A-FLOOR-0-A-WALL-EXT
10
8425
20
17860
30
0
11
8425
21
21000
31
0
0
LINE
8
A-FLOOR-0-A-WALL-EXT
10
8075
20
17860
30
0
11
8425
21
17860
31
0
0
LINE
8
A-FLOOR-0-A-WALL-EXT
10
8075
20
21000
30
0
11
8425
21
21000
31
0
0
LINE
8
A-WALL-SERVICE
10
8250
20
13500
30
0
11
13000
21
13500
31
0
0
LINE
8
A-WALL-SERVICE
10
8250
20
13380
30
0
11
13000
21
13380
31
0
0
LINE
8
A-WALL-SERVICE
10
8250
20
13500
30
0
11
8250
21
13380
31
0
0
LINE
8
A-WALL-SERVICE
10
13000
20
13500
30
0
11
13000
21
13380
31
0
0
LINE
8
A-FLOOR-0-A-WALL-SERVICE
10
8250
20
13500
30
0
11
13000
21
13500
31
0
0
LINE
8
A-FLOOR-0-A-WALL-SERVICE
10
8250
20
13380
30
0
11
13000
21
13380
31
0
0
LINE
8
A-FLOOR-0-A-WALL-SERVICE
10
8250
20
13500
30
0
11
8250
21
13380
31
0
0
LINE
8
A-FLOOR-0-A-WALL-SERVICE
10
13000
20
13500
30
0
11
13000
21
13380
31
0
0
LINE
8
A-WALL-EXT
10
8250
20
18035
30
0
11
13000
21
18035
31
0
0
LINE
8
A-WALL-EXT
10
8250
20
17685
30
0
11
13000
21
17685
31
0
0
LINE
8
A-WALL-EXT
10
8250
20
18035
30
0
11
8250
21
17685
31
0
0
LINE
8
A-WALL-EXT
10
13000
20
18035
30
0
11
13000
21
17685
31
0
0
LINE
8
A-FLOOR-0-A-WALL-EXT
10
8250
20
18035
30
0
11
13000
21
18035
31
0
0
LINE
8
A-FLOOR-0-A-WALL-EXT
10
8250
20
17685
30
0
11
13000
21
17685
31
0
0
LINE
8
A-FLOOR-0-A-WALL-EXT
10
8250
20
18035
30
0
11
8250
21
17685
31
0
0
LINE
8
A-FLOOR-0-A-WALL-EXT
10
13000
20
18035
30
0
11
13000
21
17685
31
0
0
LINE
8
A-WALL-INT
10
2000
20
17095
30
0
11
6750
21
17095
31
0
0
LINE
8
A-WALL-INT
10
2000
20
16945
30
0
11
6750
21
16945
31
0
0
LINE
8
A-WALL-INT
10
2000
20
17095
30
0
11
2000
21
16945
31
0
0
LINE
8
A-WALL-INT
10
6750
20
17095
30
0
11
6750
21
16945
31
0
0
LINE
8
A-FLOOR-0-A-WALL-INT
10
2000
20
17095
30
0
11
6750
21
17095
31
0
0
LINE
8
A-FLOOR-0-A-WALL-INT
10
2000
20
16945
30
0
11
6750
21
16945
31
0
0
LINE
8
A-FLOOR-0-A-WALL-INT
10
2000
20
17095
30
0
11
2000
21
16945
31
0
0
LINE
8
A-FLOOR-0-A-WALL-INT
10
6750
20
17095
30
0
11
6750
21
16945
31
0
0
LINE
8
A-WALL-SERVICE
10
6690
20
5700
30
0
11
6690
21
8000
31
0
0
LINE
8
A-WALL-SERVICE
10
6810
20
5700
30
0
11
6810
21
8000
31
0
0
LINE
8
A-WALL-SERVICE
10
6690
20
5700
30
0
11
6810
21
5700
31
0
0
LINE
8
A-WALL-SERVICE
10
6690
20
8000
30
0
11
6810
21
8000
31
0
0
LINE
8
A-FLOOR-0-A-WALL-SERVICE
10
6690
20
5700
30
0
11
6690
21
8000
31
0
0
LINE
8
A-FLOOR-0-A-WALL-SERVICE
10
6810
20
5700
30
0
11
6810
21
8000
31
0
0
LINE
8
A-FLOOR-0-A-WALL-SERVICE
10
6690
20
5700
30
0
11
6810
21
5700
31
0
0
LINE
8
A-FLOOR-0-A-WALL-SERVICE
10
6690
20
8000
30
0
11
6810
21
8000
31
0
0
LINE
8
A-WALL-INT
10
6675
20
8000
30
0
11
6675
21
10175
31
0
0
LINE
8
A-WALL-INT
10
6825
20
8000
30
0
11
6825
21
10175
31
0
0
LINE
8
A-WALL-INT
10
6675
20
8000
30
0
11
6825
21
8000
31
0
0
LINE
8
A-WALL-INT
10
6675
20
11075
30
0
11
6675
21
13250
31
0
0
LINE
8
A-WALL-INT
10
6825
20
11075
30
0
11
6825
21
13250
31
0
0
LINE
8
A-WALL-INT
10
6675
20
13250
30
0
11
6825
21
13250
31
0
0
LINE
8
A-WALL-INT
10
6675
20
10175
30
0
11
6825
21
10175
31
0
0
LINE
8
A-WALL-INT
10
6675
20
11075
30
0
11
6825
21
11075
31
0
0
LINE
8
A-FLOOR-0-A-WALL-INT
10
6675
20
8000
30
0
11
6675
21
10175
31
0
0
LINE
8
A-FLOOR-0-A-WALL-INT
10
6825
20
8000
30
0
11
6825
21
10175
31
0
0
LINE
8
A-FLOOR-0-A-WALL-INT
10
6675
20
8000
30
0
11
6825
21
8000
31
0
0
LINE
8
A-FLOOR-0-A-WALL-INT
10
6675
20
11075
30
0
11
6675
21
13250
31
0
0
LINE
8
A-FLOOR-0-A-WALL-INT
10
6825
20
11075
30
0
11
6825
21
13250
31
0
0
LINE
8
A-FLOOR-0-A-WALL-INT
10
6675
20
13250
30
0
11
6825
21
13250
31
0
0
LINE
8
A-FLOOR-0-A-WALL-INT
10
6675
20
10175
30
0
11
6825
21
10175
31
0
0
LINE
8
A-FLOOR-0-A-WALL-INT
10
6675
20
11075
30
0
11
6825
21
11075
31
0
0
LINE
8
A-WALL-INT
10
6675
20
13250
30
0
11
6675
21
14685
31
0
0
LINE
8
A-WALL-INT
10
6825
20
13250
30
0
11
6825
21
14685
31
0
0
LINE
8
A-WALL-INT
10
6675
20
15585
30
0
11
6675
21
17020
31
0
0
LINE
8
A-WALL-INT
10
6825
20
15585
30
0
11
6825
21
17020
31
0
0
LINE
8
A-WALL-INT
10
6675
20
17020
30
0
11
6825
21
17020
31
0
0
LINE
8
A-WALL-INT
10
6675
20
14685
30
0
11
6825
21
14685
31
0
0
LINE
8
A-WALL-INT
10
6675
20
15585
30
0
11
6825
21
15585
31
0
0
LINE
8
A-FLOOR-0-A-WALL-INT
10
6675
20
13250
30
0
11
6675
21
14685
31
0
0
LINE
8
A-FLOOR-0-A-WALL-INT
10
6825
20
13250
30
0
11
6825
21
14685
31
0
0
LINE
8
A-FLOOR-0-A-WALL-INT
10
6675
20
15585
30
0
11
6675
21
17020
31
0
0
LINE
8
A-FLOOR-0-A-WALL-INT
10
6825
20
15585
30
0
11
6825
21
17020
31
0
0
LINE
8
A-FLOOR-0-A-WALL-INT
10
6675
20
17020
30
0
11
6825
21
17020
31
0
0
LINE
8
A-FLOOR-0-A-WALL-INT
10
6675
20
14685
30
0
11
6825
21
14685
31
0
0
LINE
8
A-FLOOR-0-A-WALL-INT
10
6675
20
15585
30
0
11
6825
21
15585
31
0
0
LINE
8
A-WALL-INT
10
6675
20
17020
30
0
11
6675
21
18560
31
0
0
LINE
8
A-WALL-INT
10
6825
20
17020
30
0
11
6825
21
18560
31
0
0
LINE
8
A-WALL-INT
10
6675
20
19460
30
0
11
6675
21
21000
31
0
0
LINE
8
A-WALL-INT
10
6825
20
19460
30
0
11
6825
21
21000
31
0
0
LINE
8
A-WALL-INT
10
6675
20
21000
30
0
11
6825
21
21000
31
0
0
LINE
8
A-WALL-INT
10
6675
20
18560
30
0
11
6825
21
18560
31
0
0
LINE
8
A-WALL-INT
10
6675
20
19460
30
0
11
6825
21
19460
31
0
0
LINE
8
A-FLOOR-0-A-WALL-INT
10
6675
20
17020
30
0
11
6675
21
18560
31
0
0
LINE
8
A-FLOOR-0-A-WALL-INT
10
6825
20
17020
30
0
11
6825
21
18560
31
0
0
LINE
8
A-FLOOR-0-A-WALL-INT
10
6675
20
19460
30
0
11
6675
21
21000
31
0
0
LINE
8
A-FLOOR-0-A-WALL-INT
10
6825
20
19460
30
0
11
6825
21
21000
31
0
0
LINE
8
A-FLOOR-0-A-WALL-INT
10
6675
20
21000
30
0
11
6825
21
21000
31
0
0
LINE
8
A-FLOOR-0-A-WALL-INT
10
6675
20
18560
30
0
11
6825
21
18560
31
0
0
LINE
8
A-FLOOR-0-A-WALL-INT
10
6675
20
19460
30
0
11
6825
21
19460
31
0
0
LINE
8
A-WALL-EXT
10
2000
20
21175
30
0
11
3475
21
21175
31
0
0
LINE
8
A-WALL-EXT
10
2000
20
20825
30
0
11
3475
21
20825
31
0
0
LINE
8
A-WALL-EXT
10
2000
20
21175
30
0
11
2000
21
20825
31
0
0
LINE
8
A-WALL-EXT
10
5275
20
21175
30
0
11
6750
21
21175
31
0
0
LINE
8
A-WALL-EXT
10
5275
20
20825
30
0
11
6750
21
20825
31
0
0
LINE
8
A-WALL-EXT
10
6750
20
21175
30
0
11
6750
21
20825
31
0
0
LINE
8
A-WALL-EXT
10
3475
20
21175
30
0
11
3475
21
20825
31
0
0
LINE
8
A-WALL-EXT
10
5275
20
21175
30
0
11
5275
21
20825
31
0
0
LINE
8
A-FLOOR-0-A-WALL-EXT
10
2000
20
21175
30
0
11
3475
21
21175
31
0
0
LINE
8
A-FLOOR-0-A-WALL-EXT
10
2000
20
20825
30
0
11
3475
21
20825
31
0
0
LINE
8
A-FLOOR-0-A-WALL-EXT
10
2000
20
21175
30
0
11
2000
21
20825
31
0
0
LINE
8
A-FLOOR-0-A-WALL-EXT
10
5275
20
21175
30
0
11
6750
21
21175
31
0
0
LINE
8
A-FLOOR-0-A-WALL-EXT
10
5275
20
20825
30
0
11
6750
21
20825
31
0
0
LINE
8
A-FLOOR-0-A-WALL-EXT
10
6750
20
21175
30
0
11
6750
21
20825
31
0
0
LINE
8
A-FLOOR-0-A-WALL-EXT
10
3475
20
21175
30
0
11
3475
21
20825
31
0
0
LINE
8
A-FLOOR-0-A-WALL-EXT
10
5275
20
21175
30
0
11
5275
21
20825
31
0
0
LINE
8
A-WALL-EXT
10
6750
20
21175
30
0
11
8250
21
21175
31
0
0
LINE
8
A-WALL-EXT
10
6750
20
20825
30
0
11
8250
21
20825
31
0
0
LINE
8
A-WALL-EXT
10
8250
20
21175
30
0
11
8250
21
20825
31
0
0
LINE
8
A-FLOOR-0-A-WALL-EXT
10
6750
20
21175
30
0
11
8250
21
21175
31
0
0
LINE
8
A-FLOOR-0-A-WALL-EXT
10
6750
20
20825
30
0
11
8250
21
20825
31
0
0
LINE
8
A-FLOOR-0-A-WALL-EXT
10
8250
20
21175
30
0
11
8250
21
20825
31
0
0
LINE
8
A-WALL-EXT
10
1825
20
5700
30
0
11
1825
21
8000
31
0
0
LINE
8
A-WALL-EXT
10
2175
20
5700
30
0
11
2175
21
8000
31
0
0
LINE
8
A-WALL-EXT
10
1825
20
5700
30
0
11
2175
21
5700
31
0
0
LINE
8
A-WALL-EXT
10
1825
20
8000
30
0
11
2175
21
8000
31
0
0
LINE
8
A-FLOOR-0-A-WALL-EXT
10
1825
20
5700
30
0
11
1825
21
8000
31
0
0
LINE
8
A-FLOOR-0-A-WALL-EXT
10
2175
20
5700
30
0
11
2175
21
8000
31
0
0
LINE
8
A-FLOOR-0-A-WALL-EXT
10
1825
20
5700
30
0
11
2175
21
5700
31
0
0
LINE
8
A-FLOOR-0-A-WALL-EXT
10
1825
20
8000
30
0
11
2175
21
8000
31
0
0
LINE
8
A-WALL-EXT
10
1825
20
8000
30
0
11
1825
21
9125
31
0
0
LINE
8
A-WALL-EXT
10
2175
20
8000
30
0
11
2175
21
9125
31
0
0
LINE
8
A-WALL-EXT
10
1825
20
12125
30
0
11
1825
21
13250
31
0
0
LINE
8
A-WALL-EXT
10
2175
20
12125
30
0
11
2175
21
13250
31
0
0
LINE
8
A-WALL-EXT
10
1825
20
13250
30
0
11
2175
21
13250
31
0
0
LINE
8
A-WALL-EXT
10
1825
20
9125
30
0
11
2175
21
9125
31
0
0
LINE
8
A-WALL-EXT
10
1825
20
12125
30
0
11
2175
21
12125
31
0
0
LINE
8
A-FLOOR-0-A-WALL-EXT
10
1825
20
8000
30
0
11
1825
21
9125
31
0
0
LINE
8
A-FLOOR-0-A-WALL-EXT
10
2175
20
8000
30
0
11
2175
21
9125
31
0
0
LINE
8
A-FLOOR-0-A-WALL-EXT
10
1825
20
12125
30
0
11
1825
21
13250
31
0
0
LINE
8
A-FLOOR-0-A-WALL-EXT
10
2175
20
12125
30
0
11
2175
21
13250
31
0
0
LINE
8
A-FLOOR-0-A-WALL-EXT
10
1825
20
13250
30
0
11
2175
21
13250
31
0
0
LINE
8
A-FLOOR-0-A-WALL-EXT
10
1825
20
9125
30
0
11
2175
21
9125
31
0
0
LINE
8
A-FLOOR-0-A-WALL-EXT
10
1825
20
12125
30
0
11
2175
21
12125
31
0
0
LINE
8
A-WALL-EXT
10
1825
20
13250
30
0
11
1825
21
14098.25
31
0
0
LINE
8
A-WALL-EXT
10
2175
20
13250
30
0
11
2175
21
14098.25
31
0
0
LINE
8
A-WALL-EXT
10
1825
20
16171.75
30
0
11
1825
21
17020
31
0
0
LINE
8
A-WALL-EXT
10
2175
20
16171.75
30
0
11
2175
21
17020
31
0
0
LINE
8
A-WALL-EXT
10
1825
20
17020
30
0
11
2175
21
17020
31
0
0
LINE
8
A-WALL-EXT
10
1825
20
14098.25
30
0
11
2175
21
14098.25
31
0
0
LINE
8
A-WALL-EXT
10
1825
20
16171.75
30
0
11
2175
21
16171.75
31
0
0
LINE
8
A-FLOOR-0-A-WALL-EXT
10
1825
20
13250
30
0
11
1825
21
14098.25
31
0
0
LINE
8
A-FLOOR-0-A-WALL-EXT
10
2175
20
13250
30
0
11
2175
21
14098.25
31
0
0
LINE
8
A-FLOOR-0-A-WALL-EXT
10
1825
20
16171.75
30
0
11
1825
21
17020
31
0
0
LINE
8
A-FLOOR-0-A-WALL-EXT
10
2175
20
16171.75
30
0
11
2175
21
17020
31
0
0
LINE
8
A-FLOOR-0-A-WALL-EXT
10
1825
20
17020
30
0
11
2175
21
17020
31
0
0
LINE
8
A-FLOOR-0-A-WALL-EXT
10
1825
20
14098.25
30
0
11
2175
21
14098.25
31
0
0
LINE
8
A-FLOOR-0-A-WALL-EXT
10
1825
20
16171.75
30
0
11
2175
21
16171.75
31
0
0
LINE
8
A-WALL-EXT
10
1825
20
17020
30
0
11
1825
21
21000
31
0
0
LINE
8
A-WALL-EXT
10
2175
20
17020
30
0
11
2175
21
21000
31
0
0
LINE
8
A-WALL-EXT
10
1825
20
21000
30
0
11
2175
21
21000
31
0
0
LINE
8
A-FLOOR-0-A-WALL-EXT
10
1825
20
17020
30
0
11
1825
21
21000
31
0
0
LINE
8
A-FLOOR-0-A-WALL-EXT
10
2175
20
17020
30
0
11
2175
21
21000
31
0
0
LINE
8
A-FLOOR-0-A-WALL-EXT
10
1825
20
21000
30
0
11
2175
21
21000
31
0
0
LINE
8
A-WALL-INT
10
3475
20
5700
30
0
11
3475
21
6400
31
0
0
LINE
8
A-WALL-INT
10
3625
20
5700
30
0
11
3625
21
6400
31
0
0
LINE
8
A-WALL-INT
10
3475
20
5700
30
0
11
3625
21
5700
31
0
0
LINE
8
A-WALL-INT
10
3475
20
7300
30
0
11
3475
21
8000
31
0
0
LINE
8
A-WALL-INT
10
3625
20
7300
30
0
11
3625
21
8000
31
0
0
LINE
8
A-WALL-INT
10
3475
20
8000
30
0
11
3625
21
8000
31
0
0
LINE
8
A-WALL-INT
10
3475
20
6400
30
0
11
3625
21
6400
31
0
0
LINE
8
A-WALL-INT
10
3475
20
7300
30
0
11
3625
21
7300
31
0
0
LINE
8
A-FLOOR-0-A-WALL-INT
10
3475
20
5700
30
0
11
3475
21
6400
31
0
0
LINE
8
A-FLOOR-0-A-WALL-INT
10
3625
20
5700
30
0
11
3625
21
6400
31
0
0
LINE
8
A-FLOOR-0-A-WALL-INT
10
3475
20
5700
30
0
11
3625
21
5700
31
0
0
LINE
8
A-FLOOR-0-A-WALL-INT
10
3475
20
7300
30
0
11
3475
21
8000
31
0
0
LINE
8
A-FLOOR-0-A-WALL-INT
10
3625
20
7300
30
0
11
3625
21
8000
31
0
0
LINE
8
A-FLOOR-0-A-WALL-INT
10
3475
20
8000
30
0
11
3625
21
8000
31
0
0
LINE
8
A-FLOOR-0-A-WALL-INT
10
3475
20
6400
30
0
11
3625
21
6400
31
0
0
LINE
8
A-FLOOR-0-A-WALL-INT
10
3475
20
7300
30
0
11
3625
21
7300
31
0
0
LINE
8
A-WALL-INT
10
2000
20
8075
30
0
11
3550
21
8075
31
0
0
LINE
8
A-WALL-INT
10
2000
20
7925
30
0
11
3550
21
7925
31
0
0
LINE
8
A-WALL-INT
10
2000
20
8075
30
0
11
2000
21
7925
31
0
0
LINE
8
A-WALL-INT
10
3550
20
8075
30
0
11
3550
21
7925
31
0
0
LINE
8
A-FLOOR-0-A-WALL-INT
10
2000
20
8075
30
0
11
3550
21
8075
31
0
0
LINE
8
A-FLOOR-0-A-WALL-INT
10
2000
20
7925
30
0
11
3550
21
7925
31
0
0
LINE
8
A-FLOOR-0-A-WALL-INT
10
2000
20
8075
30
0
11
2000
21
7925
31
0
0
LINE
8
A-FLOOR-0-A-WALL-INT
10
3550
20
8075
30
0
11
3550
21
7925
31
0
0
LINE
8
A-WALL-INT
10
3550
20
8075
30
0
11
4035
21
8075
31
0
0
LINE
8
A-WALL-INT
10
3550
20
7925
30
0
11
4035
21
7925
31
0
0
LINE
8
A-WALL-INT
10
4935
20
8075
30
0
11
5420
21
8075
31
0
0
LINE
8
A-WALL-INT
10
4935
20
7925
30
0
11
5420
21
7925
31
0
0
LINE
8
A-WALL-INT
10
5420
20
8075
30
0
11
5420
21
7925
31
0
0
LINE
8
A-WALL-INT
10
4035
20
8075
30
0
11
4035
21
7925
31
0
0
LINE
8
A-WALL-INT
10
4935
20
8075
30
0
11
4935
21
7925
31
0
0
LINE
8
A-FLOOR-0-A-WALL-INT
10
3550
20
8075
30
0
11
4035
21
8075
31
0
0
LINE
8
A-FLOOR-0-A-WALL-INT
10
3550
20
7925
30
0
11
4035
21
7925
31
0
0
LINE
8
A-FLOOR-0-A-WALL-INT
10
4935
20
8075
30
0
11
5420
21
8075
31
0
0
LINE
8
A-FLOOR-0-A-WALL-INT
10
4935
20
7925
30
0
11
5420
21
7925
31
0
0
LINE
8
A-FLOOR-0-A-WALL-INT
10
5420
20
8075
30
0
11
5420
21
7925
31
0
0
LINE
8
A-FLOOR-0-A-WALL-INT
10
4035
20
8075
30
0
11
4035
21
7925
31
0
0
LINE
8
A-FLOOR-0-A-WALL-INT
10
4935
20
8075
30
0
11
4935
21
7925
31
0
0
LINE
8
A-WALL-SERVICE
10
5420
20
8060
30
0
11
6750
21
8060
31
0
0
LINE
8
A-WALL-SERVICE
10
5420
20
7940
30
0
11
6750
21
7940
31
0
0
LINE
8
A-WALL-SERVICE
10
5420
20
8060
30
0
11
5420
21
7940
31
0
0
LINE
8
A-WALL-SERVICE
10
6750
20
8060
30
0
11
6750
21
7940
31
0
0
LINE
8
A-FLOOR-0-A-WALL-SERVICE
10
5420
20
8060
30
0
11
6750
21
8060
31
0
0
LINE
8
A-FLOOR-0-A-WALL-SERVICE
10
5420
20
7940
30
0
11
6750
21
7940
31
0
0
LINE
8
A-FLOOR-0-A-WALL-SERVICE
10
5420
20
8060
30
0
11
5420
21
7940
31
0
0
LINE
8
A-FLOOR-0-A-WALL-SERVICE
10
6750
20
8060
30
0
11
6750
21
7940
31
0
0
LINE
8
A-WALL-SERVICE
10
5360
20
5700
30
0
11
5360
21
6450
31
0
0
LINE
8
A-WALL-SERVICE
10
5480
20
5700
30
0
11
5480
21
6450
31
0
0
LINE
8
A-WALL-SERVICE
10
5360
20
5700
30
0
11
5480
21
5700
31
0
0
LINE
8
A-WALL-SERVICE
10
5360
20
7250
30
0
11
5360
21
8000
31
0
0
LINE
8
A-WALL-SERVICE
10
5480
20
7250
30
0
11
5480
21
8000
31
0
0
LINE
8
A-WALL-SERVICE
10
5360
20
8000
30
0
11
5480
21
8000
31
0
0
LINE
8
A-WALL-SERVICE
10
5360
20
6450
30
0
11
5480
21
6450
31
0
0
LINE
8
A-WALL-SERVICE
10
5360
20
7250
30
0
11
5480
21
7250
31
0
0
LINE
8
A-FLOOR-0-A-WALL-SERVICE
10
5360
20
5700
30
0
11
5360
21
6450
31
0
0
LINE
8
A-FLOOR-0-A-WALL-SERVICE
10
5480
20
5700
30
0
11
5480
21
6450
31
0
0
LINE
8
A-FLOOR-0-A-WALL-SERVICE
10
5360
20
5700
30
0
11
5480
21
5700
31
0
0
LINE
8
A-FLOOR-0-A-WALL-SERVICE
10
5360
20
7250
30
0
11
5360
21
8000
31
0
0
LINE
8
A-FLOOR-0-A-WALL-SERVICE
10
5480
20
7250
30
0
11
5480
21
8000
31
0
0
LINE
8
A-FLOOR-0-A-WALL-SERVICE
10
5360
20
8000
30
0
11
5480
21
8000
31
0
0
LINE
8
A-FLOOR-0-A-WALL-SERVICE
10
5360
20
6450
30
0
11
5480
21
6450
31
0
0
LINE
8
A-FLOOR-0-A-WALL-SERVICE
10
5360
20
7250
30
0
11
5480
21
7250
31
0
0
LINE
8
A-WALL-INT
10
2000
20
13325
30
0
11
6750
21
13325
31
0
0
LINE
8
A-WALL-INT
10
2000
20
13175
30
0
11
6750
21
13175
31
0
0
LINE
8
A-WALL-INT
10
2000
20
13325
30
0
11
2000
21
13175
31
0
0
LINE
8
A-WALL-INT
10
6750
20
13325
30
0
11
6750
21
13175
31
0
0
LINE
8
A-FLOOR-0-A-WALL-INT
10
2000
20
13325
30
0
11
6750
21
13325
31
0
0
LINE
8
A-FLOOR-0-A-WALL-INT
10
2000
20
13175
30
0
11
6750
21
13175
31
0
0
LINE
8
A-FLOOR-0-A-WALL-INT
10
2000
20
13325
30
0
11
2000
21
13175
31
0
0
LINE
8
A-FLOOR-0-A-WALL-INT
10
6750
20
13325
30
0
11
6750
21
13175
31
0
0
LINE
8
A-DOOR
10
2275
20
5700
30
0
11
3275
21
5700
31
0
0
ARC
8
A-DOOR
10
2275
20
5700
30
0
40
1000
50
0
51
90
0
LINE
8
A-DOOR
10
2275
20
6700
30
0
11
2235
21
6700
31
0
0
LINE
8
A-FLOOR-0-A-DOOR
10
2275
20
5700
30
0
11
3275
21
5700
31
0
0
ARC
8
A-FLOOR-0-A-DOOR
10
2275
20
5700
30
0
40
1000
50
0
51
90
0
LINE
8
A-FLOOR-0-A-DOOR
10
2275
20
6700
30
0
11
2235
21
6700
31
0
0
LINE
8
A-DIMS
10
3275
20
5650
30
0
11
3275
21
5300
31
0
0
LINE
8
A-FLOOR-0-A-DIMS
10
3275
20
5650
30
0
11
3275
21
5300
31
0
0
LINE
8
A-DIMS
10
2275
20
5650
30
0
11
2275
21
5300
31
0
0
LINE
8
A-FLOOR-0-A-DIMS
10
2275
20
5650
30
0
11
2275
21
5300
31
0
0
LINE
8
A-DIMS
10
3275
20
5380
30
0
11
2275
21
5380
31
0
0
LINE
8
A-FLOOR-0-A-DIMS
10
3275
20
5380
30
0
11
2275
21
5380
31
0
0
LINE
8
A-DIMS
10
3225
20
5330
30
0
11
3325
21
5430
31
0
0
LINE
8
A-FLOOR-0-A-DIMS
10
3225
20
5330
30
0
11
3325
21
5430
31
0
0
LINE
8
A-DIMS
10
2225
20
5330
30
0
11
2325
21
5430
31
0
0
LINE
8
A-FLOOR-0-A-DIMS
10
2225
20
5330
30
0
11
2325
21
5430
31
0
0
TEXT
8
A-DIMS
10
2775
20
5320
30
0
40
100
1
1.00 m
50
0
72
1
11
2775
21
5320
31
0
0
TEXT
8
A-FLOOR-0-A-DIMS
10
2775
20
5320
30
0
40
100
1
1.00 m
50
0
72
1
11
2775
21
5320
31
0
0
LINE
8
A-DOOR
10
3550
20
6400
30
0
11
3550
21
7300
31
0
0
ARC
8
A-DOOR
10
3550
20
6400
30
0
40
900
50
0
51
90
0
LINE
8
A-DOOR
10
4450
20
6400
30
0
11
4450
21
6440
31
0
0
LINE
8
A-FLOOR-0-A-DOOR
10
3550
20
6400
30
0
11
3550
21
7300
31
0
0
ARC
8
A-FLOOR-0-A-DOOR
10
3550
20
6400
30
0
40
900
50
0
51
90
0
LINE
8
A-FLOOR-0-A-DOOR
10
4450
20
6400
30
0
11
4450
21
6440
31
0
0
LINE
8
A-DOOR
10
8250
20
16100
30
0
11
8250
21
15200
31
0
0
ARC
8
A-DOOR
10
8250
20
16100
30
0
40
900
50
270
51
0
0
LINE
8
A-DOOR
10
9150
20
16100
30
0
11
9150
21
16140
31
0
0
LINE
8
A-FLOOR-0-A-DOOR
10
8250
20
16100
30
0
11
8250
21
15200
31
0
0
ARC
8
A-FLOOR-0-A-DOOR
10
8250
20
16100
30
0
40
900
50
270
51
0
0
LINE
8
A-FLOOR-0-A-DOOR
10
9150
20
16100
30
0
11
9150
21
16140
31
0
0
LINE
8
A-DOOR
10
6750
20
14685
30
0
11
6750
21
15585
31
0
0
ARC
8
A-DOOR
10
6750
20
14685
30
0
40
900
50
90
51
180
0
LINE
8
A-DOOR
10
5850
20
14685
30
0
11
5850
21
14645
31
0
0
LINE
8
A-FLOOR-0-A-DOOR
10
6750
20
14685
30
0
11
6750
21
15585
31
0
0
ARC
8
A-FLOOR-0-A-DOOR
10
6750
20
14685
30
0
40
900
50
90
51
180
0
LINE
8
A-FLOOR-0-A-DOOR
10
5850
20
14685
30
0
11
5850
21
14645
31
0
0
LINE
8
A-DOOR
10
5420
20
6450
30
0
11
5420
21
7250
31
0
0
ARC
8
A-DOOR
10
5420
20
6450
30
0
40
800
50
0
51
90
0
LINE
8
A-DOOR
10
6220
20
6450
30
0
11
6220
21
6490
31
0
0
LINE
8
A-FLOOR-0-A-DOOR
10
5420
20
6450
30
0
11
5420
21
7250
31
0
0
ARC
8
A-FLOOR-0-A-DOOR
10
5420
20
6450
30
0
40
800
50
0
51
90
0
LINE
8
A-FLOOR-0-A-DOOR
10
6220
20
6450
30
0
11
6220
21
6490
31
0
0
LINE
8
A-DOOR
10
6750
20
19460
30
0
11
6750
21
18560
31
0
0
ARC
8
A-DOOR
10
6750
20
19460
30
0
40
900
50
180
51
270
0
LINE
8
A-DOOR
10
5850
20
19460
30
0
11
5850
21
19420
31
0
0
LINE
8
A-FLOOR-0-A-DOOR
10
6750
20
19460
30
0
11
6750
21
18560
31
0
0
ARC
8
A-FLOOR-0-A-DOOR
10
6750
20
19460
30
0
40
900
50
180
51
270
0
LINE
8
A-FLOOR-0-A-DOOR
10
5850
20
19460
30
0
11
5850
21
19420
31
0
0
LINE
8
A-DOOR
10
4035
20
8000
30
0
11
4935
21
8000
31
0
0
ARC
8
A-DOOR
10
4035
20
8000
30
0
40
900
50
0
51
90
0
LINE
8
A-DOOR
10
4035
20
8900
30
0
11
3995
21
8900
31
0
0
LINE
8
A-FLOOR-0-A-DOOR
10
4035
20
8000
30
0
11
4935
21
8000
31
0
0
ARC
8
A-FLOOR-0-A-DOOR
10
4035
20
8000
30
0
40
900
50
0
51
90
0
LINE
8
A-FLOOR-0-A-DOOR
10
4035
20
8900
30
0
11
3995
21
8900
31
0
0
LINE
8
A-DOOR
10
8250
20
11880
30
0
11
8250
21
12680
31
0
0
ARC
8
A-DOOR
10
8250
20
11880
30
0
40
800
50
0
51
90
0
LINE
8
A-DOOR
10
9050
20
11880
30
0
11
9050
21
11920
31
0
0
LINE
8
A-FLOOR-0-A-DOOR
10
8250
20
11880
30
0
11
8250
21
12680
31
0
0
ARC
8
A-FLOOR-0-A-DOOR
10
8250
20
11880
30
0
40
800
50
0
51
90
0
LINE
8
A-FLOOR-0-A-DOOR
10
9050
20
11880
30
0
11
9050
21
11920
31
0
0
LINE
8
A-DOOR
10
8250
20
8860
30
0
11
8250
21
7960
31
0
0
ARC
8
A-DOOR
10
8250
20
8860
30
0
40
900
50
270
51
0
0
LINE
8
A-DOOR
10
9150
20
8860
30
0
11
9150
21
8900
31
0
0
LINE
8
A-FLOOR-0-A-DOOR
10
8250
20
8860
30
0
11
8250
21
7960
31
0
0
ARC
8
A-FLOOR-0-A-DOOR
10
8250
20
8860
30
0
40
900
50
270
51
0
0
LINE
8
A-FLOOR-0-A-DOOR
10
9150
20
8860
30
0
11
9150
21
8900
31
0
0
LINE
8
A-DOOR
10
6750
20
11075
30
0
11
6750
21
10175
31
0
0
ARC
8
A-DOOR
10
6750
20
11075
30
0
40
900
50
180
51
270
0
LINE
8
A-DOOR
10
5850
20
11075
30
0
11
5850
21
11035
31
0
0
LINE
8
A-FLOOR-0-A-DOOR
10
6750
20
11075
30
0
11
6750
21
10175
31
0
0
ARC
8
A-FLOOR-0-A-DOOR
10
6750
20
11075
30
0
40
900
50
180
51
270
0
LINE
8
A-FLOOR-0-A-DOOR
10
5850
20
11075
30
0
11
5850
21
11035
31
0
0
LINE
8
A-WINDOW
10
9425
20
5640
30
0
11
11825
21
5640
31
0
0
LINE
8
A-WINDOW
10
9425
20
5680
30
0
11
11825
21
5680
31
0
0
LINE
8
A-WINDOW
10
9425
20
5720
30
0
11
11825
21
5720
31
0
0
LINE
8
A-WINDOW
10
9425
20
5760
30
0
11
11825
21
5760
31
0
0
LINE
8
A-FLOOR-0-A-WINDOW
10
9425
20
5640
30
0
11
11825
21
5640
31
0
0
LINE
8
A-FLOOR-0-A-WINDOW
10
9425
20
5680
30
0
11
11825
21
5680
31
0
0
LINE
8
A-FLOOR-0-A-WINDOW
10
9425
20
5720
30
0
11
11825
21
5720
31
0
0
LINE
8
A-FLOOR-0-A-WINDOW
10
9425
20
5760
30
0
11
11825
21
5760
31
0
0
LINE
8
A-DIMS
10
11825
20
5650
30
0
11
11825
21
5300
31
0
0
LINE
8
A-FLOOR-0-A-DIMS
10
11825
20
5650
30
0
11
11825
21
5300
31
0
0
LINE
8
A-DIMS
10
9425
20
5650
30
0
11
9425
21
5300
31
0
0
LINE
8
A-FLOOR-0-A-DIMS
10
9425
20
5650
30
0
11
9425
21
5300
31
0
0
LINE
8
A-DIMS
10
11825
20
5380
30
0
11
9425
21
5380
31
0
0
LINE
8
A-FLOOR-0-A-DIMS
10
11825
20
5380
30
0
11
9425
21
5380
31
0
0
LINE
8
A-DIMS
10
11775
20
5330
30
0
11
11875
21
5430
31
0
0
LINE
8
A-FLOOR-0-A-DIMS
10
11775
20
5330
30
0
11
11875
21
5430
31
0
0
LINE
8
A-DIMS
10
9375
20
5330
30
0
11
9475
21
5430
31
0
0
LINE
8
A-FLOOR-0-A-DIMS
10
9375
20
5330
30
0
11
9475
21
5430
31
0
0
LINE
8
A-WINDOW
10
13060
20
11874
30
0
11
13060
21
12686
31
0
0
LINE
8
A-WINDOW
10
13020
20
11874
30
0
11
13020
21
12686
31
0
0
LINE
8
A-WINDOW
10
12980
20
11874
30
0
11
12980
21
12686
31
0
0
LINE
8
A-WINDOW
10
12940
20
11874
30
0
11
12940
21
12686
31
0
0
LINE
8
A-FLOOR-0-A-WINDOW
10
13060
20
11874
30
0
11
13060
21
12686
31
0
0
LINE
8
A-FLOOR-0-A-WINDOW
10
13020
20
11874
30
0
11
13020
21
12686
31
0
0
LINE
8
A-FLOOR-0-A-WINDOW
10
12980
20
11874
30
0
11
12980
21
12686
31
0
0
LINE
8
A-FLOOR-0-A-WINDOW
10
12940
20
11874
30
0
11
12940
21
12686
31
0
0
LINE
8
A-DIMS
10
13050
20
12686
30
0
11
13400
21
12686
31
0
0
LINE
8
A-FLOOR-0-A-DIMS
10
13050
20
12686
30
0
11
13400
21
12686
31
0
0
LINE
8
A-DIMS
10
13050
20
11874
30
0
11
13400
21
11874
31
0
0
LINE
8
A-FLOOR-0-A-DIMS
10
13050
20
11874
30
0
11
13400
21
11874
31
0
0
LINE
8
A-DIMS
10
13320
20
12686
30
0
11
13320
21
11874
31
0
0
LINE
8
A-FLOOR-0-A-DIMS
10
13320
20
12686
30
0
11
13320
21
11874
31
0
0
LINE
8
A-DIMS
10
13370
20
12636
30
0
11
13270
21
12736
31
0
0
LINE
8
A-FLOOR-0-A-DIMS
10
13370
20
12636
30
0
11
13270
21
12736
31
0
0
LINE
8
A-DIMS
10
13370
20
11824
30
0
11
13270
21
11924
31
0
0
LINE
8
A-FLOOR-0-A-DIMS
10
13370
20
11824
30
0
11
13270
21
11924
31
0
0
TEXT
8
A-DIMS
10
13380
20
12280
30
0
40
100
1
0.81 m
50
0
72
1
11
13380
21
12280
31
0
0
TEXT
8
A-FLOOR-0-A-DIMS
10
13380
20
12280
30
0
40
100
1
0.81 m
50
0
72
1
11
13380
21
12280
31
0
0
LINE
8
A-WINDOW
10
13060
20
14650
30
0
11
13060
21
16650
31
0
0
LINE
8
A-WINDOW
10
13020
20
14650
30
0
11
13020
21
16650
31
0
0
LINE
8
A-WINDOW
10
12980
20
14650
30
0
11
12980
21
16650
31
0
0
LINE
8
A-WINDOW
10
12940
20
14650
30
0
11
12940
21
16650
31
0
0
LINE
8
A-FLOOR-0-A-WINDOW
10
13060
20
14650
30
0
11
13060
21
16650
31
0
0
LINE
8
A-FLOOR-0-A-WINDOW
10
13020
20
14650
30
0
11
13020
21
16650
31
0
0
LINE
8
A-FLOOR-0-A-WINDOW
10
12980
20
14650
30
0
11
12980
21
16650
31
0
0
LINE
8
A-FLOOR-0-A-WINDOW
10
12940
20
14650
30
0
11
12940
21
16650
31
0
0
LINE
8
A-DIMS
10
13050
20
16650
30
0
11
13400
21
16650
31
0
0
LINE
8
A-FLOOR-0-A-DIMS
10
13050
20
16650
30
0
11
13400
21
16650
31
0
0
LINE
8
A-DIMS
10
13050
20
14650
30
0
11
13400
21
14650
31
0
0
LINE
8
A-FLOOR-0-A-DIMS
10
13050
20
14650
30
0
11
13400
21
14650
31
0
0
LINE
8
A-DIMS
10
13320
20
16650
30
0
11
13320
21
14650
31
0
0
LINE
8
A-FLOOR-0-A-DIMS
10
13320
20
16650
30
0
11
13320
21
14650
31
0
0
LINE
8
A-DIMS
10
13370
20
16600
30
0
11
13270
21
16700
31
0
0
LINE
8
A-FLOOR-0-A-DIMS
10
13370
20
16600
30
0
11
13270
21
16700
31
0
0
LINE
8
A-DIMS
10
13370
20
14600
30
0
11
13270
21
14700
31
0
0
LINE
8
A-FLOOR-0-A-DIMS
10
13370
20
14600
30
0
11
13270
21
14700
31
0
0
TEXT
8
A-DIMS
10
13380
20
15650
30
0
40
100
1
2.00 m
50
0
72
1
11
13380
21
15650
31
0
0
TEXT
8
A-FLOOR-0-A-DIMS
10
13380
20
15650
30
0
40
100
1
2.00 m
50
0
72
1
11
13380
21
15650
31
0
0
LINE
8
A-WINDOW
10
3475
20
20940
30
0
11
5275
21
20940
31
0
0
LINE
8
A-WINDOW
10
3475
20
20980
30
0
11
5275
21
20980
31
0
0
LINE
8
A-WINDOW
10
3475
20
21020
30
0
11
5275
21
21020
31
0
0
LINE
8
A-WINDOW
10
3475
20
21060
30
0
11
5275
21
21060
31
0
0
LINE
8
A-FLOOR-0-A-WINDOW
10
3475
20
20940
30
0
11
5275
21
20940
31
0
0
LINE
8
A-FLOOR-0-A-WINDOW
10
3475
20
20980
30
0
11
5275
21
20980
31
0
0
LINE
8
A-FLOOR-0-A-WINDOW
10
3475
20
21020
30
0
11
5275
21
21020
31
0
0
LINE
8
A-FLOOR-0-A-WINDOW
10
3475
20
21060
30
0
11
5275
21
21060
31
0
0
LINE
8
A-DIMS
10
5275
20
21050
30
0
11
5275
21
21400
31
0
0
LINE
8
A-FLOOR-0-A-DIMS
10
5275
20
21050
30
0
11
5275
21
21400
31
0
0
LINE
8
A-DIMS
10
3475
20
21050
30
0
11
3475
21
21400
31
0
0
LINE
8
A-FLOOR-0-A-DIMS
10
3475
20
21050
30
0
11
3475
21
21400
31
0
0
LINE
8
A-DIMS
10
5275
20
21320
30
0
11
3475
21
21320
31
0
0
LINE
8
A-FLOOR-0-A-DIMS
10
5275
20
21320
30
0
11
3475
21
21320
31
0
0
LINE
8
A-DIMS
10
5225
20
21270
30
0
11
5325
21
21370
31
0
0
LINE
8
A-FLOOR-0-A-DIMS
10
5225
20
21270
30
0
11
5325
21
21370
31
0
0
LINE
8
A-DIMS
10
3425
20
21270
30
0
11
3525
21
21370
31
0
0
LINE
8
A-FLOOR-0-A-DIMS
10
3425
20
21270
30
0
11
3525
21
21370
31
0
0
TEXT
8
A-DIMS
10
4375
20
21380
30
0
40
100
1
1.80 m
50
0
72
1
11
4375
21
21380
31
0
0
TEXT
8
A-FLOOR-0-A-DIMS
10
4375
20
21380
30
0
40
100
1
1.80 m
50
0
72
1
11
4375
21
21380
31
0
0
LINE
8
A-WINDOW
10
2060
20
9125
30
0
11
2060
21
12125
31
0
0
LINE
8
A-WINDOW
10
2020
20
9125
30
0
11
2020
21
12125
31
0
0
LINE
8
A-WINDOW
10
1980
20
9125
30
0
11
1980
21
12125
31
0
0
LINE
8
A-WINDOW
10
1940
20
9125
30
0
11
1940
21
12125
31
0
0
LINE
8
A-FLOOR-0-A-WINDOW
10
2060
20
9125
30
0
11
2060
21
12125
31
0
0
LINE
8
A-FLOOR-0-A-WINDOW
10
2020
20
9125
30
0
11
2020
21
12125
31
0
0
LINE
8
A-FLOOR-0-A-WINDOW
10
1980
20
9125
30
0
11
1980
21
12125
31
0
0
LINE
8
A-FLOOR-0-A-WINDOW
10
1940
20
9125
30
0
11
1940
21
12125
31
0
0
LINE
8
A-DIMS
10
1950
20
12125
30
0
11
1600
21
12125
31
0
0
LINE
8
A-FLOOR-0-A-DIMS
10
1950
20
12125
30
0
11
1600
21
12125
31
0
0
LINE
8
A-DIMS
10
1950
20
9125
30
0
11
1600
21
9125
31
0
0
LINE
8
A-FLOOR-0-A-DIMS
10
1950
20
9125
30
0
11
1600
21
9125
31
0
0
LINE
8
A-DIMS
10
1680
20
12125
30
0
11
1680
21
9125
31
0
0
LINE
8
A-FLOOR-0-A-DIMS
10
1680
20
12125
30
0
11
1680
21
9125
31
0
0
LINE
8
A-DIMS
10
1730
20
12075
30
0
11
1630
21
12175
31
0
0
LINE
8
A-FLOOR-0-A-DIMS
10
1730
20
12075
30
0
11
1630
21
12175
31
0
0
LINE
8
A-DIMS
10
1730
20
9075
30
0
11
1630
21
9175
31
0
0
LINE
8
A-FLOOR-0-A-DIMS
10
1730
20
9075
30
0
11
1630
21
9175
31
0
0
LINE
8
A-WINDOW
10
2060
20
14098.25
30
0
11
2060
21
16171.75
31
0
0
LINE
8
A-WINDOW
10
2020
20
14098.25
30
0
11
2020
21
16171.75
31
0
0
LINE
8
A-WINDOW
10
1980
20
14098.25
30
0
11
1980
21
16171.75
31
0
0
LINE
8
A-WINDOW
10
1940
20
14098.25
30
0
11
1940
21
16171.75
31
0
0
LINE
8
A-FLOOR-0-A-WINDOW
10
2060
20
14098.25
30
0
11
2060
21
16171.75
31
0
0
LINE
8
A-FLOOR-0-A-WINDOW
10
2020
20
14098.25
30
0
11
2020
21
16171.75
31
0
0
LINE
8
A-FLOOR-0-A-WINDOW
10
1980
20
14098.25
30
0
11
1980
21
16171.75
31
0
0
LINE
8
A-FLOOR-0-A-WINDOW
10
1940
20
14098.25
30
0
11
1940
21
16171.75
31
0
0
LINE
8
A-DIMS
10
1950
20
16171.75
30
0
11
1600
21
16171.75
31
0
0
LINE
8
A-FLOOR-0-A-DIMS
10
1950
20
16171.75
30
0
11
1600
21
16171.75
31
0
0
LINE
8
A-DIMS
10
1950
20
14098.25
30
0
11
1600
21
14098.25
31
0
0
LINE
8
A-FLOOR-0-A-DIMS
10
1950
20
14098.25
30
0
11
1600
21
14098.25
31
0
0
LINE
8
A-DIMS
10
1680
20
16171.75
30
0
11
1680
21
14098.25
31
0
0
LINE
8
A-FLOOR-0-A-DIMS
10
1680
20
16171.75
30
0
11
1680
21
14098.25
31
0
0
LINE
8
A-DIMS
10
1730
20
16121.75
30
0
11
1630
21
16221.75
31
0
0
LINE
8
A-FLOOR-0-A-DIMS
10
1730
20
16121.75
30
0
11
1630
21
16221.75
31
0
0
LINE
8
A-DIMS
10
1730
20
14048.25
30
0
11
1630
21
14148.25
31
0
0
LINE
8
A-FLOOR-0-A-DIMS
10
1730
20
14048.25
30
0
11
1630
21
14148.25
31
0
0
LINE
8
A-PARKING
10
2000
20
3500
30
0
11
8000
21
3500
31
0
0
LINE
8
A-FLOOR-0-A-PARKING
10
2000
20
3500
30
0
11
8000
21
3500
31
0
0
LINE
8
A-PARKING
10
8000
20
3500
30
0
11
8000
21
5700
31
0
0
LINE
8
A-FLOOR-0-A-PARKING
10
8000
20
3500
30
0
11
8000
21
5700
31
0
0
LINE
8
A-PARKING
10
8000
20
5700
30
0
11
2000
21
5700
31
0
0
LINE
8
A-FLOOR-0-A-PARKING
10
8000
20
5700
30
0
11
2000
21
5700
31
0
0
LINE
8
A-PARKING
10
2000
20
5700
30
0
11
2000
21
3500
31
0
0
LINE
8
A-FLOOR-0-A-PARKING
10
2000
20
5700
30
0
11
2000
21
3500
31
0
0
TEXT
8
A-PARKING
10
5000
20
4400
30
0
40
250
1
P1 F0
50
0
72
1
11
5000
21
4400
31
0
0
TEXT
8
A-FLOOR-0-A-PARKING
10
5000
20
4400
30
0
40
250
1
P1 F0
50
0
72
1
11
5000
21
4400
31
0
0
POLYLINE
8
A-PARKING
10
0
20
0
30
0
70
1
66
1
40
0
41
0
71
0
72
0
0
VERTEX
8
A-PARKING
10
2000
20
0
30
0
42
0
0
VERTEX
8
A-PARKING
10
8000
20
0
30
0
42
0
0
VERTEX
8
A-PARKING
10
8000
20
3500
30
0
42
0
0
VERTEX
8
A-PARKING
10
2000
20
3500
30
0
42
0
0
SEQEND
8
A-PARKING
0
POLYLINE
8
A-FLOOR-0-A-PARKING
10
0
20
0
30
0
70
1
66
1
40
0
41
0
71
0
72
0
0
VERTEX
8
A-FLOOR-0-A-PARKING
10
2000
20
0
30
0
42
0
0
VERTEX
8
A-FLOOR-0-A-PARKING
10
8000
20
0
30
0
42
0
0
VERTEX
8
A-FLOOR-0-A-PARKING
10
8000
20
3500
30
0
42
0
0
VERTEX
8
A-FLOOR-0-A-PARKING
10
2000
20
3500
30
0
42
0
0
SEQEND
8
A-FLOOR-0-A-PARKING
0
TEXT
8
A-PARKING
10
5000
20
1750
30
0
40
250
1
AISLE
50
0
72
1
11
5000
21
1750
31
0
0
TEXT
8
A-FLOOR-0-A-PARKING
10
5000
20
1750
30
0
40
250
1
AISLE
50
0
72
1
11
5000
21
1750
31
0
0
LINE
8
A-FURN
10
8300
20
5750
30
0
11
10100
21
5750
31
0
0
LINE
8
A-FLOOR-0-A-FURN
10
8300
20
5750
30
0
11
10100
21
5750
31
0
0
LINE
8
A-FURN
10
10100
20
5750
30
0
11
10100
21
7750
31
0
0
LINE
8
A-FLOOR-0-A-FURN
10
10100
20
5750
30
0
11
10100
21
7750
31
0
0
LINE
8
A-FURN
10
10100
20
7750
30
0
11
8300
21
7750
31
0
0
LINE
8
A-FLOOR-0-A-FURN
10
10100
20
7750
30
0
11
8300
21
7750
31
0
0
LINE
8
A-FURN
10
8300
20
7750
30
0
11
8300
21
5750
31
0
0
LINE
8
A-FLOOR-0-A-FURN
10
8300
20
7750
30
0
11
8300
21
5750
31
0
0
LINE
8
A-FURN
10
9725
20
10470
30
0
11
11525
21
10470
31
0
0
LINE
8
A-FLOOR-0-A-FURN
10
9725
20
10470
30
0
11
11525
21
10470
31
0
0
LINE
8
A-FURN
10
11525
20
10470
30
0
11
11525
21
11070
31
0
0
LINE
8
A-FLOOR-0-A-FURN
10
11525
20
10470
30
0
11
11525
21
11070
31
0
0
LINE
8
A-FURN
10
11525
20
11070
30
0
11
9725
21
11070
31
0
0
LINE
8
A-FLOOR-0-A-FURN
10
11525
20
11070
30
0
11
9725
21
11070
31
0
0
LINE
8
A-FURN
10
9725
20
11070
30
0
11
9725
21
10470
31
0
0
LINE
8
A-FLOOR-0-A-FURN
10
9725
20
11070
30
0
11
9725
21
10470
31
0
0
LINE
8
A-SANITARY
10
12450
20
12690
30
0
11
12950
21
12690
31
0
0
LINE
8
A-FLOOR-0-A-SANITARY
10
12450
20
12690
30
0
11
12950
21
12690
31
0
0
LINE
8
A-SANITARY
10
12950
20
12690
30
0
11
12950
21
13390
31
0
0
LINE
8
A-FLOOR-0-A-SANITARY
10
12950
20
12690
30
0
11
12950
21
13390
31
0
0
LINE
8
A-SANITARY
10
12950
20
13390
30
0
11
12450
21
13390
31
0
0
LINE
8
A-FLOOR-0-A-SANITARY
10
12950
20
13390
30
0
11
12450
21
13390
31
0
0
LINE
8
A-SANITARY
10
12450
20
13390
30
0
11
12450
21
12690
31
0
0
LINE
8
A-FLOOR-0-A-SANITARY
10
12450
20
13390
30
0
11
12450
21
12690
31
0
0
LINE
8
A-SANITARY
10
8300
20
12890
30
0
11
8900
21
12890
31
0
0
LINE
8
A-FLOOR-0-A-SANITARY
10
8300
20
12890
30
0
11
8900
21
12890
31
0
0
LINE
8
A-SANITARY
10
8900
20
12890
30
0
11
8900
21
13390
31
0
0
LINE
8
A-FLOOR-0-A-SANITARY
10
8900
20
12890
30
0
11
8900
21
13390
31
0
0
LINE
8
A-SANITARY
10
8900
20
13390
30
0
11
8300
21
13390
31
0
0
LINE
8
A-FLOOR-0-A-SANITARY
10
8900
20
13390
30
0
11
8300
21
13390
31
0
0
LINE
8
A-SANITARY
10
8300
20
13390
30
0
11
8300
21
12890
31
0
0
LINE
8
A-FLOOR-0-A-SANITARY
10
8300
20
13390
30
0
11
8300
21
12890
31
0
0
LINE
8
A-SANITARY
10
12050
20
11170
30
0
11
12950
21
11170
31
0
0
LINE
8
A-FLOOR-0-A-SANITARY
10
12050
20
11170
30
0
11
12950
21
11170
31
0
0
LINE
8
A-SANITARY
10
12950
20
11170
30
0
11
12950
21
12070
31
0
0
LINE
8
A-FLOOR-0-A-SANITARY
10
12950
20
11170
30
0
11
12950
21
12070
31
0
0
LINE
8
A-SANITARY
10
12950
20
12070
30
0
11
12050
21
12070
31
0
0
LINE
8
A-FLOOR-0-A-SANITARY
10
12950
20
12070
30
0
11
12050
21
12070
31
0
0
LINE
8
A-SANITARY
10
12050
20
12070
30
0
11
12050
21
11170
31
0
0
LINE
8
A-FLOOR-0-A-SANITARY
10
12050
20
12070
30
0
11
12050
21
11170
31
0
0
LINE
8
A-FURN
10
9725
20
17210
30
0
11
11525
21
17210
31
0
0
LINE
8
A-FLOOR-0-A-FURN
10
9725
20
17210
30
0
11
11525
21
17210
31
0
0
LINE
8
A-FURN
10
11525
20
17210
30
0
11
11525
21
17810
31
0
0
LINE
8
A-FLOOR-0-A-FURN
10
11525
20
17210
30
0
11
11525
21
17810
31
0
0
LINE
8
A-FURN
10
11525
20
17810
30
0
11
9725
21
17810
31
0
0
LINE
8
A-FLOOR-0-A-FURN
10
11525
20
17810
30
0
11
9725
21
17810
31
0
0
LINE
8
A-FURN
10
9725
20
17810
30
0
11
9725
21
17210
31
0
0
LINE
8
A-FLOOR-0-A-FURN
10
9725
20
17810
30
0
11
9725
21
17210
31
0
0
LINE
8
A-FURN
10
2050
20
17070
30
0
11
4650
21
17070
31
0
0
LINE
8
A-FLOOR-0-A-FURN
10
2050
20
17070
30
0
11
4650
21
17070
31
0
0
LINE
8
A-FURN
10
4650
20
17070
30
0
11
4650
21
18870
31
0
0
LINE
8
A-FLOOR-0-A-FURN
10
4650
20
17070
30
0
11
4650
21
18870
31
0
0
LINE
8
A-FURN
10
4650
20
18870
30
0
11
2050
21
18870
31
0
0
LINE
8
A-FLOOR-0-A-FURN
10
4650
20
18870
30
0
11
2050
21
18870
31
0
0
LINE
8
A-FURN
10
2050
20
18870
30
0
11
2050
21
17070
31
0
0
LINE
8
A-FLOOR-0-A-FURN
10
2050
20
18870
30
0
11
2050
21
17070
31
0
0
LINE
8
A-SANITARY
10
6200
20
7250
30
0
11
6700
21
7250
31
0
0
LINE
8
A-FLOOR-0-A-SANITARY
10
6200
20
7250
30
0
11
6700
21
7250
31
0
0
LINE
8
A-SANITARY
10
6700
20
7250
30
0
11
6700
21
7950
31
0
0
LINE
8
A-FLOOR-0-A-SANITARY
10
6700
20
7250
30
0
11
6700
21
7950
31
0
0
LINE
8
A-SANITARY
10
6700
20
7950
30
0
11
6200
21
7950
31
0
0
LINE
8
A-FLOOR-0-A-SANITARY
10
6700
20
7950
30
0
11
6200
21
7950
31
0
0
LINE
8
A-SANITARY
10
6200
20
7950
30
0
11
6200
21
7250
31
0
0
LINE
8
A-FLOOR-0-A-SANITARY
10
6200
20
7950
30
0
11
6200
21
7250
31
0
0
LINE
8
A-SANITARY
10
5470
20
7450
30
0
11
6070
21
7450
31
0
0
LINE
8
A-FLOOR-0-A-SANITARY
10
5470
20
7450
30
0
11
6070
21
7450
31
0
0
LINE
8
A-SANITARY
10
6070
20
7450
30
0
11
6070
21
7950
31
0
0
LINE
8
A-FLOOR-0-A-SANITARY
10
6070
20
7450
30
0
11
6070
21
7950
31
0
0
LINE
8
A-SANITARY
10
6070
20
7950
30
0
11
5470
21
7950
31
0
0
LINE
8
A-FLOOR-0-A-SANITARY
10
6070
20
7950
30
0
11
5470
21
7950
31
0
0
LINE
8
A-SANITARY
10
5470
20
7950
30
0
11
5470
21
7450
31
0
0
LINE
8
A-FLOOR-0-A-SANITARY
10
5470
20
7950
30
0
11
5470
21
7450
31
0
0
LINE
8
A-FURN
10
3275
20
12300
30
0
11
5475
21
12300
31
0
0
LINE
8
A-FLOOR-0-A-FURN
10
3275
20
12300
30
0
11
5475
21
12300
31
0
0
LINE
8
A-FURN
10
5475
20
12300
30
0
11
5475
21
13200
31
0
0
LINE
8
A-FLOOR-0-A-FURN
10
5475
20
12300
30
0
11
5475
21
13200
31
0
0
LINE
8
A-FURN
10
5475
20
13200
30
0
11
3275
21
13200
31
0
0
LINE
8
A-FLOOR-0-A-FURN
10
5475
20
13200
30
0
11
3275
21
13200
31
0
0
LINE
8
A-FURN
10
3275
20
13200
30
0
11
3275
21
12300
31
0
0
LINE
8
A-FLOOR-0-A-FURN
10
3275
20
13200
30
0
11
3275
21
12300
31
0
0
LINE
8
A-FURN
10
3775
20
14735
30
0
11
4975
21
14735
31
0
0
LINE
8
A-FLOOR-0-A-FURN
10
3775
20
14735
30
0
11
4975
21
14735
31
0
0
LINE
8
A-FURN
10
4975
20
14735
30
0
11
4975
21
15535
31
0
0
LINE
8
A-FLOOR-0-A-FURN
10
4975
20
14735
30
0
11
4975
21
15535
31
0
0
LINE
8
A-FURN
10
4975
20
15535
30
0
11
3775
21
15535
31
0
0
LINE
8
A-FLOOR-0-A-FURN
10
4975
20
15535
30
0
11
3775
21
15535
31
0
0
LINE
8
A-FURN
10
3775
20
15535
30
0
11
3775
21
14735
31
0
0
LINE
8
A-FLOOR-0-A-FURN
10
3775
20
15535
30
0
11
3775
21
14735
31
0
0
POLYLINE
8
A-ROOM
10
0
20
0
30
0
70
1
66
1
40
0
41
0
71
0
72
0
0
VERTEX
8
A-ROOM
10
8250
20
5700
30
0
42
0
0
VERTEX
8
A-ROOM
10
13000
20
5700
30
0
42
0
0
VERTEX
8
A-ROOM
10
13000
20
11120
30
0
42
0
0
VERTEX
8
A-ROOM
10
8250
20
11120
30
0
42
0
0
SEQEND
8
A-ROOM
0
POLYLINE
8
A-FLOOR-0-A-ROOM
10
0
20
0
30
0
70
1
66
1
40
0
41
0
71
0
72
0
0
VERTEX
8
A-FLOOR-0-A-ROOM
10
8250
20
5700
30
0
42
0
0
VERTEX
8
A-FLOOR-0-A-ROOM
10
13000
20
5700
30
0
42
0
0
VERTEX
8
A-FLOOR-0-A-ROOM
10
13000
20
11120
30
0
42
0
0
VERTEX
8
A-FLOOR-0-A-ROOM
10
8250
20
11120
30
0
42
0
0
SEQEND
8
A-FLOOR-0-A-ROOM
0
POLYLINE
8
A-ROOM
10
0
20
0
30
0
70
1
66
1
40
0
41
0
71
0
72
0
0
VERTEX
8
A-ROOM
10
8250
20
11120
30
0
42
0
0
VERTEX
8
A-ROOM
10
13000
20
11120
30
0
42
0
0
VERTEX
8
A-ROOM
10
13000
20
13440
30
0
42
0
0
VERTEX
8
A-ROOM
10
8250
20
13440
30
0
42
0
0
SEQEND
8
A-ROOM
0
POLYLINE
8
A-FLOOR-0-A-ROOM
10
0
20
0
30
0
70
1
66
1
40
0
41
0
71
0
72
0
0
VERTEX
8
A-FLOOR-0-A-ROOM
10
8250
20
11120
30
0
42
0
0
VERTEX
8
A-FLOOR-0-A-ROOM
10
13000
20
11120
30
0
42
0
0
VERTEX
8
A-FLOOR-0-A-ROOM
10
13000
20
13440
30
0
42
0
0
VERTEX
8
A-FLOOR-0-A-ROOM
10
8250
20
13440
30
0
42
0
0
SEQEND
8
A-FLOOR-0-A-ROOM
0
POLYLINE
8
A-ROOM
10
0
20
0
30
0
70
1
66
1
40
0
41
0
71
0
72
0
0
VERTEX
8
A-ROOM
10
8250
20
13440
30
0
42
0
0
VERTEX
8
A-ROOM
10
13000
20
13440
30
0
42
0
0
VERTEX
8
A-ROOM
10
13000
20
17860
30
0
42
0
0
VERTEX
8
A-ROOM
10
8250
20
17860
30
0
42
0
0
SEQEND
8
A-ROOM
0
POLYLINE
8
A-FLOOR-0-A-ROOM
10
0
20
0
30
0
70
1
66
1
40
0
41
0
71
0
72
0
0
VERTEX
8
A-FLOOR-0-A-ROOM
10
8250
20
13440
30
0
42
0
0
VERTEX
8
A-FLOOR-0-A-ROOM
10
13000
20
13440
30
0
42
0
0
VERTEX
8
A-FLOOR-0-A-ROOM
10
13000
20
17860
30
0
42
0
0
VERTEX
8
A-FLOOR-0-A-ROOM
10
8250
20
17860
30
0
42
0
0
SEQEND
8
A-FLOOR-0-A-ROOM
0
POLYLINE
8
A-ROOM
10
0
20
0
30
0
70
1
66
1
40
0
41
0
71
0
72
0
0
VERTEX
8
A-ROOM
10
2000
20
17020
30
0
42
0
0
VERTEX
8
A-ROOM
10
6750
20
17020
30
0
42
0
0
VERTEX
8
A-ROOM
10
6750
20
21000
30
0
42
0
0
VERTEX
8
A-ROOM
10
2000
20
21000
30
0
42
0
0
SEQEND
8
A-ROOM
0
POLYLINE
8
A-FLOOR-0-A-ROOM
10
0
20
0
30
0
70
1
66
1
40
0
41
0
71
0
72
0
0
VERTEX
8
A-FLOOR-0-A-ROOM
10
2000
20
17020
30
0
42
0
0
VERTEX
8
A-FLOOR-0-A-ROOM
10
6750
20
17020
30
0
42
0
0
VERTEX
8
A-FLOOR-0-A-ROOM
10
6750
20
21000
30
0
42
0
0
VERTEX
8
A-FLOOR-0-A-ROOM
10
2000
20
21000
30
0
42
0
0
SEQEND
8
A-FLOOR-0-A-ROOM
0
POLYLINE
8
A-ROOM
10
0
20
0
30
0
70
1
66
1
40
0
41
0
71
0
72
0
0
VERTEX
8
A-ROOM
10
2000
20
5700
30
0
42
0
0
VERTEX
8
A-ROOM
10
3550
20
5700
30
0
42
0
0
VERTEX
8
A-ROOM
10
3550
20
8000
30
0
42
0
0
VERTEX
8
A-ROOM
10
2000
20
8000
30
0
42
0
0
SEQEND
8
A-ROOM
0
POLYLINE
8
A-FLOOR-0-A-ROOM
10
0
20
0
30
0
70
1
66
1
40
0
41
0
71
0
72
0
0
VERTEX
8
A-FLOOR-0-A-ROOM
10
2000
20
5700
30
0
42
0
0
VERTEX
8
A-FLOOR-0-A-ROOM
10
3550
20
5700
30
0
42
0
0
VERTEX
8
A-FLOOR-0-A-ROOM
10
3550
20
8000
30
0
42
0
0
VERTEX
8
A-FLOOR-0-A-ROOM
10
2000
20
8000
30
0
42
0
0
SEQEND
8
A-FLOOR-0-A-ROOM
0
POLYLINE
8
A-ROOM
10
0
20
0
30
0
70
1
66
1
40
0
41
0
71
0
72
0
0
VERTEX
8
A-ROOM
10
3550
20
5700
30
0
42
0
0
VERTEX
8
A-ROOM
10
5420
20
5700
30
0
42
0
0
VERTEX
8
A-ROOM
10
5420
20
8000
30
0
42
0
0
VERTEX
8
A-ROOM
10
3550
20
8000
30
0
42
0
0
SEQEND
8
A-ROOM
0
POLYLINE
8
A-FLOOR-0-A-ROOM
10
0
20
0
30
0
70
1
66
1
40
0
41
0
71
0
72
0
0
VERTEX
8
A-FLOOR-0-A-ROOM
10
3550
20
5700
30
0
42
0
0
VERTEX
8
A-FLOOR-0-A-ROOM
10
5420
20
5700
30
0
42
0
0
VERTEX
8
A-FLOOR-0-A-ROOM
10
5420
20
8000
30
0
42
0
0
VERTEX
8
A-FLOOR-0-A-ROOM
10
3550
20
8000
30
0
42
0
0
SEQEND
8
A-FLOOR-0-A-ROOM
0
POLYLINE
8
A-ROOM
10
0
20
0
30
0
70
1
66
1
40
0
41
0
71
0
72
0
0
VERTEX
8
A-ROOM
10
5420
20
5700
30
0
42
0
0
VERTEX
8
A-ROOM
10
6750
20
5700
30
0
42
0
0
VERTEX
8
A-ROOM
10
6750
20
8000
30
0
42
0
0
VERTEX
8
A-ROOM
10
5420
20
8000
30
0
42
0
0
SEQEND
8
A-ROOM
0
POLYLINE
8
A-FLOOR-0-A-ROOM
10
0
20
0
30
0
70
1
66
1
40
0
41
0
71
0
72
0
0
VERTEX
8
A-FLOOR-0-A-ROOM
10
5420
20
5700
30
0
42
0
0
VERTEX
8
A-FLOOR-0-A-ROOM
10
6750
20
5700
30
0
42
0
0
VERTEX
8
A-FLOOR-0-A-ROOM
10
6750
20
8000
30
0
42
0
0
VERTEX
8
A-FLOOR-0-A-ROOM
10
5420
20
8000
30
0
42
0
0
SEQEND
8
A-FLOOR-0-A-ROOM
0
POLYLINE
8
A-ROOM
10
0
20
0
30
0
70
1
66
1
40
0
41
0
71
0
72
0
0
VERTEX
8
A-ROOM
10
2000
20
8000
30
0
42
0
0
VERTEX
8
A-ROOM
10
6750
20
8000
30
0
42
0
0
VERTEX
8
A-ROOM
10
6750
20
13250
30
0
42
0
0
VERTEX
8
A-ROOM
10
2000
20
13250
30
0
42
0
0
SEQEND
8
A-ROOM
0
POLYLINE
8
A-FLOOR-0-A-ROOM
10
0
20
0
30
0
70
1
66
1
40
0
41
0
71
0
72
0
0
VERTEX
8
A-FLOOR-0-A-ROOM
10
2000
20
8000
30
0
42
0
0
VERTEX
8
A-FLOOR-0-A-ROOM
10
6750
20
8000
30
0
42
0
0
VERTEX
8
A-FLOOR-0-A-ROOM
10
6750
20
13250
30
0
42
0
0
VERTEX
8
A-FLOOR-0-A-ROOM
10
2000
20
13250
30
0
42
0
0
SEQEND
8
A-FLOOR-0-A-ROOM
0
POLYLINE
8
A-ROOM
10
0
20
0
30
0
70
1
66
1
40
0
41
0
71
0
72
0
0
VERTEX
8
A-ROOM
10
2000
20
13250
30
0
42
0
0
VERTEX
8
A-ROOM
10
6750
20
13250
30
0
42
0
0
VERTEX
8
A-ROOM
10
6750
20
17020
30
0
42
0
0
VERTEX
8
A-ROOM
10
2000
20
17020
30
0
42
0
0
SEQEND
8
A-ROOM
0
POLYLINE
8
A-FLOOR-0-A-ROOM
10
0
20
0
30
0
70
1
66
1
40
0
41
0
71
0
72
0
0
VERTEX
8
A-FLOOR-0-A-ROOM
10
2000
20
13250
30
0
42
0
0
VERTEX
8
A-FLOOR-0-A-ROOM
10
6750
20
13250
30
0
42
0
0
VERTEX
8
A-FLOOR-0-A-ROOM
10
6750
20
17020
30
0
42
0
0
VERTEX
8
A-FLOOR-0-A-ROOM
10
2000
20
17020
30
0
42
0
0
SEQEND
8
A-FLOOR-0-A-ROOM
0
POLYLINE
8
A-ROOM
10
0
20
0
30
0
70
1
66
1
40
0
41
0
71
0
72
0
0
VERTEX
8
A-ROOM
10
6750
20
5700
30
0
42
0
0
VERTEX
8
A-ROOM
10
8250
20
5700
30
0
42
0
0
VERTEX
8
A-ROOM
10
8250
20
21000
30
0
42
0
0
VERTEX
8
A-ROOM
10
6750
20
21000
30
0
42
0
0
SEQEND
8
A-ROOM
0
POLYLINE
8
A-FLOOR-0-A-ROOM
10
0
20
0
30
0
70
1
66
1
40
0
41
0
71
0
72
0
0
VERTEX
8
A-FLOOR-0-A-ROOM
10
6750
20
5700
30
0
42
0
0
VERTEX
8
A-FLOOR-0-A-ROOM
10
8250
20
5700
30
0
42
0
0
VERTEX
8
A-FLOOR-0-A-ROOM
10
8250
20
21000
30
0
42
0
0
VERTEX
8
A-FLOOR-0-A-ROOM
10
6750
20
21000
30
0
42
0
0
SEQEND
8
A-FLOOR-0-A-ROOM
0
TEXT
8
A-ROOM
10
10625.18
20
8627
30
0
40
350
1
Master Bedroom
50
0
72
1
11
10625.18
21
8627
31
0
0
TEXT
8
A-FLOOR-0-A-ROOM
10
10625.18
20
8627
30
0
40
350
1
Master Bedroom
50
0
72
1
11
10625.18
21
8627
31
0
0
TEXT
8
A-ROOM
10
10625.18
20
8193
30
0
40
245
1
25.7 m2
50
0
72
1
11
10625.18
21
8193
31
0
0
TEXT
8
A-FLOOR-0-A-ROOM
10
10625.18
20
8193
30
0
40
245
1
25.7 m2
50
0
72
1
11
10625.18
21
8193
31
0
0
TEXT
8
A-ROOM
10
10625
20
12497
30
0
40
350
1
Master Bathroom
50
0
72
1
11
10625
21
12497
31
0
0
TEXT
8
A-FLOOR-0-A-ROOM
10
10625
20
12497
30
0
40
350
1
Master Bathroom
50
0
72
1
11
10625
21
12497
31
0
0
TEXT
8
A-ROOM
10
10625
20
12063
30
0
40
245
1
11.0 m2
50
0
72
1
11
10625
21
12063
31
0
0
TEXT
8
A-FLOOR-0-A-ROOM
10
10625
20
12063
30
0
40
245
1
11.0 m2
50
0
72
1
11
10625
21
12063
31
0
0
TEXT
8
A-ROOM
10
10625
20
15867
30
0
40
350
1
Bedroom 1
50
0
72
1
11
10625
21
15867
31
0
0
TEXT
8
A-FLOOR-0-A-ROOM
10
10625
20
15867
30
0
40
350
1
Bedroom 1
50
0
72
1
11
10625
21
15867
31
0
0
TEXT
8
A-ROOM
10
10625
20
15433
30
0
40
245
1
21.0 m2
50
0
72
1
11
10625
21
15433
31
0
0
TEXT
8
A-FLOOR-0-A-ROOM
10
10625
20
15433
30
0
40
245
1
21.0 m2
50
0
72
1
11
10625
21
15433
31
0
0
TEXT
8
A-ROOM
10
4375
20
19227
30
0
40
350
1
Kitchen
50
0
72
1
11
4375
21
19227
31
0
0
TEXT
8
A-FLOOR-0-A-ROOM
10
4375
20
19227
30
0
40
350
1
Kitchen
50
0
72
1
11
4375
21
19227
31
0
0
TEXT
8
A-ROOM
10
4375
20
18793
30
0
40
245
1
18.9 m2
50
0
72
1
11
4375
21
18793
31
0
0
TEXT
8
A-FLOOR-0-A-ROOM
10
4375
20
18793
30
0
40
245
1
18.9 m2
50
0
72
1
11
4375
21
18793
31
0
0
TEXT
8
A-ROOM
10
2990.28
20
6850
30
0
40
347.22
1
Entrance
50
90
72
1
11
2990.28
21
6850
31
0
0
TEXT
8
A-FLOOR-0-A-ROOM
10
2990.28
20
6850
30
0
40
347.22
1
Entrance
50
90
72
1
11
2990.28
21
6850
31
0
0
TEXT
8
A-ROOM
10
2559.72
20
6850
30
0
40
243.06
1
3.6 m2
50
90
72
1
11
2559.72
21
6850
31
0
0
TEXT
8
A-FLOOR-0-A-ROOM
10
2559.72
20
6850
30
0
40
243.06
1
3.6 m2
50
90
72
1
11
2559.72
21
6850
31
0
0
TEXT
8
A-ROOM
10
4485
20
7067
30
0
40
350
1
Foyer
50
0
72
1
11
4485
21
7067
31
0
0
TEXT
8
A-FLOOR-0-A-ROOM
10
4485
20
7067
30
0
40
350
1
Foyer
50
0
72
1
11
4485
21
7067
31
0
0
TEXT
8
A-ROOM
10
4485
20
6633
30
0
40
245
1
4.3 m2
50
0
72
1
11
4485
21
6633
31
0
0
TEXT
8
A-FLOOR-0-A-ROOM
10
4485
20
6633
30
0
40
245
1
4.3 m2
50
0
72
1
11
4485
21
6633
31
0
0
TEXT
8
A-ROOM
10
6300.28
20
6850
30
0
40
347.22
1
Guest WC
50
90
72
1
11
6300.28
21
6850
31
0
0
TEXT
8
A-FLOOR-0-A-ROOM
10
6300.28
20
6850
30
0
40
347.22
1
Guest WC
50
90
72
1
11
6300.28
21
6850
31
0
0
TEXT
8
A-ROOM
10
5869.72
20
6850
30
0
40
243.06
1
3.1 m2
50
90
72
1
11
5869.72
21
6850
31
0
0
TEXT
8
A-FLOOR-0-A-ROOM
10
5869.72
20
6850
30
0
40
243.06
1
3.1 m2
50
90
72
1
11
5869.72
21
6850
31
0
0
TEXT
8
A-ROOM
10
4375
20
10842
30
0
40
350
1
Living Room
50
0
72
1
11
4375
21
10842
31
0
0
TEXT
8
A-FLOOR-0-A-ROOM
10
4375
20
10842
30
0
40
350
1
Living Room
50
0
72
1
11
4375
21
10842
31
0
0
TEXT
8
A-ROOM
10
4375
20
10408
30
0
40
245
1
24.9 m2
50
0
72
1
11
4375
21
10408
31
0
0
TEXT
8
A-FLOOR-0-A-ROOM
10
4375
20
10408
30
0
40
245
1
24.9 m2
50
0
72
1
11
4375
21
10408
31
0
0
TEXT
8
A-ROOM
10
4375
20
15352.25
30
0
40
350
1
Dining
50
0
72
1
11
4375
21
15352.25
31
0
0
TEXT
8
A-FLOOR-0-A-ROOM
10
4375
20
15352.25
30
0
40
350
1
Dining
50
0
72
1
11
4375
21
15352.25
31
0
0
TEXT
8
A-ROOM
10
4375
20
14918.25
30
0
40
245
1
17.9 m2
50
0
72
1
11
4375
21
14918.25
31
0
0
TEXT
8
A-FLOOR-0-A-ROOM
10
4375
20
14918.25
30
0
40
245
1
17.9 m2
50
0
72
1
11
4375
21
14918.25
31
0
0
TEXT
8
A-ROOM
10
7717
20
13350
30
0
40
350
1
Corridor
50
90
72
1
11
7717
21
13350
31
0
0
TEXT
8
A-FLOOR-0-A-ROOM
10
7717
20
13350
30
0
40
350
1
Corridor
50
90
72
1
11
7717
21
13350
31
0
0
TEXT
8
A-ROOM
10
7283
20
13350
30
0
40
245
1
23.0 m2
50
90
72
1
11
7283
21
13350
31
0
0
TEXT
8
A-FLOOR-0-A-ROOM
10
7283
20
13350
30
0
40
245
1
23.0 m2
50
90
72
1
11
7283
21
13350
31
0
0
LINE
8
A-GRID
10
2000
20
1000
30
0
11
2000
21
21500
31
0
0
LINE
8
A-AXIS
10
7500
20
1000
30
0
11
7500
21
21500
31
0
0
LINE
8
A-GRID
10
13000
20
1000
30
0
11
13000
21
21500
31
0
0
LINE
8
A-GRID
10
1500
20
1500
30
0
11
13500
21
1500
31
0
0
LINE
8
A-AXIS
10
1500
20
11250
30
0
11
13500
21
11250
31
0
0
LINE
8
A-GRID
10
1500
20
21000
30
0
11
13500
21
21000
31
0
0
TEXT
8
A-AXIS-TEXT
10
1300
20
21300
30
0
40
250
1
A
50
0
72
1
11
1300
21
21300
31
0
0
TEXT
8
A-AXIS-TEXT
10
7500
20
21300
30
0
40
250
1
B
50
0
72
1
11
7500
21
21300
31
0
0
TEXT
8
A-AXIS-TEXT
10
13300
20
21300
30
0
40
250
1
C
50
0
72
0
11
13300
21
21300
31
0
0
TEXT
8
A-AXIS-TEXT
10
1300
20
800
30
0
40
250
1
1
50
0
72
2
11
1300
21
800
31
0
0
TEXT
8
A-AXIS-TEXT
10
1300
20
11250
30
0
40
250
1
2
50
0
72
2
11
1300
21
11250
31
0
0
LINE
8
A-DIMS
10
2000
20
1400
30
0
11
2000
21
350
31
0
0
LINE
8
A-FLOOR-0-A-DIMS
10
2000
20
1400
30
0
11
2000
21
350
31
0
0
LINE
8
A-DIMS
10
13000
20
1400
30
0
11
13000
21
350
31
0
0
LINE
8
A-FLOOR-0-A-DIMS
10
13000
20
1400
30
0
11
13000
21
350
31
0
0
LINE
8
A-DIMS
10
2000
20
500
30
0
11
13000
21
500
31
0
0
LINE
8
A-FLOOR-0-A-DIMS
10
2000
20
500
30
0
11
13000
21
500
31
0
0
LINE
8
A-DIMS
10
1950
20
450
30
0
11
2050
21
550
31
0
0
LINE
8
A-FLOOR-0-A-DIMS
10
1950
20
450
30
0
11
2050
21
550
31
0
0
LINE
8
A-DIMS
10
12950
20
450
30
0
11
13050
21
550
31
0
0
LINE
8
A-FLOOR-0-A-DIMS
10
12950
20
450
30
0
11
13050
21
550
31
0
0
TEXT
8
A-DIMS
10
7500
20
180
30
0
40
200
1
11.00 m F0
50
0
72
1
11
7500
21
180
31
0
0
TEXT
8
A-FLOOR-0-A-DIMS
10
7500
20
180
30
0
40
200
1
11.00 m F0
50
0
72
1
11
7500
21
180
31
0
0
LINE
8
A-DIMS
10
1900
20
1500
30
0
11
850
21
1500
31
0
0
LINE
8
A-FLOOR-0-A-DIMS
10
1900
20
1500
30
0
11
850
21
1500
31
0
0
LINE
8
A-DIMS
10
1900
20
21000
30
0
11
850
21
21000
31
0
0
LINE
8
A-FLOOR-0-A-DIMS
10
1900
20
21000
30
0
11
850
21
21000
31
0
0
LINE
8
A-DIMS
10
1000
20
1500
30
0
11
1000
21
21000
31
0
0
LINE
8
A-FLOOR-0-A-DIMS
10
1000
20
1500
30
0
11
1000
21
21000
31
0
0
LINE
8
A-DIMS
10
1050
20
1450
30
0
11
950
21
1550
31
0
0
LINE
8
A-FLOOR-0-A-DIMS
10
1050
20
1450
30
0
11
950
21
1550
31
0
0
LINE
8
A-DIMS
10
1050
20
20950
30
0
11
950
21
21050
31
0
0
LINE
8
A-FLOOR-0-A-DIMS
10
1050
20
20950
30
0
11
950
21
21050
31
0
0
TEXT
8
A-DIMS
10
700
20
11250
30
0
40
200
1
19.50 m
50
0
72
2
11
700
21
11250
31
0
0
TEXT
8
A-FLOOR-0-A-DIMS
10
700
20
11250
30
0
40
200
1
19.50 m
50
0
72
2
11
700
21
11250
31
0
0
LINE
8
A-DIMS
10
8250
20
5520
30
0
11
13000
21
5520
31
0
0
LINE
8
A-FLOOR-0-A-DIMS
10
8250
20
5520
30
0
11
13000
21
5520
31
0
0
LINE
8
A-DIMS
10
8200
20
5470
30
0
11
8300
21
5570
31
0
0
LINE
8
A-FLOOR-0-A-DIMS
10
8200
20
5470
30
0
11
8300
21
5570
31
0
0
LINE
8
A-DIMS
10
12950
20
5470
30
0
11
13050
21
5570
31
0
0
LINE
8
A-FLOOR-0-A-DIMS
10
12950
20
5470
30
0
11
13050
21
5570
31
0
0
TEXT
8
A-DIMS
10
10625
20
5360
30
0
40
120
1
4.75 m
50
0
72
1
11
10625
21
5360
31
0
0
TEXT
8
A-FLOOR-0-A-DIMS
10
10625
20
5360
30
0
40
120
1
4.75 m
50
0
72
1
11
10625
21
5360
31
0
0
LINE
8
A-DIMS
10
1820
20
17020
30
0
11
1820
21
21000
31
0
0
LINE
8
A-FLOOR-0-A-DIMS
10
1820
20
17020
30
0
11
1820
21
21000
31
0
0
LINE
8
A-DIMS
10
1870
20
16970
30
0
11
1770
21
17070
31
0
0
LINE
8
A-FLOOR-0-A-DIMS
10
1870
20
16970
30
0
11
1770
21
17070
31
0
0
LINE
8
A-DIMS
10
1870
20
20950
30
0
11
1770
21
21050
31
0
0
LINE
8
A-FLOOR-0-A-DIMS
10
1870
20
20950
30
0
11
1770
21
21050
31
0
0
TEXT
8
A-DIMS
10
1620
20
19010
30
0
40
120
1
3.98 m
50
0
72
2
11
1620
21
19010
31
0
0
TEXT
8
A-FLOOR-0-A-DIMS
10
1620
20
19010
30
0
40
120
1
3.98 m
50
0
72
2
11
1620
21
19010
31
0
0
LINE
8
A-DIMS
10
1820
20
8000
30
0
11
1820
21
13250
31
0
0
LINE
8
A-FLOOR-0-A-DIMS
10
1820
20
8000
30
0
11
1820
21
13250
31
0
0
LINE
8
A-DIMS
10
1870
20
7950
30
0
11
1770
21
8050
31
0
0
LINE
8
A-FLOOR-0-A-DIMS
10
1870
20
7950
30
0
11
1770
21
8050
31
0
0
LINE
8
A-DIMS
10
1870
20
13200
30
0
11
1770
21
13300
31
0
0
LINE
8
A-FLOOR-0-A-DIMS
10
1870
20
13200
30
0
11
1770
21
13300
31
0
0
TEXT
8
A-DIMS
10
1620
20
10625
30
0
40
120
1
5.25 m
50
0
72
2
11
1620
21
10625
31
0
0
TEXT
8
A-FLOOR-0-A-DIMS
10
1620
20
10625
30
0
40
120
1
5.25 m
50
0
72
2
11
1620
21
10625
31
0
0
LINE
8
A-DIMS
10
1820
20
13250
30
0
11
1820
21
17020
31
0
0
LINE
8
A-FLOOR-0-A-DIMS
10
1820
20
13250
30
0
11
1820
21
17020
31
0
0
TEXT
8
A-DIMS
10
1620
20
15135
30
0
40
120
1
3.77 m
50
0
72
2
11
1620
21
15135
31
0
0
TEXT
8
A-FLOOR-0-A-DIMS
10
1620
20
15135
30
0
40
120
1
3.77 m
50
0
72
2
11
1620
21
15135
31
0
0
LINE
8
A-DIMS
10
0
20
-600
30
0
11
0
21
-2050
31
0
0
LINE
8
A-FLOOR-0-A-DIMS
10
0
20
-600
30
0
11
0
21
-2050
31
0
0
LINE
8
A-DIMS
10
15000
20
-600
30
0
11
15000
21
-2050
31
0
0
LINE
8
A-FLOOR-0-A-DIMS
10
15000
20
-600
30
0
11
15000
21
-2050
31
0
0
LINE
8
A-DIMS
10
0
20
-1900
30
0
11
15000
21
-1900
31
0
0
LINE
8
A-FLOOR-0-A-DIMS
10
0
20
-1900
30
0
11
15000
21
-1900
31
0
0
LINE
8
A-DIMS
10
-50
20
-1950
30
0
11
50
21
-1850
31
0
0
LINE
8
A-FLOOR-0-A-DIMS
10
-50
20
-1950
30
0
11
50
21
-1850
31
0
0
LINE
8
A-DIMS
10
14950
20
-1950
30
0
11
15050
21
-1850
31
0
0
LINE
8
A-FLOOR-0-A-DIMS
10
14950
20
-1950
30
0
11
15050
21
-1850
31
0
0
TEXT
8
A-DIMS
10
7500
20
-2240
30
0
40
220
1
SITE 15.00 m
50
0
72
1
11
7500
21
-2240
31
0
0
TEXT
8
A-FLOOR-0-A-DIMS
10
7500
20
-2240
30
0
40
220
1
SITE 15.00 m
50
0
72
1
11
7500
21
-2240
31
0
0
LINE
8
A-DIMS
10
-600
20
0
30
0
11
-2500
21
0
31
0
0
LINE
8
A-FLOOR-0-A-DIMS
10
-600
20
0
30
0
11
-2500
21
0
31
0
0
LINE
8
A-DIMS
10
-600
20
24000
30
0
11
-2500
21
24000
31
0
0
LINE
8
A-FLOOR-0-A-DIMS
10
-600
20
24000
30
0
11
-2500
21
24000
31
0
0
LINE
8
A-DIMS
10
-1900
20
0
30
0
11
-1900
21
24000
31
0
0
LINE
8
A-FLOOR-0-A-DIMS
10
-1900
20
0
30
0
11
-1900
21
24000
31
0
0
LINE
8
A-DIMS
10
-1850
20
-50
30
0
11
-1950
21
50
31
0
0
LINE
8
A-FLOOR-0-A-DIMS
10
-1850
20
-50
30
0
11
-1950
21
50
31
0
0
LINE
8
A-DIMS
10
-1850
20
23950
30
0
11
-1950
21
24050
31
0
0
LINE
8
A-FLOOR-0-A-DIMS
10
-1850
20
23950
30
0
11
-1950
21
24050
31
0
0
TEXT
8
A-DIMS
10
-2240
20
12000
30
0
40
220
1
SITE 24.00 m
50
0
72
2
11
-2240
21
12000
31
0
0
TEXT
8
A-FLOOR-0-A-DIMS
10
-2240
20
12000
30
0
40
220
1
SITE 24.00 m
50
0
72
2
11
-2240
21
12000
31
0
0
LINE
8
A-NORTH
10
11800
20
20700
30
0
11
11800
21
21500
31
0
0
LINE
8
A-NORTH
10
11800
20
21500
30
0
11
11650
21
21200
31
0
0
LINE
8
A-NORTH
10
11800
20
21500
30
0
11
11950
21
21200
31
0
0
LINE
8
A-NORTH
10
11960
20
20700
30
0
11
11954.55
21
20741.41
31
0
0
LINE
8
A-NORTH
10
11954.55
20
20741.41
30
0
11
11938.56
21
20780
31
0
0
LINE
8
A-NORTH
10
11938.56
20
20780
30
0
11
11913.14
21
20813.14
31
0
0
LINE
8
A-NORTH
10
11913.14
20
20813.14
30
0
11
11880
21
20838.56
31
0
0
LINE
8
A-NORTH
10
11880
20
20838.56
30
0
11
11841.41
21
20854.55
31
0
0
LINE
8
A-NORTH
10
11841.41
20
20854.55
30
0
11
11800
21
20860
31
0
0
LINE
8
A-NORTH
10
11800
20
20860
30
0
11
11758.59
21
20854.55
31
0
0
LINE
8
A-NORTH
10
11758.59
20
20854.55
30
0
11
11720
21
20838.56
31
0
0
LINE
8
A-NORTH
10
11720
20
20838.56
30
0
11
11686.86
21
20813.14
31
0
0
LINE
8
A-NORTH
10
11686.86
20
20813.14
30
0
11
11661.44
21
20780
31
0
0
LINE
8
A-NORTH
10
11661.44
20
20780
30
0
11
11645.45
21
20741.41
31
0
0
LINE
8
A-NORTH
10
11645.45
20
20741.41
30
0
11
11640
21
20700
31
0
0
LINE
8
A-NORTH
10
11640
20
20700
30
0
11
11645.45
21
20658.59
31
0
0
LINE
8
A-NORTH
10
11645.45
20
20658.59
30
0
11
11661.44
21
20620
31
0
0
LINE
8
A-NORTH
10
11661.44
20
20620
30
0
11
11686.86
21
20586.86
31
0
0
LINE
8
A-NORTH
10
11686.86
20
20586.86
30
0
11
11720
21
20561.44
31
0
0
LINE
8
A-NORTH
10
11720
20
20561.44
30
0
11
11758.59
21
20545.45
31
0
0
LINE
8
A-NORTH
10
11758.59
20
20545.45
30
0
11
11800
21
20540
31
0
0
LINE
8
A-NORTH
10
11800
20
20540
30
0
11
11841.41
21
20545.45
31
0
0
LINE
8
A-NORTH
10
11841.41
20
20545.45
30
0
11
11880
21
20561.44
31
0
0
LINE
8
A-NORTH
10
11880
20
20561.44
30
0
11
11913.14
21
20586.86
31
0
0
LINE
8
A-NORTH
10
11913.14
20
20586.86
30
0
11
11938.56
21
20620
31
0
0
LINE
8
A-NORTH
10
11938.56
20
20620
30
0
11
11954.55
21
20658.59
31
0
0
LINE
8
A-NORTH
10
11954.55
20
20658.59
30
0
11
11960
21
20700
31
0
0
TEXT
8
A-NORTH
10
11800
20
21700
30
0
40
250
1
N
50
0
72
1
11
11800
21
21700
31
0
0
LINE
8
A-TITLE
10
500
20
-4600
30
0
11
14500
21
-4600
31
0
0
LINE
8
A-TITLE
10
14500
20
-4600
30
0
11
14500
21
22500
31
0
0
LINE
8
A-TITLE
10
14500
20
22500
30
0
11
500
21
22500
31
0
0
LINE
8
A-TITLE
10
500
20
22500
30
0
11
500
21
-4600
31
0
0
LINE
8
A-TITLE
10
3500
20
-4450
30
0
11
14350
21
-4450
31
0
0
LINE
8
A-TITLE
10
14350
20
-4450
30
0
11
14350
21
-2050
31
0
0
LINE
8
A-TITLE
10
14350
20
-2050
30
0
11
3500
21
-2050
31
0
0
LINE
8
A-TITLE
10
3500
20
-2050
30
0
11
3500
21
-4450
31
0
0
LINE
8
A-TITLE
10
3750
20
-2800
30
0
11
14100
21
-2800
31
0
0
TEXT
8
A-TITLE
10
3800
20
-2600
30
0
40
320
1
rect-final
50
0
72
0
11
3800
21
-2600
31
0
0
TEXT
8
A-TITLE
10
3800
20
-3150
30
0
40
180
1
FLOOR PLANS - 1 FLOOR(S) | STRATEGY daylight-orientation
50
0
72
0
11
3800
21
-3150
31
0
0
TEXT
8
A-TITLE
10
3800
20
-3550
30
0
40
160
1
UNITS: MILLIMETRES | MODEL SPACE 1:1 | PLOT SCALE 1:100 @ A1
50
0
72
0
11
3800
21
-3550
31
0
0
TEXT
8
A-TITLE
10
3800
20
-3950
30
0
40
160
1
NET FLOOR AREA (SUM OF ROOMS, ALL FLOORS): 153.4 m2 | SITE 15.0x24.0 m
50
0
72
0
11
3800
21
-3950
31
0
0
TEXT
8
A-TITLE
10
3800
20
-4330
30
0
40
140
1
ARCHGENIUS - AUTOMATED CAD DRAFT - PROFESSIONAL REVIEW REQUIRED
50
0
72
0
11
3800
21
-4330
31
0
0
TEXT
8
A-TITLE
10
800
20
-3750
30
0
40
200
1
LEGEND
50
0
72
0
11
800
21
-3750
31
0
0
LINE
8
A-WALL-EXT
10
800
20
-4100
30
0
11
1700
21
-4100
31
0
0
LINE
8
A-FLOOR-0-A-WALL-EXT
10
800
20
-4100
30
0
11
1700
21
-4100
31
0
0
TEXT
8
A-TITLE
10
1950
20
-4160
30
0
40
90
1
A-WALL-EXT - WALL, EXTERIOR
50
0
72
0
11
1950
21
-4160
31
0
0
LINE
8
A-WALL-INT
10
800
20
-3800
30
0
11
1700
21
-3800
31
0
0
LINE
8
A-FLOOR-0-A-WALL-INT
10
800
20
-3800
30
0
11
1700
21
-3800
31
0
0
TEXT
8
A-TITLE
10
1950
20
-3860
30
0
40
90
1
A-WALL-INT - WALL, INTERIOR
50
0
72
0
11
1950
21
-3860
31
0
0
LINE
8
A-WALL-CORE
10
800
20
-3500
30
0
11
1700
21
-3500
31
0
0
LINE
8
A-FLOOR-0-A-WALL-CORE
10
800
20
-3500
30
0
11
1700
21
-3500
31
0
0
TEXT
8
A-TITLE
10
1950
20
-3560
30
0
40
90
1
A-WALL-CORE - WALL, CORE
50
0
72
0
11
1950
21
-3560
31
0
0
LINE
8
A-DOOR
10
800
20
-3200
30
0
11
1700
21
-3200
31
0
0
LINE
8
A-FLOOR-0-A-DOOR
10
800
20
-3200
30
0
11
1700
21
-3200
31
0
0
TEXT
8
A-TITLE
10
1950
20
-3260
30
0
40
90
1
A-DOOR - DOOR + SWING
50
0
72
0
11
1950
21
-3260
31
0
0
LINE
8
A-WINDOW
10
800
20
-2900
30
0
11
1700
21
-2900
31
0
0
LINE
8
A-FLOOR-0-A-WINDOW
10
800
20
-2900
30
0
11
1700
21
-2900
31
0
0
TEXT
8
A-TITLE
10
1950
20
-2960
30
0
40
90
1
A-WINDOW - WINDOW
50
0
72
0
11
1950
21
-2960
31
0
0
LINE
8
A-STAIR
10
800
20
-2600
30
0
11
1700
21
-2600
31
0
0
LINE
8
A-FLOOR-0-A-STAIR
10
800
20
-2600
30
0
11
1700
21
-2600
31
0
0
TEXT
8
A-TITLE
10
1950
20
-2660
30
0
40
90
1
A-STAIR - STAIR / LANDING
50
0
72
0
11
1950
21
-2660
31
0
0
LINE
8
A-PARKING
10
800
20
-2300
30
0
11
1700
21
-2300
31
0
0
LINE
8
A-FLOOR-0-A-PARKING
10
800
20
-2300
30
0
11
1700
21
-2300
31
0
0
TEXT
8
A-TITLE
10
1950
20
-2360
30
0
40
90
1
A-PARKING - PARKING STALL
50
0
72
0
11
1950
21
-2360
31
0
0
LINE
8
A-DIMS
10
800
20
-2000
30
0
11
1700
21
-2000
31
0
0
LINE
8
A-FLOOR-0-A-DIMS
10
800
20
-2000
30
0
11
1700
21
-2000
31
0
0
TEXT
8
A-TITLE
10
1950
20
-2060
30
0
40
90
1
A-DIMS - DIMENSIONS (m)
50
0
72
0
11
1950
21
-2060
31
0
0
LINE
8
A-TEXT
10
800
20
-1700
30
0
11
1700
21
-1700
31
0
0
LINE
8
A-FLOOR-0-A-TEXT
10
800
20
-1700
30
0
11
1700
21
-1700
31
0
0
TEXT
8
A-TITLE
10
1950
20
-1760
30
0
40
90
1
A-TEXT - GENERAL NOTES
50
0
72
0
11
1950
21
-1760
31
0
0
LINE
8
A-SITE
10
800
20
-1400
30
0
11
1700
21
-1400
31
0
0
LINE
8
A-FLOOR-0-A-SITE
10
800
20
-1400
30
0
11
1700
21
-1400
31
0
0
TEXT
8
A-TITLE
10
1950
20
-1460
30
0
40
90
1
A-SITE - SITE BOUNDARY
50
0
72
0
11
1950
21
-1460
31
0
0
LINE
8
A-TITLE
10
600
20
-4450
30
0
11
600
21
-750
31
0
0
ENDSEC
0
EOF
