0
SECTION
2
HEADER
9
$ACADVER
1
AC1009
0
ENDSEC
0
SECTION
2
TABLES
0
TABLE
2
LTYPE
70
1
0
LTYPE
2
CONTINUOUS
70
0
3
Solid line
72
65
73
0
40
0.0
0
ENDTAB
0
TABLE
2
LAYER
70
1
0
LAYER
2
0
70
0
62
7
6
CONTINUOUS
0
ENDTAB
0
TABLE
2
STYLE
70
1
0
STYLE
2
STANDARD
70
0
40
0.0
41
1.0
50
0.0
71
0
42
0.2
3
txt
4

0
ENDTAB
0
ENDSEC
0
SECTION
2
BLOCKS
0
BLOCK
2
*Model_Space
70
0
10
0.0
20
0.0
30
0.0
0
ENDBLK
0
ENDSEC
0
SECTION
2
ENTITIES
0
POLYLINE
8
A-BLDG-OUT
10
0
20
0
30
0
70
1
66
1
40
0
41
0
71
0
72
0
0
VERTEX
8
A-BLDG-OUT
10
1000
20
1000
30
0
42
0
0
VERTEX
8
A-BLDG-OUT
10
14500
20
1000
30
0
42
0
0
VERTEX
8
A-BLDG-OUT
10
14500
20
21000
30
0
42
0
0
VERTEX
8
A-BLDG-OUT
10
1000
20
21000
30
0
42
0
0
SEQEND
8
A-BLDG-OUT
0
POLYLINE
8
A-SETBACK
10
0
20
0
30
0
70
1
66
1
40
0
41
0
71
0
72
0
0
VERTEX
8
A-SETBACK
10
1000
20
1000
30
0
42
0
0
VERTEX
8
A-SETBACK
10
14500
20
1000
30
0
42
0
0
VERTEX
8
A-SETBACK
10
14500
20
21000
30
0
42
0
0
VERTEX
8
A-SETBACK
10
1000
20
21000
30
0
42
0
0
SEQEND
8
A-SETBACK
0
POLYLINE
8
A-FLOOR-0-A-BLDG-OUT
10
0
20
0
30
0
70
1
66
1
40
0
41
0
71
0
72
0
0
VERTEX
8
A-FLOOR-0-A-BLDG-OUT
10
1000
20
1000
30
0
42
0
0
VERTEX
8
A-FLOOR-0-A-BLDG-OUT
10
14500
20
1000
30
0
42
0
0
VERTEX
8
A-FLOOR-0-A-BLDG-OUT
10
14500
20
21000
30
0
42
0
0
VERTEX
8
A-FLOOR-0-A-BLDG-OUT
10
1000
20
21000
30
0
42
0
0
SEQEND
8
A-FLOOR-0-A-BLDG-OUT
0
POLYLINE
8
A-FLOOR-0-A-SETBACK
10
0
20
0
30
0
70
1
66
1
40
0
41
0
71
0
72
0
0
VERTEX
8
A-FLOOR-0-A-SETBACK
10
1000
20
1000
30
0
42
0
0
VERTEX
8
A-FLOOR-0-A-SETBACK
10
14500
20
1000
30
0
42
0
0
VERTEX
8
A-FLOOR-0-A-SETBACK
10
14500
20
21000
30
0
42
0
0
VERTEX
8
A-FLOOR-0-A-SETBACK
10
1000
20
21000
30
0
42
0
0
SEQEND
8
A-FLOOR-0-A-SETBACK
0
POLYLINE
8
A-SITE
10
0
20
0
30
0
70
1
66
1
40
0
41
0
71
0
72
0
0
VERTEX
8
A-SITE
10
0
20
0
30
0
42
0
0
VERTEX
8
A-SITE
10
15500
20
0
30
0
42
0
0
VERTEX
8
A-SITE
10
15500
20
22000
30
0
42
0
0
VERTEX
8
A-SITE
10
0
20
22000
30
0
42
0
0
SEQEND
8
A-SITE
0
POLYLINE
8
A-FLOOR-0-A-SITE
10
0
20
0
30
0
70
1
66
1
40
0
41
0
71
0
72
0
0
VERTEX
8
A-FLOOR-0-A-SITE
10
0
20
0
30
0
42
0
0
VERTEX
8
A-FLOOR-0-A-SITE
10
15500
20
0
30
0
42
0
0
VERTEX
8
A-FLOOR-0-A-SITE
10
15500
20
22000
30
0
42
0
0
VERTEX
8
A-FLOOR-0-A-SITE
10
0
20
22000
30
0
42
0
0
SEQEND
8
A-FLOOR-0-A-SITE
0
TEXT
8
A-SITE
10
0
20
-800
30
0
40
300
1
SITE rectangle 15.5x22.0m
50
0
72
0
11
0
21
-800
31
0
0
TEXT
8
A-SETBACK
10
0
20
-1200
30
0
40
200
1
Setbacks N=1 S=1 E=1 W=1
50
0
72
0
11
0
21
-1200
31
0
0
TEXT
8
A-FLOOR-0-A-ROOM
10
1000
20
21500
30
0
40
350
1
FLOOR 0 - Level 0 - 0.00m elev
50
0
72
0
11
1000
21
21500
31
0
0
TEXT
8
A-ROOM
10
1000
20
21500
30
0
40
350
1
FLOOR 0 - Level 0
50
0
72
0
11
1000
21
21500
31
0
0
LINE
8
A-FLOOR-0-A-WALL-SERVICE
10
1000
20
10810
30
0
11
1675
21
10810
31
0
0
LINE
8
A-FLOOR-0-A-WALL-SERVICE
10
1000
20
10690
30
0
11
1675
21
10690
31
0
0
LINE
8
A-FLOOR-0-A-WALL-SERVICE
10
1000
20
10810
30
0
11
1000
21
10690
31
0
0
LINE
8
A-FLOOR-0-A-WALL-SERVICE
10
2475
20
10810
30
0
11
3150
21
10810
31
0
0
LINE
8
A-FLOOR-0-A-WALL-SERVICE
10
2475
20
10690
30
0
11
3150
21
10690
31
0
0
LINE
8
A-FLOOR-0-A-WALL-SERVICE
10
3150
20
10810
30
0
11
3150
21
10690
31
0
0
LINE
8
A-FLOOR-0-A-WALL-SERVICE
10
1675
20
10810
30
0
11
1675
21
10690
31
0
0
LINE
8
A-FLOOR-0-A-WALL-SERVICE
10
2475
20
10810
30
0
11
2475
21
10690
31
0
0
LINE
8
A-WALL-SERVICE
10
1000
20
10810
30
0
11
1675
21
10810
31
0
0
LINE
8
A-WALL-SERVICE
10
1000
20
10690
30
0
11
1675
21
10690
31
0
0
LINE
8
A-WALL-SERVICE
10
1000
20
10810
30
0
11
1000
21
10690
31
0
0
LINE
8
A-WALL-SERVICE
10
2475
20
10810
30
0
11
3150
21
10810
31
0
0
LINE
8
A-WALL-SERVICE
10
2475
20
10690
30
0
11
3150
21
10690
31
0
0
LINE
8
A-WALL-SERVICE
10
3150
20
10810
30
0
11
3150
21
10690
31
0
0
LINE
8
A-WALL-SERVICE
10
1675
20
10810
30
0
11
1675
21
10690
31
0
0
LINE
8
A-WALL-SERVICE
10
2475
20
10810
30
0
11
2475
21
10690
31
0
0
LINE
8
A-FLOOR-0-A-WALL-INT
10
3150
20
10825
30
0
11
4345
21
10825
31
0
0
LINE
8
A-FLOOR-0-A-WALL-INT
10
3150
20
10675
30
0
11
4345
21
10675
31
0
0
LINE
8
A-FLOOR-0-A-WALL-INT
10
3150
20
10825
30
0
11
3150
21
10675
31
0
0
LINE
8
A-FLOOR-0-A-WALL-INT
10
5245
20
10825
30
0
11
6440
21
10825
31
0
0
LINE
8
A-FLOOR-0-A-WALL-INT
10
5245
20
10675
30
0
11
6440
21
10675
31
0
0
LINE
8
A-FLOOR-0-A-WALL-INT
10
6440
20
10825
30
0
11
6440
21
10675
31
0
0
LINE
8
A-FLOOR-0-A-WALL-INT
10
4345
20
10825
30
0
11
4345
21
10675
31
0
0
LINE
8
A-FLOOR-0-A-WALL-INT
10
5245
20
10825
30
0
11
5245
21
10675
31
0
0
LINE
8
A-WALL-INT
10
3150
20
10825
30
0
11
4345
21
10825
31
0
0
LINE
8
A-WALL-INT
10
3150
20
10675
30
0
11
4345
21
10675
31
0
0
LINE
8
A-WALL-INT
10
3150
20
10825
30
0
11
3150
21
10675
31
0
0
LINE
8
A-WALL-INT
10
5245
20
10825
30
0
11
6440
21
10825
31
0
0
LINE
8
A-WALL-INT
10
5245
20
10675
30
0
11
6440
21
10675
31
0
0
LINE
8
A-WALL-INT
10
6440
20
10825
30
0
11
6440
21
10675
31
0
0
LINE
8
A-WALL-INT
10
4345
20
10825
30
0
11
4345
21
10675
31
0
0
LINE
8
A-WALL-INT
10
5245
20
10825
30
0
11
5245
21
10675
31
0
0
LINE
8
A-FLOOR-0-A-WALL-INT
10
6440
20
10825
30
0
11
7570
21
10825
31
0
0
LINE
8
A-FLOOR-0-A-WALL-INT
10
6440
20
10675
30
0
11
7570
21
10675
31
0
0
LINE
8
A-FLOOR-0-A-WALL-INT
10
6440
20
10825
30
0
11
6440
21
10675
31
0
0
LINE
8
A-FLOOR-0-A-WALL-INT
10
8470
20
10825
30
0
11
9600
21
10825
31
0
0
LINE
8
A-FLOOR-0-A-WALL-INT
10
8470
20
10675
30
0
11
9600
21
10675
31
0
0
LINE
8
A-FLOOR-0-A-WALL-INT
10
9600
20
10825
30
0
11
9600
21
10675
31
0
0
LINE
8
A-FLOOR-0-A-WALL-INT
10
7570
20
10825
30
0
11
7570
21
10675
31
0
0
LINE
8
A-FLOOR-0-A-WALL-INT
10
8470
20
10825
30
0
11
8470
21
10675
31
0
0
LINE
8
A-WALL-INT
10
6440
20
10825
30
0
11
7570
21
10825
31
0
0
LINE
8
A-WALL-INT
10
6440
20
10675
30
0
11
7570
21
10675
31
0
0
LINE
8
A-WALL-INT
10
6440
20
10825
30
0
11
6440
21
10675
31
0
0
LINE
8
A-WALL-INT
10
8470
20
10825
30
0
11
9600
21
10825
31
0
0
LINE
8
A-WALL-INT
10
8470
20
10675
30
0
11
9600
21
10675
31
0
0
LINE
8
A-WALL-INT
10
9600
20
10825
30
0
11
9600
21
10675
31
0
0
LINE
8
A-WALL-INT
10
7570
20
10825
30
0
11
7570
21
10675
31
0
0
LINE
8
A-WALL-INT
10
8470
20
10825
30
0
11
8470
21
10675
31
0
0
LINE
8
A-FLOOR-0-A-WALL-SERVICE
10
9600
20
10810
30
0
11
9950
21
10810
31
0
0
LINE
8
A-FLOOR-0-A-WALL-SERVICE
10
9600
20
10690
30
0
11
9950
21
10690
31
0
0
LINE
8
A-FLOOR-0-A-WALL-SERVICE
10
9600
20
10810
30
0
11
9600
21
10690
31
0
0
LINE
8
A-FLOOR-0-A-WALL-SERVICE
10
10750
20
10810
30
0
11
11100
21
10810
31
0
0
LINE
8
A-FLOOR-0-A-WALL-SERVICE
10
10750
20
10690
30
0
11
11100
21
10690
31
0
0
LINE
8
A-FLOOR-0-A-WALL-SERVICE
10
11100
20
10810
30
0
11
11100
21
10690
31
0
0
LINE
8
A-FLOOR-0-A-WALL-SERVICE
10
9950
20
10810
30
0
11
9950
21
10690
31
0
0
LINE
8
A-FLOOR-0-A-WALL-SERVICE
10
10750
20
10810
30
0
11
10750
21
10690
31
0
0
LINE
8
A-WALL-SERVICE
10
9600
20
10810
30
0
11
9950
21
10810
31
0
0
LINE
8
A-WALL-SERVICE
10
9600
20
10690
30
0
11
9950
21
10690
31
0
0
LINE
8
A-WALL-SERVICE
10
9600
20
10810
30
0
11
9600
21
10690
31
0
0
LINE
8
A-WALL-SERVICE
10
10750
20
10810
30
0
11
11100
21
10810
31
0
0
LINE
8
A-WALL-SERVICE
10
10750
20
10690
30
0
11
11100
21
10690
31
0
0
LINE
8
A-WALL-SERVICE
10
11100
20
10810
30
0
11
11100
21
10690
31
0
0
LINE
8
A-WALL-SERVICE
10
9950
20
10810
30
0
11
9950
21
10690
31
0
0
LINE
8
A-WALL-SERVICE
10
10750
20
10810
30
0
11
10750
21
10690
31
0
0
LINE
8
A-FLOOR-0-A-WALL-INT
10
11100
20
10825
30
0
11
12350
21
10825
31
0
0
LINE
8
A-FLOOR-0-A-WALL-INT
10
11100
20
10675
30
0
11
12350
21
10675
31
0
0
LINE
8
A-FLOOR-0-A-WALL-INT
10
11100
20
10825
30
0
11
11100
21
10675
31
0
0
LINE
8
A-FLOOR-0-A-WALL-INT
10
13250
20
10825
30
0
11
14500
21
10825
31
0
0
LINE
8
A-FLOOR-0-A-WALL-INT
10
13250
20
10675
30
0
11
14500
21
10675
31
0
0
LINE
8
A-FLOOR-0-A-WALL-INT
10
14500
20
10825
30
0
11
14500
21
10675
31
0
0
LINE
8
A-FLOOR-0-A-WALL-INT
10
12350
20
10825
30
0
11
12350
21
10675
31
0
0
LINE
8
A-FLOOR-0-A-WALL-INT
10
13250
20
10825
30
0
11
13250
21
10675
31
0
0
LINE
8
A-WALL-INT
10
11100
20
10825
30
0
11
12350
21
10825
31
0
0
LINE
8
A-WALL-INT
10
11100
20
10675
30
0
11
12350
21
10675
31
0
0
LINE
8
A-WALL-INT
10
11100
20
10825
30
0
11
11100
21
10675
31
0
0
LINE
8
A-WALL-INT
10
13250
20
10825
30
0
11
14500
21
10825
31
0
0
LINE
8
A-WALL-INT
10
13250
20
10675
30
0
11
14500
21
10675
31
0
0
LINE
8
A-WALL-INT
10
14500
20
10825
30
0
11
14500
21
10675
31
0
0
LINE
8
A-WALL-INT
10
12350
20
10825
30
0
11
12350
21
10675
31
0
0
LINE
8
A-WALL-INT
10
13250
20
10825
30
0
11
13250
21
10675
31
0
0
LINE
8
A-FLOOR-0-A-WALL-SERVICE
10
3090
20
10750
30
0
11
3090
21
15475
31
0
0
LINE
8
A-FLOOR-0-A-WALL-SERVICE
10
3210
20
10750
30
0
11
3210
21
15475
31
0
0
LINE
8
A-FLOOR-0-A-WALL-SERVICE
10
3090
20
10750
30
0
11
3210
21
10750
31
0
0
LINE
8
A-FLOOR-0-A-WALL-SERVICE
10
3090
20
16275
30
0
11
3090
21
21000
31
0
0
LINE
8
A-FLOOR-0-A-WALL-SERVICE
10
3210
20
16275
30
0
11
3210
21
21000
31
0
0
LINE
8
A-FLOOR-0-A-WALL-SERVICE
10
3090
20
21000
30
0
11
3210
21
21000
31
0
0
LINE
8
A-FLOOR-0-A-WALL-SERVICE
10
3090
20
15475
30
0
11
3210
21
15475
31
0
0
LINE
8
A-FLOOR-0-A-WALL-SERVICE
10
3090
20
16275
30
0
11
3210
21
16275
31
0
0
LINE
8
A-WALL-SERVICE
10
3090
20
10750
30
0
11
3090
21
15475
31
0
0
LINE
8
A-WALL-SERVICE
10
3210
20
10750
30
0
11
3210
21
15475
31
0
0
ENDSEC
0
EOF
