0
SECTION
2
HEADER
9
$ACADVER
1
AC1009
0
ENDSEC
0
SECTION
2
TABLES
0
TABLE
2
LTYPE
70
1
0
LTYPE
2
CONTINUOUS
70
0
3
Solid line
72
65
73
0
40
0.0
0
ENDTAB
0
TABLE
2
LAYER
70
1
0
LAYER
2
0
70
0
62
7
6
CONTINUOUS
0
ENDTAB
0
TABLE
2
STYLE
70
1
0
STYLE
2
STANDARD
70
0
40
0.0
41
1.0
50
0.0
71
0
42
0.2
3
txt
4

0
ENDTAB
0
ENDSEC
0
SECTION
2
BLOCKS
0
BLOCK
2
*Model_Space
70
0
10
0.0
20
0.0
30
0.0
0
ENDBLK
0
ENDSEC
0
SECTION
2
ENTITIES
0
POLYLINE
8
A-BLDG-OUT
10
0
20
0
30
0
70
1
66
1
40
0
41
0
71
0
72
0
0
VERTEX
8
A-BLDG-OUT
10
1500
20
3000
30
0
42
0
0
VERTEX
8
A-BLDG-OUT
10
14000
20
3000
30
0
42
0
0
VERTEX
8
A-BLDG-OUT
10
14000
20
20000
30
0
42
0
0
VERTEX
8
A-BLDG-OUT
10
1500
20
20000
30
0
42
0
0
SEQEND
8
A-BLDG-OUT
0
POLYLINE
8
A-SETBACK
10
0
20
0
30
0
70
1
66
1
40
0
41
0
71
0
72
0
0
VERTEX
8
A-SETBACK
10
1500
20
3000
30
0
42
0
0
VERTEX
8
A-SETBACK
10
14000
20
3000
30
0
42
0
0
VERTEX
8
A-SETBACK
10
14000
20
20000
30
0
42
0
0
VERTEX
8
A-SETBACK
10
1500
20
20000
30
0
42
0
0
SEQEND
8
A-SETBACK
0
POLYLINE
8
A-FLOOR-0-A-BLDG-OUT
10
0
20
0
30
0
70
1
66
1
40
0
41
0
71
0
72
0
0
VERTEX
8
A-FLOOR-0-A-BLDG-OUT
10
1500
20
3000
30
0
42
0
0
VERTEX
8
A-FLOOR-0-A-BLDG-OUT
10
14000
20
3000
30
0
42
0
0
VERTEX
8
A-FLOOR-0-A-BLDG-OUT
10
14000
20
20000
30
0
42
0
0
VERTEX
8
A-FLOOR-0-A-BLDG-OUT
10
1500
20
20000
30
0
42
0
0
SEQEND
8
A-FLOOR-0-A-BLDG-OUT
0
POLYLINE
8
A-FLOOR-0-A-SETBACK
10
0
20
0
30
0
70
1
66
1
40
0
41
0
71
0
72
0
0
VERTEX
8
A-FLOOR-0-A-SETBACK
10
1500
20
3000
30
0
42
0
0
VERTEX
8
A-FLOOR-0-A-SETBACK
10
14000
20
3000
30
0
42
0
0
VERTEX
8
A-FLOOR-0-A-SETBACK
10
14000
20
20000
30
0
42
0
0
VERTEX
8
A-FLOOR-0-A-SETBACK
10
1500
20
20000
30
0
42
0
0
SEQEND
8
A-FLOOR-0-A-SETBACK
0
POLYLINE
8
A-SITE
10
0
20
0
30
0
70
1
66
1
40
0
41
0
71
0
72
0
0
VERTEX
8
A-SITE
10
0
20
0
30
0
42
0
0
VERTEX
8
A-SITE
10
15500
20
0
30
0
42
0
0
VERTEX
8
A-SITE
10
15500
20
22000
30
0
42
0
0
VERTEX
8
A-SITE
10
0
20
22000
30
0
42
0
0
SEQEND
8
A-SITE
0
POLYLINE
8
A-FLOOR-0-A-SITE
10
0
20
0
30
0
70
1
66
1
40
0
41
0
71
0
72
0
0
VERTEX
8
A-FLOOR-0-A-SITE
10
0
20
0
30
0
42
0
0
VERTEX
8
A-FLOOR-0-A-SITE
10
15500
20
0
30
0
42
0
0
VERTEX
8
A-FLOOR-0-A-SITE
10
15500
20
22000
30
0
42
0
0
VERTEX
8
A-FLOOR-0-A-SITE
10
0
20
22000
30
0
42
0
0
SEQEND
8
A-FLOOR-0-A-SITE
0
TEXT
8
A-SITE
10
0
20
-800
30
0
40
300
1
SITE rectangle 15.5x22.0m
50
0
72
0
11
0
21
-800
31
0
0
TEXT
8
A-SETBACK
10
0
20
-1200
30
0
40
200
1
Setbacks N=2 S=3 E=1.5 W=1.5
50
0
72
0
11
0
21
-1200
31
0
0
TEXT
8
A-FLOOR-0-A-ROOM
10
1500
20
20500
30
0
40
350
1
FLOOR 0 - Level 0 - 0.00m elev
50
0
72
0
11
1500
21
20500
31
0
0
TEXT
8
A-ROOM
10
1500
20
20500
30
0
40
350
1
FLOOR 0 - Level 0
50
0
72
0
11
1500
21
20500
31
0
0
LINE
8
A-FLOOR-0-A-WALL-EXT
10
1500
20
3175
30
0
11
1950
21
3175
31
0
0
LINE
8
A-FLOOR-0-A-WALL-EXT
10
1500
20
2825
30
0
11
1950
21
2825
31
0
0
LINE
8
A-FLOOR-0-A-WALL-EXT
10
1500
20
3175
30
0
11
1500
21
2825
31
0
0
LINE
8
A-FLOOR-0-A-WALL-EXT
10
2950
20
3175
30
0
11
3400
21
3175
31
0
0
LINE
8
A-FLOOR-0-A-WALL-EXT
10
2950
20
2825
30
0
11
3400
21
2825
31
0
0
LINE
8
A-FLOOR-0-A-WALL-EXT
10
3400
20
3175
30
0
11
3400
21
2825
31
0
0
LINE
8
A-FLOOR-0-A-WALL-EXT
10
1950
20
3175
30
0
11
1950
21
2825
31
0
0
LINE
8
A-FLOOR-0-A-WALL-EXT
10
2950
20
3175
30
0
11
2950
21
2825
31
0
0
LINE
8
A-WALL-EXT
10
1500
20
3175
30
0
11
1950
21
3175
31
0
0
LINE
8
A-WALL-EXT
10
1500
20
2825
30
0
11
1950
21
2825
31
0
0
LINE
8
A-WALL-EXT
10
1500
20
3175
30
0
11
1500
21
2825
31
0
0
LINE
8
A-WALL-EXT
10
2950
20
3175
30
0
11
3400
21
3175
31
0
0
LINE
8
A-WALL-EXT
10
2950
20
2825
30
0
11
3400
21
2825
31
0
0
LINE
8
A-WALL-EXT
10
3400
20
3175
30
0
11
3400
21
2825
31
0
0
LINE
8
A-WALL-EXT
10
1950
20
3175
30
0
11
1950
21
2825
31
0
0
LINE
8
A-WALL-EXT
10
2950
20
3175
30
0
11
2950
21
2825
31
0
0
LINE
8
A-FLOOR-0-A-WALL-EXT
10
3400
20
3175
30
0
11
4535
21
3175
31
0
0
LINE
8
A-FLOOR-0-A-WALL-EXT
10
3400
20
2825
30
0
11
4535
21
2825
31
0
0
LINE
8
A-FLOOR-0-A-WALL-EXT
10
3400
20
3175
30
0
11
3400
21
2825
31
0
0
LINE
8
A-FLOOR-0-A-WALL-EXT
10
7535
20
3175
30
0
11
8670
21
3175
31
0
0
LINE
8
A-FLOOR-0-A-WALL-EXT
10
7535
20
2825
30
0
11
8670
21
2825
31
0
0
LINE
8
A-FLOOR-0-A-WALL-EXT
10
8670
20
3175
30
0
11
8670
21
2825
31
0
0
LINE
8
A-FLOOR-0-A-WALL-EXT
10
4535
20
3175
30
0
11
4535
21
2825
31
0
0
LINE
8
A-FLOOR-0-A-WALL-EXT
10
7535
20
3175
30
0
11
7535
21
2825
31
0
0
LINE
8
A-WALL-EXT
10
3400
20
3175
30
0
11
4535
21
3175
31
0
0
LINE
8
A-WALL-EXT
10
3400
20
2825
30
0
11
4535
21
2825
31
0
0
LINE
8
A-WALL-EXT
10
3400
20
3175
30
0
11
3400
21
2825
31
0
0
LINE
8
A-WALL-EXT
10
7535
20
3175
30
0
11
8670
21
3175
31
0
0
LINE
8
A-WALL-EXT
10
7535
20
2825
30
0
11
8670
21
2825
31
0
0
LINE
8
A-WALL-EXT
10
8670
20
3175
30
0
11
8670
21
2825
31
0
0
LINE
8
A-WALL-EXT
10
4535
20
3175
30
0
11
4535
21
2825
31
0
0
LINE
8
A-WALL-EXT
10
7535
20
3175
30
0
11
7535
21
2825
31
0
0
LINE
8
A-FLOOR-0-A-WALL-EXT
10
8670
20
3175
30
0
11
9329.25
21
3175
31
0
0
LINE
8
A-FLOOR-0-A-WALL-EXT
10
8670
20
2825
30
0
11
9329.25
21
2825
31
0
0
LINE
8
A-FLOOR-0-A-WALL-EXT
10
8670
20
3175
30
0
11
8670
21
2825
31
0
0
LINE
8
A-FLOOR-0-A-WALL-EXT
10
10940.75
20
3175
30
0
11
11600
21
3175
31
0
0
LINE
8
A-FLOOR-0-A-WALL-EXT
10
10940.75
20
2825
30
0
11
11600
21
2825
31
0
0
LINE
8
A-FLOOR-0-A-WALL-EXT
10
11600
20
3175
30
0
11
11600
21
2825
31
0
0
LINE
8
A-FLOOR-0-A-WALL-EXT
10
9329.25
20
3175
30
0
11
9329.25
21
2825
31
0
0
LINE
8
A-FLOOR-0-A-WALL-EXT
10
10940.75
20
3175
30
0
11
10940.75
21
2825
31
0
0
ENDSEC
0
EOF
