0
SECTION
2
HEADER
9
$ACADVER
1
AC1009
0
ENDSEC
0
SECTION
2
TABLES
0
TABLE
2
LTYPE
70
1
0
LTYPE
2
CONTINUOUS
70
0
3
Solid line
72
65
73
0
40
0.0
0
ENDTAB
0
TABLE
2
LAYER
70
1
0
LAYER
2
0
70
0
62
7
6
CONTINUOUS
0
ENDTAB
0
TABLE
2
STYLE
70
1
0
STYLE
2
STANDARD
70
0
40
0.0
41
1.0
50
0.0
71
0
42
0.2
3
txt
4

0
ENDTAB
0
ENDSEC
0
SECTION
2
BLOCKS
0
BLOCK
2
*Model_Space
70
0
10
0.0
20
0.0
30
0.0
0
ENDBLK
0
ENDSEC
0
SECTION
2
ENTITIES
0
LINE
8
A-FLOOR-0-A-WALL-SERVICE
10
1000
20
10810
30
0
11
1675
21
10810
31
0
0
LINE
8
A-FLOOR-0-A-WALL-SERVICE
10
1000
20
10690
30
0
11
1675
21
10690
31
0
0
LINE
8
A-FLOOR-0-A-WALL-SERVICE
10
1000
20
10810
30
0
11
1000
21
10690
31
0
0
LINE
8
A-FLOOR-0-A-WALL-SERVICE
10
2475
20
10810
30
0
11
3150
21
10810
31
0
0
LINE
8
A-FLOOR-0-A-WALL-SERVICE
10
2475
20
10690
30
0
11
3150
21
10690
31
0
0
LINE
8
A-FLOOR-0-A-WALL-SERVICE
10
3150
20
10810
30
0
11
3150
21
10690
31
0
0
LINE
8
A-FLOOR-0-A-WALL-SERVICE
10
1675
20
10810
30
0
11
1675
21
10690
31
0
0
LINE
8
A-FLOOR-0-A-WALL-SERVICE
10
2475
20
10810
30
0
11
2475
21
10690
31
0
0
LINE
8
A-WALL-SERVICE
10
1000
20
10810
30
0
11
1675
21
10810
31
0
0
LINE
8
A-WALL-SERVICE
10
1000
20
10690
30
0
11
1675
21
10690
31
0
0
LINE
8
A-WALL-SERVICE
10
1000
20
10810
30
0
11
1000
21
10690
31
0
0
LINE
8
A-WALL-SERVICE
10
2475
20
10810
30
0
11
3150
21
10810
31
0
0
LINE
8
A-WALL-SERVICE
10
2475
20
10690
30
0
11
3150
21
10690
31
0
0
LINE
8
A-WALL-SERVICE
10
3150
20
10810
30
0
11
3150
21
10690
31
0
0
LINE
8
A-WALL-SERVICE
10
1675
20
10810
30
0
11
1675
21
10690
31
0
0
LINE
8
A-WALL-SERVICE
10
2475
20
10810
30
0
11
2475
21
10690
31
0
0
LINE
8
A-FLOOR-0-A-WALL-INT
10
3150
20
10825
30
0
11
4345
21
10825
31
0
0
LINE
8
A-FLOOR-0-A-WALL-INT
10
3150
20
10675
30
0
11
4345
21
10675
31
0
0
LINE
8
A-FLOOR-0-A-WALL-INT
10
3150
20
10825
30
0
11
3150
21
10675
31
0
0
LINE
8
A-FLOOR-0-A-WALL-INT
10
5245
20
10825
30
0
11
6440
21
10825
31
0
0
LINE
8
A-FLOOR-0-A-WALL-INT
10
5245
20
10675
30
0
11
6440
21
10675
31
0
0
LINE
8
A-FLOOR-0-A-WALL-INT
10
6440
20
10825
30
0
11
6440
21
10675
31
0
0
LINE
8
A-FLOOR-0-A-WALL-INT
10
4345
20
10825
30
0
11
4345
21
10675
31
0
0
LINE
8
A-FLOOR-0-A-WALL-INT
10
5245
20
10825
30
0
11
5245
21
10675
31
0
0
LINE
8
A-WALL-INT
10
3150
20
10825
30
0
11
4345
21
10825
31
0
0
LINE
8
A-WALL-INT
10
3150
20
10675
30
0
11
4345
21
10675
31
0
0
LINE
8
A-WALL-INT
10
3150
20
10825
30
0
11
3150
21
10675
31
0
0
LINE
8
A-WALL-INT
10
5245
20
10825
30
0
11
6440
21
10825
31
0
0
LINE
8
A-WALL-INT
10
5245
20
10675
30
0
11
6440
21
10675
31
0
0
LINE
8
A-WALL-INT
10
6440
20
10825
30
0
11
6440
21
10675
31
0
0
LINE
8
A-WALL-INT
10
4345
20
10825
30
0
11
4345
21
10675
31
0
0
LINE
8
A-WALL-INT
10
5245
20
10825
30
0
11
5245
21
10675
31
0
0
LINE
8
A-FLOOR-0-A-WALL-INT
10
6440
20
10825
30
0
11
7570
21
10825
31
0
0
LINE
8
A-FLOOR-0-A-WALL-INT
10
6440
20
10675
30
0
11
7570
21
10675
31
0
0
LINE
8
A-FLOOR-0-A-WALL-INT
10
6440
20
10825
30
0
11
6440
21
10675
31
0
0
LINE
8
A-FLOOR-0-A-WALL-INT
10
8470
20
10825
30
0
11
9600
21
10825
31
0
0
LINE
8
A-FLOOR-0-A-WALL-INT
10
8470
20
10675
30
0
11
9600
21
10675
31
0
0
LINE
8
A-FLOOR-0-A-WALL-INT
10
9600
20
10825
30
0
11
9600
21
10675
31
0
0
LINE
8
A-FLOOR-0-A-WALL-INT
10
7570
20
10825
30
0
11
7570
21
10675
31
0
0
LINE
8
A-FLOOR-0-A-WALL-INT
10
8470
20
10825
30
0
11
8470
21
10675
31
0
0
LINE
8
A-WALL-INT
10
6440
20
10825
30
0
11
7570
21
10825
31
0
0
LINE
8
A-WALL-INT
10
6440
20
10675
30
0
11
7570
21
10675
31
0
0
LINE
8
A-WALL-INT
10
6440
20
10825
30
0
11
6440
21
10675
31
0
0
LINE
8
A-WALL-INT
10
8470
20
10825
30
0
11
9600
21
10825
31
0
0
LINE
8
A-WALL-INT
10
8470
20
10675
30
0
11
9600
21
10675
31
0
0
LINE
8
A-WALL-INT
10
9600
20
10825
30
0
11
9600
21
10675
31
0
0
LINE
8
A-WALL-INT
10
7570
20
10825
30
0
11
7570
21
10675
31
0
0
LINE
8
A-WALL-INT
10
8470
20
10825
30
0
11
8470
21
10675
31
0
0
LINE
8
A-FLOOR-0-A-WALL-SERVICE
10
9600
20
10810
30
0
11
9950
21
10810
31
0
0
LINE
8
A-FLOOR-0-A-WALL-SERVICE
10
9600
20
10690
30
0
11
9950
21
10690
31
0
0
LINE
8
A-FLOOR-0-A-WALL-SERVICE
10
9600
20
10810
30
0
11
9600
21
10690
31
0
0
LINE
8
A-FLOOR-0-A-WALL-SERVICE
10
10750
20
10810
30
0
11
11100
21
10810
31
0
0
LINE
8
A-FLOOR-0-A-WALL-SERVICE
10
10750
20
10690
30
0
11
11100
21
10690
31
0
0
LINE
8
A-FLOOR-0-A-WALL-SERVICE
10
11100
20
10810
30
0
11
11100
21
10690
31
0
0
LINE
8
A-FLOOR-0-A-WALL-SERVICE
10
9950
20
10810
30
0
11
9950
21
10690
31
0
0
LINE
8
A-FLOOR-0-A-WALL-SERVICE
10
10750
20
10810
30
0
11
10750
21
10690
31
0
0
LINE
8
A-WALL-SERVICE
10
9600
20
10810
30
0
11
9950
21
10810
31
0
0
LINE
8
A-WALL-SERVICE
10
9600
20
10690
30
0
11
9950
21
10690
31
0
0
LINE
8
A-WALL-SERVICE
10
9600
20
10810
30
0
11
9600
21
10690
31
0
0
LINE
8
A-WALL-SERVICE
10
10750
20
10810
30
0
11
11100
21
10810
31
0
0
LINE
8
A-WALL-SERVICE
10
10750
20
10690
30
0
11
11100
21
10690
31
0
0
LINE
8
A-WALL-SERVICE
10
11100
20
10810
30
0
11
11100
21
10690
31
0
0
LINE
8
A-WALL-SERVICE
10
9950
20
10810
30
0
11
9950
21
10690
31
0
0
LINE
8
A-WALL-SERVICE
10
10750
20
10810
30
0
11
10750
21
10690
31
0
0
LINE
8
A-FLOOR-0-A-WALL-INT
10
11100
20
10825
30
0
11
12350
21
10825
31
0
0
LINE
8
A-FLOOR-0-A-WALL-INT
10
11100
20
10675
30
0
11
12350
21
10675
31
0
0
LINE
8
A-FLOOR-0-A-WALL-INT
10
11100
20
10825
30
0
11
11100
21
10675
31
0
0
LINE
8
A-FLOOR-0-A-WALL-INT
10
13250
20
10825
30
0
11
14500
21
10825
31
0
0
LINE
8
A-FLOOR-0-A-WALL-INT
10
13250
20
10675
30
0
11
14500
21
10675
31
0
0
LINE
8
A-FLOOR-0-A-WALL-INT
10
14500
20
10825
30
0
11
14500
21
10675
31
0
0
LINE
8
A-FLOOR-0-A-WALL-INT
10
12350
20
10825
30
0
11
12350
21
10675
31
0
0
LINE
8
A-FLOOR-0-A-WALL-INT
10
13250
20
10825
30
0
11
13250
21
10675
31
0
0
LINE
8
A-WALL-INT
10
11100
20
10825
30
0
11
12350
21
10825
31
0
0
LINE
8
A-WALL-INT
10
11100
20
10675
30
0
11
12350
21
10675
31
0
0
LINE
8
A-WALL-INT
10
11100
20
10825
30
0
11
11100
21
10675
31
0
0
LINE
8
A-WALL-INT
10
13250
20
10825
30
0
11
14500
21
10825
31
0
0
LINE
8
A-WALL-INT
10
13250
20
10675
30
0
11
14500
21
10675
31
0
0
LINE
8
A-WALL-INT
10
14500
20
10825
30
0
11
14500
21
10675
31
0
0
LINE
8
A-WALL-INT
10
12350
20
10825
30
0
11
12350
21
10675
31
0
0
LINE
8
A-WALL-INT
10
13250
20
10825
30
0
11
13250
21
10675
31
0
0
LINE
8
A-FLOOR-0-A-WALL-SERVICE
10
3090
20
10750
30
0
11
3090
21
15475
31
0
0
LINE
8
A-FLOOR-0-A-WALL-SERVICE
10
3210
20
10750
30
0
11
3210
21
15475
31
0
0
LINE
8
A-FLOOR-0-A-WALL-SERVICE
10
3090
20
10750
30
0
11
3210
21
10750
31
0
0
LINE
8
A-FLOOR-0-A-WALL-SERVICE
10
3090
20
16275
30
0
11
3090
21
21000
31
0
0
LINE
8
A-FLOOR-0-A-WALL-SERVICE
10
3210
20
16275
30
0
11
3210
21
21000
31
0
0
LINE
8
A-FLOOR-0-A-WALL-SERVICE
10
3090
20
21000
30
0
11
3210
21
21000
31
0
0
LINE
8
A-FLOOR-0-A-WALL-SERVICE
10
3090
20
15475
30
0
11
3210
21
15475
31
0
0
LINE
8
A-FLOOR-0-A-WALL-SERVICE
10
3090
20
16275
30
0
11
3210
21
16275
31
0
0
LINE
8
A-WALL-SERVICE
10
3090
20
10750
30
0
11
3090
21
15475
31
0
0
LINE
8
A-WALL-SERVICE
10
3210
20
10750
30
0
11
3210
21
15475
31
0
0
LINE
8
A-WALL-SERVICE
10
3090
20
10750
30
0
11
3210
21
10750
31
0
0
LINE
8
A-WALL-SERVICE
10
3090
20
16275
30
0
11
3090
21
21000
31
0
0
LINE
8
A-WALL-SERVICE
10
3210
20
16275
30
0
11
3210
21
21000
31
0
0
LINE
8
A-WALL-SERVICE
10
3090
20
21000
30
0
11
3210
21
21000
31
0
0
LINE
8
A-WALL-SERVICE
10
3090
20
15475
30
0
11
3210
21
15475
31
0
0
LINE
8
A-WALL-SERVICE
10
3090
20
16275
30
0
11
3210
21
16275
31
0
0
LINE
8
A-FLOOR-0-A-WALL-EXT
10
1000
20
21175
30
0
11
3150
21
21175
31
0
0
LINE
8
A-FLOOR-0-A-WALL-EXT
10
1000
20
20825
30
0
11
3150
21
20825
31
0
0
LINE
8
A-FLOOR-0-A-WALL-EXT
10
1000
20
21175
30
0
11
1000
21
20825
31
0
0
LINE
8
A-FLOOR-0-A-WALL-EXT
10
3150
20
21175
30
0
11
3150
21
20825
31
0
0
LINE
8
A-WALL-EXT
10
1000
20
21175
30
0
11
3150
21
21175
31
0
0
LINE
8
A-WALL-EXT
10
1000
20
20825
30
0
11
3150
21
20825
31
0
0
LINE
8
A-WALL-EXT
10
1000
20
21175
30
0
11
1000
21
20825
31
0
0
LINE
8
A-WALL-EXT
10
3150
20
21175
30
0
11
3150
21
20825
31
0
0
LINE
8
A-FLOOR-0-A-WALL-EXT
10
3150
20
21175
30
0
11
3808
21
21175
31
0
0
LINE
8
A-FLOOR-0-A-WALL-EXT
10
3150
20
20825
30
0
11
3808
21
20825
31
0
0
LINE
8
A-FLOOR-0-A-WALL-EXT
10
3150
20
21175
30
0
11
3150
21
20825
31
0
0
LINE
8
A-FLOOR-0-A-WALL-EXT
10
5782
20
21175
30
0
11
6440
21
21175
31
0
0
LINE
8
A-FLOOR-0-A-WALL-EXT
10
5782
20
20825
30
0
11
6440
21
20825
31
0
0
LINE
8
A-FLOOR-0-A-WALL-EXT
10
6440
20
21175
30
0
11
6440
21
20825
31
0
0
LINE
8
A-FLOOR-0-A-WALL-EXT
10
3808
20
21175
30
0
11
3808
21
20825
31
0
0
LINE
8
A-FLOOR-0-A-WALL-EXT
10
5782
20
21175
30
0
11
5782
21
20825
31
0
0
LINE
8
A-WALL-EXT
10
3150
20
21175
30
0
11
3808
21
21175
31
0
0
LINE
8
A-WALL-EXT
10
3150
20
20825
30
0
11
3808
21
20825
31
0
0
LINE
8
A-WALL-EXT
10
3150
20
21175
30
0
11
3150
21
20825
31
0
0
LINE
8
A-WALL-EXT
10
5782
20
21175
30
0
11
6440
21
21175
31
0
0
LINE
8
A-WALL-EXT
10
5782
20
20825
30
0
11
6440
21
20825
31
0
0
LINE
8
A-WALL-EXT
10
6440
20
21175
30
0
11
6440
21
20825
31
0
0
LINE
8
A-WALL-EXT
10
3808
20
21175
30
0
11
3808
21
20825
31
0
0
LINE
8
A-WALL-EXT
10
5782
20
21175
30
0
11
5782
21
20825
31
0
0
LINE
8
A-FLOOR-0-A-WALL-EXT
10
6440
20
21175
30
0
11
7230
21
21175
31
0
0
LINE
8
A-FLOOR-0-A-WALL-EXT
10
6440
20
20825
30
0
11
7230
21
20825
31
0
0
LINE
8
A-FLOOR-0-A-WALL-EXT
10
6440
20
21175
30
0
11
6440
21
20825
31
0
0
LINE
8
A-FLOOR-0-A-WALL-EXT
10
8810
20
21175
30
0
11
9600
21
21175
31
0
0
LINE
8
A-FLOOR-0-A-WALL-EXT
10
8810
20
20825
30
0
11
9600
21
20825
31
0
0
LINE
8
A-FLOOR-0-A-WALL-EXT
10
9600
20
21175
30
0
11
9600
21
20825
31
0
0
LINE
8
A-FLOOR-0-A-WALL-EXT
10
7230
20
21175
30
0
11
7230
21
20825
31
0
0
LINE
8
A-FLOOR-0-A-WALL-EXT
10
8810
20
21175
30
0
11
8810
21
20825
31
0
0
LINE
8
A-WALL-EXT
10
6440
20
21175
30
0
11
7230
21
21175
31
0
0
LINE
8
A-WALL-EXT
10
6440
20
20825
30
0
11
7230
21
20825
31
0
0
LINE
8
A-WALL-EXT
10
6440
20
21175
30
0
11
6440
21
20825
31
0
0
LINE
8
A-WALL-EXT
10
8810
20
21175
30
0
11
9600
21
21175
31
0
0
LINE
8
A-WALL-EXT
10
8810
20
20825
30
0
11
9600
21
20825
31
0
0
LINE
8
A-WALL-EXT
10
9600
20
21175
30
0
11
9600
21
20825
31
0
0
LINE
8
A-WALL-EXT
10
7230
20
21175
30
0
11
7230
21
20825
31
0
0
LINE
8
A-WALL-EXT
10
8810
20
21175
30
0
11
8810
21
20825
31
0
0
LINE
8
A-FLOOR-0-A-WALL-EXT
10
9600
20
21175
30
0
11
11100
21
21175
31
0
0
LINE
8
A-FLOOR-0-A-WALL-EXT
10
9600
20
20825
30
0
11
11100
21
20825
31
0
0
LINE
8
A-FLOOR-0-A-WALL-EXT
10
9600
20
21175
30
0
11
9600
21
20825
31
0
0
LINE
8
A-FLOOR-0-A-WALL-EXT
10
11100
20
21175
30
0
11
11100
21
20825
31
0
0
LINE
8
A-WALL-EXT
10
9600
20
21175
30
0
11
11100
21
21175
31
0
0
LINE
8
A-WALL-EXT
10
9600
20
20825
30
0
11
11100
21
20825
31
0
0
LINE
8
A-WALL-EXT
10
9600
20
21175
30
0
11
9600
21
20825
31
0
0
LINE
8
A-WALL-EXT
10
11100
20
21175
30
0
11
11100
21
20825
31
0
0
LINE
8
A-FLOOR-0-A-WALL-EXT
10
11100
20
21175
30
0
11
14500
21
21175
31
0
0
LINE
8
A-FLOOR-0-A-WALL-EXT
10
11100
20
20825
30
0
11
14500
21
20825
31
0
0
LINE
8
A-FLOOR-0-A-WALL-EXT
10
11100
20
21175
30
0
11
11100
21
20825
31
0
0
LINE
8
A-FLOOR-0-A-WALL-EXT
10
14500
20
21175
30
0
11
14500
21
20825
31
0
0
LINE
8
A-WALL-EXT
10
11100
20
21175
30
0
11
14500
21
21175
31
0
0
LINE
8
A-WALL-EXT
10
11100
20
20825
30
0
11
14500
21
20825
31
0
0
LINE
8
A-WALL-EXT
10
11100
20
21175
30
0
11
11100
21
20825
31
0
0
LINE
8
A-WALL-EXT
10
14500
20
21175
30
0
11
14500
21
20825
31
0
0
LINE
8
A-FLOOR-0-A-WALL-EXT
10
825
20
1000
30
0
11
825
21
2500
31
0
0
LINE
8
A-FLOOR-0-A-WALL-EXT
10
1175
20
1000
30
0
11
1175
21
2500
31
0
0
LINE
8
A-FLOOR-0-A-WALL-EXT
10
825
20
1000
30
0
11
1175
21
1000
31
0
0
LINE
8
A-FLOOR-0-A-WALL-EXT
10
825
20
2500
30
0
11
1175
21
2500
31
0
0
LINE
8
A-WALL-EXT
10
825
20
1000
30
0
11
825
21
2500
31
0
0
LINE
8
A-WALL-EXT
10
1175
20
1000
30
0
11
1175
21
2500
31
0
0
LINE
8
A-WALL-EXT
10
825
20
1000
30
0
11
1175
21
1000
31
0
0
LINE
8
A-WALL-EXT
10
825
20
2500
30
0
11
1175
21
2500
31
0
0
LINE
8
A-FLOOR-0-A-WALL-EXT
10
825
20
2500
30
0
11
825
21
4375
31
0
0
LINE
8
A-FLOOR-0-A-WALL-EXT
10
1175
20
2500
30
0
11
1175
21
4375
31
0
0
LINE
8
A-FLOOR-0-A-WALL-EXT
10
825
20
2500
30
0
11
1175
21
2500
31
0
0
LINE
8
A-FLOOR-0-A-WALL-EXT
10
825
20
7375
30
0
11
825
21
9250
31
0
0
LINE
8
A-FLOOR-0-A-WALL-EXT
10
1175
20
7375
30
0
11
1175
21
9250
31
0
0
LINE
8
A-FLOOR-0-A-WALL-EXT
10
825
20
9250
30
0
11
1175
21
9250
31
0
0
LINE
8
A-FLOOR-0-A-WALL-EXT
10
825
20
4375
30
0
11
1175
21
4375
31
0
0
LINE
8
A-FLOOR-0-A-WALL-EXT
10
825
20
7375
30
0
11
1175
21
7375
31
0
0
LINE
8
A-WALL-EXT
10
825
20
2500
30
0
11
825
21
4375
31
0
0
LINE
8
A-WALL-EXT
10
1175
20
2500
30
0
11
1175
21
4375
31
0
0
LINE
8
A-WALL-EXT
10
825
20
2500
30
0
11
1175
21
2500
31
0
0
LINE
8
A-WALL-EXT
10
825
20
7375
30
0
11
825
21
9250
31
0
0
LINE
8
A-WALL-EXT
10
1175
20
7375
30
0
11
1175
21
9250
31
0
0
LINE
8
A-WALL-EXT
10
825
20
9250
30
0
11
1175
21
9250
31
0
0
LINE
8
A-WALL-EXT
10
825
20
4375
30
0
11
1175
21
4375
31
0
0
LINE
8
A-WALL-EXT
10
825
20
7375
30
0
11
1175
21
7375
31
0
0
LINE
8
A-FLOOR-0-A-WALL-EXT
10
825
20
9250
30
0
11
825
21
10750
31
0
0
LINE
8
A-FLOOR-0-A-WALL-EXT
10
1175
20
9250
30
0
11
1175
21
10750
31
0
0
LINE
8
A-FLOOR-0-A-WALL-EXT
10
825
20
9250
30
0
11
1175
21
9250
31
0
0
LINE
8
A-FLOOR-0-A-WALL-EXT
10
825
20
10750
30
0
11
1175
21
10750
31
0
0
LINE
8
A-WALL-EXT
10
825
20
9250
30
0
11
825
21
10750
31
0
0
LINE
8
A-WALL-EXT
10
1175
20
9250
30
0
11
1175
21
10750
31
0
0
LINE
8
A-WALL-EXT
10
825
20
9250
30
0
11
1175
21
9250
31
0
0
LINE
8
A-WALL-EXT
10
825
20
10750
30
0
11
1175
21
10750
31
0
0
LINE
8
A-FLOOR-0-A-WALL-EXT
10
825
20
10750
30
0
11
825
21
15375
31
0
0
LINE
8
A-FLOOR-0-A-WALL-EXT
10
1175
20
10750
30
0
11
1175
21
15375
31
0
0
LINE
8
A-FLOOR-0-A-WALL-EXT
10
825
20
10750
30
0
11
1175
21
10750
31
0
0
LINE
8
A-FLOOR-0-A-WALL-EXT
10
825
20
16375
30
0
11
825
21
21000
31
0
0
LINE
8
A-FLOOR-0-A-WALL-EXT
10
1175
20
16375
30
0
11
1175
21
21000
31
0
0
LINE
8
A-FLOOR-0-A-WALL-EXT
10
825
20
21000
30
0
11
1175
21
21000
31
0
0
LINE
8
A-FLOOR-0-A-WALL-EXT
10
825
20
15375
30
0
11
1175
21
15375
31
0
0
LINE
8
A-FLOOR-0-A-WALL-EXT
10
825
20
16375
30
0
11
1175
21
16375
31
0
0
LINE
8
A-WALL-EXT
10
825
20
10750
30
0
11
825
21
15375
31
0
0
LINE
8
A-WALL-EXT
10
1175
20
10750
30
0
11
1175
21
15375
31
0
0
LINE
8
A-WALL-EXT
10
825
20
10750
30
0
11
1175
21
10750
31
0
0
LINE
8
A-WALL-EXT
10
825
20
16375
30
0
11
825
21
21000
31
0
0
LINE
8
A-WALL-EXT
10
1175
20
16375
30
0
11
1175
21
21000
31
0
0
LINE
8
A-WALL-EXT
10
825
20
21000
30
0
11
1175
21
21000
31
0
0
LINE
8
A-WALL-EXT
10
825
20
15375
30
0
11
1175
21
15375
31
0
0
LINE
8
A-WALL-EXT
10
825
20
16375
30
0
11
1175
21
16375
31
0
0
LINE
8
A-FLOOR-0-A-WALL-INT
10
6365
20
10750
30
0
11
6365
21
15425
31
0
0
LINE
8
A-FLOOR-0-A-WALL-INT
10
6515
20
10750
30
0
11
6515
21
15425
31
0
0
LINE
8
A-FLOOR-0-A-WALL-INT
10
6365
20
10750
30
0
11
6515
21
10750
31
0
0
LINE
8
A-FLOOR-0-A-WALL-INT
10
6365
20
16325
30
0
11
6365
21
21000
31
0
0
LINE
8
A-FLOOR-0-A-WALL-INT
10
6515
20
16325
30
0
11
6515
21
21000
31
0
0
LINE
8
A-FLOOR-0-A-WALL-INT
10
6365
20
21000
30
0
11
6515
21
21000
31
0
0
LINE
8
A-FLOOR-0-A-WALL-INT
10
6365
20
15425
30
0
11
6515
21
15425
31
0
0
LINE
8
A-FLOOR-0-A-WALL-INT
10
6365
20
16325
30
0
11
6515
21
16325
31
0
0
LINE
8
A-WALL-INT
10
6365
20
10750
30
0
11
6365
21
15425
31
0
0
LINE
8
A-WALL-INT
10
6515
20
10750
30
0
11
6515
21
15425
31
0
0
LINE
8
A-WALL-INT
10
6365
20
10750
30
0
11
6515
21
10750
31
0
0
LINE
8
A-WALL-INT
10
6365
20
16325
30
0
11
6365
21
21000
31
0
0
LINE
8
A-WALL-INT
10
6515
20
16325
30
0
11
6515
21
21000
31
0
0
LINE
8
A-WALL-INT
10
6365
20
21000
30
0
11
6515
21
21000
31
0
0
LINE
8
A-WALL-INT
10
6365
20
15425
30
0
11
6515
21
15425
31
0
0
LINE
8
A-WALL-INT
10
6365
20
16325
30
0
11
6515
21
16325
31
0
0
LINE
8
A-FLOOR-0-A-WALL-SERVICE
10
9540
20
10750
30
0
11
9540
21
15475
31
0
0
LINE
8
A-FLOOR-0-A-WALL-SERVICE
10
9660
20
10750
30
0
11
9660
21
15475
31
0
0
LINE
8
A-FLOOR-0-A-WALL-SERVICE
10
9540
20
10750
30
0
11
9660
21
10750
31
0
0
LINE
8
A-FLOOR-0-A-WALL-SERVICE
10
9540
20
16275
30
0
11
9540
21
21000
31
0
0
LINE
8
A-FLOOR-0-A-WALL-SERVICE
10
9660
20
16275
30
0
11
9660
21
21000
31
0
0
LINE
8
A-FLOOR-0-A-WALL-SERVICE
10
9540
20
21000
30
0
11
9660
21
21000
31
0
0
LINE
8
A-FLOOR-0-A-WALL-SERVICE
10
9540
20
15475
30
0
11
9660
21
15475
31
0
0
LINE
8
A-FLOOR-0-A-WALL-SERVICE
10
9540
20
16275
30
0
11
9660
21
16275
31
0
0
LINE
8
A-WALL-SERVICE
10
9540
20
10750
30
0
11
9540
21
15475
31
0
0
LINE
8
A-WALL-SERVICE
10
9660
20
10750
30
0
11
9660
21
15475
31
0
0
LINE
8
A-WALL-SERVICE
10
9540
20
10750
30
0
11
9660
21
10750
31
0
0
LINE
8
A-WALL-SERVICE
10
9540
20
16275
30
0
11
9540
21
21000
31
0
0
LINE
8
A-WALL-SERVICE
10
9660
20
16275
30
0
11
9660
21
21000
31
0
0
LINE
8
A-WALL-SERVICE
10
9540
20
21000
30
0
11
9660
21
21000
31
0
0
LINE
8
A-WALL-SERVICE
10
9540
20
15475
30
0
11
9660
21
15475
31
0
0
LINE
8
A-WALL-SERVICE
10
9540
20
16275
30
0
11
9660
21
16275
31
0
0
LINE
8
A-FLOOR-0-A-WALL-SERVICE
10
11040
20
10750
30
0
11
11040
21
15475
31
0
0
LINE
8
A-FLOOR-0-A-WALL-SERVICE
10
11160
20
10750
30
0
11
11160
21
15475
31
0
0
LINE
8
A-FLOOR-0-A-WALL-SERVICE
10
11040
20
10750
30
0
11
11160
21
10750
31
0
0
LINE
8
A-FLOOR-0-A-WALL-SERVICE
10
11040
20
16275
30
0
11
11040
21
21000
31
0
0
LINE
8
A-FLOOR-0-A-WALL-SERVICE
10
11160
20
16275
30
0
11
11160
21
21000
31
0
0
LINE
8
A-FLOOR-0-A-WALL-SERVICE
10
11040
20
21000
30
0
11
11160
21
21000
31
0
0
LINE
8
A-FLOOR-0-A-WALL-SERVICE
10
11040
20
15475
30
0
11
11160
21
15475
31
0
0
LINE
8
A-FLOOR-0-A-WALL-SERVICE
10
11040
20
16275
30
0
11
11160
21
16275
31
0
0
LINE
8
A-WALL-SERVICE
10
11040
20
10750
30
0
11
11040
21
15475
31
0
0
LINE
8
A-WALL-SERVICE
10
11160
20
10750
30
0
11
11160
21
15475
31
0
0
LINE
8
A-WALL-SERVICE
10
11040
20
10750
30
0
11
11160
21
10750
31
0
0
LINE
8
A-WALL-SERVICE
10
11040
20
16275
30
0
11
11040
21
21000
31
0
0
LINE
8
A-WALL-SERVICE
10
11160
20
16275
30
0
11
11160
21
21000
31
0
0
LINE
8
A-WALL-SERVICE
10
11040
20
21000
30
0
11
11160
21
21000
31
0
0
LINE
8
A-WALL-SERVICE
10
11040
20
15475
30
0
11
11160
21
15475
31
0
0
LINE
8
A-WALL-SERVICE
10
11040
20
16275
30
0
11
11160
21
16275
31
0
0
LINE
8
A-FLOOR-0-A-WALL-EXT
10
14325
20
1000
30
0
11
14325
21
2650
31
0
0
LINE
8
A-FLOOR-0-A-WALL-EXT
10
14675
20
1000
30
0
11
14675
21
2650
31
0
0
LINE
8
A-FLOOR-0-A-WALL-EXT
10
14325
20
1000
30
0
11
14675
21
1000
31
0
0
LINE
8
A-FLOOR-0-A-WALL-EXT
10
14325
20
2650
30
0
11
14675
21
2650
31
0
0
LINE
8
A-WALL-EXT
10
14325
20
1000
30
0
11
14325
21
2650
31
0
0
LINE
8
A-WALL-EXT
10
14675
20
1000
30
0
11
14675
21
2650
31
0
0
LINE
8
A-WALL-EXT
10
14325
20
1000
30
0
11
14675
21
1000
31
0
0
LINE
8
A-WALL-EXT
10
14325
20
2650
30
0
11
14675
21
2650
31
0
0
LINE
8
A-FLOOR-0-A-WALL-EXT
10
14325
20
2650
30
0
11
14325
21
5050
31
0
0
LINE
8
A-FLOOR-0-A-WALL-EXT
10
14675
20
2650
30
0
11
14675
21
5050
31
0
0
LINE
8
A-FLOOR-0-A-WALL-EXT
10
14325
20
2650
30
0
11
14675
21
2650
31
0
0
LINE
8
A-FLOOR-0-A-WALL-EXT
10
14325
20
6850
30
0
11
14325
21
9250
31
0
0
LINE
8
A-FLOOR-0-A-WALL-EXT
10
14675
20
6850
30
0
11
14675
21
9250
31
0
0
LINE
8
A-FLOOR-0-A-WALL-EXT
10
14325
20
9250
30
0
11
14675
21
9250
31
0
0
LINE
8
A-FLOOR-0-A-WALL-EXT
10
14325
20
5050
30
0
11
14675
21
5050
31
0
0
LINE
8
A-FLOOR-0-A-WALL-EXT
10
14325
20
6850
30
0
11
14675
21
6850
31
0
0
LINE
8
A-WALL-EXT
10
14325
20
2650
30
0
11
14325
21
5050
31
0
0
LINE
8
A-WALL-EXT
10
14675
20
2650
30
0
11
14675
21
5050
31
0
0
LINE
8
A-WALL-EXT
10
14325
20
2650
30
0
11
14675
21
2650
31
0
0
LINE
8
A-WALL-EXT
10
14325
20
6850
30
0
11
14325
21
9250
31
0
0
LINE
8
A-WALL-EXT
10
14675
20
6850
30
0
11
14675
21
9250
31
0
0
LINE
8
A-WALL-EXT
10
14325
20
9250
30
0
11
14675
21
9250
31
0
0
LINE
8
A-WALL-EXT
10
14325
20
5050
30
0
11
14675
21
5050
31
0
0
LINE
8
A-WALL-EXT
10
14325
20
6850
30
0
11
14675
21
6850
31
0
0
LINE
8
A-FLOOR-0-A-WALL-EXT
10
14325
20
9250
30
0
11
14325
21
10750
31
0
0
LINE
8
A-FLOOR-0-A-WALL-EXT
10
14675
20
9250
30
0
11
14675
21
10750
31
0
0
LINE
8
A-FLOOR-0-A-WALL-EXT
10
14325
20
9250
30
0
11
14675
21
9250
31
0
0
LINE
8
A-FLOOR-0-A-WALL-EXT
10
14325
20
10750
30
0
11
14675
21
10750
31
0
0
LINE
8
A-WALL-EXT
10
14325
20
9250
30
0
11
14325
21
10750
31
0
0
LINE
8
A-WALL-EXT
10
14675
20
9250
30
0
11
14675
21
10750
31
0
0
LINE
8
A-WALL-EXT
10
14325
20
9250
30
0
11
14675
21
9250
31
0
0
LINE
8
A-WALL-EXT
10
14325
20
10750
30
0
11
14675
21
10750
31
0
0
LINE
8
A-FLOOR-0-A-WALL-EXT
10
14325
20
10750
30
0
11
14325
21
14875
31
0
0
LINE
8
A-FLOOR-0-A-WALL-EXT
10
14675
20
10750
30
0
11
14675
21
14875
31
0
0
LINE
8
A-FLOOR-0-A-WALL-EXT
10
14325
20
10750
30
0
11
14675
21
10750
31
0
0
LINE
8
A-FLOOR-0-A-WALL-EXT
10
14325
20
16875
30
0
11
14325
21
21000
31
0
0
LINE
8
A-FLOOR-0-A-WALL-EXT
10
14675
20
16875
30
0
11
14675
21
21000
31
0
0
LINE
8
A-FLOOR-0-A-WALL-EXT
10
14325
20
21000
30
0
11
14675
21
21000
31
0
0
LINE
8
A-FLOOR-0-A-WALL-EXT
10
14325
20
14875
30
0
11
14675
21
14875
31
0
0
LINE
8
A-FLOOR-0-A-WALL-EXT
10
14325
20
16875
30
0
11
14675
21
16875
31
0
0
LINE
8
A-WALL-EXT
10
14325
20
10750
30
0
11
14325
21
14875
31
0
0
LINE
8
A-WALL-EXT
10
14675
20
10750
30
0
11
14675
21
14875
31
0
0
LINE
8
A-WALL-EXT
10
14325
20
10750
30
0
11
14675
21
10750
31
0
0
LINE
8
A-WALL-EXT
10
14325
20
16875
30
0
11
14325
21
21000
31
0
0
LINE
8
A-WALL-EXT
10
14675
20
16875
30
0
11
14675
21
21000
31
0
0
LINE
8
A-WALL-EXT
10
14325
20
21000
30
0
11
14675
21
21000
31
0
0
LINE
8
A-WALL-EXT
10
14325
20
14875
30
0
11
14675
21
14875
31
0
0
LINE
8
A-WALL-EXT
10
14325
20
16875
30
0
11
14675
21
16875
31
0
0
LINE
8
A-FLOOR-0-A-WALL-SERVICE
10
12100
20
2710
30
0
11
12900
21
2710
31
0
0
LINE
8
A-FLOOR-0-A-WALL-SERVICE
10
12100
20
2590
30
0
11
12900
21
2590
31
0
0
LINE
8
A-FLOOR-0-A-WALL-SERVICE
10
12100
20
2710
30
0
11
12100
21
2590
31
0
0
LINE
8
A-FLOOR-0-A-WALL-SERVICE
10
13700
20
2710
30
0
11
14500
21
2710
31
0
0
LINE
8
A-FLOOR-0-A-WALL-SERVICE
10
13700
20
2590
30
0
11
14500
21
2590
31
0
0
LINE
8
A-FLOOR-0-A-WALL-SERVICE
10
14500
20
2710
30
0
11
14500
21
2590
31
0
0
LINE
8
A-FLOOR-0-A-WALL-SERVICE
10
12900
20
2710
30
0
11
12900
21
2590
31
0
0
LINE
8
A-FLOOR-0-A-WALL-SERVICE
10
13700
20
2710
30
0
11
13700
21
2590
31
0
0
LINE
8
A-WALL-SERVICE
10
12100
20
2710
30
0
11
12900
21
2710
31
0
0
LINE
8
A-WALL-SERVICE
10
12100
20
2590
30
0
11
12900
21
2590
31
0
0
LINE
8
A-WALL-SERVICE
10
12100
20
2710
30
0
11
12100
21
2590
31
0
0
LINE
8
A-WALL-SERVICE
10
13700
20
2710
30
0
11
14500
21
2710
31
0
0
LINE
8
A-WALL-SERVICE
10
13700
20
2590
30
0
11
14500
21
2590
31
0
0
LINE
8
A-WALL-SERVICE
10
14500
20
2710
30
0
11
14500
21
2590
31
0
0
LINE
8
A-WALL-SERVICE
10
12900
20
2710
30
0
11
12900
21
2590
31
0
0
LINE
8
A-WALL-SERVICE
10
13700
20
2710
30
0
11
13700
21
2590
31
0
0
LINE
8
A-FLOOR-0-A-WALL-INT
10
1000
20
9325
30
0
11
4120
21
9325
31
0
0
LINE
8
A-FLOOR-0-A-WALL-INT
10
1000
20
9175
30
0
11
4120
21
9175
31
0
0
LINE
8
A-FLOOR-0-A-WALL-INT
10
1000
20
9325
30
0
11
1000
21
9175
31
0
0
LINE
8
A-FLOOR-0-A-WALL-INT
10
5020
20
9325
30
0
11
8140
21
9325
31
0
0
LINE
8
A-FLOOR-0-A-WALL-INT
10
5020
20
9175
30
0
11
8140
21
9175
31
0
0
LINE
8
A-FLOOR-0-A-WALL-INT
10
8140
20
9325
30
0
11
8140
21
9175
31
0
0
LINE
8
A-FLOOR-0-A-WALL-INT
10
4120
20
9325
30
0
11
4120
21
9175
31
0
0
LINE
8
A-FLOOR-0-A-WALL-INT
10
5020
20
9325
30
0
11
5020
21
9175
31
0
0
LINE
8
A-WALL-INT
10
1000
20
9325
30
0
11
4120
21
9325
31
0
0
LINE
8
A-WALL-INT
10
1000
20
9175
30
0
11
4120
21
9175
31
0
0
LINE
8
A-WALL-INT
10
1000
20
9325
30
0
11
1000
21
9175
31
0
0
LINE
8
A-WALL-INT
10
5020
20
9325
30
0
11
8140
21
9325
31
0
0
LINE
8
A-WALL-INT
10
5020
20
9175
30
0
11
8140
21
9175
31
0
0
LINE
8
A-WALL-INT
10
8140
20
9325
30
0
11
8140
21
9175
31
0
0
LINE
8
A-WALL-INT
10
4120
20
9325
30
0
11
4120
21
9175
31
0
0
LINE
8
A-WALL-INT
10
5020
20
9325
30
0
11
5020
21
9175
31
0
0
LINE
8
A-FLOOR-0-A-WALL-INT
10
8140
20
9325
30
0
11
9070
21
9325
31
0
0
LINE
8
A-FLOOR-0-A-WALL-INT
10
8140
20
9175
30
0
11
9070
21
9175
31
0
0
LINE
8
A-FLOOR-0-A-WALL-INT
10
8140
20
9325
30
0
11
8140
21
9175
31
0
0
LINE
8
A-FLOOR-0-A-WALL-INT
10
9970
20
9325
30
0
11
10900
21
9325
31
0
0
LINE
8
A-FLOOR-0-A-WALL-INT
10
9970
20
9175
30
0
11
10900
21
9175
31
0
0
LINE
8
A-FLOOR-0-A-WALL-INT
10
10900
20
9325
30
0
11
10900
21
9175
31
0
0
LINE
8
A-FLOOR-0-A-WALL-INT
10
9070
20
9325
30
0
11
9070
21
9175
31
0
0
LINE
8
A-FLOOR-0-A-WALL-INT
10
9970
20
9325
30
0
11
9970
21
9175
31
0
0
LINE
8
A-WALL-INT
10
8140
20
9325
30
0
11
9070
21
9325
31
0
0
LINE
8
A-WALL-INT
10
8140
20
9175
30
0
11
9070
21
9175
31
0
0
LINE
8
A-WALL-INT
10
8140
20
9325
30
0
11
8140
21
9175
31
0
0
LINE
8
A-WALL-INT
10
9970
20
9325
30
0
11
10900
21
9325
31
0
0
LINE
8
A-WALL-INT
10
9970
20
9175
30
0
11
10900
21
9175
31
0
0
LINE
8
A-WALL-INT
10
10900
20
9325
30
0
11
10900
21
9175
31
0
0
LINE
8
A-WALL-INT
10
9070
20
9325
30
0
11
9070
21
9175
31
0
0
LINE
8
A-WALL-INT
10
9970
20
9325
30
0
11
9970
21
9175
31
0
0
LINE
8
A-FLOOR-0-A-WALL-SERVICE
10
10900
20
9310
30
0
11
11100
21
9310
31
0
0
LINE
8
A-FLOOR-0-A-WALL-SERVICE
10
10900
20
9190
30
0
11
11100
21
9190
31
0
0
LINE
8
A-FLOOR-0-A-WALL-SERVICE
10
10900
20
9310
30
0
11
10900
21
9190
31
0
0
LINE
8
A-FLOOR-0-A-WALL-SERVICE
10
11900
20
9310
30
0
11
12100
21
9310
31
0
0
LINE
8
A-FLOOR-0-A-WALL-SERVICE
10
11900
20
9190
30
0
11
12100
21
9190
31
0
0
LINE
8
A-FLOOR-0-A-WALL-SERVICE
10
12100
20
9310
30
0
11
12100
21
9190
31
0
0
LINE
8
A-FLOOR-0-A-WALL-SERVICE
10
11100
20
9310
30
0
11
11100
21
9190
31
0
0
LINE
8
A-FLOOR-0-A-WALL-SERVICE
10
11900
20
9310
30
0
11
11900
21
9190
31
0
0
LINE
8
A-WALL-SERVICE
10
10900
20
9310
30
0
11
11100
21
9310
31
0
0
LINE
8
A-WALL-SERVICE
10
10900
20
9190
30
0
11
11100
21
9190
31
0
0
LINE
8
A-WALL-SERVICE
10
10900
20
9310
30
0
11
10900
21
9190
31
0
0
LINE
8
A-WALL-SERVICE
10
11900
20
9310
30
0
11
12100
21
9310
31
0
0
LINE
8
A-WALL-SERVICE
10
11900
20
9190
30
0
11
12100
21
9190
31
0
0
LINE
8
A-WALL-SERVICE
10
12100
20
9310
30
0
11
12100
21
9190
31
0
0
LINE
8
A-WALL-SERVICE
10
11100
20
9310
30
0
11
11100
21
9190
31
0
0
LINE
8
A-WALL-SERVICE
10
11900
20
9310
30
0
11
11900
21
9190
31
0
0
LINE
8
A-FLOOR-0-A-WALL-INT
10
12100
20
9325
30
0
11
12850
21
9325
31
0
0
LINE
8
A-FLOOR-0-A-WALL-INT
10
12100
20
9175
30
0
11
12850
21
9175
31
0
0
LINE
8
A-FLOOR-0-A-WALL-INT
10
12100
20
9325
30
0
11
12100
21
9175
31
0
0
LINE
8
A-FLOOR-0-A-WALL-INT
10
13750
20
9325
30
0
11
14500
21
9325
31
0
0
LINE
8
A-FLOOR-0-A-WALL-INT
10
13750
20
9175
30
0
11
14500
21
9175
31
0
0
LINE
8
A-FLOOR-0-A-WALL-INT
10
14500
20
9325
30
0
11
14500
21
9175
31
0
0
LINE
8
A-FLOOR-0-A-WALL-INT
10
12850
20
9325
30
0
11
12850
21
9175
31
0
0
LINE
8
A-FLOOR-0-A-WALL-INT
10
13750
20
9325
30
0
11
13750
21
9175
31
0
0
LINE
8
A-WALL-INT
10
12100
20
9325
30
0
11
12850
21
9325
31
0
0
LINE
8
A-WALL-INT
10
12100
20
9175
30
0
11
12850
21
9175
31
0
0
LINE
8
A-WALL-INT
10
12100
20
9325
30
0
11
12100
21
9175
31
0
0
LINE
8
A-WALL-INT
10
13750
20
9325
30
0
11
14500
21
9325
31
0
0
LINE
8
A-WALL-INT
10
13750
20
9175
30
0
11
14500
21
9175
31
0
0
LINE
8
A-WALL-INT
10
14500
20
9325
30
0
11
14500
21
9175
31
0
0
LINE
8
A-WALL-INT
10
12850
20
9325
30
0
11
12850
21
9175
31
0
0
LINE
8
A-WALL-INT
10
13750
20
9325
30
0
11
13750
21
9175
31
0
0
LINE
8
A-FLOOR-0-A-WALL-EXT
10
11925
20
1000
30
0
11
11925
21
2650
31
0
0
LINE
8
A-FLOOR-0-A-WALL-EXT
10
12275
20
1000
30
0
11
12275
21
2650
31
0
0
LINE
8
A-FLOOR-0-A-WALL-EXT
10
11925
20
1000
30
0
11
12275
21
1000
31
0
0
LINE
8
A-FLOOR-0-A-WALL-EXT
10
11925
20
2650
30
0
11
12275
21
2650
31
0
0
LINE
8
A-WALL-EXT
10
11925
20
1000
30
0
11
11925
21
2650
31
0
0
LINE
8
A-WALL-EXT
10
12275
20
1000
30
0
11
12275
21
2650
31
0
0
LINE
8
A-WALL-EXT
10
11925
20
1000
30
0
11
12275
21
1000
31
0
0
LINE
8
A-WALL-EXT
10
11925
20
2650
30
0
11
12275
21
2650
31
0
0
LINE
8
A-FLOOR-0-A-WALL-EXT
10
11925
20
2650
30
0
11
11925
21
7190
31
0
0
LINE
8
A-FLOOR-0-A-WALL-EXT
10
12275
20
2650
30
0
11
12275
21
7190
31
0
0
LINE
8
A-FLOOR-0-A-WALL-EXT
10
11925
20
2650
30
0
11
12275
21
2650
31
0
0
LINE
8
A-FLOOR-0-A-WALL-EXT
10
11925
20
7190
30
0
11
12275
21
7190
31
0
0
LINE
8
A-WALL-EXT
10
11925
20
2650
30
0
11
11925
21
7190
31
0
0
LINE
8
A-WALL-EXT
10
12275
20
2650
30
0
11
12275
21
7190
31
0
0
LINE
8
A-WALL-EXT
10
11925
20
2650
30
0
11
12275
21
2650
31
0
0
LINE
8
A-WALL-EXT
10
11925
20
7190
30
0
11
12275
21
7190
31
0
0
LINE
8
A-FLOOR-0-A-WALL-SERVICE
10
12040
20
7190
30
0
11
12040
21
9250
31
0
0
LINE
8
A-FLOOR-0-A-WALL-SERVICE
10
12160
20
7190
30
0
11
12160
21
9250
31
0
0
LINE
8
A-FLOOR-0-A-WALL-SERVICE
10
12040
20
7190
30
0
11
12160
21
7190
31
0
0
LINE
8
A-FLOOR-0-A-WALL-SERVICE
10
12040
20
9250
30
0
11
12160
21
9250
31
0
0
LINE
8
A-WALL-SERVICE
10
12040
20
7190
30
0
11
12040
21
9250
31
0
0
LINE
8
A-WALL-SERVICE
10
12160
20
7190
30
0
11
12160
21
9250
31
0
0
LINE
8
A-WALL-SERVICE
10
12040
20
7190
30
0
11
12160
21
7190
31
0
0
LINE
8
A-WALL-SERVICE
10
12040
20
9250
30
0
11
12160
21
9250
31
0
0
LINE
8
A-FLOOR-0-A-WALL-EXT
10
1000
20
1175
30
0
11
1300
21
1175
31
0
0
LINE
8
A-FLOOR-0-A-WALL-EXT
10
1000
20
825
30
0
11
1300
21
825
31
0
0
LINE
8
A-FLOOR-0-A-WALL-EXT
10
1000
20
1175
30
0
11
1000
21
825
31
0
0
LINE
8
A-FLOOR-0-A-WALL-EXT
10
2300
20
1175
30
0
11
2600
21
1175
31
0
0
LINE
8
A-FLOOR-0-A-WALL-EXT
10
2300
20
825
30
0
11
2600
21
825
31
0
0
LINE
8
A-FLOOR-0-A-WALL-EXT
10
2600
20
1175
30
0
11
2600
21
825
31
0
0
LINE
8
A-FLOOR-0-A-WALL-EXT
10
1300
20
1175
30
0
11
1300
21
825
31
0
0
LINE
8
A-FLOOR-0-A-WALL-EXT
10
2300
20
1175
30
0
11
2300
21
825
31
0
0
LINE
8
A-WALL-EXT
10
1000
20
1175
30
0
11
1300
21
1175
31
0
0
LINE
8
A-WALL-EXT
10
1000
20
825
30
0
11
1300
21
825
31
0
0
LINE
8
A-WALL-EXT
10
1000
20
1175
30
0
11
1000
21
825
31
0
0
LINE
8
A-WALL-EXT
10
2300
20
1175
30
0
11
2600
21
1175
31
0
0
LINE
8
A-WALL-EXT
10
2300
20
825
30
0
11
2600
21
825
31
0
0
LINE
8
A-WALL-EXT
10
2600
20
1175
30
0
11
2600
21
825
31
0
0
LINE
8
A-WALL-EXT
10
1300
20
1175
30
0
11
1300
21
825
31
0
0
LINE
8
A-WALL-EXT
10
2300
20
1175
30
0
11
2300
21
825
31
0
0
LINE
8
A-FLOOR-0-A-WALL-EXT
10
8140
20
1175
30
0
11
8761
21
1175
31
0
0
LINE
8
A-FLOOR-0-A-WALL-EXT
10
8140
20
825
30
0
11
8761
21
825
31
0
0
LINE
8
A-FLOOR-0-A-WALL-EXT
10
8140
20
1175
30
0
11
8140
21
825
31
0
0
LINE
8
A-FLOOR-0-A-WALL-EXT
10
10279
20
1175
30
0
11
10900
21
1175
31
0
0
LINE
8
A-FLOOR-0-A-WALL-EXT
10
10279
20
825
30
0
11
10900
21
825
31
0
0
LINE
8
A-FLOOR-0-A-WALL-EXT
10
10900
20
1175
30
0
11
10900
21
825
31
0
0
LINE
8
A-FLOOR-0-A-WALL-EXT
10
8761
20
1175
30
0
11
8761
21
825
31
0
0
LINE
8
A-FLOOR-0-A-WALL-EXT
10
10279
20
1175
30
0
11
10279
21
825
31
0
0
LINE
8
A-WALL-EXT
10
8140
20
1175
30
0
11
8761
21
1175
31
0
0
LINE
8
A-WALL-EXT
10
8140
20
825
30
0
11
8761
21
825
31
0
0
LINE
8
A-WALL-EXT
10
8140
20
1175
30
0
11
8140
21
825
31
0
0
LINE
8
A-WALL-EXT
10
10279
20
1175
30
0
11
10900
21
1175
31
0
0
LINE
8
A-WALL-EXT
10
10279
20
825
30
0
11
10900
21
825
31
0
0
LINE
8
A-WALL-EXT
10
10900
20
1175
30
0
11
10900
21
825
31
0
0
LINE
8
A-WALL-EXT
10
8761
20
1175
30
0
11
8761
21
825
31
0
0
LINE
8
A-WALL-EXT
10
10279
20
1175
30
0
11
10279
21
825
31
0
0
LINE
8
A-FLOOR-0-A-WALL-EXT
10
12100
20
1175
30
0
11
14500
21
1175
31
0
0
LINE
8
A-FLOOR-0-A-WALL-EXT
10
12100
20
825
30
0
11
14500
21
825
31
0
0
LINE
8
A-FLOOR-0-A-WALL-EXT
10
12100
20
1175
30
0
11
12100
21
825
31
0
0
LINE
8
A-FLOOR-0-A-WALL-EXT
10
14500
20
1175
30
0
11
14500
21
825
31
0
0
LINE
8
A-WALL-EXT
10
12100
20
1175
30
0
11
14500
21
1175
31
0
0
LINE
8
A-WALL-EXT
10
12100
20
825
30
0
11
14500
21
825
31
0
0
LINE
8
A-WALL-EXT
10
12100
20
1175
30
0
11
12100
21
825
31
0
0
LINE
8
A-WALL-EXT
10
14500
20
1175
30
0
11
14500
21
825
31
0
0
LINE
8
A-FLOOR-0-A-WALL-INT
10
1000
20
2575
30
0
11
1350
21
2575
31
0
0
LINE
8
A-FLOOR-0-A-WALL-INT
10
1000
20
2425
30
0
11
1350
21
2425
31
0
0
LINE
8
A-FLOOR-0-A-WALL-INT
10
1000
20
2575
30
0
11
1000
21
2425
31
0
0
LINE
8
A-FLOOR-0-A-WALL-INT
10
2250
20
2575
30
0
11
2600
21
2575
31
0
0
LINE
8
A-FLOOR-0-A-WALL-INT
10
2250
20
2425
30
0
11
2600
21
2425
31
0
0
LINE
8
A-FLOOR-0-A-WALL-INT
10
2600
20
2575
30
0
11
2600
21
2425
31
0
0
LINE
8
A-FLOOR-0-A-WALL-INT
10
1350
20
2575
30
0
11
1350
21
2425
31
0
0
LINE
8
A-FLOOR-0-A-WALL-INT
10
2250
20
2575
30
0
11
2250
21
2425
31
0
0
LINE
8
A-WALL-INT
10
1000
20
2575
30
0
11
1350
21
2575
31
0
0
LINE
8
A-WALL-INT
10
1000
20
2425
30
0
11
1350
21
2425
31
0
0
LINE
8
A-WALL-INT
10
1000
20
2575
30
0
11
1000
21
2425
31
0
0
LINE
8
A-WALL-INT
10
2250
20
2575
30
0
11
2600
21
2575
31
0
0
LINE
8
A-WALL-INT
10
2250
20
2425
30
0
11
2600
21
2425
31
0
0
LINE
8
A-WALL-INT
10
2600
20
2575
30
0
11
2600
21
2425
31
0
0
LINE
8
A-WALL-INT
10
1350
20
2575
30
0
11
1350
21
2425
31
0
0
LINE
8
A-WALL-INT
10
2250
20
2575
30
0
11
2250
21
2425
31
0
0
LINE
8
A-FLOOR-0-A-WALL-EXT
10
2600
20
2675
30
0
11
8140
21
2675
31
0
0
LINE
8
A-FLOOR-0-A-WALL-EXT
10
2600
20
2325
30
0
11
8140
21
2325
31
0
0
LINE
8
A-FLOOR-0-A-WALL-EXT
10
2600
20
2675
30
0
11
2600
21
2325
31
0
0
LINE
8
A-FLOOR-0-A-WALL-EXT
10
8140
20
2675
30
0
11
8140
21
2325
31
0
0
LINE
8
A-WALL-EXT
10
2600
20
2675
30
0
11
8140
21
2675
31
0
0
LINE
8
A-WALL-EXT
10
2600
20
2325
30
0
11
8140
21
2325
31
0
0
LINE
8
A-WALL-EXT
10
2600
20
2675
30
0
11
2600
21
2325
31
0
0
LINE
8
A-WALL-EXT
10
8140
20
2675
30
0
11
8140
21
2325
31
0
0
LINE
8
A-FLOOR-0-A-WALL-EXT
10
7965
20
1000
30
0
11
7965
21
2500
31
0
0
LINE
8
A-FLOOR-0-A-WALL-EXT
10
8315
20
1000
30
0
11
8315
21
2500
31
0
0
LINE
8
A-FLOOR-0-A-WALL-EXT
10
7965
20
1000
30
0
11
8315
21
1000
31
0
0
LINE
8
A-FLOOR-0-A-WALL-EXT
10
7965
20
2500
30
0
11
8315
21
2500
31
0
0
LINE
8
A-WALL-EXT
10
7965
20
1000
30
0
11
7965
21
2500
31
0
0
LINE
8
A-WALL-EXT
10
8315
20
1000
30
0
11
8315
21
2500
31
0
0
LINE
8
A-WALL-EXT
10
7965
20
1000
30
0
11
8315
21
1000
31
0
0
LINE
8
A-WALL-EXT
10
7965
20
2500
30
0
11
8315
21
2500
31
0
0
LINE
8
A-FLOOR-0-A-WALL-INT
10
8065
20
2500
30
0
11
8065
21
9250
31
0
0
LINE
8
A-FLOOR-0-A-WALL-INT
10
8215
20
2500
30
0
11
8215
21
9250
31
0
0
LINE
8
A-FLOOR-0-A-WALL-INT
10
8065
20
2500
30
0
11
8215
21
2500
31
0
0
LINE
8
A-FLOOR-0-A-WALL-INT
10
8065
20
9250
30
0
11
8215
21
9250
31
0
0
LINE
8
A-WALL-INT
10
8065
20
2500
30
0
11
8065
21
9250
31
0
0
LINE
8
A-WALL-INT
10
8215
20
2500
30
0
11
8215
21
9250
31
0
0
LINE
8
A-WALL-INT
10
8065
20
2500
30
0
11
8215
21
2500
31
0
0
LINE
8
A-WALL-INT
10
8065
20
9250
30
0
11
8215
21
9250
31
0
0
LINE
8
A-FLOOR-0-A-WALL-EXT
10
10900
20
7365
30
0
11
12100
21
7365
31
0
0
LINE
8
A-FLOOR-0-A-WALL-EXT
10
10900
20
7015
30
0
11
12100
21
7015
31
0
0
LINE
8
A-FLOOR-0-A-WALL-EXT
10
10900
20
7365
30
0
11
10900
21
7015
31
0
0
LINE
8
A-FLOOR-0-A-WALL-EXT
10
12100
20
7365
30
0
11
12100
21
7015
31
0
0
LINE
8
A-WALL-EXT
10
10900
20
7365
30
0
11
12100
21
7365
31
0
0
LINE
8
A-WALL-EXT
10
10900
20
7015
30
0
11
12100
21
7015
31
0
0
LINE
8
A-WALL-EXT
10
10900
20
7365
30
0
11
10900
21
7015
31
0
0
LINE
8
A-WALL-EXT
10
12100
20
7365
30
0
11
12100
21
7015
31
0
0
LINE
8
A-FLOOR-0-A-WALL-EXT
10
10725
20
1000
30
0
11
10725
21
7190
31
0
0
LINE
8
A-FLOOR-0-A-WALL-EXT
10
11075
20
1000
30
0
11
11075
21
7190
31
0
0
LINE
8
A-FLOOR-0-A-WALL-EXT
10
10725
20
1000
30
0
11
11075
21
1000
31
0
0
LINE
8
A-FLOOR-0-A-WALL-EXT
10
10725
20
7190
30
0
11
11075
21
7190
31
0
0
LINE
8
A-WALL-EXT
10
10725
20
1000
30
0
11
10725
21
7190
31
0
0
LINE
8
A-WALL-EXT
10
11075
20
1000
30
0
11
11075
21
7190
31
0
0
LINE
8
A-WALL-EXT
10
10725
20
1000
30
0
11
11075
21
1000
31
0
0
LINE
8
A-WALL-EXT
10
10725
20
7190
30
0
11
11075
21
7190
31
0
0
LINE
8
A-FLOOR-0-A-WALL-SERVICE
10
10840
20
7190
30
0
11
10840
21
9250
31
0
0
LINE
8
A-FLOOR-0-A-WALL-SERVICE
10
10960
20
7190
30
0
11
10960
21
9250
31
0
0
LINE
8
A-FLOOR-0-A-WALL-SERVICE
10
10840
20
7190
30
0
11
10960
21
7190
31
0
0
LINE
8
A-FLOOR-0-A-WALL-SERVICE
10
10840
20
9250
30
0
11
10960
21
9250
31
0
0
LINE
8
A-WALL-SERVICE
10
10840
20
7190
30
0
11
10840
21
9250
31
0
0
LINE
8
A-WALL-SERVICE
10
10960
20
7190
30
0
11
10960
21
9250
31
0
0
LINE
8
A-WALL-SERVICE
10
10840
20
7190
30
0
11
10960
21
7190
31
0
0
LINE
8
A-WALL-SERVICE
10
10840
20
9250
30
0
11
10960
21
9250
31
0
0
LINE
8
A-FLOOR-0-A-WALL-EXT
10
2425
20
1000
30
0
11
2425
21
2500
31
0
0
LINE
8
A-FLOOR-0-A-WALL-EXT
10
2775
20
1000
30
0
11
2775
21
2500
31
0
0
LINE
8
A-FLOOR-0-A-WALL-EXT
10
2425
20
1000
30
0
11
2775
21
1000
31
0
0
LINE
8
A-FLOOR-0-A-WALL-EXT
10
2425
20
2500
30
0
11
2775
21
2500
31
0
0
LINE
8
A-WALL-EXT
10
2425
20
1000
30
0
11
2425
21
2500
31
0
0
LINE
8
A-WALL-EXT
10
2775
20
1000
30
0
11
2775
21
2500
31
0
0
LINE
8
A-WALL-EXT
10
2425
20
1000
30
0
11
2775
21
1000
31
0
0
LINE
8
A-WALL-EXT
10
2425
20
2500
30
0
11
2775
21
2500
31
0
0
LINE
8
A-FLOOR-0-A-DOOR
10
1300
20
1000
30
0
11
2300
21
1000
31
0
0
LINE
8
A-FLOOR-0-A-DOOR
10
1300
20
2000
30
0
11
1260
21
2000
31
0
0
LINE
8
A-DOOR
10
1300
20
1000
30
0
11
2300
21
1000
31
0
0
LINE
8
A-DOOR
10
1300
20
2000
30
0
11
1260
21
2000
31
0
0
LINE
8
A-FLOOR-0-A-DOOR
10
1675
20
10750
30
0
11
2475
21
10750
31
0
0
LINE
8
A-FLOOR-0-A-DOOR
10
1675
20
11550
30
0
11
1635
21
11550
31
0
0
LINE
8
A-DOOR
10
1675
20
10750
30
0
11
2475
21
10750
31
0
0
LINE
8
A-DOOR
10
1675
20
11550
30
0
11
1635
21
11550
31
0
0
LINE
8
A-FLOOR-0-A-DOOR
10
10750
20
10750
30
0
11
9950
21
10750
31
0
0
LINE
8
A-FLOOR-0-A-DOOR
10
10750
20
11550
30
0
11
10710
21
11550
31
0
0
LINE
8
A-DOOR
10
10750
20
10750
30
0
11
9950
21
10750
31
0
0
LINE
8
A-DOOR
10
10750
20
11550
30
0
11
10710
21
11550
31
0
0
LINE
8
A-FLOOR-0-A-DOOR
10
11900
20
9250
30
0
11
11100
21
9250
31
0
0
LINE
8
A-FLOOR-0-A-DOOR
10
11900
20
8450
30
0
11
11940
21
8450
31
0
0
LINE
8
A-DOOR
10
11900
20
9250
30
0
11
11100
21
9250
31
0
0
LINE
8
A-DOOR
10
11900
20
8450
30
0
11
11940
21
8450
31
0
0
LINE
8
A-FLOOR-0-A-DOOR
10
5245
20
10750
30
0
11
4345
21
10750
31
0
0
LINE
8
A-FLOOR-0-A-DOOR
10
5245
20
11650
30
0
11
5205
21
11650
31
0
0
LINE
8
A-DOOR
10
5245
20
10750
30
0
11
4345
21
10750
31
0
0
LINE
8
A-DOOR
10
5245
20
11650
30
0
11
5205
21
11650
31
0
0
LINE
8
A-FLOOR-0-A-DOOR
10
7570
20
10750
30
0
11
8470
21
10750
31
0
0
LINE
8
A-FLOOR-0-A-DOOR
10
7570
20
11650
30
0
11
7530
21
11650
31
0
0
LINE
8
A-DOOR
10
7570
20
10750
30
0
11
8470
21
10750
31
0
0
LINE
8
A-DOOR
10
7570
20
11650
30
0
11
7530
21
11650
31
0
0
LINE
8
A-FLOOR-0-A-DOOR
10
12350
20
10750
30
0
11
13250
21
10750
31
0
0
LINE
8
A-FLOOR-0-A-DOOR
10
12350
20
11650
30
0
11
12310
21
11650
31
0
0
LINE
8
A-DOOR
10
12350
20
10750
30
0
11
13250
21
10750
31
0
0
LINE
8
A-DOOR
10
12350
20
11650
30
0
11
12310
21
11650
31
0
0
LINE
8
A-FLOOR-0-A-DOOR
10
5020
20
9250
30
0
11
4120
21
9250
31
0
0
LINE
8
A-FLOOR-0-A-DOOR
10
5020
20
8350
30
0
11
5060
21
8350
31
0
0
LINE
8
A-DOOR
10
5020
20
9250
30
0
11
4120
21
9250
31
0
0
LINE
8
A-DOOR
10
5020
20
8350
30
0
11
5060
21
8350
31
0
0
LINE
8
A-FLOOR-0-A-DOOR
10
9070
20
9250
30
0
11
9970
21
9250
31
0
0
LINE
8
A-FLOOR-0-A-DOOR
10
9070
20
8350
30
0
11
9110
21
8350
31
0
0
LINE
8
A-DOOR
10
9070
20
9250
30
0
11
9970
21
9250
31
0
0
LINE
8
A-DOOR
10
9070
20
8350
30
0
11
9110
21
8350
31
0
0
LINE
8
A-FLOOR-0-A-DOOR
10
12850
20
9250
30
0
11
13750
21
9250
31
0
0
LINE
8
A-FLOOR-0-A-DOOR
10
12850
20
8350
30
0
11
12890
21
8350
31
0
0
LINE
8
A-DOOR
10
12850
20
9250
30
0
11
13750
21
9250
31
0
0
LINE
8
A-DOOR
10
12850
20
8350
30
0
11
12890
21
8350
31
0
0
LINE
8
A-FLOOR-0-A-DOOR
10
2250
20
2500
30
0
11
1350
21
2500
31
0
0
LINE
8
A-FLOOR-0-A-DOOR
10
2250
20
3400
30
0
11
2210
21
3400
31
0
0
LINE
8
A-DOOR
10
2250
20
2500
30
0
11
1350
21
2500
31
0
0
LINE
8
A-DOOR
10
2250
20
3400
30
0
11
2210
21
3400
31
0
0
LINE
8
A-FLOOR-0-A-DOOR
10
3150
20
16275
30
0
11
3150
21
15475
31
0
0
LINE
8
A-FLOOR-0-A-DOOR
10
2350
20
16275
30
0
11
2350
21
16235
31
0
0
LINE
8
A-DOOR
10
3150
20
16275
30
0
11
3150
21
15475
31
0
0
LINE
8
A-DOOR
10
2350
20
16275
30
0
11
2350
21
16235
31
0
0
LINE
8
A-FLOOR-0-A-DOOR
10
6440
20
16325
30
0
11
6440
21
15425
31
0
0
LINE
8
A-FLOOR-0-A-DOOR
10
5540
20
16325
30
0
11
5540
21
16285
31
0
0
LINE
8
A-DOOR
10
6440
20
16325
30
0
11
6440
21
15425
31
0
0
LINE
8
A-DOOR
10
5540
20
16325
30
0
11
5540
21
16285
31
0
0
LINE
8
A-FLOOR-0-A-DOOR
10
12900
20
2650
30
0
11
13700
21
2650
31
0
0
LINE
8
A-FLOOR-0-A-DOOR
10
12900
20
1850
30
0
11
12940
21
1850
31
0
0
LINE
8
A-DOOR
10
12900
20
2650
30
0
11
13700
21
2650
31
0
0
LINE
8
A-DOOR
10
12900
20
1850
30
0
11
12940
21
1850
31
0
0
LINE
8
A-FLOOR-0-A-DOOR
10
9600
20
15475
30
0
11
9600
21
16275
31
0
0
LINE
8
A-FLOOR-0-A-DOOR
10
10400
20
15475
30
0
11
10400
21
15515
31
0
0
LINE
8
A-DOOR
10
9600
20
15475
30
0
11
9600
21
16275
31
0
0
LINE
8
A-DOOR
10
10400
20
15475
30
0
11
10400
21
15515
31
0
0
LINE
8
A-FLOOR-0-A-DOOR
10
11100
20
16275
30
0
11
11100
21
15475
31
0
0
LINE
8
A-FLOOR-0-A-DOOR
10
10300
20
16275
30
0
11
10300
21
16235
31
0
0
LINE
8
A-DOOR
10
11100
20
16275
30
0
11
11100
21
15475
31
0
0
LINE
8
A-DOOR
10
10300
20
16275
30
0
11
10300
21
16235
31
0
0
LINE
8
A-FLOOR-0-A-WINDOW
10
1060
20
15375
30
0
11
1060
21
16375
31
0
0
LINE
8
A-FLOOR-0-A-WINDOW
10
1020
20
15375
30
0
11
1020
21
16375
31
0
0
LINE
8
A-FLOOR-0-A-WINDOW
10
980
20
15375
30
0
11
980
21
16375
31
0
0
LINE
8
A-FLOOR-0-A-WINDOW
10
940
20
15375
30
0
11
940
21
16375
31
0
0
LINE
8
A-WINDOW
10
1060
20
15375
30
0
11
1060
21
16375
31
0
0
LINE
8
A-WINDOW
10
1020
20
15375
30
0
11
1020
21
16375
31
0
0
LINE
8
A-WINDOW
10
980
20
15375
30
0
11
980
21
16375
31
0
0
LINE
8
A-WINDOW
10
940
20
15375
30
0
11
940
21
16375
31
0
0
LINE
8
A-FLOOR-0-A-WINDOW
10
3808
20
20940
30
0
11
5782
21
20940
31
0
0
LINE
8
A-FLOOR-0-A-WINDOW
10
3808
20
20980
30
0
11
5782
21
20980
31
0
0
LINE
8
A-FLOOR-0-A-WINDOW
10
3808
20
21020
30
0
11
5782
21
21020
31
0
0
LINE
8
A-FLOOR-0-A-WINDOW
10
3808
20
21060
30
0
11
5782
21
21060
31
0
0
LINE
8
A-WINDOW
10
3808
20
20940
30
0
11
5782
21
20940
31
0
0
LINE
8
A-WINDOW
10
3808
20
20980
30
0
11
5782
21
20980
31
0
0
LINE
8
A-WINDOW
10
3808
20
21020
30
0
11
5782
21
21020
31
0
0
LINE
8
A-WINDOW
10
3808
20
21060
30
0
11
5782
21
21060
31
0
0
LINE
8
A-FLOOR-0-A-WINDOW
10
7230
20
20940
30
0
11
8810
21
20940
31
0
0
LINE
8
A-FLOOR-0-A-WINDOW
10
7230
20
20980
30
0
11
8810
21
20980
31
0
0
LINE
8
A-FLOOR-0-A-WINDOW
10
7230
20
21020
30
0
11
8810
21
21020
31
0
0
LINE
8
A-FLOOR-0-A-WINDOW
10
7230
20
21060
30
0
11
8810
21
21060
31
0
0
LINE
8
A-WINDOW
10
7230
20
20940
30
0
11
8810
21
20940
31
0
0
LINE
8
A-WINDOW
10
7230
20
20980
30
0
11
8810
21
20980
31
0
0
LINE
8
A-WINDOW
10
7230
20
21020
30
0
11
8810
21
21020
31
0
0
LINE
8
A-WINDOW
10
7230
20
21060
30
0
11
8810
21
21060
31
0
0
LINE
8
A-FLOOR-0-A-WINDOW
10
14560
20
14875
30
0
11
14560
21
16875
31
0
0
LINE
8
A-FLOOR-0-A-WINDOW
10
14520
20
14875
30
0
11
14520
21
16875
31
0
0
LINE
8
A-FLOOR-0-A-WINDOW
10
14480
20
14875
30
0
11
14480
21
16875
31
0
0
LINE
8
A-FLOOR-0-A-WINDOW
10
14440
20
14875
30
0
11
14440
21
16875
31
0
0
LINE
8
A-WINDOW
10
14560
20
14875
30
0
11
14560
21
16875
31
0
0
LINE
8
A-WINDOW
10
14520
20
14875
30
0
11
14520
21
16875
31
0
0
LINE
8
A-WINDOW
10
14480
20
14875
30
0
11
14480
21
16875
31
0
0
LINE
8
A-WINDOW
10
14440
20
14875
30
0
11
14440
21
16875
31
0
0
LINE
8
A-FLOOR-0-A-WINDOW
10
14560
20
5050
30
0
11
14560
21
6850
31
0
0
LINE
8
A-FLOOR-0-A-WINDOW
10
14520
20
5050
30
0
11
14520
21
6850
31
0
0
LINE
8
A-FLOOR-0-A-WINDOW
10
14480
20
5050
30
0
11
14480
21
6850
31
0
0
LINE
8
A-FLOOR-0-A-WINDOW
10
14440
20
5050
30
0
11
14440
21
6850
31
0
0
LINE
8
A-WINDOW
10
14560
20
5050
30
0
11
14560
21
6850
31
0
0
LINE
8
A-WINDOW
10
14520
20
5050
30
0
11
14520
21
6850
31
0
0
LINE
8
A-WINDOW
10
14480
20
5050
30
0
11
14480
21
6850
31
0
0
LINE
8
A-WINDOW
10
14440
20
5050
30
0
11
14440
21
6850
31
0
0
LINE
8
A-FLOOR-0-A-WINDOW
10
1060
20
4375
30
0
11
1060
21
7375
31
0
0
LINE
8
A-FLOOR-0-A-WINDOW
10
1020
20
4375
30
0
11
1020
21
7375
31
0
0
LINE
8
A-FLOOR-0-A-WINDOW
10
980
20
4375
30
0
11
980
21
7375
31
0
0
LINE
8
A-FLOOR-0-A-WINDOW
10
940
20
4375
30
0
11
940
21
7375
31
0
0
LINE
8
A-WINDOW
10
1060
20
4375
30
0
11
1060
21
7375
31
0
0
LINE
8
A-WINDOW
10
1020
20
4375
30
0
11
1020
21
7375
31
0
0
LINE
8
A-WINDOW
10
980
20
4375
30
0
11
980
21
7375
31
0
0
LINE
8
A-WINDOW
10
940
20
4375
30
0
11
940
21
7375
31
0
0
LINE
8
A-FLOOR-0-A-WINDOW
10
8761
20
940
30
0
11
10279
21
940
31
0
0
LINE
8
A-FLOOR-0-A-WINDOW
10
8761
20
980
30
0
11
10279
21
980
31
0
0
LINE
8
A-FLOOR-0-A-WINDOW
10
8761
20
1020
30
0
11
10279
21
1020
31
0
0
LINE
8
A-FLOOR-0-A-WINDOW
10
8761
20
1060
30
0
11
10279
21
1060
31
0
0
LINE
8
A-WINDOW
10
8761
20
940
30
0
11
10279
21
940
31
0
0
LINE
8
A-WINDOW
10
8761
20
980
30
0
11
10279
21
980
31
0
0
LINE
8
A-WINDOW
10
8761
20
1020
30
0
11
10279
21
1020
31
0
0
LINE
8
A-WINDOW
10
8761
20
1060
30
0
11
10279
21
1060
31
0
0
LINE
8
A-GRID
10
1000
20
500
30
0
11
1000
21
21500
31
0
0
LINE
8
A-AXIS
10
7750
20
500
30
0
11
7750
21
21500
31
0
0
LINE
8
A-GRID
10
14500
20
500
30
0
11
14500
21
21500
31
0
0
LINE
8
A-GRID
10
500
20
1000
30
0
11
15000
21
1000
31
0
0
LINE
8
A-AXIS
10
500
20
11000
30
0
11
15000
21
11000
31
0
0
LINE
8
A-GRID
10
500
20
21000
30
0
11
15000
21
21000
31
0
0
LINE
8
A-FLOOR-0-A-DIMS
10
1000
20
0
30
0
11
14500
21
0
31
0
0
LINE
8
A-FLOOR-0-A-DIMS
10
1000
20
-150
30
0
11
1000
21
150
31
0
0
LINE
8
A-FLOOR-0-A-DIMS
10
14500
20
-150
30
0
11
14500
21
150
31
0
0
LINE
8
A-FLOOR-0-A-DIMS
10
0
20
1000
30
0
11
0
21
21000
31
0
0
LINE
8
A-FLOOR-0-A-DIMS
10
-150
20
1000
30
0
11
150
21
1000
31
0
0
LINE
8
A-FLOOR-0-A-DIMS
10
-150
20
21000
30
0
11
150
21
21000
31
0
0
LINE
8
A-DIMS
10
1000
20
0
30
0
11
14500
21
0
31
0
0
LINE
8
A-DIMS
10
1000
20
-150
30
0
11
1000
21
150
31
0
0
LINE
8
A-DIMS
10
14500
20
-150
30
0
11
14500
21
150
31
0
0
LINE
8
A-DIMS
10
0
20
1000
30
0
11
0
21
21000
31
0
0
LINE
8
A-DIMS
10
-150
20
1000
30
0
11
150
21
1000
31
0
0
LINE
8
A-DIMS
10
-150
20
21000
30
0
11
150
21
21000
31
0
0
LINE
8
A-FLOOR-0-A-DIMS
10
1000
20
10600
30
0
11
3150
21
10600
31
0
0
LINE
8
A-FLOOR-0-A-DIMS
10
850
20
10750
30
0
11
850
21
21000
31
0
0
LINE
8
A-DIMS
10
1000
20
10600
30
0
11
3150
21
10600
31
0
0
LINE
8
A-DIMS
10
850
20
10750
30
0
11
850
21
21000
31
0
0
LINE
8
A-FLOOR-0-A-DIMS
10
3150
20
10600
30
0
11
6440
21
10600
31
0
0
LINE
8
A-FLOOR-0-A-DIMS
10
3000
20
10750
30
0
11
3000
21
21000
31
0
0
LINE
8
A-DIMS
10
3150
20
10600
30
0
11
6440
21
10600
31
0
0
LINE
8
A-DIMS
10
3000
20
10750
30
0
11
3000
21
21000
31
0
0
LINE
8
A-FLOOR-0-A-DIMS
10
6440
20
10600
30
0
11
9600
21
10600
31
0
0
LINE
8
A-FLOOR-0-A-DIMS
10
6290
20
10750
30
0
11
6290
21
21000
31
0
0
LINE
8
A-DIMS
10
6440
20
10600
30
0
11
9600
21
10600
31
0
0
LINE
8
A-DIMS
10
6290
20
10750
30
0
11
6290
21
21000
31
0
0
LINE
8
A-FLOOR-0-A-DIMS
10
11100
20
10600
30
0
11
14500
21
10600
31
0
0
LINE
8
A-FLOOR-0-A-DIMS
10
10950
20
10750
30
0
11
10950
21
21000
31
0
0
LINE
8
A-DIMS
10
11100
20
10600
30
0
11
14500
21
10600
31
0
0
LINE
8
A-DIMS
10
10950
20
10750
30
0
11
10950
21
21000
31
0
0
LINE
8
A-FLOOR-0-A-DIMS
10
12100
20
2500
30
0
11
14500
21
2500
31
0
0
LINE
8
A-FLOOR-0-A-DIMS
10
11950
20
2650
30
0
11
11950
21
9250
31
0
0
LINE
8
A-DIMS
10
12100
20
2500
30
0
11
14500
21
2500
31
0
0
LINE
8
A-DIMS
10
11950
20
2650
30
0
11
11950
21
9250
31
0
0
LINE
8
A-FLOOR-0-A-DIMS
10
1000
20
2350
30
0
11
8140
21
2350
31
0
0
LINE
8
A-FLOOR-0-A-DIMS
10
850
20
2500
30
0
11
850
21
9250
31
0
0
LINE
8
A-DIMS
10
1000
20
2350
30
0
11
8140
21
2350
31
0
0
LINE
8
A-DIMS
10
850
20
2500
30
0
11
850
21
9250
31
0
0
LINE
8
A-FLOOR-0-A-DIMS
10
8140
20
850
30
0
11
10900
21
850
31
0
0
LINE
8
A-FLOOR-0-A-DIMS
10
7990
20
1000
30
0
11
7990
21
9250
31
0
0
LINE
8
A-DIMS
10
8140
20
850
30
0
11
10900
21
850
31
0
0
LINE
8
A-DIMS
10
7990
20
1000
30
0
11
7990
21
9250
31
0
0
LINE
8
A-NORTH
10
13300
20
20700
30
0
11
13300
21
21500
31
0
0
LINE
8
A-NORTH
10
13300
20
21500
30
0
11
13150
21
21200
31
0
0
LINE
8
A-NORTH
10
13300
20
21500
30
0
11
13450
21
21200
31
0
0
LINE
8
A-NORTH
10
13460
20
20700
30
0
11
13454.55
21
20741.41
31
0
0
LINE
8
A-NORTH
10
13454.55
20
20741.41
30
0
11
13438.56
21
20780
31
0
0
LINE
8
A-NORTH
10
13438.56
20
20780
30
0
11
13413.14
21
20813.14
31
0
0
LINE
8
A-NORTH
10
13413.14
20
20813.14
30
0
11
13380
21
20838.56
31
0
0
LINE
8
A-NORTH
10
13380
20
20838.56
30
0
11
13341.41
21
20854.55
31
0
0
LINE
8
A-NORTH
10
13341.41
20
20854.55
30
0
11
13300
21
20860
31
0
0
LINE
8
A-NORTH
10
13300
20
20860
30
0
11
13258.59
21
20854.55
31
0
0
LINE
8
A-NORTH
10
13258.59
20
20854.55
30
0
11
13220
21
20838.56
31
0
0
LINE
8
A-NORTH
10
13220
20
20838.56
30
0
11
13186.86
21
20813.14
31
0
0
LINE
8
A-NORTH
10
13186.86
20
20813.14
30
0
11
13161.44
21
20780
31
0
0
LINE
8
A-NORTH
10
13161.44
20
20780
30
0
11
13145.45
21
20741.41
31
0
0
LINE
8
A-NORTH
10
13145.45
20
20741.41
30
0
11
13140
21
20700
31
0
0
LINE
8
A-NORTH
10
13140
20
20700
30
0
11
13145.45
21
20658.59
31
0
0
LINE
8
A-NORTH
10
13145.45
20
20658.59
30
0
11
13161.44
21
20620
31
0
0
LINE
8
A-NORTH
10
13161.44
20
20620
30
0
11
13186.86
21
20586.86
31
0
0
LINE
8
A-NORTH
10
13186.86
20
20586.86
30
0
11
13220
21
20561.44
31
0
0
LINE
8
A-NORTH
10
13220
20
20561.44
30
0
11
13258.59
21
20545.45
31
0
0
LINE
8
A-NORTH
10
13258.59
20
20545.45
30
0
11
13300
21
20540
31
0
0
LINE
8
A-NORTH
10
13300
20
20540
30
0
11
13341.41
21
20545.45
31
0
0
LINE
8
A-NORTH
10
13341.41
20
20545.45
30
0
11
13380
21
20561.44
31
0
0
LINE
8
A-NORTH
10
13380
20
20561.44
30
0
11
13413.14
21
20586.86
31
0
0
LINE
8
A-NORTH
10
13413.14
20
20586.86
30
0
11
13438.56
21
20620
31
0
0
LINE
8
A-NORTH
10
13438.56
20
20620
30
0
11
13454.55
21
20658.59
31
0
0
LINE
8
A-NORTH
10
13454.55
20
20658.59
30
0
11
13460
21
20700
31
0
0
LINE
8
A-TITLE
10
-500
20
-3000
30
0
11
16000
21
-3000
31
0
0
LINE
8
A-TITLE
10
16000
20
-3000
30
0
11
16000
21
22500
31
0
0
LINE
8
A-TITLE
10
16000
20
22500
30
0
11
-500
21
22500
31
0
0
LINE
8
A-TITLE
10
-500
20
22500
30
0
11
-500
21
-3000
31
0
0
LINE
8
A-TITLE
10
6000
20
-3000
30
0
11
16000
21
-3000
31
0
0
LINE
8
A-TITLE
10
6000
20
-1000
30
0
11
16000
21
-1000
31
0
0
LINE
8
A-TITLE
10
6000
20
-3000
30
0
11
6000
21
-1000
31
0
0
LINE
8
A-TITLE
10
16000
20
-3000
30
0
11
16000
21
-1000
31
0
0
ENDSEC
0
EOF
