0
SECTION
2
HEADER
9
$ACADVER
1
AC1009
0
ENDSEC
0
SECTION
2
TABLES
0
TABLE
2
LTYPE
70
1
0
LTYPE
2
CONTINUOUS
70
0
3
Solid line
72
65
73
0
40
0.0
0
ENDTAB
0
TABLE
2
LAYER
70
1
0
LAYER
2
0
70
0
62
7
6
CONTINUOUS
0
ENDTAB
0
TABLE
2
STYLE
70
1
0
STYLE
2
STANDARD
70
0
40
0.0
41
1.0
50
0.0
71
0
42
0.2
3
txt
4

0
ENDTAB
0
ENDSEC
0
SECTION
2
BLOCKS
0
BLOCK
2
*Model_Space
70
0
10
0.0
20
0.0
30
0.0
0
ENDBLK
0
ENDSEC
0
SECTION
2
ENTITIES
0
POLYLINE
8
A-BLDG-OUT
10
0
20
0
30
0
70
1
66
1
40
0
41
0
71
0
72
0
0
VERTEX
8
A-BLDG-OUT
10
1500
20
3000
30
0
42
0
0
VERTEX
8
A-BLDG-OUT
10
14000
20
3000
30
0
42
0
0
VERTEX
8
A-BLDG-OUT
10
14000
20
20000
30
0
42
0
0
VERTEX
8
A-BLDG-OUT
10
1500
20
20000
30
0
42
0
0
SEQEND
8
A-BLDG-OUT
0
POLYLINE
8
A-SETBACK
10
0
20
0
30
0
70
1
66
1
40
0
41
0
71
0
72
0
0
VERTEX
8
A-SETBACK
10
1500
20
3000
30
0
42
0
0
VERTEX
8
A-SETBACK
10
14000
20
3000
30
0
42
0
0
VERTEX
8
A-SETBACK
10
14000
20
20000
30
0
42
0
0
VERTEX
8
A-SETBACK
10
1500
20
20000
30
0
42
0
0
SEQEND
8
A-SETBACK
0
POLYLINE
8
A-FLOOR-0-A-BLDG-OUT
10
0
20
0
30
0
70
1
66
1
40
0
41
0
71
0
72
0
0
VERTEX
8
A-FLOOR-0-A-BLDG-OUT
10
1500
20
3000
30
0
42
0
0
VERTEX
8
A-FLOOR-0-A-BLDG-OUT
10
14000
20
3000
30
0
42
0
0
VERTEX
8
A-FLOOR-0-A-BLDG-OUT
10
14000
20
20000
30
0
42
0
0
VERTEX
8
A-FLOOR-0-A-BLDG-OUT
10
1500
20
20000
30
0
42
0
0
SEQEND
8
A-FLOOR-0-A-BLDG-OUT
0
POLYLINE
8
A-FLOOR-0-A-SETBACK
10
0
20
0
30
0
70
1
66
1
40
0
41
0
71
0
72
0
0
VERTEX
8
A-FLOOR-0-A-SETBACK
10
1500
20
3000
30
0
42
0
0
VERTEX
8
A-FLOOR-0-A-SETBACK
10
14000
20
3000
30
0
42
0
0
VERTEX
8
A-FLOOR-0-A-SETBACK
10
14000
20
20000
30
0
42
0
0
VERTEX
8
A-FLOOR-0-A-SETBACK
10
1500
20
20000
30
0
42
0
0
SEQEND
8
A-FLOOR-0-A-SETBACK
0
POLYLINE
8
A-SITE
10
0
20
0
30
0
70
1
66
1
40
0
41
0
71
0
72
0
0
VERTEX
8
A-SITE
10
0
20
0
30
0
42
0
0
VERTEX
8
A-SITE
10
15500
20
0
30
0
42
0
0
VERTEX
8
A-SITE
10
15500
20
22000
30
0
42
0
0
VERTEX
8
A-SITE
10
0
20
22000
30
0
42
0
0
SEQEND
8
A-SITE
0
POLYLINE
8
A-FLOOR-0-A-SITE
10
0
20
0
30
0
70
1
66
1
40
0
41
0
71
0
72
0
0
VERTEX
8
A-FLOOR-0-A-SITE
10
0
20
0
30
0
42
0
0
VERTEX
8
A-FLOOR-0-A-SITE
10
15500
20
0
30
0
42
0
0
VERTEX
8
A-FLOOR-0-A-SITE
10
15500
20
22000
30
0
42
0
0
VERTEX
8
A-FLOOR-0-A-SITE
10
0
20
22000
30
0
42
0
0
SEQEND
8
A-FLOOR-0-A-SITE
0
TEXT
8
A-SITE
10
0
20
-800
30
0
40
300
1
SITE rectangle 15.5x22.0m
50
0
72
0
11
0
21
-800
31
0
0
TEXT
8
A-SETBACK
10
0
20
-1200
30
0
40
200
1
Setbacks N=2 S=3 E=1.5 W=1.5
50
0
72
0
11
0
21
-1200
31
0
0
TEXT
8
A-FLOOR-0-A-ROOM
10
1500
20
20500
30
0
40
350
1
FLOOR 0 - Level 0 - 0.00m elev
50
0
72
0
11
1500
21
20500
31
0
0
TEXT
8
A-ROOM
10
1500
20
20500
30
0
40
350
1
FLOOR 0 - Level 0
50
0
72
0
11
1500
21
20500
31
0
0
LINE
8
A-FLOOR-0-A-WALL-EXT
10
1500
20
3175
30
0
11
1950
21
3175
31
0
0
LINE
8
A-FLOOR-0-A-WALL-EXT
10
1500
20
2825
30
0
11
1950
21
2825
31
0
0
LINE
8
A-FLOOR-0-A-WALL-EXT
10
1500
20
3175
30
0
11
1500
21
2825
31
0
0
LINE
8
A-FLOOR-0-A-WALL-EXT
10
2950
20
3175
30
0
11
3400
21
3175
31
0
0
LINE
8
A-FLOOR-0-A-WALL-EXT
10
2950
20
2825
30
0
11
3400
21
2825
31
0
0
LINE
8
A-FLOOR-0-A-WALL-EXT
10
3400
20
3175
30
0
11
3400
21
2825
31
0
0
LINE
8
A-FLOOR-0-A-WALL-EXT
10
1950
20
3175
30
0
11
1950
21
2825
31
0
0
LINE
8
A-FLOOR-0-A-WALL-EXT
10
2950
20
3175
30
0
11
2950
21
2825
31
0
0
LINE
8
A-WALL-EXT
10
1500
20
3175
30
0
11
1950
21
3175
31
0
0
LINE
8
A-WALL-EXT
10
1500
20
2825
30
0
11
1950
21
2825
31
0
0
LINE
8
A-WALL-EXT
10
1500
20
3175
30
0
11
1500
21
2825
31
0
0
LINE
8
A-WALL-EXT
10
2950
20
3175
30
0
11
3400
21
3175
31
0
0
LINE
8
A-WALL-EXT
10
2950
20
2825
30
0
11
3400
21
2825
31
0
0
LINE
8
A-WALL-EXT
10
3400
20
3175
30
0
11
3400
21
2825
31
0
0
LINE
8
A-WALL-EXT
10
1950
20
3175
30
0
11
1950
21
2825
31
0
0
LINE
8
A-WALL-EXT
10
2950
20
3175
30
0
11
2950
21
2825
31
0
0
LINE
8
A-FLOOR-0-A-WALL-EXT
10
3400
20
3175
30
0
11
4535
21
3175
31
0
0
LINE
8
A-FLOOR-0-A-WALL-EXT
10
3400
20
2825
30
0
11
4535
21
2825
31
0
0
LINE
8
A-FLOOR-0-A-WALL-EXT
10
3400
20
3175
30
0
11
3400
21
2825
31
0
0
LINE
8
A-FLOOR-0-A-WALL-EXT
10
7535
20
3175
30
0
11
8670
21
3175
31
0
0
LINE
8
A-FLOOR-0-A-WALL-EXT
10
7535
20
2825
30
0
11
8670
21
2825
31
0
0
LINE
8
A-FLOOR-0-A-WALL-EXT
10
8670
20
3175
30
0
11
8670
21
2825
31
0
0
LINE
8
A-FLOOR-0-A-WALL-EXT
10
4535
20
3175
30
0
11
4535
21
2825
31
0
0
LINE
8
A-FLOOR-0-A-WALL-EXT
10
7535
20
3175
30
0
11
7535
21
2825
31
0
0
LINE
8
A-WALL-EXT
10
3400
20
3175
30
0
11
4535
21
3175
31
0
0
LINE
8
A-WALL-EXT
10
3400
20
2825
30
0
11
4535
21
2825
31
0
0
LINE
8
A-WALL-EXT
10
3400
20
3175
30
0
11
3400
21
2825
31
0
0
LINE
8
A-WALL-EXT
10
7535
20
3175
30
0
11
8670
21
3175
31
0
0
LINE
8
A-WALL-EXT
10
7535
20
2825
30
0
11
8670
21
2825
31
0
0
LINE
8
A-WALL-EXT
10
8670
20
3175
30
0
11
8670
21
2825
31
0
0
LINE
8
A-WALL-EXT
10
4535
20
3175
30
0
11
4535
21
2825
31
0
0
LINE
8
A-WALL-EXT
10
7535
20
3175
30
0
11
7535
21
2825
31
0
0
LINE
8
A-FLOOR-0-A-WALL-EXT
10
8670
20
3175
30
0
11
9329.25
21
3175
31
0
0
LINE
8
A-FLOOR-0-A-WALL-EXT
10
8670
20
2825
30
0
11
9329.25
21
2825
31
0
0
LINE
8
A-FLOOR-0-A-WALL-EXT
10
8670
20
3175
30
0
11
8670
21
2825
31
0
0
LINE
8
A-FLOOR-0-A-WALL-EXT
10
10940.75
20
3175
30
0
11
11600
21
3175
31
0
0
LINE
8
A-FLOOR-0-A-WALL-EXT
10
10940.75
20
2825
30
0
11
11600
21
2825
31
0
0
LINE
8
A-FLOOR-0-A-WALL-EXT
10
11600
20
3175
30
0
11
11600
21
2825
31
0
0
LINE
8
A-FLOOR-0-A-WALL-EXT
10
9329.25
20
3175
30
0
11
9329.25
21
2825
31
0
0
LINE
8
A-FLOOR-0-A-WALL-EXT
10
10940.75
20
3175
30
0
11
10940.75
21
2825
31
0
0
LINE
8
A-WALL-EXT
10
8670
20
3175
30
0
11
9329.25
21
3175
31
0
0
LINE
8
A-WALL-EXT
10
8670
20
2825
30
0
11
9329.25
21
2825
31
0
0
LINE
8
A-WALL-EXT
10
8670
20
3175
30
0
11
8670
21
2825
31
0
0
LINE
8
A-WALL-EXT
10
10940.75
20
3175
30
0
11
11600
21
3175
31
0
0
LINE
8
A-WALL-EXT
10
10940.75
20
2825
30
0
11
11600
21
2825
31
0
0
LINE
8
A-WALL-EXT
10
11600
20
3175
30
0
11
11600
21
2825
31
0
0
LINE
8
A-WALL-EXT
10
9329.25
20
3175
30
0
11
9329.25
21
2825
31
0
0
LINE
8
A-WALL-EXT
10
10940.75
20
3175
30
0
11
10940.75
21
2825
31
0
0
LINE
8
A-FLOOR-0-A-WALL-EXT
10
11600
20
3175
30
0
11
14000
21
3175
31
0
0
LINE
8
A-FLOOR-0-A-WALL-EXT
10
11600
20
2825
30
0
11
14000
21
2825
31
0
0
LINE
8
A-FLOOR-0-A-WALL-EXT
10
11600
20
3175
30
0
11
11600
21
2825
31
0
0
LINE
8
A-FLOOR-0-A-WALL-EXT
10
14000
20
3175
30
0
11
14000
21
2825
31
0
0
LINE
8
A-WALL-EXT
10
11600
20
3175
30
0
11
14000
21
3175
31
0
0
LINE
8
A-WALL-EXT
10
11600
20
2825
30
0
11
14000
21
2825
31
0
0
LINE
8
A-WALL-EXT
10
11600
20
3175
30
0
11
11600
21
2825
31
0
0
LINE
8
A-WALL-EXT
10
14000
20
3175
30
0
11
14000
21
2825
31
0
0
LINE
8
A-FLOOR-0-A-WALL-INT
10
3325
20
3000
30
0
11
3325
21
3450
31
0
0
LINE
8
A-FLOOR-0-A-WALL-INT
10
3475
20
3000
30
0
11
3475
21
3450
31
0
0
LINE
8
A-FLOOR-0-A-WALL-INT
10
3325
20
3000
30
0
11
3475
21
3000
31
0
0
LINE
8
A-FLOOR-0-A-WALL-INT
10
3325
20
4350
30
0
11
3325
21
4800
31
0
0
LINE
8
A-FLOOR-0-A-WALL-INT
10
3475
20
4350
30
0
11
3475
21
4800
31
0
0
LINE
8
A-FLOOR-0-A-WALL-INT
10
3325
20
4800
30
0
11
3475
21
4800
31
0
0
LINE
8
A-FLOOR-0-A-WALL-INT
10
3325
20
3450
30
0
11
3475
21
3450
31
0
0
LINE
8
A-FLOOR-0-A-WALL-INT
10
3325
20
4350
30
0
11
3475
21
4350
31
0
0
LINE
8
A-WALL-INT
10
3325
20
3000
30
0
11
3325
21
3450
31
0
0
LINE
8
A-WALL-INT
10
3475
20
3000
30
0
11
3475
21
3450
31
0
0
LINE
8
A-WALL-INT
10
3325
20
3000
30
0
11
3475
21
3000
31
0
0
LINE
8
A-WALL-INT
10
3325
20
4350
30
0
11
3325
21
4800
31
0
0
LINE
8
A-WALL-INT
10
3475
20
4350
30
0
11
3475
21
4800
31
0
0
LINE
8
A-WALL-INT
10
3325
20
4800
30
0
11
3475
21
4800
31
0
0
LINE
8
A-WALL-INT
10
3325
20
3450
30
0
11
3475
21
3450
31
0
0
LINE
8
A-WALL-INT
10
3325
20
4350
30
0
11
3475
21
4350
31
0
0
LINE
8
A-FLOOR-0-A-WALL-INT
10
3325
20
4800
30
0
11
3325
21
7155
31
0
0
LINE
8
A-FLOOR-0-A-WALL-INT
10
3475
20
4800
30
0
11
3475
21
7155
31
0
0
LINE
8
A-FLOOR-0-A-WALL-INT
10
3325
20
4800
30
0
11
3475
21
4800
31
0
0
LINE
8
A-FLOOR-0-A-WALL-INT
10
3325
20
8055
30
0
11
3325
21
10410
31
0
0
LINE
8
A-FLOOR-0-A-WALL-INT
10
3475
20
8055
30
0
11
3475
21
10410
31
0
0
LINE
8
A-FLOOR-0-A-WALL-INT
10
3325
20
10410
30
0
11
3475
21
10410
31
0
0
LINE
8
A-FLOOR-0-A-WALL-INT
10
3325
20
7155
30
0
11
3475
21
7155
31
0
0
LINE
8
A-FLOOR-0-A-WALL-INT
10
3325
20
8055
30
0
11
3475
21
8055
31
0
0
LINE
8
A-WALL-INT
10
3325
20
4800
30
0
11
3325
21
7155
31
0
0
LINE
8
A-WALL-INT
10
3475
20
4800
30
0
11
3475
21
7155
31
0
0
LINE
8
A-WALL-INT
10
3325
20
4800
30
0
11
3475
21
4800
31
0
0
LINE
8
A-WALL-INT
10
3325
20
8055
30
0
11
3325
21
10410
31
0
0
LINE
8
A-WALL-INT
10
3475
20
8055
30
0
11
3475
21
10410
31
0
0
LINE
8
A-WALL-INT
10
3325
20
10410
30
0
11
3475
21
10410
31
0
0
LINE
8
A-WALL-INT
10
3325
20
7155
30
0
11
3475
21
7155
31
0
0
LINE
8
A-WALL-INT
10
3325
20
8055
30
0
11
3475
21
8055
31
0
0
LINE
8
A-FLOOR-0-A-WALL-INT
10
1500
20
4875
30
0
11
2000
21
4875
31
0
0
LINE
8
A-FLOOR-0-A-WALL-INT
10
1500
20
4725
30
0
11
2000
21
4725
31
0
0
LINE
8
A-FLOOR-0-A-WALL-INT
10
1500
20
4875
30
0
11
1500
21
4725
31
0
0
LINE
8
A-FLOOR-0-A-WALL-INT
10
2900
20
4875
30
0
11
3400
21
4875
31
0
0
LINE
8
A-FLOOR-0-A-WALL-INT
10
2900
20
4725
30
0
11
3400
21
4725
31
0
0
LINE
8
A-FLOOR-0-A-WALL-INT
10
3400
20
4875
30
0
11
3400
21
4725
31
0
0
LINE
8
A-FLOOR-0-A-WALL-INT
10
2000
20
4875
30
0
11
2000
21
4725
31
0
0
LINE
8
A-FLOOR-0-A-WALL-INT
10
2900
20
4875
30
0
11
2900
21
4725
31
0
0
LINE
8
A-WALL-INT
10
1500
20
4875
30
0
11
2000
21
4875
31
0
0
LINE
8
A-WALL-INT
10
1500
20
4725
30
0
11
2000
21
4725
31
0
0
LINE
8
A-WALL-INT
10
1500
20
4875
30
0
11
1500
21
4725
31
0
0
LINE
8
A-WALL-INT
10
2900
20
4875
30
0
11
3400
21
4875
31
0
0
LINE
8
A-WALL-INT
10
2900
20
4725
30
0
11
3400
21
4725
31
0
0
LINE
8
A-WALL-INT
10
3400
20
4875
30
0
11
3400
21
4725
31
0
0
LINE
8
A-WALL-INT
10
2000
20
4875
30
0
11
2000
21
4725
31
0
0
LINE
8
A-WALL-INT
10
2900
20
4875
30
0
11
2900
21
4725
31
0
0
LINE
8
A-FLOOR-0-A-WALL-EXT
10
1325
20
3000
30
0
11
1325
21
4800
31
0
0
LINE
8
A-FLOOR-0-A-WALL-EXT
10
1675
20
3000
30
0
11
1675
21
4800
31
0
0
LINE
8
A-FLOOR-0-A-WALL-EXT
10
1325
20
3000
30
0
11
1675
21
3000
31
0
0
LINE
8
A-FLOOR-0-A-WALL-EXT
10
1325
20
4800
30
0
11
1675
21
4800
31
0
0
LINE
8
A-WALL-EXT
10
1325
20
3000
30
0
11
1325
21
4800
31
0
0
LINE
8
A-WALL-EXT
10
1675
20
3000
30
0
11
1675
21
4800
31
0
0
LINE
8
A-WALL-EXT
10
1325
20
3000
30
0
11
1675
21
3000
31
0
0
LINE
8
A-WALL-EXT
10
1325
20
4800
30
0
11
1675
21
4800
31
0
0
LINE
8
A-FLOOR-0-A-WALL-EXT
10
1325
20
4800
30
0
11
1325
21
10410
31
0
0
LINE
8
A-FLOOR-0-A-WALL-EXT
10
1675
20
4800
30
0
11
1675
21
10410
31
0
0
LINE
8
A-FLOOR-0-A-WALL-EXT
10
1325
20
4800
30
0
11
1675
21
4800
31
0
0
LINE
8
A-FLOOR-0-A-WALL-EXT
10
1325
20
10410
30
0
11
1675
21
10410
31
0
0
LINE
8
A-WALL-EXT
10
1325
20
4800
30
0
11
1325
21
10410
31
0
0
LINE
8
A-WALL-EXT
10
1675
20
4800
30
0
11
1675
21
10410
31
0
0
LINE
8
A-WALL-EXT
10
1325
20
4800
30
0
11
1675
21
4800
31
0
0
LINE
8
A-WALL-EXT
10
1325
20
10410
30
0
11
1675
21
10410
31
0
0
LINE
8
A-FLOOR-0-A-WALL-EXT
10
1325
20
10410
30
0
11
1325
21
11910
31
0
0
LINE
8
A-FLOOR-0-A-WALL-EXT
10
1675
20
10410
30
0
11
1675
21
11910
31
0
0
LINE
8
A-FLOOR-0-A-WALL-EXT
10
1325
20
10410
30
0
11
1675
21
10410
31
0
0
LINE
8
A-FLOOR-0-A-WALL-EXT
10
1325
20
11910
30
0
11
1675
21
11910
31
0
0
LINE
8
A-WALL-EXT
10
1325
20
10410
30
0
11
1325
21
11910
31
0
0
LINE
8
A-WALL-EXT
10
1675
20
10410
30
0
11
1675
21
11910
31
0
0
LINE
8
A-WALL-EXT
10
1325
20
10410
30
0
11
1675
21
10410
31
0
0
LINE
8
A-WALL-EXT
10
1325
20
11910
30
0
11
1675
21
11910
31
0
0
LINE
8
A-FLOOR-0-A-WALL-EXT
10
1325
20
11910
30
0
11
1325
21
15455
31
0
0
LINE
8
A-FLOOR-0-A-WALL-EXT
10
1675
20
11910
30
0
11
1675
21
15455
31
0
0
LINE
8
A-FLOOR-0-A-WALL-EXT
10
1325
20
11910
30
0
11
1675
21
11910
31
0
0
LINE
8
A-FLOOR-0-A-WALL-EXT
10
1325
20
16455
30
0
11
1325
21
20000
31
0
0
LINE
8
A-FLOOR-0-A-WALL-EXT
10
1675
20
16455
30
0
11
1675
21
20000
31
0
0
LINE
8
A-FLOOR-0-A-WALL-EXT
10
1325
20
20000
30
0
11
1675
21
20000
31
0
0
LINE
8
A-FLOOR-0-A-WALL-EXT
10
1325
20
15455
30
0
11
1675
21
15455
31
0
0
LINE
8
A-FLOOR-0-A-WALL-EXT
10
1325
20
16455
30
0
11
1675
21
16455
31
0
0
LINE
8
A-WALL-EXT
10
1325
20
11910
30
0
11
1325
21
15455
31
0
0
LINE
8
A-WALL-EXT
10
1675
20
11910
30
0
11
1675
21
15455
31
0
0
LINE
8
A-WALL-EXT
10
1325
20
11910
30
0
11
1675
21
11910
31
0
0
LINE
8
A-WALL-EXT
10
1325
20
16455
30
0
11
1325
21
20000
31
0
0
LINE
8
A-WALL-EXT
10
1675
20
16455
30
0
11
1675
21
20000
31
0
0
LINE
8
A-WALL-EXT
10
1325
20
20000
30
0
11
1675
21
20000
31
0
0
LINE
8
A-WALL-EXT
10
1325
20
15455
30
0
11
1675
21
15455
31
0
0
LINE
8
A-WALL-EXT
10
1325
20
16455
30
0
11
1675
21
16455
31
0
0
LINE
8
A-FLOOR-0-A-WALL-INT
10
1500
20
10485
30
0
11
2000
21
10485
31
0
0
LINE
8
A-FLOOR-0-A-WALL-INT
10
1500
20
10335
30
0
11
2000
21
10335
31
0
0
LINE
8
A-FLOOR-0-A-WALL-INT
10
1500
20
10485
30
0
11
1500
21
10335
31
0
0
LINE
8
A-FLOOR-0-A-WALL-INT
10
2900
20
10485
30
0
11
3400
21
10485
31
0
0
LINE
8
A-FLOOR-0-A-WALL-INT
10
2900
20
10335
30
0
11
3400
21
10335
31
0
0
LINE
8
A-FLOOR-0-A-WALL-INT
10
3400
20
10485
30
0
11
3400
21
10335
31
0
0
LINE
8
A-FLOOR-0-A-WALL-INT
10
2000
20
10485
30
0
11
2000
21
10335
31
0
0
LINE
8
A-FLOOR-0-A-WALL-INT
10
2900
20
10485
30
0
11
2900
21
10335
31
0
0
LINE
8
A-WALL-INT
10
1500
20
10485
30
0
11
2000
21
10485
31
0
0
LINE
8
A-WALL-INT
10
1500
20
10335
30
0
11
2000
21
10335
31
0
0
LINE
8
A-WALL-INT
10
1500
20
10485
30
0
11
1500
21
10335
31
0
0
LINE
8
A-WALL-INT
10
2900
20
10485
30
0
11
3400
21
10485
31
0
0
LINE
8
A-WALL-INT
10
2900
20
10335
30
0
11
3400
21
10335
31
0
0
LINE
8
A-WALL-INT
10
3400
20
10485
30
0
11
3400
21
10335
31
0
0
LINE
8
A-WALL-INT
10
2000
20
10485
30
0
11
2000
21
10335
31
0
0
LINE
8
A-WALL-INT
10
2900
20
10485
30
0
11
2900
21
10335
31
0
0
LINE
8
A-FLOOR-0-A-WALL-INT
10
3400
20
10485
30
0
11
5585
21
10485
31
0
0
LINE
8
A-FLOOR-0-A-WALL-INT
10
3400
20
10335
30
0
11
5585
21
10335
31
0
0
LINE
8
A-FLOOR-0-A-WALL-INT
10
3400
20
10485
30
0
11
3400
21
10335
31
0
0
LINE
8
A-FLOOR-0-A-WALL-INT
10
6485
20
10485
30
0
11
8670
21
10485
31
0
0
LINE
8
A-FLOOR-0-A-WALL-INT
10
6485
20
10335
30
0
11
8670
21
10335
31
0
0
LINE
8
A-FLOOR-0-A-WALL-INT
10
8670
20
10485
30
0
11
8670
21
10335
31
0
0
LINE
8
A-FLOOR-0-A-WALL-INT
10
5585
20
10485
30
0
11
5585
21
10335
31
0
0
LINE
8
A-FLOOR-0-A-WALL-INT
10
6485
20
10485
30
0
11
6485
21
10335
31
0
0
LINE
8
A-WALL-INT
10
3400
20
10485
30
0
11
5585
21
10485
31
0
0
LINE
8
A-WALL-INT
10
3400
20
10335
30
0
11
5585
21
10335
31
0
0
LINE
8
A-WALL-INT
10
3400
20
10485
30
0
11
3400
21
10335
31
0
0
LINE
8
A-WALL-INT
10
6485
20
10485
30
0
11
8670
21
10485
31
0
0
LINE
8
A-WALL-INT
10
6485
20
10335
30
0
11
8670
21
10335
31
0
0
LINE
8
A-WALL-INT
10
8670
20
10485
30
0
11
8670
21
10335
31
0
0
LINE
8
A-WALL-INT
10
5585
20
10485
30
0
11
5585
21
10335
31
0
0
LINE
8
A-WALL-INT
10
6485
20
10485
30
0
11
6485
21
10335
31
0
0
LINE
8
A-FLOOR-0-A-WALL-INT
10
8670
20
10485
30
0
11
9685
21
10485
31
0
0
LINE
8
A-FLOOR-0-A-WALL-INT
10
8670
20
10335
30
0
11
9685
21
10335
31
0
0
LINE
8
A-FLOOR-0-A-WALL-INT
10
8670
20
10485
30
0
11
8670
21
10335
31
0
0
LINE
8
A-FLOOR-0-A-WALL-INT
10
10585
20
10485
30
0
11
11600
21
10485
31
0
0
LINE
8
A-FLOOR-0-A-WALL-INT
10
10585
20
10335
30
0
11
11600
21
10335
31
0
0
LINE
8
A-FLOOR-0-A-WALL-INT
10
11600
20
10485
30
0
11
11600
21
10335
31
0
0
LINE
8
A-FLOOR-0-A-WALL-INT
10
9685
20
10485
30
0
11
9685
21
10335
31
0
0
LINE
8
A-FLOOR-0-A-WALL-INT
10
10585
20
10485
30
0
11
10585
21
10335
31
0
0
LINE
8
A-WALL-INT
10
8670
20
10485
30
0
11
9685
21
10485
31
0
0
LINE
8
A-WALL-INT
10
8670
20
10335
30
0
11
9685
21
10335
31
0
0
LINE
8
A-WALL-INT
10
8670
20
10485
30
0
11
8670
21
10335
31
0
0
LINE
8
A-WALL-INT
10
10585
20
10485
30
0
11
11600
21
10485
31
0
0
LINE
8
A-WALL-INT
10
10585
20
10335
30
0
11
11600
21
10335
31
0
0
LINE
8
A-WALL-INT
10
11600
20
10485
30
0
11
11600
21
10335
31
0
0
LINE
8
A-WALL-INT
10
9685
20
10485
30
0
11
9685
21
10335
31
0
0
LINE
8
A-WALL-INT
10
10585
20
10485
30
0
11
10585
21
10335
31
0
0
LINE
8
A-FLOOR-0-A-WALL-INT
10
11600
20
10485
30
0
11
12350
21
10485
31
0
0
LINE
8
A-FLOOR-0-A-WALL-INT
10
11600
20
10335
30
0
11
12350
21
10335
31
0
0
LINE
8
A-FLOOR-0-A-WALL-INT
10
11600
20
10485
30
0
11
11600
21
10335
31
0
0
LINE
8
A-FLOOR-0-A-WALL-INT
10
13250
20
10485
30
0
11
14000
21
10485
31
0
0
LINE
8
A-FLOOR-0-A-WALL-INT
10
13250
20
10335
30
0
11
14000
21
10335
31
0
0
LINE
8
A-FLOOR-0-A-WALL-INT
10
14000
20
10485
30
0
11
14000
21
10335
31
0
0
LINE
8
A-FLOOR-0-A-WALL-INT
10
12350
20
10485
30
0
11
12350
21
10335
31
0
0
LINE
8
A-FLOOR-0-A-WALL-INT
10
13250
20
10485
30
0
11
13250
21
10335
31
0
0
LINE
8
A-WALL-INT
10
11600
20
10485
30
0
11
12350
21
10485
31
0
0
LINE
8
A-WALL-INT
10
11600
20
10335
30
0
11
12350
21
10335
31
0
0
LINE
8
A-WALL-INT
10
11600
20
10485
30
0
11
11600
21
10335
31
0
0
LINE
8
A-WALL-INT
10
13250
20
10485
30
0
11
14000
21
10485
31
0
0
LINE
8
A-WALL-INT
10
13250
20
10335
30
0
11
14000
21
10335
31
0
0
LINE
8
A-WALL-INT
10
14000
20
10485
30
0
11
14000
21
10335
31
0
0
LINE
8
A-WALL-INT
10
12350
20
10485
30
0
11
12350
21
10335
31
0
0
LINE
8
A-WALL-INT
10
13250
20
10485
30
0
11
13250
21
10335
31
0
0
LINE
8
A-FLOOR-0-A-WALL-SERVICE
10
1500
20
11970
30
0
11
2440
21
11970
31
0
0
LINE
8
A-FLOOR-0-A-WALL-SERVICE
10
1500
20
11850
30
0
11
2440
21
11850
31
0
0
LINE
8
A-FLOOR-0-A-WALL-SERVICE
10
1500
20
11970
30
0
11
1500
21
11850
31
0
0
LINE
8
A-FLOOR-0-A-WALL-SERVICE
10
3240
20
11970
30
0
11
4180
21
11970
31
0
0
LINE
8
A-FLOOR-0-A-WALL-SERVICE
10
3240
20
11850
30
0
11
4180
21
11850
31
0
0
LINE
8
A-FLOOR-0-A-WALL-SERVICE
10
4180
20
11970
30
0
11
4180
21
11850
31
0
0
LINE
8
A-FLOOR-0-A-WALL-SERVICE
10
2440
20
11970
30
0
11
2440
21
11850
31
0
0
LINE
8
A-FLOOR-0-A-WALL-SERVICE
10
3240
20
11970
30
0
11
3240
21
11850
31
0
0
LINE
8
A-WALL-SERVICE
10
1500
20
11970
30
0
11
2440
21
11970
31
0
0
LINE
8
A-WALL-SERVICE
10
1500
20
11850
30
0
11
2440
21
11850
31
0
0
LINE
8
A-WALL-SERVICE
10
1500
20
11970
30
0
11
1500
21
11850
31
0
0
LINE
8
A-WALL-SERVICE
10
3240
20
11970
30
0
11
4180
21
11970
31
0
0
LINE
8
A-WALL-SERVICE
10
3240
20
11850
30
0
11
4180
21
11850
31
0
0
LINE
8
A-WALL-SERVICE
10
4180
20
11970
30
0
11
4180
21
11850
31
0
0
LINE
8
A-WALL-SERVICE
10
2440
20
11970
30
0
11
2440
21
11850
31
0
0
LINE
8
A-WALL-SERVICE
10
3240
20
11970
30
0
11
3240
21
11850
31
0
0
LINE
8
A-FLOOR-0-A-WALL-INT
10
4180
20
11985
30
0
11
6210
21
11985
31
0
0
LINE
8
A-FLOOR-0-A-WALL-INT
10
4180
20
11835
30
0
11
6210
21
11835
31
0
0
LINE
8
A-FLOOR-0-A-WALL-INT
10
4180
20
11985
30
0
11
4180
21
11835
31
0
0
LINE
8
A-FLOOR-0-A-WALL-INT
10
7110
20
11985
30
0
11
9140
21
11985
31
0
0
LINE
8
A-FLOOR-0-A-WALL-INT
10
7110
20
11835
30
0
11
9140
21
11835
31
0
0
LINE
8
A-FLOOR-0-A-WALL-INT
10
9140
20
11985
30
0
11
9140
21
11835
31
0
0
LINE
8
A-FLOOR-0-A-WALL-INT
10
6210
20
11985
30
0
11
6210
21
11835
31
0
0
LINE
8
A-FLOOR-0-A-WALL-INT
10
7110
20
11985
30
0
11
7110
21
11835
31
0
0
LINE
8
A-WALL-INT
10
4180
20
11985
30
0
11
6210
21
11985
31
0
0
LINE
8
A-WALL-INT
10
4180
20
11835
30
0
11
6210
21
11835
31
0
0
LINE
8
A-WALL-INT
10
4180
20
11985
30
0
11
4180
21
11835
31
0
0
LINE
8
A-WALL-INT
10
7110
20
11985
30
0
11
9140
21
11985
31
0
0
LINE
8
A-WALL-INT
10
7110
20
11835
30
0
11
9140
21
11835
31
0
0
LINE
8
A-WALL-INT
10
9140
20
11985
30
0
11
9140
21
11835
31
0
0
LINE
8
A-WALL-INT
10
6210
20
11985
30
0
11
6210
21
11835
31
0
0
LINE
8
A-WALL-INT
10
7110
20
11985
30
0
11
7110
21
11835
31
0
0
ENDSEC
0
EOF
