0
SECTION
2
HEADER
9
$ACADVER
1
AC1009
0
ENDSEC
0
SECTION
2
TABLES
0
TABLE
2
LTYPE
70
1
0
LTYPE
2
CONTINUOUS
70
0
3
Solid line
72
65
73
0
40
0.0
0
ENDTAB
0
TABLE
2
LAYER
70
1
0
LAYER
2
0
70
0
62
7
6
CONTINUOUS
0
ENDTAB
0
TABLE
2
STYLE
70
1
0
STYLE
2
STANDARD
70
0
40
0.0
41
1.0
50
0.0
71
0
42
0.2
3
txt
4

0
ENDTAB
0
ENDSEC
0
SECTION
2
BLOCKS
0
BLOCK
2
*Model_Space
70
0
10
0.0
20
0.0
30
0.0
0
ENDBLK
0
ENDSEC
0
SECTION
2
ENTITIES
0
ARC
8
A-FLOOR-0-A-DOOR
10
1300
20
1000
30
0
40
1000
50
0
51
90
0
ARC
8
A-DOOR
10
1300
20
1000
30
0
40
1000
50
0
51
90
0
ARC
8
A-FLOOR-0-A-DOOR
10
1675
20
10750
30
0
40
800
50
0
51
90
0
ARC
8
A-DOOR
10
1675
20
10750
30
0
40
800
50
0
51
90
0
ARC
8
A-FLOOR-0-A-DOOR
10
10750
20
10750
30
0
40
800
50
90
51
180
0
ARC
8
A-DOOR
10
10750
20
10750
30
0
40
800
50
90
51
180
0
ARC
8
A-FLOOR-0-A-DOOR
10
11900
20
9250
30
0
40
800
50
180
51
270
0
ARC
8
A-DOOR
10
11900
20
9250
30
0
40
800
50
180
51
270
0
ARC
8
A-FLOOR-0-A-DOOR
10
5245
20
10750
30
0
40
900
50
90
51
180
0
ARC
8
A-DOOR
10
5245
20
10750
30
0
40
900
50
90
51
180
0
ARC
8
A-FLOOR-0-A-DOOR
10
7570
20
10750
30
0
40
900
50
0
51
90
0
ARC
8
A-DOOR
10
7570
20
10750
30
0
40
900
50
0
51
90
0
ARC
8
A-FLOOR-0-A-DOOR
10
12350
20
10750
30
0
40
900
50
0
51
90
0
ARC
8
A-DOOR
10
12350
20
10750
30
0
40
900
50
0
51
90
0
ARC
8
A-FLOOR-0-A-DOOR
10
5020
20
9250
30
0
40
900
50
180
51
270
0
ARC
8
A-DOOR
10
5020
20
9250
30
0
40
900
50
180
51
270
0
ARC
8
A-FLOOR-0-A-DOOR
10
9070
20
9250
30
0
40
900
50
-90
51
0
0
ARC
8
A-DOOR
10
9070
20
9250
30
0
40
900
50
-90
51
0
0
ARC
8
A-FLOOR-0-A-DOOR
10
12850
20
9250
30
0
40
900
50
-90
51
0
0
ARC
8
A-DOOR
10
12850
20
9250
30
0
40
900
50
-90
51
0
0
ARC
8
A-FLOOR-0-A-DOOR
10
2250
20
2500
30
0
40
900
50
90
51
180
0
ARC
8
A-DOOR
10
2250
20
2500
30
0
40
900
50
90
51
180
0
ARC
8
A-FLOOR-0-A-DOOR
10
3150
20
16275
30
0
40
800
50
180
51
270
0
ARC
8
A-DOOR
10
3150
20
16275
30
0
40
800
50
180
51
270
0
ARC
8
A-FLOOR-0-A-DOOR
10
6440
20
16325
30
0
40
900
50
180
51
270
0
ARC
8
A-DOOR
10
6440
20
16325
30
0
40
900
50
180
51
270
0
ARC
8
A-FLOOR-0-A-DOOR
10
12900
20
2650
30
0
40
800
50
-90
51
0
0
ARC
8
A-DOOR
10
12900
20
2650
30
0
40
800
50
-90
51
0
0
ARC
8
A-FLOOR-0-A-DOOR
10
9600
20
15475
30
0
40
800
50
0
51
90
0
ARC
8
A-DOOR
10
9600
20
15475
30
0
40
800
50
0
51
90
0
ARC
8
A-FLOOR-0-A-DOOR
10
11100
20
16275
30
0
40
800
50
180
51
270
0
ARC
8
A-DOOR
10
11100
20
16275
30
0
40
800
50
180
51
270
0
ENDSEC
0
EOF
