0
SECTION
2
HEADER
9
$ACADVER
1
AC1009
0
ENDSEC
0
SECTION
2
TABLES
0
TABLE
2
LTYPE
70
1
0
LTYPE
2
CONTINUOUS
70
0
3
Solid line
72
65
73
0
40
0.0
0
ENDTAB
0
TABLE
2
LAYER
70
1
0
LAYER
2
0
70
0
62
7
6
CONTINUOUS
0
ENDTAB
0
TABLE
2
STYLE
70
1
0
STYLE
2
STANDARD
70
0
40
0.0
41
1.0
50
0.0
71
0
42
0.2
3
txt
4

0
ENDTAB
0
ENDSEC
0
SECTION
2
BLOCKS
0
BLOCK
2
*Model_Space
70
0
10
0.0
20
0.0
30
0.0
0
ENDBLK
0
ENDSEC
0
SECTION
2
ENTITIES
0
TEXT
8
A-SITE
10
0
20
-800
30
0
40
300
1
SITE rectangle 15.5x22.0m
50
0
72
0
11
0
21
-800
31
0
0
TEXT
8
A-SETBACK
10
0
20
-1200
30
0
40
200
1
Setbacks N=1 S=1 E=1 W=1
50
0
72
0
11
0
21
-1200
31
0
0
TEXT
8
A-FLOOR-0-A-ROOM
10
1000
20
21500
30
0
40
350
1
FLOOR 0 - Level 0 - 0.00m elev
50
0
72
0
11
1000
21
21500
31
0
0
TEXT
8
A-ROOM
10
1000
20
21500
30
0
40
350
1
FLOOR 0 - Level 0
50
0
72
0
11
1000
21
21500
31
0
0
TEXT
8
A-FLOOR-0-A-PARKING
10
7750
20
1500
30
0
40
250
1
AISLE
50
0
72
1
11
7750
21
1500
31
0
0
TEXT
8
A-PARKING
10
7750
20
1500
30
0
40
250
1
AISLE
50
0
72
1
11
7750
21
1500
31
0
0
TEXT
8
A-FLOOR-0-A-ROOM
10
2075
20
15965
30
0
40
180
1
Master Bathroom [F0]
50
0
72
1
11
2075
21
15965
31
0
0
TEXT
8
A-FLOOR-0-A-ROOM
10
2075
20
15749
30
0
40
126
1
22.0 m2
50
0
72
1
11
2075
21
15749
31
0
0
TEXT
8
A-ROOM
10
2075
20
15965
30
0
40
180
1
Master Bathroom
50
0
72
1
11
2075
21
15965
31
0
0
TEXT
8
A-ROOM
10
2075
20
15749
30
0
40
126
1
22.0 m2
50
0
72
1
11
2075
21
15749
31
0
0
TEXT
8
A-FLOOR-0-A-ROOM
10
4795
20
16006.6
30
0
40
263.2
1
Master Bedroom [F0]
50
0
72
1
11
4795
21
16006.6
31
0
0
TEXT
8
A-FLOOR-0-A-ROOM
10
4795
20
15690.76
30
0
40
184.24
1
33.7 m2
50
0
72
1
11
4795
21
15690.76
31
0
0
TEXT
8
A-ROOM
10
4795
20
16006.6
30
0
40
263.2
1
Master Bedroom
50
0
72
1
11
4795
21
16006.6
31
0
0
TEXT
8
A-ROOM
10
4795
20
15690.76
30
0
40
184.24
1
33.7 m2
50
0
72
1
11
4795
21
15690.76
31
0
0
TEXT
8
A-FLOOR-0-A-ROOM
10
8020
20
16001.4
30
0
40
252.8
1
Bedroom 1 [F0]
50
0
72
1
11
8020
21
16001.4
31
0
0
TEXT
8
A-FLOOR-0-A-ROOM
10
8020
20
15698.04
30
0
40
176.96
1
32.4 m2
50
0
72
1
11
8020
21
15698.04
31
0
0
TEXT
8
A-ROOM
10
8020
20
16001.4
30
0
40
252.8
1
Bedroom 1
50
0
72
1
11
8020
21
16001.4
31
0
0
TEXT
8
A-ROOM
10
8020
20
15698.04
30
0
40
176.96
1
32.4 m2
50
0
72
1
11
8020
21
15698.04
31
0
0
TEXT
8
A-FLOOR-0-A-ROOM
10
10350
20
15965
30
0
40
180
1
Bathroom 1 [F0]
50
0
72
1
11
10350
21
15965
31
0
0
TEXT
8
A-FLOOR-0-A-ROOM
10
10350
20
15749
30
0
40
126
1
15.4 m2
50
0
72
1
11
10350
21
15749
31
0
0
TEXT
8
A-ROOM
10
10350
20
15965
30
0
40
180
1
Bathroom 1
50
0
72
1
11
10350
21
15965
31
0
0
TEXT
8
A-ROOM
10
10350
20
15749
30
0
40
126
1
15.4 m2
50
0
72
1
11
10350
21
15749
31
0
0
TEXT
8
A-FLOOR-0-A-ROOM
10
12800
20
16011
30
0
40
272
1
Bedroom 2 [F0]
50
0
72
1
11
12800
21
16011
31
0
0
TEXT
8
A-FLOOR-0-A-ROOM
10
12800
20
15684.6
30
0
40
190.4
1
34.9 m2
50
0
72
1
11
12800
21
15684.6
31
0
0
TEXT
8
A-ROOM
10
12800
20
16011
30
0
40
272
1
Bedroom 2
50
0
72
1
11
12800
21
16011
31
0
0
TEXT
8
A-ROOM
10
12800
20
15684.6
30
0
40
190.4
1
34.9 m2
50
0
72
1
11
12800
21
15684.6
31
0
0
TEXT
8
A-FLOOR-0-A-ROOM
10
13300
20
6046
30
0
40
192
1
Kitchen [F0]
50
0
72
1
11
13300
21
6046
31
0
0
TEXT
8
A-FLOOR-0-A-ROOM
10
13300
20
5815.6
30
0
40
134.4
1
15.8 m2
50
0
72
1
11
13300
21
5815.6
31
0
0
TEXT
8
A-ROOM
10
13300
20
6046
30
0
40
192
1
Kitchen
50
0
72
1
11
13300
21
6046
31
0
0
TEXT
8
A-ROOM
10
13300
20
5815.6
30
0
40
134.4
1
15.8 m2
50
0
72
1
11
13300
21
5815.6
31
0
0
TEXT
8
A-FLOOR-0-A-ROOM
10
13300
20
1915
30
0
40
180
1
Storage [F0]
50
0
72
1
11
13300
21
1915
31
0
0
TEXT
8
A-FLOOR-0-A-ROOM
10
13300
20
1699
30
0
40
126
1
4.0 m2
50
0
72
1
11
13300
21
1699
31
0
0
TEXT
8
A-ROOM
10
13300
20
1915
30
0
40
180
1
Storage
50
0
72
1
11
13300
21
1915
31
0
0
TEXT
8
A-ROOM
10
13300
20
1699
30
0
40
126
1
4.0 m2
50
0
72
1
11
13300
21
1699
31
0
0
TEXT
8
A-FLOOR-0-A-ROOM
10
4570
20
6050
30
0
40
350
1
Living Room [F0]
50
0
72
1
11
4570
21
6050
31
0
0
TEXT
8
A-FLOOR-0-A-ROOM
10
4570
20
5630
30
0
40
245
1
48.2 m2
50
0
72
1
11
4570
21
5630
31
0
0
TEXT
8
A-ROOM
10
4570
20
6050
30
0
40
350
1
Living Room
50
0
72
1
11
4570
21
6050
31
0
0
TEXT
8
A-ROOM
10
4570
20
5630
30
0
40
245
1
48.2 m2
50
0
72
1
11
4570
21
5630
31
0
0
TEXT
8
A-FLOOR-0-A-ROOM
10
11500
20
8310
30
0
40
180
1
Guest WC [F0]
50
0
72
1
11
11500
21
8310
31
0
0
TEXT
8
A-FLOOR-0-A-ROOM
10
11500
20
8094
30
0
40
126
1
2.5 m2
50
0
72
1
11
11500
21
8094
31
0
0
TEXT
8
A-ROOM
10
11500
20
8310
30
0
40
180
1
Guest WC
50
0
72
1
11
11500
21
8310
31
0
0
TEXT
8
A-ROOM
10
11500
20
8094
30
0
40
126
1
2.5 m2
50
0
72
1
11
11500
21
8094
31
0
0
TEXT
8
A-FLOOR-0-A-ROOM
10
9520
20
5235.4
30
0
40
220.8
1
Dining [F0]
50
0
72
1
11
9520
21
5235.4
31
0
0
TEXT
8
A-FLOOR-0-A-ROOM
10
9520
20
4970.44
30
0
40
154.56
1
22.8 m2
50
0
72
1
11
9520
21
4970.44
31
0
0
TEXT
8
A-ROOM
10
9520
20
5235.4
30
0
40
220.8
1
Dining
50
0
72
1
11
9520
21
5235.4
31
0
0
TEXT
8
A-ROOM
10
9520
20
4970.44
30
0
40
154.56
1
22.8 m2
50
0
72
1
11
9520
21
4970.44
31
0
0
TEXT
8
A-FLOOR-0-A-ROOM
10
7750
20
10090
30
0
40
180
1
Corridor [F0]
50
0
72
1
11
7750
21
10090
31
0
0
TEXT
8
A-FLOOR-0-A-ROOM
10
7750
20
9874
30
0
40
126
1
20.3 m2
50
0
72
1
11
7750
21
9874
31
0
0
TEXT
8
A-ROOM
10
7750
20
10090
30
0
40
180
1
Corridor
50
0
72
1
11
7750
21
10090
31
0
0
TEXT
8
A-ROOM
10
7750
20
9874
30
0
40
126
1
20.3 m2
50
0
72
1
11
7750
21
9874
31
0
0
TEXT
8
A-FLOOR-0-A-ROOM
10
1800
20
1840
30
0
40
180
1
Entrance [F0]
50
0
72
1
11
1800
21
1840
31
0
0
TEXT
8
A-FLOOR-0-A-ROOM
10
1800
20
1624
30
0
40
126
1
2.4 m2
50
0
72
1
11
1800
21
1624
31
0
0
TEXT
8
A-ROOM
10
1800
20
1840
30
0
40
180
1
Entrance
50
0
72
1
11
1800
21
1840
31
0
0
TEXT
8
A-ROOM
10
1800
20
1624
30
0
40
126
1
2.4 m2
50
0
72
1
11
1800
21
1624
31
0
0
TEXT
8
A-AXIS-TEXT
10
300
20
21300
30
0
40
250
1
A
50
0
72
1
11
300
21
21300
31
0
0
TEXT
8
A-AXIS-TEXT
10
7750
20
21300
30
0
40
250
1
B
50
0
72
1
11
7750
21
21300
31
0
0
TEXT
8
A-AXIS-TEXT
10
14800
20
21300
30
0
40
250
1
C
50
0
72
0
11
14800
21
21300
31
0
0
TEXT
8
A-AXIS-TEXT
10
300
20
300
30
0
40
250
1
1
50
0
72
2
11
300
21
300
31
0
0
TEXT
8
A-AXIS-TEXT
10
300
20
11000
30
0
40
250
1
2
50
0
72
2
11
300
21
11000
31
0
0
TEXT
8
A-FLOOR-0-A-DIMS
10
7750
20
-300
30
0
40
220
1
13.50 m F0
50
0
72
1
11
7750
21
-300
31
0
0
TEXT
8
A-FLOOR-0-A-DIMS
10
-300
20
11000
30
0
40
220
1
20.00 m
50
0
72
1
11
-300
21
11000
31
0
0
TEXT
8
A-DIMS
10
7750
20
-300
30
0
40
220
1
13.50 m
50
0
72
1
11
7750
21
-300
31
0
0
TEXT
8
A-DIMS
10
-300
20
11000
30
0
40
220
1
20.00 m
50
0
72
1
11
-300
21
11000
31
0
0
TEXT
8
A-FLOOR-0-A-DIMS
10
2075
20
10450
30
0
40
120
1
2.15
50
0
72
1
11
2075
21
10450
31
0
0
TEXT
8
A-FLOOR-0-A-DIMS
10
650
20
15875
30
0
40
120
1
10.25
50
0
72
2
11
650
21
15875
31
0
0
TEXT
8
A-DIMS
10
2075
20
10450
30
0
40
120
1
2.15
50
0
72
1
11
2075
21
10450
31
0
0
TEXT
8
A-DIMS
10
650
20
15875
30
0
40
120
1
10.25
50
0
72
2
11
650
21
15875
31
0
0
TEXT
8
A-FLOOR-0-A-DIMS
10
4795
20
10450
30
0
40
120
1
3.29
50
0
72
1
11
4795
21
10450
31
0
0
TEXT
8
A-FLOOR-0-A-DIMS
10
2800
20
15875
30
0
40
120
1
10.25
50
0
72
2
11
2800
21
15875
31
0
0
TEXT
8
A-DIMS
10
4795
20
10450
30
0
40
120
1
3.29
50
0
72
1
11
4795
21
10450
31
0
0
TEXT
8
A-DIMS
10
2800
20
15875
30
0
40
120
1
10.25
50
0
72
2
11
2800
21
15875
31
0
0
TEXT
8
A-FLOOR-0-A-DIMS
10
8020
20
10450
30
0
40
120
1
3.16
50
0
72
1
11
8020
21
10450
31
0
0
TEXT
8
A-FLOOR-0-A-DIMS
10
6090
20
15875
30
0
40
120
1
10.25
50
0
72
2
11
6090
21
15875
31
0
0
TEXT
8
A-DIMS
10
8020
20
10450
30
0
40
120
1
3.16
50
0
72
1
11
8020
21
10450
31
0
0
TEXT
8
A-DIMS
10
6090
20
15875
30
0
40
120
1
10.25
50
0
72
2
11
6090
21
15875
31
0
0
TEXT
8
A-FLOOR-0-A-DIMS
10
12800
20
10450
30
0
40
120
1
3.40
50
0
72
1
11
12800
21
10450
31
0
0
TEXT
8
A-FLOOR-0-A-DIMS
10
10750
20
15875
30
0
40
120
1
10.25
50
0
72
2
11
10750
21
15875
31
0
0
TEXT
8
A-DIMS
10
12800
20
10450
30
0
40
120
1
3.40
50
0
72
1
11
12800
21
10450
31
0
0
TEXT
8
A-DIMS
10
10750
20
15875
30
0
40
120
1
10.25
50
0
72
2
11
10750
21
15875
31
0
0
TEXT
8
A-FLOOR-0-A-DIMS
10
13300
20
2350
30
0
40
120
1
2.40
50
0
72
1
11
13300
21
2350
31
0
0
TEXT
8
A-FLOOR-0-A-DIMS
10
11750
20
5950
30
0
40
120
1
6.60
50
0
72
2
11
11750
21
5950
31
0
0
TEXT
8
A-DIMS
10
13300
20
2350
30
0
40
120
1
2.40
50
0
72
1
11
13300
21
2350
31
0
0
TEXT
8
A-DIMS
10
11750
20
5950
30
0
40
120
1
6.60
50
0
72
2
11
11750
21
5950
31
0
0
TEXT
8
A-FLOOR-0-A-DIMS
10
4570
20
2200
30
0
40
120
1
7.14
50
0
72
1
11
4570
21
2200
31
0
0
TEXT
8
A-FLOOR-0-A-DIMS
10
650
20
5875
30
0
40
120
1
6.75
50
0
72
2
11
650
21
5875
31
0
0
TEXT
8
A-DIMS
10
4570
20
2200
30
0
40
120
1
7.14
50
0
72
1
11
4570
21
2200
31
0
0
TEXT
8
A-DIMS
10
650
20
5875
30
0
40
120
1
6.75
50
0
72
2
11
650
21
5875
31
0
0
TEXT
8
A-FLOOR-0-A-DIMS
10
9520
20
700
30
0
40
120
1
2.76
50
0
72
1
11
9520
21
700
31
0
0
TEXT
8
A-FLOOR-0-A-DIMS
10
7790
20
5125
30
0
40
120
1
8.25
50
0
72
2
11
7790
21
5125
31
0
0
TEXT
8
A-DIMS
10
9520
20
700
30
0
40
120
1
2.76
50
0
72
1
11
9520
21
700
31
0
0
TEXT
8
A-DIMS
10
7790
20
5125
30
0
40
120
1
8.25
50
0
72
2
11
7790
21
5125
31
0
0
TEXT
8
A-NORTH
10
13300
20
21700
30
0
40
250
1
N
50
0
72
1
11
13300
21
21700
31
0
0
TEXT
8
A-TITLE
10
6300
20
-1500
30
0
40
400
1
failing-15_5x22
50
0
72
0
11
6300
21
-1500
31
0
0
TEXT
8
A-TITLE
10
6300
20
-2000
30
0
40
220
1
ArchGenius - AI Architectural Planning & Professional AutoCAD System
50
0
72
0
11
6300
21
-2000
31
0
0
TEXT
8
A-TITLE
10
6300
20
-2700
30
0
40
200
1
Strategy: area-efficiency | Floors: 1 | Scale: 1:100
50
0
72
0
11
6300
21
-2700
31
0
0
ENDSEC
0
EOF
