0
SECTION
2
HEADER
9
$ACADVER
1
AC1009
0
ENDSEC
0
SECTION
2
TABLES
0
TABLE
2
LTYPE
70
1
0
LTYPE
2
CONTINUOUS
70
0
3
Solid line
72
65
73
0
40
0.0
0
ENDTAB
0
TABLE
2
LAYER
70
1
0
LAYER
2
0
70
0
62
7
6
CONTINUOUS
0
ENDTAB
0
TABLE
2
STYLE
70
1
0
STYLE
2
STANDARD
70
0
40
0.0
41
1.0
50
0.0
71
0
42
0.2
3
txt
4

0
ENDTAB
0
ENDSEC
0
SECTION
2
BLOCKS
0
BLOCK
2
*Model_Space
70
0
10
0.0
20
0.0
30
0.0
0
ENDBLK
0
ENDSEC
0
SECTION
2
ENTITIES
0
LINE
8
A-FLOOR-0-A-WALL-EXT
10
1500
20
3175
30
0
11
1950
21
3175
31
0
0
LINE
8
A-FLOOR-0-A-WALL-EXT
10
1500
20
2825
30
0
11
1950
21
2825
31
0
0
LINE
8
A-FLOOR-0-A-WALL-EXT
10
1500
20
3175
30
0
11
1500
21
2825
31
0
0
LINE
8
A-FLOOR-0-A-WALL-EXT
10
2950
20
3175
30
0
11
3400
21
3175
31
0
0
LINE
8
A-FLOOR-0-A-WALL-EXT
10
2950
20
2825
30
0
11
3400
21
2825
31
0
0
LINE
8
A-FLOOR-0-A-WALL-EXT
10
3400
20
3175
30
0
11
3400
21
2825
31
0
0
LINE
8
A-FLOOR-0-A-WALL-EXT
10
1950
20
3175
30
0
11
1950
21
2825
31
0
0
LINE
8
A-FLOOR-0-A-WALL-EXT
10
2950
20
3175
30
0
11
2950
21
2825
31
0
0
LINE
8
A-WALL-EXT
10
1500
20
3175
30
0
11
1950
21
3175
31
0
0
LINE
8
A-WALL-EXT
10
1500
20
2825
30
0
11
1950
21
2825
31
0
0
LINE
8
A-WALL-EXT
10
1500
20
3175
30
0
11
1500
21
2825
31
0
0
LINE
8
A-WALL-EXT
10
2950
20
3175
30
0
11
3400
21
3175
31
0
0
LINE
8
A-WALL-EXT
10
2950
20
2825
30
0
11
3400
21
2825
31
0
0
LINE
8
A-WALL-EXT
10
3400
20
3175
30
0
11
3400
21
2825
31
0
0
LINE
8
A-WALL-EXT
10
1950
20
3175
30
0
11
1950
21
2825
31
0
0
LINE
8
A-WALL-EXT
10
2950
20
3175
30
0
11
2950
21
2825
31
0
0
LINE
8
A-FLOOR-0-A-WALL-EXT
10
3400
20
3175
30
0
11
4535
21
3175
31
0
0
LINE
8
A-FLOOR-0-A-WALL-EXT
10
3400
20
2825
30
0
11
4535
21
2825
31
0
0
LINE
8
A-FLOOR-0-A-WALL-EXT
10
3400
20
3175
30
0
11
3400
21
2825
31
0
0
LINE
8
A-FLOOR-0-A-WALL-EXT
10
7535
20
3175
30
0
11
8670
21
3175
31
0
0
LINE
8
A-FLOOR-0-A-WALL-EXT
10
7535
20
2825
30
0
11
8670
21
2825
31
0
0
LINE
8
A-FLOOR-0-A-WALL-EXT
10
8670
20
3175
30
0
11
8670
21
2825
31
0
0
LINE
8
A-FLOOR-0-A-WALL-EXT
10
4535
20
3175
30
0
11
4535
21
2825
31
0
0
LINE
8
A-FLOOR-0-A-WALL-EXT
10
7535
20
3175
30
0
11
7535
21
2825
31
0
0
LINE
8
A-WALL-EXT
10
3400
20
3175
30
0
11
4535
21
3175
31
0
0
LINE
8
A-WALL-EXT
10
3400
20
2825
30
0
11
4535
21
2825
31
0
0
LINE
8
A-WALL-EXT
10
3400
20
3175
30
0
11
3400
21
2825
31
0
0
LINE
8
A-WALL-EXT
10
7535
20
3175
30
0
11
8670
21
3175
31
0
0
LINE
8
A-WALL-EXT
10
7535
20
2825
30
0
11
8670
21
2825
31
0
0
LINE
8
A-WALL-EXT
10
8670
20
3175
30
0
11
8670
21
2825
31
0
0
LINE
8
A-WALL-EXT
10
4535
20
3175
30
0
11
4535
21
2825
31
0
0
LINE
8
A-WALL-EXT
10
7535
20
3175
30
0
11
7535
21
2825
31
0
0
LINE
8
A-FLOOR-0-A-WALL-EXT
10
8670
20
3175
30
0
11
9329.25
21
3175
31
0
0
LINE
8
A-FLOOR-0-A-WALL-EXT
10
8670
20
2825
30
0
11
9329.25
21
2825
31
0
0
LINE
8
A-FLOOR-0-A-WALL-EXT
10
8670
20
3175
30
0
11
8670
21
2825
31
0
0
LINE
8
A-FLOOR-0-A-WALL-EXT
10
10940.75
20
3175
30
0
11
11600
21
3175
31
0
0
LINE
8
A-FLOOR-0-A-WALL-EXT
10
10940.75
20
2825
30
0
11
11600
21
2825
31
0
0
LINE
8
A-FLOOR-0-A-WALL-EXT
10
11600
20
3175
30
0
11
11600
21
2825
31
0
0
LINE
8
A-FLOOR-0-A-WALL-EXT
10
9329.25
20
3175
30
0
11
9329.25
21
2825
31
0
0
LINE
8
A-FLOOR-0-A-WALL-EXT
10
10940.75
20
3175
30
0
11
10940.75
21
2825
31
0
0
LINE
8
A-WALL-EXT
10
8670
20
3175
30
0
11
9329.25
21
3175
31
0
0
LINE
8
A-WALL-EXT
10
8670
20
2825
30
0
11
9329.25
21
2825
31
0
0
LINE
8
A-WALL-EXT
10
8670
20
3175
30
0
11
8670
21
2825
31
0
0
LINE
8
A-WALL-EXT
10
10940.75
20
3175
30
0
11
11600
21
3175
31
0
0
LINE
8
A-WALL-EXT
10
10940.75
20
2825
30
0
11
11600
21
2825
31
0
0
LINE
8
A-WALL-EXT
10
11600
20
3175
30
0
11
11600
21
2825
31
0
0
LINE
8
A-WALL-EXT
10
9329.25
20
3175
30
0
11
9329.25
21
2825
31
0
0
LINE
8
A-WALL-EXT
10
10940.75
20
3175
30
0
11
10940.75
21
2825
31
0
0
LINE
8
A-FLOOR-0-A-WALL-EXT
10
11600
20
3175
30
0
11
14000
21
3175
31
0
0
LINE
8
A-FLOOR-0-A-WALL-EXT
10
11600
20
2825
30
0
11
14000
21
2825
31
0
0
LINE
8
A-FLOOR-0-A-WALL-EXT
10
11600
20
3175
30
0
11
11600
21
2825
31
0
0
LINE
8
A-FLOOR-0-A-WALL-EXT
10
14000
20
3175
30
0
11
14000
21
2825
31
0
0
LINE
8
A-WALL-EXT
10
11600
20
3175
30
0
11
14000
21
3175
31
0
0
LINE
8
A-WALL-EXT
10
11600
20
2825
30
0
11
14000
21
2825
31
0
0
LINE
8
A-WALL-EXT
10
11600
20
3175
30
0
11
11600
21
2825
31
0
0
LINE
8
A-WALL-EXT
10
14000
20
3175
30
0
11
14000
21
2825
31
0
0
LINE
8
A-FLOOR-0-A-WALL-INT
10
3325
20
3000
30
0
11
3325
21
3450
31
0
0
LINE
8
A-FLOOR-0-A-WALL-INT
10
3475
20
3000
30
0
11
3475
21
3450
31
0
0
LINE
8
A-FLOOR-0-A-WALL-INT
10
3325
20
3000
30
0
11
3475
21
3000
31
0
0
LINE
8
A-FLOOR-0-A-WALL-INT
10
3325
20
4350
30
0
11
3325
21
4800
31
0
0
LINE
8
A-FLOOR-0-A-WALL-INT
10
3475
20
4350
30
0
11
3475
21
4800
31
0
0
LINE
8
A-FLOOR-0-A-WALL-INT
10
3325
20
4800
30
0
11
3475
21
4800
31
0
0
LINE
8
A-FLOOR-0-A-WALL-INT
10
3325
20
3450
30
0
11
3475
21
3450
31
0
0
LINE
8
A-FLOOR-0-A-WALL-INT
10
3325
20
4350
30
0
11
3475
21
4350
31
0
0
LINE
8
A-WALL-INT
10
3325
20
3000
30
0
11
3325
21
3450
31
0
0
LINE
8
A-WALL-INT
10
3475
20
3000
30
0
11
3475
21
3450
31
0
0
LINE
8
A-WALL-INT
10
3325
20
3000
30
0
11
3475
21
3000
31
0
0
LINE
8
A-WALL-INT
10
3325
20
4350
30
0
11
3325
21
4800
31
0
0
LINE
8
A-WALL-INT
10
3475
20
4350
30
0
11
3475
21
4800
31
0
0
LINE
8
A-WALL-INT
10
3325
20
4800
30
0
11
3475
21
4800
31
0
0
LINE
8
A-WALL-INT
10
3325
20
3450
30
0
11
3475
21
3450
31
0
0
LINE
8
A-WALL-INT
10
3325
20
4350
30
0
11
3475
21
4350
31
0
0
LINE
8
A-FLOOR-0-A-WALL-INT
10
3325
20
4800
30
0
11
3325
21
7155
31
0
0
LINE
8
A-FLOOR-0-A-WALL-INT
10
3475
20
4800
30
0
11
3475
21
7155
31
0
0
LINE
8
A-FLOOR-0-A-WALL-INT
10
3325
20
4800
30
0
11
3475
21
4800
31
0
0
LINE
8
A-FLOOR-0-A-WALL-INT
10
3325
20
8055
30
0
11
3325
21
10410
31
0
0
LINE
8
A-FLOOR-0-A-WALL-INT
10
3475
20
8055
30
0
11
3475
21
10410
31
0
0
LINE
8
A-FLOOR-0-A-WALL-INT
10
3325
20
10410
30
0
11
3475
21
10410
31
0
0
LINE
8
A-FLOOR-0-A-WALL-INT
10
3325
20
7155
30
0
11
3475
21
7155
31
0
0
LINE
8
A-FLOOR-0-A-WALL-INT
10
3325
20
8055
30
0
11
3475
21
8055
31
0
0
LINE
8
A-WALL-INT
10
3325
20
4800
30
0
11
3325
21
7155
31
0
0
LINE
8
A-WALL-INT
10
3475
20
4800
30
0
11
3475
21
7155
31
0
0
LINE
8
A-WALL-INT
10
3325
20
4800
30
0
11
3475
21
4800
31
0
0
LINE
8
A-WALL-INT
10
3325
20
8055
30
0
11
3325
21
10410
31
0
0
LINE
8
A-WALL-INT
10
3475
20
8055
30
0
11
3475
21
10410
31
0
0
LINE
8
A-WALL-INT
10
3325
20
10410
30
0
11
3475
21
10410
31
0
0
LINE
8
A-WALL-INT
10
3325
20
7155
30
0
11
3475
21
7155
31
0
0
LINE
8
A-WALL-INT
10
3325
20
8055
30
0
11
3475
21
8055
31
0
0
LINE
8
A-FLOOR-0-A-WALL-INT
10
1500
20
4875
30
0
11
2000
21
4875
31
0
0
LINE
8
A-FLOOR-0-A-WALL-INT
10
1500
20
4725
30
0
11
2000
21
4725
31
0
0
LINE
8
A-FLOOR-0-A-WALL-INT
10
1500
20
4875
30
0
11
1500
21
4725
31
0
0
LINE
8
A-FLOOR-0-A-WALL-INT
10
2900
20
4875
30
0
11
3400
21
4875
31
0
0
LINE
8
A-FLOOR-0-A-WALL-INT
10
2900
20
4725
30
0
11
3400
21
4725
31
0
0
LINE
8
A-FLOOR-0-A-WALL-INT
10
3400
20
4875
30
0
11
3400
21
4725
31
0
0
LINE
8
A-FLOOR-0-A-WALL-INT
10
2000
20
4875
30
0
11
2000
21
4725
31
0
0
LINE
8
A-FLOOR-0-A-WALL-INT
10
2900
20
4875
30
0
11
2900
21
4725
31
0
0
LINE
8
A-WALL-INT
10
1500
20
4875
30
0
11
2000
21
4875
31
0
0
LINE
8
A-WALL-INT
10
1500
20
4725
30
0
11
2000
21
4725
31
0
0
LINE
8
A-WALL-INT
10
1500
20
4875
30
0
11
1500
21
4725
31
0
0
LINE
8
A-WALL-INT
10
2900
20
4875
30
0
11
3400
21
4875
31
0
0
LINE
8
A-WALL-INT
10
2900
20
4725
30
0
11
3400
21
4725
31
0
0
LINE
8
A-WALL-INT
10
3400
20
4875
30
0
11
3400
21
4725
31
0
0
LINE
8
A-WALL-INT
10
2000
20
4875
30
0
11
2000
21
4725
31
0
0
LINE
8
A-WALL-INT
10
2900
20
4875
30
0
11
2900
21
4725
31
0
0
LINE
8
A-FLOOR-0-A-WALL-EXT
10
1325
20
3000
30
0
11
1325
21
4800
31
0
0
LINE
8
A-FLOOR-0-A-WALL-EXT
10
1675
20
3000
30
0
11
1675
21
4800
31
0
0
LINE
8
A-FLOOR-0-A-WALL-EXT
10
1325
20
3000
30
0
11
1675
21
3000
31
0
0
LINE
8
A-FLOOR-0-A-WALL-EXT
10
1325
20
4800
30
0
11
1675
21
4800
31
0
0
LINE
8
A-WALL-EXT
10
1325
20
3000
30
0
11
1325
21
4800
31
0
0
LINE
8
A-WALL-EXT
10
1675
20
3000
30
0
11
1675
21
4800
31
0
0
LINE
8
A-WALL-EXT
10
1325
20
3000
30
0
11
1675
21
3000
31
0
0
LINE
8
A-WALL-EXT
10
1325
20
4800
30
0
11
1675
21
4800
31
0
0
LINE
8
A-FLOOR-0-A-WALL-EXT
10
1325
20
4800
30
0
11
1325
21
10410
31
0
0
LINE
8
A-FLOOR-0-A-WALL-EXT
10
1675
20
4800
30
0
11
1675
21
10410
31
0
0
LINE
8
A-FLOOR-0-A-WALL-EXT
10
1325
20
4800
30
0
11
1675
21
4800
31
0
0
LINE
8
A-FLOOR-0-A-WALL-EXT
10
1325
20
10410
30
0
11
1675
21
10410
31
0
0
LINE
8
A-WALL-EXT
10
1325
20
4800
30
0
11
1325
21
10410
31
0
0
LINE
8
A-WALL-EXT
10
1675
20
4800
30
0
11
1675
21
10410
31
0
0
LINE
8
A-WALL-EXT
10
1325
20
4800
30
0
11
1675
21
4800
31
0
0
LINE
8
A-WALL-EXT
10
1325
20
10410
30
0
11
1675
21
10410
31
0
0
LINE
8
A-FLOOR-0-A-WALL-EXT
10
1325
20
10410
30
0
11
1325
21
11910
31
0
0
LINE
8
A-FLOOR-0-A-WALL-EXT
10
1675
20
10410
30
0
11
1675
21
11910
31
0
0
LINE
8
A-FLOOR-0-A-WALL-EXT
10
1325
20
10410
30
0
11
1675
21
10410
31
0
0
LINE
8
A-FLOOR-0-A-WALL-EXT
10
1325
20
11910
30
0
11
1675
21
11910
31
0
0
LINE
8
A-WALL-EXT
10
1325
20
10410
30
0
11
1325
21
11910
31
0
0
LINE
8
A-WALL-EXT
10
1675
20
10410
30
0
11
1675
21
11910
31
0
0
LINE
8
A-WALL-EXT
10
1325
20
10410
30
0
11
1675
21
10410
31
0
0
LINE
8
A-WALL-EXT
10
1325
20
11910
30
0
11
1675
21
11910
31
0
0
LINE
8
A-FLOOR-0-A-WALL-EXT
10
1325
20
11910
30
0
11
1325
21
15455
31
0
0
LINE
8
A-FLOOR-0-A-WALL-EXT
10
1675
20
11910
30
0
11
1675
21
15455
31
0
0
LINE
8
A-FLOOR-0-A-WALL-EXT
10
1325
20
11910
30
0
11
1675
21
11910
31
0
0
LINE
8
A-FLOOR-0-A-WALL-EXT
10
1325
20
16455
30
0
11
1325
21
20000
31
0
0
LINE
8
A-FLOOR-0-A-WALL-EXT
10
1675
20
16455
30
0
11
1675
21
20000
31
0
0
LINE
8
A-FLOOR-0-A-WALL-EXT
10
1325
20
20000
30
0
11
1675
21
20000
31
0
0
LINE
8
A-FLOOR-0-A-WALL-EXT
10
1325
20
15455
30
0
11
1675
21
15455
31
0
0
LINE
8
A-FLOOR-0-A-WALL-EXT
10
1325
20
16455
30
0
11
1675
21
16455
31
0
0
LINE
8
A-WALL-EXT
10
1325
20
11910
30
0
11
1325
21
15455
31
0
0
LINE
8
A-WALL-EXT
10
1675
20
11910
30
0
11
1675
21
15455
31
0
0
LINE
8
A-WALL-EXT
10
1325
20
11910
30
0
11
1675
21
11910
31
0
0
LINE
8
A-WALL-EXT
10
1325
20
16455
30
0
11
1325
21
20000
31
0
0
LINE
8
A-WALL-EXT
10
1675
20
16455
30
0
11
1675
21
20000
31
0
0
LINE
8
A-WALL-EXT
10
1325
20
20000
30
0
11
1675
21
20000
31
0
0
LINE
8
A-WALL-EXT
10
1325
20
15455
30
0
11
1675
21
15455
31
0
0
LINE
8
A-WALL-EXT
10
1325
20
16455
30
0
11
1675
21
16455
31
0
0
LINE
8
A-FLOOR-0-A-WALL-INT
10
1500
20
10485
30
0
11
2000
21
10485
31
0
0
LINE
8
A-FLOOR-0-A-WALL-INT
10
1500
20
10335
30
0
11
2000
21
10335
31
0
0
LINE
8
A-FLOOR-0-A-WALL-INT
10
1500
20
10485
30
0
11
1500
21
10335
31
0
0
LINE
8
A-FLOOR-0-A-WALL-INT
10
2900
20
10485
30
0
11
3400
21
10485
31
0
0
LINE
8
A-FLOOR-0-A-WALL-INT
10
2900
20
10335
30
0
11
3400
21
10335
31
0
0
LINE
8
A-FLOOR-0-A-WALL-INT
10
3400
20
10485
30
0
11
3400
21
10335
31
0
0
LINE
8
A-FLOOR-0-A-WALL-INT
10
2000
20
10485
30
0
11
2000
21
10335
31
0
0
LINE
8
A-FLOOR-0-A-WALL-INT
10
2900
20
10485
30
0
11
2900
21
10335
31
0
0
LINE
8
A-WALL-INT
10
1500
20
10485
30
0
11
2000
21
10485
31
0
0
LINE
8
A-WALL-INT
10
1500
20
10335
30
0
11
2000
21
10335
31
0
0
LINE
8
A-WALL-INT
10
1500
20
10485
30
0
11
1500
21
10335
31
0
0
LINE
8
A-WALL-INT
10
2900
20
10485
30
0
11
3400
21
10485
31
0
0
LINE
8
A-WALL-INT
10
2900
20
10335
30
0
11
3400
21
10335
31
0
0
LINE
8
A-WALL-INT
10
3400
20
10485
30
0
11
3400
21
10335
31
0
0
LINE
8
A-WALL-INT
10
2000
20
10485
30
0
11
2000
21
10335
31
0
0
LINE
8
A-WALL-INT
10
2900
20
10485
30
0
11
2900
21
10335
31
0
0
LINE
8
A-FLOOR-0-A-WALL-INT
10
3400
20
10485
30
0
11
5585
21
10485
31
0
0
LINE
8
A-FLOOR-0-A-WALL-INT
10
3400
20
10335
30
0
11
5585
21
10335
31
0
0
LINE
8
A-FLOOR-0-A-WALL-INT
10
3400
20
10485
30
0
11
3400
21
10335
31
0
0
LINE
8
A-FLOOR-0-A-WALL-INT
10
6485
20
10485
30
0
11
8670
21
10485
31
0
0
LINE
8
A-FLOOR-0-A-WALL-INT
10
6485
20
10335
30
0
11
8670
21
10335
31
0
0
LINE
8
A-FLOOR-0-A-WALL-INT
10
8670
20
10485
30
0
11
8670
21
10335
31
0
0
LINE
8
A-FLOOR-0-A-WALL-INT
10
5585
20
10485
30
0
11
5585
21
10335
31
0
0
LINE
8
A-FLOOR-0-A-WALL-INT
10
6485
20
10485
30
0
11
6485
21
10335
31
0
0
LINE
8
A-WALL-INT
10
3400
20
10485
30
0
11
5585
21
10485
31
0
0
LINE
8
A-WALL-INT
10
3400
20
10335
30
0
11
5585
21
10335
31
0
0
LINE
8
A-WALL-INT
10
3400
20
10485
30
0
11
3400
21
10335
31
0
0
LINE
8
A-WALL-INT
10
6485
20
10485
30
0
11
8670
21
10485
31
0
0
LINE
8
A-WALL-INT
10
6485
20
10335
30
0
11
8670
21
10335
31
0
0
LINE
8
A-WALL-INT
10
8670
20
10485
30
0
11
8670
21
10335
31
0
0
LINE
8
A-WALL-INT
10
5585
20
10485
30
0
11
5585
21
10335
31
0
0
LINE
8
A-WALL-INT
10
6485
20
10485
30
0
11
6485
21
10335
31
0
0
LINE
8
A-FLOOR-0-A-WALL-INT
10
8670
20
10485
30
0
11
9685
21
10485
31
0
0
LINE
8
A-FLOOR-0-A-WALL-INT
10
8670
20
10335
30
0
11
9685
21
10335
31
0
0
LINE
8
A-FLOOR-0-A-WALL-INT
10
8670
20
10485
30
0
11
8670
21
10335
31
0
0
LINE
8
A-FLOOR-0-A-WALL-INT
10
10585
20
10485
30
0
11
11600
21
10485
31
0
0
LINE
8
A-FLOOR-0-A-WALL-INT
10
10585
20
10335
30
0
11
11600
21
10335
31
0
0
LINE
8
A-FLOOR-0-A-WALL-INT
10
11600
20
10485
30
0
11
11600
21
10335
31
0
0
LINE
8
A-FLOOR-0-A-WALL-INT
10
9685
20
10485
30
0
11
9685
21
10335
31
0
0
LINE
8
A-FLOOR-0-A-WALL-INT
10
10585
20
10485
30
0
11
10585
21
10335
31
0
0
LINE
8
A-WALL-INT
10
8670
20
10485
30
0
11
9685
21
10485
31
0
0
LINE
8
A-WALL-INT
10
8670
20
10335
30
0
11
9685
21
10335
31
0
0
LINE
8
A-WALL-INT
10
8670
20
10485
30
0
11
8670
21
10335
31
0
0
LINE
8
A-WALL-INT
10
10585
20
10485
30
0
11
11600
21
10485
31
0
0
LINE
8
A-WALL-INT
10
10585
20
10335
30
0
11
11600
21
10335
31
0
0
LINE
8
A-WALL-INT
10
11600
20
10485
30
0
11
11600
21
10335
31
0
0
LINE
8
A-WALL-INT
10
9685
20
10485
30
0
11
9685
21
10335
31
0
0
LINE
8
A-WALL-INT
10
10585
20
10485
30
0
11
10585
21
10335
31
0
0
LINE
8
A-FLOOR-0-A-WALL-INT
10
11600
20
10485
30
0
11
12350
21
10485
31
0
0
LINE
8
A-FLOOR-0-A-WALL-INT
10
11600
20
10335
30
0
11
12350
21
10335
31
0
0
LINE
8
A-FLOOR-0-A-WALL-INT
10
11600
20
10485
30
0
11
11600
21
10335
31
0
0
LINE
8
A-FLOOR-0-A-WALL-INT
10
13250
20
10485
30
0
11
14000
21
10485
31
0
0
LINE
8
A-FLOOR-0-A-WALL-INT
10
13250
20
10335
30
0
11
14000
21
10335
31
0
0
LINE
8
A-FLOOR-0-A-WALL-INT
10
14000
20
10485
30
0
11
14000
21
10335
31
0
0
LINE
8
A-FLOOR-0-A-WALL-INT
10
12350
20
10485
30
0
11
12350
21
10335
31
0
0
LINE
8
A-FLOOR-0-A-WALL-INT
10
13250
20
10485
30
0
11
13250
21
10335
31
0
0
LINE
8
A-WALL-INT
10
11600
20
10485
30
0
11
12350
21
10485
31
0
0
LINE
8
A-WALL-INT
10
11600
20
10335
30
0
11
12350
21
10335
31
0
0
LINE
8
A-WALL-INT
10
11600
20
10485
30
0
11
11600
21
10335
31
0
0
LINE
8
A-WALL-INT
10
13250
20
10485
30
0
11
14000
21
10485
31
0
0
LINE
8
A-WALL-INT
10
13250
20
10335
30
0
11
14000
21
10335
31
0
0
LINE
8
A-WALL-INT
10
14000
20
10485
30
0
11
14000
21
10335
31
0
0
LINE
8
A-WALL-INT
10
12350
20
10485
30
0
11
12350
21
10335
31
0
0
LINE
8
A-WALL-INT
10
13250
20
10485
30
0
11
13250
21
10335
31
0
0
LINE
8
A-FLOOR-0-A-WALL-SERVICE
10
1500
20
11970
30
0
11
2440
21
11970
31
0
0
LINE
8
A-FLOOR-0-A-WALL-SERVICE
10
1500
20
11850
30
0
11
2440
21
11850
31
0
0
LINE
8
A-FLOOR-0-A-WALL-SERVICE
10
1500
20
11970
30
0
11
1500
21
11850
31
0
0
LINE
8
A-FLOOR-0-A-WALL-SERVICE
10
3240
20
11970
30
0
11
4180
21
11970
31
0
0
LINE
8
A-FLOOR-0-A-WALL-SERVICE
10
3240
20
11850
30
0
11
4180
21
11850
31
0
0
LINE
8
A-FLOOR-0-A-WALL-SERVICE
10
4180
20
11970
30
0
11
4180
21
11850
31
0
0
LINE
8
A-FLOOR-0-A-WALL-SERVICE
10
2440
20
11970
30
0
11
2440
21
11850
31
0
0
LINE
8
A-FLOOR-0-A-WALL-SERVICE
10
3240
20
11970
30
0
11
3240
21
11850
31
0
0
LINE
8
A-WALL-SERVICE
10
1500
20
11970
30
0
11
2440
21
11970
31
0
0
LINE
8
A-WALL-SERVICE
10
1500
20
11850
30
0
11
2440
21
11850
31
0
0
LINE
8
A-WALL-SERVICE
10
1500
20
11970
30
0
11
1500
21
11850
31
0
0
LINE
8
A-WALL-SERVICE
10
3240
20
11970
30
0
11
4180
21
11970
31
0
0
LINE
8
A-WALL-SERVICE
10
3240
20
11850
30
0
11
4180
21
11850
31
0
0
LINE
8
A-WALL-SERVICE
10
4180
20
11970
30
0
11
4180
21
11850
31
0
0
LINE
8
A-WALL-SERVICE
10
2440
20
11970
30
0
11
2440
21
11850
31
0
0
LINE
8
A-WALL-SERVICE
10
3240
20
11970
30
0
11
3240
21
11850
31
0
0
LINE
8
A-FLOOR-0-A-WALL-INT
10
4180
20
11985
30
0
11
6210
21
11985
31
0
0
LINE
8
A-FLOOR-0-A-WALL-INT
10
4180
20
11835
30
0
11
6210
21
11835
31
0
0
LINE
8
A-FLOOR-0-A-WALL-INT
10
4180
20
11985
30
0
11
4180
21
11835
31
0
0
LINE
8
A-FLOOR-0-A-WALL-INT
10
7110
20
11985
30
0
11
9140
21
11985
31
0
0
LINE
8
A-FLOOR-0-A-WALL-INT
10
7110
20
11835
30
0
11
9140
21
11835
31
0
0
LINE
8
A-FLOOR-0-A-WALL-INT
10
9140
20
11985
30
0
11
9140
21
11835
31
0
0
LINE
8
A-FLOOR-0-A-WALL-INT
10
6210
20
11985
30
0
11
6210
21
11835
31
0
0
LINE
8
A-FLOOR-0-A-WALL-INT
10
7110
20
11985
30
0
11
7110
21
11835
31
0
0
LINE
8
A-WALL-INT
10
4180
20
11985
30
0
11
6210
21
11985
31
0
0
LINE
8
A-WALL-INT
10
4180
20
11835
30
0
11
6210
21
11835
31
0
0
LINE
8
A-WALL-INT
10
4180
20
11985
30
0
11
4180
21
11835
31
0
0
LINE
8
A-WALL-INT
10
7110
20
11985
30
0
11
9140
21
11985
31
0
0
LINE
8
A-WALL-INT
10
7110
20
11835
30
0
11
9140
21
11835
31
0
0
LINE
8
A-WALL-INT
10
9140
20
11985
30
0
11
9140
21
11835
31
0
0
LINE
8
A-WALL-INT
10
6210
20
11985
30
0
11
6210
21
11835
31
0
0
LINE
8
A-WALL-INT
10
7110
20
11985
30
0
11
7110
21
11835
31
0
0
LINE
8
A-FLOOR-0-A-WALL-INT
10
9140
20
11985
30
0
11
11120
21
11985
31
0
0
LINE
8
A-FLOOR-0-A-WALL-INT
10
9140
20
11835
30
0
11
11120
21
11835
31
0
0
LINE
8
A-FLOOR-0-A-WALL-INT
10
9140
20
11985
30
0
11
9140
21
11835
31
0
0
LINE
8
A-FLOOR-0-A-WALL-INT
10
12020
20
11985
30
0
11
14000
21
11985
31
0
0
LINE
8
A-FLOOR-0-A-WALL-INT
10
12020
20
11835
30
0
11
14000
21
11835
31
0
0
LINE
8
A-FLOOR-0-A-WALL-INT
10
14000
20
11985
30
0
11
14000
21
11835
31
0
0
LINE
8
A-FLOOR-0-A-WALL-INT
10
11120
20
11985
30
0
11
11120
21
11835
31
0
0
LINE
8
A-FLOOR-0-A-WALL-INT
10
12020
20
11985
30
0
11
12020
21
11835
31
0
0
LINE
8
A-WALL-INT
10
9140
20
11985
30
0
11
11120
21
11985
31
0
0
LINE
8
A-WALL-INT
10
9140
20
11835
30
0
11
11120
21
11835
31
0
0
LINE
8
A-WALL-INT
10
9140
20
11985
30
0
11
9140
21
11835
31
0
0
LINE
8
A-WALL-INT
10
12020
20
11985
30
0
11
14000
21
11985
31
0
0
LINE
8
A-WALL-INT
10
12020
20
11835
30
0
11
14000
21
11835
31
0
0
LINE
8
A-WALL-INT
10
14000
20
11985
30
0
11
14000
21
11835
31
0
0
LINE
8
A-WALL-INT
10
11120
20
11985
30
0
11
11120
21
11835
31
0
0
LINE
8
A-WALL-INT
10
12020
20
11985
30
0
11
12020
21
11835
31
0
0
LINE
8
A-FLOOR-0-A-WALL-SERVICE
10
4120
20
11910
30
0
11
4120
21
15555
31
0
0
LINE
8
A-FLOOR-0-A-WALL-SERVICE
10
4240
20
11910
30
0
11
4240
21
15555
31
0
0
LINE
8
A-FLOOR-0-A-WALL-SERVICE
10
4120
20
11910
30
0
11
4240
21
11910
31
0
0
LINE
8
A-FLOOR-0-A-WALL-SERVICE
10
4120
20
16355
30
0
11
4120
21
20000
31
0
0
LINE
8
A-FLOOR-0-A-WALL-SERVICE
10
4240
20
16355
30
0
11
4240
21
20000
31
0
0
LINE
8
A-FLOOR-0-A-WALL-SERVICE
10
4120
20
20000
30
0
11
4240
21
20000
31
0
0
LINE
8
A-FLOOR-0-A-WALL-SERVICE
10
4120
20
15555
30
0
11
4240
21
15555
31
0
0
LINE
8
A-FLOOR-0-A-WALL-SERVICE
10
4120
20
16355
30
0
11
4240
21
16355
31
0
0
LINE
8
A-WALL-SERVICE
10
4120
20
11910
30
0
11
4120
21
15555
31
0
0
LINE
8
A-WALL-SERVICE
10
4240
20
11910
30
0
11
4240
21
15555
31
0
0
LINE
8
A-WALL-SERVICE
10
4120
20
11910
30
0
11
4240
21
11910
31
0
0
LINE
8
A-WALL-SERVICE
10
4120
20
16355
30
0
11
4120
21
20000
31
0
0
LINE
8
A-WALL-SERVICE
10
4240
20
16355
30
0
11
4240
21
20000
31
0
0
LINE
8
A-WALL-SERVICE
10
4120
20
20000
30
0
11
4240
21
20000
31
0
0
LINE
8
A-WALL-SERVICE
10
4120
20
15555
30
0
11
4240
21
15555
31
0
0
LINE
8
A-WALL-SERVICE
10
4120
20
16355
30
0
11
4240
21
16355
31
0
0
LINE
8
A-FLOOR-0-A-WALL-EXT
10
1500
20
20175
30
0
11
4180
21
20175
31
0
0
LINE
8
A-FLOOR-0-A-WALL-EXT
10
1500
20
19825
30
0
11
4180
21
19825
31
0
0
LINE
8
A-FLOOR-0-A-WALL-EXT
10
1500
20
20175
30
0
11
1500
21
19825
31
0
0
LINE
8
A-FLOOR-0-A-WALL-EXT
10
4180
20
20175
30
0
11
4180
21
19825
31
0
0
LINE
8
A-WALL-EXT
10
1500
20
20175
30
0
11
4180
21
20175
31
0
0
LINE
8
A-WALL-EXT
10
1500
20
19825
30
0
11
4180
21
19825
31
0
0
LINE
8
A-WALL-EXT
10
1500
20
20175
30
0
11
1500
21
19825
31
0
0
LINE
8
A-WALL-EXT
10
4180
20
20175
30
0
11
4180
21
19825
31
0
0
LINE
8
A-FLOOR-0-A-WALL-EXT
10
4180
20
20175
30
0
11
5460
21
20175
31
0
0
LINE
8
A-FLOOR-0-A-WALL-EXT
10
4180
20
19825
30
0
11
5460
21
19825
31
0
0
LINE
8
A-FLOOR-0-A-WALL-EXT
10
4180
20
20175
30
0
11
4180
21
19825
31
0
0
LINE
8
A-FLOOR-0-A-WALL-EXT
10
7860
20
20175
30
0
11
9140
21
20175
31
0
0
LINE
8
A-FLOOR-0-A-WALL-EXT
10
7860
20
19825
30
0
11
9140
21
19825
31
0
0
LINE
8
A-FLOOR-0-A-WALL-EXT
10
9140
20
20175
30
0
11
9140
21
19825
31
0
0
LINE
8
A-FLOOR-0-A-WALL-EXT
10
5460
20
20175
30
0
11
5460
21
19825
31
0
0
LINE
8
A-FLOOR-0-A-WALL-EXT
10
7860
20
20175
30
0
11
7860
21
19825
31
0
0
LINE
8
A-WALL-EXT
10
4180
20
20175
30
0
11
5460
21
20175
31
0
0
LINE
8
A-WALL-EXT
10
4180
20
19825
30
0
11
5460
21
19825
31
0
0
LINE
8
A-WALL-EXT
10
4180
20
20175
30
0
11
4180
21
19825
31
0
0
LINE
8
A-WALL-EXT
10
7860
20
20175
30
0
11
9140
21
20175
31
0
0
LINE
8
A-WALL-EXT
10
7860
20
19825
30
0
11
9140
21
19825
31
0
0
LINE
8
A-WALL-EXT
10
9140
20
20175
30
0
11
9140
21
19825
31
0
0
LINE
8
A-WALL-EXT
10
5460
20
20175
30
0
11
5460
21
19825
31
0
0
LINE
8
A-WALL-EXT
10
7860
20
20175
30
0
11
7860
21
19825
31
0
0
LINE
8
A-FLOOR-0-A-WALL-EXT
10
9140
20
20175
30
0
11
14000
21
20175
31
0
0
LINE
8
A-FLOOR-0-A-WALL-EXT
10
9140
20
19825
30
0
11
14000
21
19825
31
0
0
LINE
8
A-FLOOR-0-A-WALL-EXT
10
9140
20
20175
30
0
11
9140
21
19825
31
0
0
LINE
8
A-FLOOR-0-A-WALL-EXT
10
14000
20
20175
30
0
11
14000
21
19825
31
0
0
LINE
8
A-WALL-EXT
10
9140
20
20175
30
0
11
14000
21
20175
31
0
0
LINE
8
A-WALL-EXT
10
9140
20
19825
30
0
11
14000
21
19825
31
0
0
LINE
8
A-WALL-EXT
10
9140
20
20175
30
0
11
9140
21
19825
31
0
0
LINE
8
A-WALL-EXT
10
14000
20
20175
30
0
11
14000
21
19825
31
0
0
LINE
8
A-FLOOR-0-A-WALL-INT
10
9065
20
11910
30
0
11
9065
21
15505
31
0
0
LINE
8
A-FLOOR-0-A-WALL-INT
10
9215
20
11910
30
0
11
9215
21
15505
31
0
0
LINE
8
A-FLOOR-0-A-WALL-INT
10
9065
20
11910
30
0
11
9215
21
11910
31
0
0
LINE
8
A-FLOOR-0-A-WALL-INT
10
9065
20
16405
30
0
11
9065
21
20000
31
0
0
LINE
8
A-FLOOR-0-A-WALL-INT
10
9215
20
16405
30
0
11
9215
21
20000
31
0
0
LINE
8
A-FLOOR-0-A-WALL-INT
10
9065
20
20000
30
0
11
9215
21
20000
31
0
0
LINE
8
A-FLOOR-0-A-WALL-INT
10
9065
20
15505
30
0
11
9215
21
15505
31
0
0
LINE
8
A-FLOOR-0-A-WALL-INT
10
9065
20
16405
30
0
11
9215
21
16405
31
0
0
LINE
8
A-WALL-INT
10
9065
20
11910
30
0
11
9065
21
15505
31
0
0
LINE
8
A-WALL-INT
10
9215
20
11910
30
0
11
9215
21
15505
31
0
0
LINE
8
A-WALL-INT
10
9065
20
11910
30
0
11
9215
21
11910
31
0
0
LINE
8
A-WALL-INT
10
9065
20
16405
30
0
11
9065
21
20000
31
0
0
LINE
8
A-WALL-INT
10
9215
20
16405
30
0
11
9215
21
20000
31
0
0
LINE
8
A-WALL-INT
10
9065
20
20000
30
0
11
9215
21
20000
31
0
0
LINE
8
A-WALL-INT
10
9065
20
15505
30
0
11
9215
21
15505
31
0
0
LINE
8
A-WALL-INT
10
9065
20
16405
30
0
11
9215
21
16405
31
0
0
LINE
8
A-FLOOR-0-A-WALL-EXT
10
13825
20
3000
30
0
11
13825
21
4480
31
0
0
LINE
8
A-FLOOR-0-A-WALL-EXT
10
14175
20
3000
30
0
11
14175
21
4480
31
0
0
LINE
8
A-FLOOR-0-A-WALL-EXT
10
13825
20
3000
30
0
11
14175
21
3000
31
0
0
LINE
8
A-FLOOR-0-A-WALL-EXT
10
13825
20
4480
30
0
11
14175
21
4480
31
0
0
LINE
8
A-WALL-EXT
10
13825
20
3000
30
0
11
13825
21
4480
31
0
0
LINE
8
A-WALL-EXT
10
14175
20
3000
30
0
11
14175
21
4480
31
0
0
LINE
8
A-WALL-EXT
10
13825
20
3000
30
0
11
14175
21
3000
31
0
0
LINE
8
A-WALL-EXT
10
13825
20
4480
30
0
11
14175
21
4480
31
0
0
LINE
8
A-FLOOR-0-A-WALL-EXT
10
13825
20
4480
30
0
11
13825
21
6545
31
0
0
LINE
8
A-FLOOR-0-A-WALL-EXT
10
14175
20
4480
30
0
11
14175
21
6545
31
0
0
LINE
8
A-FLOOR-0-A-WALL-EXT
10
13825
20
4480
30
0
11
14175
21
4480
31
0
0
LINE
8
A-FLOOR-0-A-WALL-EXT
10
13825
20
8345
30
0
11
13825
21
10410
31
0
0
LINE
8
A-FLOOR-0-A-WALL-EXT
10
14175
20
8345
30
0
11
14175
21
10410
31
0
0
LINE
8
A-FLOOR-0-A-WALL-EXT
10
13825
20
10410
30
0
11
14175
21
10410
31
0
0
LINE
8
A-FLOOR-0-A-WALL-EXT
10
13825
20
6545
30
0
11
14175
21
6545
31
0
0
LINE
8
A-FLOOR-0-A-WALL-EXT
10
13825
20
8345
30
0
11
14175
21
8345
31
0
0
LINE
8
A-WALL-EXT
10
13825
20
4480
30
0
11
13825
21
6545
31
0
0
LINE
8
A-WALL-EXT
10
14175
20
4480
30
0
11
14175
21
6545
31
0
0
LINE
8
A-WALL-EXT
10
13825
20
4480
30
0
11
14175
21
4480
31
0
0
LINE
8
A-WALL-EXT
10
13825
20
8345
30
0
11
13825
21
10410
31
0
0
LINE
8
A-WALL-EXT
10
14175
20
8345
30
0
11
14175
21
10410
31
0
0
LINE
8
A-WALL-EXT
10
13825
20
10410
30
0
11
14175
21
10410
31
0
0
LINE
8
A-WALL-EXT
10
13825
20
6545
30
0
11
14175
21
6545
31
0
0
LINE
8
A-WALL-EXT
10
13825
20
8345
30
0
11
14175
21
8345
31
0
0
LINE
8
A-FLOOR-0-A-WALL-EXT
10
13825
20
10410
30
0
11
13825
21
11910
31
0
0
LINE
8
A-FLOOR-0-A-WALL-EXT
10
14175
20
10410
30
0
11
14175
21
11910
31
0
0
LINE
8
A-FLOOR-0-A-WALL-EXT
10
13825
20
10410
30
0
11
14175
21
10410
31
0
0
LINE
8
A-FLOOR-0-A-WALL-EXT
10
13825
20
11910
30
0
11
14175
21
11910
31
0
0
LINE
8
A-WALL-EXT
10
13825
20
10410
30
0
11
13825
21
11910
31
0
0
LINE
8
A-WALL-EXT
10
14175
20
10410
30
0
11
14175
21
11910
31
0
0
LINE
8
A-WALL-EXT
10
13825
20
10410
30
0
11
14175
21
10410
31
0
0
LINE
8
A-WALL-EXT
10
13825
20
11910
30
0
11
14175
21
11910
31
0
0
LINE
8
A-FLOOR-0-A-WALL-EXT
10
13825
20
11910
30
0
11
13825
21
14955
31
0
0
LINE
8
A-FLOOR-0-A-WALL-EXT
10
14175
20
11910
30
0
11
14175
21
14955
31
0
0
LINE
8
A-FLOOR-0-A-WALL-EXT
10
13825
20
11910
30
0
11
14175
21
11910
31
0
0
LINE
8
A-FLOOR-0-A-WALL-EXT
10
13825
20
16955
30
0
11
13825
21
20000
31
0
0
LINE
8
A-FLOOR-0-A-WALL-EXT
10
14175
20
16955
30
0
11
14175
21
20000
31
0
0
LINE
8
A-FLOOR-0-A-WALL-EXT
10
13825
20
20000
30
0
11
14175
21
20000
31
0
0
LINE
8
A-FLOOR-0-A-WALL-EXT
10
13825
20
14955
30
0
11
14175
21
14955
31
0
0
LINE
8
A-FLOOR-0-A-WALL-EXT
10
13825
20
16955
30
0
11
14175
21
16955
31
0
0
LINE
8
A-WALL-EXT
10
13825
20
11910
30
0
11
13825
21
14955
31
0
0
LINE
8
A-WALL-EXT
10
14175
20
11910
30
0
11
14175
21
14955
31
0
0
LINE
8
A-WALL-EXT
10
13825
20
11910
30
0
11
14175
21
11910
31
0
0
LINE
8
A-WALL-EXT
10
13825
20
16955
30
0
11
13825
21
20000
31
0
0
LINE
8
A-WALL-EXT
10
14175
20
16955
30
0
11
14175
21
20000
31
0
0
LINE
8
A-WALL-EXT
10
13825
20
20000
30
0
11
14175
21
20000
31
0
0
LINE
8
A-WALL-EXT
10
13825
20
14955
30
0
11
14175
21
14955
31
0
0
LINE
8
A-WALL-EXT
10
13825
20
16955
30
0
11
14175
21
16955
31
0
0
LINE
8
A-FLOOR-0-A-WALL-SERVICE
10
11600
20
4540
30
0
11
12400
21
4540
31
0
0
LINE
8
A-FLOOR-0-A-WALL-SERVICE
10
11600
20
4420
30
0
11
12400
21
4420
31
0
0
LINE
8
A-FLOOR-0-A-WALL-SERVICE
10
11600
20
4540
30
0
11
11600
21
4420
31
0
0
LINE
8
A-FLOOR-0-A-WALL-SERVICE
10
13200
20
4540
30
0
11
14000
21
4540
31
0
0
LINE
8
A-FLOOR-0-A-WALL-SERVICE
10
13200
20
4420
30
0
11
14000
21
4420
31
0
0
LINE
8
A-FLOOR-0-A-WALL-SERVICE
10
14000
20
4540
30
0
11
14000
21
4420
31
0
0
LINE
8
A-FLOOR-0-A-WALL-SERVICE
10
12400
20
4540
30
0
11
12400
21
4420
31
0
0
LINE
8
A-FLOOR-0-A-WALL-SERVICE
10
13200
20
4540
30
0
11
13200
21
4420
31
0
0
LINE
8
A-WALL-SERVICE
10
11600
20
4540
30
0
11
12400
21
4540
31
0
0
LINE
8
A-WALL-SERVICE
10
11600
20
4420
30
0
11
12400
21
4420
31
0
0
LINE
8
A-WALL-SERVICE
10
11600
20
4540
30
0
11
11600
21
4420
31
0
0
LINE
8
A-WALL-SERVICE
10
13200
20
4540
30
0
11
14000
21
4540
31
0
0
LINE
8
A-WALL-SERVICE
10
13200
20
4420
30
0
11
14000
21
4420
31
0
0
LINE
8
A-WALL-SERVICE
10
14000
20
4540
30
0
11
14000
21
4420
31
0
0
LINE
8
A-WALL-SERVICE
10
12400
20
4540
30
0
11
12400
21
4420
31
0
0
LINE
8
A-WALL-SERVICE
10
13200
20
4540
30
0
11
13200
21
4420
31
0
0
LINE
8
A-FLOOR-0-A-WALL-SERVICE
10
11540
20
3000
30
0
11
11540
21
4480
31
0
0
LINE
8
A-FLOOR-0-A-WALL-SERVICE
10
11660
20
3000
30
0
11
11660
21
4480
31
0
0
LINE
8
A-FLOOR-0-A-WALL-SERVICE
10
11540
20
3000
30
0
11
11660
21
3000
31
0
0
LINE
8
A-FLOOR-0-A-WALL-SERVICE
10
11540
20
4480
30
0
11
11660
21
4480
31
0
0
LINE
8
A-WALL-SERVICE
10
11540
20
3000
30
0
11
11540
21
4480
31
0
0
LINE
8
A-WALL-SERVICE
10
11660
20
3000
30
0
11
11660
21
4480
31
0
0
LINE
8
A-WALL-SERVICE
10
11540
20
3000
30
0
11
11660
21
3000
31
0
0
LINE
8
A-WALL-SERVICE
10
11540
20
4480
30
0
11
11660
21
4480
31
0
0
LINE
8
A-FLOOR-0-A-WALL-INT
10
11525
20
4480
30
0
11
11525
21
6995
31
0
0
LINE
8
A-FLOOR-0-A-WALL-INT
10
11675
20
4480
30
0
11
11675
21
6995
31
0
0
LINE
8
A-FLOOR-0-A-WALL-INT
10
11525
20
4480
30
0
11
11675
21
4480
31
0
0
LINE
8
A-FLOOR-0-A-WALL-INT
10
11525
20
7895
30
0
11
11525
21
10410
31
0
0
LINE
8
A-FLOOR-0-A-WALL-INT
10
11675
20
7895
30
0
11
11675
21
10410
31
0
0
LINE
8
A-FLOOR-0-A-WALL-INT
10
11525
20
10410
30
0
11
11675
21
10410
31
0
0
LINE
8
A-FLOOR-0-A-WALL-INT
10
11525
20
6995
30
0
11
11675
21
6995
31
0
0
LINE
8
A-FLOOR-0-A-WALL-INT
10
11525
20
7895
30
0
11
11675
21
7895
31
0
0
LINE
8
A-WALL-INT
10
11525
20
4480
30
0
11
11525
21
6995
31
0
0
LINE
8
A-WALL-INT
10
11675
20
4480
30
0
11
11675
21
6995
31
0
0
LINE
8
A-WALL-INT
10
11525
20
4480
30
0
11
11675
21
4480
31
0
0
LINE
8
A-WALL-INT
10
11525
20
7895
30
0
11
11525
21
10410
31
0
0
LINE
8
A-WALL-INT
10
11675
20
7895
30
0
11
11675
21
10410
31
0
0
LINE
8
A-WALL-INT
10
11525
20
10410
30
0
11
11675
21
10410
31
0
0
LINE
8
A-WALL-INT
10
11525
20
6995
30
0
11
11675
21
6995
31
0
0
LINE
8
A-WALL-INT
10
11525
20
7895
30
0
11
11675
21
7895
31
0
0
LINE
8
A-FLOOR-0-A-WALL-INT
10
8595
20
3000
30
0
11
8595
21
10410
31
0
0
LINE
8
A-FLOOR-0-A-WALL-INT
10
8745
20
3000
30
0
11
8745
21
10410
31
0
0
LINE
8
A-FLOOR-0-A-WALL-INT
10
8595
20
3000
30
0
11
8745
21
3000
31
0
0
LINE
8
A-FLOOR-0-A-WALL-INT
10
8595
20
10410
30
0
11
8745
21
10410
31
0
0
LINE
8
A-WALL-INT
10
8595
20
3000
30
0
11
8595
21
10410
31
0
0
LINE
8
A-WALL-INT
10
8745
20
3000
30
0
11
8745
21
10410
31
0
0
LINE
8
A-WALL-INT
10
8595
20
3000
30
0
11
8745
21
3000
31
0
0
LINE
8
A-WALL-INT
10
8595
20
10410
30
0
11
8745
21
10410
31
0
0
LINE
8
A-FLOOR-0-A-DOOR
10
1950
20
3000
30
0
11
2950
21
3000
31
0
0
LINE
8
A-FLOOR-0-A-DOOR
10
1950
20
4000
30
0
11
1910
21
4000
31
0
0
LINE
8
A-DOOR
10
1950
20
3000
30
0
11
2950
21
3000
31
0
0
LINE
8
A-DOOR
10
1950
20
4000
30
0
11
1910
21
4000
31
0
0
LINE
8
A-FLOOR-0-A-DOOR
10
3240
20
11910
30
0
11
2440
21
11910
31
0
0
LINE
8
A-FLOOR-0-A-DOOR
10
3240
20
12710
30
0
11
3200
21
12710
31
0
0
LINE
8
A-DOOR
10
3240
20
11910
30
0
11
2440
21
11910
31
0
0
LINE
8
A-DOOR
10
3240
20
12710
30
0
11
3200
21
12710
31
0
0
LINE
8
A-FLOOR-0-A-DOOR
10
2900
20
10410
30
0
11
2000
21
10410
31
0
0
LINE
8
A-FLOOR-0-A-DOOR
10
2900
20
9510
30
0
11
2940
21
9510
31
0
0
LINE
8
A-DOOR
10
2900
20
10410
30
0
11
2000
21
10410
31
0
0
LINE
8
A-DOOR
10
2900
20
9510
30
0
11
2940
21
9510
31
0
0
LINE
8
A-FLOOR-0-A-DOOR
10
5585
20
10410
30
0
11
6485
21
10410
31
0
0
LINE
8
A-FLOOR-0-A-DOOR
10
5585
20
9510
30
0
11
5625
21
9510
31
0
0
LINE
8
A-DOOR
10
5585
20
10410
30
0
11
6485
21
10410
31
0
0
LINE
8
A-DOOR
10
5585
20
9510
30
0
11
5625
21
9510
31
0
0
LINE
8
A-FLOOR-0-A-DOOR
10
10585
20
10410
30
0
11
9685
21
10410
31
0
0
LINE
8
A-FLOOR-0-A-DOOR
10
10585
20
9510
30
0
11
10625
21
9510
31
0
0
LINE
8
A-DOOR
10
10585
20
10410
30
0
11
9685
21
10410
31
0
0
LINE
8
A-DOOR
10
10585
20
9510
30
0
11
10625
21
9510
31
0
0
LINE
8
A-FLOOR-0-A-DOOR
10
12350
20
10410
30
0
11
13250
21
10410
31
0
0
LINE
8
A-FLOOR-0-A-DOOR
10
12350
20
9510
30
0
11
12390
21
9510
31
0
0
LINE
8
A-DOOR
10
12350
20
10410
30
0
11
13250
21
10410
31
0
0
LINE
8
A-DOOR
10
12350
20
9510
30
0
11
12390
21
9510
31
0
0
LINE
8
A-FLOOR-0-A-DOOR
10
6210
20
11910
30
0
11
7110
21
11910
31
0
0
LINE
8
A-FLOOR-0-A-DOOR
10
6210
20
12810
30
0
11
6170
21
12810
31
0
0
LINE
8
A-DOOR
10
6210
20
11910
30
0
11
7110
21
11910
31
0
0
LINE
8
A-DOOR
10
6210
20
12810
30
0
11
6170
21
12810
31
0
0
LINE
8
A-FLOOR-0-A-DOOR
10
12020
20
11910
30
0
11
11120
21
11910
31
0
0
LINE
8
A-FLOOR-0-A-DOOR
10
12020
20
12810
30
0
11
11980
21
12810
31
0
0
LINE
8
A-DOOR
10
12020
20
11910
30
0
11
11120
21
11910
31
0
0
LINE
8
A-DOOR
10
12020
20
12810
30
0
11
11980
21
12810
31
0
0
LINE
8
A-FLOOR-0-A-DOOR
10
3400
20
3450
30
0
11
3400
21
4350
31
0
0
LINE
8
A-FLOOR-0-A-DOOR
10
4300
20
3450
30
0
11
4300
21
3490
31
0
0
LINE
8
A-DOOR
10
3400
20
3450
30
0
11
3400
21
4350
31
0
0
LINE
8
A-DOOR
10
4300
20
3450
30
0
11
4300
21
3490
31
0
0
LINE
8
A-FLOOR-0-A-DOOR
10
3400
20
8055
30
0
11
3400
21
7155
31
0
0
LINE
8
A-FLOOR-0-A-DOOR
10
4300
20
8055
30
0
11
4300
21
8095
31
0
0
LINE
8
A-DOOR
10
3400
20
8055
30
0
11
3400
21
7155
31
0
0
LINE
8
A-DOOR
10
4300
20
8055
30
0
11
4300
21
8095
31
0
0
LINE
8
A-FLOOR-0-A-DOOR
10
2000
20
4800
30
0
11
2900
21
4800
31
0
0
LINE
8
A-FLOOR-0-A-DOOR
10
2000
20
3900
30
0
11
2040
21
3900
31
0
0
LINE
8
A-DOOR
10
2000
20
4800
30
0
11
2900
21
4800
31
0
0
LINE
8
A-DOOR
10
2000
20
3900
30
0
11
2040
21
3900
31
0
0
LINE
8
A-FLOOR-0-A-DOOR
10
4180
20
15555
30
0
11
4180
21
16355
31
0
0
LINE
8
A-FLOOR-0-A-DOOR
10
3380
20
15555
30
0
11
3380
21
15515
31
0
0
LINE
8
A-DOOR
10
4180
20
15555
30
0
11
4180
21
16355
31
0
0
LINE
8
A-DOOR
10
3380
20
15555
30
0
11
3380
21
15515
31
0
0
LINE
8
A-FLOOR-0-A-DOOR
10
9140
20
15505
30
0
11
9140
21
16405
31
0
0
LINE
8
A-FLOOR-0-A-DOOR
10
8240
20
15505
30
0
11
8240
21
15465
31
0
0
LINE
8
A-DOOR
10
9140
20
15505
30
0
11
9140
21
16405
31
0
0
LINE
8
A-DOOR
10
8240
20
15505
30
0
11
8240
21
15465
31
0
0
LINE
8
A-FLOOR-0-A-DOOR
10
13200
20
4480
30
0
11
12400
21
4480
31
0
0
LINE
8
A-FLOOR-0-A-DOOR
10
13200
20
3680
30
0
11
13240
21
3680
31
0
0
LINE
8
A-DOOR
10
13200
20
4480
30
0
11
12400
21
4480
31
0
0
LINE
8
A-DOOR
10
13200
20
3680
30
0
11
13240
21
3680
31
0
0
LINE
8
A-FLOOR-0-A-DOOR
10
11600
20
7895
30
0
11
11600
21
6995
31
0
0
LINE
8
A-FLOOR-0-A-DOOR
10
12500
20
7895
30
0
11
12500
21
7935
31
0
0
LINE
8
A-DOOR
10
11600
20
7895
30
0
11
11600
21
6995
31
0
0
LINE
8
A-DOOR
10
12500
20
7895
30
0
11
12500
21
7935
31
0
0
LINE
8
A-FLOOR-0-A-WINDOW
10
1560
20
15455
30
0
11
1560
21
16455
31
0
0
LINE
8
A-FLOOR-0-A-WINDOW
10
1520
20
15455
30
0
11
1520
21
16455
31
0
0
LINE
8
A-FLOOR-0-A-WINDOW
10
1480
20
15455
30
0
11
1480
21
16455
31
0
0
LINE
8
A-FLOOR-0-A-WINDOW
10
1440
20
15455
30
0
11
1440
21
16455
31
0
0
LINE
8
A-WINDOW
10
1560
20
15455
30
0
11
1560
21
16455
31
0
0
LINE
8
A-WINDOW
10
1520
20
15455
30
0
11
1520
21
16455
31
0
0
LINE
8
A-WINDOW
10
1480
20
15455
30
0
11
1480
21
16455
31
0
0
LINE
8
A-WINDOW
10
1440
20
15455
30
0
11
1440
21
16455
31
0
0
LINE
8
A-FLOOR-0-A-WINDOW
10
5460
20
19940
30
0
11
7860
21
19940
31
0
0
LINE
8
A-FLOOR-0-A-WINDOW
10
5460
20
19980
30
0
11
7860
21
19980
31
0
0
LINE
8
A-FLOOR-0-A-WINDOW
10
5460
20
20020
30
0
11
7860
21
20020
31
0
0
LINE
8
A-FLOOR-0-A-WINDOW
10
5460
20
20060
30
0
11
7860
21
20060
31
0
0
LINE
8
A-WINDOW
10
5460
20
19940
30
0
11
7860
21
19940
31
0
0
LINE
8
A-WINDOW
10
5460
20
19980
30
0
11
7860
21
19980
31
0
0
LINE
8
A-WINDOW
10
5460
20
20020
30
0
11
7860
21
20020
31
0
0
LINE
8
A-WINDOW
10
5460
20
20060
30
0
11
7860
21
20060
31
0
0
LINE
8
A-FLOOR-0-A-WINDOW
10
14060
20
14955
30
0
11
14060
21
16955
31
0
0
LINE
8
A-FLOOR-0-A-WINDOW
10
14020
20
14955
30
0
11
14020
21
16955
31
0
0
LINE
8
A-FLOOR-0-A-WINDOW
10
13980
20
14955
30
0
11
13980
21
16955
31
0
0
LINE
8
A-FLOOR-0-A-WINDOW
10
13940
20
14955
30
0
11
13940
21
16955
31
0
0
LINE
8
A-WINDOW
10
14060
20
14955
30
0
11
14060
21
16955
31
0
0
LINE
8
A-WINDOW
10
14020
20
14955
30
0
11
14020
21
16955
31
0
0
LINE
8
A-WINDOW
10
13980
20
14955
30
0
11
13980
21
16955
31
0
0
LINE
8
A-WINDOW
10
13940
20
14955
30
0
11
13940
21
16955
31
0
0
LINE
8
A-FLOOR-0-A-WINDOW
10
14060
20
6545
30
0
11
14060
21
8345
31
0
0
LINE
8
A-FLOOR-0-A-WINDOW
10
14020
20
6545
30
0
11
14020
21
8345
31
0
0
LINE
8
A-FLOOR-0-A-WINDOW
10
13980
20
6545
30
0
11
13980
21
8345
31
0
0
LINE
8
A-FLOOR-0-A-WINDOW
10
13940
20
6545
30
0
11
13940
21
8345
31
0
0
LINE
8
A-WINDOW
10
14060
20
6545
30
0
11
14060
21
8345
31
0
0
LINE
8
A-WINDOW
10
14020
20
6545
30
0
11
14020
21
8345
31
0
0
LINE
8
A-WINDOW
10
13980
20
6545
30
0
11
13980
21
8345
31
0
0
LINE
8
A-WINDOW
10
13940
20
6545
30
0
11
13940
21
8345
31
0
0
LINE
8
A-FLOOR-0-A-WINDOW
10
4535
20
2940
30
0
11
7535
21
2940
31
0
0
LINE
8
A-FLOOR-0-A-WINDOW
10
4535
20
2980
30
0
11
7535
21
2980
31
0
0
LINE
8
A-FLOOR-0-A-WINDOW
10
4535
20
3020
30
0
11
7535
21
3020
31
0
0
LINE
8
A-FLOOR-0-A-WINDOW
10
4535
20
3060
30
0
11
7535
21
3060
31
0
0
LINE
8
A-WINDOW
10
4535
20
2940
30
0
11
7535
21
2940
31
0
0
LINE
8
A-WINDOW
10
4535
20
2980
30
0
11
7535
21
2980
31
0
0
LINE
8
A-WINDOW
10
4535
20
3020
30
0
11
7535
21
3020
31
0
0
LINE
8
A-WINDOW
10
4535
20
3060
30
0
11
7535
21
3060
31
0
0
LINE
8
A-FLOOR-0-A-WINDOW
10
9329.25
20
2940
30
0
11
10940.75
21
2940
31
0
0
LINE
8
A-FLOOR-0-A-WINDOW
10
9329.25
20
2980
30
0
11
10940.75
21
2980
31
0
0
LINE
8
A-FLOOR-0-A-WINDOW
10
9329.25
20
3020
30
0
11
10940.75
21
3020
31
0
0
LINE
8
A-FLOOR-0-A-WINDOW
10
9329.25
20
3060
30
0
11
10940.75
21
3060
31
0
0
LINE
8
A-WINDOW
10
9329.25
20
2940
30
0
11
10940.75
21
2940
31
0
0
LINE
8
A-WINDOW
10
9329.25
20
2980
30
0
11
10940.75
21
2980
31
0
0
LINE
8
A-WINDOW
10
9329.25
20
3020
30
0
11
10940.75
21
3020
31
0
0
LINE
8
A-WINDOW
10
9329.25
20
3060
30
0
11
10940.75
21
3060
31
0
0
LINE
8
A-FLOOR-0-A-PARKING
10
0
20
0
30
0
11
6000
21
0
31
0
0
LINE
8
A-FLOOR-0-A-PARKING
10
6000
20
0
30
0
11
6000
21
2200
31
0
0
LINE
8
A-FLOOR-0-A-PARKING
10
6000
20
2200
30
0
11
0
21
2200
31
0
0
LINE
8
A-FLOOR-0-A-PARKING
10
0
20
2200
30
0
11
0
21
0
31
0
0
LINE
8
A-PARKING
10
0
20
0
30
0
11
6000
21
0
31
0
0
LINE
8
A-PARKING
10
6000
20
0
30
0
11
6000
21
2200
31
0
0
LINE
8
A-PARKING
10
6000
20
2200
30
0
11
0
21
2200
31
0
0
LINE
8
A-PARKING
10
0
20
2200
30
0
11
0
21
0
31
0
0
LINE
8
A-GRID
10
1500
20
2500
30
0
11
1500
21
20500
31
0
0
LINE
8
A-AXIS
10
7750
20
2500
30
0
11
7750
21
20500
31
0
0
LINE
8
A-GRID
10
14000
20
2500
30
0
11
14000
21
20500
31
0
0
LINE
8
A-GRID
10
1000
20
3000
30
0
11
14500
21
3000
31
0
0
LINE
8
A-AXIS
10
1000
20
11500
30
0
11
14500
21
11500
31
0
0
LINE
8
A-GRID
10
1000
20
20000
30
0
11
14500
21
20000
31
0
0
LINE
8
A-FLOOR-0-A-DIMS
10
1500
20
2000
30
0
11
14000
21
2000
31
0
0
LINE
8
A-FLOOR-0-A-DIMS
10
1500
20
1850
30
0
11
1500
21
2150
31
0
0
LINE
8
A-FLOOR-0-A-DIMS
10
14000
20
1850
30
0
11
14000
21
2150
31
0
0
LINE
8
A-FLOOR-0-A-DIMS
10
500
20
3000
30
0
11
500
21
20000
31
0
0
LINE
8
A-FLOOR-0-A-DIMS
10
350
20
3000
30
0
11
650
21
3000
31
0
0
LINE
8
A-FLOOR-0-A-DIMS
10
350
20
20000
30
0
11
650
21
20000
31
0
0
LINE
8
A-DIMS
10
1500
20
2000
30
0
11
14000
21
2000
31
0
0
LINE
8
A-DIMS
10
1500
20
1850
30
0
11
1500
21
2150
31
0
0
LINE
8
A-DIMS
10
14000
20
1850
30
0
11
14000
21
2150
31
0
0
LINE
8
A-DIMS
10
500
20
3000
30
0
11
500
21
20000
31
0
0
LINE
8
A-DIMS
10
350
20
3000
30
0
11
650
21
3000
31
0
0
LINE
8
A-DIMS
10
350
20
20000
30
0
11
650
21
20000
31
0
0
LINE
8
A-FLOOR-0-A-DIMS
10
1500
20
11760
30
0
11
4180
21
11760
31
0
0
LINE
8
A-FLOOR-0-A-DIMS
10
1350
20
11910
30
0
11
1350
21
20000
31
0
0
LINE
8
A-DIMS
10
1500
20
11760
30
0
11
4180
21
11760
31
0
0
LINE
8
A-DIMS
10
1350
20
11910
30
0
11
1350
21
20000
31
0
0
LINE
8
A-FLOOR-0-A-DIMS
10
4180
20
11760
30
0
11
9140
21
11760
31
0
0
LINE
8
A-FLOOR-0-A-DIMS
10
4030
20
11910
30
0
11
4030
21
20000
31
0
0
LINE
8
A-DIMS
10
4180
20
11760
30
0
11
9140
21
11760
31
0
0
LINE
8
A-DIMS
10
4030
20
11910
30
0
11
4030
21
20000
31
0
0
LINE
8
A-FLOOR-0-A-DIMS
10
9140
20
11760
30
0
11
14000
21
11760
31
0
0
LINE
8
A-FLOOR-0-A-DIMS
10
8990
20
11910
30
0
11
8990
21
20000
31
0
0
LINE
8
A-DIMS
10
9140
20
11760
30
0
11
14000
21
11760
31
0
0
LINE
8
A-DIMS
10
8990
20
11910
30
0
11
8990
21
20000
31
0
0
LINE
8
A-FLOOR-0-A-DIMS
10
11600
20
4330
30
0
11
14000
21
4330
31
0
0
LINE
8
A-FLOOR-0-A-DIMS
10
11450
20
4480
30
0
11
11450
21
10410
31
0
0
LINE
8
A-DIMS
10
11600
20
4330
30
0
11
14000
21
4330
31
0
0
LINE
8
A-DIMS
10
11450
20
4480
30
0
11
11450
21
10410
31
0
0
LINE
8
A-FLOOR-0-A-DIMS
10
3400
20
2850
30
0
11
8670
21
2850
31
0
0
LINE
8
A-FLOOR-0-A-DIMS
10
3250
20
3000
30
0
11
3250
21
10410
31
0
0
LINE
8
A-DIMS
10
3400
20
2850
30
0
11
8670
21
2850
31
0
0
LINE
8
A-DIMS
10
3250
20
3000
30
0
11
3250
21
10410
31
0
0
LINE
8
A-FLOOR-0-A-DIMS
10
8670
20
2850
30
0
11
11600
21
2850
31
0
0
LINE
8
A-FLOOR-0-A-DIMS
10
8520
20
3000
30
0
11
8520
21
10410
31
0
0
LINE
8
A-DIMS
10
8670
20
2850
30
0
11
11600
21
2850
31
0
0
LINE
8
A-DIMS
10
8520
20
3000
30
0
11
8520
21
10410
31
0
0
LINE
8
A-NORTH
10
12800
20
19700
30
0
11
12800
21
20500
31
0
0
LINE
8
A-NORTH
10
12800
20
20500
30
0
11
12650
21
20200
31
0
0
LINE
8
A-NORTH
10
12800
20
20500
30
0
11
12950
21
20200
31
0
0
LINE
8
A-NORTH
10
12960
20
19700
30
0
11
12954.55
21
19741.41
31
0
0
LINE
8
A-NORTH
10
12954.55
20
19741.41
30
0
11
12938.56
21
19780
31
0
0
LINE
8
A-NORTH
10
12938.56
20
19780
30
0
11
12913.14
21
19813.14
31
0
0
LINE
8
A-NORTH
10
12913.14
20
19813.14
30
0
11
12880
21
19838.56
31
0
0
LINE
8
A-NORTH
10
12880
20
19838.56
30
0
11
12841.41
21
19854.55
31
0
0
LINE
8
A-NORTH
10
12841.41
20
19854.55
30
0
11
12800
21
19860
31
0
0
LINE
8
A-NORTH
10
12800
20
19860
30
0
11
12758.59
21
19854.55
31
0
0
LINE
8
A-NORTH
10
12758.59
20
19854.55
30
0
11
12720
21
19838.56
31
0
0
LINE
8
A-NORTH
10
12720
20
19838.56
30
0
11
12686.86
21
19813.14
31
0
0
LINE
8
A-NORTH
10
12686.86
20
19813.14
30
0
11
12661.44
21
19780
31
0
0
LINE
8
A-NORTH
10
12661.44
20
19780
30
0
11
12645.45
21
19741.41
31
0
0
LINE
8
A-NORTH
10
12645.45
20
19741.41
30
0
11
12640
21
19700
31
0
0
LINE
8
A-NORTH
10
12640
20
19700
30
0
11
12645.45
21
19658.59
31
0
0
LINE
8
A-NORTH
10
12645.45
20
19658.59
30
0
11
12661.44
21
19620
31
0
0
LINE
8
A-NORTH
10
12661.44
20
19620
30
0
11
12686.86
21
19586.86
31
0
0
LINE
8
A-NORTH
10
12686.86
20
19586.86
30
0
11
12720
21
19561.44
31
0
0
LINE
8
A-NORTH
10
12720
20
19561.44
30
0
11
12758.59
21
19545.45
31
0
0
LINE
8
A-NORTH
10
12758.59
20
19545.45
30
0
11
12800
21
19540
31
0
0
LINE
8
A-NORTH
10
12800
20
19540
30
0
11
12841.41
21
19545.45
31
0
0
LINE
8
A-NORTH
10
12841.41
20
19545.45
30
0
11
12880
21
19561.44
31
0
0
LINE
8
A-NORTH
10
12880
20
19561.44
30
0
11
12913.14
21
19586.86
31
0
0
LINE
8
A-NORTH
10
12913.14
20
19586.86
30
0
11
12938.56
21
19620
31
0
0
LINE
8
A-NORTH
10
12938.56
20
19620
30
0
11
12954.55
21
19658.59
31
0
0
LINE
8
A-NORTH
10
12954.55
20
19658.59
30
0
11
12960
21
19700
31
0
0
LINE
8
A-TITLE
10
0
20
-1000
30
0
11
15500
21
-1000
31
0
0
LINE
8
A-TITLE
10
15500
20
-1000
30
0
11
15500
21
21500
31
0
0
LINE
8
A-TITLE
10
15500
20
21500
30
0
11
0
21
21500
31
0
0
LINE
8
A-TITLE
10
0
20
21500
30
0
11
0
21
-1000
31
0
0
LINE
8
A-TITLE
10
5500
20
-1000
30
0
11
15500
21
-1000
31
0
0
LINE
8
A-TITLE
10
5500
20
1000
30
0
11
15500
21
1000
31
0
0
LINE
8
A-TITLE
10
5500
20
-1000
30
0
11
5500
21
1000
31
0
0
LINE
8
A-TITLE
10
15500
20
-1000
30
0
11
15500
21
1000
31
0
0
ENDSEC
0
EOF
