0
SECTION
2
HEADER
9
$ACADVER
1
AC1009
0
ENDSEC
0
SECTION
2
TABLES
0
TABLE
2
LTYPE
70
1
0
LTYPE
2
CONTINUOUS
70
0
3
Solid line
72
65
73
0
40
0.0
0
ENDTAB
0
TABLE
2
LAYER
70
1
0
LAYER
2
0
70
0
62
7
6
CONTINUOUS
0
ENDTAB
0
TABLE
2
STYLE
70
1
0
STYLE
2
STANDARD
70
0
40
0.0
41
1.0
50
0.0
71
0
42
0.2
3
txt
4

0
ENDTAB
0
ENDSEC
0
SECTION
2
BLOCKS
0
BLOCK
2
*Model_Space
70
0
10
0.0
20
0.0
30
0.0
0
ENDBLK
0
ENDSEC
0
SECTION
2
ENTITIES
0
POLYLINE
8
A-BLDG-OUT
10
0
20
0
30
0
70
1
66
1
40
0
41
0
71
0
72
0
0
VERTEX
8
A-BLDG-OUT
10
1500
20
3000
30
0
42
0
0
VERTEX
8
A-BLDG-OUT
10
14000
20
3000
30
0
42
0
0
VERTEX
8
A-BLDG-OUT
10
14000
20
20000
30
0
42
0
0
VERTEX
8
A-BLDG-OUT
10
1500
20
20000
30
0
42
0
0
SEQEND
8
A-BLDG-OUT
0
POLYLINE
8
A-SETBACK
10
0
20
0
30
0
70
1
66
1
40
0
41
0
71
0
72
0
0
VERTEX
8
A-SETBACK
10
1500
20
3000
30
0
42
0
0
VERTEX
8
A-SETBACK
10
14000
20
3000
30
0
42
0
0
VERTEX
8
A-SETBACK
10
14000
20
20000
30
0
42
0
0
VERTEX
8
A-SETBACK
10
1500
20
20000
30
0
42
0
0
SEQEND
8
A-SETBACK
0
POLYLINE
8
A-FLOOR-0-A-BLDG-OUT
10
0
20
0
30
0
70
1
66
1
40
0
41
0
71
0
72
0
0
VERTEX
8
A-FLOOR-0-A-BLDG-OUT
10
1500
20
3000
30
0
42
0
0
VERTEX
8
A-FLOOR-0-A-BLDG-OUT
10
14000
20
3000
30
0
42
0
0
VERTEX
8
A-FLOOR-0-A-BLDG-OUT
10
14000
20
20000
30
0
42
0
0
VERTEX
8
A-FLOOR-0-A-BLDG-OUT
10
1500
20
20000
30
0
42
0
0
SEQEND
8
A-FLOOR-0-A-BLDG-OUT
0
POLYLINE
8
A-FLOOR-0-A-SETBACK
10
0
20
0
30
0
70
1
66
1
40
0
41
0
71
0
72
0
0
VERTEX
8
A-FLOOR-0-A-SETBACK
10
1500
20
3000
30
0
42
0
0
VERTEX
8
A-FLOOR-0-A-SETBACK
10
14000
20
3000
30
0
42
0
0
VERTEX
8
A-FLOOR-0-A-SETBACK
10
14000
20
20000
30
0
42
0
0
VERTEX
8
A-FLOOR-0-A-SETBACK
10
1500
20
20000
30
0
42
0
0
SEQEND
8
A-FLOOR-0-A-SETBACK
0
POLYLINE
8
A-SITE
10
0
20
0
30
0
70
1
66
1
40
0
41
0
71
0
72
0
0
VERTEX
8
A-SITE
10
0
20
0
30
0
42
0
0
VERTEX
8
A-SITE
10
15500
20
0
30
0
42
0
0
VERTEX
8
A-SITE
10
15500
20
22000
30
0
42
0
0
VERTEX
8
A-SITE
10
0
20
22000
30
0
42
0
0
SEQEND
8
A-SITE
0
POLYLINE
8
A-FLOOR-0-A-SITE
10
0
20
0
30
0
70
1
66
1
40
0
41
0
71
0
72
0
0
VERTEX
8
A-FLOOR-0-A-SITE
10
0
20
0
30
0
42
0
0
VERTEX
8
A-FLOOR-0-A-SITE
10
15500
20
0
30
0
42
0
0
VERTEX
8
A-FLOOR-0-A-SITE
10
15500
20
22000
30
0
42
0
0
VERTEX
8
A-FLOOR-0-A-SITE
10
0
20
22000
30
0
42
0
0
SEQEND
8
A-FLOOR-0-A-SITE
0
POLYLINE
8
A-FLOOR-0-A-PARKING
10
0
20
0
30
0
70
1
66
1
40
0
41
0
71
0
72
0
0
VERTEX
8
A-FLOOR-0-A-PARKING
10
0
20
2200
30
0
42
0
0
VERTEX
8
A-FLOOR-0-A-PARKING
10
15500
20
2200
30
0
42
0
0
VERTEX
8
A-FLOOR-0-A-PARKING
10
15500
20
5700
30
0
42
0
0
VERTEX
8
A-FLOOR-0-A-PARKING
10
0
20
5700
30
0
42
0
0
SEQEND
8
A-FLOOR-0-A-PARKING
0
POLYLINE
8
A-PARKING
10
0
20
0
30
0
70
1
66
1
40
0
41
0
71
0
72
0
0
VERTEX
8
A-PARKING
10
0
20
2200
30
0
42
0
0
VERTEX
8
A-PARKING
10
15500
20
2200
30
0
42
0
0
VERTEX
8
A-PARKING
10
15500
20
5700
30
0
42
0
0
VERTEX
8
A-PARKING
10
0
20
5700
30
0
42
0
0
SEQEND
8
A-PARKING
0
POLYLINE
8
A-FLOOR-0-A-ROOM
10
0
20
0
30
0
70
1
66
1
40
0
41
0
71
0
72
0
0
VERTEX
8
A-FLOOR-0-A-ROOM
10
1500
20
3000
30
0
42
0
0
VERTEX
8
A-FLOOR-0-A-ROOM
10
3400
20
3000
30
0
42
0
0
VERTEX
8
A-FLOOR-0-A-ROOM
10
3400
20
4800
30
0
42
0
0
VERTEX
8
A-FLOOR-0-A-ROOM
10
1500
20
4800
30
0
42
0
0
SEQEND
8
A-FLOOR-0-A-ROOM
0
POLYLINE
8
A-ROOM
10
0
20
0
30
0
70
1
66
1
40
0
41
0
71
0
72
0
0
VERTEX
8
A-ROOM
10
1500
20
3000
30
0
42
0
0
VERTEX
8
A-ROOM
10
3400
20
3000
30
0
42
0
0
VERTEX
8
A-ROOM
10
3400
20
4800
30
0
42
0
0
VERTEX
8
A-ROOM
10
1500
20
4800
30
0
42
0
0
SEQEND
8
A-ROOM
0
POLYLINE
8
A-FLOOR-0-A-ROOM
10
0
20
0
30
0
70
1
66
1
40
0
41
0
71
0
72
0
0
VERTEX
8
A-FLOOR-0-A-ROOM
10
1500
20
4800
30
0
42
0
0
VERTEX
8
A-FLOOR-0-A-ROOM
10
3400
20
4800
30
0
42
0
0
VERTEX
8
A-FLOOR-0-A-ROOM
10
3400
20
10410
30
0
42
0
0
VERTEX
8
A-FLOOR-0-A-ROOM
10
1500
20
10410
30
0
42
0
0
SEQEND
8
A-FLOOR-0-A-ROOM
0
POLYLINE
8
A-ROOM
10
0
20
0
30
0
70
1
66
1
40
0
41
0
71
0
72
0
0
VERTEX
8
A-ROOM
10
1500
20
4800
30
0
42
0
0
VERTEX
8
A-ROOM
10
3400
20
4800
30
0
42
0
0
VERTEX
8
A-ROOM
10
3400
20
10410
30
0
42
0
0
VERTEX
8
A-ROOM
10
1500
20
10410
30
0
42
0
0
SEQEND
8
A-ROOM
0
POLYLINE
8
A-FLOOR-0-A-ROOM
10
0
20
0
30
0
70
1
66
1
40
0
41
0
71
0
72
0
0
VERTEX
8
A-FLOOR-0-A-ROOM
10
1500
20
11910
30
0
42
0
0
VERTEX
8
A-FLOOR-0-A-ROOM
10
4180
20
11910
30
0
42
0
0
VERTEX
8
A-FLOOR-0-A-ROOM
10
4180
20
20000
30
0
42
0
0
VERTEX
8
A-FLOOR-0-A-ROOM
10
1500
20
20000
30
0
42
0
0
SEQEND
8
A-FLOOR-0-A-ROOM
0
POLYLINE
8
A-ROOM
10
0
20
0
30
0
70
1
66
1
40
0
41
0
71
0
72
0
0
VERTEX
8
A-ROOM
10
1500
20
11910
30
0
42
0
0
VERTEX
8
A-ROOM
10
4180
20
11910
30
0
42
0
0
VERTEX
8
A-ROOM
10
4180
20
20000
30
0
42
0
0
VERTEX
8
A-ROOM
10
1500
20
20000
30
0
42
0
0
SEQEND
8
A-ROOM
0
POLYLINE
8
A-FLOOR-0-A-ROOM
10
0
20
0
30
0
70
1
66
1
40
0
41
0
71
0
72
0
0
VERTEX
8
A-FLOOR-0-A-ROOM
10
4180
20
11910
30
0
42
0
0
VERTEX
8
A-FLOOR-0-A-ROOM
10
9140
20
11910
30
0
42
0
0
VERTEX
8
A-FLOOR-0-A-ROOM
10
9140
20
20000
30
0
42
0
0
VERTEX
8
A-FLOOR-0-A-ROOM
10
4180
20
20000
30
0
42
0
0
SEQEND
8
A-FLOOR-0-A-ROOM
0
POLYLINE
8
A-ROOM
10
0
20
0
30
0
70
1
66
1
40
0
41
0
71
0
72
0
0
VERTEX
8
A-ROOM
10
4180
20
11910
30
0
42
0
0
VERTEX
8
A-ROOM
10
9140
20
11910
30
0
42
0
0
VERTEX
8
A-ROOM
10
9140
20
20000
30
0
42
0
0
VERTEX
8
A-ROOM
10
4180
20
20000
30
0
42
0
0
SEQEND
8
A-ROOM
0
POLYLINE
8
A-FLOOR-0-A-ROOM
10
0
20
0
30
0
70
1
66
1
40
0
41
0
71
0
72
0
0
VERTEX
8
A-FLOOR-0-A-ROOM
10
9140
20
11910
30
0
42
0
0
VERTEX
8
A-FLOOR-0-A-ROOM
10
14000
20
11910
30
0
42
0
0
VERTEX
8
A-FLOOR-0-A-ROOM
10
14000
20
20000
30
0
42
0
0
VERTEX
8
A-FLOOR-0-A-ROOM
10
9140
20
20000
30
0
42
0
0
SEQEND
8
A-FLOOR-0-A-ROOM
0
POLYLINE
8
A-ROOM
10
0
20
0
30
0
70
1
66
1
40
0
41
0
71
0
72
0
0
VERTEX
8
A-ROOM
10
9140
20
11910
30
0
42
0
0
VERTEX
8
A-ROOM
10
14000
20
11910
30
0
42
0
0
VERTEX
8
A-ROOM
10
14000
20
20000
30
0
42
0
0
VERTEX
8
A-ROOM
10
9140
20
20000
30
0
42
0
0
SEQEND
8
A-ROOM
0
POLYLINE
8
A-FLOOR-0-A-ROOM
10
0
20
0
30
0
70
1
66
1
40
0
41
0
71
0
72
0
0
VERTEX
8
A-FLOOR-0-A-ROOM
10
11600
20
4480
30
0
42
0
0
VERTEX
8
A-FLOOR-0-A-ROOM
10
14000
20
4480
30
0
42
0
0
VERTEX
8
A-FLOOR-0-A-ROOM
10
14000
20
10410
30
0
42
0
0
VERTEX
8
A-FLOOR-0-A-ROOM
10
11600
20
10410
30
0
42
0
0
SEQEND
8
A-FLOOR-0-A-ROOM
0
POLYLINE
8
A-ROOM
10
0
20
0
30
0
70
1
66
1
40
0
41
0
71
0
72
0
0
VERTEX
8
A-ROOM
10
11600
20
4480
30
0
42
0
0
VERTEX
8
A-ROOM
10
14000
20
4480
30
0
42
0
0
VERTEX
8
A-ROOM
10
14000
20
10410
30
0
42
0
0
VERTEX
8
A-ROOM
10
11600
20
10410
30
0
42
0
0
SEQEND
8
A-ROOM
0
POLYLINE
8
A-FLOOR-0-A-ROOM
10
0
20
0
30
0
70
1
66
1
40
0
41
0
71
0
72
0
0
VERTEX
8
A-FLOOR-0-A-ROOM
10
11600
20
3000
30
0
42
0
0
VERTEX
8
A-FLOOR-0-A-ROOM
10
14000
20
3000
30
0
42
0
0
VERTEX
8
A-FLOOR-0-A-ROOM
10
14000
20
4480
30
0
42
0
0
VERTEX
8
A-FLOOR-0-A-ROOM
10
11600
20
4480
30
0
42
0
0
SEQEND
8
A-FLOOR-0-A-ROOM
0
POLYLINE
8
A-ROOM
10
0
20
0
30
0
70
1
66
1
40
0
41
0
71
0
72
0
0
VERTEX
8
A-ROOM
10
11600
20
3000
30
0
42
0
0
VERTEX
8
A-ROOM
10
14000
20
3000
30
0
42
0
0
VERTEX
8
A-ROOM
10
14000
20
4480
30
0
42
0
0
VERTEX
8
A-ROOM
10
11600
20
4480
30
0
42
0
0
SEQEND
8
A-ROOM
0
POLYLINE
8
A-FLOOR-0-A-ROOM
10
0
20
0
30
0
70
1
66
1
40
0
41
0
71
0
72
0
0
VERTEX
8
A-FLOOR-0-A-ROOM
10
3400
20
3000
30
0
42
0
0
VERTEX
8
A-FLOOR-0-A-ROOM
10
8670
20
3000
30
0
42
0
0
VERTEX
8
A-FLOOR-0-A-ROOM
10
8670
20
10410
30
0
42
0
0
VERTEX
8
A-FLOOR-0-A-ROOM
10
3400
20
10410
30
0
42
0
0
SEQEND
8
A-FLOOR-0-A-ROOM
0
POLYLINE
8
A-ROOM
10
0
20
0
30
0
70
1
66
1
40
0
41
0
71
0
72
0
0
VERTEX
8
A-ROOM
10
3400
20
3000
30
0
42
0
0
VERTEX
8
A-ROOM
10
8670
20
3000
30
0
42
0
0
VERTEX
8
A-ROOM
10
8670
20
10410
30
0
42
0
0
VERTEX
8
A-ROOM
10
3400
20
10410
30
0
42
0
0
SEQEND
8
A-ROOM
0
POLYLINE
8
A-FLOOR-0-A-ROOM
10
0
20
0
30
0
70
1
66
1
40
0
41
0
71
0
72
0
0
VERTEX
8
A-FLOOR-0-A-ROOM
10
8670
20
3000
30
0
42
0
0
VERTEX
8
A-FLOOR-0-A-ROOM
10
11600
20
3000
30
0
42
0
0
VERTEX
8
A-FLOOR-0-A-ROOM
10
11600
20
10410
30
0
42
0
0
VERTEX
8
A-FLOOR-0-A-ROOM
10
8670
20
10410
30
0
42
0
0
SEQEND
8
A-FLOOR-0-A-ROOM
0
POLYLINE
8
A-ROOM
10
0
20
0
30
0
70
1
66
1
40
0
41
0
71
0
72
0
0
VERTEX
8
A-ROOM
10
8670
20
3000
30
0
42
0
0
VERTEX
8
A-ROOM
10
11600
20
3000
30
0
42
0
0
VERTEX
8
A-ROOM
10
11600
20
10410
30
0
42
0
0
VERTEX
8
A-ROOM
10
8670
20
10410
30
0
42
0
0
SEQEND
8
A-ROOM
0
POLYLINE
8
A-FLOOR-0-A-ROOM
10
0
20
0
30
0
70
1
66
1
40
0
41
0
71
0
72
0
0
VERTEX
8
A-FLOOR-0-A-ROOM
10
1500
20
10410
30
0
42
0
0
VERTEX
8
A-FLOOR-0-A-ROOM
10
14000
20
10410
30
0
42
0
0
VERTEX
8
A-FLOOR-0-A-ROOM
10
14000
20
11910
30
0
42
0
0
VERTEX
8
A-FLOOR-0-A-ROOM
10
1500
20
11910
30
0
42
0
0
SEQEND
8
A-FLOOR-0-A-ROOM
0
POLYLINE
8
A-ROOM
10
0
20
0
30
0
70
1
66
1
40
0
41
0
71
0
72
0
0
VERTEX
8
A-ROOM
10
1500
20
10410
30
0
42
0
0
VERTEX
8
A-ROOM
10
14000
20
10410
30
0
42
0
0
VERTEX
8
A-ROOM
10
14000
20
11910
30
0
42
0
0
VERTEX
8
A-ROOM
10
1500
20
11910
30
0
42
0
0
SEQEND
8
A-ROOM
0
ENDSEC
0
EOF
