0
SECTION
2
HEADER
9
$ACADVER
1
AC1009
0
ENDSEC
0
SECTION
2
TABLES
0
TABLE
2
LTYPE
70
1
0
LTYPE
2
CONTINUOUS
70
0
3
Solid line
72
65
73
0
40
0.0
0
ENDTAB
0
TABLE
2
LAYER
70
1
0
LAYER
2
0
70
0
62
7
6
CONTINUOUS
0
ENDTAB
0
TABLE
2
STYLE
70
1
0
STYLE
2
STANDARD
70
0
40
0.0
41
1.0
50
0.0
71
0
42
0.2
3
txt
4

0
ENDTAB
0
ENDSEC
0
SECTION
2
BLOCKS
0
BLOCK
2
*Model_Space
70
0
10
0.0
20
0.0
30
0.0
0
ENDBLK
0
ENDSEC
0
SECTION
2
ENTITIES
0
ARC
8
A-FLOOR-0-A-DOOR
10
1950
20
3000
30
0
40
1000
50
0
51
90
0
ARC
8
A-DOOR
10
1950
20
3000
30
0
40
1000
50
0
51
90
0
ARC
8
A-FLOOR-0-A-DOOR
10
3240
20
11910
30
0
40
800
50
90
51
180
0
ARC
8
A-DOOR
10
3240
20
11910
30
0
40
800
50
90
51
180
0
ARC
8
A-FLOOR-0-A-DOOR
10
2900
20
10410
30
0
40
900
50
180
51
270
0
ARC
8
A-DOOR
10
2900
20
10410
30
0
40
900
50
180
51
270
0
ARC
8
A-FLOOR-0-A-DOOR
10
5585
20
10410
30
0
40
900
50
270
51
0
0
ARC
8
A-DOOR
10
5585
20
10410
30
0
40
900
50
270
51
0
0
ARC
8
A-FLOOR-0-A-DOOR
10
10585
20
10410
30
0
40
900
50
180
51
270
0
ARC
8
A-DOOR
10
10585
20
10410
30
0
40
900
50
180
51
270
0
ARC
8
A-FLOOR-0-A-DOOR
10
12350
20
10410
30
0
40
900
50
270
51
0
0
ARC
8
A-DOOR
10
12350
20
10410
30
0
40
900
50
270
51
0
0
ARC
8
A-FLOOR-0-A-DOOR
10
6210
20
11910
30
0
40
900
50
0
51
90
0
ARC
8
A-DOOR
10
6210
20
11910
30
0
40
900
50
0
51
90
0
ARC
8
A-FLOOR-0-A-DOOR
10
12020
20
11910
30
0
40
900
50
90
51
180
0
ARC
8
A-DOOR
10
12020
20
11910
30
0
40
900
50
90
51
180
0
ARC
8
A-FLOOR-0-A-DOOR
10
3400
20
3450
30
0
40
900
50
0
51
90
0
ARC
8
A-DOOR
10
3400
20
3450
30
0
40
900
50
0
51
90
0
ARC
8
A-FLOOR-0-A-DOOR
10
3400
20
8055
30
0
40
900
50
270
51
0
0
ARC
8
A-DOOR
10
3400
20
8055
30
0
40
900
50
270
51
0
0
ARC
8
A-FLOOR-0-A-DOOR
10
2000
20
4800
30
0
40
900
50
270
51
0
0
ARC
8
A-DOOR
10
2000
20
4800
30
0
40
900
50
270
51
0
0
ARC
8
A-FLOOR-0-A-DOOR
10
4180
20
15555
30
0
40
800
50
90
51
180
0
ARC
8
A-DOOR
10
4180
20
15555
30
0
40
800
50
90
51
180
0
ARC
8
A-FLOOR-0-A-DOOR
10
9140
20
15505
30
0
40
900
50
90
51
180
0
ARC
8
A-DOOR
10
9140
20
15505
30
0
40
900
50
90
51
180
0
ARC
8
A-FLOOR-0-A-DOOR
10
13200
20
4480
30
0
40
800
50
180
51
270
0
ARC
8
A-DOOR
10
13200
20
4480
30
0
40
800
50
180
51
270
0
ARC
8
A-FLOOR-0-A-DOOR
10
11600
20
7895
30
0
40
900
50
270
51
0
0
ARC
8
A-DOOR
10
11600
20
7895
30
0
40
900
50
270
51
0
0
ENDSEC
0
EOF
