0
SECTION
2
HEADER
9
$ACADVER
1
AC1009
0
ENDSEC
0
SECTION
2
TABLES
0
TABLE
2
LTYPE
70
1
0
LTYPE
2
CONTINUOUS
70
0
3
Solid line
72
65
73
0
40
0.0
0
ENDTAB
0
TABLE
2
LAYER
70
1
0
LAYER
2
0
70
0
62
7
6
CONTINUOUS
0
ENDTAB
0
TABLE
2
STYLE
70
1
0
STYLE
2
STANDARD
70
0
40
0.0
41
1.0
50
0.0
71
0
42
0.2
3
txt
4

0
ENDTAB
0
ENDSEC
0
SECTION
2
BLOCKS
0
BLOCK
2
*Model_Space
70
0
10
0.0
20
0.0
30
0.0
0
ENDBLK
0
ENDSEC
0
SECTION
2
ENTITIES
0
TEXT
8
A-SITE
10
0
20
-800
30
0
40
300
1
SITE rectangle 15.5x22.0m
50
0
72
0
11
0
21
-800
31
0
0
TEXT
8
A-SETBACK
10
0
20
-1200
30
0
40
200
1
Setbacks N=2 S=3 E=1.5 W=1.5
50
0
72
0
11
0
21
-1200
31
0
0
TEXT
8
A-FLOOR-0-A-ROOM
10
1500
20
20500
30
0
40
350
1
FLOOR 0 - Level 0 - 0.00m elev
50
0
72
0
11
1500
21
20500
31
0
0
TEXT
8
A-ROOM
10
1500
20
20500
30
0
40
350
1
FLOOR 0 - Level 0
50
0
72
0
11
1500
21
20500
31
0
0
TEXT
8
A-FLOOR-0-A-PARKING
10
3000
20
900
30
0
40
250
1
P1 F0
50
0
72
1
11
3000
21
900
31
0
0
TEXT
8
A-PARKING
10
3000
20
900
30
0
40
250
1
P1
50
0
72
1
11
3000
21
900
31
0
0
TEXT
8
A-FLOOR-0-A-PARKING
10
7750
20
3950
30
0
40
250
1
AISLE
50
0
72
1
11
7750
21
3950
31
0
0
TEXT
8
A-PARKING
10
7750
20
3950
30
0
40
250
1
AISLE
50
0
72
1
11
7750
21
3950
31
0
0
TEXT
8
A-FLOOR-0-A-ROOM
10
2450
20
3990
30
0
40
180
1
Entrance [F0]
50
0
72
1
11
2450
21
3990
31
0
0
TEXT
8
A-FLOOR-0-A-ROOM
10
2450
20
3774
30
0
40
126
1
3.4 m2
50
0
72
1
11
2450
21
3774
31
0
0
TEXT
8
A-ROOM
10
2450
20
3990
30
0
40
180
1
Entrance
50
0
72
1
11
2450
21
3990
31
0
0
TEXT
8
A-ROOM
10
2450
20
3774
30
0
40
126
1
3.4 m2
50
0
72
1
11
2450
21
3774
31
0
0
TEXT
8
A-FLOOR-0-A-ROOM
10
2450
20
7695
30
0
40
180
1
Foyer [F0]
50
0
72
1
11
2450
21
7695
31
0
0
TEXT
8
A-FLOOR-0-A-ROOM
10
2450
20
7479
30
0
40
126
1
10.7 m2
50
0
72
1
11
2450
21
7479
31
0
0
TEXT
8
A-ROOM
10
2450
20
7695
30
0
40
180
1
Foyer
50
0
72
1
11
2450
21
7695
31
0
0
TEXT
8
A-ROOM
10
2450
20
7479
30
0
40
126
1
10.7 m2
50
0
72
1
11
2450
21
7479
31
0
0
TEXT
8
A-FLOOR-0-A-ROOM
10
2840
20
16062.2
30
0
40
214.4
1
Master Bathroom [F0]
50
0
72
1
11
2840
21
16062.2
31
0
0
TEXT
8
A-FLOOR-0-A-ROOM
10
2840
20
15804.92
30
0
40
150.08
1
21.7 m2
50
0
72
1
11
2840
21
15804.92
31
0
0
TEXT
8
A-ROOM
10
2840
20
16062.2
30
0
40
214.4
1
Master Bathroom
50
0
72
1
11
2840
21
16062.2
31
0
0
TEXT
8
A-ROOM
10
2840
20
15804.92
30
0
40
150.08
1
21.7 m2
50
0
72
1
11
2840
21
15804.92
31
0
0
TEXT
8
A-FLOOR-0-A-ROOM
10
6660
20
16130
30
0
40
350
1
Master Bedroom [F0]
50
0
72
1
11
6660
21
16130
31
0
0
TEXT
8
A-FLOOR-0-A-ROOM
10
6660
20
15710
30
0
40
245
1
40.1 m2
50
0
72
1
11
6660
21
15710
31
0
0
TEXT
8
A-ROOM
10
6660
20
16130
30
0
40
350
1
Master Bedroom
50
0
72
1
11
6660
21
16130
31
0
0
TEXT
8
A-ROOM
10
6660
20
15710
30
0
40
245
1
40.1 m2
50
0
72
1
11
6660
21
15710
31
0
0
TEXT
8
A-FLOOR-0-A-ROOM
10
11570
20
16130
30
0
40
350
1
Bedroom 1 [F0]
50
0
72
1
11
11570
21
16130
31
0
0
TEXT
8
A-FLOOR-0-A-ROOM
10
11570
20
15710
30
0
40
245
1
39.3 m2
50
0
72
1
11
11570
21
15710
31
0
0
TEXT
8
A-ROOM
10
11570
20
16130
30
0
40
350
1
Bedroom 1
50
0
72
1
11
11570
21
16130
31
0
0
TEXT
8
A-ROOM
10
11570
20
15710
30
0
40
245
1
39.3 m2
50
0
72
1
11
11570
21
15710
31
0
0
TEXT
8
A-FLOOR-0-A-ROOM
10
12800
20
7541
30
0
40
192
1
Kitchen [F0]
50
0
72
1
11
12800
21
7541
31
0
0
TEXT
8
A-FLOOR-0-A-ROOM
10
12800
20
7310.6
30
0
40
134.4
1
14.2 m2
50
0
72
1
11
12800
21
7310.6
31
0
0
TEXT
8
A-ROOM
10
12800
20
7541
30
0
40
192
1
Kitchen
50
0
72
1
11
12800
21
7541
31
0
0
TEXT
8
A-ROOM
10
12800
20
7310.6
30
0
40
134.4
1
14.2 m2
50
0
72
1
11
12800
21
7310.6
31
0
0
TEXT
8
A-FLOOR-0-A-ROOM
10
12800
20
3830
30
0
40
180
1
Storage [F0]
50
0
72
1
11
12800
21
3830
31
0
0
TEXT
8
A-FLOOR-0-A-ROOM
10
12800
20
3614
30
0
40
126
1
3.6 m2
50
0
72
1
11
12800
21
3614
31
0
0
TEXT
8
A-ROOM
10
12800
20
3830
30
0
40
180
1
Storage
50
0
72
1
11
12800
21
3830
31
0
0
TEXT
8
A-ROOM
10
12800
20
3614
30
0
40
126
1
3.6 m2
50
0
72
1
11
12800
21
3614
31
0
0
TEXT
8
A-FLOOR-0-A-ROOM
10
6035
20
6880
30
0
40
350
1
Living Room [F0]
50
0
72
1
11
6035
21
6880
31
0
0
TEXT
8
A-FLOOR-0-A-ROOM
10
6035
20
6460
30
0
40
245
1
39.1 m2
50
0
72
1
11
6035
21
6460
31
0
0
TEXT
8
A-ROOM
10
6035
20
6880
30
0
40
350
1
Living Room
50
0
72
1
11
6035
21
6880
31
0
0
TEXT
8
A-ROOM
10
6035
20
6460
30
0
40
245
1
39.1 m2
50
0
72
1
11
6035
21
6460
31
0
0
TEXT
8
A-FLOOR-0-A-ROOM
10
10135
20
6822.2
30
0
40
234.4
1
Dining [F0]
50
0
72
1
11
10135
21
6822.2
31
0
0
TEXT
8
A-FLOOR-0-A-ROOM
10
10135
20
6540.92
30
0
40
164.08
1
21.7 m2
50
0
72
1
11
10135
21
6540.92
31
0
0
TEXT
8
A-ROOM
10
10135
20
6822.2
30
0
40
234.4
1
Dining
50
0
72
1
11
10135
21
6822.2
31
0
0
TEXT
8
A-ROOM
10
10135
20
6540.92
30
0
40
164.08
1
21.7 m2
50
0
72
1
11
10135
21
6540.92
31
0
0
TEXT
8
A-FLOOR-0-A-ROOM
10
7750
20
11250
30
0
40
180
1
Corridor [F0]
50
0
72
1
11
7750
21
11250
31
0
0
TEXT
8
A-FLOOR-0-A-ROOM
10
7750
20
11034
30
0
40
126
1
18.8 m2
50
0
72
1
11
7750
21
11034
31
0
0
TEXT
8
A-ROOM
10
7750
20
11250
30
0
40
180
1
Corridor
50
0
72
1
11
7750
21
11250
31
0
0
TEXT
8
A-ROOM
10
7750
20
11034
30
0
40
126
1
18.8 m2
50
0
72
1
11
7750
21
11034
31
0
0
TEXT
8
A-AXIS-TEXT
10
800
20
20300
30
0
40
250
1
A
50
0
72
1
11
800
21
20300
31
0
0
TEXT
8
A-AXIS-TEXT
10
7750
20
20300
30
0
40
250
1
B
50
0
72
1
11
7750
21
20300
31
0
0
TEXT
8
A-AXIS-TEXT
10
14300
20
20300
30
0
40
250
1
C
50
0
72
0
11
14300
21
20300
31
0
0
TEXT
8
A-AXIS-TEXT
10
800
20
2300
30
0
40
250
1
1
50
0
72
2
11
800
21
2300
31
0
0
TEXT
8
A-AXIS-TEXT
10
800
20
11500
30
0
40
250
1
2
50
0
72
2
11
800
21
11500
31
0
0
TEXT
8
A-FLOOR-0-A-DIMS
10
7750
20
1700
30
0
40
220
1
12.50 m F0
50
0
72
1
11
7750
21
1700
31
0
0
TEXT
8
A-FLOOR-0-A-DIMS
10
200
20
11500
30
0
40
220
1
17.00 m
50
0
72
1
11
200
21
11500
31
0
0
TEXT
8
A-DIMS
10
7750
20
1700
30
0
40
220
1
12.50 m
50
0
72
1
11
7750
21
1700
31
0
0
TEXT
8
A-DIMS
10
200
20
11500
30
0
40
220
1
17.00 m
50
0
72
1
11
200
21
11500
31
0
0
TEXT
8
A-FLOOR-0-A-DIMS
10
2840
20
11610
30
0
40
120
1
2.68
50
0
72
1
11
2840
21
11610
31
0
0
TEXT
8
A-FLOOR-0-A-DIMS
10
1150
20
15955
30
0
40
120
1
8.09
50
0
72
2
11
1150
21
15955
31
0
0
TEXT
8
A-DIMS
10
2840
20
11610
30
0
40
120
1
2.68
50
0
72
1
11
2840
21
11610
31
0
0
TEXT
8
A-DIMS
10
1150
20
15955
30
0
40
120
1
8.09
50
0
72
2
11
1150
21
15955
31
0
0
TEXT
8
A-FLOOR-0-A-DIMS
10
6660
20
11610
30
0
40
120
1
4.96
50
0
72
1
11
6660
21
11610
31
0
0
TEXT
8
A-FLOOR-0-A-DIMS
10
3830
20
15955
30
0
40
120
1
8.09
50
0
72
2
11
3830
21
15955
31
0
0
TEXT
8
A-DIMS
10
6660
20
11610
30
0
40
120
1
4.96
50
0
72
1
11
6660
21
11610
31
0
0
TEXT
8
A-DIMS
10
3830
20
15955
30
0
40
120
1
8.09
50
0
72
2
11
3830
21
15955
31
0
0
TEXT
8
A-FLOOR-0-A-DIMS
10
11570
20
11610
30
0
40
120
1
4.86
50
0
72
1
11
11570
21
11610
31
0
0
TEXT
8
A-FLOOR-0-A-DIMS
10
8790
20
15955
30
0
40
120
1
8.09
50
0
72
2
11
8790
21
15955
31
0
0
TEXT
8
A-DIMS
10
11570
20
11610
30
0
40
120
1
4.86
50
0
72
1
11
11570
21
11610
31
0
0
TEXT
8
A-DIMS
10
8790
20
15955
30
0
40
120
1
8.09
50
0
72
2
11
8790
21
15955
31
0
0
TEXT
8
A-FLOOR-0-A-DIMS
10
12800
20
4180
30
0
40
120
1
2.40
50
0
72
1
11
12800
21
4180
31
0
0
TEXT
8
A-FLOOR-0-A-DIMS
10
11250
20
7445
30
0
40
120
1
5.93
50
0
72
2
11
11250
21
7445
31
0
0
TEXT
8
A-DIMS
10
12800
20
4180
30
0
40
120
1
2.40
50
0
72
1
11
12800
21
4180
31
0
0
TEXT
8
A-DIMS
10
11250
20
7445
30
0
40
120
1
5.93
50
0
72
2
11
11250
21
7445
31
0
0
TEXT
8
A-FLOOR-0-A-DIMS
10
6035
20
2700
30
0
40
120
1
5.27
50
0
72
1
11
6035
21
2700
31
0
0
TEXT
8
A-FLOOR-0-A-DIMS
10
3050
20
6705
30
0
40
120
1
7.41
50
0
72
2
11
3050
21
6705
31
0
0
TEXT
8
A-DIMS
10
6035
20
2700
30
0
40
120
1
5.27
50
0
72
1
11
6035
21
2700
31
0
0
TEXT
8
A-DIMS
10
3050
20
6705
30
0
40
120
1
7.41
50
0
72
2
11
3050
21
6705
31
0
0
TEXT
8
A-FLOOR-0-A-DIMS
10
10135
20
2700
30
0
40
120
1
2.93
50
0
72
1
11
10135
21
2700
31
0
0
TEXT
8
A-FLOOR-0-A-DIMS
10
8320
20
6705
30
0
40
120
1
7.41
50
0
72
2
11
8320
21
6705
31
0
0
TEXT
8
A-DIMS
10
10135
20
2700
30
0
40
120
1
2.93
50
0
72
1
11
10135
21
2700
31
0
0
TEXT
8
A-DIMS
10
8320
20
6705
30
0
40
120
1
7.41
50
0
72
2
11
8320
21
6705
31
0
0
TEXT
8
A-NORTH
10
12800
20
20700
30
0
40
250
1
N
50
0
72
1
11
12800
21
20700
31
0
0
TEXT
8
A-TITLE
10
5800
20
500
30
0
40
400
1
vylay nmvnh
50
0
72
0
11
5800
21
500
31
0
0
TEXT
8
A-TITLE
10
5800
20
0
30
0
40
220
1
ArchGenius - AI Architectural Planning & Professional AutoCAD System
50
0
72
0
11
5800
21
0
31
0
0
TEXT
8
A-TITLE
10
5800
20
-700
30
0
40
200
1
Strategy: functional-circulation | Floors: 1 | Scale: 1:100
50
0
72
0
11
5800
21
-700
31
0
0
ENDSEC
0
EOF
