0
SECTION
2
HEADER
9
$ACADVER
1
AC1009
0
ENDSEC
0
SECTION
2
TABLES
0
TABLE
2
LTYPE
70
1
0
LTYPE
2
CONTINUOUS
70
0
3
Solid line
72
65
73
0
40
0.0
0
ENDTAB
0
TABLE
2
LAYER
70
1
0
LAYER
2
0
70
0
62
7
6
CONTINUOUS
0
ENDTAB
0
TABLE
2
STYLE
70
1
0
STYLE
2
STANDARD
70
0
40
0
41
1
50
0
71
0
42
0.2
3
txt
4

0
ENDTAB
0
ENDSEC
0
SECTION
2
BLOCKS
0
BLOCK
2
*Model_Space
70
0
10
0.0
20
0.0
30
0.0
0
ENDBLK
0
ENDSEC
0
SECTION
2
ENTITIES
0
LINE
8
0
10
0
20
0
30
0
11
10000
21
0
31
0
0
LINE
8
0
10
10000
20
0
30
0
11
10000
21
10000
31
0
0
LINE
8
0
10
10000
20
10000
30
0
11
0
21
10000
31
0
0
LINE
8
0
10
0
20
10000
30
0
11
0
21
0
31
0
0
POLYLINE
8
0
10
0
20
0
30
0
70
1
66
1
40
0
41
0
71
0
72
0
0
VERTEX
8
0
10
2000
20
2000
30
0
42
0
0
VERTEX
8
0
10
8000
20
2000
30
0
42
0
0
VERTEX
8
0
10
8000
20
8000
30
0
42
0
0
VERTEX
8
0
10
2000
20
8000
30
0
42
0
0
SEQEND
8
0
0
TEXT
8
0
10
5000
20
5000
30
0
40
300
1
MINIMAL R12 TEST
50
0
72
1
11
5000
21
5000
31
0
0
ENDSEC
0
EOF
